<?xml version="1.0" encoding="utf-8"?>
<!-- Generator: Adobe Illustrator 14.0.0, SVG Export Plug-In . SVG Version: 6.00 Build 43363)  -->
<!DOCTYPE svg PUBLIC "-//W3C//DTD SVG 1.1//EN" "http://www.w3.org/Graphics/SVG/1.1/DTD/svg11.dtd">
<svg version="1.1" id="Layer_1" xmlns="http://www.w3.org/2000/svg" xmlns:xlink="http://www.w3.org/1999/xlink" x="0px" y="0px"
	 width="200px" height="200px" viewBox="0 0 200 200" enable-background="new 0 0 200 200" xml:space="preserve">
<g id="Content">
	<g>
		<path fill="#FFFFFF" d="M178.831,167.648l-9.373-4.027l-28.442-28.301c-1.756,2.033-3.658,3.945-5.695,5.693l28.3,28.449
			l4.026,9.368c0,0-8.523-2.411-17.856-2.411c-16.556,0-27.826,10.91-49.794,10.91c-21.952,0-33.231-10.91-49.786-10.91
			c-9.333,0-17.854,2.411-17.854,2.411l4.028-9.368l28.299-28.449c-2.038-1.748-3.941-3.654-5.701-5.693l-28.447,28.301
			l-9.364,4.027c0,0,2.407-8.518,2.407-17.862c0-16.546-10.911-27.826-10.911-49.784s10.911-33.235,10.911-49.788
			c0-9.333-2.407-17.854-2.407-17.854l9.364,4.026L58.98,64.674c1.76-2.029,3.663-3.932,5.701-5.686l-28.299-28.45l-4.028-9.361
			c0,0,8.521,2.407,17.854,2.407c16.555,0,27.834-10.915,49.786-10.915c21.968,0,33.24,10.915,49.794,10.915
			c9.333,0,17.858-2.407,17.858-2.407l-4.028,9.361l-28.3,28.45c2.037,1.753,3.939,3.657,5.697,5.694l28.44-28.297l9.373-4.026
			c0,0-2.416,8.521-2.416,17.854c0,16.553,10.919,27.83,10.919,49.788s-10.919,33.237-10.919,49.784
			C176.415,159.133,178.831,167.648,178.831,167.648 M189.998,100.002c0-12.221-3.294-21.365-6.191-29.436
			c-2.434-6.746-4.72-13.126-4.72-20.353c0-8.832,2.286-17.05,2.312-17.135l1.515-5.384l-14.972,6.444
			c0,0-23.646,23.509-26.916,26.772c-0.868-0.869-1.068-1.069-1.935-1.936c3.269-3.28,26.778-26.916,26.778-26.916l6.439-14.971
			l-5.395,1.517c-0.073,0.028-8.299,2.31-17.128,2.31c-7.228,0-13.604-2.29-20.361-4.721c-8.06-2.9-17.215-6.194-29.433-6.194
			c-12.21,0-21.361,3.293-29.421,6.194c-6.761,2.431-13.14,4.721-20.365,4.721c-8.825,0-17.042-2.281-17.124-2.31l-5.393-1.517
			l6.44,14.973c0,0,23.511,23.635,26.779,26.916c-0.869,0.867-1.069,1.067-1.934,1.936c-3.28-3.263-26.922-26.772-26.922-26.772
			l-14.969-6.444L18.6,33.08c0.03,0.084,2.312,8.303,2.312,17.135c0,7.226-2.29,13.607-4.723,20.353
			c-2.894,8.071-6.187,17.215-6.187,29.436s3.293,21.367,6.187,29.428c2.433,6.762,4.723,13.142,4.723,20.356
			c0,8.842-2.281,17.055-2.312,17.133l-1.517,5.388l14.969-6.438c0,0,23.642-23.512,26.922-26.768
			c0.865,0.86,1.064,1.063,1.934,1.926c-3.268,3.279-26.779,26.923-26.779,26.923l-6.439,14.97l5.393-1.518
			c0.083-0.03,8.299-2.315,17.124-2.315c7.226,0,13.604,2.294,20.365,4.729c8.06,2.9,17.211,6.188,29.421,6.188
			c12.218,0,21.374-3.285,29.433-6.191c6.758-2.43,13.137-4.724,20.361-4.724c8.829,0,17.055,2.285,17.128,2.316l5.394,1.517
			l-6.438-14.97c0,0-23.511-23.642-26.778-26.922c0.864-0.864,1.064-1.064,1.934-1.935c3.271,3.264,26.918,26.773,26.918,26.773
			l14.971,6.438l-1.514-5.388c-0.024-0.078-2.313-8.291-2.313-17.133c0-7.218,2.286-13.597,4.719-20.356
			C186.704,121.369,189.998,112.223,189.998,100.002z"/>
		<path fill="#FFFFFF" d="M147.605,100.002c0,26.299-21.309,47.607-47.612,47.607c-26.288,0-47.609-21.311-47.609-47.607
			c0-26.294,21.321-47.611,47.609-47.611C126.299,52.391,147.605,73.708,147.605,100.002 M150.631,70.855l-10.119,1.099
			c-8.169-11.777-21.33-19.818-36.416-21.054l-2.203-4.993l-1.897-4.293L98.1,45.907L95.905,50.9
			c-15.091,1.236-28.252,9.277-36.412,21.054l-10.124-1.099l2.785,3.799l3.229,4.415c-2.985,6.352-4.658,13.446-4.658,20.932
			c0,7.489,1.672,14.584,4.667,20.938l-3.237,4.414l-2.785,3.802l4.693-0.505l5.431-0.59c8.169,11.763,21.321,19.805,36.412,21.043
			L98.1,154.1l1.895,4.293l1.899-4.293l2.2-4.996c15.089-1.237,28.243-9.279,36.412-21.043l5.433,0.59l4.691,0.506l-2.789-3.803
			l-3.229-4.414c2.99-6.354,4.658-13.447,4.658-20.938c0-7.486-1.668-14.58-4.658-20.932l3.229-4.415L150.631,70.855z"/>
		<path fill="#8D9093" d="M71.694,45.921c0.86-0.476,1.282-0.874,1.529-1.104l0.043-2.181c-0.487,0.623-1.104,1.158-1.803,1.544
			c-1.829,1.006-3.528,0.402-4.362-1.112c-0.782-1.415-0.465-3.176,1.269-4.132c0.935-0.513,1.808-0.454,2.168-0.419L69.6,36.768
			c-0.622,0.135-1.404,0.343-2.29,0.828c-3.037,1.668-3.515,4.534-2.294,6.733C66.254,46.597,68.887,47.459,71.694,45.921"/>
		<polyline fill="#8D9093" points="78.628,42.588 77.399,38.967 80.697,37.858 81.918,41.467 84.138,40.733 81.271,32.251 
			79.063,32.999 80.132,36.186 76.83,37.294 75.756,34.122 73.554,34.856 76.408,43.331 78.628,42.588 		"/>
		<polyline fill="#8D9093" points="89.813,39.634 88.179,30.824 85.872,31.261 87.497,40.053 89.813,39.634 		"/>
		<path fill="#8D9093" d="M97.816,39.056c0.991-0.054,1.542-0.246,1.86-0.352l0.979-1.923c-0.717,0.343-1.495,0.561-2.294,0.602
			c-2.063,0.12-3.367-1.158-3.454-2.875c-0.096-1.629,0.969-3.078,2.942-3.167c1.06-0.063,1.82,0.354,2.142,0.552l-0.113-1.999
			c-0.608-0.128-1.39-0.285-2.394-0.222c-3.467,0.172-5.14,2.548-5.001,5.058C92.628,37.324,94.614,39.234,97.816,39.056"/>
		<path fill="#8D9093" d="M107.593,32.747l0.714,3.417l-2.232-0.246L107.593,32.747 M105.441,37.23l3.172,0.361l0.408,1.838
			l2.455,0.276l-2.435-9.268l-2.251-0.258l-4.492,8.495l2.301,0.252L105.441,37.23z"/>
		<path fill="#8D9093" d="M117.969,41.73c1.277,0.391,2.625,0.437,3.95,0.285l1.256-4.13l-3.237-0.96l-1.348,1.273l2.038,0.604
			l-0.517,1.625c-0.321,0.031-0.752,0.052-1.364-0.139c-1.947-0.565-2.567-2.288-2.104-3.834c0.51-1.699,2.174-2.538,4.125-1.962
			c1.271,0.396,2.002,1.188,2.319,1.529l0.563-1.918c-0.863-0.582-1.689-0.986-2.676-1.284c-3.494-1.043-5.938,0.591-6.647,2.98
			C113.546,38.445,114.923,40.822,117.969,41.73"/>
		<path fill="#8D9093" d="M128.541,40.785c0.79-1.503,2.236-2.17,3.532-1.491c1.329,0.7,1.528,2.262,0.733,3.783
			c-0.64,1.188-2.018,2.207-3.488,1.442C127.977,43.803,127.775,42.232,128.541,40.785 M128.536,46.121
			c2.76,1.434,5.34,0.222,6.491-1.961c1.178-2.216,0.592-4.934-2.144-6.385c-2.711-1.423-5.305-0.458-6.524,1.864
			C125.1,42.015,125.786,44.657,128.536,46.121z"/>
		<polyline fill="#8D9093" points="82.974,168.982 85.268,169.456 85.972,166.011 88.944,166.632 89.3,164.911 86.328,164.303 
			86.71,162.4 90.23,163.117 90.586,161.413 84.768,160.219 82.974,168.982 		"/>
		<polyline fill="#8D9093" points="92.272,170.568 94.605,170.777 95.418,161.87 93.067,161.652 92.272,170.568 		"/>
		<path fill="#8D9093" d="M102.822,165.633c-0.2,0.057-0.387,0.065-0.661,0.092l-0.843,1.291l-0.135-3.343l0.732-0.034
			c0.804-0.021,1.602-0.092,1.65,0.942C103.591,165.111,103.277,165.498,102.822,165.633 M105.673,165.381
			c0.13-0.339,0.208-0.688,0.183-1.061c-0.068-1.746-1.567-2.436-2.967-2.359l-4.047,0.165l0.361,8.935l2.294-0.092l-0.156-3.768
			c0.499-0.026,0.563-0.026,1.009-0.065l2.428,3.685l2.548-0.1l-2.746-4.102C104.873,166.441,105.391,166.102,105.673,165.381z"/>
		<polyline fill="#8D9093" points="112.537,166.055 115.462,165.468 115.119,163.766 112.189,164.342 111.859,162.661 
			115.268,161.986 114.923,160.262 109.227,161.4 110.979,170.156 116.331,169.107 116.982,167.162 112.924,167.962 
			112.537,166.055 		"/>
		<path fill="#8D9093" d="M122.818,92.524h-14.756c-0.049-5.021-0.598-7.183-8.832-7.183c-8.816,0-8.816,4.321-8.816,8.267v12.921
			c0,3.947,0,8.272,8.816,8.272c8.808,0,8.832-2.473,8.832-8.272h14.756v20.675H98.377c-11.71,0-22.681-1.06-22.681-20.675v-4.689
			l-4.706-2.233l4.706-2.221V72.889h25.184c14.573,0,21.938,1.736,21.938,15.777V92.524 M99.994,56.119
			c-24.229,0-43.881,19.649-43.881,43.883c0,24.248,19.653,43.889,43.881,43.889c24.246,0,43.889-19.641,43.889-43.889
			C143.883,75.768,124.238,56.119,99.994,56.119z"/>
		<path fill="#BA0C2F" d="M55.478,130.807c-0.274-0.404-0.548-0.795-0.813-1.203l-24.259,24.984c0,0,1.842-6.549,1.842-14.335
			c0-13.292-8.66-22.842-8.66-40.251c0-17.413,8.66-26.963,8.66-40.249c0-7.791-1.842-14.336-1.842-14.336l24.259,24.989
			c0.265-0.404,0.539-0.812,0.813-1.206L27.261,41.026c0,0,2.051,7.814,2.051,15.186c0,15.047-9.628,23.996-9.628,43.79
			c0,19.799,9.628,28.741,9.628,43.792c0,7.369-2.051,15.19-2.051,15.19L55.478,130.807"/>
		<path fill="#BA0C2F" d="M180.309,100.002c0-19.794-9.615-28.743-9.615-43.79c0-7.372,2.048-15.186,2.048-15.186L144.518,69.2
			c0.278,0.396,0.543,0.802,0.813,1.206L169.6,45.417c0,0-1.852,6.546-1.852,14.336c0,13.285,8.663,22.835,8.663,40.249
			c0,17.409-8.663,26.959-8.663,40.251c0,7.786,1.852,14.335,1.852,14.335l-24.269-24.984c-0.271,0.408-0.534,0.799-0.813,1.203
			l28.224,28.178c0,0-2.048-7.819-2.048-15.188C170.691,128.743,180.309,119.801,180.309,100.002"/>
		<path fill="#BA0C2F" d="M129.598,145.328l24.987,24.271c0,0-6.544-1.853-14.334-1.853c-13.292,0-22.838,8.664-40.257,8.664
			c-17.407,0-26.953-8.664-40.245-8.664c-7.795,0-14.334,1.853-14.334,1.853l24.989-24.271c-0.404-0.262-0.804-0.526-1.208-0.805
			l-28.173,28.218c0,0,7.821-2.052,15.186-2.052c15.042,0,23.994,9.621,43.786,9.621c19.81,0,28.751-9.621,43.79-9.621
			c7.378,0,15.203,2.052,15.203,2.052l-28.182-28.218C130.404,144.802,130.001,145.066,129.598,145.328"/>
		<path fill="#BA0C2F" d="M70.399,54.672L45.415,30.407c0,0,6.54,1.844,14.334,1.844c13.292,0,22.838-8.653,40.245-8.653
			c17.419,0,26.965,8.653,40.257,8.653c7.79,0,14.334-1.844,14.334-1.844l-24.987,24.265c0.403,0.267,0.81,0.539,1.207,0.811
			l28.182-28.222c0,0-7.823,2.055-15.201,2.055c-15.038,0-23.979-9.624-43.79-9.624c-19.792,0-28.743,9.624-43.786,9.624
			c-7.365,0-15.186-2.055-15.186-2.055l28.173,28.222C69.6,55.207,69.999,54.939,70.399,54.672"/>
		<path fill="#BA0C2F" d="M99.233,85.342c8.234,0,8.783,2.162,8.83,7.183h14.756v-3.858c0-14.042-7.363-15.777-21.938-15.777H75.696
			v24.498l-4.706,2.221l4.706,2.233v4.69c0,19.614,10.971,20.674,22.681,20.674h24.441v-20.677h-14.756
			c0,5.802-0.021,8.272-8.832,8.272c-8.816,0-8.816-4.325-8.816-8.272V93.608C90.417,89.663,90.417,85.342,99.233,85.342"/>
		<path fill="#1C2355" d="M102.161,165.725c0.274-0.024,0.461-0.035,0.661-0.092c0.455-0.135,0.769-0.521,0.746-1.052
			c-0.051-1.034-0.848-0.964-1.65-0.942l-0.734,0.034l0.135,3.343L102.161,165.725"/>
		<polyline fill="#1C2355" points="107.593,32.747 106.072,35.918 108.307,36.164 107.593,32.747 		"/>
		<path fill="#1C2355" d="M129.318,44.52c1.473,0.765,2.851-0.254,3.488-1.442c0.795-1.521,0.596-3.083-0.733-3.783
			c-1.296-0.68-2.742-0.013-3.532,1.491C127.775,42.232,127.977,43.803,129.318,44.52"/>
		<path fill="#071D49" d="M104.096,149.104l-2.203,4.998l-1.897,4.293l-1.895-4.293l-2.194-4.998
			c-15.091-1.236-28.243-9.278-36.412-21.043l-5.431,0.592l-4.693,0.505l2.785-3.804l3.237-4.414
			c-2.994-6.354-4.667-13.446-4.667-20.938c0-7.486,1.672-14.58,4.658-20.932l-3.229-4.415l-2.785-3.799l10.124,1.099
			c8.16-11.777,21.321-19.818,36.412-21.054l2.194-4.993l1.895-4.293l1.898,4.293l2.201,4.993
			c15.088,1.236,28.248,9.277,36.418,21.054l10.118-1.099l-2.789,3.799l-3.229,4.415c2.99,6.352,4.658,13.446,4.658,20.932
			c0,7.489-1.668,14.584-4.658,20.938l3.229,4.414l2.789,3.804l-4.692-0.505l-5.432-0.592
			C132.338,139.823,119.182,147.865,104.096,149.104 M105.854,164.32c0.026,0.373-0.052,0.722-0.182,1.061
			c-0.283,0.721-0.8,1.061-1.096,1.238l2.746,4.102l-2.547,0.102l-2.428-3.686c-0.443,0.038-0.511,0.038-1.01,0.064l0.156,3.768
			l-2.294,0.092l-0.361-8.935l4.046-0.165C104.286,161.887,105.785,162.574,105.854,164.32z M112.189,164.342l2.93-0.576
			l0.343,1.702l-2.925,0.587l0.387,1.907l4.059-0.8l-0.649,1.945l-5.354,1.049l-1.752-8.756l5.696-1.141l0.345,1.727l-3.406,0.675
			L112.189,164.342z M89.3,164.911l-0.356,1.721l-2.972-0.621l-0.704,3.445l-2.294-0.474l1.794-8.766l5.818,1.194l-0.356,1.704
			l-3.52-0.719l-0.382,1.902L89.3,164.911z M95.418,161.87l-0.813,8.907l-2.333-0.209l0.795-8.916L95.418,161.87z M158.986,172.741
			c0,0-7.825-2.052-15.203-2.052c-15.038,0-23.98,9.621-43.79,9.621c-19.792,0-28.743-9.621-43.786-9.621
			c-7.365,0-15.186,2.052-15.186,2.052l28.173-28.218c0.404,0.276,0.804,0.543,1.208,0.805L45.415,169.6
			c0,0,6.54-1.851,14.334-1.851c13.292,0,22.838,8.664,40.245,8.664c17.419,0,26.965-8.664,40.257-8.664
			c7.79,0,14.334,1.851,14.334,1.851l-24.987-24.271c0.403-0.261,0.81-0.526,1.207-0.804L158.986,172.741z M27.261,158.984
			c0,0,2.051-7.821,2.051-15.19c0-15.051-9.628-23.993-9.628-43.792c0-19.794,9.628-28.743,9.628-43.79
			c0-7.372-2.051-15.186-2.051-15.186L55.478,69.2c-0.274,0.396-0.548,0.802-0.813,1.206L30.407,45.417
			c0,0,1.842,6.546,1.842,14.336c0,13.285-8.66,22.835-8.66,40.249c0,17.409,8.66,26.959,8.66,40.251
			c0,7.786-1.842,14.335-1.842,14.335l24.259-24.984c0.265,0.408,0.539,0.799,0.813,1.203L27.261,158.984z M92.48,34.73
			c-0.139-2.509,1.534-4.886,5.001-5.058c1.004-0.063,1.786,0.093,2.394,0.222l0.113,1.999c-0.322-0.198-1.082-0.615-2.142-0.552
			c-1.973,0.089-3.038,1.538-2.942,3.167c0.087,1.716,1.391,2.994,3.454,2.875c0.8-0.042,1.578-0.259,2.294-0.602l-0.979,1.923
			c-0.317,0.106-0.869,0.298-1.86,0.352C94.614,39.234,92.628,37.324,92.48,34.73z M85.872,31.261l2.308-0.437l1.634,8.81
			l-2.316,0.419L85.872,31.261z M79.063,32.999l2.208-0.748l2.868,8.482l-2.22,0.734l-1.221-3.609L77.4,38.966l1.229,3.622
			l-2.22,0.743l-2.854-8.475l2.203-0.734l1.073,3.172l3.302-1.108L79.063,32.999z M67.101,43.068
			c0.834,1.514,2.533,2.118,4.362,1.112c0.7-0.387,1.316-0.921,1.803-1.544l-0.043,2.181c-0.248,0.23-0.669,0.628-1.529,1.104
			c-2.807,1.538-5.44,0.676-6.679-1.592c-1.221-2.199-0.743-5.064,2.294-6.733c0.886-0.484,1.668-0.693,2.29-0.828l0.938,1.749
			c-0.361-0.034-1.234-0.093-2.168,0.419C66.636,39.892,66.319,41.654,67.101,43.068z M126.359,39.638
			c1.222-2.322,3.813-3.287,6.524-1.864c2.733,1.451,3.319,4.169,2.144,6.385c-1.151,2.183-3.731,3.396-6.491,1.961
			C125.786,44.657,125.1,42.015,126.359,39.638z M118.747,40.288c0.612,0.191,1.043,0.169,1.364,0.139l0.517-1.625l-2.038-0.604
			l1.348-1.273l3.237,0.96l-1.256,4.13c-1.325,0.152-2.673,0.106-3.95-0.285c-3.046-0.908-4.423-3.285-3.641-5.931
			c0.712-2.39,3.154-4.023,6.646-2.98c0.985,0.297,1.813,0.702,2.678,1.284l-0.564,1.918c-0.316-0.341-1.048-1.134-2.32-1.529
			c-1.951-0.576-3.615,0.263-4.123,1.962C116.18,38,116.8,39.723,118.747,40.288z M102.301,38.673l4.492-8.495l2.251,0.258
			l2.435,9.268l-2.455-0.276l-0.407-1.838l-3.173-0.361l-0.844,1.695L102.301,38.673z M41.022,27.261c0,0,7.821,2.055,15.186,2.055
			c15.042,0,23.994-9.624,43.786-9.624c19.809,0,28.751,9.624,43.79,9.624c7.378,0,15.202-2.055,15.202-2.055l-28.183,28.222
			c-0.397-0.271-0.804-0.543-1.206-0.811l24.986-24.265c0,0-6.544,1.844-14.334,1.844c-13.292,0-22.838-8.653-40.257-8.653
			c-17.407,0-26.953,8.653-40.245,8.653c-7.795,0-14.334-1.844-14.334-1.844l24.984,24.265c-0.4,0.267-0.799,0.535-1.204,0.811
			L41.022,27.261z M172.738,41.026c0,0-2.047,7.814-2.047,15.186c0,15.047,9.615,23.996,9.615,43.79
			c0,19.799-9.615,28.741-9.615,43.792c0,7.369,2.047,15.19,2.047,15.19l-28.221-28.178c0.276-0.404,0.543-0.796,0.813-1.205
			l24.268,24.984c0,0-1.851-6.549-1.851-14.335c0-13.292,8.663-22.842,8.663-40.251c0-17.413-8.663-26.963-8.663-40.249
			c0-7.791,1.851-14.336,1.851-14.336l-24.268,24.99c-0.27-0.404-0.534-0.812-0.813-1.206L172.738,41.026z M141.016,135.32
			l28.442,28.301l9.373,4.027c0,0-2.416-8.518-2.416-17.862c0-16.546,10.919-27.826,10.919-49.784s-10.919-33.235-10.919-49.788
			c0-9.333,2.416-17.854,2.416-17.854l-9.373,4.026l-28.442,28.297c-1.756-2.038-3.658-3.941-5.695-5.694l28.3-28.45l4.026-9.361
			c0,0-8.523,2.407-17.856,2.407c-16.556,0-27.826-10.915-49.794-10.915c-21.952,0-33.231,10.915-49.786,10.915
			c-9.333,0-17.854-2.407-17.854-2.407l4.028,9.361l28.299,28.45c-2.038,1.753-3.941,3.657-5.701,5.686L30.533,36.386l-9.364-4.026
			c0,0,2.407,8.521,2.407,17.854c0,16.553-10.911,27.83-10.911,49.788s10.911,33.238,10.911,49.784
			c0,9.347-2.407,17.862-2.407,17.862l9.364-4.027L58.98,135.32c1.76,2.039,3.663,3.945,5.701,5.693l-28.299,28.449l-4.028,9.368
			c0,0,8.521-2.411,17.854-2.411c16.555,0,27.834,10.91,49.786,10.91c21.968,0,33.24-10.91,49.794-10.91
			c9.333,0,17.858,2.411,17.858,2.411l-4.028-9.368l-28.3-28.449C137.355,139.268,139.26,137.354,141.016,135.32z"/>
		<path fill="#071D49" d="M99.994,143.891c-24.229,0-43.881-19.641-43.881-43.889c0-24.234,19.653-43.883,43.881-43.883
			c24.246,0,43.889,19.649,43.889,43.883C143.883,124.25,124.238,143.891,99.994,143.891 M99.994,52.391
			c-26.288,0-47.609,21.317-47.609,47.611c0,26.299,21.321,47.607,47.609,47.607c26.305,0,47.613-21.311,47.613-47.607
			C147.605,73.708,126.299,52.391,99.994,52.391z"/>
		<polyline fill="#1C2355" points="172.723,175.005 174.271,175.005 174.271,179.702 174.833,179.702 174.833,175.005 
			176.467,175.005 176.467,174.443 172.723,174.443 172.723,175.005 		"/>
		<polyline fill="#1C2355" points="179.465,178.721 178.127,174.443 177.215,174.443 177.215,179.702 177.784,179.702 
			177.784,175.234 179.191,179.702 179.752,179.702 181.154,175.234 181.154,179.702 181.716,179.702 181.716,174.443 
			180.813,174.443 179.465,178.721 		"/>
	</g>
</g>
</svg>
