<?xml version="1.0" encoding="utf-8"?>
<!-- Generator: Adobe Illustrator 14.0.0, SVG Export Plug-In . SVG Version: 6.00 Build 43363)  -->
<!DOCTYPE svg PUBLIC "-//W3C//DTD SVG 1.1//EN" "http://www.w3.org/Graphics/SVG/1.1/DTD/svg11.dtd">
<svg version="1.1" id="Layer_1" xmlns="http://www.w3.org/2000/svg" xmlns:xlink="http://www.w3.org/1999/xlink" x="0px" y="0px"
	 width="200px" height="200px" viewBox="0 0 200 200" enable-background="new 0 0 200 200" xml:space="preserve">
<g id="Content">
	<g>
		<g>
			<circle fill="#00448A" cx="100" cy="121.74" r="68.26"/>
			<circle fill="#FFFFFF" cx="100" cy="121.74" r="65.25"/>
			<circle fill="#00448A" cx="100" cy="121.74" r="63.76"/>
			<circle fill="#FFFFFF" cx="100" cy="121.74" r="46.335"/>
			<path fill="#E01B22" d="M100,79.83c-1.554,0-3.086,0.087-4.596,0.252v83.314c1.51,0.164,3.042,0.252,4.596,0.252
				c1.553,0,3.086-0.088,4.595-0.252V80.082C103.087,79.917,101.555,79.83,100,79.83z"/>
			<path fill="#E01B22" d="M78.385,85.829v71.821c2.859,1.725,5.94,3.117,9.191,4.125V81.703
				C84.325,82.711,81.244,84.104,78.385,85.829z"/>
			<path fill="#E01B22" d="M61.365,105.475v32.531c2.156,5.115,5.3,9.712,9.191,13.555V91.919
				C66.666,95.761,63.521,100.358,61.365,105.475z"/>
			<path fill="#E01B22" d="M129.443,91.919v59.642c3.892-3.843,7.035-8.438,9.191-13.555v-32.531
				C136.479,100.357,133.335,95.761,129.443,91.919z"/>
			<path fill="#E01B22" d="M112.424,81.703v80.072c3.252-1.008,6.333-2.4,9.192-4.125V85.829
				C118.757,84.104,115.676,82.711,112.424,81.703z"/>
			<path fill="#00448A" d="M100,77.041c-24.687,0-44.699,20.012-44.699,44.7c0,24.686,20.012,44.698,44.699,44.698
				c24.686,0,44.699-20.014,44.699-44.698C144.699,97.053,124.688,77.041,100,77.041z M100,163.648
				c-23.146,0-41.91-18.764-41.91-41.908c0-23.146,18.764-41.91,41.91-41.91c23.146,0,41.91,18.764,41.91,41.91
				C141.91,144.886,123.146,163.648,100,163.648z"/>
			<path fill="#FFC10E" d="M73.927,66.333c0,0,2.78,3.352,2.78,8.35c0,14.505,0,35.814,0,37.313
				c0,15.007,23.293,22.559,23.293,22.559s23.293-7.552,23.293-22.559c0-1.833,0-22.896,0-37.313c0-4.998,2.78-8.35,2.78-8.35
				H73.927z"/>
			<path fill="#00448A" d="M84.02,73.224v36.23c0,10.286,15.98,15.476,15.98,15.476s15.98-5.188,15.98-15.476v-36.23H84.02z"/>
			<polygon fill="#E01B22" points="79.283,72.575 80.166,71.183 81.036,72.575 82.688,72.575 80.962,70.206 82.621,67.952 
				81.049,67.952 80.226,69.296 79.383,67.952 77.777,67.952 79.423,70.227 77.704,72.575 			"/>
			<polygon fill="#E01B22" points="102.43,126.516 100.863,126.516 100.041,127.859 99.197,126.516 97.585,126.516 99.231,128.789 
				97.505,131.145 99.097,131.145 99.98,129.739 100.85,131.145 102.496,131.145 100.775,128.77 			"/>
			<polygon fill="#E01B22" points="118.898,72.575 119.773,71.183 120.657,72.575 122.297,72.575 120.577,70.206 122.229,67.952 
				120.664,67.952 119.835,69.296 118.998,67.952 117.386,67.952 119.025,70.227 117.307,72.575 			"/>
			<polygon fill="#E01B22" points="83.668,112.825 82.103,112.825 81.28,114.157 80.437,112.825 78.824,112.825 80.47,115.094 
				78.75,117.449 80.336,117.449 81.22,116.044 82.096,117.449 83.742,117.449 82.009,115.074 			"/>
			<polygon fill="#E01B22" points="121.184,112.825 119.617,112.825 118.794,114.157 117.943,112.825 116.339,112.825 
				117.979,115.094 116.259,117.449 117.852,117.449 118.734,116.044 119.604,117.449 121.25,117.449 119.523,115.074 			"/>
			<polygon fill="#E01B22" points="80.166,95.958 81.036,97.35 82.688,97.35 80.962,94.982 82.621,92.72 81.049,92.72 
				80.226,94.065 79.383,92.72 77.777,92.72 79.423,95.002 77.704,97.35 79.283,97.35 			"/>
			<polygon fill="#E01B22" points="122.229,92.72 120.664,92.72 119.835,94.065 118.998,92.72 117.386,92.72 119.025,95.002 
				117.307,97.35 118.898,97.35 119.773,95.958 120.657,97.35 122.297,97.35 120.577,94.982 			"/>
			<path fill="#FFC10E" d="M93.696,102.811c-0.635-0.951,0.843-1.58,0.843-1.58l-0.101-0.668c-1.692,0.77-1.585-0.636-1.585-0.636
				c0.281-1.619,1.934-0.107,1.934-0.107l0.421-1.125l-4.924-1.907c0,0-0.107,1.024-1.164,1.519
				c-1.057,0.488-0.843,2.074-0.843,2.074s0.489,0.141,0.241,0.743c0,0-0.281,0.313-0.241,0.562c0,0,0.562,0,0.101,0.885
				c0,0,0.636,0.033,0.421,0.669c0,0,0.743-0.074,0.636,0.562c0,0,0.461,0.314,0.85,0c-1.519,3.7-2.683,3.553-2.683,3.553
				c-1.23-1.578-0.769-4.543-0.769-4.543c0.388-2.388-0.495-3.8-0.495-3.8c0.776-1.726-0.876-2.361-0.876-2.361
				c-0.636,1.479,0.241,2.502,0.241,2.502c1.271,1.446,0.636,3.454,0.636,3.454c-1.091,3.699,0.421,5.739,0.421,5.739
				c-0.488,1.761,0.562,2.817,0.562,2.817c-0.669,0.595-0.455,1.371-0.455,1.371c0.034,0.033,2.89,2.957,2.89,2.957h2.636
				c-0.314-0.883-1.231-0.735-1.231-0.735c-1.585-0.073-1.585-0.851-1.585-0.851c-0.107-0.877-0.314-1.687-0.314-1.687
				c1.231-0.774,0.983-1.727,0.983-1.727c1.512,0,2.469,0.735,2.469,0.735c1.124,1.271,2.074,1.059,2.074,1.059l3.733-2.496v-0.85
				h-0.455l-2.255,1.767c-0.702,0.596-1.479-0.074-1.479-0.074l-2.536-1.659c2.215-1.091,2.114-2.815,2.114-2.815h1.479
				c1.686-2.677,3.098-2.569,3.098-2.569v-1.652h-0.354l-2.181,2.396c-0.81,0.669-1.94-0.281-1.94-0.281l1.097-0.146l1.652-2.008
				c0.843-0.877,1.76-1.051,1.76-1.051v-2.081H98.1C95.63,103.66,93.696,102.811,93.696,102.811z"/>
			<path fill="#FFC10E" d="M114.544,96.648c0,0-1.651,0.635-0.883,2.361c0,0-0.884,1.412-0.488,3.8c0,0,0.454,2.965-0.776,4.543
				c0,0-1.164,0.147-2.677-3.553c0.39,0.314,0.845,0,0.845,0c-0.102-0.636,0.635-0.563,0.635-0.563
				c-0.215-0.635,0.422-0.668,0.422-0.668c-0.455-0.885,0.107-0.885,0.107-0.885c0.032-0.246-0.248-0.562-0.248-0.562
				c-0.248-0.603,0.248-0.743,0.248-0.743s0.207-1.586-0.851-2.074c-1.058-0.495-1.158-1.519-1.158-1.519l-4.931,1.907l0.422,1.125
				c0,0,1.652-1.512,1.939,0.107c0,0,0.101,1.405-1.586,0.636l-0.106,0.668c0,0,1.479,0.629,0.843,1.58c0,0-1.934,0.851-4.402-4.047
				h-0.42v2.081c0,0,0.916,0.174,1.766,1.051l1.652,2.008l1.09,0.146c0,0-1.131,0.95-1.938,0.281l-2.182-2.396h-0.354v1.652
				c0,0,1.412-0.107,3.104,2.568h1.479c0,0-0.106,1.727,2.114,2.816l-2.542,1.659c0,0-0.771,0.67-1.479,0.074l-2.248-1.767h-0.461
				v0.85l3.733,2.496c0,0,0.949,0.214,2.08-1.059c0,0,0.944-0.736,2.463-0.736c0,0-0.248,0.951,0.983,1.728
				c0,0-0.208,0.81-0.314,1.687c0,0,0,0.775-1.586,0.851c0,0-0.91-0.147-1.23,0.735h2.644c0,0,2.851-2.924,2.884-2.957
				c0,0,0.215-0.776-0.455-1.371c0,0,1.057-1.059,0.563-2.817c0,0,1.519-2.04,0.422-5.739c0,0-0.637-2.008,0.636-3.454
				C114.297,99.15,115.18,98.126,114.544,96.648z"/>
			<path fill="#00AA4E" d="M99.997,77.934c-6.229,0-11.281,3.626-11.281,8.109s5.052,8.116,11.281,8.116
				c6.235,0,11.287-3.633,11.287-8.116S106.232,77.934,99.997,77.934z"/>
			<path fill="#FFFFFF" d="M50.002,113.818c-0.15-0.197-0.374-0.32-0.628-0.351l-8.067-0.989c-0.523-0.064-0.972,0.285-1.036,0.808
				l-0.275,2.28c-0.029,0.233,0.035,0.461,0.172,0.646c0.157,0.19,0.38,0.313,0.642,0.351l2.689,0.328l0.135-1.106
				c0,0-2.347-0.287-2.569-0.316c0.023-0.2,0.205-1.663,0.229-1.864c0.235,0.029,7.591,0.926,7.826,0.955
				c-0.023,0.207-0.205,1.662-0.228,1.871c-0.215-0.031-2.039-0.254-2.039-0.254l-0.135,1.107l2.159,0.263
				c0.255,0.036,0.501-0.035,0.7-0.187c0.185-0.145,0.301-0.354,0.331-0.582l0.281-2.313
				C50.217,114.236,50.153,114.004,50.002,113.818z"/>
			<path fill="#FFFFFF" d="M49.689,122.35l-0.02-1.117l-0.12,0.01l-9.86,0.191l0.068,3.532l1.05-0.019c0,0-0.045-2.201-0.049-2.422
				C41,122.521,49.689,122.35,49.689,122.35z"/>
			<path fill="#FFFFFF" d="M50.543,131c0,0-8.581,1.43-8.814,1.466c-0.037-0.207-0.299-1.801-0.336-2.001
				c0.241-0.038,8.814-1.473,8.814-1.473l-0.18-1.094l-0.126,0.021l-8.808,1.465c-0.547,0.09-0.861,0.504-0.771,1.023l0.411,2.456
				c0.083,0.514,0.523,0.813,1.057,0.724l8.934-1.486L50.543,131z"/>
			<path fill="#FFFFFF" d="M52.611,138.663l-0.961-2.888l-0.113,0.043l-9.354,3.119l0.96,2.889c0.099,0.307,0.27,0.518,0.493,0.634
				c0.216,0.104,0.464,0.112,0.73,0.015l3.021-1.004c0.339-0.111,0.536-0.33,0.624-0.68c0,0,0.069-0.296,0.119-0.497
				c0.183,0.146,0.536,0.419,0.536,0.419c0.244,0.184,0.55,0.084,0.77,0.014l2.602-0.875c0.252-0.071,0.444-0.235,0.547-0.438
				C52.693,139.184,52.702,138.93,52.611,138.663z M47.034,140.421c-0.12,0.042-2.728,0.903-2.941,0.976
				c-0.063-0.188-0.515-1.545-0.579-1.73c0.212-0.07,3.253-1.087,3.466-1.158c0.063,0.174,0.29,0.879,0.311,0.932
				C47.279,139.506,47.065,140.313,47.034,140.421z M49.048,139.676c-0.088-0.052-0.705-0.482-0.758-0.521
				c-0.022-0.066-0.262-0.799-0.325-0.973c0.213-0.07,2.848-0.945,3.054-1.017c0.063,0.187,0.494,1.478,0.564,1.677
				C51.37,138.912,49.155,139.646,49.048,139.676z"/>
			<path fill="#FFFFFF" d="M58.574,150.242l-1.388-2.063l-0.106,0.081l-8.161,5.521l1.394,2.063c0.248,0.37,0.613,0.604,1.022,0.691
				c0.41,0.072,0.823-0.016,1.174-0.248l5.674-3.848C58.813,152.02,59.158,151.104,58.574,150.242z M57.721,151.193
				c-0.031,0.162-0.129,0.312-0.288,0.406l-5.403,3.668c-0.166,0.11-0.346,0.153-0.514,0.116c-0.181-0.022-0.344-0.153-0.481-0.34
				c0,0-0.467-0.688-0.618-0.926c0.191-0.138,6.329-4.286,6.521-4.425c0.117,0.174,0.659,0.967,0.659,0.967
				c0.083,0.133,0.132,0.266,0.134,0.398C57.733,151.114,57.727,151.154,57.721,151.193z"/>
			<path fill="#FFFFFF" d="M61.888,154.548l-0.092,0.082l-7.278,6.658l2.224,2.424l0.777-0.71c0,0-1.323-1.449-1.473-1.605
				c0.165-0.15,2.411-2.197,2.576-2.349c0.15,0.158,1.371,1.488,1.371,1.488l0.777-0.709c0,0-1.215-1.345-1.365-1.502
				c0.165-0.15,2.299-2.101,2.463-2.251c0.144,0.172,1.446,1.58,1.446,1.58l0.771-0.695L61.888,154.548z"/>
			<path fill="#FFFFFF" d="M68.979,161.289l-2.383-1.951l-0.079,0.096l-6.257,7.629l0.862,0.695c0,0,2.274-2.757,2.418-2.934
				c0.169,0.131,1.568,1.283,1.568,1.283c0.23,0.185,0.486,0.272,0.727,0.256c0.24-0.031,0.459-0.154,0.636-0.372l2.719-3.313
				c0.164-0.203,0.247-0.433,0.223-0.673C69.388,161.751,69.237,161.514,68.979,161.289z M65.667,165.202
				c-0.156-0.118-1.303-1.062-1.459-1.192c0.144-0.177,2.438-2.974,2.582-3.15c0.163,0.132,1.311,1.076,1.466,1.207
				C68.112,162.229,65.812,165.039,65.667,165.202z"/>
			<path fill="#FFFFFF" d="M75.722,165.764l-2.265-1.326c-0.183-0.104-0.444-0.14-0.677-0.082c-0.233,0.059-0.425,0.209-0.548,0.426
				l-4.126,7.029c-0.299,0.516-0.015,1.045,0.302,1.24l2.265,1.325c0.189,0.117,0.451,0.14,0.677,0.082
				c0.24-0.058,0.431-0.208,0.555-0.425l4.126-7.031c0.091-0.162,0.128-0.324,0.125-0.471
				C76.15,166.195,75.944,165.893,75.722,165.764z M71.009,173.354c-0.176-0.104-1.69-0.987-1.873-1.092
				c0.117-0.203,3.867-6.599,3.983-6.802c0.183,0.104,1.697,0.987,1.879,1.092C74.882,166.754,71.133,173.15,71.009,173.354z"/>
			<path fill="#FFFFFF" d="M82.905,169.023l-2.998-1.181l-0.045,0.122l-3.587,9.178l1.038,0.409c0,0,3.164-8.1,3.247-8.327
				c0.196,0.076,1.644,0.641,1.839,0.717c-0.083,0.217-1.044,2.668-1.121,2.871c-0.202-0.078-1.604-0.629-1.604-0.629l-0.251,0.151
				l-0.123,5.998l1.132,0.437c0,0,0.104-4.78,0.111-5.114c0.188,0.077,0.492,0.192,0.492,0.192c0.445,0.18,1.018,0.049,1.242-0.531
				l1.198-3.072C83.687,169.705,83.471,169.24,82.905,169.023z"/>
			<path fill="#FFFFFF" d="M86.485,170.191l-0.024,0.121l-0.212,0.9c0,0,1.25,0.285,1.451,0.335
				c-0.056,0.229-2.043,8.695-2.043,8.695l1.088,0.262c0,0,1.987-8.466,2.037-8.708c0.208,0.051,1.451,0.35,1.451,0.35l0.243-1.021
				L86.485,170.191z"/>
			<polygon fill="#FFFFFF" points="93.629,171.579 93.611,171.7 92.491,181.503 93.597,181.631 94.736,171.707 			"/>
			<path fill="#FFFFFF" d="M101.211,171.97c0,0-0.811,5.287-0.99,6.509c-0.208-1.215-1.104-6.498-1.104-6.498l-1.131,0.006
				l0.022,0.146l1.764,9.818l0.884-0.002l1.672-9.986L101.211,171.97z"/>
			<path fill="#FFFFFF" d="M111.162,180.04l-1.225-8.076c-0.039-0.239-0.162-0.438-0.358-0.582
				c-0.188-0.144-0.445-0.207-0.659-0.176l-2.596,0.394c-0.367,0.061-0.829,0.441-0.738,1.029l1.225,8.063
				c0.092,0.602,0.645,0.832,1.019,0.771l2.596-0.395c0.214-0.029,0.433-0.168,0.576-0.356c0.117-0.163,0.174-0.351,0.171-0.552
				C111.17,180.12,111.17,180.08,111.162,180.04z M107.891,180.393c-0.031-0.229-1.149-7.557-1.188-7.797
				c0.213-0.029,1.941-0.287,2.148-0.318c0.043,0.229,1.148,7.556,1.188,7.796C109.831,180.104,108.104,180.361,107.891,180.393z"/>
			<path fill="#FFFFFF" d="M126.575,174.807l-1.12-2.471l-1.016,0.473c0,0,0.979,2.137,1.07,2.351
				c-0.186,0.084-1.521,0.696-1.713,0.78c-0.098-0.213-3.166-6.959-3.264-7.172c0.186-0.097,1.521-0.694,1.706-0.793
				c0.091,0.199,0.849,1.873,0.849,1.873l1.018-0.459l-0.898-1.979c-0.215-0.478-0.741-0.683-1.191-0.476l-2.125,0.961
				c-0.445,0.209-0.637,0.748-0.428,1.213l3.375,7.408c0.104,0.227,0.288,0.396,0.518,0.486c0.229,0.076,0.477,0.072,0.709-0.039
				l2.092-0.945C126.613,175.809,126.798,175.283,126.575,174.807z"/>
			<path fill="#FFFFFF" d="M134.091,171.408l0.927-0.618l-5.506-8.321l-0.104,0.068l-0.827,0.536c0,0,2.22,3.36,2.352,3.56
				c-0.173,0.109-1.574,1.044-1.746,1.154c-0.131-0.198-2.352-3.545-2.352-3.545l-0.927,0.604l5.506,8.336l0.926-0.619
				c0,0-2.435-3.679-2.563-3.877c0.173-0.108,1.574-1.043,1.754-1.153C131.65,167.717,134.091,171.408,134.091,171.408z"/>
			<polygon fill="#FFFFFF" points="133.404,159.27 133.313,159.352 132.566,160.006 139.122,167.533 139.959,166.811 			"/>
			<path fill="#FFFFFF" d="M138.723,153.835l-0.099,0.123l-0.656,0.722c0,0,3.365,4.156,4.132,5.106
				c-1.029-0.665-5.537-3.558-5.537-3.558l-0.761,0.83l8.572,5.403l0.599-0.651L138.723,153.835z"/>
			<path fill="#FFFFFF" d="M150.598,154.484l0.653-0.961l-9.43-3.903l-0.052,0.081l-0.483,0.703l7.041,7.398l0.62-0.908
				c0,0-1.303-1.367-1.426-1.5c0.099-0.148,1.064-1.558,1.155-1.707C148.846,153.766,150.598,154.484,150.598,154.484z
				 M146.766,154.592c-0.184-0.184-2.311-2.408-2.727-2.855c0.561,0.244,3.393,1.438,3.627,1.543
				C147.536,153.468,146.896,154.402,146.766,154.592z"/>
			<path fill="#FFFFFF" d="M154.229,145.87l-2.279-1.111c-0.291-0.143-0.564-0.084-0.879-0.024c0,0-3.313,0.699-3.539,0.744
				c-0.067-0.039-1.424-0.697-1.613-0.789c0.084-0.174,0.549-1.133,0.633-1.309c0.196,0.09,1.803,0.865,1.803,0.865l0.483-0.999
				l-1.896-0.917c-0.258-0.13-0.52-0.15-0.744-0.066c-0.207,0.069-0.379,0.221-0.487,0.449l-0.847,1.741
				c-0.104,0.216-0.119,0.457-0.043,0.67c0.086,0.239,0.257,0.424,0.473,0.54l1.869,0.904c0.223,0.104,0.402,0.074,0.597,0.029
				l0.066-0.002c0.007,0,3.521-0.703,3.748-0.761c0.067,0.039,1.868,0.917,2.063,1.008c-0.091,0.177-0.556,1.134-0.64,1.31
				c-0.202-0.09-2.28-1.098-2.28-1.098l-0.484,0.998l2.39,1.163c0.54,0.259,1.03-0.004,1.224-0.396l0.848-1.74
				C154.91,146.607,154.721,146.102,154.229,145.87z"/>
			<path fill="#FFFFFF" d="M158.773,130.264l-8.907-1.625l-0.024,0.127l-0.177,0.975c0,0,8.552,1.557,8.793,1.6
				c-0.043,0.201-0.329,1.792-0.366,2c-0.24-0.042-8.787-1.6-8.787-1.6l-0.201,1.095l8.914,1.621
				c0.275,0.048,0.522,0.004,0.715-0.133c0.186-0.124,0.309-0.327,0.352-0.568l0.445-2.454c0.043-0.242-0.002-0.475-0.125-0.66
				C159.266,130.448,159.043,130.313,158.773,130.264z"/>
			<path fill="#FFFFFF" d="M159.372,121.561l-2.537-0.069c-0.329-0.015-0.554,0.144-0.812,0.327c0,0-2.734,2.002-2.928,2.14
				c-0.072-0.005-1.58-0.045-1.794-0.056c0.003-0.193,0.038-1.258,0.041-1.459c0.222,0.01,2.002,0.059,2.002,0.059l0.034-1.111
				l-2.115-0.063c-0.274-0.01-0.527,0.076-0.705,0.24c-0.158,0.156-0.248,0.365-0.258,0.619l-0.053,1.936
				c-0.012,0.495,0.384,0.902,0.886,0.914l2.076,0.064c0.24,0.002,0.394-0.102,0.558-0.211l0.055-0.041
				c0.006,0,2.921-2.086,3.111-2.217c0.073-0.001,2.075,0.059,2.291,0.063c-0.005,0.199-0.039,1.266-0.043,1.466
				c-0.221-0.011-2.537-0.076-2.537-0.076l-0.026,1.11l2.657,0.08c0.604,0.018,0.937-0.431,0.955-0.864l0.054-1.937
				C160.302,121.958,159.914,121.577,159.372,121.561z"/>
			<path fill="#FFFFFF" d="M160.038,116.041c0,0-1.883-0.175-2.063-0.191c-0.022-0.174-0.221-1.869-0.236-2.043
				c0.166-0.058,1.963-0.671,1.963-0.671l-0.141-1.147l-0.141,0.049l-9.525,3.205l0.108,0.947l10.162,0.953L160.038,116.041z
				 M152.939,115.382c0.586-0.19,3.508-1.146,3.754-1.224c0.029,0.234,0.156,1.35,0.188,1.59
				C156.62,115.719,153.551,115.438,152.939,115.382z"/>
			<polygon fill="#00448A" points="147.253,176.771 148.316,176.771 148.316,179.527 148.852,179.527 148.852,176.771 
				149.916,176.771 149.916,176.303 147.253,176.303 			"/>
			<polygon fill="#00448A" points="152.68,176.303 151.883,178.886 151.066,176.303 150.277,176.303 150.277,179.527 
				150.771,179.527 150.771,176.771 151.622,179.527 152.131,179.527 152.975,176.813 152.975,179.527 153.462,179.527 
				153.462,176.303 			"/>
			<path fill="#F37920" d="M101.128,110.631v-15.99h-2.255v15.99c0,0,0.014,2.705-2.465,6.617c0,0,1.489,1.159,3.593,1.159
				c2.103,0,3.592-1.159,3.592-1.159C101.113,113.336,101.128,110.631,101.128,110.631z"/>
			<path fill="#00448A" d="M55.526,43.252c-3.355,3.676-4.918,7.662-4.918,12.544c0,2.836,0.887,7.653,5.114,14.493l7.179,11.596
				c1.433,2.331,1.944,5.349,1.944,7.396c0,0.748-0.108,1.458-0.212,2.146c-0.104,0.68-0.21,1.382-0.21,2.108
				c0,2.242,0.868,3.862,2.397,4.557c0.121,1.791,0.862,3.592,2.622,4.182c-0.051,0.535-0.091,1.166-0.091,1.867
				c0,2.154,0.375,4.868,1.945,6.756l0.463,0.556l0.622-0.369c1.853-1.101,4.015-4.254,4.015-9.524
				c0-9.682-6.583-20.954-8.602-24.178L60.433,65.62c-2.236-3.571-2.706-6.847-2.706-8.966c0-5.317,3.793-11.056,9.922-11.056
				c4.462,0,6.838,2.914,6.838,5.019c0,1.038-0.764,3.888-3.22,3.888c-1.66,0-2.866-1.157-2.866-2.752
				c0-0.512,0.144-1.361,0.548-2.21l0.763-1.602l-1.726,0.413c-5.034,1.205-7.587,3.99-7.587,8.28c0,3.335,1.353,5.877,4.332,8.189
				c-0.021,0.252-0.039,0.532-0.039,0.852c0,1.352,0.279,3.197,1.54,4.618c1.184,1.335,2.946,1.992,5.236,1.952l1.496-0.026
				l-0.791-1.27c-0.991-1.592-1.503-3.035-1.503-4.145c0-0.499,0.131-0.908,0.341-1.256c4.736-0.369,8.084-2.669,9.254-6.309
				c0.291,0.229,2.512,1.98,2.512,1.98l0.532-0.488c1.206-1.108,1.539-2.683,1.539-4.083c0-0.166-0.02-0.313-0.028-0.473
				c0.863,0.43,2.789,1.391,2.789,1.391l0.175-1.151c0.104-0.688,0.155-1.364,0.155-2.019c0-2.31-0.642-4.369-1.847-5.917
				c1.22-1.137,1.927-2.709,1.927-4.378c0-0.037,0-0.074-0.001-0.111l-0.017-0.919l-0.915,0.092
				c-4.005,0.401-6.891-0.748-9.946-1.964c-3.025-1.205-6.153-2.451-10.625-2.451C61.954,38.746,58.257,40.262,55.526,43.252z"/>
			<path fill="#FFC10E" d="M71.05,104.131c0-1.05,0.095-1.936,0.159-2.406l0.117-0.871l-0.875-0.086
				c-1.807-0.179-1.964-2.441-1.964-3.215c0-0.018,0.006-0.705,0.006-0.705l-0.632-0.171c-1.517-0.411-1.743-2.144-1.743-3.141
				c0-0.598,0.092-1.208,0.19-1.853c0.114-0.75,0.231-1.524,0.231-2.4c0-2.279-0.577-5.652-2.196-8.287l-7.181-11.597
				c-4.229-6.844-4.861-11.459-4.861-13.602c0-4.495,1.381-8.011,4.476-11.401c2.43-2.661,5.614-3.955,9.736-3.955
				c4.147,0,7.122,1.185,9.998,2.33c2.859,1.139,5.822,2.291,9.71,2.128c-0.215,1.109-0.846,2.111-1.822,2.774l-0.85,0.578
				l0.729,0.725c1.281,1.272,1.964,3.189,1.964,5.411c0,0.187-0.036,0.387-0.045,0.577c-0.93-0.464-3.584-1.788-3.584-1.788
				l0.349,1.706c0.083,0.403,0.186,1.049,0.186,1.753c0,0.772-0.131,1.612-0.543,2.286c-0.337-0.265-3.441-2.713-3.441-2.713
				l-0.231,1.421c-0.603,3.699-3.772,6.044-8.48,6.274l-0.369,0.018l-0.239,0.284c-0.351,0.417-0.862,1.26-0.862,2.62
				c0,0.941,0.25,2.133,0.965,3.601c-1.039-0.188-1.865-0.603-2.448-1.261c-0.908-1.024-1.115-2.418-1.115-3.473
				c0-0.461,0.04-0.857,0.077-1.128l0.069-0.5l-0.408-0.299c-2.824-2.07-4.029-4.204-4.029-7.133c0-3.008,1.566-5.041,4.771-6.184
				c-0.099,0.452-0.16,0.897-0.16,1.303c0,2.536,1.96,4.448,4.561,4.448c3.678,0,4.916-3.834,4.916-5.583
				c0-3.229-3.263-6.714-8.534-6.714c-7.176,0-11.617,6.619-11.617,12.752c0,2.341,0.514,5.954,2.963,9.865l7.361,11.761
				c1.957,3.127,8.343,14.048,8.343,23.278c0,3.701-1.206,6.34-2.562,7.588C71.271,107.669,71.05,105.714,71.05,104.131z"/>
			<path fill="#00448A" d="M133.484,38.746c-4.473,0-7.601,1.246-10.625,2.451c-3.055,1.217-5.94,2.366-9.945,1.964l-0.916-0.092
				l-0.018,0.919c0,0.037,0,0.074,0,0.111c0,1.669,0.707,3.241,1.927,4.378c-1.205,1.547-1.847,3.607-1.847,5.917
				c0,0.655,0.051,1.33,0.154,2.019l0.176,1.151c0,0,1.926-0.96,2.789-1.391c-0.01,0.16-0.029,0.308-0.029,0.473
				c0,1.4,0.334,2.975,1.539,4.083l0.531,0.488c0,0,2.223-1.752,2.512-1.981c1.17,3.64,4.52,5.94,9.256,6.309
				c0.21,0.348,0.341,0.757,0.341,1.256c0,1.11-0.513,2.553-1.503,4.145l-0.791,1.27l1.496,0.026
				c2.289,0.04,4.052-0.617,5.236-1.952c1.26-1.421,1.539-3.266,1.539-4.618c0-0.32-0.018-0.6-0.039-0.852
				c2.979-2.312,4.332-4.854,4.332-8.189c0-4.29-2.553-7.075-7.588-8.28l-1.726-0.413l0.763,1.602
				c0.404,0.849,0.549,1.698,0.549,2.21c0,1.595-1.205,2.752-2.865,2.752c-2.457,0-3.221-2.85-3.221-3.888
				c0-2.104,2.377-5.02,6.838-5.02c6.129,0,9.922,5.739,9.922,11.056c0,2.119-0.47,5.395-2.705,8.966l-7.36,11.761
				c-2.019,3.224-8.603,14.496-8.603,24.179c0,5.271,2.164,8.424,4.017,9.523l0.621,0.369l0.463-0.557
				c1.571-1.887,1.944-4.601,1.944-6.756c0-0.701-0.039-1.332-0.09-1.867c1.76-0.59,2.5-2.39,2.621-4.181
				c1.529-0.695,2.396-2.314,2.396-4.557c0-0.726-0.106-1.428-0.21-2.108c-0.104-0.687-0.212-1.397-0.212-2.146
				c0-2.047,0.512-5.065,1.943-7.396l7.18-11.596c4.228-6.84,5.115-11.657,5.115-14.493c0-4.883-1.563-8.869-4.92-12.544
				C141.743,40.262,138.047,38.746,133.484,38.746z"/>
			<path fill="#FFC10E" d="M127.859,109.146c-1.354-1.25-2.561-3.888-2.561-7.59c0-9.229,6.387-20.15,8.344-23.278l7.36-11.761
				c2.449-3.912,2.964-7.524,2.964-9.865c0-6.133-4.441-12.752-11.617-12.752c-5.271,0-8.533,3.485-8.533,6.714
				c0,1.749,1.238,5.583,4.916,5.583c2.601,0,4.562-1.912,4.562-4.448c0-0.405-0.062-0.851-0.16-1.303
				c3.205,1.143,4.771,3.176,4.771,6.184c0,2.929-1.206,5.063-4.03,7.133l-0.407,0.299l0.068,0.5
				c0.038,0.271,0.077,0.667,0.077,1.128c0,1.055-0.206,2.449-1.114,3.473c-0.584,0.658-1.41,1.073-2.448,1.261
				c0.715-1.467,0.965-2.659,0.965-3.601c0-1.359-0.513-2.202-0.863-2.62l-0.237-0.284l-0.369-0.018
				c-4.708-0.23-7.877-2.576-8.479-6.274l-0.23-1.421c0,0-3.104,2.448-3.441,2.713c-0.412-0.673-0.543-1.513-0.543-2.286
				c0-0.705,0.104-1.351,0.187-1.753l0.35-1.706c0,0-2.653,1.324-3.584,1.788c-0.01-0.19-0.045-0.391-0.045-0.577
				c0-2.222,0.683-4.139,1.964-5.411l0.729-0.725l-0.851-0.578c-0.976-0.664-1.605-1.666-1.822-2.774
				c3.89,0.162,6.854-0.99,9.712-2.128c2.876-1.146,5.851-2.33,9.997-2.33c4.123,0,7.308,1.293,9.736,3.955
				c3.096,3.39,4.478,6.906,4.478,11.401c0,2.142-0.632,6.758-4.861,13.602l-7.181,11.597c-1.619,2.634-2.196,6.008-2.196,8.287
				c0,0.876,0.117,1.651,0.231,2.4c0.098,0.646,0.189,1.256,0.189,1.853c0,0.997-0.227,2.73-1.742,3.141l-0.633,0.171
				c0,0,0.006,0.688,0.006,0.705c0,0.773-0.156,3.037-1.964,3.214l-0.874,0.086l0.117,0.871c0.063,0.473,0.158,1.357,0.158,2.407
				C128.95,105.714,128.73,107.669,127.859,109.146z"/>
			<path fill="#00448A" d="M112.291,61.401c-0.917-3.807-3.801-5.212-3.801-5.212c0.646-1.747-0.785-2.835-1.021-3
				c2.604-2.151,4.26-5.404,4.26-9.044c0-2.281-0.652-4.408-1.778-6.209c2.563-1.377,4.878-4.37,4.878-8.369
				c0-5.329-4.379-7.556-6.905-8.103l-0.233-0.056c0.143-0.5,0.225-1.034,0.225-1.603v-4.088c0-1.1-0.507-2.29-1.323-3.106
				c-1.434-1.434-4.14-2.371-7.418-2.611v7.197c-8.19,3.217-10.092,8.293-10.206,12.074l6.109-1.732
				c-0.855,2.425-0.921,5.23-0.773,6.357c-3.596,2.004-6.029,5.842-6.029,10.25c0,3.64,1.658,6.893,4.26,9.044
				c-0.236,0.164-1.667,1.252-1.015,3c0,0-2.891,1.405-3.807,5.212c0,0-5.493,1.338-5.988,4.082l18.245,7.119h0.067l18.246-7.119
				C117.784,62.74,112.291,61.401,112.291,61.401z"/>
			<path fill="#C5C7C9" d="M105.809,53.868c-2.744,1.827-5.774,1.9-5.774,1.9h-0.067c0,0-3.031-0.073-5.774-1.9
				c0,0-1.198,0.843-0.85,1.9c0,0,4.155,1.405,6.624,3.239h0.067c2.469-1.833,6.624-3.239,6.624-3.239
				C107.012,54.711,105.809,53.868,105.809,53.868z"/>
			<path fill="#C5C7C9" d="M107.146,57.387c-3.238,0.702-7.112,3.8-7.112,3.8h-0.067c0,0-3.874-3.098-7.112-3.8
				c0,0-2.89,1.686-3.452,4.509c0,0,6.055,3.379,10.564,3.379h0.067c4.509,0,10.565-3.379,10.565-3.379
				C110.036,59.073,107.146,57.387,107.146,57.387z"/>
			<path fill="#C5C7C9" d="M109.4,64.359c-4.758,2.344-9.002,2.711-9.4,2.741c-0.398-0.03-4.643-0.397-9.4-2.741
				c0,0-3.031-0.917-5.286,0.281l14.652,5.915h0.067l14.652-5.915C112.432,63.442,109.4,64.359,109.4,64.359z"/>
			<path fill="#C5C7C9" d="M110.036,43.229c-6.129-0.421-10.002-3.94-10.002-3.94h-0.067c0,0-3.874,3.519-10.002,3.94
				c0,0-0.281,2.536,0.421,3.874c0,0,4.088-0.917,9.581,1.686h0.067c5.5-2.603,9.582-1.686,9.582-1.686
				C110.316,45.766,110.036,43.229,110.036,43.229z"/>
			<path fill="#C5C7C9" d="M100.034,51.399h-0.067c-2.891-2.743-8.31-2.536-8.31-2.536s1.759,4.088,8.31,5.286h0.067
				c6.55-1.198,8.317-5.286,8.317-5.286S102.924,48.656,100.034,51.399z"/>
			<path fill="#C5C7C9" d="M100.107,37.101c0,0,4.502,3.874,9.434,4.088c0,0-1.967-6.41-9.507-6.41h-0.067
				c-7.534,0-9.507,6.41-9.507,6.41c4.931-0.214,9.434-4.088,9.434-4.088H100.107z"/>
			<path fill="#FFFFFF" d="M105.578,13.623c-0.967-0.967-2.764-1.678-4.979-2.023v6.591c-6.621,2.346-9.218,5.819-9.967,9.121
				l12.963-3.675c2.51-0.712,2.885-2.706,2.885-3.831v-4.088C106.48,14.994,106.127,14.172,105.578,13.623z"/>
			<path fill="#E01B22" d="M100.95,18.665c-5.107,1.776-8.31,4.438-9.489,7.825l11.982-3.397c2.045-0.58,2.474-2.108,2.474-3.287
				v-3.828C105.132,17.078,103.095,17.918,100.95,18.665z"/>
			<path fill="#E01B22" d="M101.166,12.269v5.721c1.52-0.537,4.229-1.576,4.506-2.781c0.049-0.213,0.018-0.43-0.094-0.653
				c-0.112-0.196-0.247-0.379-0.4-0.533C104.383,13.228,102.955,12.619,101.166,12.269z"/>
			<path fill="#C5C7C9" d="M107.264,22.716l0.338,0.082c0.625,0.136,5.821,1.415,5.854,6.722c-3.954,0.409-6.158,2.151-7.808,4.705
				c-1.467-0.836-3.135-1.357-4.916-1.47C101.952,28.474,103.991,25.338,107.264,22.716z"/>
			<path fill="#C5C7C9" d="M95.605,32.754c0-1.25,0.189-3.181,0.784-4.829c0.01-0.023,0.16-0.404,0.337-0.854l6.049-1.715
				c-1.564,2.091-2.683,4.503-3.463,7.395c-1.293,0.077-2.528,0.369-3.669,0.841C95.62,33.372,95.605,33.089,95.605,32.754z"/>
			<path fill="#C5C7C9" d="M106.793,34.968c1.441-2.248,3.259-3.67,6.563-4.06c-0.449,2.905-2.31,4.888-4.064,5.828l-0.423,0.218
				C108.262,36.209,107.564,35.541,106.793,34.968z"/>
		</g>
	</g>
</g>
</svg>
