<?xml version="1.0" encoding="utf-8"?>
<!-- Generator: Adobe Illustrator 14.0.0, SVG Export Plug-In . SVG Version: 6.00 Build 43363)  -->
<!DOCTYPE svg PUBLIC "-//W3C//DTD SVG 1.1//EN" "http://www.w3.org/Graphics/SVG/1.1/DTD/svg11.dtd">
<svg version="1.1" id="Layer_1" xmlns="http://www.w3.org/2000/svg" xmlns:xlink="http://www.w3.org/1999/xlink" x="0px" y="0px"
	 width="200px" height="200px" viewBox="0 0 200 200" enable-background="new 0 0 200 200" xml:space="preserve">
<g id="Content">
	<g>
		<g>
			<polygon fill="#FFFFFF" points="128.424,47.611 100,25.265 71.577,47.611 100,28.315 			"/>
			<polygon fill="#FFFFFF" points="84.716,153.771 100,172.119 115.283,153.771 100,168.016 			"/>
			<path fill="#FFFFFF" d="M114.277,106.01L100,91.306L85.721,106.01l-2.604-2.299L70.44,116.79
				c0.607,1.011,1.221,2.008,1.844,2.979l12.012-14.197l2.427,2.459L100,92.309l13.277,15.722l2.427-2.459l12.01,14.199
				c0.625-0.976,1.237-1.972,1.845-2.981l-12.678-13.079L114.277,106.01z"/>
			<path fill="#FFFFFF" d="M100,124.745c4.932,0,8.968-3.812,9.343-8.647l-0.565-0.313l0.429-2.144
				c-0.577-3.101-2.665-5.67-5.483-6.889l-3.721,2.7l-3.719-2.7c-2.821,1.219-4.908,3.789-5.485,6.893l0.425,2.14l-0.564,0.313
				C91.031,120.936,95.066,124.745,100,124.745z M100,114.734l3.719,2.703l-1.422,4.371h-4.596l-1.42-4.371L100,114.734z"/>
			<path fill="#FFFFFF" d="M73.823,79.082l2.824-0.826c1.511-0.442,2.747-2.04,2.747-3.551V61.628c0-1.511-1.236-2.384-2.747-1.942
				l-2.824,0.827c-1.511,0.442-2.747,2.041-2.747,3.552v13.076C71.076,78.652,72.312,79.525,73.823,79.082z M73.555,63.728
				c0-0.483,0.396-0.994,0.879-1.136l1.602-0.47c0.484-0.141,0.88,0.14,0.88,0.623V75.04c0,0.483-0.396,0.995-0.88,1.137
				l-1.602,0.468c-0.483,0.142-0.879-0.139-0.879-0.621V63.728z"/>
			<path fill="#FFFFFF" d="M97.419,72.322V59.246c0-1.511-1.236-2.653-2.747-2.538l-2.824,0.215
				c-1.511,0.115-2.747,1.444-2.747,2.956v13.075c0,1.511,1.236,2.653,2.747,2.539l2.824-0.215
				C96.183,75.163,97.419,73.833,97.419,72.322z M92.459,73.188c-0.483,0.036-0.879-0.33-0.879-0.813V60.08
				c0-0.483,0.396-0.908,0.879-0.946l1.602-0.122c0.484-0.037,0.88,0.329,0.88,0.812V72.12c0,0.484-0.396,0.91-0.88,0.946
				L92.459,73.188z"/>
			<path fill="#FFFFFF" d="M135.91,64.196l-2.823-1.205c-1.511-0.647-2.747,0.062-2.747,1.572v13.076c0,1.51,1.236,3.275,2.747,3.92
				l2.823,1.207c1.511,0.646,2.746-0.063,2.746-1.573V68.116C138.656,66.605,137.421,64.84,135.91,64.196z M136.18,79.743
				c0,0.484-0.396,0.71-0.879,0.503l-1.604-0.684c-0.482-0.208-0.879-0.772-0.879-1.254V66.012c0-0.482,0.396-0.709,0.879-0.503
				l1.604,0.684c0.483,0.207,0.879,0.772,0.879,1.255V79.743z"/>
			<path fill="#FFFFFF" d="M68.88,64.869c0-1.51-1.236-2.211-2.747-1.558l-2.044,0.885c-1.511,0.655-2.747,2.426-2.747,3.937v13.075
				c0,1.511,1.236,2.212,2.747,1.558l2.044-0.885c1.511-0.654,2.747-2.424,2.747-3.935v-1.248l0.372-0.398v-0.254l-3.223,1.395
				v0.255l0.372,0.075v0.858c0,0.482-0.395,1.049-0.878,1.259l-0.824,0.357c-0.484,0.208-0.879-0.015-0.879-0.5V67.449
				c0-0.483,0.395-1.049,0.879-1.259l0.824-0.357c0.483-0.208,0.878,0.016,0.878,0.499v1.599l-0.372,0.397v0.256l3.223-1.395v-0.255
				l-0.372-0.076V64.869z"/>
			<polygon fill="#FFFFFF" points="87.277,73.404 87.023,73.449 86.786,73.864 84.068,74.356 84.068,58.537 84.439,58.233 
				84.439,57.977 81.217,58.562 81.217,58.816 81.589,58.987 81.589,76.572 81.217,76.875 81.217,77.131 87.277,76.033 			"/>
			<path fill="#FFFFFF" d="M128.518,76.946V63.87c0-1.51-1.235-3.077-2.748-3.482l-5.938-1.593v0.255l0.37,0.336v17.586l-0.37,0.136
				v0.254l5.938,1.593C127.279,79.362,128.518,78.457,128.518,76.946z M125.159,76.536l-2.479-0.666V61.817l2.479,0.664
				c0.481,0.129,0.879,0.631,0.879,1.115v12.295C126.038,76.375,125.643,76.665,125.159,76.536z"/>
			<path fill="#FFFFFF" d="M107.896,75.214l-0.552-0.373l-2.046-6.99c1.074-0.33,1.854-1.324,1.854-2.522v-5.712
				c0-1.511-1.235-2.797-2.746-2.856l-5.164-0.208v0.256l0.372,0.252v17.585l-0.372,0.223v0.254l3.223,0.031v-0.255l-0.373-0.251
				v-6.773l0.776,0.032l2.149,7.354l2.879,0.209V75.214L107.896,75.214z M104.675,64.84c0,0.483-0.396,0.862-0.879,0.844
				l-1.703-0.068v-6.691l1.703,0.067c0.483,0.021,0.879,0.431,0.879,0.916V64.84z"/>
			<path fill="#FFFFFF" d="M114.781,76.1v0.255l3.224,0.61v-0.256l-0.373-0.295V61.083c0-1.511-1.235-2.943-2.746-3.183
				l-2.046-0.325c-1.511-0.239-2.746,0.801-2.746,2.312v15.331l-0.373,0.178v0.255l3.223,0.413v-0.255l-0.369-0.296v-6.219
				l2.578,0.41v6.218L114.781,76.1z M112.572,67.038V60.67c0-0.484,0.396-0.816,0.879-0.74l0.822,0.13
				c0.482,0.077,0.879,0.536,0.879,1.019v6.367L112.572,67.038z"/>
			<path fill="#FFFFFF" d="M105.298,81.507v-0.13h-2.202v0.13c0.165,0,0.301,0.086,0.301,0.191v4.974
				c0,0.104-0.136,0.191-0.301,0.191v0.128h2.202v-0.128c-0.167,0-0.301-0.086-0.301-0.191v-4.974
				C104.997,81.593,105.131,81.507,105.298,81.507z"/>
			<path fill="#FFFFFF" d="M108.204,86.863v0.128h3.608c1.552,0,2.809-0.943,2.809-2.807c0-1.862-1.258-2.807-2.809-2.807h-3.608
				v0.13c0.167,0,0.3,0.086,0.3,0.191v4.974C108.504,86.776,108.371,86.863,108.204,86.863z M110.105,82.636h1.364
				c0.855,0,1.55,0.417,1.55,1.548c0,1.131-0.692,1.548-1.55,1.548h-1.364V82.636z"/>
			<path fill="#FFFFFF" d="M98.82,85.067c1.019,0,1.845-0.827,1.845-1.846s-0.826-1.845-1.845-1.845h-4.015v0.13
				c0.166,0,0.3,0.086,0.3,0.191v4.974c0,0.104-0.134,0.191-0.3,0.191v0.128h2.201v-0.128c-0.165,0-0.299-0.086-0.299-0.191v-1.604
				H98.82z M96.706,82.636h1.772c0.323,0,0.585,0.264,0.585,0.585c0,0.324-0.262,0.585-0.585,0.585h-1.772V82.636z"/>
			<path fill="#FFFFFF" d="M83.415,83.222c0-1.019-0.826-1.845-1.845-1.845h-4.302v0.13c0.166,0,0.299,0.086,0.299,0.191v4.974
				c0,0.104-0.133,0.191-0.299,0.191v0.128h2.201v-0.128c-0.166,0-0.299-0.086-0.299-0.191v-1.604h1.076l1.133,1.604
				c0.074,0.104,0,0.191-0.165,0.191v0.128h2.2v-0.128c-0.166,0-0.36-0.086-0.435-0.191l-1.145-1.623
				C82.728,84.919,83.415,84.15,83.415,83.222z M81.228,83.807H79.17v-1.171h2.058c0.323,0,0.585,0.264,0.585,0.585
				C81.813,83.546,81.551,83.807,81.228,83.807z"/>
			<path fill="#FFFFFF" d="M90.487,86.863v0.128h1.943V86.85c-0.12-0.03-0.223-0.098-0.253-0.178l-1.896-4.974
				c-0.042-0.105,0.061-0.191,0.226-0.191v-0.13h-2.98v0.13c0.166,0,0.268,0.086,0.228,0.191l-1.897,4.974
				c-0.03,0.08-0.133,0.147-0.252,0.178v0.142h1.943v-0.128c-0.166,0-0.267-0.086-0.228-0.191l0.359-0.939h2.676l0.358,0.939
				C90.753,86.776,90.651,86.863,90.487,86.863z M87.988,84.92l1.029-2.696l1.028,2.696H87.988z"/>
			<path fill="#FFFFFF" d="M117.35,84.793l-0.789,1.899l0.129,0.032c0,0,0.102-0.139,0.211-0.139c0.33,0,0.822,0.458,2.879,0.458
				c1.41,0,2.953-0.367,2.953-1.899c0-2.378-4.301-1.329-4.301-2.174c0-0.386,0.674-0.556,1.111-0.556
				c1.509,0,2.365,0.381,2.229,0.669l0.129,0.063l0.734-1.492l-0.115-0.044c0,0-0.084,0.165-0.289,0.165
				c-0.203,0-1.393-0.454-2.688-0.454c-1.395,0-2.715,0.631-2.715,1.648c0,2.381,4.302,1.214,4.302,2.174
				c0,0.446-0.452,0.639-1.351,0.639c-2.053,0-2.441-0.653-2.321-0.937L117.35,84.793z"/>
		</g>
		<g>
			<path fill="#C1C6C8" d="M100,10L39.749,60.793c0,42.084,26.294,96.361,60.251,129.207
				c33.955-32.846,60.251-87.123,60.251-129.207L100,10z M100,184.539c-32.558-32.852-56.032-83.104-56.652-122.15
				C45.773,60.345,95.871,18.112,100,14.631c4.129,3.481,54.227,45.714,56.65,47.758C156.032,101.436,132.559,151.688,100,184.539z"
				/>
			<path fill="#C1C6C8" d="M100,32.862L50.733,65.108c2.024,46.281,33.075,83.146,49.267,99.359
				c16.189-16.213,47.243-53.078,49.268-99.359L100,32.862z M100,160.164c-13.911-13.975-39.525-44.525-45.357-82.972
				c-0.559-3.691-0.941-7.452-1.108-11.279L100,35.458l46.464,30.455c-0.167,3.828-0.549,7.589-1.108,11.281
				C139.523,115.639,113.909,146.191,100,160.164z"/>
			<ellipse fill="#C1C6C8" cx="96.814" cy="138.418" rx="1.019" ry="0.686"/>
			<path fill="#C1C6C8" d="M84.296,105.572L72.284,119.77c8.454,13.198,18.31,22.953,27.716,29.779v-16.261
				c-7.841,0-14.197-6.354-14.197-14.195c0-7.842,6.356-14.198,14.197-14.198V92.309l-13.277,15.722L84.296,105.572z
				 M96.552,140.852c1.524,0,1.591-1.287,1.591-1.287s-0.796,0.479-1.737,0.479c-1.021,0-1.802-0.677-1.802-1.625
				c0-1.103,1.124-1.626,2.211-1.626c1.729,0,2.569,0.91,2.569,2.473c0,1.608-1.396,2.471-2.832,2.471
				c-1.077,0-1.594-0.287-1.693-0.287c-0.122,0-0.21,0.102-0.21,0.102l-0.113-0.045l0.731-1.242l0.094,0.045
				C95.314,140.546,95.564,140.852,96.552,140.852z"/>
		</g>
		<g>
			<path fill="#8BB8E8" d="M100,22.665L46.792,63.578c2.174,46.109,34.865,93.354,53.208,111.67
				c18.343-18.314,51.032-65.561,53.207-111.67L100,22.665z M100,25.265l28.424,22.346L100,28.315L71.577,47.611L100,25.265z
				 M100,32.862l49.268,32.246c-2.022,46.281-33.076,83.146-49.268,99.359c-16.192-16.213-47.243-53.078-49.267-99.359L100,32.862z
				 M100,172.119l-15.284-18.35L100,168.016l15.283-14.244L100,172.119z"/>
			<ellipse fill="#8BB8E8" cx="103.186" cy="140.108" rx="1.021" ry="0.685"/>
			<path fill="#8BB8E8" d="M114.195,119.094c0,7.84-6.355,14.195-14.195,14.195v16.261c9.406-6.827,19.264-16.579,27.714-29.778
				l-12.01-14.197l-2.427,2.459L100,92.309v12.585C107.84,104.896,114.195,111.252,114.195,119.094z M103.447,137.673
				c-1.523,0-1.592,1.288-1.592,1.288s0.797-0.479,1.735-0.479c1.021,0,1.804,0.679,1.804,1.625c0,1.102-1.123,1.625-2.211,1.625
				c-1.729,0-2.568-0.909-2.568-2.472c0-1.605,1.395-2.471,2.832-2.471c1.076,0,1.595,0.289,1.691,0.289
				c0.122,0,0.211-0.104,0.211-0.104l0.111,0.047l-0.729,1.24l-0.094-0.046C104.686,137.979,104.436,137.673,103.447,137.673z"/>
			<path fill="#8BB8E8" d="M112.313,117.641c0-6.801-5.513-12.313-12.313-12.313c-6.801,0-12.313,5.513-12.313,12.313
				c0,6.803,5.512,12.314,12.313,12.314C106.8,129.955,112.313,124.441,112.313,117.641z M90.657,116.098l-1.791,1.004
				c-0.003-0.103-0.004-0.205-0.004-0.309c0-2.009,0.532-3.895,1.462-5.521l0.471,2.371c0.577-3.103,2.664-5.674,5.485-6.892
				l0.168-0.517c1.115-0.375,2.309-0.582,3.551-0.582s2.437,0.207,3.551,0.582l0.168,0.517c2.82,1.218,4.908,3.788,5.485,6.89
				l0.47-2.369c0.931,1.627,1.464,3.514,1.464,5.521c0,0.104-0.002,0.206-0.004,0.309l-1.791-1.004
				c-0.375,4.838-4.41,8.647-9.343,8.647C95.066,124.745,91.031,120.936,90.657,116.098z"/>
		</g>
		<g>
			<path fill="#333F48" d="M100,133.289c7.84,0,14.195-6.355,14.195-14.195c0-7.842-6.355-14.197-14.195-14.197
				c-7.841,0-14.197,6.355-14.197,14.197C85.803,126.934,92.159,133.289,100,133.289z M100,105.327
				c6.8,0,12.313,5.513,12.313,12.313c0,6.803-5.513,12.313-12.313,12.313c-6.801,0-12.313-5.515-12.313-12.313
				C87.688,110.84,93.199,105.327,100,105.327z"/>
			<path fill="#333F48" d="M129.559,116.79c-0.605,1.012-1.22,2.008-1.845,2.981c-8.45,13.196-18.308,22.951-27.714,29.776
				c-9.406-6.825-19.262-16.581-27.716-29.778c-0.623-0.974-1.236-1.971-1.844-2.979c-6.552-10.907-12.132-24.013-15.797-39.598
				c5.832,38.447,31.446,69,45.357,82.972c13.909-13.973,39.523-44.525,45.355-82.97C141.691,92.779,136.109,105.884,129.559,116.79
				z"/>
		</g>
		<g>
			<path fill="#862633" d="M100,14.631c-4.129,3.481-54.227,45.714-56.652,47.758c0.62,39.046,24.094,89.298,56.652,122.15
				c32.559-32.852,56.032-83.104,56.65-122.15C154.227,60.345,104.129,18.112,100,14.631z M46.792,63.578L100,22.665l53.207,40.913
				c-2.175,46.109-34.864,93.354-53.207,111.67C81.657,156.934,48.966,109.688,46.792,63.578z"/>
			<path fill="#862633" d="M81.228,82.636H79.17v1.171h2.058c0.323,0,0.585-0.261,0.585-0.585
				C81.813,82.9,81.551,82.636,81.228,82.636z"/>
			<path fill="#862633" d="M135.301,66.192l-1.604-0.684c-0.482-0.206-0.879,0.021-0.879,0.503v12.296
				c0,0.482,0.396,1.047,0.879,1.254l1.604,0.684c0.483,0.207,0.879-0.02,0.879-0.503V67.447
				C136.18,66.964,135.784,66.399,135.301,66.192z"/>
			<path fill="#862633" d="M76.035,62.122l-1.602,0.47c-0.483,0.142-0.879,0.653-0.879,1.136v12.297
				c0,0.482,0.396,0.762,0.879,0.621l1.602-0.468c0.484-0.142,0.88-0.654,0.88-1.137V62.745
				C76.915,62.262,76.519,61.981,76.035,62.122z"/>
			<path fill="#862633" d="M125.159,62.481l-2.479-0.664V75.87l2.479,0.666c0.481,0.129,0.879-0.161,0.879-0.646V63.596
				C126.038,63.112,125.643,62.61,125.159,62.481z"/>
			<path fill="#862633" d="M98.478,82.636h-1.772v1.171h1.772c0.323,0,0.585-0.261,0.585-0.585
				C99.063,82.9,98.801,82.636,98.478,82.636z"/>
			<path fill="#862633" d="M100,35.458L53.535,65.913c0.167,3.827,0.549,7.588,1.108,11.279
				c3.665,15.585,9.246,28.691,15.797,39.598l12.676-13.079l2.604,2.299L100,91.306l14.277,14.704l2.604-2.299l12.678,13.079
				c6.553-10.906,12.133-24.011,15.797-39.596c0.562-3.691,0.941-7.453,1.108-11.281L100,35.458z M69.251,67.188l-3.223,1.395
				v-0.256L66.4,67.93v-1.599c0-0.483-0.395-0.708-0.878-0.499l-0.824,0.357c-0.484,0.209-0.879,0.776-0.879,1.259v12.296
				c0,0.485,0.395,0.708,0.879,0.5l0.824-0.357c0.483-0.21,0.878-0.777,0.878-1.259V77.77l-0.372-0.075V77.44l3.223-1.395V76.3
				l-0.372,0.398v1.248c0,1.51-1.236,3.28-2.747,3.935l-2.044,0.885c-1.511,0.654-2.747-0.047-2.747-1.558V68.132
				c0-1.511,1.236-3.282,2.747-3.937l2.044-0.885c1.511-0.653,2.747,0.048,2.747,1.558v1.988l0.372,0.076V67.188z M81.217,76.875
				l0.372-0.303V58.987l-0.372-0.171v-0.254l3.222-0.584v0.256l-0.372,0.304v15.82l2.718-0.493l0.237-0.415l0.254-0.045v2.629
				l-6.06,1.098L81.217,76.875L81.217,76.875z M73.823,79.082c-1.511,0.443-2.747-0.43-2.747-1.941V64.064
				c0-1.511,1.236-3.11,2.747-3.552l2.824-0.827c1.511-0.442,2.747,0.432,2.747,1.942v13.076c0,1.511-1.236,3.109-2.747,3.551
				L73.823,79.082z M82.98,86.672c0.075,0.104,0.269,0.191,0.435,0.191v0.128h-2.2v-0.128c0.165,0,0.238-0.086,0.165-0.191
				l-1.133-1.604H79.17v1.604c0,0.104,0.133,0.191,0.299,0.191v0.128h-2.201v-0.128c0.166,0,0.299-0.086,0.299-0.191v-4.974
				c0-0.105-0.133-0.191-0.299-0.191v-0.13h4.302c1.019,0,1.845,0.826,1.845,1.845c0,0.929-0.687,1.698-1.58,1.827L82.98,86.672z
				 M92.431,86.991h-1.943v-0.128c0.164,0,0.266-0.086,0.226-0.191l-0.358-0.939H87.68l-0.359,0.939
				c-0.04,0.104,0.062,0.191,0.228,0.191v0.128h-1.943V86.85c0.119-0.03,0.222-0.098,0.252-0.178l1.897-4.974
				c0.04-0.105-0.062-0.191-0.228-0.191v-0.13h2.98v0.13c-0.165,0-0.267,0.086-0.226,0.191l1.896,4.974
				c0.03,0.08,0.133,0.147,0.253,0.178L92.431,86.991L92.431,86.991z M91.848,75.492c-1.511,0.114-2.747-1.028-2.747-2.539V59.878
				c0-1.511,1.236-2.841,2.747-2.956l2.824-0.215c1.511-0.115,2.747,1.027,2.747,2.538v13.076c0,1.511-1.236,2.841-2.747,2.956
				L91.848,75.492z M98.82,85.067h-2.114v1.604c0,0.104,0.134,0.191,0.299,0.191v0.128h-2.201v-0.128c0.166,0,0.3-0.086,0.3-0.191
				v-4.974c0-0.105-0.134-0.191-0.3-0.191v-0.13h4.015c1.019,0,1.845,0.826,1.845,1.845C100.665,84.24,99.839,85.067,98.82,85.067z
				 M105.298,81.507c-0.167,0-0.301,0.086-0.301,0.191v4.974c0,0.104,0.134,0.191,0.301,0.191v0.128h-2.202v-0.128
				c0.165,0,0.301-0.086,0.301-0.191v-4.974c0-0.105-0.136-0.191-0.301-0.191v-0.13h2.202V81.507z M107.896,75.47l-2.879-0.209
				l-2.148-7.354l-0.776-0.032v6.773l0.373,0.251v0.255l-3.223-0.031v-0.254l0.372-0.223V57.06l-0.372-0.252v-0.256l5.164,0.208
				c1.511,0.06,2.747,1.345,2.747,2.856v5.712c0,1.199-0.778,2.192-1.854,2.522l2.048,6.99l0.551,0.373v0.257L107.896,75.47
				L107.896,75.47z M111.813,86.991h-3.607v-0.128c0.167,0,0.3-0.086,0.3-0.191v-4.974c0-0.105-0.133-0.191-0.3-0.191v-0.13h3.607
				c1.553,0,2.81,0.945,2.81,2.807C114.621,86.048,113.363,86.991,111.813,86.991z M112.572,69.294v6.219l0.371,0.296v0.255
				l-3.224-0.413v-0.255l0.372-0.178V59.887c0-1.511,1.235-2.55,2.746-2.312l2.046,0.325c1.513,0.24,2.746,1.672,2.746,3.183v15.331
				l0.373,0.295v0.256l-3.226-0.61V76.1l0.371-0.178v-6.218L112.572,69.294z M119.779,87.045c-2.057,0-2.551-0.458-2.879-0.458
				c-0.111,0-0.211,0.139-0.211,0.139l-0.131-0.032l0.789-1.899l0.108,0.055c-0.12,0.284,0.271,0.937,2.319,0.937
				c0.898,0,1.353-0.193,1.353-0.639c0-0.96-4.302,0.208-4.302-2.174c0-1.017,1.32-1.648,2.715-1.648
				c1.296,0,2.484,0.454,2.688,0.454s0.289-0.165,0.289-0.165l0.114,0.044l-0.735,1.492l-0.127-0.063
				c0.137-0.289-0.722-0.669-2.229-0.669c-0.438,0-1.109,0.17-1.109,0.556c0,0.845,4.299-0.205,4.299,2.174
				C122.73,86.678,121.188,87.045,119.779,87.045z M128.518,76.946c0,1.51-1.235,2.416-2.748,2.01l-5.938-1.593v-0.254l0.37-0.136
				V59.386l-0.37-0.336v-0.255l5.938,1.593c1.513,0.405,2.748,1.972,2.748,3.482V76.946z M138.656,81.192
				c0,1.51-1.235,2.219-2.746,1.573l-2.823-1.207c-1.511-0.646-2.747-2.41-2.747-3.92V64.563c0-1.51,1.236-2.219,2.747-1.572
				l2.823,1.205c1.511,0.645,2.746,2.41,2.746,3.92V81.192z"/>
			<polygon fill="#862633" points="87.988,84.92 90.045,84.92 89.017,82.224 			"/>
			<path fill="#862633" d="M103.796,58.993l-1.703-0.067v6.691l1.703,0.068c0.483,0.019,0.879-0.36,0.879-0.844v-4.932
				C104.675,59.423,104.279,59.013,103.796,58.993z"/>
			<path fill="#862633" d="M94.061,59.012l-1.602,0.122c-0.483,0.038-0.879,0.463-0.879,0.946v12.295
				c0,0.484,0.396,0.85,0.879,0.813l1.602-0.123c0.484-0.037,0.88-0.462,0.88-0.946V59.824
				C94.94,59.341,94.544,58.975,94.061,59.012z"/>
			<path fill="#862633" d="M111.473,82.636h-1.367v3.096h1.367c0.854,0,1.547-0.417,1.547-1.548
				C113.02,83.053,112.327,82.636,111.473,82.636z"/>
			<path fill="#862633" d="M115.152,61.079c0-0.483-0.396-0.942-0.879-1.019l-0.822-0.13c-0.483-0.076-0.879,0.256-0.879,0.74v6.368
				l2.58,0.409V61.079z"/>
			<polygon fill="#862633" points="103.719,117.438 100,114.734 96.281,117.438 97.701,121.811 102.297,121.811 			"/>
			<path fill="#862633" d="M103.719,106.752l-0.168-0.518c-1.115-0.375-2.309-0.58-3.551-0.58s-2.437,0.205-3.551,0.58l-0.168,0.518
				l3.719,2.7L103.719,106.752z"/>
			<path fill="#862633" d="M90.324,111.271c-0.931,1.627-1.462,3.513-1.462,5.521c0,0.104,0.001,0.206,0.004,0.31l1.791-1.004
				l0.564-0.314l-0.425-2.139L90.324,111.271z"/>
			<path fill="#862633" d="M109.204,113.641l-0.427,2.144l0.563,0.313l1.791,1.004c0.002-0.103,0.004-0.205,0.004-0.309
				c0-2.009-0.532-3.895-1.464-5.521L109.204,113.641z"/>
			<path fill="#862633" d="M96.814,136.791c-1.087,0-2.211,0.523-2.211,1.626c0,0.948,0.782,1.625,1.802,1.625
				c0.941,0,1.737-0.479,1.737-0.479s-0.066,1.287-1.591,1.287c-0.987,0-1.238-0.305-1.19-0.545l-0.094-0.046l-0.731,1.242
				l0.113,0.045c0,0,0.088-0.103,0.21-0.103c0.1,0,0.616,0.287,1.693,0.287c1.438,0,2.832-0.859,2.832-2.472
				C99.384,137.701,98.543,136.791,96.814,136.791z M96.814,139.104c-0.563,0-1.019-0.307-1.019-0.687
				c0-0.378,0.456-0.685,1.019-0.685c0.562,0,1.018,0.307,1.018,0.685C97.832,138.797,97.376,139.104,96.814,139.104z"/>
			<path fill="#862633" d="M104.732,138.264l0.729-1.238l-0.111-0.049c0,0-0.089,0.104-0.211,0.104
				c-0.099,0-0.615-0.289-1.691-0.289c-1.438,0-2.832,0.863-2.832,2.472c0,1.562,0.841,2.471,2.568,2.471
				c1.088,0,2.211-0.523,2.211-1.625c0-0.946-0.781-1.627-1.804-1.627c-0.938,0-1.735,0.479-1.735,0.479s0.066-1.288,1.592-1.288
				c0.986,0,1.236,0.307,1.191,0.547L104.732,138.264z M103.186,139.423c0.563,0,1.021,0.306,1.021,0.685s-0.456,0.688-1.021,0.688
				c-0.562,0-1.019-0.309-1.019-0.688S102.624,139.423,103.186,139.423z"/>
			<polygon fill="#862633" points="112.336,180.615 113.637,180.615 113.637,184.539 114.107,184.539 114.107,180.615 
				115.475,180.615 115.475,180.145 112.336,180.145 			"/>
			<polygon fill="#862633" points="117.986,183.721 116.859,180.145 116.104,180.145 116.104,184.539 116.576,184.539 
				116.576,180.807 117.753,184.539 118.227,184.539 119.4,180.807 119.4,184.539 119.873,184.539 119.873,180.145 119.115,180.145 
							"/>
		</g>
	</g>
</g>
</svg>
