<?xml version="1.0" encoding="utf-8"?>
<!-- Generator: Adobe Illustrator 14.0.0, SVG Export Plug-In . SVG Version: 6.00 Build 43363)  -->
<!DOCTYPE svg PUBLIC "-//W3C//DTD SVG 1.1//EN" "http://www.w3.org/Graphics/SVG/1.1/DTD/svg11.dtd">
<svg version="1.1" id="Layer_1" xmlns="http://www.w3.org/2000/svg" xmlns:xlink="http://www.w3.org/1999/xlink" x="0px" y="0px"
	 width="200px" height="200px" viewBox="0 0 200 200" enable-background="new 0 0 200 200" xml:space="preserve">
<g id="Content">
	<g>
		<path fill="#1A1818" d="M189.079,83.382c-0.563-0.638-1.259-1.034-1.812-1.034h-3.904c-1.141,0-4.307,0.431-6.545,1.291
			c-1.996,0.766-3.87,1.705-5.637,2.823l-35.506-17.078l-4.691,2.667l-12.559-7.865l-7.482,5.327L95.09,61.264L65.848,75.708
			c-5.27-0.001-28.018-0.005-28.018-0.005l-0.038,0.048l-9.551,11.926c0,0,3.923,0,4.263,0c-0.076,0.193-4.932,12.523-9.187,23.329
			l-4.204,0.879l-2.918,4.614l-3.958,1.954L10,129.436c3.53-1.496,6.662-2.434,11.134-2.992c3.826-0.479,6.911-0.325,9.892-0.063
			c5.782,0.507,11.302,2.619,16.569,5.188c5.236,2.56,10.292,5.605,15.216,8.063c19.89,9.935,47.753,16.957,69.823,12.224
			c18.124-3.881,39.535-17.766,48.651-36.535c0.504-1.041,0.887-2.666,1.033-3.379l-2.911-0.76c0.815-1.346,1.555-2.771,2.194-4.298
			c0-0.008,1.781-4.668,1.781-4.668c0.229-0.581,0.344-1.133,0.344-1.639c0-0.565-0.14-1.077-0.422-1.489
			c-0.482-0.718-1.339-1.123-2.404-1.13c0,0-5.457,0-5.983,0c0.271-0.294,0.927-1.004,0.978-1.058
			c0.084-0.014,10.516-1.917,10.516-1.917l3.574-9.09c0.012-0.099,0.018-0.201,0.018-0.302
			C190,84.843,189.668,84.048,189.079,83.382z"/>
		<polyline fill="#1A1818" points="179.855,126.367 179.322,126.367 179.322,124.161 178.535,124.161 178.535,123.714 
			180.643,123.714 180.643,124.161 179.855,124.161 179.855,126.367 		"/>
		<polyline fill="#1A1818" points="181.48,126.367 180.98,126.367 180.98,123.714 181.777,123.714 182.266,125.523 182.74,123.714 
			183.546,123.714 183.546,126.367 183.042,126.367 183.042,124.277 182.521,126.367 182.003,126.367 181.48,124.277 
			181.48,126.367 		"/>
		<path fill="#1A1818" d="M46.218,58.025c0.081-0.113,0.466,2.71,0.466,2.71s0.233,1.756,0.173,1.73l0.297,2.999
			c-1.112,0.863-2.261,1.484-3.593,1.945c-8.532,2.94-10.644-8.251-1.97-11.238c1.452-0.5,2.693-0.564,4.203-0.651L46.218,58.025"/>
		<path fill="#1A1818" d="M161.729,61.362c4.035-6.368,17.42-0.82,13.271,5.736C171.008,73.414,157.591,67.913,161.729,61.362"/>
		<path fill="#1A1818" d="M147.622,63.21l-6.429-1.606l4.811-10.153c3.51,0.876,13.139,2.207,10.107,8.626
			C154.641,63.181,150.948,64.035,147.622,63.21"/>
		<polyline fill="#1A1818" points="130.078,58.682 129.496,58.587 128.848,59.49 121.209,58.282 130.025,48.526 136.107,49.491 
			137.255,60.824 130.066,59.683 130.078,58.682 		"/>
		<path fill="#1A1818" d="M116.266,53.962l2.555,4.114l-7.657-0.262l-6.785-0.239l2.586-10.929
			c2.683,0.094,12.269-0.886,10.884,4.971C117.619,52.583,117.111,53.417,116.266,53.962"/>
		<path fill="#1A1818" d="M86.776,52.337c1.22-7.437,15.708-7.56,14.457,0.091C100.019,59.819,85.52,59.975,86.776,52.337"/>
		<path fill="#1A1818" d="M51.786,58.397c-0.225-7.534,13.977-10.42,14.208-2.667C66.21,63.213,52.014,66.14,51.786,58.397"/>
		<polyline fill="#1A1818" points="81.291,58.778 71.333,59.999 72.181,48.802 78.996,47.961 78.584,53.464 81.719,53.082 
			81.291,58.778 		"/>
		<path fill="#FFFFFF" d="M44.505,56.866c-0.814,0.045-1.678,0.225-2.501,0.506c-2.979,1.025-5.054,3.776-4.713,6.267
			c0.134,1.021,0.654,1.834,1.508,2.357c1.13,0.701,2.718,0.779,4.352,0.217c0.549-0.19,1.959-0.766,2.562-1.235l0.107-0.085
			l-0.375-3.816l-0.387,0.501c-0.538,0.685-1.116,1.119-1.826,1.366c-0.549,0.188-1.091,0.166-1.462-0.062
			c-0.225-0.142-0.367-0.354-0.403-0.619c-0.098-0.755,0.598-1.633,1.561-1.963c0.622-0.214,1.307-0.188,2.021,0.086l0.417,0.163
			l-0.63-3.693L44.505,56.866"/>
		<path fill="#133F2C" d="M39.067,65.562c-0.719-0.437-1.16-1.13-1.275-1.993c-0.02-0.155-0.033-0.316-0.033-0.474
			c0-2.126,1.842-4.357,4.409-5.246c0.711-0.238,1.437-0.386,2.145-0.445c0.061,0.349,0.315,1.843,0.409,2.389
			c-0.688-0.182-1.345-0.188-1.968,0.027c-1.196,0.413-2.025,1.513-1.891,2.507c0.055,0.418,0.285,0.769,0.646,0.988
			c0.493,0.303,1.199,0.343,1.892,0.104c0.617-0.217,1.165-0.573,1.659-1.082c0.068,0.708,0.206,2.092,0.23,2.309
			c-0.534,0.372-1.644,0.854-2.303,1.084C41.495,66.242,40.068,66.186,39.067,65.562"/>
		<path fill="#FFFFFF" d="M77.306,49.45l-3.943,0.485l-0.649,8.618l7.393-0.905l0.233-3.12c0,0-2.638,0.327-3.14,0.386
			c0.042-0.552,0.418-5.504,0.418-5.504L77.306,49.45"/>
		<path fill="#133F2C" d="M77.06,49.988c-0.039,0.552-0.409,5.506-0.409,5.506s2.635-0.321,3.138-0.386
			c-0.037,0.437-0.138,1.778-0.162,2.084c-0.367,0.045-5.817,0.712-6.356,0.782c0.04-0.555,0.54-7.212,0.573-7.59
			C74.178,50.344,76.575,50.05,77.06,49.988"/>
		<path fill="#FFFFFF" d="M58.708,52.605c-3.354,0.774-5.726,3.195-5.652,5.755c0.03,1.052,0.447,1.92,1.207,2.504
			c1.094,0.844,2.847,1.065,4.805,0.621c3.409-0.79,5.733-3.139,5.655-5.718c-0.027-1.044-0.456-1.912-1.225-2.509
			C62.379,52.398,60.636,52.16,58.708,52.605 M60.166,55.934c0.225,0.174,0.348,0.431,0.358,0.745
			c0.023,0.795-0.654,1.516-1.644,1.743c-0.538,0.126-0.996,0.073-1.289-0.155c-0.21-0.167-0.326-0.413-0.338-0.731
			c-0.016-0.683,0.542-1.51,1.646-1.762C59.42,55.65,59.878,55.708,60.166,55.934"/>
		<path fill="#133F2C" d="M54.574,60.462c-0.646-0.5-0.987-1.208-1.014-2.116c-0.068-2.322,2.144-4.528,5.262-5.25
			c1.78-0.409,3.365-0.206,4.36,0.563c0.653,0.5,1.01,1.234,1.031,2.121c0.074,2.333-2.091,4.473-5.26,5.203
			C57.141,61.402,55.545,61.212,54.574,60.462 M58.787,55.274L58.787,55.274c-1.209,0.282-2.07,1.235-2.037,2.274
			c0.013,0.477,0.197,0.859,0.534,1.119c0.415,0.319,1.021,0.407,1.709,0.247c1.23-0.284,2.067-1.208,2.041-2.252
			c-0.018-0.461-0.212-0.868-0.552-1.13C60.063,55.213,59.459,55.122,58.787,55.274"/>
		<path fill="#FFFFFF" d="M94.676,47.975c-3.438,0.115-6.23,2.038-6.649,4.569c-0.167,1.036,0.076,1.965,0.715,2.691
			c0.911,1.034,2.587,1.591,4.6,1.519c3.488-0.121,6.223-1.987,6.637-4.528c0.17-1.031-0.082-1.966-0.73-2.7
			C98.318,48.47,96.654,47.899,94.676,47.975 M95.477,51.52c0.19,0.212,0.256,0.485,0.204,0.796
			c-0.123,0.787-0.924,1.365-1.947,1.397c-0.549,0.021-0.984-0.12-1.232-0.399c-0.181-0.201-0.241-0.463-0.191-0.785
			c0.112-0.669,0.816-1.376,1.952-1.414C94.8,51.1,95.23,51.242,95.477,51.52"/>
		<path fill="#133F2C" d="M89.118,54.9c-0.54-0.613-0.738-1.379-0.589-2.276c0.375-2.29,2.97-4.033,6.17-4.148
			c1.821-0.062,3.339,0.445,4.171,1.385c0.542,0.613,0.756,1.409,0.608,2.282c-0.375,2.303-2.906,3.993-6.158,4.103
			C91.46,56.314,89.929,55.819,89.118,54.9 M94.244,50.607L94.244,50.607c-1.24,0.048-2.266,0.819-2.433,1.845
			c-0.077,0.463,0.031,0.881,0.311,1.197c0.348,0.394,0.926,0.597,1.631,0.573c1.264-0.048,2.263-0.795,2.431-1.824
			c0.076-0.46-0.037-0.892-0.325-1.216C95.513,50.792,94.939,50.583,94.244,50.607"/>
		<path fill="#FFFFFF" d="M107.908,48.151l-1.938,8.208l4.195,0.147c0,0,0.313-1.345,0.489-2.073
			c0.294,0.728,0.852,2.119,0.852,2.119l4.979,0.173l-1.892-3.05c-0.071-0.118-0.153-0.198-0.231-0.276
			c1.166-0.303,1.953-0.806,2.252-2.076c0.055-0.233,0.082-0.453,0.082-0.669c0-0.474-0.137-0.895-0.414-1.246
			c-0.754-0.993-2.357-1.253-3.57-1.293l-4.753-0.169L107.908,48.151 M111.525,50.759c0.035,0,0.082,0.003,0.082,0.003
			c0.184,0.008,0.676,0.023,0.793,0.176c0.021,0.027,0.029,0.064,0.029,0.11c0,0.04-0.007,0.081-0.017,0.123
			c-0.077,0.321-0.386,0.445-1.087,0.423C111.396,51.306,111.477,50.974,111.525,50.759"/>
		<path fill="#133F2C" d="M108.357,48.472c0.375,0.011,4.336,0.15,4.336,0.15c1.559,0.054,2.689,0.442,3.188,1.096
			c0.199,0.265,0.305,0.582,0.305,0.948c0,0.169-0.022,0.351-0.067,0.544c-0.245,1.037-0.823,1.489-2.298,1.794l-0.157,0.03
			l-0.088,0.386l0.187,0.139c0.144,0.102,0.291,0.214,0.399,0.391c0,0,0.937,1.497,1.396,2.239
			c-0.724-0.024-3.429-0.118-3.697-0.128c-0.112-0.271-1.047-2.598-1.047-2.598l-0.441-0.016c0,0-0.52,2.199-0.602,2.539
			c-0.338-0.01-2.674-0.094-3.162-0.106C106.73,55.331,108.268,48.842,108.357,48.472 M111.078,50.438l-0.393,1.647l0.572,0.019
			c0.436,0.016,1.442,0.054,1.648-0.812c0.063-0.265,0.025-0.487-0.104-0.659c-0.241-0.321-0.733-0.364-1.18-0.375l-0.497-0.024
			L111.078,50.438"/>
		<path fill="#FFFFFF" d="M130.412,49.988l-6.693,7.408l4.555,0.718c0,0,0.515-0.71,0.65-0.9c0.249,0.04,2.09,0.332,2.438,0.386
			c-0.004,0.268-0.014,1.001-0.014,1.001l4.479,0.71l-0.886-8.72l-4.438-0.705L130.412,49.988 M131.477,53.754
			c-0.012,0.123-0.033,0.294-0.033,0.294s-0.028,0.717-0.051,1.127c-0.244-0.037-0.492-0.078-0.81-0.128
			C130.811,54.72,131.125,54.263,131.477,53.754"/>
		<path fill="#133F2C" d="M130.693,50.433c0.242,0.035,3.445,0.543,3.781,0.603c0.039,0.351,0.719,7.086,0.776,7.675
			c-0.517-0.085-3.039-0.482-3.394-0.541c0.002-0.268,0.014-1.004,0.014-1.004l-3.184-0.503c0,0-0.515,0.717-0.649,0.905
			c-0.25-0.043-2.628-0.418-3.313-0.527C125.282,56.418,130.525,50.621,130.693,50.433 M131.471,52.873l-1.769,2.55l2.175,0.343
			l0.074-1.695c0-0.003,0.109-0.948,0.109-0.948l0.047-0.294l-0.545-0.083L131.471,52.873"/>
		<path fill="#FFFFFF" d="M146.609,53.122l-3.604,7.627l4.927,1.229c3.146,0.781,5.976-0.201,7.031-2.443
			c0.493-1.039,0.538-1.998,0.133-2.844c-0.582-1.235-2.129-2.196-4.472-2.777l-3.918-0.983L146.609,53.122 M149.545,56.74
			c0.012,0,0.027,0.003,0.027,0.003c0.729,0.182,1.199,0.458,1.359,0.792c0.045,0.102,0.063,0.204,0.063,0.313
			c0,0.161-0.043,0.345-0.141,0.546c-0.485,1.036-1.813,0.862-2.433,0.712C148.629,58.689,149.411,57.032,149.545,56.74"/>
		<path fill="#133F2C" d="M146.98,53.531c0.358,0.086,3.521,0.873,3.521,0.873c2.185,0.546,3.616,1.412,4.133,2.507
			c0.147,0.308,0.224,0.64,0.224,0.988c0,0.444-0.116,0.918-0.354,1.417c-0.958,2.017-3.545,2.893-6.448,2.169
			c0,0-3.311-0.825-4.326-1.077C143.969,59.9,146.816,53.875,146.98,53.531 M149.178,56.333l-1.476,3.125l0.528,0.131
			c1.489,0.37,2.609,0.016,3.084-0.977c0.228-0.475,0.252-0.919,0.078-1.294c-0.23-0.485-0.805-0.844-1.697-1.066l-0.426-0.107
			L149.178,56.333"/>
		<path fill="#FFFFFF" d="M162.802,62.042c-0.563,0.886-0.696,1.84-0.396,2.756c0.434,1.31,1.762,2.472,3.64,3.198
			c3.271,1.248,6.505,0.603,7.884-1.578c0.562-0.884,0.69-1.843,0.385-2.772c-0.438-1.333-1.756-2.506-3.601-3.213
			C167.493,59.201,164.173,59.875,162.802,62.042 M167.596,65.353c-0.513-0.201-0.859-0.501-0.976-0.854
			c-0.085-0.252-0.043-0.52,0.129-0.791c0.364-0.578,1.288-0.951,2.347-0.538c0.508,0.185,0.85,0.487,0.967,0.841
			c0.023,0.094,0.039,0.188,0.039,0.276c0,0.18-0.053,0.359-0.162,0.539C169.514,65.497,168.549,65.717,167.596,65.353"/>
		<path fill="#133F2C" d="M166.229,67.522c-1.739-0.669-2.955-1.722-3.345-2.887c-0.251-0.771-0.136-1.556,0.349-2.322
			c1.244-1.963,4.309-2.555,7.298-1.411c1.702,0.656,2.903,1.713,3.301,2.903c0.261,0.788,0.146,1.591-0.329,2.343
			C172.252,68.122,169.264,68.687,166.229,67.522 M166.32,63.438c-0.252,0.399-0.316,0.822-0.182,1.224
			c0.161,0.498,0.619,0.911,1.278,1.165c1.178,0.45,2.39,0.153,2.95-0.728c0.244-0.397,0.313-0.836,0.172-1.246
			c-0.166-0.503-0.609-0.911-1.259-1.16C168.12,62.246,166.874,62.559,166.32,63.438"/>
		<path fill="#5B6770" d="M69.217,79.932c0,0-2.436,6.213-2.436,6.216c-2.994,6.845-5.699,11.352-11.424,15.545
			c0,0-0.294,0.219-0.409,0.301c0.068,0.16,0.204,0.463,0.204,0.463c0.696,1.615,1.044,3.386,1.044,5.393
			c0,1.648-0.241,3.465-0.709,5.477c0.472,0.027,0.948,0.063,1.427,0.098c0.841-2.137,2.774-7.049,2.774-7.052
			C64.037,95.772,72.17,83.14,86.22,83.14h35.396c0.811,0.005,1.505,0.225,1.999,0.64c0,0,0.49,0.415,0.676,0.57
			c0.098-0.252,0.479-1.21,0.479-1.21s23.313,0,33.164,0l-11.35-5.343l-10.369-1.99l1.085,2.718l0.116,0.292l-0.33-0.292
			l-3.764-3.321l-1.205,1.688l2.4,1.633l0.607,0.415l-0.939-0.415l-8.662-3.822l3.002,3.822l0.852,1.084l-1.337-1.084l-8.7-7.06
			l1.742,3.996l-4.152-4.834l-2.525,3.011l9.773,4.887l0.106,0.053l-0.168-0.053l-16.947-5.373l4.218,5.426l-13.057-7.75
			l6.928,6.682l-9.898-4.478l-2.048,5.185L90.815,71.9l-10.81,6.077l7.714-8.294L75.41,74.034l-6.156,3.055
			c0.19,0.371,0.289,0.792,0.289,1.254C69.542,78.834,69.436,79.372,69.217,79.932z"/>
		<path fill="#FFFFFF" d="M186.357,83.995h-3.896c-0.76,0-3.312,0.581-5.431,1.398c-6.633,2.541-10.413,6.542-14.762,12.367
			c-1.828,2.456-3.574,6.106-4.44,8.053c-0.24,0.698,0.073,1.268,0.737,1.336h6.166c0.406,0,0.932,0.021,1.521,0
			c1.43-0.051,3.229-0.356,4.688-1.842c0,0-0.465,1.271-0.69,1.842c0,0-0.883,3.867-5.578,7.422c-1.157,0.875-2.36,1.645-3.558,2.32
			c0.172-1.468,0.328-2.852,0.465-3.816l-3.471,2.922c-1.877,1.468-2.834,1.795-4.729,2.773c-0.35-2.271-0.875-3.996-1.504-5.639
			c1.609-2.582,3.163-5.57,4.518-8.872l6.528-16.647c0.601-1.529-0.116-2.774-1.616-2.825h-23.123l-13.466,34.224
			c-0.013-1.331-0.091-2.786-0.091-2.786c-0.646,0.469-1.262,0.9-1.863,1.293l12.851-32.729h-9.895l-11.747,29.86
			c-0.32-0.568-0.687-1.113-1.103-1.619c-0.326-0.396-1.742-1.668-1.742-1.668c-1.754,3.175-3.367,5.94-6.446,8.047
			c-0.029-0.364-0.082-0.704-0.141-1.001c-0.188-0.943-1.449-3.819-1.449-3.819c-2.601,4.278-3.753,5.422-8.638,6.156l3.246-8.229
			c2.169-0.154,5.095-0.705,7.065-1.408c2.491-0.887,6.56-3.563,9.069-6.472c0.983-1.14,3.849-4.879,6.274-10.843l2.313-6.176
			c0.609-1.562-0.152-2.828-1.714-2.831H98.766l-5.15,6.756h8.182l-6.491,2.03l-10.346,26.301c-0.81-0.266-1.624-0.563-2.447-0.877
			l13.457-34.21h-9.892c-7.615,0-10.849,2.917-13.172,4.818c-3.589,2.946-8.055,8.69-11.276,16.556l-2.92,7.413
			c-1.651-0.154-3.263-0.269-4.844-0.332c0.503-2.521,0.729-4.798,0.157-7.427c-0.346-1.578-0.474-2.029-1.445-3.738
			c6.616-4.202,9.266-8.272,12.529-15.755l2.41-6.154c0.587-1.5-0.101-2.726-1.538-2.812H38.162l-6.948,8.674h10.214l-7.396,1.837
			l-9.451,24.047l-4.601,0.961l-2.818,4.446l-3.692,1.828l-1.549,7.922c2.787-1.252,2.871-1.231,6.466-1.842
			c4.124-0.697,14.842-1.039,21.823,1.739c17.239,6.855,28.513,15.976,48.543,20.746c7.571,1.812,11.912,2.788,19.679,3.381
			c9.305,0.714,14.784,1.091,23.908-0.864c7.146-1.528,11.117-3.045,17.618-6.389c13.206-6.783,20.63-14.132,28.269-25.503
			c1.36-2.035,2.404-5.802,2.404-5.802c-2.701,3.568-8.604,8.967-13.803,11.227c0.104-0.481,0.197-1.154,0.289-1.935
			c0.181-0.115,0.361-0.231,0.544-0.353c4.17-2.754,7.057-5.904,9.226-8.939c1.131-1.587,1.995-2.98,3.03-5.455l1.774-4.645
			c0.613-1.56-0.15-2.819-1.705-2.838h-9.813c0,0,1.896-4.188,7.715-7.359l-1.304,2.981l8.741-1.572l2.896-7.37
			C188.477,84.985,187.725,84.011,186.357,83.995z M105.971,91.576h4.658l-0.002,0.005c0.537,0,0.822,0.399,0.688,0.922
			l-1.266,3.195c-1.181,2.665-2.001,3.61-2.465,4.245c-1.011,1.398-3.029,3.114-4.621,3.554c-0.658,0.185-1.313,0.267-1.783,0.303
			L105.971,91.576z M79.017,94.426c2.323-1.904,2.91-2.091,4.186-2.091c0,0-0.078,0.185-0.153,0.391l-4.339,11.105h-6.099
			C74.142,100.425,76.607,96.405,79.017,94.426z M69.157,112.252h6.112l-1.428,3.634c-1.102-0.302-2.243-0.562-3.434-0.753
			c-0.759-0.122-1.504-0.238-2.241-0.352L69.157,112.252z M46.331,86.073h6.9l-0.016,0.037c0.545,0,0.825,0.41,0.68,0.94
			l-0.48,1.219c-1.832,3.849-3.172,4.826-3.86,5.431c-1.522,1.347-3.072,2.075-4.972,2.871c-0.761,0.313-2.041,0.509-2.598,0.552
			L46.331,86.073z M36.133,114.303l-0.984-0.139l2.662-6.781c0.717-0.054,2.847-0.49,4.015-0.871
			c0.963,1.223,1.216,2.459,1.415,5.266c0.043,0.594,0.027,1.228-0.03,1.885c-0.119,0.016-0.238,0.025-0.356,0.043
			C42.854,113.703,38.397,114.4,36.133,114.303z M135.102,117.695l10.152-25.806h5.02c0.568,0.038,0.854,0.514,0.621,1.101
			l-4.486,11.392c-1.875,4.44-4.465,9.202-7.402,11.612c-2.32,1.898-3.146,2.092-4.054,2.092
			C134.95,118.087,135.027,117.889,135.102,117.695z M117.74,129.75c-2.656,0.229-5.527,0.404-9.042,0.139
			c-5.207-0.385-9.271-1.519-13.106-2.763l0.855-1.196l7.363-0.742l0.397-1.6l9.135-0.286l4.226,3.765L117.74,129.75 M13.65,124.596
			l0.936-4.582l3.46-1.716l2.718-4.295l9.29-1.938l1.193,2.832l5.661,0.793l2.817,5.156c-3.061-0.647-9.308-0.879-15.095,0.195
			C20.205,121.861,16.296,123.406,13.65,124.596"/>
		<polyline fill="#1A1818" points="71.904,79.153 80.569,74.651 79.514,77.166 71.904,79.153 		"/>
		<polyline fill="#1A1818" points="89.537,75.979 81.293,80.414 91.051,73.212 91.695,78.009 89.537,75.979 		"/>
		<polyline fill="#1A1818" points="98.038,78.896 96.593,74.3 104.128,79.241 98.928,76.74 98.038,78.896 		"/>
		<polyline fill="#1A1818" points="111.602,75.805 122.266,79.279 113.77,77.431 111.602,75.805 		"/>
		<polyline fill="#1A1818" points="117.745,72.131 116.779,73.815 118.473,74.482 117.745,72.131 		"/>
		<polyline fill="#1A1818" points="129.137,77.01 137.613,80.293 130.641,78.457 129.137,77.01 		"/>
		<polyline fill="#1A1818" points="139.012,77.123 146.368,79.656 139.139,78.387 139.012,77.123 		"/>
		<path fill="#5B6770" d="M40.756,108.842c0,0-0.151-0.354-0.211-0.486c-0.175,0.039-0.513,0.123-0.513,0.123l-0.817,0.187
			c0,0-0.24,0.054-0.332,0.071c-0.019,0.048-0.986,2.51-2.19,5.576c1.439-0.008,3.407-0.23,4.728-0.404
			c0.031-0.405,0.048-0.809,0.048-1.205C41.469,111.313,41.267,109.988,40.756,108.842z"/>
		<path fill="#5B6770" d="M70.415,113.902c-0.011,0.029-0.181,0.465-0.454,1.16c0.149,0.022,0.295,0.045,0.446,0.068
			c0.593,0.098,1.172,0.208,1.742,0.334c0.355-0.9,0.589-1.495,0.616-1.563C72.452,113.902,70.563,113.902,70.415,113.902z"/>
		<path fill="#5B6770" d="M167.627,109.563c0,0,0.486-0.83,0.67-1.146c-0.449,0.067-1.314,0.203-1.314,0.203
			c-0.473,0.073-0.981,0.124-1.568,0.151c0,0-0.048,0.002-0.055,0.002c0,0-1.45,0.022-1.457,0.022c0,0-6.297-0.006-6.312-0.006
			c-0.3-0.032-0.562-0.11-0.786-0.233c0,0-0.423-0.225-0.578-0.31c-0.086,0.168-0.291,0.594-0.291,0.594
			c-1.104,2.247-2.244,4.255-3.441,6.05c0.355,1.146,0.661,2.396,0.891,3.881c1.895-0.98,2.852-1.31,4.729-2.775l3.471-2.922
			c-0.086,0.609-0.18,1.385-0.279,2.24C164.333,113.55,166.415,111.66,167.627,109.563z"/>
		<path fill="#5B6770" d="M114.594,105.643c-4.182,4.646-9.25,7.359-15.499,8.274c0,0-0.264,0.04-0.366,0.054
			c-0.025,0.066-1.276,3.233-2.551,6.461c3.485-0.771,4.651-2.119,6.916-5.845c0,0,1.264,2.876,1.449,3.819
			c0.059,0.297,0.109,0.637,0.139,1.001c3.082-2.104,4.694-4.872,6.448-8.046c0,0,1.416,1.271,1.742,1.668
			c0.03,0.039,0.06,0.08,0.09,0.119c1.976-5.022,3.769-9.58,3.978-10.113C116.139,103.928,114.594,105.643,114.594,105.643z"/>
		<path fill="#5B6770" d="M164.617,87.38c0,0-3.143,8.013-3.819,9.738c0.856-1.267,2.272-3.359,2.281-3.367
			c2.01-2.463,4.19-4.537,6.575-6.253l-4.733-2.21c0.024,0.151,0.039,0.306,0.039,0.467C164.96,86.255,164.842,86.804,164.617,87.38
			z"/>
		<path fill="#B58500" d="M32.137,113.74l2.049,0.287l2.978-7.582l0.966-0.075c0.602-0.043,2.632-0.453,3.713-0.806l0.636-0.211
			l0.304,0.385c1.085,1.371,1.344,2.779,1.549,5.609c0.049,0.688,0.024,1.422-0.049,2.182c2.816-0.309,5.643-0.401,8.557-0.322
			c0.459-2.359,0.635-4.45,0.109-6.863c-0.335-1.519-0.437-1.91-1.379-3.566L51.123,102l1.099-0.701
			c6.199-3.926,8.672-7.651,11.883-14.995l2.402-6.133c0.371-0.954-0.058-1.733-0.962-1.802h-27.1l-5.32,6.644l16.208-0.002
			l-0.22,0.059l4.508,0.008c1.069,0,1.615,0.82,1.327,1.856l-0.013,0.054l-0.521,1.326c-0.955,1.995-1.827,3.355-2.575,4.279
			c-0.379,0.466-0.724,0.817-1.025,1.106c-0.267,0.257-0.5,0.447-0.678,0.608c-1.755,1.548-3.535,2.371-5.46,3.177
			c-0.976,0.404-2.421,0.61-3.02,0.65l-1.113,0.075L45.344,86l-10.604,2.641l-9.055,23.042l5.139-1.074L32.137,113.74z"/>
		<path fill="#B58500" d="M68.542,111.236h8.142l-1.931,4.912c2.448,0.733,4.706,1.66,6.882,2.511l12.924-32.857H85.68
			c-3.671,0-6.186,0.699-8.007,1.559c-0.908,0.431-1.676,0.916-2.36,1.406c-0.714,0.516-1.321,1.03-1.875,1.488
			c-3.312,2.708-7.632,8.201-10.794,15.905l-2.955,7.509c2.403,0.245,4.898,0.573,7.523,0.966L68.542,111.236z M71.622,103.777
			c1.539-3.441,4.127-7.752,6.87-9.999c2.465-2.019,3.409-2.461,5.108-2.461h1.038c0,0-0.5,1.203-0.573,1.401l-4.736,12.125h-12.16
			L71.622,103.777z"/>
		<path fill="#B58500" d="M93.072,120.932c0.107-0.014,0.209-0.026,0.313-0.039l3.671-9.313l0.968-0.072
			c2.093-0.152,4.901-0.688,6.725-1.336c2.212-0.787,6.02-3.286,8.336-5.967c0.875-1.01,3.643-4.599,6.004-10.392l2.316-6.184
			c0.395-1.001-0.09-1.827-1.096-1.827H99.07l-3.603,4.727l12.594,0.002l-0.097,0.03l3.063,0.002c1.054,0,1.605,0.788,1.344,1.8
			l-0.016,0.072l-1.301,3.289c-0.632,1.417-1.179,2.402-1.611,3.093c-0.438,0.688-0.774,1.106-1.021,1.449
			c-1.148,1.583-3.479,3.625-5.54,4.199c-0.772,0.219-1.513,0.309-2.034,0.348l-1.116,0.07l5.252-13.393l-8.941,2.798
			l-10.181,25.867C88.224,120.855,90.575,121.239,93.072,120.932z"/>
		<path fill="#B58500" d="M121.439,118.305l12.766-32.5h-7.867l-11.801,29.993c0.527,1.225,0.873,2.528,1.027,3.838
			C117.979,119.721,119.748,119.208,121.439,118.305z"/>
		<path fill="#B58500" d="M185.953,85.012h-3.889c-0.549,0-2.916,0.512-4.979,1.305c-6.188,2.375-9.717,6.05-13.987,11.783
			c-1.699,2.271-3.365,5.731-4.25,7.7c-0.037,0.173,0.036,0.304,0.188,0.335h7.604c1.381-0.057,2.284-0.447,3.635-1.342
			c0.867-0.575,2.328-1.197,2.328-1.197s-1.066,2.877-1.312,3.481c-0.024,0.123-0.099,0.368-0.229,0.713
			c-0.172,0.465-0.459,1.13-0.91,1.917c-0.898,1.568-2.438,3.609-5.008,5.555c-1.361,1.026-2.77,1.904-4.15,2.666
			c-0.23,1.905-0.484,3.821-0.754,5.051c2.152-2.023,4-4.107,4.728-5.302l2.894-4.731c-0.129,1.318-0.342,4.959-0.625,7.814
			c0.017-0.01,0.031-0.02,0.048-0.029c3.948-2.612,6.694-5.598,8.76-8.502c1.067-1.498,1.878-2.793,2.868-5.149l1.771-4.625
			c0.395-1.002-0.09-1.818-1.091-1.835h-10.876c0,0,0.618-1.397,0.945-1.936c0.294-0.488,0.761-1.182,1.428-1.979
			c1.33-1.591,3.43-3.586,6.555-5.292l2.139-1.168l-1.629,3.742l6.496-1.168l2.521-6.425
			C187.279,85.612,186.802,85.026,185.953,85.012z"/>
		<path fill="#B58500" d="M133.75,119.718c0.529,1.371,0.719,2.611-0.238,4.743c4.041-0.018,6.381-1.143,9.586-2.686
			c0.354-0.243,0.676-0.487,0.978-0.727c2.431-3.615,4.049-7.035,4.724-9.341l1.035-3.508c0.577,1.44,1.133,2.676,1.639,3.901
			c1.379-2.305,2.717-4.939,3.906-7.846l6.529-16.647c0.386-0.983-0.072-1.781-1.028-1.811h-22.075l-14.4,36.603
			c3.128-0.104,4.4-0.231,7.111-1.27C132.479,120.768,133.75,119.718,133.75,119.718z M134.087,117.701l10.136-25.776l-2.836-1.05
			l9.32,0.003c1.057,0.072,1.66,0.959,1.205,2.113l-4.499,11.411c-1.858,4.41-4.574,9.531-7.879,12.236
			c-2.488,2.037-3.665,2.463-4.984,2.463h-1.034C133.516,119.102,134.014,117.881,134.087,117.701z"/>
		<polyline fill="#5B6770" points="28.983,113.242 23.845,116.919 30.565,115.906 27.205,118.002 35.833,119.271 25.114,119.461 
			16.361,122.188 21.497,118.952 19.53,118.823 21.628,115.339 28.983,113.242 		"/>
		<polyline fill="#5B6770" points="109.293,128.208 114.029,126.381 108.896,125.869 111.803,124.1 104.669,124.956 
			107.232,125.188 100.443,127.24 109.293,128.208 		"/>
		<path fill="#FFFFFF" d="M69.151,76.895c0.039,0.061,0.069,0.127,0.102,0.192l6.156-3.055l12.309-4.352l-7.714,8.294l10.81-6.077
			l2.497,6.317l2.048-5.185l9.898,4.478l-6.928-6.682l13.057,7.75l-4.218-5.426l16.947,5.373h0.062l-9.772-4.887l2.523-3.011
			l4.153,4.834l-1.742-3.996l8.7,7.06h0.484l-3.002-3.822l8.664,3.822h0.33l-2.399-1.633l1.206-1.688l3.763,3.321h0.214
			l-1.085-2.718l10.369,1.99l11.351,5.343c0.864,0,1.629,0,2.262,0l0.082-0.019l-25.069-11.707l-4.271,2.724l-12.57-7.863
			l-7.387,5.139l-16.111-8.039L68.676,76.361C68.861,76.515,69.022,76.692,69.151,76.895z"/>
		<path fill="#0033A0" d="M153.641,120.225c1.828-0.967,4.25-2.33,6.414-4.021c-0.35,2.47-0.998,6.666-1.506,8.294
			c-1.642,1.407-3.107,2.453-4.543,3.172C154.354,126.484,154.287,121.762,153.641,120.225"/>
		<path fill="#0033A0" d="M150.016,112.064c1.727,4.28,3.924,14.1,1.827,17.686c4.185-0.195,12.48-8.591,14.202-11.408
			c-0.215,2.158,0.028,5.2-1.326,7.506c4.29-1.342,8.821-3.408,12.42-8.168c-6.656,11.028-20.793,22.568-27.599,24.969
			c1.746-1.551,2.978-3.729,3.583-5.135c-1.618,1.68-8.613,7.895-16.566,10.185c2.49-2.58,5.229-5.927,6.076-8.099
			c-4.738,4.906-6.553,5.646-11.54,7.813c-8.106,3.532-14.534,3.171-22.54,2.426c1.389-0.401,3.398-1.582,5.783-2.896
			c-9.572,3.719-21.302,0.625-25.254-0.446c8.883,0.103,30.77-3.707,38.777-17.298c0.547,2.275,0.25,5.386,0.006,7.865
			C140.209,131.648,148.223,118.188,150.016,112.064"/>
		<path fill="#0033A0" d="M141.594,123.882c-2.451,4.21-10.027,9.64-12.458,10.986l0.021-0.488c0.358-3.288-0.718-8.165-0.798-8.526
			l-1.592,2.703c-0.561,0.941-1.188,1.834-1.875,2.688c-3.813,4.001-8.207,6.06-14.233,8.53c-7.616,3.138-12.633,3.527-20.876,3.285
			c-8.769-0.261-13.743-1.875-21.91-5.071c-6.516-2.554-18.684-9.191-27.237-12.214c-7.31-2.588-11.959-2.473-19.712-2.575
			c4.534-1.151,7.227-1.486,11.902-1.478c5.569,0.012,7.424,0.354,12.042,1.352c8.534,1.846,13.042,3.921,20.613,8.738
			c-4.371-3.352-8.369-6.672-14.625-9.137c-3.823-1.507-6.765-1.728-10.163-2.443l-2.501-4.571c1.516,0.071,3.515,0.19,5.062,0.426
			c3.056,0.453,6.986,0.687,11.202,2.089c5.51,1.829,8.104,4.116,13.068,7.131c4.893,2.967,8.734,6.063,12.193,8.162
			c3.462,2.096,8.843,4.92,14.803,4.814c-3.687-0.315-7.916-2.897-12.531-5.619c-9.277-5.469-14.032-11.491-23.548-15.387
			c-5.6-2.283-9.81-2.239-15.332-2.329c3.667-0.765,10.001-0.759,12.686-0.351c2.774,0.422,6.708,0.93,10.818,2.223
			c6.889,2.162,14.952,6.212,17.383,7.312c-5.133-3.336-10.507-6.164-13.84-7.75c2.619,0.101,10.407,3.517,14.296,4.697
			c3.864,1.171,6.369,1.412,8.773,1.11c2.402-0.297,5.691-0.967,7.319-2.28c1.606-1.304,2.364-2.579,2.364-2.579
			s0.924,2.145,0.324,4.184c1.519-0.408,3.063-1.623,4.642-3.129c1.742-1.658,3.593-5.008,3.593-5.008s2.71,2.487,2.92,7.434
			c5.217,0.672,9.098-2.188,9.098-2.188s0.191,3.671-1.18,4.968c3.307,0.449,9.5-0.93,10.12-1.572
			c0.253,0.39-0.212,2.416-1.459,3.575C134.268,125.998,138.259,125.462,141.594,123.882 M87.027,125.355
			c2.743,0.912,12.335,5.033,20.667,5.597c6.941,0.466,12.854-0.244,17.765-1.722c-3.313,0.34-6.118,0.351-6.118,0.351l-0.456-2.968
			l-5.136-4.567l-10.507,0.572l-0.461,1.251l-7.87,1.145l-1.144,1.482C93.766,126.496,91.023,126.381,87.027,125.355
			 M78.052,125.869c2.211,2.531,16.189,12.21,27.589,10.561c4.107-0.601,6.441-1.377,10.092-3.352
			c-7.103,1.57-11.478,1.674-18.645,0.453C89.203,132.182,81.771,128.09,78.052,125.869"/>
		<path fill="#5B6770" d="M51.648,88.636c-0.644,1.313-1.27,2.351-1.861,3.082l-0.565,0.616l-0.403,0.359l-0.151,0.123
			c-0.79,0.705-1.609,1.208-2.928,1.808c0,0-1.028,0.466-1.426,0.645c0.214-0.533,2.918-7.399,2.973-7.549c0.16,0,4.448,0,4.81,0
			C51.978,87.972,51.648,88.636,51.648,88.636z"/>
		<path fill="#5B6770" d="M77.748,102.186c-0.147,0-2.421,0-2.778,0c0.145-0.267,0.513-0.938,0.513-0.938
			c1.001-1.84,2.118-3.503,3.134-4.676c0,0,1.74-1.998,2.408-2.77C80.569,94.962,77.808,102.04,77.748,102.186z"/>
		<path fill="#5B6770" d="M106.387,99.364l-0.174,0.238c-0.232,0.313-0.52,0.643-0.872,0.972c0,0-1.479,1.381-2.048,1.916
			c0.365-0.93,3.576-9.117,3.634-9.266c0.154,0,2.185,0,2.501,0c-0.121,0.305-1.054,2.659-1.054,2.659
			c-0.446,0.999-0.882,1.845-1.304,2.504L106.387,99.364z"/>
		<path fill="#5B6770" d="M144.723,104.596c-1.606,3.799-3.404,6.988-5.067,8.979c0,0-1.814,2.169-2.511,3.005
			c0.537-1.365,9-22.884,9.061-23.037c0.154,0,2.561-0.005,2.875-0.005C148.947,93.874,144.723,104.586,144.723,104.596z"/>
	</g>
</g>
</svg>
