<?xml version="1.0" encoding="utf-8"?>
<!-- Generator: Adobe Illustrator 14.0.0, SVG Export Plug-In . SVG Version: 6.00 Build 43363)  -->
<!DOCTYPE svg PUBLIC "-//W3C//DTD SVG 1.1//EN" "http://www.w3.org/Graphics/SVG/1.1/DTD/svg11.dtd">
<svg version="1.1" id="Layer_1" xmlns="http://www.w3.org/2000/svg" xmlns:xlink="http://www.w3.org/1999/xlink" x="0px" y="0px"
	 width="200px" height="200px" viewBox="0 0 200 200" enable-background="new 0 0 200 200" xml:space="preserve">
<g id="Content">
	<path d="M174.244,19.811c-18.408-5.733-37.973-8.968-58.438-9.418c-0.007-0.053-0.015-0.086-0.023-0.095
		C115.641,10.151,103.29,10,100.262,10c-3.025,0-15.665,0.767-15.665,0.767l0.002,0.059c-20.849,0.999-40.797,4.067-59.188,10.973
		l-0.086,10.076l0.433,26.163l1.342,34.63l2.9,35.716l2.596,21.784l6.829,4.893l0.211,0.207l0.131,0.092
		c8.869,5.758,17.82,11.379,26.981,16.609l18.984,10.247l15.95,7.784c8.954-4.277,17.607-9.211,26.293-14.1l18.25-11.198
		l23.352-15.872l0.215-0.861l2.462-26.242l1.56-23.652l0.645-18.163l0.22-37.874L174.244,19.811z"/>
	<path fill="#FFE427" d="M31.576,26.864c0,0,9.484-3.574,22.416-5.968c12.827-2.382,30.838-3.834,30.838-3.834l-0.233-6.294
		c0,0,12.64-0.767,15.665-0.767c3.028,0,15.378,0.151,15.521,0.297c0.144,0.144-0.016,6.157-0.016,6.157s10.291,0.526,15.047,1.102
		c4.756,0.58,13.55,1.153,22.92,3.464c9.367,2.304,14.55,3.406,14.701,3.976c0.144,0.584-0.287,29.838-0.435,30.989
		c0,0-20.608-4.609-25.51-5.189c-4.904-0.568-27.242-3.99-43.386-3.414c-16.141,0.578-37.326,3.707-42.804,4.854
		c-3.849,0.811-24.217,6.159-24.217,6.159L31.576,26.864"/>
	<path fill="#FFFFFF" d="M166.547,64.951c0.26,9.992-0.303,19.938-0.691,29.794c0.775,0.432,1.166,1.253,1.211,2.08
		c-0.088,1.295-0.777,2.327-1.559,3.321c-0.558,10.51-1.598,20.804-3.111,30.92c-2.334-1.563-5.362-1.472-7.785-2.9
		c-0.819-0.04-1.557-0.299-2.166-0.821c0.351-1.426-1.331-4.146,1.043-4.585c0.088-0.211-0.088-0.383-0.303-0.295h-0.303v-0.525
		c-0.732-0.035-1.904,0.609-2.287-0.519c0-1.215-1.781-0.952-0.828-2.287c1.084-1.259,3.502,0.431,4.238-1.426
		c-0.686-0.224-1.729-0.097-2.598-0.132c-0.559-0.092-0.948-0.521-0.948-1.123c0.215-0.436,0.908-0.521,1.388-0.737
		c0.947-0.04,2.334-0.43,3.11,0.304c0.131-0.215,0.646-0.432,0.303-0.732c-0.823-0.176-1.172-1.605-2.075-0.913
		c-0.953-0.692-1.646,0.565-2.59,0.519c0.079-0.299,0.207-1.119,0.813-1.031c0.438-1.084,0.215-2.639,1.86-2.598l0.219-0.216
		c-0.168-0.907-1.084-1.603-0.736-2.598c-0.732-2.119-1.813-4.107-2.291-6.308c-1.466-0.435-2.9-1.47-3.199-3.118
		c-0.044-0.904,0.516-1.775,1.251-2.199c1.816-0.651,3.974-0.179,5.714,0.424c0.732,0.911,1.598,1.95,2.075,3.12
		c-1.04,1.028-2.772,0.646-3.634,1.848c-0.648,0.351-0.048,0.829-0.223,1.347c0.039,0.519,0.263,0.649,0.307,1.172
		c0.824,0.088,2.115,0.339,2.378-0.653c0.132-0.215,0.347,0,0.431,0.132l0.303,0.303c-0.084,0.26-0.479,0.26-0.732,0.392
		l-0.088-0.084l-0.215,0.212c2.598,1.342,4.67-1.516,6.881-2.594c1.725-1.729,4.238-3.417,3.41-6.143
		c-1.646-2.594-4.969-1.986-7.693-2.375c0.518-0.954-0.525-1.95-0.307-2.9c-1.733-4.189-4.885-8.689-9.342-10.592h-1.988
		c-1.295-1.476-3.414-1.554-5.275-1.129c-0.904,0.347-1.813,0.743-2.59,1.428c-2.809-0.6-5.143,1.125-6.744,3.336l0.603-0.219
		c-6.398,4.067-8.089,11.378-6.833,18.462c-2.291,1.511-4.924,3.635-5.489,6.358c-0.04,1.08,0.692,2.072,1.642,2.59
		c2.853,1.296,6.23,1.733,9.562,1.642c0.909,0.82,1.729,1.689,1.642,2.9c3.454,2.071,7.172,4.151,9.776,7.605
		c0.854,1.255,1.772,2.824,2.591,4.084c0.071,0.414,0.063,0.557,0.158,0.382c0.216-0.397,0.582-1.81,1.309-1.785
		c0.564-0.991,1.942-0.991,2.764-1.853l2.726-0.521l0.396,0.521c0.299,2.457-0.521,5.357-0.092,7.785
		c-1.816,1.765-4.406,1.637-6.656,2.373c-0.817,1.471,1.039,2.116,1.39,3.199c1.076,1.299,1.295,2.725,1.036,4.494
		c0,0.303,0.382,0.605,0.08,0.908c-0.6-0.646-1.508-0.686-2.287-1.036c0.518-0.396,1.426-0.347,1.554-1.123
		c-0.427-0.128-0.907,0.22-1.339,0.386c-0.992-2.201-3.626-2.25-5.92-2.25l-2.813,0.605c0.996,0.609,2.638,0.127,3.844,0.438
		c1.344,0.303,2.984,1.207,3.416,2.59l0.74,2.979h0.435l-0.308,0.653c1.344,5.02,1.037,11.027-0.521,15.871
		c-3.581,2.418-6.995,5.141-10.716,7.26c-1.646-0.559-1.773-1.984-2.683-3.243c-0.736,0.392-0.736-0.687-1.255-0.687l0.132-0.135
		c-0.132-0.084-0.264-0.255-0.435-0.215c0.083-0.82,0.952-0.435,1.338-0.689c0.688-0.307,1.988,0.172,2.726-0.43
		c0.563-0.82-0.648-1.133-0.519-1.861c-0.735-0.475-1.039-1.729-2.207-1.688c-0.347-0.521-1.079-0.731-0.903-1.339
		c-0.352,0.216-0.869-0.352-0.953-0.303l0.221-0.219c-0.176,0-0.909,0.043-0.653-0.521c-0.128-0.339-0.653-0.216-0.692,0l0.092-0.08
		c-0.61-0.432-1.479-0.829-2.076-1.475l-0.223,0.22l-0.211-0.435c-0.133,0-0.217,0.215-0.392,0.127v-0.211
		c-0.603,0.387-0.903-0.308-1.036-0.609c1.686-0.295,4.107-0.387,5.924,0.088c0.777-0.693,1.295,0.956,1.727-0.223
		c1.255,0.135,2.119-0.471,3.247-1.028c0.215-1.044,0-2.123-0.216-3.115c0.254-0.646-0.479-1.036-0.303-1.554
		c-0.521-0.781-0.781-2.247-1.688-2.988c0.171-0.351-0.173-0.908-0.519-1.255h-0.308c-0.688-0.903-1.681-2.29-1.119-3.414
		c0.987-0.649,2.462-1.167,3.937-1.983h-0.951c0.474-0.264,0.729-0.697,0.729-1.131v-0.217c0.525,0.391,0.609-0.255,0.82-0.518
		c-0.167-0.26-0.382-0.387-0.688-0.303c-0.213,0.043-0.084,0.263-0.133,0.391c-0.255,0.605-1.08-0.348-1.33,0.43
		c-0.74-0.558-0.785,0.869-1.563,0.217c0.299,0.695-0.43-0.125-0.605,0.395c-0.518,0.521-0.996,0.994-1.688,1.255
		c0.303-0.604,0.264-1.865,0.821-2.295l0.135,0.136c-0.519-1.132,1.339,0.039,0.82-1.044c0.172-0.124,0.732,0.044,0.519-0.519
		l0.431,0.395c0.215-0.219-0.04-0.48-0.216-0.609l0.519,0.088c-0.088-0.608,0.392-0.78,0.736-1.338l-0.346-0.304
		c-0.04,0.128-0.172,0.08-0.303,0.08v-0.3c0.43-0.087,0.343-1.039,1.035-0.955c-0.045-0.387,0.996-0.436,0.308-0.905
		c-0.132,0-0.308-0.087-0.388,0.089c-0.438,0.692-1.303,0.431-1.86,0.943c-0.478-0.251-0.435-0.686-0.132-1.032
		c1.467-1.083,3.068-2.47,3.762-4.063l-0.215-0.224c0.255-0.343,0.43,0.438,0.729,0l-0.859-0.816
		c-1.689,0.869-3.283,2.506-5.057,3.415c1.984-3.155,5.141-5.446,7.264-8.392c-0.084-0.175-0.308-0.08-0.435-0.08
		c-1.515,1.555-3.331,2.806-4.973,4.235c0.215-0.435,0.351-0.864,0.733-1.255l-0.304-0.303c-0.264,0.391-0.776,0.478-1.168,0.736
		c0.22-1.168,1.212-2.379,1.472-3.55c-2.115,1.904-3.199,4.629-4.455,7.052h-0.215c1.211-3.027,2.207-6.144,4.15-8.908l-1.035-0.303
		c-1.299,2.686-1.992,5.537-3.849,8c-0.347,1.598-0.565,3.286-1.036,4.84h-0.223c-0.129-2.506,0.951-4.756,1.474-7.131
		c-0.562-0.519,0.172-1.127-0.215-1.686l-0.308,0.352c-0.514-1.045,0.521-2.996,0.308-4.507l0.215-0.514
		c0.255-1.044-0.653-2.853,0.392-3.291c0.646-0.343,0.176-0.988,0-1.378l-0.82-0.606c-0.476,0.304-0.476,0.733-0.303,1.251
		c-1.729,2.247-2.643,4.797-2.687,7.785c-0.649-3.458,0.127-7.004,0.907-10.374l-0.215-0.216c-0.692,0.343-1.084,1.12-1.726,1.638
		c-0.524-0.044-0.259-0.602-0.347-0.903c-0.605-0.432-0.824,1.25-1.346,0.211c-0.733,0.562-0.217,1.216-0.516,1.947
		c-1.43,1.94-1.079,4.582-2.167,6.657c-0.084,0.868-0.172,1.687-0.729,2.384c-0.047-0.045-0.086-0.137-0.223-0.084
		c-0.039,0.039-0.123,0.084-0.08,0.166c-0.947,1.125-0.824,2.94-1.688,4.063c-0.043,0.909-0.562,1.379-0.604,2.295
		c-0.435,0.128-0.207,0.821-0.732,0.905c-0.129-0.603,0.299-1.168,0-1.949c1.035-4.366,2.158-8.602,3.027-12.669
		c0.254-2.501,1.168-4.968,0.82-7.478c-0.132-0.211-0.343-0.211-0.52-0.3c-0.955,3.542-3.03,6.569-3.849,10.159
		c-0.39,0.299-0.696,0.82-0.735,1.339c-2.116,4.022-3.631,8.304-5.486,12.45c1.643-7.391,6.352-14.092,8.51-21.574
		c0.049-0.47,0.829-0.779,0.526-1.255c-1.388,1.255-2.554,2.856-3.856,3.853c-0.686,1.295-1.642,1.857-2.463,2.806
		c-3.023,4.243-7.438,8.176-8,13.713l-0.215,1.856l-0.215-0.215c0.215-4.24,0.908-8.431,3.414-11.634
		c0.562-1.168,1.431-2.247,1.771-3.498c-0.215-0.176-0.298-0.397-0.298-0.653h0.298l0.129-0.819l0.397,0.518l0.128-0.733
		c0.255,0.133,0.43-0.127,0.605-0.303c0.035-0.123-0.133-0.215-0.225-0.303c-0.343-0.128-0.343,0.518-0.602,0
		c-0.215-0.303,0.519-0.648-0.131-1.036c0.131,0.472,0.518-0.048,0.731-0.087c0.438-0.347,0.048-0.869,0-1.251
		c0.128-0.04,0.351,0.087,0.438-0.132l-0.521-0.518c0.176,0.082,0.653,0,0.609-0.396c-0.133-0.343,0.604-0.176,0.426-0.299
		l0.084,0.083c0.311-0.043,0.395-0.952,0.829-0.518l0.342-0.304c-1.948,0.128-3.888,0.988-5.92,0.82
		c-1.123-0.82-0.215-2.29-0.649-3.194c0.515-0.732-0.521-1.431-0.175-2.215c-0.347-0.256-0.259-0.861-0.128-1.252
		c0.781-0.294-0.219-0.904,0.52-1.207c0.434,0.168,0.562-0.391,0.951-0.348v-0.17c0.558-0.092,0.904-0.649,1.426-0.733
		c1.427-0.912,3.115-1.688,4.279-2.816c-0.772-0.175-1.339,1.514-1.983,0.609l-0.224-0.175c-0.127,0.092-0.211,0.259-0.387,0.175
		l-0.132-0.083c-0.255,1.076-0.948-0.219-1.554-0.092c-0.605-0.609-1.299-1.253-1.34-2.285c-0.859-0.347-0.912-1.09-1.123-1.865
		c0.519-0.384,1.207,0.176,1.856,0.176c-0.216-0.653,0.127-1.946-0.733-2.383c-0.518,0.176-0.692-0.261-0.819-0.604
		c0.426-0.91,1.849-0.428,2.51-0.428c-0.741-0.482-1.392-1.09-2.295-1.127c-0.088-1.34-0.392-2.594-1.251-3.629
		c0.467-2.946,0.383-6.227,0.08-9.342c0-0.433,0.387-0.433,0.736-0.433c0.347,0.644,0.992,0.558,1.471,0.819l-0.432,1.474
		c1.295,0.86,1.471,3.675,3.332,3.115l-0.605-0.954c0.299-0.303,1.598,0.347,1.334-0.693c0.22-0.303,0.613-0.261,0.825-0.649
		c-0.04-0.125-0.212-0.086-0.304-0.086c-0.043-0.386,0.392-0.693,0.732-0.432l0.391,0.213c-0.039,0.043-0.131,0.085-0.088,0.219
		c0.088,0.042,0.479,0.042,0.603-0.133c-0.083-0.898-1.294-0.946-1.546-1.727c0.992-0.125,1.212,1.167,1.979,1.428
		c0.22-0.994-1.211-1.554-1.681-2.375c0.518-1.004,1.939-0.305,2.805-0.219c2.383,1.472,2.127,4.193,2.82,6.442
		c0.036,0.386-0.092,0.827,0.079,1.125c0.479-0.915-0.136-2.378,0.957-2.986c0.518-0.128,0.813,0.261,0.813,0.737
		c-0.079,1.124-0.259,2.203-0.207,3.414c1.987-0.257,3.841-1.336,5.617-2.378c1.815-1.297,3.366-3.201,3.022-5.4
		c-1.25-2.771-4.104-5.064-7.086-5.411l-1.856-0.514l1.681,0.299c0.653-6.181-2.074-11.542-6.871-15.649
		c-0.304-0.564-0.912-1.299-1.555-1.47c-0.652-0.044-1.263,0.042-1.646,0.514c0.041,0.046,0.133,0.136,0.089,0.221l-2.08-0.221
		c-0.525-0.946-0.908-2.289-2.159-2.593c-2.598-0.861-2.986,3.55-5.709,1.689c-0.565-0.649-1.558-0.996-2.292-0.524
		c-2.162,2.556-5.747,2.942-7.873,5.799c-3.456,3.46-3.978,8.215-4.794,12.757c-2.594,1.333-5.926,2.46-7.136,5.621
		c-0.347,1.554,0.389,2.942,1.339,4.149c2.378,2.468,5.45,3.239,8.521,4.153c0.349,1.424,0.385,3.107,2.07,3.851l1.044,0.299
		c0.514,4.369-0.086,9.466-0.347,14.088c-0.217,0.438-0.697,0.784-1.044,1.18c-1.078-0.225-2.375,0.303-3.496,0.598
		c-3.545,4.805-9.73,4.546-14.313,7.48h-0.215c0.044-0.171,0.125-0.294,0.085-0.518c-0.303-0.127-0.785,0.175-0.91,0.518v0.522
		c-4.146,1.853-5.793,7.907-10.595,7.995c-2.118,0.088-4.757,0.475-6.004-1.555c0.04-0.652-0.695-1.943,0.604-1.775
		c1.08-0.693,2.631,2.343,2.378-0.303c-0.607-0.264-1.428-0.392-2.078-0.348c-0.215-0.167-0.428-0.514-0.215-0.813l0.737-0.221
		c-0.309-0.303-0.737-0.564-0.391-1.131c0.129-0.128,0.391-0.088,0.604-0.088c0.171,0.82,0.825,0,1.257,0.398
		c0.604,0.558,0.733,1.039,1.549,0.82c0-1.132-1.121-1.988-1.982-2.598l-0.311,0.645c-0.988-0.17-1.725-0.903-2.592-1.338
		c0.821-0.693-0.347-1.983,0.606-2.423c0.089,0.604,0.737,0.693,1.169,0.869c0.649-0.265,0.781-0.396,1.424-0.522
		c0.607,0.304,0.657,1.125,1.386,1.125c0.299-0.948,0.217-2.502,0.086-3.631c-0.472-0.303-0.175-0.996-0.815-1.127
		c-0.221,0.952-0.783,0.952-1.346,1.646c-0.132,0.737,0.392,1.515-0.518,1.864c-0.518-0.519-1.432-2.084-2.424-1.043l-0.171,0.223
		l0.393,0.427c-0.136,0.171-0.393,0.044-0.608,0.083c-0.346-2.765,0.472-5.314,1.257-7.779c0.167-0.084,0.257,0.092,0.382,0.219
		c0.131-0.172,0.307-0.264,0.522-0.219c-0.522,1.039,0.821,1.562,1.167,2.381c1.689,1.988,4.41,0.687,6.311,0.301
		c-0.693-1.036,0.821-0.646,1.131-1.12c0-0.776-0.609-0.952-1.131-1.343c0.089-0.303,0.307-0.912,0.739-0.519
		c0.474,0.04,0.775,0.86,1.343,0.392l-0.311-0.609c1.086,0.171,3.247-0.128,3.64,1.47c0,1.431,0.91,2.638,0.735,4.023
		c0.257,0.128-0.221,1.124,0.387,0.957c0.825-1.005,0.56-2.431,1.036-3.552c0.825-0.902,2.468-0.608,3.42-1.563
		c0.775-0.208,0.864,0.608,1.468,0.828c2.375,0.044,4.625-0.304,6.743-0.912c0.392-0.347,1.342-0.905,0.735-1.462
		c-0.946-0.913-2.203-1.084-3.329-1.432l0.215-0.215c-0.99-0.781-2.032-1.431-3.111-1.865c0.39-0.514,0.089-1.381,0.219-1.896
		l0.086,0.125c0.384-6.14-1.343-13.878-8.09-16.906c0.221-0.645-0.735-1.253-1.253-1.554c-1.681-1.432-2.986,1.942-4.149-0.131
		c-0.827-0.821-1.904-1.639-3.116-1.428c-1.642-0.301-2.249,2.249-3.849,1.727c0.177-0.56-0.514-0.474-0.823-0.685
		c-2.888-0.389-3.542,3.414-6.135,3.801c-4.195,3.502-5.104,8.523-5.578,13.627l0.297,0.297c-1.94,1.303-4.45,1.689-6.521,2.806
		c0.643,1.991,2.982,2.084,4.671,2.685l4.235,0.825c1.554,1.766-0.307,3.849,0,5.924c1.166,4.973,0.175,10.854,4.45,14.525
		c0.387,0.479,1.558,0.26,1.171,1.256c-2.207,1.986-3.767,4.146-6.014,5.92l-4.799,0.307l-0.819-4.154l-2.619-22.012
		c-0.147-1.842,0.155-3.77-1.44-4.327c-0.303-0.036-0.615-0.295-0.829-0.55c0.046-1,1.213-0.693,1.686-1.342
		c-1.126-11.032-1.729-22.225-1.901-33.591C72.326,49.087,127.241,48.001,166.547,64.951"/>
	<path fill="#FFFFFF" d="M108.947,76.885l-0.295,0.346c-1.036,0.044-2.295,0.735-3.116,0.171c-0.127-0.432,0.176-0.771,0.511-0.906
		C107.09,76.453,108.126,76.453,108.947,76.885"/>
	<path d="M116.863,85.014c-0.172-0.301-0.172-0.775,0.219-0.946L116.863,85.014"/>
	<path d="M105.449,88.128v0.307c-0.432,0.301-0.86-0.09-1.172-0.44C104.413,87.52,105.409,87.52,105.449,88.128"/>
	<path d="M108.779,93.705v0.433l-1.387-0.821C107.827,93.056,108.867,92.845,108.779,93.705"/>
	<path fill="#FFFFFF" d="M67.354,94.879c-0.167,1.119-0.474,2.199-1.038,3.195c-0.428,0.221-0.95,0.046-1.337-0.219
		c0.13-1.249,0-2.976,0.909-3.93C66.663,93.317,67.569,93.835,67.354,94.879"/>
	<path fill="#FFFFFF" d="M64.159,97.552c-0.347-0.253-0.261-1.032-0.136-1.468C64.199,96.52,64.117,97.205,64.159,97.552"/>
	<path fill="#FFFFFF" d="M156.898,102.527c-0.08,0.3-0.125,0.908-0.599,0.519c-0.215-0.219-0.565-0.084-0.741-0.387
		C155.777,102.313,156.684,101.923,156.898,102.527"/>
	<path fill="#FFFFFF" d="M145.27,102.439c-0.039,0.22-0.475,0.438-0.693,0.22C144.795,102.527,145.018,102.354,145.27,102.439"/>
	<path fill="#FFFFFF" d="M147.261,103.48l0.737,1.119c-1.084-0.733-1.992-1.555-3.33-1.34
		C145.229,102.699,146.566,102.91,147.261,103.48"/>
	<polyline fill="#FFFFFF" points="155.041,103.046 155.561,103.046 155.041,103.046 	"/>
	<path fill="#FFFFFF" d="M147.775,105.034c0.051,0.776-0.689,1.554-1.116,2.299c1.295,0.123,0.558,1.765,0.602,2.585
		c-0.737,0.648,0.044,1.432,0.3,2.08c0.518-0.084,0,0.211,0.303,0.386c-0.383,0.741-0.948,0.392-1.555,0.308
		c-1.466-1.598-3.59-3.375-3.633-5.797c0.78-0.479,2.637-0.172,2.729-1.475l0.084-0.083c-0.948-0.176,0.175-0.821-0.304-1.343
		c0.736-0.432,1.515,0.263,2.159,0.605C147.217,104.99,147.646,104.861,147.775,105.034"/>
	<path d="M72.979,107.93c0.257,0.909-0.518,1.387-0.518,2.168c0-0.781-0.135-1.943-0.221-2.765
		C72.723,107.148,72.979,107.5,72.979,107.93"/>
	<polyline points="114.484,107.416 114.357,108.152 114.484,107.416 	"/>
	<path d="M71.201,110.958c0.305,0.565-0.038,1.291-0.646,1.554h-0.301c0.823-1.251-1.6-1.9-0.303-2.933
		C70.555,109.791,70.902,110.438,71.201,110.958"/>
	<path d="M60.091,110.098c0.217,0.904-0.346,1.08-0.604,1.9c-0.906,0.171-1.082-0.475-1.253-1.168
		C58.187,109.751,59.398,109.615,60.091,110.098"/>
	<path d="M154.826,111.129c-0.215,0.092-0.342,0.299-0.602,0.221c-0.435-0.256-0.092-0.738,0.211-0.912
		C154.689,110.527,154.743,110.87,154.826,111.129"/>
	<polyline points="115.178,112.081 114.572,112.691 115.178,112.081 	"/>
	<path d="M153.575,113.857h-0.308c0.053-0.518-0.518-1.215,0.133-1.475h0.307L153.575,113.857"/>
	<path d="M108.652,114.068c0.043,0.053,0.127,0.093,0.127,0.177c-0.127,0-0.26,0.043-0.352-0.084c0-0.177,0.479-0.093,0.352-0.438
		l-0.127-0.088c0.215,0.088,0.387-0.083,0.295-0.294C108.947,113.512,109.039,113.811,108.652,114.068"/>
	<polyline points="113.313,113.635 112.708,114.068 113.313,113.635 	"/>
	<path d="M131.91,116.452c-1.299,1.94-1.987,4.625-3.027,6.956c-0.518-0.26-0.176,0.775-0.732,0.828
		c-0.045,0.123-0.26-0.307-0.176-0.521c0.131-0.048,0.303,0.215,0.392,0c-0.777-0.391-0.177-1.339-0.089-1.988
		c-0.211-1.127,0.348-2.207,0.304-3.422l2.378-1.984C131.218,116.791,131.568,116.32,131.91,116.452"/>
	<path fill="#FFFFFF" d="M74.101,117.189c1.125,1.942,2.292,3.928,3.415,5.879c0.829-1.991-0.343-4.282,0.649-6.104
		c0.125,0.225,0.562-0.088,0.607,0.518c-0.171,3.896-0.825,8.52,0.301,12.455l-0.215,1.127c-0.821-4.021-1.604-8.307-3.717-11.933
		l-1.865-2.47L74.101,117.189"/>
	<path fill="#FFFFFF" d="M106.572,117.271c-0.127-0.17-0.471-0.434-0.215-0.608C106.611,116.711,106.831,117.055,106.572,117.271"/>
	<path fill="#FFFFFF" d="M82.84,135.133c-0.131,0.598,0.297,1.9-0.436,1.854h0.089v0.219h-0.089
		c0.347-0.348-0.389-0.737-0.428-1.171c-0.867-4.798-0.05-9.642-1.347-14.525c0.133-1.04-0.384-2.247-0.213-3.291
		C83.398,123.324,81.061,129.764,82.84,135.133"/>
	<polyline fill="#FFFFFF" points="72.461,118.527 72.633,118.826 72.461,118.527 	"/>
	<path fill="#FFFFFF" d="M86.469,121.727c-0.265,0.432,0.042,0.777,0.082,1.344c0.349,0.255,0.217,0.859,0.303,1.242l-0.303,0.224
		c0.564,1.899-0.171,4.147,0,5.797c-0.257,0.251-0.04,0.944-0.432,1.251c-1.769-3.934-0.815-7.868-1.337-12.322
		c0.175-0.391,0.432-0.088,0.651,0C85.993,119.906,86.079,120.949,86.469,121.727"/>
	<path fill="#FFFFFF" d="M93.382,125.141c-0.082,0-0.124,0.084-0.171,0.129c0.394,0.263,0.912,0.391,1.04,0.907l0.086-0.088
		c0.604,0.304,0,1.388,0.95,1.562c-0.387,0.861,0.649,1.209,0.607,2.072l-0.09-0.084c-0.518,0.387,0.568,0.519,0.09,0.904
		l0.085,0.137c0.689-0.482,0.261-1.344,0.649-1.777c0.132,0.351,0.608,0.602,0.906,0.391c0,0.211,0.09,0.471-0.085,0.646
		c0.129,0.088,0.219,0.312,0.436,0.312c0.167-0.093,0.04-0.312,0.086-0.438c0.301,0.304-0.437,0.732,0.301,0.732
		c0.127-0.04,0.127-0.211,0.127-0.294c1.56,3.37,0.823,7.864,1.034,11.493l-0.119-0.084c0.215,0.693-0.442,1.212,0.119,1.855
		c-0.251,0.781,0,2.248-0.211,2.894c0,0.569,0,0.868,0,1.263c-0.131,0-0.259,0-0.307,0.124c0.569,0.565-0.255,1.211-0.128,1.952
		c-0.683-0.264-0.083-1.259-0.735-1.648c0.347,0.135,0.735-0.304,0.863-0.522c-0.811-0.423,0.267-0.896-0.516-1.334
		c0.089-0.211-0.213-0.908-0.514-0.948l-0.131-0.609c-0.562,0.475-0.607,1.475-0.518,2.075l-0.219-0.351
		c-0.217,0.136-0.435,0.57-0.171,0.867c-0.735,1.476,0,3.763-0.217,5.191c-0.082,0.475,0.171,0.952-0.217,1.432
		c-0.99,0.084-0.608-1.172-0.823-1.777c-0.042-3.541-1.466-6.573-1.984-9.943c-0.133-0.132-0.305-0.132-0.394-0.312
		c0.565-0.55-0.56-1.29-0.128-1.677l-0.085-0.084l0.213,0.431c0.261-0.136,0.261-0.558,0.394-0.865
		c0.042,0.084,0.124,0.124,0.213,0.124c0.432-0.943-1.383-0.646-0.607-1.77c-0.642-0.471,0.394-1.338-0.518-1.559
		c0.171,0.221,0.436-0.043,0.607-0.211c-0.303-0.82-0.996-0.691-0.731-1.646l0.213,0.388c0.082-0.295,0.301-0.948,0.215-1.339
		c-0.562-0.471,0.261-0.563,0.213-1.127c0.171,1.255-0.082,2.602,0.607,3.853c0.085,0,0.175-0.092,0.215-0.128
		c0.09-0.175-0.129-0.263-0.215-0.391c0.518-0.219-0.09-0.479,0-0.732c0.478-0.088,0.342-0.872,0.518-1.175
		c-0.086,0.219,0.085,0.303,0.217,0.438c0.387-0.697-0.43-0.957,0.301-1.471c-0.346-0.82,0.221-1.951-0.211-2.594
		c-0.739-2.207-1.821-4.195-2.289-6.314C92.736,124.236,93.515,124.535,93.382,125.141"/>
	<path fill="#FFFFFF" d="M75.659,128.384l-1.257-1.991C74.926,126.822,75.791,127.563,75.659,128.384"/>
	<polyline points="135.329,127.949 135.544,127.432 135.839,127.738 135.329,127.949 	"/>
	<path fill="#FFFFFF" d="M91.011,130.758c-0.482-0.426,0.082-1.255-0.09-1.769C91.183,129.503,91.308,130.288,91.011,130.758"/>
	<polyline fill="#FFFFFF" points="77.43,132.021 76.262,129.428 77.43,131.803 77.43,132.021 	"/>
	<polyline fill="#FFFFFF" points="91.822,130.249 91.74,129.811 91.822,129.938 91.822,130.249 	"/>
	<path fill="#FFFFFF" d="M92.864,131.499c-0.295-0.047-0.295-0.39-0.295-0.653C92.692,130.975,92.736,131.324,92.864,131.499"/>
	<path fill="#FFFFFF" d="M120.584,131.583l-0.219,1.772h0.518v-0.951c0,0.259,0.479,0.474,0.352,0.859
		c-0.481,0-0.481,0.569-0.436,0.912l-0.091,1.988c-0.168-0.044-0.343-0.132-0.519-0.132c-0.127,0.088-0.127,0.259,0,0.351
		l0.303,0.303c0.048-0.047,0.092-0.136,0.216-0.136c0.175,0.224-0.04,0.869,0.524,0.653l0.084,0.092
		c-0.258,0.259-0.688,0-0.951,0.211l0.434,0.303l-0.307,0.217c0.092,0.303,0.26,0.478,0.216,0.824
		c-0.427,0.043-0.603-0.521-1.036-0.304c-0.343,0.251,0.264,0.777-0.427,0.603c0.212-0.215,0.212-0.519-0.091-0.686
		c-0.777,1.031-0.909-0.654-1.771-0.732c0.08,0.123,0.909-0.176,0.599-0.526c-0.039-0.127-0.215-0.127-0.295-0.127
		c-0.136-0.177,0.519-0.438,0-0.526c0.431-0.386,0.08-1.115,0.211-1.554c0.084,0.048,0.136-0.039,0.22-0.084
		c0-0.474-0.519-0.175-0.653-0.608c0.088-0.347,0.303-0.732,0.137-1.039l-0.432,0.608v-0.608c0.348,0.394,0.215-0.388,0.598-0.125
		c0.438-0.478,0.097-1.119,0.352-1.43v-0.128h0.299c0,0.22-0.343,0.263-0.211,0.522c0.211,0,0.732,0,0.824,0.426
		c0-0.426,0.475-0.036,0.642-0.299l-0.343-0.521l0.431-0.347c0.132,0.219,0.175,0.481,0.431,0.657
		c0.395-0.396-0.041-0.83,0.092-1.176C120.232,131.191,120.365,131.412,120.584,131.583"/>
	<path fill="#FFFFFF" d="M77.129,133.57c-0.263-0.307-1.171-1.299-0.956-2.071C76.784,132.057,76.736,132.926,77.129,133.57"/>
	<path fill="#FFFFFF" d="M117.602,132.105v-0.606C117.602,131.583,117.814,131.886,117.602,132.105"/>
	<polyline points="95.979,132.105 95.894,131.711 95.979,131.803 95.979,132.105 	"/>
	<path fill="#FFFFFF" d="M117.602,132.838c-0.084,0.128-0.217,0.088-0.344,0.088l-0.088-0.303
		C117.341,132.531,117.465,132.75,117.602,132.838"/>
	<path d="M118.938,133.266c-0.174-0.168-0.386-0.388-0.127-0.643C119.202,132.75,118.852,133.141,118.938,133.266"/>
	<path d="M138.659,133.786c-0.136,0.048-0.136,0.172-0.136,0.299h-0.176v-0.515C138.484,133.523,138.523,133.698,138.659,133.786"/>
	<path fill="#FFFFFF" d="M131.09,134.085c-0.303,0.092-0.479,0.22-0.518,0.524c-0.649-0.258,0.259-0.602,0.303-0.951
		C130.958,133.786,131.134,133.918,131.09,134.085"/>
	<polyline fill="#FFFFFF" points="92.17,134.396 92.569,133.786 92.569,134.085 92.17,134.396 	"/>
	<path fill="#FFFFFF" d="M78.987,137.204c-0.697-0.948-1.125-2.207-1.683-3.33C78.291,134.826,78.291,136.121,78.987,137.204"/>
	<polyline points="117.768,134.305 117.982,133.958 118.294,134.305 117.768,134.305 	"/>
	<path fill="#FFFFFF" d="M72.848,136.688c-0.261-0.733-0.996-1.299-1.122-2.076C72.587,134.826,72.115,136.121,72.848,136.688"/>
	<path fill="#FFFFFF" d="M117.602,134.997c-0.344,0.351-0.217,0.733-0.217,1.036c-0.391-0.303,0-0.563,0-1.036H117.602"/>
	<polyline points="120.492,135.865 120.281,135.213 120.492,135.213 120.492,135.865 	"/>
	<polyline fill="#FFFFFF" points="121.839,136.467 121.62,136.033 121.839,136.033 121.839,136.467 	"/>
	
		<line fill="none" stroke="#000000" stroke-width="0.4149" stroke-miterlimit="10" x1="93.449" y1="138.547" x2="93.449" y2="136.384"/>
	<path fill="#FFFFFF" d="M117.385,136.773c0,0.127,0,0.26-0.127,0.304v-0.304H117.385"/>
	<polyline points="136.148,137.296 136.58,137.296 136.148,137.296 	"/>
	<path fill="#FFFFFF" d="M74.02,138.24c-0.568,0.351-0.265-0.646-0.653-0.82L74.02,138.24"/>
	<path d="M136.148,138.113c-0.258-0.383-0.518,0.215-0.74-0.305C135.544,137.332,136.189,137.771,136.148,138.113"/>
	<path fill="#FFFFFF" d="M77.651,140.104c0.04-0.215-0.09-0.652,0.386-0.608c1.339,1.772,2.849,3.634,3.542,5.797l-0.731-0.608
		c-0.175,0.648,0.303,1.303,0.432,1.947c-0.998-0.82-1.858-2.158-2.293-3.326c-0.386,0-0.432-0.74-0.822-0.609
		c-0.474-1.256-1.947-1.856-2.938-2.506c0.299,0.131,0.299-0.172,0.432-0.299c-0.305-0.482-0.733-1.344-1.472-1.427L77.651,140.104"
		/>
	<path fill="#FFFFFF" d="M117.602,138.758c-0.049,0.137,0.039,0.352-0.137,0.391l-0.207-0.602
		C117.425,138.503,117.465,138.675,117.602,138.758"/>
	<polyline fill="#FFFFFF" points="134.201,139.061 133.986,138.85 134.201,138.85 134.201,139.061 	"/>
	<path fill="#FFFFFF" d="M93.3,139.891c-0.171-0.137-0.821-0.396-0.436-0.742L93.3,139.891"/>
	<polyline points="78.165,140.398 77.732,140.104 77.818,140.104 78.165,140.398 	"/>
	<path fill="#FFFFFF" d="M89.146,147.969c0.478,1.729,1.6,3.331,1.558,5.1c1.118,0.438,2.424,0.392,3.546,0.83
		c-1.167,0.518-2.292-0.526-3.239,0.127c-0.915,0.475-1.688,0.039-2.382-0.519c0.39-0.478,1.171,0,1.554-0.438
		c-1.378-2.805-2.114-5.875-3.107-8.819c-0.092-0.685,0.129-1.642,0.215-2.287l0.303-0.219
		C87.979,143.643,88.458,145.984,89.146,147.969"/>
	<path fill="#FFFFFF" d="M147.561,143.305c-0.475,0.387-0.344,0.943-0.733,1.379C146.659,144.16,146.914,143.34,147.561,143.305"/>
	<polyline fill="#FFFFFF" points="78.555,144.98 78.772,145.292 78.555,144.98 	"/>
	<path fill="#FFFFFF" d="M79.808,147.794c1.167,2.343,0.474,5.45-0.215,7.784c-0.263,1.952-2.856,2.124-2.898,4.16
		c-0.301,0.557-0.823-0.271-1.122,0.294l0.384,1.036c-1.032,0.259-1.771-0.86-2.896-0.733c-0.686-0.435-0.821-0.772-0.821-1.466
		l0.392,0.215c0.429-0.695-0.089-1.688,0-2.378c-0.906-2.899,0.347-5.406,0.522-8.092c0.297-1.212,1.293-1.55,1.032-2.806
		c0.65-0.478,1.387,0,2.076,0C77.561,146.156,78.637,147.102,79.808,147.794"/>
	<polyline fill="#FFFFFF" points="98.186,147.574 98.186,146.934 98.272,147.451 98.186,147.574 	"/>
	<path fill="#FFFFFF" d="M98.704,150.168c-0.131,1.303-0.386,2.598-0.733,3.855l0.082-3.76c0.133,0,0.265,0.039,0.347-0.097
		l-0.213-0.51L98.704,150.168"/>
	<path fill="#FFFFFF" d="M98.399,154.934c4.026,0,7.871,1.256,11.811,1.338l-0.308,0.737c-0.346-0.211-1.123-0.521-1.123,0.211
		c0.039-0.171-0.127-0.299-0.215-0.422c-0.181,0.123-0.392,0.123-0.521-0.092c-0.648,1.646-1.598-0.519-2.507,0.303l-0.22-0.211
		c-0.215,0.167-0.729,0.123-1.039,0.422c-0.899-0.211-2.071-0.422-2.766-0.598c-0.645-0.653-1.602-0.868-2.506-1.044
		c-1.082,0.176-1.514-0.82-2.685-0.518c-0.518-0.041-0.9-0.348-1.382-0.521c1.04-1.032,2.253,0.135,3.247,0.175L98.399,154.934"/>
	<path fill="#FFFFFF" d="M114.055,156.921c-0.343,0.435-0.604-0.521-0.951,0.088c-0.172-0.211-0.563-0.088-0.689-0.387
		C112.844,157.009,113.879,155.706,114.055,156.921"/>
	<path fill="#FFFFFF" d="M116.126,156.798l-0.084,0.123l-0.347-0.521C115.867,156.486,116.086,156.574,116.126,156.798"/>
	<path fill="#FFFFFF" d="M116.863,156.921c-0.133-0.04-0.348,0.088-0.428-0.123l0.428-0.176V156.921"/>
	<path fill="#FFFFFF" d="M76.908,162.63c0,0.088,0,0.265-0.124,0.304h-0.175c0.042-0.176-0.129-0.216-0.215-0.304
		c-0.346,0-0.778,0.472-1.04,0c-1.388-0.048-3.416,0.687-4.153-1.044c-0.6-0.382-1.338-0.732-1.771-1.466l-0.217-0.604
		C71.808,160.511,74.533,161.156,76.908,162.63"/>
	<path fill="#FFFFFF" d="M83.875,163.973c0.558-0.092,1.036,0.514,1.429,0.952c0.129-0.223,0.301-0.267,0.514-0.223
		c0.301,0.131,0.175,0.604,0.651,0.391c0.257,0.478,0.735,1.163,0.514,1.554c0.181,0.092,0.05,0.303,0.092,0.438
		c-0.695,0.216-0.956,0.04-1.771-0.096c0.129-0.083,0.301-0.296,0.211-0.519c-0.432-0.166-0.386,0.653-0.954,0.519l-0.082-0.944
		c-0.046,0.049-0.129,0.084-0.086,0.212c-0.392-0.163-0.392-0.431-0.86-0.295l-0.396-0.435c-0.04,0.123-0.215,0.084-0.297,0.084
		c0.04-0.129-0.131-0.168-0.221-0.303c-0.433,0.174-0.044,0.692-0.301,0.947c-0.171-0.339,0.301-0.558,0-0.813
		c-0.217-0.092-0.303,0.084-0.434,0.168c-0.305-0.646-1.211-0.82-1.858-1.036c-0.175,0.128-0.086,0.351-0.127,0.519
		c-0.261-0.26,0.347-1.255-0.608-1.044c-0.175-0.339-0.735-0.515-1.125-0.295l-0.128,0.127c-0.089,0-0.521-0.604-0.219-0.948
		C79.983,162.331,82.101,163.018,83.875,163.973"/>
	<polyline points="84.561,166.044 84.479,165.525 84.561,165.609 84.561,166.044 	"/>
	<path d="M57.452,31.715l-0.58-0.114c0-0.179-0.036-0.327-0.074-0.474c-0.153-0.701-4.805-1.602-9.165-0.615
		c-5.554,1.261-10.07,4.492-8.858,9.844c1.213,5.349,6.683,6.314,12.651,4.964c4.858-1.102,8.494-4.314,8.201-5.621
		c-0.034-0.146-0.167-0.387-0.257-0.498l0.296-0.277l4.566,3.46l-0.249,0.179c-0.12-0.032-0.335-0.02-0.44,0.008
		c-1.05,0.233-2.958,4.285-11.755,6.275c-7.787,1.763-16.24,0.289-17.974-7.368c-1.538-6.809,4.723-12.512,13.283-14.454
		c6.146-1.386,10.779-0.056,11.51-0.219c0.351-0.078,0.554-0.159,0.729-0.532l0.518,0.034L57.452,31.715"/>
	<path d="M73.392,31.846l10.802-1.02c2.57-0.241,4.552-1.265,4.376-3.141c-0.175-1.865-2.316-2.506-4.886-2.261l-10.798,1.012
		L73.392,31.846 M74.362,43.256c0.058,0.657,0.225,0.882,1.082,0.805l0.036,0.41l-7.054,0.662l-0.04-0.417
		c0.854-0.078,0.979-0.331,0.912-0.978l-1.791-19.016c-0.06-0.653-0.228-0.872-1.084-0.798l-0.038-0.413l17.183-1.616
		c6.197-0.587,9.743,1.841,10.061,5.315c0.339,3.538-2.058,6.01-6.384,6.984l7.327,7.165c0.554,0.542,0.864,0.819,1.616,0.747
		l0.036,0.418l-7.906,0.739l-0.04-0.412c0.424-0.04,0.48-0.167,0.472-0.289c-0.02-0.237-0.141-0.371-0.538-0.759l-7.253-7.135
		l-7.344,0.693L74.362,43.256z"/>
	<path d="M100.214,42.127c0.789,0.02,0.933-0.209,0.956-0.869l0.63-19.089c0.017-0.653-0.118-0.895-0.903-0.918l0.012-0.42
		l23.223,0.751c0.86,0.036,1.227-0.191,1.235-0.612l0.506,0.012l-0.159,4.956l-0.511-0.012c0.021-0.542-0.326-0.787-1.187-0.818
		l-17.203-0.564l-0.181,5.313l11.235,0.363c0.859,0.028,1.223-0.201,1.242-0.73l0.502,0.012l-0.168,5.01l-0.498-0.016
		c0.01-0.478-0.334-0.725-1.193-0.751l-11.23-0.367l-0.195,5.842l17.533,0.57c0.854,0.03,1.224-0.199,1.238-0.673l0.502,0.012
		l-0.158,4.892l-0.502-0.016c0.017-0.42-0.334-0.666-1.195-0.697l-23.545-0.767L100.214,42.127"/>
	<path d="M137.161,22.916l-0.071,0.417c-0.391-0.074-0.693,0-0.749,0.316c-0.016,0.124,0.032,0.462,0.075,0.801l1.727,13.727
		l0.07,0.014l6.773-12.227c0.25-0.413,0.334-0.637,0.351-0.759c0.04-0.209-0.216-0.462-0.598-0.528l0.071-0.41l6.705,1.179
		l-0.076,0.41c-0.502-0.056-0.678,0.124-0.726,0.389c-0.022,0.147,0.088,0.534,0.128,0.723l2.151,14.008l0.067,0.008l6.338-12.263
		c0.207-0.363,0.367-0.635,0.406-0.868c0.061-0.327-0.223-0.56-0.613-0.628l0.072-0.412l5.959,1.052l-0.07,0.408
		c-0.662,0.032-0.781,0.293-1.269,1.207l-8.649,16.287c-0.219,0.413-0.568,0.954-0.651,1.428c-0.044,0.265,0.242,0.464,0.601,0.526
		l-0.07,0.411l-6.885-1.211l0.076-0.408c0.465,0.082,0.709-0.094,0.744-0.265c0.057-0.354-0.07-0.86-0.219-1.701l-2.072-13.177
		l-0.066-0.016l-6.653,12.153c-0.101,0.167-0.41,0.685-0.462,0.98c-0.04,0.207,0.127,0.506,0.585,0.585l-0.075,0.413l-6.868-1.211
		l0.063-0.408c0.502,0.085,0.705-0.063,0.74-0.239c0.08-0.466-0.088-1.167-0.146-1.634l-2.427-18.234
		c-0.183-1.245-0.23-1.371-0.741-1.55l0.072-0.418L137.161,22.916"/>
	<polyline points="88.348,12.166 85.866,12.227 85.83,10.666 93.475,10.494 93.511,12.052 91.031,12.105 91.133,16.723 
		88.454,16.781 88.348,12.166 	"/>
	<polyline points="101.602,13.888 98.581,13.888 98.581,16.356 95.897,16.356 95.897,10.179 98.581,10.179 98.581,12.333 
		101.602,12.333 101.602,10.179 104.277,10.179 104.277,16.356 101.602,16.356 101.602,13.888 	"/>
	<polyline points="107.311,10.14 114.521,10.413 114.465,11.92 109.927,11.745 109.896,12.574 114.104,12.741 114.055,14.247 
		109.831,14.08 109.809,14.908 114.341,15.087 114.281,16.587 107.066,16.307 107.311,10.14 	"/>
	<path fill="#95A6B5" d="M167.045,98.046c0.195-0.482,0.283-0.853,0.283-1.249c0-0.105-0.004-0.211-0.016-0.327
		c-0.072-0.624-0.693-1.479-0.934-1.685c0,0-0.127-0.094-0.234-0.175c0.291-5.829,0.401-9.675,0.401-9.717l0.327-20.079
		l-0.175-0.066c-0.021-0.008-2.093-0.816-3.188-1.362c-0.912-0.452-10.893-3.88-11.318-4.026
		c-0.115-0.034-10.027-2.643-18.736-4.289c-7.268-1.371-22.15-2.522-27.648-2.522c-5.035,0-11.394,0.213-17.926,0.614
		c-6.14,0.366-19.169,1.928-29.862,4.695c-9.311,2.415-15.96,5.149-18.805,6.323l-0.86,0.347c-2.064,0.825-4.769,2.074-4.793,2.085
		l-0.151,0.07l-0.004,0.163c-0.333,6.354,0.838,21.344,1.974,33.472l-0.016,0.011l-0.452,0.231l-0.444,0.194
		c-0.249,0.101-0.498,0.204-0.604,0.41l-0.054,0.108c-0.12,0.193-0.291,0.492-0.074,0.709c0,0.004,0.02,0.031,0.02,0.031
		l0.343,0.295l0.522,0.258l0.353,0.177c0.215,0.114,0.333,0.227,0.41,0.358l0.307,0.676c0.008,0.027,0.017,0.047,0.026,0.068
		c0.417,4.291,0.808,8.021,1.091,10.577c1.016,9.163,2.526,18.304,2.542,18.397l0.042,0.224h0.231
		c0.143-0.004,3.39-0.114,4.794-0.326l0.064-0.013l0.058-0.043c0.175-0.137,4.386-3.363,6.111-5.146
		c0.225-0.22,0.367-1.033,0.367-1.358c0-0.021,0-0.04,0-0.062l-0.134-0.263c-1.518-1.123-2.926-2.853-3.681-4.515
		c-0.44-0.959-1.072-5.541-1.391-7.744l-0.054-0.402c-0.032-0.23-0.044-0.598-0.044-1.04c0-0.983,0.058-2.342,0.109-3.414
		l0.062-1.784l0.078-0.387c0.044-0.158,0.089-0.339,0.089-0.546c0-0.351-0.147-0.789-0.731-1.362
		c-0.195-0.19-0.595-0.268-1.48-0.406c-0.653-0.104-1.468-0.23-2.289-0.471l-2.028-0.55l-1.612-0.454
		c-1.004-0.382-1.277-1.044-1.301-1.119c0,0-0.05-0.115-0.05-0.123c0.07-0.027,0.253-0.104,0.253-0.104
		c3.966-1.004,5.948-2.298,6.03-2.358l0.136-0.085l-0.034-0.343c-0.028-0.373-0.085-0.992-0.085-1.809
		c0-1.745,0.265-4.353,1.62-7.221c1.322-2.803,2.281-4.002,5.705-6.042c0.456-0.273,0.733-0.655,0.994-0.986
		c0.257-0.343,0.486-0.638,0.817-0.747l0.233-0.09c0.313-0.127,0.745-0.299,1.612-0.331c0.187-0.008,0.265,0.066,0.42,0.219
		c0.313,0.319,0.671,0.572,1.55,0.159c0.588-0.281,0.994-0.616,1.359-0.904c0.476-0.388,0.823-0.669,1.375-0.638
		c1.689,0.094,2.251,0.829,2.255,0.837c0.014,0.024,0.789,1.534,2.097,1.211c0.58-0.149,1.04-0.41,1.413-0.619
		c0.235-0.134,0.53-0.301,0.615-0.273c0.624,0.227,0.779,0.44,1.114,0.906c0.233,0.313,0.542,0.745,1.118,1.313
		c0.715,0.721,1.767,1.428,2.697,2.056c0.865,0.579,1.686,1.125,1.938,1.494c1.406,2.06,2.554,5.139,2.838,7.657
		c0.14,1.227,0.191,2.333,0.191,3.279c0,2.151-0.253,3.466-0.257,3.49l-0.048,0.247l0.241,0.063
		c0.056,0.023,1.452,0.435,2.749,1.608c-0.028,0.021-0.388,0.335-0.388,0.335l0.514,0.111c1.016,0.234,3.094,0.921,3.327,1.466
		c0.004,0.032,0.008,0.048,0.008,0.063c0,0.021-0.008,0.043-0.026,0.076c-0.488,0.77-0.86,0.855-1.37,0.977l-0.184,0.048
		c-1.53,0.374-2.157,0.438-3.982,0.55l-0.93,0.083l-1.036,0.072l-0.048,0.313l-0.026,0.225c0,0.008-0.04,0.533-0.04,0.533
		c-0.012,0.224-0.016,0.431-0.085,0.598l-0.206,0.572l-0.342,0.945c-0.371,0.859-0.994,2.383-1.064,2.92
		c-0.065,0.525-0.195,0.987-0.392,1.379l-0.228,0.498l0.415,0.338c0.096-0.071,0.677-0.357,1.261-0.586
		c0.401-0.15,3.411-1.263,4.162-1.474c0.526-0.147,4.88-1.646,6.524-3.263l0.217-0.217c0.57-0.558,0.99-0.971,1.317-1.394
		c0.089-0.053,0.542-0.198,1.733-0.455c0.618-0.144,1.131-0.175,1.49-0.106l0.117,0.027l0.098-0.066
		c0.054-0.053,0.516-0.396,0.727-0.689l0.122-0.15c0.147-0.176,0.311-0.367,0.338-0.649c0.132-1.278,0.56-9.869,0.56-11.55
		c0-0.146-0.012-0.239-0.016-0.273c-0.042-0.187-0.151-1.42-0.209-2.153l-0.016-0.167l-1.402-0.526
		c-0.642-0.291-0.968-0.51-1.432-2.311c-0.195-0.745-0.233-1.052-0.245-1.173c0,0,0.004,0,0.012-0.004l0.253-0.747l-0.669,0.382
		c-0.004,0.008-0.004,0.008-0.004,0.008c-0.729-0.18-5.247-1.632-7.747-4.034c-1.269-1.215-1.591-2.052-1.591-2.655
		c0-0.384,0.131-0.673,0.233-0.898l0.144-0.468c0-0.327,0.195-2.04,3.948-3.745c2.518-1.151,2.791-1.331,2.876-1.607
		c0.004-0.042,0.008-0.074,0.008-0.111c0-0.118-0.058-0.204-0.094-0.265c-0.028-0.04-0.032-0.052-0.032-0.074
		c0-0.008,0-0.02,0-0.032c0.347-1.542,1.508-6.622,2.32-8.122l0.502-1.016c0.86-1.809,2.043-4.289,4.589-5.395
		c1.362-0.596,2.211-0.637,2.773-0.662c0.84-0.047,1.237-0.121,1.583-1.378c0.124-0.448,0.624-0.783,1.058-0.942
		c0.428-0.159,0.733-0.14,0.803-0.102l0.203,0.147c0.365,0.255,0.811,0.574,1.612,0.761c0.813,0.189,1.255-0.251,1.605-0.607
		l0.326-0.301l0.494-0.393c0.402-0.347,1.004-0.853,1.314-0.853c0.868,0,1.145,0.078,1.227,0.147l0.661,0.705
		c0.98,1.085,1.476,1.58,1.821,1.631c1.361,0.217,1.581,0.124,2.023-0.41l0.106-0.127c0.343-0.393,1.092-0.295,1.554,0.04
		c0.398,0.295,0.406,0.303,0.813,1.249c0.067,0.164,0.223,0.299,0.524,0.58c0.574,0.518,1.766,1.607,3.705,4.141l0.185,0.249
		c0.893,1.157,1.386,1.799,1.765,3.438c0.402,1.743,0.551,3.95,0.551,5.01c0,1.086,0,1.799,0.035,2.094
		c0.023,0.227,0.223,0.273,0.498,0.339c0.274,0.067,0.729,0.167,1.33,0.436c0.938,0.404,2.299,1.04,3.264,1.88
		c1.06,0.918,1.578,1.398,1.832,2.199l0.057,0.199c0.144,0.462,0.295,0.934,0.295,1.436c0,0.42-0.104,0.861-0.391,1.339
		l-0.184,0.309c-0.638,1.054-1.021,1.685-3.318,3.052c-2.383,1.42-2.9,1.662-4.188,2.082c-0.04-0.058-0.076-0.119-0.16-0.139
		l-0.184-0.032l-0.127,0.171c-0.041,0.06-0.063,0.144-0.063,0.227c0,0.078,0.022,0.171,0.08,0.245
		c0.017,0.018,0.035,0.01,0.052,0.03c0.004,0.078,0.016,0.152,0.016,0.245c0,0.398-0.051,0.869-0.106,1.142
		c-0.04,0.233-0.251,0.567-0.343,0.705c-0.067,0.054-0.753,0.618-0.753,0.618l0.012,0.146c0.024,0.185,0.032,0.412,0.032,0.653
		c0,1.147-0.184,2.787-0.327,3.566c-0.151,0.861-1.119,2.854-1.697,3.799l-0.038,0.063l0.008,1.199
		c0.207,1.761,0.246,4.478,0.246,6.333c0,1.188-0.017,2.024-0.017,2.049l-0.008,0.211l0.207,0.052
		c0.797,0.224,1.733,0.674,2.409,1.012l0.611,0.291l0.219,0.024c0.123-0.008,0.466-0.021,1.136,1.119
		c0.382,0.678,1.797,1.172,3.295,1.705l1.39,0.525l0.375-0.04c0.199-0.075,0.463-0.176,0.877-0.016
		c0.057,0.022,0.135,0.131,0.198,0.223c0.128,0.167,0.279,0.384,0.53,0.479c0.648,0.246,1.167,0.564,1.713,0.912
		c0.554,0.347,1.128,0.709,1.855,0.982c1.104,0.419,3.352,0.678,3.582,0.526c0.155-0.104,0.211-0.312,0.211-0.542
		c0-0.502-0.25-1.127-0.25-1.135c-0.057-0.152-0.631-1.516-1.486-2.084c-0.303-0.199-0.896-0.231-1.885-0.274
		c-0.726-0.036-1.633-0.076-2.613-0.2c-3.824-0.514-6.374-1.039-6.374-3.378c0-0.106,0.004-0.211,0.016-0.331
		c0.089-0.88,0.438-1.382,1.093-2.303c0.471-0.669,2.08-2.207,3.752-3.219c0.018-0.017,0.551-0.396,0.551-0.396l-0.049-0.179
		c-0.008-0.018-0.494-1.869-0.562-2.737c-0.022-0.285-0.036-0.697-0.036-1.171c0-1.06,0.064-2.468,0.247-3.655
		c0.275-1.749,0.97-4.36,2.765-6.882c0.988-1.386,2.662-2.761,3.881-3.675c0.207-0.14,0.367-0.261,0.367-0.412
		c0-0.048-0.017-0.094-0.039-0.147c-0.049-0.072-0.104-0.082-0.16-0.094c0.646-0.743,1.594-1.508,1.996-1.709l0.629-0.359
		l0.314-0.187c0.454-0.261,1.912-0.514,2.838-0.327c0.357,0.065,0.616-0.135,0.947-0.389l0.621-0.444
		c0.736-0.468,1.427-0.755,2.753-0.819c1.287-0.07,2.666,0.62,3.274,1.091c0.435,0.331,0.961,0.299,1.431,0.265
		c0.335-0.02,0.638-0.044,0.86,0.062l1.33,0.518c0.427,0.144,0.442,0.147,1.26,0.883l0.721,0.627
		c1.112,0.938,2.259,1.912,3.662,4.133c1.154,1.823,2.374,3.924,2.669,5.735c0.106,0.629-0.04,0.836-0.11,0.934
		c-0.049,0.062-0.129,0.179-0.08,0.334c0.047,0.16,0.215,0.213,0.303,0.245c0.162,0.052,0.59,0.082,1.449,0.136
		c1.348,0.08,3.586,0.219,4.191,0.565c1.012,0.576,2.044,1.307,2.057,2.343c0.008,1.492-1.049,2.691-1.683,3.271l-0.519,0.53
		l-1.027,0.979c-0.546,0.442-1.282,0.944-2.307,1.646l-0.937,0.646c-0.199,0.137-0.53,0.256-0.821,0.367
		c-0.462,0.159-0.771,0.273-0.867,0.51l0.016,0.312c0.128,0.251,0.77,1.577,0.77,2.565c0,1.067-0.283,2.307-0.287,2.317
		c0,0.013-0.354,1.642-0.354,1.642l-0.12,0.358c-0.312,0.933-0.638,1.952-0.653,2.446c-0.022,0.351-0.334,0.893-0.445,1.067
		l-0.071,0.107l0.259,0.819c0.119,0.295-0.044,0.609-0.146,0.771l-0.063,0.101c-0.19,0.273-0.383,0.562-0.307,1.096l0.032,0.238
		c0-0.049-0.024,0.318-0.024,0.318c0,0.514-0.207,1.458-0.343,1.669c-0.227,0.37-0.525,0.697-0.737,0.824
		c-0.414,0.247-0.784,0.387-1.11,0.427c-1.017,0.115-1.287,1.04-1.287,1.564l-0.017,1.093c0-0.008-0.144,2.586-0.144,2.586
		l-0.008,0.199l10.828,3.709l0.039-0.327c0.024-0.175,2.392-17.242,3.067-29.855l-0.031-0.377c-0.017-0.093-0.036-0.203-0.036-0.291
		s0.021-0.151,0.045-0.191C166.396,99.526,166.87,98.458,167.045,98.046z"/>
	<polyline points="151.975,170.191 151.121,170.191 151.121,166.654 149.857,166.654 149.857,165.938 153.241,165.938 
		153.241,166.654 151.975,166.654 151.975,170.191 	"/>
	<polyline points="154.584,170.191 153.782,170.191 153.782,165.938 155.073,165.938 155.846,168.837 156.607,165.938 
		157.895,165.938 157.895,170.191 157.098,170.191 157.098,166.846 156.244,170.191 155.424,170.191 154.584,166.846 
		154.584,170.191 	"/>
</g>
</svg>
