<?xml version="1.0" encoding="utf-8"?>
<!-- Generator: Adobe Illustrator 14.0.0, SVG Export Plug-In . SVG Version: 6.00 Build 43363)  -->
<!DOCTYPE svg PUBLIC "-//W3C//DTD SVG 1.1//EN" "http://www.w3.org/Graphics/SVG/1.1/DTD/svg11.dtd">
<svg version="1.1" id="Layer_1" xmlns="http://www.w3.org/2000/svg" xmlns:xlink="http://www.w3.org/1999/xlink" x="0px" y="0px"
	 width="200px" height="200px" viewBox="0 0 200 200" enable-background="new 0 0 200 200" xml:space="preserve">
<g>
	<g>
		<defs>
			<rect id="SVGID_1_" x="10" y="10" width="180" height="180"/>
		</defs>
		<clipPath id="SVGID_2_">
			<use xlink:href="#SVGID_1_"  overflow="visible"/>
		</clipPath>
		<path clip-path="url(#SVGID_2_)" fill="#FFFFFF" d="M190.023,100.018c0,49.71-40.298,90.019-90.007,90.019
			C50.301,190.037,10,149.729,10,100.018C10,50.301,50.301,10,100.016,10C149.726,10,190.023,50.301,190.023,100.018"/>
	</g>
	<path fill="#231F20" d="M100.013,19.307c-44.572,0-80.709,36.135-80.709,80.712c0,44.571,36.137,80.709,80.709,80.709
		c44.571,0,80.707-36.139,80.707-80.709C180.72,55.442,144.584,19.307,100.013,19.307 M100.014,151.853
		c-28.628,0-51.832-23.209-51.832-51.833c0-28.629,23.204-51.834,51.832-51.834c28.626,0,51.829,23.205,51.829,51.834
		C151.843,128.644,128.641,151.853,100.014,151.853z"/>
	<path fill="#231F20" d="M100.01,52.035c-12.818,0-24.867,4.99-33.929,14.052c-18.706,18.709-18.706,49.151,0,67.86
		c9.063,9.062,21.111,14.055,33.929,14.055c12.817,0,24.869-4.992,33.929-14.054c9.064-9.063,14.054-21.113,14.054-33.931
		c0-12.817-4.989-24.868-14.055-33.93C124.879,57.025,112.827,52.035,100.01,52.035 M125.159,63.749L102.79,86.12
		c0.188-2.643,0.331-5.225,0.43-7.717l17.42-17.422C122.196,61.806,123.702,62.735,125.159,63.749z M115.604,58.716l-12.226,12.226
		c0-0.879-0.003-1.743-0.017-2.581c-1.085-0.384-2.336-0.724-3.693-1.019l10.319-10.321
		C111.903,57.461,113.775,58.028,115.604,58.716z M100.009,55.882c1.226,0,2.447,0.063,3.657,0.161L93.315,66.396
		c-0.821-0.074-1.652-0.14-2.502-0.183l-0.571-0.028c-0.123-0.006-0.25-0.01-0.378-0.017l-1.891-0.042
		c-0.539-0.01-1.038-0.01-1.532,0l-0.151,0.001l10.086-10.086C97.58,55.944,98.789,55.882,100.009,55.882z M102.753,144.104
		c-0.888,0.053-1.847,0.049-2.744,0.049c-6.894,0-13.54-1.581-19.544-4.552V123.09l-9.874,9.823
		c-0.609-0.545-1.208-1.103-1.79-1.688c-0.64-0.639-1.25-1.299-1.843-1.968l20.503-20.505l-1.077-0.561
		c-1.279-0.634-2.512-1.268-3.742-1.924L63.75,125.163c-1.016-1.466-1.945-2.973-2.763-4.524l16.996-16.999
		c-1.56-0.925-3.055-1.867-4.481-2.821L58.73,115.592c-0.689-1.84-1.258-3.714-1.693-5.613L70.08,96.937
		c-0.249-2.165-0.472-4.383-0.663-6.642l-13.361,13.361c-0.199-2.428-0.199-4.867,0.001-7.292L68.92,83.5
		c-0.157-2.515-0.26-4.778-0.305-6.997L57.729,87.391c2.02-6.807,5.709-13.219,11.072-18.582
		c5.276-5.276,11.654-9.047,18.615-11.107l-8.99,8.989c-2.82,0.387-5.364,0.958-7.373,1.67c-0.094,5.577,0.126,12.044,0.628,18.787
		c0.245,3.311,0.551,6.566,0.919,9.699c2.25,1.611,4.735,3.21,7.38,4.752c2.404,1.398,4.83,2.688,7.22,3.828
		c2.393-1.139,4.82-2.426,7.23-3.829c2.667-1.56,5.149-3.159,7.381-4.751c0.104-0.905,0.2-1.819,0.294-2.738l27.142-27.145
		c0.672,0.596,1.333,1.205,1.972,1.845c0.58,0.581,1.138,1.177,1.682,1.781l-52.437,52.5l22.288,0.039V144.104z M144.147,100.017
		c0,0.261-0.017,0.52-0.021,0.78h-19.335v22.332h12.855c-1.798,2.918-3.942,5.612-6.428,8.097c-1.939,1.94-4.226,3.785-6.438,5.31
		l0.011-13.406h-22.039v-22.332h22.039V78.75h13.905C142.251,85.191,144.147,92.457,144.147,100.017z"/>
	<path fill="#FFF200" d="M100.014,15.422c-46.718,0-84.592,37.874-84.592,84.596c0,46.717,37.874,84.597,84.592,84.597
		s84.587-37.88,84.587-84.597C184.602,53.296,146.732,15.422,100.014,15.422 M100.013,180.729
		c-44.572,0-80.709-36.139-80.709-80.709c0-44.577,36.137-80.712,80.709-80.712c44.571,0,80.707,36.135,80.707,80.712
		C180.72,144.59,144.584,180.729,100.013,180.729z"/>
	<path fill="#FFFFFF" d="M49.253,65.753l-8.531-7.076c-2.585-2.143-1.669-4.693-0.135-6.546l2.144-2.585
		c1.555-1.874,4.266-3.771,6.85-1.627l8.532,7.075c2.628,2.181,1.296,5.221-0.26,7.094l-2.142,2.584
		C54.174,66.526,51.881,67.933,49.253,65.753 M50.751,62.016c1.509,1.25,2.227,0.827,3.046-0.164l0.947-1.143
		c0.805-0.969,1.481-2.299-0.027-3.549l-6.656-5.521c-1.444-1.197-2.19-0.689-3.013,0.302l-1.267,1.602
		c-0.768,0.926-1.127,1.754,0.314,2.952L50.751,62.016z"/>
	<path fill="#FFFFFF" d="M130.394,52.25l-7.273-4.386l10.142-16.818l6.981,4.214c2.127,1.282,3.909,3.41,1.941,6.671l-0.424,0.701
		c-1.004,1.667-2.347,2.308-3.895,2.034c1.27,1.391,1.134,3.253,0.128,4.921l-0.742,1.231
		C135.283,54.081,132.519,53.533,130.394,52.25 M133.946,48.759l1.006-1.666c0.494-0.821,0.568-1.602-0.493-2.241
		c-0.291-0.175,0.53,0.32-3.673-2.215l-2.58,4.277l3.674,2.214C132.94,49.769,133.597,49.339,133.946,48.759z M138.131,41.167
		l0.567-0.941c0.351-0.58,0.932-1.382-0.491-2.242l-3.387-2.04l-2.257,3.746l3.43,2.069
		C137.132,42.442,137.766,41.772,138.131,41.167z"/>
	<path fill="#FFFFFF" d="M56.094,152.73l-2.116,8.122l-3.36-2.745l2.254-8.142l-1.533-1.403l-5.083,5.552l-2.642-2.751
		l13.111-14.337l5.973,5.975c1.757,1.608,3.029,4.072,0.534,6.799l-1.479,1.614C59.943,153.395,58.218,153.857,56.094,152.73
		 M58.907,148.808l1.238-1.352c0.887-0.968,0.61-1.556-0.298-2.39l-2.889-2.644l-3.364,3.675l2.929,2.68
		C57.45,149.63,58.019,149.778,58.907,148.808z"/>
	<polyline fill="#FFFFFF" points="106.854,156.305 103.628,168.251 101.346,157.898 97.146,157.872 94.502,167.657 91.963,156.146 
		87.63,155.353 92.183,175.986 96.368,176.298 99.055,166.374 101.274,176.384 105.696,176.175 111.263,155.596 106.854,156.305 	
		"/>
	<polygon fill="none" stroke="#231F20" stroke-width="0.1253" stroke-miterlimit="10" points="106.854,156.305 103.628,168.251 
		101.346,157.898 97.146,157.872 94.502,167.657 91.963,156.146 87.63,155.353 92.183,175.986 96.368,176.298 99.055,166.374 
		101.274,176.384 105.696,176.175 111.263,155.596 	"/>
	<path fill="#FFFFFF" d="M68.531,165.688c0.416,0.198,2.706,1.254,3.627,1.625c0.919,0.371,4.152,1.592,4.753,1.772l-1.438,3.3
		c0,0-3.883-1.411-6.287-2.481c-2.71-1.206-5.552-2.727-5.552-2.727l7.848-18.158c0,0,2.113,1.29,5.087,2.632
		c2.573,1.16,4.624,1.861,5.503,2.163c-0.014,0.264-0.19,3.612-0.19,3.612s-2.511-0.794-4.541-1.639
		c-1.664-0.692-3.797-1.702-3.797-1.702l-1.696,3.92c0.779,0.372,1.894,0.882,3.021,1.373c1.559,0.679,3.508,1.368,3.508,1.368
		l-1.351,3.127c0,0-1.559-0.581-2.913-1.127c-1.444-0.584-3.611-1.618-3.611-1.618L68.531,165.688"/>
	<path fill="#FFFFFF" d="M65.985,54.521l-9.866-16.999l3.292-2.191l8.122,14.091c2.43-1.548,4.212-2.491,6.929-3.816l1.532,3.045
		c0,0-2.72,1.285-5.093,2.71C68.767,52.644,67.201,53.75,65.985,54.521"/>
	<path fill="#FFFFFF" d="M144.099,147.537c-2.408,1.384-4.012,2.887-4.742,2.028l-0.704-0.792c-1.195-1.375-0.856-2.025,0.369-3.26
		c0.429-0.38,1.527-1.359,1.546-1.375c0.939-0.82,1.688-1.21,2.841-0.076l0.651,0.732l2.89-2.569l-1.237-1.392v0.001
		c-1.338-1.504-2.767-1.771-4.089-1.416c-0.339,0.093-0.668,0.223-0.992,0.389c-0.573,0.292-1.109,0.679-1.595,1.109l-2.623,2.334
		l-0.603,0.533c-1.26,1.122-2.283,2.624-2.042,4.296c0.065,0.694,0.356,1.403,0.979,2.102l2.548,2.868
		c2.139,2.405,6.063-0.843,8.321-2.114c1.82-1.023,2.713-1.596,3.677-0.46l0.327,0.369c0.575,0.649,0.789,1.165,0.768,1.611
		c-0.123,0.499-0.531,1.029-1.063,1.569c-0.38,0.334-1.7,1.51-1.719,1.527c-0.9,0.799-1.688,1.211-2.843,0.074l-0.917-1.033
		l-2.892,2.572l1.632,1.835l0.007-0.005c0.911,0.963,1.858,1.371,2.783,1.411c0.831,0.036,1.642-0.223,2.391-0.645
		c0.486-0.275,0.948-0.615,1.369-0.988l3.319-2.951c1.634-1.453,2.864-3.546,1.455-5.822c-0.063-0.104-0.126-0.208-0.202-0.313
		c-0.012-0.014-0.024-0.029-0.035-0.043c-0.079-0.11-0.158-0.222-0.257-0.33c0,0-0.009-0.012-0.104-0.118
		c-0.15-0.169-0.525-0.593-1.463-1.647c-0.23-0.257-0.299-0.333-0.6-0.674C148.925,144.257,146.857,145.952,144.099,147.537"/>
	<path fill="#FFFFFF" d="M158.351,124.511l-1.523-0.876c-2.936-1.693-5.038,0.133-6.222,2.187l-2.124,3.691
		c-1.184,2.056-1.655,4.699,1.283,6.391l3.949,2.274l1.562,0.898l3.949,2.275c2.939,1.691,4.986-0.044,6.17-2.099l2.126-3.691
		c1.184-2.055,1.709-4.785-1.232-6.479l-1.833-1.057l-1.92,3.333l0.784,0.451c1.652,0.953,1.471,1.815,0.863,2.872l-1.226,2.125
		c-0.605,1.055-1.263,1.646-2.915,0.694l-2.896-1.667l-1.564-0.901l-2.897-1.669c-1.653-0.951-1.473-1.817-0.865-2.873l1.224-2.123
		c0.607-1.056,1.267-1.648,2.919-0.694l0.47,0.271L158.351,124.511"/>
	<path fill="#FFFFFF" d="M36.813,68.278l-1.644-0.608c-3.182-1.177-4.946,0.974-5.769,3.198l-1.478,3.993
		c-0.824,2.225-0.849,4.91,2.333,6.087l10.238,3.788c3.182,1.178,4.909-0.878,5.732-3.101l1.478-3.994
		c0.823-2.224,0.883-5.005-2.299-6.183l-1.983-0.734l-1.336,3.609l0.849,0.313c1.788,0.661,1.754,1.545,1.33,2.688l-0.851,2.299
		c-0.421,1.141-0.971,1.833-2.76,1.171l-7.963-2.946c-1.789-0.663-1.754-1.546-1.333-2.686l0.85-2.299
		c0.424-1.143,0.973-1.837,2.762-1.174l0.507,0.188L36.813,68.278"/>
	<path fill="#FFFFFF" d="M47.962,135.504l1.523-0.869c2.943-1.683,2.43-4.417,1.254-6.477l-2.113-3.698
		c-1.176-2.06-3.219-3.803-6.164-2.119l-9.478,5.415c-2.945,1.682-2.481,4.328-1.306,6.385l2.113,3.697
		c1.175,2.06,3.27,3.895,6.214,2.21l1.837-1.049l-1.908-3.34l-0.785,0.448c-1.656,0.945-2.31,0.354-2.916-0.707l-1.215-2.128
		c-0.603-1.057-0.781-1.921,0.874-2.866l2.903-1.66l1.567-0.895l2.902-1.66c1.657-0.945,2.312-0.352,2.916,0.705l1.215,2.129
		c0.605,1.06,0.784,1.923-0.872,2.87l-0.471,0.27L47.962,135.504"/>
	<path fill="#FFFFFF" d="M164.311,77.153c-0.41-2.717-1.221-4.724-0.165-5.11l0.984-0.384c1.802-0.596,2.133-0.397,2.873,1.461
		c0.199,0.529,0.703,1.887,0.712,1.909c0.413,1.108,0.51,1.984-0.952,2.668l-0.909,0.356l1.328,3.573l1.729-0.677
		c1.871-0.731,2.633-1.968,2.778-3.319c0.041-0.347,0.036-0.7,0.001-1.056c-0.063-0.633-0.229-1.266-0.452-1.865l-1.206-3.243
		l-0.277-0.742c-0.579-1.557-1.596-3.024-3.227-3.372c-0.667-0.176-1.422-0.15-2.291,0.189l-0.287,0.11l-3.276,1.278
		c-2.988,1.166-1.404,5.933-1.045,8.47c0.288,2.045,0.495,3.072-0.899,3.578l-0.459,0.18c-0.808,0.311-1.358,0.333-1.763,0.16
		c-0.416-0.284-0.761-0.845-1.064-1.526c-0.173-0.466-0.783-2.098-0.792-2.122c-0.413-1.111-0.511-1.986,0.957-2.671l1.281-0.5
		l-1.33-3.572l-2.281,0.891v0.007c-1.215,0.517-1.933,1.259-2.304,2.107c-0.332,0.762-0.388,1.605-0.265,2.446
		c0.076,0.547,0.224,1.092,0.42,1.613l1.193,3.209l0.332,0.889c0.751,2.019,2.243,3.882,4.85,3.351
		c0.117-0.024,0.239-0.046,0.36-0.081c0.019-0.005,0.034-0.011,0.05-0.017c0.134-0.037,0.265-0.073,0.402-0.126
		c0,0,0.011-0.004,0.143-0.056c0.21-0.082,0.737-0.287,2.048-0.798c0.32-0.125,0.417-0.164,0.837-0.328
		C165.598,82.767,164.776,80.262,164.311,77.153"/>
	<path fill="#FFFFFF" d="M111.066,33.468l5.629-7.985c1.872,0.406,4.192,1.059,4.192,1.059l-3.414,19.317l-3.773-0.857l2.021-11.456
		l-4.766,6.425l-2.1-0.336l-2.214-7.706l-2.05,11.583l-3.828-0.318l3.449-19.425c1.213,0.064,3.18,0.238,4.371,0.361L111.066,33.468
		"/>
	<path fill="#FFFFFF" d="M77.065,27.157l3.695-0.999l3.016,13.691c0.416,1.886,1.316,1.967,2.529,1.7l2.093-0.461
		c1.213-0.268,1.994-0.721,1.579-2.604l-3.014-13.691l3.789-0.581l3.225,14.645c0.738,3.348-1.586,4.799-3.951,5.32l-3.898,0.859
		c-2.367,0.522-5.087,0.181-5.824-3.168L77.065,27.157"/>
	<path fill="#FFFFFF" d="M153.456,45.473l2.687,2.735l-10.665,9.1c-1.467,1.252-1.117,2.086-0.309,3.031l1.387,1.63
		c0.809,0.946,1.577,1.42,3.044,0.169l10.665-9.1l2.253,3.104l-11.365,9.7c-2.608,2.228-4.981,0.858-6.553-0.985l-2.593-3.037
		c-1.574-1.842-2.55-4.403,0.06-6.628L153.456,45.473"/>
	<path fill="#FFFFFF" d="M79.77,96.076h2.344c1.374,0,3.678-0.447,3.678-3.442V75.586c0-3.378-2.54-3.881-4.052-3.881h-1.951
		c-1.513,0-4.051,0.503-4.051,3.881v6.45c0,3.379,2.539,3.882,4.051,3.882h1.414c0.504,0,1.01-0.113,1.461-0.327l0.224-0.107
		l0.006,6.123c0,1.661-0.697,2-1.743,2h-0.677c-1.074,0-1.74-0.334-1.74-2v-2.454H76.05v3.48
		C76.05,95.629,78.38,96.076,79.77,96.076 M82.887,80.898c0,1.811-0.748,2.176-1.953,2.176h-0.313c-1.221,0-1.979-0.366-1.979-2.176
		v-4.174c0-1.836,0.736-2.203,1.926-2.203h0.392c1.19,0,1.926,0.367,1.926,2.203V80.898z"/>
	<path fill="#FFFFFF" d="M94.642,71.705h-2.343c-1.374,0-3.679,0.447-3.679,3.441v17.047c0,3.379,2.539,3.882,4.053,3.882h1.949
		c1.513,0,4.053-0.503,4.053-3.882v-6.449c0-3.377-2.54-3.881-4.053-3.881h-1.414c-0.496,0-1.014,0.115-1.461,0.326l-0.222,0.105
		v-5.057c0-0.02-0.002-0.042-0.005-0.064l-0.002-1c0-1.661,0.698-2.002,1.744-2.002h0.676c1.074,0,1.742,0.334,1.742,2.002v2.453
		h2.682v-3.48C98.362,72.152,96.031,71.705,94.642,71.705 M91.525,86.882c0-1.812,0.746-2.177,1.952-2.177h0.313
		c1.221,0,1.978,0.365,1.978,2.177v4.174c0,1.835-0.737,2.205-1.925,2.205h-0.395c-1.189,0-1.924-0.369-1.924-2.205V86.882z"/>
	<polyline fill="#231F20" points="158.337,177.403 157.438,177.403 157.438,173.699 156.11,173.699 156.11,172.945 159.658,172.945 
		159.658,173.699 158.337,173.699 158.337,177.403 	"/>
	<polyline fill="#231F20" points="161.065,177.403 160.228,177.403 160.228,172.945 161.577,172.945 162.384,175.984 
		163.187,172.945 164.537,172.945 164.537,177.403 163.7,177.403 163.7,173.891 162.813,177.403 161.946,177.403 161.065,173.891 
		161.065,177.403 	"/>
	<path fill="#FFF200" d="M80.465,139.602c6.004,2.971,12.651,4.552,19.544,4.552c0.897,0,1.856,0.004,2.744-0.049v-20.976
		l-22.288-0.039V139.602"/>
	<path fill="#FFF200" d="M131.22,68.809c-0.639-0.641-1.3-1.25-1.972-1.845l-27.142,27.145c-0.094,0.919-0.189,1.833-0.294,2.738
		c-2.232,1.593-4.714,3.192-7.381,4.751c-2.411,1.403-4.838,2.69-7.23,3.829c-2.39-1.141-4.815-2.43-7.22-3.828
		c-2.645-1.542-5.129-3.142-7.38-4.752c-0.368-3.132-0.674-6.388-0.919-9.699c-0.502-6.743-0.722-13.21-0.628-18.788
		c2.009-0.711,4.553-1.283,7.373-1.669l8.99-8.99c-6.961,2.062-13.339,5.832-18.615,11.108c-5.363,5.363-9.053,11.775-11.072,18.582
		l10.886-10.888c0.045,2.218,0.148,4.482,0.305,6.997L56.057,96.364c-0.2,2.425-0.2,4.864-0.001,7.292l13.362-13.361
		c0.19,2.258,0.414,4.477,0.662,6.642l-13.042,13.042c0.435,1.899,1.004,3.773,1.693,5.613l14.771-14.773
		c1.426,0.954,2.921,1.896,4.481,2.821l-16.996,16.999c0.817,1.552,1.747,3.059,2.763,4.524l18.893-18.895
		c1.23,0.656,2.463,1.29,3.742,1.924l1.077,0.561l-20.503,20.505c0.592,0.669,1.203,1.329,1.843,1.968
		c0.582,0.585,1.181,1.143,1.79,1.688l9.874-9.823l52.437-52.5C132.357,69.985,131.8,69.388,131.22,68.809"/>
	<path fill="#FFF200" d="M131.22,131.226c2.485-2.484,4.63-5.179,6.428-8.097h-12.855l-0.011,13.406
		C126.994,135.011,129.28,133.166,131.22,131.226"/>
	<path fill="#FFF200" d="M86.442,66.127c0.494-0.01,0.993-0.01,1.532,0l1.891,0.041c0.128,0.007,0.255,0.011,0.378,0.017
		l0.571,0.028c0.85,0.043,1.681,0.108,2.502,0.183l10.351-10.353c-1.21-0.099-2.431-0.161-3.657-0.161
		c-1.22,0-2.429,0.062-3.632,0.16L86.291,66.128L86.442,66.127"/>
	<path fill="#FFF200" d="M103.361,68.361c0.014,0.838,0.017,1.702,0.017,2.58l12.226-12.227c-1.828-0.688-3.7-1.253-5.616-1.693
		l-10.319,10.32C101.025,67.638,102.276,67.977,103.361,68.361"/>
	<path fill="#FFF200" d="M102.79,86.12l22.369-22.371c-1.457-1.014-2.963-1.943-4.52-2.768l-17.42,17.422
		C103.121,80.896,102.979,83.477,102.79,86.12"/>
	<rect x="102.753" y="100.797" fill="#FFF200" width="22.039" height="22.332"/>
	<path fill="#FFF200" d="M144.147,100.017c0-7.561-1.896-14.826-5.45-21.268h-13.905v22.048h19.335
		C144.131,100.537,144.147,100.278,144.147,100.017"/>
	<path fill="#FFF200" d="M100.014,48.185c-28.628,0-51.832,23.205-51.832,51.834c0,28.625,23.204,51.833,51.832,51.833
		c28.626,0,51.829-23.208,51.829-51.833C151.843,71.39,128.641,48.185,100.014,48.185 M133.939,133.948
		c-9.061,9.062-21.112,14.054-33.929,14.054c-12.818,0-24.866-4.993-33.929-14.055c-18.706-18.709-18.706-49.15,0-67.86
		c9.061-9.062,21.111-14.052,33.929-14.052c12.817,0,24.869,4.99,33.928,14.052c9.065,9.062,14.055,21.112,14.055,33.93
		C147.993,112.835,143.004,124.885,133.939,133.948z"/>
	<path fill="#231F20" d="M100.016,11.595c-48.833,0-88.421,39.588-88.421,88.423c0,48.83,39.589,88.423,88.421,88.423
		c48.829,0,88.411-39.594,88.411-88.423C188.427,51.183,148.845,11.595,100.016,11.595 M100.014,184.615
		c-46.718,0-84.592-37.88-84.592-84.597c0-46.722,37.874-84.596,84.592-84.596s84.587,37.874,84.587,84.596
		C184.602,146.735,146.732,184.615,100.014,184.615z"/>
</g>
</svg>
