<?xml version="1.0" encoding="utf-8"?>
<!-- Generator: Adobe Illustrator 14.0.0, SVG Export Plug-In . SVG Version: 6.00 Build 43363)  -->
<!DOCTYPE svg PUBLIC "-//W3C//DTD SVG 1.1//EN" "http://www.w3.org/Graphics/SVG/1.1/DTD/svg11.dtd">
<svg version="1.1" id="Layer_1" xmlns="http://www.w3.org/2000/svg" xmlns:xlink="http://www.w3.org/1999/xlink" x="0px" y="0px"
	 width="200px" height="200px" viewBox="0 0 200 200" enable-background="new 0 0 200 200" xml:space="preserve">
<g>
	<g>
		<g>
			<defs>
				<rect id="SVGID_1_" width="200" height="200"/>
			</defs>
			<clipPath id="SVGID_2_">
				<use xlink:href="#SVGID_1_"  overflow="visible"/>
			</clipPath>
			<path clip-path="url(#SVGID_2_)" fill="#FFFFFF" d="M161.434,55.644c0.053-0.383,4.936-38.112,4.936-38.112l-1.157-0.67
				C164.734,16.57,152.887,10,100,10c-52.893,0-64.74,6.57-65.217,6.862l-1.149,0.67c0,0,4.882,37.729,4.934,38.112
				c-0.027,0.389-3.822,58.026-3.822,58.026c0,0.1-0.007,0.375-0.007,0.797c0,4.903,1.017,29.943,21.071,44.344
				c15.633,11.233,28.344,13.486,31.897,13.92c0.957,1.349,12.307,17.271,12.307,17.271s11.205-15.952,12.166-17.328
				c3.59-0.418,16.383-2.632,32.014-13.86c20.074-14.42,21.07-39.494,21.07-44.307c0-0.406-0.008-0.678-0.016-0.773
				C165.248,113.674,161.67,59.249,161.434,55.644"/>
		</g>
	</g>
	<g>
		<g>
			<defs>
				<rect id="SVGID_3_" width="200" height="200"/>
			</defs>
			<clipPath id="SVGID_4_">
				<use xlink:href="#SVGID_3_"  overflow="visible"/>
			</clipPath>
			<path clip-path="url(#SVGID_4_)" d="M99.999,186.518l11.058-15.766c0,0,14.135-0.773,31.957-13.577
				c21.183-15.213,20.229-43.37,20.229-43.37l-3.827-58.228l4.781-36.978c0,0-11.253-6.584-64.195-6.584
				c-52.95,0-64.194,6.584-64.194,6.584l4.783,36.978l-3.829,58.228c0,0-0.954,28.157,20.222,43.37
				c17.83,12.804,31.833,13.64,31.833,13.64L99.999,186.518"/>
		</g>
	</g>
	<g>
		<g>
			<defs>
				<rect id="SVGID_5_" width="200" height="200"/>
			</defs>
			<clipPath id="SVGID_6_">
				<use xlink:href="#SVGID_5_"  overflow="visible"/>
			</clipPath>
			<path clip-path="url(#SVGID_6_)" fill="#FFFFFF" d="M99.999,180.828l9.246-13.366c0,0,14.459-0.647,31.646-13.062
				c19.174-13.846,18.729-40.063,18.729-40.063l-3.583-58.606c0,0-9.188-4.189-45.953-4.189L100,58.476l-10.08-6.932
				c-36.771,0-45.961,4.189-45.961,4.189l-3.582,58.606c0,0-0.439,26.216,18.732,40.062c17.188,12.414,31.647,13.063,31.647,13.063
				L99.999,180.828"/>
		</g>
	</g>
	<g>
		<g>
			<defs>
				<rect id="SVGID_7_" width="200" height="200"/>
			</defs>
			<clipPath id="SVGID_8_">
				<use xlink:href="#SVGID_7_"  overflow="visible"/>
			</clipPath>
			<path clip-path="url(#SVGID_8_)" fill="#E61C1F" d="M100.014,178.614l8.388-12.47c0,0,14.817-0.357,31.66-12.52
				c18.777-13.563,18.336-39.253,18.336-39.253l-3.502-57.409c0,0-8.321-4.103-44.342-4.103L100,60.203l-10.451-7.341
				c-36.015,0-44.449,4.103-44.449,4.103l-3.507,57.409c0,0-0.435,25.69,18.343,39.253c16.847,12.16,31.653,12.518,31.653,12.518
				L100.014,178.614"/>
		</g>
	</g>
	<g>
		<g>
			<defs>
				<rect id="SVGID_9_" width="200" height="200"/>
			</defs>
			<clipPath id="SVGID_10_">
				<use xlink:href="#SVGID_9_"  overflow="visible"/>
			</clipPath>
			<path clip-path="url(#SVGID_10_)" fill="#FFFFFF" d="M98.107,175.963l-5.766-28.22l-13.221,8.409l6.701-22.801
				c0,0,0.494-1.632-1.259-2.326c-2.268-0.896-11.447-2.438-17.226-5.832c-5.78-3.396-16.246-9.519-12.448-29.467
				c-2.287-4.405-2.844-7.71-2.476-24.708c-1.588-3.326-2.338-10.867-2.966-16.46c0,0,8.377,5.323,14.539,8.135
				c6.278,2.877,23.33,7.187,23.33,19.864c0,7.484-4.197,7.046-4.197,15.323c0,4.128,0.435,5.323,4.275,5.323
				c3.395,0,7-0.54,7-3.494c0-3.088-1.801-2.975-4.136-2.975c-1.195,0-3.075,2.741-3.075,2.741s-1.248-7.593,2.033-9.465
				c1.603-0.905,2.846-1.047,4.668-0.691c0.506,0.104,0.525,0.173,0.69-0.058c0.448-0.624,2.302-1.676,4.252-1.526
				c1.789,0.142,5.815,0.569,7.454,0.569c1.625,0,3.886-0.295,3.886-0.295s0.261,2.391-0.601,3.39
				c-0.438,0.502,0.682,1.188,2.354,2.471c0,0-2.421,0.659-2.421,1.251c0,0.515,3.383,2.036,3.383,2.036s-4.67,0.154-4.67,2.786
				c0,2.065,1.606,3.26,4.374,3.26c3.846,0,4.3-1.195,4.3-5.323c0-8.277-4.204-7.839-4.204-15.323
				c0-12.677,17.051-16.987,23.329-19.864c6.159-2.812,14.543-8.135,14.543-8.135c-0.63,5.593-1.375,13.134-2.967,16.46
				c0.376,16.998-0.185,20.303-2.479,24.708c3.808,19.951-6.658,26.073-12.44,29.467c-5.788,3.395-14.968,4.938-17.235,5.832
				c-1.75,0.695-1.258,2.326-1.258,2.326l6.705,22.801l-13.217-8.409l-5.754,28.312l-1.872,2.678L98.107,175.963"/>
		</g>
	</g>
	<g>
		<g>
			<defs>
				<rect id="SVGID_11_" width="200" height="200"/>
			</defs>
			<clipPath id="SVGID_12_">
				<use xlink:href="#SVGID_11_"  overflow="visible"/>
			</clipPath>
			<path clip-path="url(#SVGID_12_)" fill="#FFFFFF" d="M99.999,53.969l8.886-6.086c36.764,0,47.582,4.174,47.582,4.174
				l3.869-31.395c0,0-10.611-5.249-60.337-5.249c-49.726,0-60.334,5.249-60.334,5.249l3.87,31.395c0,0,10.811-4.174,47.578-4.174
				L99.999,53.969"/>
		</g>
	</g>
	<g>
		<g>
			<defs>
				<rect id="SVGID_13_" width="200" height="200"/>
			</defs>
			<clipPath id="SVGID_14_">
				<use xlink:href="#SVGID_13_"  overflow="visible"/>
			</clipPath>
			<path clip-path="url(#SVGID_14_)" d="M56.966,30.27c-0.808-5.042-1.914-7.823-3.594-9.011c-1.317-0.931-2.89-0.793-4.398-0.515
				l-4.204,0.793l0.113,0.864c0,0,0.883-0.165,1.137-0.209c0.044,0.345,3.119,25.006,3.167,25.32
				c-0.239,0.038-1.146,0.211-1.146,0.211l0.113,0.856l5.544-1.029c4.68-0.862,4.519-6.438,3.994-10.552L56.966,30.27z
				 M54.604,45.401c0,0.647-0.326,1.101-1.404,1.345c-0.048-0.379-3.115-24.97-3.151-25.303c0.561-0.082,0.946-0.09,1.201,0.094
				c0.314,0.239,0.506,0.787,0.643,1.835l2.688,21.663C54.593,45.165,54.604,45.288,54.604,45.401"/>
		</g>
	</g>
	<g>
		<g>
			<defs>
				<rect id="SVGID_15_" width="200" height="200"/>
			</defs>
			<clipPath id="SVGID_16_">
				<use xlink:href="#SVGID_15_"  overflow="visible"/>
			</clipPath>
			<path clip-path="url(#SVGID_16_)" d="M61.102,42.365c-0.992,0-1.829,1.094-1.829,2.385c0,1.157,0.683,2.354,1.829,2.354
				c1.176,0,1.801-1.209,1.801-2.354C62.903,43.459,62.079,42.365,61.102,42.365"/>
		</g>
	</g>
	<g>
		<g>
			<defs>
				<rect id="SVGID_17_" width="200" height="200"/>
			</defs>
			<clipPath id="SVGID_18_">
				<use xlink:href="#SVGID_17_"  overflow="visible"/>
			</clipPath>
			<path clip-path="url(#SVGID_18_)" d="M72.658,35.8l-0.785,0.044l0.013,0.172c0.387,4.466-0.008,7.622-1.107,8.894
				c-0.303,0.353-0.651,0.542-1.044,0.569c-0.64,0.039-1.059-0.287-1.169-2.051l-1.433-22.947c-0.019-0.27,0.041-0.636,0.221-0.827
				c0.067-0.09,0.165-0.142,0.279-0.142c0.882-0.059,1.887,0.592,3.734,9.051l0.033,0.142l0.733-0.044l-0.644-10.298l-0.172,0.004
				l-0.393,0.026c0,0-0.863,1.464-1.099,1.849c-0.6-1.216-1.4-1.757-2.588-1.684c-1.973,0.123-4.218,2.05-3.695,10.503l0.446,7.206
				c0.303,4.845,1.28,8.023,2.891,9.455c0.714,0.627,1.553,0.914,2.499,0.855c0.813-0.05,1.491-0.383,2.01-0.989
				c1.282-1.478,1.697-4.62,1.282-9.627L72.658,35.8z"/>
		</g>
	</g>
	<g>
		<g>
			<defs>
				<rect id="SVGID_19_" width="200" height="200"/>
			</defs>
			<clipPath id="SVGID_20_">
				<use xlink:href="#SVGID_19_"  overflow="visible"/>
			</clipPath>
			<path clip-path="url(#SVGID_20_)" d="M75.945,41.235c-1,0-1.835,1.09-1.835,2.385c0,1.157,0.682,2.35,1.835,2.35
				c1.17,0,1.801-1.208,1.801-2.35C77.747,42.325,76.915,41.235,75.945,41.235"/>
		</g>
	</g>
	<g>
		<g>
			<defs>
				<rect id="SVGID_21_" width="200" height="200"/>
			</defs>
			<clipPath id="SVGID_22_">
				<use xlink:href="#SVGID_21_"  overflow="visible"/>
			</clipPath>
			<path clip-path="url(#SVGID_22_)" d="M90.847,17.555l-3.582,0.098l0.019,0.867l0.169-0.003c0.823-0.02,1.38,0.207,1.411,1.381
				l0.519,20.172c0.083,3.257-1.103,4.437-2.226,4.467c-0.555,0.016-0.913-0.069-1.124-0.262c-0.186-0.184-0.276-0.479-0.287-1.016
				c0,0-0.588-22.953-0.636-24.649c0.243-0.008,1.155-0.059,1.155-0.059l-0.029-0.866l-6.379,0.314l0.023,0.874
				c0,0,0.931-0.046,1.178-0.058c0.008,0.341,0.569,21.96,0.569,21.96c0.046,1.789,0.498,3.111,1.349,3.923
				c0.722,0.68,1.726,1.017,2.997,0.977c3.171-0.082,4.477-1.85,4.374-5.923l-0.51-19.883c-0.034-1.109,0.341-1.36,1.048-1.442
				l0.153-0.012l-0.019-0.86H90.847z"/>
		</g>
	</g>
	<g>
		<g>
			<defs>
				<rect id="SVGID_23_" width="200" height="200"/>
			</defs>
			<clipPath id="SVGID_24_">
				<use xlink:href="#SVGID_23_"  overflow="visible"/>
			</clipPath>
			<path clip-path="url(#SVGID_24_)" d="M100.445,17.656v0.86l0.157,0.02c0.771,0.055,1.295,0.388,1.295,1.811v15.721
				c-0.969-5.831-2.245-13.205-3.295-18.274l-0.034-0.138h-5.293v0.88c0-0.004,0.962,0,1.209,0V42.25
				c0,1.381-0.42,1.994-1.494,2.193l-0.142,0.025v0.843h4.124v-0.879l-0.174,0.004c-0.372,0.015-0.648-0.075-0.855-0.278
				c-0.345-0.326-0.517-0.95-0.517-1.837V21.014c0.431,2.35,4.5,24.297,4.5,24.297h2.908V20.215c0-0.988,0.498-1.649,1.267-1.679
				l0.158-0.008v-0.872h-0.168H100.445z"/>
		</g>
	</g>
	<g>
		<g>
			<defs>
				<rect id="SVGID_25_" width="200" height="200"/>
			</defs>
			<clipPath id="SVGID_26_">
				<use xlink:href="#SVGID_25_"  overflow="visible"/>
			</clipPath>
			<path clip-path="url(#SVGID_26_)" d="M106.456,17.959l-0.022,0.703c0,0,1.075,0.019,1.334,0.031
				c-0.006,0.325-0.561,25.559-0.561,25.892c-0.257-0.011-1.334-0.04-1.334-0.04l-0.02,0.875l6.809,0.169l0.016-0.879
				c0,0-1.156-0.023-1.422-0.031c0.01-0.325,0.563-25.574,0.571-25.9c0.253,0.004,1.33,0.032,1.33,0.032l0.019-0.879l-6.72-0.145
				V17.959z"/>
		</g>
	</g>
	<g>
		<g>
			<defs>
				<rect id="SVGID_27_" width="200" height="200"/>
			</defs>
			<clipPath id="SVGID_28_">
				<use xlink:href="#SVGID_27_"  overflow="visible"/>
			</clipPath>
			<path clip-path="url(#SVGID_28_)" d="M115.796,18.191l-0.442,10.564l0.742,0.04l0.026-0.149c0.739-4.038,1.889-9.332,3.271-9.593
				c-0.02,0.429-1.076,25.473-1.092,25.806c-0.261-0.011-1.265-0.078-1.265-0.078l-0.038,0.879l6.574,0.393l0.043-0.876
				c0,0-1.016-0.063-1.276-0.074c0.019-0.322,1.08-25.41,1.097-25.853c1.358,0.397,2.062,5.776,2.45,9.871l0.023,0.14l0.735,0.033
				l0.453-10.735l-11.291-0.537L115.796,18.191z"/>
		</g>
	</g>
	<g>
		<g>
			<defs>
				<rect id="SVGID_29_" width="200" height="200"/>
			</defs>
			<clipPath id="SVGID_30_">
				<use xlink:href="#SVGID_29_"  overflow="visible"/>
			</clipPath>
			<path clip-path="url(#SVGID_30_)" d="M129.934,18.846l-0.054,0.697c0,0,0.903,0.092,1.142,0.123
				c-0.022,0.318-2.062,25.417-2.092,25.751c-0.236-0.02-1.135-0.106-1.135-0.106l-0.074,0.878l10.58,0.904l0.844-10.154
				l-0.771-0.058l-0.021,0.147c-0.273,1.403-0.533,2.347-1.394,5.073c-1.118,3.559-1.785,3.846-3.256,3.716
				c0,0-0.478-0.038-0.735-0.055c0.022-0.33,1.09-13.241,1.118-13.612c1.368,0.243,1.739,1.471,1.796,5.844l0.006,0.157l0.646,0.015
				l1.053-12.702l-0.759-0.007l-0.017,0.157c-0.556,4.197-1.34,5.256-2.648,5.578c0.037-0.446,0.891-10.792,0.911-11.118
				c0.27,0.031,1.396,0.142,1.396,0.142c1.758,0.184,2.137,2.048,2.618,8.823l0.009,0.14l0.705,0.071l0.773-9.49l-10.628-1.086
				L129.934,18.846z"/>
		</g>
	</g>
	<g>
		<g>
			<defs>
				<rect id="SVGID_31_" width="200" height="200"/>
			</defs>
			<clipPath id="SVGID_32_">
				<use xlink:href="#SVGID_31_"  overflow="visible"/>
			</clipPath>
			<path clip-path="url(#SVGID_32_)" d="M148.068,20.662l-4.18-0.639l-0.021,0.172l-0.084,0.703c0,0,0.896,0.142,1.135,0.172
				c-0.039,0.322-3.021,25.133-3.063,25.458c-0.242-0.032-1.17-0.146-1.17-0.146l-0.097,0.847l5.659,0.757
				c1.354,0.174,2.501-0.09,3.413-0.807c1.991-1.545,2.628-4.998,2.958-7.831l0.734-6.509
				C154.191,23.47,152.046,21.278,148.068,20.662 M150.23,23.232c0,0.274-0.023,0.6-0.069,0.992l-2.429,21.671
				c-0.06,0.467-0.191,0.78-0.432,0.958c-0.268,0.21-0.703,0.274-1.324,0.21c0.034-0.337,2.873-25.001,2.92-25.365
				C149.797,21.871,150.23,22.083,150.23,23.232"/>
		</g>
	</g>
	<g>
		<g>
			<defs>
				<rect id="SVGID_33_" width="200" height="200"/>
			</defs>
			<clipPath id="SVGID_34_">
				<use xlink:href="#SVGID_33_"  overflow="visible"/>
			</clipPath>
			<path clip-path="url(#SVGID_34_)" d="M112.008,104.881c-2.639,0-5.436-1.854-5.436-4.789c0-2.935,2.299-3.377,2.299-3.377
				s-1.402-0.722-1.402-1.616c0-0.903,1.493-1.554,1.493-1.554c-2.421-1.77-1.34-2.785-0.789-3.095
				c0.445-0.248,0.347-0.621,0.347-0.621s-0.967,0.149-2.519,0.149c-1.56,0-5.413-0.479-7.12-0.595
				c-1.707-0.121-3.381,0.808-3.381,1.522c0,0.72-0.561,0.395-0.864,0.334c-0.299-0.06-2.875-1.085-4.609,0.235
				c-1.731,1.318-1.437,4.373-1.437,4.373c0.66-0.781,1.868-0.726,3.112-0.726c1.919,0,4.365,1.021,4.365,4.312
				c0,4.667-4.733,5.448-7.97,5.448c-4.065,0-6.642-0.904-6.642-6.166c0-9.932,4.19-9.453,4.19-15.738
				c0-11.844-15.254-15.673-21.361-18.305c-6.105-2.638-12.802-6.823-12.802-6.823c1.071,8.855,1.617,16.931,11.126,21.843
				c9.513,4.903,9.036,12.981,9.036,12.981c-1.797-4.249-9.396-8.622-12.986-10.89c-3.59-2.272-4.664-6.049-4.664-6.049
				c-0.895,22.205,4.072,21.128,10.949,26.098c7.825,5.643,6.641,9.867,6.641,9.867c-2.814-4.842-8.438-7.481-11.305-9.21
				c-2.881-1.742-4.073-4.19-4.073-4.19c-2.871,17.467,7.12,22.611,12.624,25.846c5.505,3.236,15.324,4.366,17.469,6.105
				c1.88,1.51,1.075,3.35,1.075,3.35l-5.496,18.909l11.609-7.417L100,177.25l6.516-32.158l11.607,7.417l-5.506-18.909
				c0,0-0.797-1.84,1.076-3.35c2.164-1.739,11.965-2.869,17.471-6.105c5.505-3.232,15.504-8.379,12.623-25.846
				c0,0-1.191,2.448-4.061,4.19c-2.873,1.729-8.498,4.368-11.317,9.21c0,0-1.177-4.225,6.651-9.867
				c6.877-4.97,11.853-3.894,10.946-26.098c0,0-1.084,3.777-4.67,6.049c-3.582,2.268-11.185,6.641-12.979,10.89
				c0,0-0.479-8.078,9.029-12.981c9.523-4.912,10.053-12.988,11.129-21.843c0,0-6.695,4.185-12.804,6.823
				c-6.103,2.632-21.356,6.461-21.356,18.305c0,6.285,4.185,5.806,4.185,15.738C118.541,103.977,116.073,104.881,112.008,104.881"/>
		</g>
	</g>
	<g>
		<g>
			<defs>
				<rect id="SVGID_35_" width="200" height="200"/>
			</defs>
			<clipPath id="SVGID_36_">
				<use xlink:href="#SVGID_35_"  overflow="visible"/>
			</clipPath>
			<path clip-path="url(#SVGID_36_)" fill="#FFFFFF" d="M106.074,91.625c0,0-0.402,0.628-0.284,1.257
				c0.123,0.632,0.637,0.835,0.637,0.835s-0.959,0.689-0.959,1.561c0,0.864,0.774,1.553,0.774,1.553s-1.678,1.468-1.678,3.56
				c0,2.099,1.646,3.44,1.646,3.44s-1.522-0.506-2.245,0.751c0,0-0.506-1.35-2.271-1.35c-1.764,0-2.542,1.35-2.542,1.35
				s-0.961-1.41-2.659-0.604c0,0,1.82-1.643,1.82-4.037c0-2.389-0.864-4.574-4.095-5.503c-3.238-0.925-4.276,0.06-4.276,0.06
				s0.086-1.288,0.828-1.912c0.756-0.636,2.789-0.514,3.804-0.303c1.017,0.213,1.107,0.538,1.35,0.475c0,0,0.401,0.032,1.075-0.494
				c0,0,0.105-0.671,0.969-1.056c0.87-0.396,1.876-0.364,3.157-0.03C102.411,91.504,104.588,92.343,106.074,91.625"/>
		</g>
	</g>
	<g>
		<g>
			<defs>
				<rect id="SVGID_37_" width="200" height="200"/>
			</defs>
			<clipPath id="SVGID_38_">
				<use xlink:href="#SVGID_37_"  overflow="visible"/>
			</clipPath>
			<path clip-path="url(#SVGID_38_)" fill="#E71B2D" d="M97.061,93.552c0.357,0.229,1.655,1.374,3.04,0.674
				c1.389-0.689,1.167-1.921,1.167-1.921s-1.425,0.663-2.426,0.663s-1.843-0.703-1.843-0.703s-0.565,0.486-1.123,0.498
				C95.875,92.763,96.707,93.32,97.061,93.552"/>
		</g>
	</g>
	<g>
		<g>
			<defs>
				<rect id="SVGID_39_" width="200" height="200"/>
			</defs>
			<clipPath id="SVGID_40_">
				<use xlink:href="#SVGID_39_"  overflow="visible"/>
			</clipPath>
			<polygon clip-path="url(#SVGID_40_)" fill="#FFFFFF" points="99.953,109.977 103.896,121.592 116.172,121.592 106.48,129.078 
				109.885,140.725 99.953,133.777 90.011,140.725 93.522,129.078 83.828,121.592 96.001,121.592 			"/>
		</g>
	</g>
	<g>
		<g>
			<defs>
				<rect id="SVGID_41_" width="200" height="200"/>
			</defs>
			<clipPath id="SVGID_42_">
				<use xlink:href="#SVGID_41_"  overflow="visible"/>
			</clipPath>
			<polygon clip-path="url(#SVGID_42_)" fill="#F89D32" points="99.96,112.413 103.341,122.365 113.855,122.365 105.544,128.787 
				108.471,138.764 99.96,132.82 91.439,138.764 94.447,128.787 86.143,122.374 96.57,122.374 			"/>
		</g>
	</g>
	<g>
		<g>
			<defs>
				<rect id="SVGID_43_" width="200" height="200"/>
			</defs>
			<clipPath id="SVGID_44_">
				<use xlink:href="#SVGID_43_"  overflow="visible"/>
			</clipPath>
			<path clip-path="url(#SVGID_44_)" d="M100.008,118.604c-4.893,0-8.858,3.961-8.858,8.853c0,4.888,3.965,8.851,8.858,8.851
				c4.887,0,8.842-3.963,8.842-8.851C108.85,122.564,104.896,118.604,100.008,118.604"/>
		</g>
	</g>
	<g>
		<g>
			<defs>
				<rect id="SVGID_45_" width="200" height="200"/>
			</defs>
			<clipPath id="SVGID_46_">
				<use xlink:href="#SVGID_45_"  overflow="visible"/>
			</clipPath>
			<path clip-path="url(#SVGID_46_)" fill="#FFFFFF" d="M100.003,135.441c-0.309,0-0.612-0.021-0.912-0.053
				c-0.002-0.047-0.048-1.13-0.14-1.318c0,0,0.981-0.549,1.938-1.387c-0.634,0.471-1.624,0.93-2.036,1.034
				c-0.444,0.204-2.406-0.532-3.623-1.707c0,0-0.699,0.695-0.981,0.979c-1.384-1.438-2.236-3.391-2.236-5.543
				c0-4.406,3.574-7.984,7.991-7.984c0.148,0,0.295,0.008,0.441,0.016l0.043,1.858c1.944-0.194,3.544,1.354,3.544,1.354
				s0.536,0.634,0.729,2.718c0,0,0.054-1.797-0.245-2.62c0.586-0.529,0.924-0.531,1.599-0.479c1.17,1.39,1.875,3.183,1.875,5.139
				C107.986,131.861,104.413,135.441,100.003,135.441"/>
		</g>
	</g>
	<g>
		<g>
			<defs>
				<rect id="SVGID_47_" width="200" height="200"/>
			</defs>
			<clipPath id="SVGID_48_">
				<use xlink:href="#SVGID_47_"  overflow="visible"/>
			</clipPath>
			<path clip-path="url(#SVGID_48_)" d="M97.38,123.23c0,0,1.169-0.92,2.262-1.604c0,0-1.168,0.659-2.404,1.459
				c0,0-0.824-0.19-2.4-0.147l-0.15-1.312l-0.164,1.356c0,0-1.46,0.927-1.755,3.399c0,0-0.281,0.272-0.701,0.487v0.29
				c0,0,0.51-0.29,0.799-0.515c0,0,0.804,1.393,1.747,2.188c0,0-0.067,1.452,0.517,2.624c0,0-0.364-1.459-0.22-2.771
				c0.722-0.944,0.942-0.944,2.986-2.041C97.897,126.648,97.309,124.906,97.38,123.23"/>
		</g>
	</g>
	<g>
		<g>
			<defs>
				<rect id="SVGID_49_" width="200" height="200"/>
			</defs>
			<clipPath id="SVGID_50_">
				<use xlink:href="#SVGID_49_"  overflow="visible"/>
			</clipPath>
			<path clip-path="url(#SVGID_50_)" d="M106.506,128.377c-0.383-1.119-1.311-1.848-1.747-2.333c0,0-1.502,1.701-2.521,2.091
				c-0.687,0.291-2.521-0.535-3.689-1.074c0.149,0.395,1.938,1.021,3.354,1.56c0,0,0.434,1.938-0.098,3.302
				c0.866,0.043,1.744,0.043,3.192-0.484c0,0,0.244,0.578,0.345,1.742c0,0,0.1-1.646,0.146-1.986
				c0.636-0.487,0.927-1.698,1.019-2.525c0,0,1.267-0.482,1.425-1.211C107.609,127.943,107.238,128.182,106.506,128.377"/>
		</g>
	</g>
	<g>
		<g>
			<defs>
				<rect id="SVGID_51_" width="200" height="200"/>
			</defs>
			<clipPath id="SVGID_52_">
				<use xlink:href="#SVGID_51_"  overflow="visible"/>
			</clipPath>
			<polygon clip-path="url(#SVGID_52_)" points="133.282,171.352 132.432,171.352 132.432,167.833 131.171,167.833 131.171,167.109 
				134.538,167.109 134.538,167.833 133.282,167.833 			"/>
		</g>
	</g>
	<g>
		<g>
			<defs>
				<rect id="SVGID_53_" width="200" height="200"/>
			</defs>
			<clipPath id="SVGID_54_">
				<use xlink:href="#SVGID_53_"  overflow="visible"/>
			</clipPath>
			<polygon clip-path="url(#SVGID_54_)" points="135.863,171.352 135.074,171.352 135.074,167.109 136.354,167.109 137.121,170.002 
				137.875,167.109 139.163,167.109 139.163,171.352 138.37,171.352 138.37,168.018 137.525,171.352 136.707,171.352 
				135.863,168.018 			"/>
		</g>
	</g>
</g>
</svg>
