<?xml version="1.0" encoding="utf-8"?>
<!-- Generator: Adobe Illustrator 14.0.0, SVG Export Plug-In . SVG Version: 6.00 Build 43363)  -->
<!DOCTYPE svg PUBLIC "-//W3C//DTD SVG 1.1//EN" "http://www.w3.org/Graphics/SVG/1.1/DTD/svg11.dtd">
<svg version="1.1" id="Layer_1" xmlns="http://www.w3.org/2000/svg" xmlns:xlink="http://www.w3.org/1999/xlink" x="0px" y="0px"
	 width="200px" height="200px" viewBox="0 0 200 200" enable-background="new 0 0 200 200" xml:space="preserve">
<g id="Background">
	<g>
		<g>
			<path d="M97.969,187.898c-0.038-0.076-0.286-0.459-0.806-0.998c-0.893-0.938-4.461-4.328-13.147-8.773
				c-10.141-5.152-22.765-11.566-31.635-20.801c-10.221-10.34-15.684-25.206-17.182-46.774c-0.102-1.472-0.153-3.14-0.154-4.959
				c0.008-19.899,6.004-54.364,7.367-61.941L28.604,15.845l2.5-0.77C31.916,14.826,51.487,9,100,9
				c48.514,0,68.084,5.826,68.895,6.074l2.502,0.771l-13.809,27.807c1.363,7.571,7.359,42.013,7.367,61.94
				c0,1.825-0.053,3.494-0.153,4.96c-1.521,21.593-6.983,36.457-17.192,46.784c-8.857,9.223-21.483,15.639-31.631,20.793
				c-5.361,2.748-8.721,5.064-10.594,6.523c-1.298,1.011-2.099,1.776-2.541,2.242c-0.525,0.543-0.773,0.926-0.811,0.998L100,192.457
				L97.969,187.898z"/>
			<path fill="#FFFFFF" d="M100,10c48.952,0,68.462,5.988,68.602,6.03l1.375,0.424l-13.432,27.049
				c0.768,4.238,7.402,41.341,7.41,62.089c0,1.751-0.047,3.391-0.15,4.891c-1.256,17.828-5.414,34.525-16.906,46.15
				c-8.483,8.833-20.463,15.063-31.373,20.604c-4.903,2.516-8.414,4.805-10.754,6.628c-1.17,0.909-2.047,1.704-2.65,2.342
				c-0.604,0.626-0.939,1.131-1.001,1.285L100,190l-1.118-2.509c-0.061-0.154-0.396-0.659-1.001-1.285
				c-1.825-1.92-6.049-5.202-13.411-8.97c-10.905-5.541-22.884-11.771-31.369-20.604c-11.492-11.625-15.667-28.319-16.906-46.149
				c-0.104-1.5-0.151-3.14-0.151-4.892c0.008-20.749,6.645-57.853,7.41-62.089L30.023,16.454l1.376-0.424
				C31.538,15.988,51.048,10,100,10 M100,8L100,8c-48.712,0-68.375,5.869-69.188,6.119l-1.377,0.424l-2.25,0.693l1.047,2.108
				L41.37,43.8c-1.471,8.205-7.317,42.073-7.325,61.792c0,1.844,0.053,3.534,0.156,5.028c1.516,21.821,7.07,36.89,17.479,47.42
				c8.968,9.335,21.675,15.792,31.885,20.979c8.54,4.369,12.008,7.66,12.867,8.563c0.364,0.376,0.574,0.661,0.645,0.771l1.096,2.459
				l1.827,4.103l1.827-4.103l1.097-2.459c0.07-0.108,0.28-0.395,0.633-0.759c0.43-0.45,1.192-1.181,2.443-2.153
				c1.838-1.435,5.141-3.709,10.438-6.424c10.207-5.187,22.916-11.645,31.903-20.998c10.366-10.486,15.921-25.556,17.458-47.396
				c0.104-1.494,0.156-3.186,0.156-5.031c-0.007-19.718-5.854-53.587-7.324-61.792l13.137-26.457l1.047-2.107l-2.248-0.693
				l-1.375-0.424C168.372,13.868,148.67,8,100,8L100,8z"/>
		</g>
		<path fill="#FFFFFF" d="M100,12.447c24.377,0,41.381,1.491,52.273,2.977c5.446,0.743,9.365,1.484,11.914,2.038
			c0.953,0.207,1.713,0.387,2.291,0.531l-11.787,23.742c-4.562-1.896-23.153-8.713-54.691-8.712
			c-31.536-0.001-50.13,6.816-54.691,8.712L33.52,17.993C38.734,16.69,58.877,12.447,100,12.447z"/>
		<path fill="#E61C1F" d="M161.361,110.313c-1.213,17.59-5.353,33.654-16.209,44.604l-0.008,0.008l-0.006,0.007
			c-8.074,8.43-19.826,14.604-30.723,20.125c-5.03,2.576-8.661,4.938-11.15,6.877c-1.244,0.972-2.205,1.836-2.918,2.582
			c-0.123,0.131-0.239,0.258-0.348,0.379c-0.109-0.121-0.225-0.248-0.348-0.379c-2.133-2.229-6.524-5.589-14.065-9.457
			c-10.899-5.523-22.652-11.697-30.726-20.127l-0.007-0.007l-0.007-0.008c-10.858-10.949-14.979-27.015-16.21-44.604
			c-0.099-1.429-0.145-3.014-0.145-4.721C38.49,94.825,40.348,79.274,42.21,66.46c0.931-6.41,1.863-12.141,2.561-16.269
			c0.494-2.921,0.87-5.028,1.048-6.015C49.18,42.728,67.628,35.47,100,35.47c18.045,0,31.764,2.255,40.954,4.502
			c4.595,1.124,8.06,2.245,10.364,3.082c1.154,0.418,2.019,0.765,2.589,1.006c0.102,0.042,0.19,0.081,0.272,0.116
			c0.178,0.988,0.555,3.094,1.049,6.015c2.096,12.371,6.282,39.235,6.277,55.401C161.508,107.3,161.461,108.885,161.361,110.313z"/>
		<polyline points="118.702,178.807 117.18,178.807 117.18,178.359 120.906,178.359 120.906,178.807 119.393,178.807 
			119.393,183.008 118.702,183.008 118.702,178.807 		"/>
		<polyline points="123.529,183.008 122.15,179.248 122.15,183.008 121.596,183.008 121.596,178.359 122.428,178.359 
			123.809,182.346 125.188,178.359 126.012,178.359 126.012,183.008 125.322,183.008 125.322,179.248 124.081,183.008 
			123.529,183.008 		"/>
		<path d="M109.426,151.984c0.456-1,0.762-2.086,0.887-3.229l11.593-8.696l-15.177-0.25c-0.529-0.449-1.104-0.848-1.722-1.187
			L100,124.318l-4.996,14.271c-0.628,0.346-1.216,0.755-1.757,1.219l-15.152,0.252l11.594,8.695
			c0.126,1.145,0.431,2.229,0.886,3.229l-4.091,13.599l11.334-7.729c0.683,0.146,1.39,0.224,2.114,0.224h0.001
			c0.766,0,1.51-0.083,2.228-0.238l11.36,7.746L109.426,151.984z"/>
		<path fill="#FFFFFF" d="M101.639,137.463l-1.638-4.68l-1.631,4.66c0.51-0.078,1.032-0.119,1.563-0.119
			C100.514,137.324,101.083,137.373,101.639,137.463z"/>
		<path fill="#FFFFFF" d="M105.307,156.598l3.256,2.221l-1.166-3.87c-0.021,0.022-0.043,0.048-0.065,0.069
			C106.727,155.624,106.045,156.154,105.307,156.598z"/>
		<path fill="#FFFFFF" d="M92.602,154.958l-1.162,3.86l3.239-2.209C93.917,156.15,93.22,155.596,92.602,154.958z"/>
		<path fill="#FFFFFF" d="M113.695,142.723l-4.621-0.076c0.479,0.854,0.839,1.776,1.057,2.75L113.695,142.723z"/>
		<path fill="#FFFFFF" d="M86.303,142.723l3.565,2.674c0.218-0.975,0.575-1.896,1.052-2.75L86.303,142.723z"/>
		<path fill="#FFFFFF" d="M99.932,157.027c-0.33,0-0.656-0.021-0.978-0.055c-0.036-0.367-0.15-1.453-0.264-1.638
			c0,0,0.732-0.428,1.596-1.062c-0.618,0.353-1.294,0.617-1.596,0.617c-0.553,0.224-2.898-0.44-4.279-1.99
			c0,0-0.779,1.041-1.078,1.306c-1.642-1.695-2.662-4.024-2.662-6.616c0-0.072,0.004-0.146,0.006-0.223
			c0.214-0.139,0.756-0.49,0.975-0.666c0,0,0.965,1.771,2.069,2.656c0,0-0.137,1.55,0.553,3.103c0,0-0.415-1.772-0.278-3.321
			c0.829-1.104,1.104-1.104,3.451-2.438c0,0-0.551-1.99-0.551-3.985c0,0,1.379-1.104,2.621-1.769c0,0-1.379,0.662-2.759,1.548
			c0,0-0.965-0.222-2.761,0l-0.275-1.548l-0.137,1.548c0,0-1.657,1.108-2.071,3.983c0,0-0.272,0.219-0.814,0.438
			c0.168-2.248,1.165-4.294,2.695-5.819c1.682-1.682,3.996-2.728,6.538-2.728c0.186,0,0.37,0.007,0.553,0.019v2.116
			c2.345-0.222,4.141,1.549,4.141,1.549s0.689,0.89,0.967,3.32c0,0,0-2.212-0.277-3.101c0.543-0.652,0.955-0.664,1.754-0.664
			c1.412,1.621,2.262,3.716,2.262,5.979C109.326,152.841,105.152,157.027,99.932,157.027z"/>
		<path d="M101.449,153.348c-0.379,0.336-0.783,0.652-1.163,0.93C100.794,153.99,101.264,153.646,101.449,153.348z"/>
		<path d="M107.52,148.698c-0.412-1.331-1.515-1.995-1.928-2.658c0,0-1.795,1.994-3.037,2.437c-0.688,0.442-2.898-0.662-4.279-1.33
			c0.137,0.445,2.208,1.33,3.865,1.994c0,0,0.553,2.213,0,3.765c0.965,0,1.93,0,3.728-0.663c0,0,0.272,0.663,0.416,2.212
			c0,0,0-1.99,0.135-2.435c0.688-0.444,0.967-1.994,1.104-2.879c0,0,1.521-0.664,1.655-1.549
			C108.902,148.256,108.486,148.477,107.52,148.698z"/>
		<path d="M76.789,138.48c0.457-1,0.762-2.084,0.886-3.229l11.593-8.695l-15.177-0.252c-0.53-0.447-1.105-0.848-1.72-1.186
			l-5.007-14.307l-4.995,14.271c-0.629,0.346-1.216,0.756-1.757,1.219l-15.152,0.25l11.594,8.697
			c0.125,1.145,0.431,2.229,0.885,3.229l-4.091,13.6l11.334-7.729c0.683,0.146,1.389,0.224,2.113,0.224h0.001
			c0.766,0,1.51-0.084,2.228-0.238l11.36,7.746L76.789,138.48z"/>
		<path fill="#FFFFFF" d="M69.001,123.96l-1.638-4.681l-1.631,4.662c0.51-0.08,1.032-0.121,1.563-0.121
			C67.876,123.82,68.446,123.87,69.001,123.96z"/>
		<path fill="#FFFFFF" d="M72.668,143.096l3.257,2.221l-1.167-3.873c-0.022,0.022-0.044,0.049-0.067,0.07
			C74.088,142.121,73.408,142.652,72.668,143.096z"/>
		<path fill="#FFFFFF" d="M59.964,141.455l-1.162,3.859l3.239-2.207C61.28,142.646,60.583,142.092,59.964,141.455z"/>
		<path fill="#FFFFFF" d="M81.06,129.219l-4.623-0.076c0.479,0.854,0.838,1.776,1.057,2.752L81.06,129.219z"/>
		<path fill="#FFFFFF" d="M53.667,129.219l3.565,2.674c0.218-0.974,0.575-1.896,1.052-2.75L53.667,129.219z"/>
		<path fill="#FFFFFF" d="M67.294,143.525c-0.33,0-0.656-0.021-0.978-0.056c-0.036-0.368-0.15-1.452-0.264-1.638
			c0,0,0.732-0.428,1.596-1.061c-0.617,0.352-1.294,0.617-1.596,0.617c-0.553,0.221-2.898-0.441-4.279-1.99
			c0,0-0.779,1.041-1.078,1.305c-1.642-1.697-2.662-4.023-2.662-6.616c0-0.073,0.004-0.147,0.006-0.223
			c0.214-0.14,0.756-0.49,0.975-0.666c0,0,0.965,1.772,2.069,2.657c0,0-0.137,1.549,0.553,3.102c0,0-0.415-1.771-0.278-3.322
			c0.829-1.104,1.104-1.104,3.451-2.437c0,0-0.551-1.99-0.551-3.985c0,0,1.38-1.104,2.621-1.771c0,0-1.379,0.664-2.759,1.551
			c0,0-0.965-0.223-2.761,0l-0.275-1.551l-0.137,1.551c0,0-1.657,1.107-2.071,3.982c0,0-0.272,0.219-0.814,0.438
			c0.168-2.248,1.165-4.294,2.695-5.822c1.682-1.679,3.995-2.726,6.537-2.726c0.186,0,0.37,0.007,0.553,0.018V127
			c2.345-0.221,4.141,1.549,4.141,1.549s0.69,0.889,0.967,3.321c0,0,0-2.212-0.277-3.101c0.542-0.652,0.955-0.664,1.753-0.664
			c1.412,1.621,2.26,3.715,2.26,5.979C76.688,139.337,72.516,143.523,67.294,143.525z"/>
		<path d="M68.813,139.843c-0.379,0.339-0.784,0.654-1.163,0.933C68.157,140.486,68.625,140.143,68.813,139.843z"/>
		<path d="M74.882,135.193c-0.413-1.33-1.515-1.993-1.927-2.657c0,0-1.796,1.995-3.039,2.438c-0.69,0.44-2.898-0.664-4.277-1.332
			c0.137,0.445,2.208,1.332,3.863,1.993c0,0,0.553,2.214,0,3.767c0.965,0,1.931,0,3.726-0.664c0,0,0.274,0.664,0.417,2.212
			c0,0,0-1.99,0.135-2.435c0.689-0.445,0.967-1.994,1.103-2.88c0,0,1.522-0.661,1.657-1.548
			C76.265,134.752,75.849,134.975,74.882,135.193z"/>
		<path d="M142.063,138.48c0.457-1,0.764-2.084,0.888-3.229l11.594-8.695l-15.177-0.252c-0.53-0.447-1.104-0.848-1.723-1.186
			l-5.006-14.307l-4.996,14.271c-0.629,0.346-1.217,0.756-1.758,1.219l-15.152,0.25l11.597,8.697
			c0.125,1.145,0.431,2.229,0.885,3.229l-4.091,13.6l11.334-7.729c0.684,0.146,1.391,0.224,2.111,0.224h0.002
			c0.767,0,1.512-0.084,2.229-0.238l11.359,7.746L142.063,138.48z"/>
		<path fill="#FFFFFF" d="M134.275,123.96l-1.64-4.681l-1.632,4.662c0.512-0.08,1.032-0.121,1.563-0.121
			C133.15,123.82,133.721,123.87,134.275,123.96z"/>
		<path fill="#FFFFFF" d="M137.941,143.096l3.258,2.221l-1.165-3.873c-0.022,0.022-0.045,0.049-0.068,0.07
			C139.361,142.121,138.682,142.652,137.941,143.096z"/>
		<path fill="#FFFFFF" d="M125.238,141.455l-1.161,3.859l3.237-2.207C126.555,142.646,125.855,142.092,125.238,141.455z"/>
		<path fill="#FFFFFF" d="M146.334,129.219l-4.623-0.076c0.479,0.854,0.839,1.776,1.057,2.752L146.334,129.219z"/>
		<path fill="#FFFFFF" d="M118.939,129.219l3.564,2.674c0.219-0.974,0.575-1.896,1.053-2.75L118.939,129.219z"/>
		<path fill="#FFFFFF" d="M132.568,143.525c-0.33,0-0.655-0.021-0.979-0.056c-0.035-0.368-0.149-1.452-0.264-1.638
			c0,0,0.731-0.428,1.597-1.061c-0.615,0.352-1.294,0.617-1.597,0.617c-0.554,0.221-2.896-0.441-4.279-1.99
			c0,0-0.776,1.041-1.076,1.305c-1.644-1.697-2.661-4.023-2.661-6.616c0-0.073,0.004-0.147,0.006-0.223
			c0.213-0.14,0.756-0.49,0.975-0.666c0,0,0.965,1.772,2.068,2.657c0,0-0.138,1.549,0.554,3.102c0,0-0.414-1.771-0.277-3.322
			c0.828-1.104,1.104-1.104,3.451-2.437c0,0-0.552-1.99-0.552-3.985c0,0,1.38-1.104,2.621-1.771c0,0-1.381,0.664-2.76,1.551
			c0,0-0.966-0.223-2.763,0l-0.274-1.551l-0.138,1.551c0,0-1.655,1.107-2.069,3.982c0,0-0.271,0.219-0.813,0.438
			c0.167-2.248,1.164-4.294,2.694-5.822c1.683-1.679,3.996-2.726,6.537-2.726c0.187,0,0.369,0.007,0.553,0.018V127
			c2.346-0.221,4.141,1.549,4.141,1.549s0.69,0.889,0.969,3.321c0,0,0-2.212-0.276-3.101c0.542-0.652,0.955-0.664,1.753-0.664
			c1.411,1.621,2.26,3.715,2.26,5.979C141.963,139.337,137.791,143.523,132.568,143.525z"/>
		<path d="M134.087,139.843c-0.38,0.339-0.784,0.654-1.163,0.933C133.432,140.486,133.9,140.143,134.087,139.843z"/>
		<path d="M140.156,135.193c-0.412-1.33-1.516-1.993-1.928-2.657c0,0-1.795,1.995-3.039,2.438c-0.688,0.44-2.896-0.664-4.276-1.332
			c0.137,0.445,2.208,1.332,3.862,1.993c0,0,0.554,2.214,0,3.767c0.967,0,1.932,0,3.728-0.664c0,0,0.272,0.664,0.416,2.212
			c0,0,0-1.99,0.136-2.435c0.689-0.445,0.967-1.994,1.104-2.88c0,0,1.521-0.661,1.656-1.548
			C141.539,134.752,141.123,134.975,140.156,135.193z"/>
		<path d="M46.111,18.088v-0.442l4.831-0.667c4.555-0.442,7.175,0.888,7.453,7.085v6.418c0,3.101-0.967,5.316-6.073,6.865
			l-6.347,1.77v-0.442l1.379-0.443V17.867L46.111,18.088 M51.77,36.904c1.655-0.221,2.069-0.664,2.208-1.552V19.636
			c0.137-1.327,0-1.99-2.208-1.77V36.904z"/>
		<path d="M62.947,33.583c0,0.885-0.829,1.548-1.931,1.548c-1.243,0-2.071-0.664-1.933-1.548c0-0.664,0.829-1.327,1.933-1.327
			C61.982,32.255,62.947,32.919,62.947,33.583"/>
		<path d="M73.298,21.848h-0.553c-1.519-5.533-2.623-6.197-3.863-6.197c-0.69,0-0.828,0.442-0.828,0.885L67.917,31.37
			c0,1.106,0.551,1.548,1.517,1.548c2.071,0,3.589-1.995,3.312-6.197h0.553c0.137,3.981-0.967,6.86-4.417,6.639
			c-4.002,0-5.382-2.879-5.382-6.864v-4.649c0.137-5.533,2.76-6.639,4.968-6.639c1.518,0,2.347,0.442,2.898,1.327l1.518-1.548h0.415
			L73.298,21.848"/>
		<path d="M77.714,30.924c0,0.889-0.689,1.552-1.932,1.552c-1.104,0-1.933-0.664-1.933-1.552c0-0.664,0.967-1.327,2.071-1.327
			C76.886,29.597,77.714,30.261,77.714,30.924"/>
		<path d="M78.68,14.988l7.039-0.442v0.442l-1.243,0.221l-0.139,14.609c0,0.664,0.277,0.885,1.794,1.106
			c1.518,0,3.037-0.884,3.037-3.096V16.094c0-0.885-0.69-1.106-1.794-1.106v-0.442h4.002v0.442c-0.965,0-1.379,0.442-1.379,1.106
			l-0.139,11.513c0,3.097-1.931,3.764-5.106,3.764c-2.76,0-4.829-0.889-4.692-3.1V15.43h-1.38V14.988"/>
		<path d="M92.065,31.149v-0.446c1.243,0,2.069-0.664,2.069-1.77V14.988h-1.379v-0.442h5.796c1.381,3.764,3.176,7.524,4.279,11.288
			v-9.519c0-1.106-0.691-1.327-1.656-1.327v-0.442h4.141v0.442c-0.967,0-1.655,0.442-1.655,1.327l-0.138,14.609h-3.038l-5.52-15.052
			c0,0,0,0-0.137,0v13.282c0,1.106,0.827,1.327,1.794,1.327v0.442L92.065,31.149"/>
		<polyline points="106.42,30.924 106.42,30.482 107.936,30.704 108.073,14.988 106.555,14.988 106.555,14.545 114.008,14.767 
			114.008,15.209 112.488,15.209 112.352,30.924 114.008,30.924 114.008,31.592 106.42,30.924 		"/>
		<path d="M115.665,14.767l12.972,0.664v6.64h-0.556c-1.103-4.649-2.343-6.197-3.726-6.197l-0.138,16.162l1.521,0.221v0.442
			l-7.314-0.885v-0.442l1.52,0.221v-15.94V15.43c-1.383,0-2.619,1.548-3.728,6.197h-0.551V14.767"/>
		<path d="M129.738,33.361v-0.442l1.38,0.221l0.139-17.046l-1.38-0.221V15.43l12.282,1.106l-0.14,5.979h-0.412
			c-1.244-4.428-1.793-5.758-4.004-5.758l-2.069-0.221v7.749c1.796-0.221,2.76-0.885,3.036-3.985h0.412v8.191h-0.412
			c-0.411-2.879-0.967-3.764-3.036-3.985v9.519h1.106c1.795,0,2.618,0.221,3.588-2.212c0.828-1.995,0.967-2.658,1.238-3.542h0.416
			v7.528L129.738,33.361"/>
		<path d="M143.266,36.241v-0.667l1.379,0.446l0.136-18.82h-1.38v-0.664l5.938,0.885c6.209,0.889,6.486,4.874,6.486,6.864
			l-0.143,7.307c-0.414,3.981-2.896,7.082-8.97,5.313L143.266,36.241 M149.061,37.125c1.517,0.221,2.205-0.664,2.205-1.327
			l0.144-15.499c0-1.327-0.688-2.212-2.349-2.212V37.125z"/>
		<path d="M143.398,44.874c-0.689-1.773-1.517-2.437-2.76-2.658c-0.969-0.221-1.656-0.442-4.277,1.548
			c-2.62,1.995-18.077,18.374-21.389,19.483c-1.936,0.442-4.14,0.664-5.66-0.664c-1.791-1.331-2.349-3.764-2.205-5.979
			c-0.144-2.433,1.516-4.649,3.584-5.534c1.936-0.885,4.144-0.664,5.797,0.664c0-2.212,0.688-4.87-0.963-6.639
			c-2.073-1.11-5.106-0.667-7.314,0l-0.277-0.222c0-1.331-1.379-2.215-2.48-2.437c-5.383-1.106-10.351,1.327-15.871,0.442
			c0.69,0.442,1.243,1.106,1.519,1.773c0.415,1.548-0.275,2.875-1.519,3.539c0.966,0.663,1.655,1.552,1.655,2.437
			c-0.275,0.885-0.689,1.77-1.379,2.212l0.553,0.221c1.794,1.552,2.623,3.764,2.208,6.201c-0.414,1.548-1.657,2.654-3.175,3.322
			c-1.655,0.885-3.313,1.77-5.106,0.664c-2.759-1.995-18.077-17.489-20.7-19.483c-2.62-1.991-3.312-1.77-4.277-1.548
			c-1.243,0.221-2.07,0.885-2.759,2.658c-0.69,1.548-4.555,8.634-4.28,33.205c0.278,23.022,8.282,44.054,8.833,45.603l5.659-16.38
			c-0.829-1.993-3.312-11.292-3.589-25.238c-0.276-15.498,1.933-26.123,2.208-27.229c0.139-0.442,0.967-1.327,1.519-0.663
			c8.833,7.745,17.802,17.489,23.184,26.565v34.533l3.175,4.429l-6.624,13.28l5.935-3.097l-4.555,7.304h6.071L100,120.584
			l5.867,16.602h6.07l-4.556-7.304l5.937,3.097l-6.625-13.28l3.176-4.429V80.737l0,0c5.24-9.076,14.352-18.82,23.184-26.565
			c0.551-0.664,1.379,0.221,1.514,0.663c0.279,1.106,2.49,11.731,2.214,27.229c-0.276,13.946-2.761,23.245-3.593,25.238l5.662,16.38
			c0.551-1.549,8.556-22.58,8.832-45.603C147.957,53.508,144.088,46.422,143.398,44.874z"/>
		<path fill="#FFFFFF" d="M106.691,45.538c-1.795,0.664-4.142,0.884-5.936,0.442c-0.275,0.664,0,1.77,0.689,2.433
			c4.004,2.215,6.351-3.097,10.352-2.433c1.24,0,2.485,0.221,2.896,1.548c0.14,0.442,0.14,0.885,0.14,1.327
			c-3.453-0.442-7.037,0.667-8.832,3.764c-1.655,2.879-1.521,7.085,0.551,9.519l1.244,1.552c-1.104-0.442-2.624-0.442-3.591,0.221
			c-0.553,0.664-0.965,1.327-0.965,1.991c-0.276-1.106-1.104-2.433-2.207-3.097c-0.553-0.221-1.657-0.221-2.208,0
			c-1.381,0.664-1.933,1.991-2.347,3.318c-0.139-1.106-0.69-1.991-1.519-2.433s-1.794-0.442-2.623-0.221
			c1.794-1.552,2.623-3.764,2.208-6.201c-0.137-1.77-0.965-3.318-2.208-4.428c0.829-0.885,0.829-2.212,0.553-3.539L92.06,47.97
			c0.69-0.884,0.967-2.211,0.553-3.097c4.691,1.77,8.691-2.658,13.109-0.667C106.143,44.653,106.691,44.874,106.691,45.538"/>
		<path d="M68.191,61.253c-1.794,0.221-1.933,16.826-1.794,22.58c0.276,5.979,0.966,14.834,5.521,27.45L77.3,95.789
			c-0.69-1.77-1.657-8.855-1.794-11.734c-0.277-3.318,0.551-13.062,0.965-15.273C75.505,67.233,69.984,61.032,68.191,61.253"/>
		<path d="M78.679,86.492c0.414,2.654,2.483,11.734,4.553,17.709l4.417-12.619c-1.104-1.991-1.931-8.413-1.241-11.513
			c-0.829-1.548-5.935-7.745-7.039-8.409C78.125,74.757,78.403,84.497,78.679,86.492"/>
		<path d="M131.809,61.253c1.795,0.221,1.935,16.826,1.795,22.58c-0.274,5.979-0.967,14.834-5.521,27.45L122.7,95.789
			c0.69-1.77,1.657-8.855,1.794-11.734c0.277-3.318-0.551-13.062-0.965-15.273C124.494,67.233,130.016,61.032,131.809,61.253"/>
		<path d="M121.32,86.492c-0.413,2.654-2.482,11.734-4.553,17.709l-4.416-12.619c1.104-1.991,1.931-8.413,1.239-11.513
			c0.828-1.548,5.937-7.745,7.038-8.409C121.874,74.757,121.598,84.497,121.32,86.492"/>
	</g>
</g>
<g id="Content">
</g>
</svg>
