<?xml version="1.0" encoding="utf-8"?>
<!-- Generator: Adobe Illustrator 14.0.0, SVG Export Plug-In . SVG Version: 6.00 Build 43363)  -->
<!DOCTYPE svg PUBLIC "-//W3C//DTD SVG 1.1//EN" "http://www.w3.org/Graphics/SVG/1.1/DTD/svg11.dtd">
<svg version="1.1"
	 id="svg2" sodipodi:docname="D.C._United_logo_(2016).svg" inkscape:version="0.48.5 r10040" xmlns:dc="http://purl.org/dc/elements/1.1/" xmlns:cc="http://creativecommons.org/ns#" xmlns:rdf="http://www.w3.org/1999/02/22-rdf-syntax-ns#" xmlns:svg="http://www.w3.org/2000/svg" xmlns:sodipodi="http://sodipodi.sourceforge.net/DTD/sodipodi-0.dtd" xmlns:inkscape="http://www.inkscape.org/namespaces/inkscape"
	 xmlns="http://www.w3.org/2000/svg" xmlns:xlink="http://www.w3.org/1999/xlink" x="0px" y="0px" width="200px" height="200px"
	 viewBox="-700 700 200 200" enable-background="new -700 700 200 200" xml:space="preserve">
<path id="path3033" inkscape:connector-curvature="0" sodipodi:nodetypes="cccccccccccccc" fill="#FFFFFF" d="M-599.736,888.066
	c25.84-14.766,41.396-36.035,51.855-60.469c10.811-6.152,21.182-12.656,20.83-37.881c6.417-8.086,6.856-18.018,5.186-30.938
	c4.922-9.58,5.89-19.775,1.934-31.816c-2.373,10.02-8.701,11.338-15.732,15.117l1.23-25.049c-41.396-7.383-84.552-8.086-130.079,0
	l0.439,25.137c-7.119-3.428-15.996-5.098-16.084-15.557c-3.076,10.371-4.922,19.072,1.582,29.443
	c-2.461,15.205-0.527,26.631,6.768,33.662c-3.076,21.006,5.537,31.465,19.512,37.09
	C-646.143,851.416-627.773,871.367-599.736,888.066z"/>
<path id="path158" inkscape:connector-curvature="0" fill="#EF3E42" d="M-569.326,830.41c6.943-2.285,15.205-5.098,15.205-5.098
	h-91.846c0,0,8.438,2.988,15.469,5.098c6.063,1.846,13.271,4.395,15.468,9.404h29.972
	C-582.598,834.805-575.303,832.344-569.326,830.41 M-618.019,856.514c-1.758,3.164-3.867,5.801-4.834,7.207h46.056
	c-1.055-1.406-3.076-4.131-5.01-7.207c-1.406-2.285-2.637-4.57-3.428-7.207h-29.532C-615.558,851.768-616.7,854.141-618.019,856.514
	 M-576.885,812.832h-5.01l4.043,2.988l-1.582,4.746l4.131-2.9l4.131,2.9l-1.582-4.746l4.043-2.988h-5.01l-1.582-4.834
	L-576.885,812.832z M-601.758,812.832h-5.099l4.132,2.988l-1.583,4.746l4.043-2.9l4.132,2.9l-1.583-4.746l4.132-2.988h-5.099
	l-1.582-4.834L-601.758,812.832z M-625.488,807.998l1.581,4.834h5.01l-4.043,2.988l1.494,4.746l-4.042-2.9l-4.131,2.9l1.582-4.746
	l-4.043-2.988h5.01L-625.488,807.998z"/>
<path id="path162" inkscape:connector-curvature="0" d="M-569.063,719.053c0,0-4.219-0.264-5.977-0.439
	c-2.373-0.088-5.625-0.264-5.625-0.264l-1.318,2.549l4.57,0.176v22.676c0,0,4.219,0.352,4.131,0.352v-22.764l4.219,0.352V719.053
	L-569.063,719.053z M-557.813,742.695l-5.098-0.615v-9.141l2.725,0.264l1.582-2.9l-4.307-0.439v-7.559l4.482,0.439v-2.637
	c0,0-2.813-0.264-4.131-0.439c-1.055-0.088-4.482-0.439-4.482-0.439v25.313c0,0,3.164,0.352,4.395,0.439
	c1.318,0.176,4.922,0.527,4.922,0.527L-557.813,742.695z M-583.564,718.174l-4.131-0.088v25.225l4.131,0.176V718.174z
	 M-592.09,717.91h-4.219l-0.088,9.316l-4.132-9.404h-3.955v25.313h4.131v-17.49l4.131,8.086v9.404l4.132,0.088V717.91
	 M-608.526,717.91l-4.219,0.176v21.27c0,1.494-0.879,1.758-1.758,1.758c-1.055,0-1.67-0.439-1.67-1.582v-21.357l-4.131,0.176v20.918
	c0,2.197,0.879,2.9,1.318,3.252c0.791,0.703,2.549,1.23,4.482,1.143c2.197-0.088,3.428-0.615,4.483-1.406
	c1.055-0.703,1.494-1.934,1.494-3.252L-608.526,717.91 M-632.607,718.965c-0.791,0.088-3.076,0.176-4.57,1.67
	c-1.318,1.406-1.23,3.164-1.23,3.779v16.084c0,1.406,0.615,2.549,1.582,3.34c0.439,0.352,1.406,1.143,4.131,0.879
	c2.285-0.176,3.604-0.879,4.307-1.494c1.23-1.143,1.23-2.549,1.23-3.164v-5.889l-4.131,1.67v4.307c0,1.318-0.439,1.846-1.406,2.021
	c-0.703,0.088-1.582,0-1.582-1.67v-17.402c0-0.967,0.527-1.494,1.406-1.67c0.879-0.088,1.582,0.352,1.582,1.494v5.01l4.131-1.758
	v-2.461c0-1.318-0.176-2.373-0.615-3.076C-628.652,719.229-630.938,718.877-632.607,718.965 M-624.083,744.014
	c0.439,0,0.703-0.176,1.055-0.527c0.264-0.352,0.352-0.703,0.352-1.143c-0.088-0.352-0.264-0.703-0.527-1.055
	c-0.352-0.264-0.703-0.352-1.055-0.352c-0.439,0-0.79,0.176-1.054,0.527s-0.352,0.703-0.352,1.143s0.176,0.791,0.527,1.055
	S-624.435,744.102-624.083,744.014 M-641.836,745.508c0.352,0,0.703-0.176,0.967-0.527s0.439-0.703,0.439-1.055
	c-0.088-0.439-0.264-0.791-0.527-1.055c-0.352-0.352-0.703-0.439-1.143-0.439c-0.352,0.088-0.703,0.264-0.967,0.527
	c-0.264,0.352-0.439,0.703-0.352,1.143c0,0.439,0.176,0.791,0.527,1.055C-642.627,745.42-642.275,745.596-641.836,745.508
	 M-547.793,743.135c0,0.527-0.176,0.703-0.264,0.879c-0.264,0.176-0.615,0.088-1.055,0.088l-1.934-0.264v-20.303l2.021,0.352
	c0.703,0,0.879,0.176,1.055,0.527c0.088,0.264,0.176,0.615,0.176,1.406V743.135z M-543.662,727.842c0-0.615,0.088-2.637-0.176-3.516
	c-0.439-1.143-0.967-1.582-1.67-2.021c-0.791-0.527-2.109-0.703-3.867-1.055c-1.758-0.264-5.889-0.703-5.889-0.703v25.313
	c0,0,2.549,0.352,3.428,0.439c0.879,0.176,4.043,0.615,4.746,0.615c1.406,0,1.758-0.264,2.109-0.527
	c0.879-0.527,1.318-1.582,1.318-2.988V727.842L-543.662,727.842z M-649.219,743.486c-0.264,0.264-0.703,0.352-1.055,0.439
	l-1.934,0.264l-0.088-20.479l2.197-0.264c0.439-0.088,0.703,0,0.879,0.264c0.264,0.176,0.264,0.615,0.264,1.406v17.314
	C-648.955,742.871-648.955,743.223-649.219,743.486 M-644.736,726.084c0-0.791-0.088-2.461-0.615-3.34
	c-0.439-0.791-1.055-1.318-1.67-1.582s-1.582-0.352-3.428-0.088s-6.064,0.879-6.064,0.879l0.088,25.137c0,0,2.461-0.352,3.428-0.439
	s3.955-0.527,4.57-0.615c1.406-0.352,1.934-0.791,2.373-1.23c0.879-0.703,1.318-1.934,1.318-3.34V726.084L-644.736,726.084z
	 M-600.176,882.617c6.943-3.604,17.754-13.799,23.379-18.896h-46.144C-617.491,869.873-606.416,879.365-600.176,882.617
	 M-615.03,839.814c0.615,1.055,0.879,2.549,0.967,4.131c0.176,2.109-0.439,4.658-0.703,5.361h29.532
	c-0.264-0.703-0.967-3.252-0.791-5.361c0.088-1.582,0.352-3.076,0.967-4.131H-615.03z M-583.213,843.682
	c-0.527,5.977,7.471,14.854,9.492,16.787c4.57-4.746,8.789-10.371,11.953-15.205c2.813-4.482,6.416-11.162,8.262-15.996
	c-5.625,2.197-10.635,3.779-15.469,5.273C-574.863,836.387-582.773,838.848-583.213,843.682 M-631.025,834.629
	c-4.57-1.406-9.756-3.164-15.469-5.361c1.934,4.922,5.537,11.602,8.35,15.996c3.164,4.922,7.383,10.635,11.953,15.381
	c2.284-2.373,9.491-10.898,9.491-16.963C-616.7,839.023-625.049,836.475-631.025,834.629 M-572.754,815.82l4.043-2.988h-5.01
	l-1.582-4.834l-1.582,4.834h-5.01l4.043,2.988l-1.582,4.834l4.131-2.988l4.131,2.988L-572.754,815.82z M-593.232,796.836
	c-0.352-0.352-2.373-2.988-2.461-6.24c-0.176-5.537,3.604-8.789,8.613-8.789c3.604,0,4.746,2.109,4.746,2.109
	c0.352-0.439,0.967-2.021,0.791-3.428c-0.439-2.285-2.373-3.252-5.449-3.252c-3.252-0.088-5.273,0.879-5.273,0.879l-0.44,0.176
	c0,0,0.616-2.9-1.494-4.658c-1.67-1.23-4.482-0.879-6.943-0.439c-3.076,0.527-7.734,0.527-10.195-0.703c0,0,1.318,1.934,1.055,4.395
	c-0.264,1.846-1.67,3.164-2.373,3.691c1.318,0.967,3.691,2.637,3.691,7.471c0,3.955-2.637,7.734-3.779,8.613
	c2.373-0.439,4.922-0.527,6.592,0.088c3.867,1.406,4.482,4.131,5.01,5.537l0.352-0.176c-0.352-1.846-0.438-5.098,1.406-6.152
	c1.494-0.791,4.307,0.176,6.064,1.055C-593.32,797.012-593.32,796.748-593.232,796.836 M-597.715,815.82l4.131-2.988h-5.098
	l-1.583-4.834l-1.494,4.834h-5.098l4.131,2.988l-1.582,4.834l4.043-2.988l4.131,2.988L-597.715,815.82z M-622.94,815.82l4.043-2.988
	h-5.01l-1.581-4.834l-1.582,4.834h-5.098l4.131,2.988l-1.582,4.834l4.131-2.988l4.042,2.988L-622.94,815.82z M-526.347,761.328
	c1.669,6.064,0.879,12.041-0.176,15.732c-3.252,11.25-12.745,15.469-20.04,19.512c-3.428,1.934-6.152,3.691-8.086,5.361
	c-6.68,5.889-5.449,10.107-5.449,10.107c2.373-4.834,9.668-7.998,16.084-11.25c8.701-4.395,11.514-8.35,11.514-8.35
	c1.318,7.559-1.055,14.59-4.043,19.512c-6.592,10.547-17.139,13.184-17.49,13.359h-91.934c-0.352-0.176-10.898-2.813-17.49-13.359
	c-2.988-4.922-5.362-11.953-4.043-19.512c0,0,2.813,3.955,11.514,8.35c6.416,3.252,13.711,6.416,16.084,11.25
	c0,0,1.23-4.219-5.449-10.107c-1.934-1.67-4.658-3.428-8.086-5.361c-7.295-4.043-16.788-8.262-20.04-19.512
	c-1.055-3.691-1.846-9.668-0.176-15.732c0,0,1.495,5.273,12.833,10.898c8.174,4.043,13.711,7.91,16.172,13.535
	c0,0,1.934-6.943-5.537-12.568c-2.197-1.67-3.955-2.725-8.701-5.361c-3.164-1.758-10.283-5.361-15.382-12.744
	c-3.252-4.658-5.273-10.283-4.307-16.26c0,0,1.055,2.285,4.922,4.658c4.747,2.9,9.845,4.395,17.052,6.328
	c6.768,1.846,18.369,4.131,25.313,7.998c3.076,1.67,5.098,4.219,5.098,6.943c0.088,7.383-6.504,14.326-6.504,23.906
	c0,5.977,3.076,9.932,9.843,9.932c3.076,0,5.537-1.143,7.383-2.813c2.198-2.021,3.428-4.834,3.428-7.295
	c0-6.152-4.307-7.471-5.361-7.998c2.373-0.879,3.955-2.461,4.219-4.746c0.176-1.846-0.176-3.164-0.527-3.955
	c-0.703-1.318-1.406-2.197-1.406-2.197s2.11,0.703,4.922,1.055c7.208,0.703,9.757-0.439,13.36-0.439c3.428,0,6.68,1.67,6.504,5.098
	c0,0,1.67-0.527,4.043-0.527c5.273,0,7.207,3.164,7.207,6.064c0,4.219-2.813,6.24-3.516,6.504c-0.439-1.934-2.725-2.9-4.57-2.9
	c-2.461,0-5.625,1.582-5.625,5.713c0,2.813,1.582,4.834,2.549,5.713c1.406,1.23,4.395,2.725,10.283,2.725
	c7.998,0,12.656-3.955,12.656-9.932c0-9.58-6.68-16.523-6.504-23.906c0.088-2.725,1.934-5.186,5.186-6.943
	c6.855-3.867,18.457-6.152,25.225-7.998c7.207-1.934,12.305-3.428,17.051-6.328c3.867-2.373,4.922-4.658,4.922-4.658
	c0.967,5.977-1.143,11.602-4.307,16.26c-5.098,7.383-12.217,10.986-15.381,12.744c-4.746,2.637-6.504,3.691-8.701,5.361
	c-7.471,5.625-5.537,12.568-5.537,12.568c2.461-5.625,7.998-9.492,16.172-13.535C-527.842,766.602-526.347,761.328-526.347,761.328
	 M-519.843,731.445c-1.055,2.813-3.516,5.537-5.978,7.646c-2.9,2.549-7.91,4.834-10.986,5.273V717.91
	c-3.867-0.791-26.279-5.537-63.194-5.537c-37.001,0-59.326,4.746-63.193,5.537v26.455c-2.988-0.439-8.086-2.725-10.986-5.273
	c-2.461-2.109-4.922-4.834-5.977-7.646c-1.494,3.516-2.109,7.998-1.934,11.777c0.176,6.768,2.461,10.635,5.537,15.117
	c0,0-2.197,4.834-1.758,14.326c0.439,7.998,5.098,14.502,7.207,17.402c-2.461,14.15,4.131,23.73,8.086,28.389
	c4.923,5.625,11.515,8.525,11.515,8.525c2.197,5.625,7.559,17.842,14.941,27.334c8.965,11.602,21.884,25.137,36.386,32.695
	c14.591-7.559,27.774-21.094,36.739-32.695c7.383-9.492,12.744-21.709,14.941-27.334c0,0,6.592-2.9,11.514-8.525
	c3.955-4.658,10.547-14.238,8.086-28.389c2.109-2.9,6.768-9.404,7.208-17.402c0.439-9.492-1.758-14.326-1.758-14.326
	c3.076-4.482,5.361-8.35,5.625-15.117C-517.733,739.443-518.349,734.961-519.843,731.445 M-515.272,743.838
	c-0.176,6.416-2.637,11.514-5.273,14.941c0,0,1.494,5.01,1.494,11.426c0,11.953-5.625,18.281-7.031,20.479
	c1.23,7.91-0.264,15.469-3.34,21.445c-3.691,7.295-8.79,12.393-16.788,16.436c0,0-6.152,15.117-14.063,25.928
	c-16.875,23.291-36.387,34.365-39.814,35.508c-3.691-1.143-22.677-12.129-39.639-35.508c-7.91-10.811-14.063-25.928-14.063-25.928
	c-7.998-4.043-13.008-9.141-16.787-16.436c-3.077-5.977-4.57-13.535-3.341-21.445c-1.406-2.197-7.031-8.525-7.031-20.479
	c0-6.416,1.494-11.426,1.494-11.426c-2.637-3.428-5.098-8.525-5.273-14.941c-0.088-4.043,0.264-9.932,3.604-16.348
	c0.353-0.791,0.968-1.582,1.319-2.109c0,0,0.791,3.076,2.285,5.801c0.967,1.67,2.021,3.252,4.307,5.361
	c2.813,2.549,5.801,3.867,7.646,4.482l-0.088-24.961c11.426-2.461,34.541-6.064,65.566-6.064s53.877,3.604,65.743,6.064
	l-0.089,24.961c1.847-0.615,4.835-1.934,7.647-4.482c2.285-2.109,3.34-3.691,4.307-5.361c1.494-2.725,2.285-5.801,2.285-5.801
	c0.352,0.527,0.967,1.318,1.318,2.109C-515.536,733.906-515.185,739.795-515.272,743.838 M-572.051,793.145
	c0.791-0.879,1.406-2.637,1.406-4.482c0-3.076-1.143-7.119-3.34-12.217c-1.318-3.076-3.516-8.086-3.164-12.656
	c0.176-3.252,2.549-6.152,6.064-8.086c5.889-3.164,13.975-5.01,13.975-5.01c-12.744-1.318-27.598-2.285-43.067-2.285
	c-15.469,0-30.233,0.967-42.978,2.285c0,0,7.998,1.846,13.975,5.01c3.516,1.934,5.976,4.834,6.151,8.086
	c0.352,4.57-1.933,9.58-3.251,12.656c-2.197,5.098-3.252,9.141-3.252,12.217c0,1.846,0.527,3.516,1.23,4.57
	c0.967,1.318,2.461,2.637,5.624,2.637c5.449,0,7.559-4.834,7.559-7.734s-1.494-4.219-2.549-5.098
	c-1.494-1.318-3.516-2.197-4.57-2.549c0,0,6.24-1.934,6.24-5.625c0-2.9-1.846-6.328-4.131-8.789l0.088-0.176
	c0.704,0.352,2.989,1.23,5.011,1.582c2.109,0.352,5.273,0.703,8.789,0.703c4.746,0,6.943-0.527,10.459-0.527
	c3.779,0,7.031,1.758,7.822,5.098c0,0,2.021-0.352,3.955-0.088c4.395,0.439,7.383,3.516,7.471,7.559
	c0.088,7.91-6.68,10.459-7.998,10.635c0,0,0.352-0.615,0.176-1.582s-1.055-2.285-2.461-2.285c-2.109,0-3.076,1.758-2.988,3.428
	c0.088,3.691,4.219,5.273,8.438,5.537c0.615,0,1.055,0,1.67,0C-575.83,795.869-573.457,794.902-572.051,793.145 M-592.793,778.291
	c-0.527-0.264-1.055-0.527-1.758-0.791c-0.791-0.176-1.758-0.352-4.043-0.352c-1.406,0.088-3.252,0-3.252,0s1.582,2.109,2.285,2.637
	c1.143,0.879,2.988,0.176,4.57-0.527C-594.287,778.906-592.793,778.291-592.793,778.291 M-557.725,861.084l0.615,2.725h0.703
	l0.703-2.725v2.725h0.615v-3.428h-1.055l-0.615,2.373l-0.615-2.373h-1.055v3.428h0.703V861.084L-557.725,861.084z M-559.834,863.809
	h-0.703v-2.9h-1.055v-0.527h2.725v0.527h-0.967V863.809z"/>
</svg>
