<?xml version="1.0" encoding="utf-8"?>
<!-- Generator: Adobe Illustrator 14.0.0, SVG Export Plug-In . SVG Version: 6.00 Build 43363)  -->
<!DOCTYPE svg PUBLIC "-//W3C//DTD SVG 1.1//EN" "http://www.w3.org/Graphics/SVG/1.1/DTD/svg11.dtd">
<svg version="1.1" id="Layer_1" xmlns="http://www.w3.org/2000/svg" xmlns:xlink="http://www.w3.org/1999/xlink" x="0px" y="0px"
	 width="200px" height="200px" viewBox="0 0 200 200" enable-background="new 0 0 200 200" xml:space="preserve">
<g id="Background">
	<g>
		<g>
			<path fill="#BC123C" d="M99.586,190.91c-28.395-12.895-51.535-32.973-66.919-58.061C14.208,102.745,6.588,65.704,10.019,22.755
				l0.048-0.611l0.567-0.234C10.948,21.781,42.654,9,100,9c57.346,0,89.057,12.781,89.369,12.91l0.566,0.234l0.049,0.611
				c3.423,42.951-4.2,79.992-22.656,110.095c-15.383,25.09-38.521,45.166-66.915,58.061L100,191.1L99.586,190.91z"/>
			<path fill="#FFFFFF" d="M100,10c57.813,0,88.988,12.835,88.988,12.835C196.35,115.204,151.257,166.723,100,190
				C48.744,166.723,3.638,115.204,11.015,22.835C11.015,22.835,42.189,10,100,10 M100,8c-30.038,0-52.791,3.514-66.589,6.461
				c-15.024,3.209-22.832,6.39-23.157,6.524l-1.135,0.467l-0.098,1.223c-3.447,43.165,4.222,80.408,22.793,110.696
				c15.488,25.26,38.78,45.471,67.358,58.449l0.827,0.375l0.827-0.375c28.574-12.979,51.865-33.188,67.354-58.449
				c18.569-30.286,26.24-67.53,22.801-110.696l-0.097-1.223l-1.136-0.467c-0.324-0.134-8.134-3.314-23.158-6.524
				C152.792,11.514,130.038,8,100,8L100,8z"/>
		</g>
		<path fill="#FFFFFF" d="M100,12.102c50.51,0,80.795,9.973,86.984,12.224c0.457,6.119,0.693,12.119,0.693,17.986
			c0,34.139-7.705,63.981-22.994,88.917c-14.899,24.302-37.259,43.795-64.685,56.444c-27.429-12.651-49.788-32.146-64.688-56.444
			c-15.285-24.929-22.99-54.76-22.99-88.885c0-5.878,0.238-11.889,0.696-18.019C19.207,22.074,49.491,12.102,100,12.102z"/>
		<path fill="#1D3363" d="M137.217,116.675c0,0-1.836,0.274-2.824,2.949l-5.334-0.091c0,0-1.901-2.658-5.564-2.684
			c0,0-3.424,1.885-3.124,4.576c0,0,0.872-1.486,2.925-1.504c1.354,0.499,1.96,1.994,1.96,1.994s-0.747,3.281-4.769,4.577
			c0,0-4.853-2.8-8.572-2.966c-3.723-0.174-8.923,4.47-13.808,0.349c-4.885-4.128-4.419-10.491-2.368-14.795
			c0,0-11.564,8.083-2.035,19.142c0,0-15.95,10.633-22.862,34.844c8.764,6.496,18.5,12.328,29.159,17.762
			c8.93-4.553,17.213-9.37,24.814-14.637c-9.629-6.779-15.436-18.825-7.386-34.571l2.151,1.005l10.145-0.789l1.594-2.566
			l3.715-0.225c0,0,3.472-3.639,3.938-6.306C138.97,122.739,135.456,120.438,137.217,116.675z"/>
		<path fill="#1D3363" d="M183.975,27.18c0,0-31.464-12.079-83.975-12.079S16.029,27.18,16.029,27.18
			c-0.499,18.94,0.598,35.622,3.215,50.426c23.319-7.809,28.876,10.899,47.817,11.597l21.093,0.199
			c3.514-3.564,8.573-5.417,8.573-5.417l18.052,0.133c3.755,1.877,7.56,4.769,7.56,4.769s5.716,0.075,12.437-0.474
			c13.067-1.055,18.234-14.854,45.928-10.525C183.359,63.009,184.473,46.237,183.975,27.18z"/>
		<path fill="#FFFFFF" d="M28.415,66.282l5.832-1.13V49.277l5.118-0.98v-5.624l-5.118,0.997v-7.203l5.118-1.063
			c0-1.96,0-3.83,0-5.782l-10.949,2.509L28.415,66.282L28.415,66.282z"/>
		<path fill="#FFFFFF" d="M50.188,27.611c-6.181,1.005-6.604,2.019-6.654,7.992v21.766c0.05,5.599,0.457,6.222,6.654,5.607
			c6.264-0.764,7.161-1.42,7.211-6.995v-6.846l-5.832,0.54v6.638c0,0.922-0.582,1.213-1.088,1.304
			c-0.474,0.017-1.105-0.058-1.105-1.146V34.938c0-0.864,0.482-1.288,1.021-1.354c0.615-0.091,1.172,0.274,1.172,1.122v4.253
			l5.832-0.606V33.95C57.35,27.703,56.469,26.806,50.188,27.611z"/>
		<path fill="#FFFFFF" d="M81.64,24.679l-7.992,0.582v35.58l8.174-0.473c5.084-0.291,5.898-1.014,5.98-5.981V32.072
			C87.705,25.261,86.724,24.48,81.64,24.679z M81.973,54.087c-0.017,0.798-0.108,1.088-0.889,1.138l-1.603,0.142V31.333l1.603-0.142
			c0.548-0.008,0.864,0.258,0.889,1.529V54.087z"/>
		<path fill="#FFFFFF" d="M95.281,24.28l-3.497,35.871l5.391-0.066l0.449-6.247l3.19-0.042l0.498,6.172l5.392,0.05l-3.529-35.854
			L95.281,24.28z M97.914,48.388l1.33-14.089l1.279,14.056L97.914,48.388z"/>
		<polygon fill="#FFFFFF" points="116.872,24.613 111.032,24.363 111.032,60.126 120.909,60.451 120.909,55.284 116.872,55.159 		
			"/>
		<polygon fill="#FFFFFF" points="131.036,55.882 131.036,25.643 125.195,25.145 125.195,60.725 134.957,61.497 134.948,56.255 		
			"/>
		<path fill="#FFFFFF" d="M142.316,26.963l-3.498,34.825l5.394,0.507l0.438-6.38l3.158,0.282l0.439,6.504l5.393,0.598l-3.531-35.331
			L142.316,26.963z M144.95,50.457l1.288-13.574l1.271,13.798L144.95,50.457z"/>
		<path fill="#FFFFFF" d="M171.58,41.734v-3.439c-0.05-5.69-1.03-7.045-7.244-8.266c-6.243-1.046-6.6-0.224-6.658,5.774v4.81
			c0.051,2.99,0.606,4.668,2.521,6.363l4.22,3.381c0.813,0.714,1.313,1.52,1.329,2.6v5.574c0,0.839-0.682,0.955-1.18,0.922
			c-0.481-0.1-1.063-0.515-1.063-1.296l0.017-4.984l-5.845-0.706v5.067c0.06,5.599,0.706,6.438,6.892,7.385
			c6.281,0.814,6.962,0.515,7.012-5.217v-7.12c-0.05-2.301-0.766-4.212-2.559-5.773l-4.438-3.581
			c-0.73-0.665-1.046-1.246-1.063-2.451v-4.021c0-0.839,0.564-1.046,1.047-0.997c0.498,0.116,1.18,0.797,1.18,1.686v3.431
			L171.58,41.734z"/>
		<polygon fill="#FFFFFF" points="110.408,151.703 101.213,151.703 100.739,143.777 95.231,151.703 86.076,151.703 92.099,156.97 
			87.397,165.178 96.178,160.094 102.143,165.095 101.553,156.902 		"/>
		<path fill="#BC123C" d="M140.35,99.213l-9.488,2.126c-1.645,1.131-4.478,3.563-2.881,5.575l9.236,9.761
			c-1.761,3.765,1.753,6.064,1.753,6.064c-0.466,2.667-3.938,6.306-3.938,6.306l-3.714,0.225l-1.596,2.566l-10.144,0.789
			l-2.151-1.005c-8.05,15.746-2.242,27.792,7.385,34.571c29.275-20.287,48.512-46.967,55.889-88.305
			C153.682,79.4,153.457,96.081,140.35,99.213z"/>
		<path fill="#BC123C" d="M63.397,101.713c-21.973-2.774-22.954-23.767-44.154-24.107c3.821,21.624,10.883,39.244,20.918,54.039
			c11.805-14.388,24.473-23.899,32.158-28.926C69.096,102.387,65.972,102.046,63.397,101.713z"/>
		<path fill="#BC123C" d="M120.311,91.803c-1.942-2.982-6.694-3.397-5.896-5.691c-2.178,1.097-1.878,3.032-0.516,4.253
			c1.688,1.521-1.279,2.767-1.885,0.989c-0.748,0.864-0.748,2.285,0.887,3.688c1.629,1.412,5.201,1.437,6.572,5.375
			C119.266,97.701,122.777,95.599,120.311,91.803z"/>
		<path fill="#1D3363" d="M138.629,93.231c-5.018,0.49-11.846,0.822-11.846,0.822c1.195,1.429,1.645,3.057,1.645,3.057
			s-5.441,4.27-0.447,9.803c-1.597-2.011,1.236-4.444,2.881-5.575l9.488-2.126c13.107-3.132,13.332-19.813,40.353-21.325
			C151.896,76.542,150.832,92.027,138.629,93.231z"/>
		<path fill="#1D3363" d="M93.777,91.562c1.205,3.531-0.972,4.686-0.972,4.686l-26.135-1.38
			c-23.884-2.201-23.136-20.959-47.427-17.262c21.2,0.34,22.181,21.333,44.154,24.107c2.575,0.333,5.699,0.674,8.922,1.006
			c1.96,0.199,3.962,0.398,5.898,0.59c-4.885,3.672-6.621,8.881-6.621,8.881c15.252-2.94,20.86-7.426,22.604-9.287
			C99.335,97.9,95.065,91.96,93.777,91.562z"/>
		<path fill="#1D3363" d="M106.43,98.415c0,0-3.224,1.794-5.199,5.606c0,0,9.512-0.813,16.639,3.051
			C114.662,101.04,111.563,99.786,106.43,98.415z"/>
		<polygon fill="#1D3363" points="152.141,157.285 153.818,157.285 153.818,162.369 154.434,162.369 154.434,157.285 
			156.211,157.285 156.211,156.671 152.141,156.671 		"/>
		<polygon fill="#1D3363" points="160.926,156.671 159.46,161.307 157.997,156.671 157.018,156.671 157.018,162.369 
			157.632,162.369 157.632,157.535 159.16,162.369 159.764,162.369 161.291,157.535 161.291,162.369 161.906,162.369 
			161.906,156.671 		"/>
		<path fill="#BFC1C3" d="M94.683,70.312h-4.909c-2.667,0-4.021,0.232-4.021,2.052v0.648c0,1.33,0.589,2.06,3.913,2.06h3.215
			c1.354,0,2.002-0.191,2.567-0.564v0.88c0,0.582-0.499,0.889-1.688,0.889H85.67v1.595h8.108c3.688,0,4.926-0.656,4.926-2.899
			v-2.068C98.704,70.984,97.375,70.312,94.683,70.312z M93.678,73.543h-3.007c-1.387,0-1.745-0.191-1.745-0.814
			c0-0.632,0.374-0.822,1.687-0.822h3.14c1.321,0,1.695,0.19,1.695,0.822C95.448,73.352,95.091,73.543,93.678,73.543z"/>
		<path fill="#BFC1C3" d="M110.418,73.111h-3.216c-1.354,0-2.001,0.191-2.566,0.557v-0.872c0-0.582,0.499-0.889,1.679-0.889h7.718
			v-1.595h-7.733c-3.681,0-4.927,0.656-4.927,2.899v2.06c0,1.927,1.346,2.6,4.028,2.6h4.901c2.675,0,4.028-0.241,4.028-2.06v-0.64
			C114.33,73.833,113.741,73.111,110.418,73.111z M109.462,76.276h-3.131c-1.321,0-1.695-0.199-1.695-0.831
			c0-0.623,0.366-0.806,1.753-0.806h3.017c1.396,0,1.753,0.183,1.753,0.806C111.157,76.077,110.783,76.276,109.462,76.276z"/>
	</g>
</g>
<g id="Content">
</g>
</svg>
