<?xml version="1.0" encoding="utf-8"?>
<!-- Generator: Adobe Illustrator 14.0.0, SVG Export Plug-In . SVG Version: 6.00 Build 43363)  -->
<!DOCTYPE svg PUBLIC "-//W3C//DTD SVG 1.1//EN" "http://www.w3.org/Graphics/SVG/1.1/DTD/svg11.dtd">
<svg version="1.1" id="Layer_1" xmlns="http://www.w3.org/2000/svg" xmlns:xlink="http://www.w3.org/1999/xlink" x="0px" y="0px"
	 width="200px" height="200px" viewBox="0 0 200 200" enable-background="new 0 0 200 200" xml:space="preserve">
<g id="Content">
	<g>
		<g>
			<path d="M53.223,179.883c-0.938,0-1.91-0.191-2.89-0.568c-2.907-1.121-3.943-3.979-3.943-6.275c0-0.698,0.092-1.363,0.266-1.922
				c2.972-9.549,5.88-16.758,9.88-24.442l-0.261,0.002l-7.417-0.104l1.359-2.595c0.579-1.104,5.409-10.308,8.656-16.237
				c-1.222-0.38-2.165-0.956-2.952-1.507c-0.761-0.527-1.419-1.157-1.969-1.881c-0.398,0.354-0.824,0.685-1.273,0.988
				c-2.014,1.368-5.659,2.998-11.591,2.998H9.867l18.811-32.521h8.23c3.045-7.652,10.337-13.378,18.36-14.344
				c0.851-0.103,2.146-0.239,3.56-0.239c0.944,0,1.827,0.063,2.634,0.186c1.845-2.682,5.4-6.236,12.133-8.984
				c4.106-1.707,7.533-2.868,10.848-3.991l2.578-0.848c1.198-0.386,2.186-0.705,3.134-1.077l-11.96,0.157l13.569-17.038
				l-9.346-0.264l14.776-13.143l-10.667-2.515l18.681-7.149l-1.379-1.29l1.47-1.313c0.393-0.35,3.947-3.434,7.93-3.783
				c0.545-0.048,1.076-0.072,1.578-0.072c2.326,0,4.188,0.503,5.674,1.535l10.242-1.172l2.498,1.723l7.596-0.898
				c0.42-0.047,0.834-0.071,1.236-0.071c1.998,0,3.827,0.574,5.438,1.707c0.548,0.384,1.036,0.864,1.446,1.414
				c1.539-1.079,2.977-1.477,3.982-1.686c0.406-0.084,0.846-0.125,1.339-0.125c0.298,0,0.582,0.014,0.854,0.028
				c0.221,0.011,0.43,0.022,0.625,0.022c0.244,0,0.417-0.02,0.514-0.059l0.73-0.327c0.916-0.427,2.074-0.968,3.773-0.968
				c0.941,0,1.791,0.259,2.535,0.771c1.035-0.474,2.538-0.976,4.491-1.156c0.403-0.038,0.796-0.055,1.176-0.055
				c2.792,0,4.892,0.93,6.226,1.63c1.104,0.577,2.049,1.585,2.646,2.324c4.278,0.049,8.048,2.804,9.752,5.365
				c1.351,2.028,1.604,4.048,0.728,5.688c-0.918,1.711-2.338,2.542-4.338,2.542c-0.205,0-0.406-0.008-0.606-0.021
				c-0.829-0.054-1.571-0.257-2.226-0.436c-0.695-0.19-1.291-0.353-1.939-0.353c-0.246,0-0.486,0.023-0.734,0.071
				c-0.361,0.069-1.154,0.631-1.68,1.002c-0.456,0.322-0.883,0.623-1.311,0.855c-1.051,0.571-2.561,1.258-4.05,1.468
				c-0.776,1.053-2.069,2.06-3.429,2.647c-1.15,0.497-2.622,0.771-4.143,0.771c-1.092,0-2.657-0.142-4.207-0.771
				c-0.787,0.537-1.979,1.037-3.695,1.037c-4.313,0-6.689-1.46-7.871-2.565l-8.971,1.573l-1.199,0.203
				c-1.348,1.413-2.807,2.431-4.485,3.135c0.048,0.487,0.114,1.074,0.214,1.62l0.709,3.656c1.131,0.893,3.75,3.178,5.58,6.453
				c0.66,1.185,1.161,2.418,1.495,3.682c6.259-4.001,16.673-9.961,17.144-10.23l3.24-1.851l-0.478,3.101
				c5.708-3.732,13.074-8.183,13.42-8.392c0.808-0.442,1.813-0.683,2.801-0.683c1.177,0,2.913,0.336,4.515,1.937
				c1.194,1.196,1.791,2.562,1.771,4.06c-0.038,2.601-2.026,4.491-2.11,4.57l-1.354,1.267c-3.432,3.213-7.7,7.211-14.051,12.693
				c-10.207,8.674-22.004,17.707-22.118,17.794l-3.296,2.52l0.396-3.96c-5.354,4.521-13.088,11.497-13.453,11.828l-0.971,0.876
				h45.137l-10.987,19.053h-2.324l-6.483,11.381c0,0-63.513-0.016-69.839-0.016l-0.977,1.32l8.07,0.594l-2.204,2.683
				c-0.086,0.104-8.751,10.681-16.01,21.424c-4.376,6.613-8.367,13.75-12.193,21.812C57.973,178.454,55.734,179.883,53.223,179.883z
				 M115.16,97.892c3.854,0,5.498,0.437,7.352,1.298c0.49,0.228,0.952,0.508,1.381,0.839l1.203-2.125h0.098
				c0,0-0.639-3.702-0.967-5.608c-4.307,2.199-8.414,3.437-13.144,3.978c-1.646,0.188-3.421,0.287-5.135,0.287
				c-1.269,0-2.479-0.053-3.595-0.157l-0.884-0.037c-1.512,0.019-2.79,0.492-3.542,1.332c-0.045,0.05-0.096,0.114-0.146,0.188
				L115.16,97.892z"/>
			<path fill="#FFFFFF" d="M114.805,21.113c2.287,0,4.06,0.529,5.396,1.574c0.561-0.064,10.26-1.174,10.26-1.174
				s2.098,1.447,2.501,1.725c0.558-0.066,7.97-0.942,7.97-0.942c0.379-0.043,0.752-0.064,1.119-0.064
				c1.789,0,3.422,0.511,4.863,1.525c0.757,0.532,1.352,1.25,1.762,2.07c1.641-1.431,3.211-1.925,4.447-2.18
				c0.389-0.08,0.77-0.104,1.134-0.104c0.278,0,0.548,0.014,0.804,0.027c0.238,0.013,0.465,0.024,0.679,0.024
				c0.336,0,0.636-0.03,0.89-0.133l0.764-0.34c0.885-0.413,1.891-0.881,3.365-0.881c1.165,0,1.934,0.505,2.407,0.949
				c0.813-0.436,2.414-1.126,4.711-1.338c0.373-0.035,0.733-0.05,1.084-0.05c2.544,0,4.478,0.843,5.763,1.516
				c1.161,0.609,2.163,1.826,2.625,2.445c0.122-0.005,0.244-0.008,0.367-0.008c3.783,0,7.348,2.381,9.035,4.919
				c1.135,1.707,1.376,3.362,0.68,4.662c-0.898,1.674-2.21,2.015-3.457,2.015c-0.184,0-0.363-0.007-0.543-0.019
				c-0.729-0.046-1.389-0.228-2.025-0.402c-0.725-0.198-1.418-0.388-2.202-0.388c-0.293,0-0.599,0.027-0.925,0.089
				c-0.573,0.11-1.368,0.673-2.07,1.169c-0.428,0.302-0.831,0.587-1.207,0.792c-1.143,0.62-2.729,1.311-4.143,1.401
				c-0.601,1.012-1.873,2.078-3.254,2.675c-1.02,0.439-2.354,0.689-3.744,0.689c-1.487,0-3.043-0.285-4.35-0.93
				c-0.572,0.516-1.683,1.195-3.557,1.195c-4.604,0-6.753-1.78-7.526-2.641c-0.848,0.148-9.485,1.664-9.485,1.664l-0.75,0.127
				c0,0-0.101-0.43-0.141-0.609c-1.671,2.05-3.456,3.354-5.68,4.141c0.04,0.607,0.125,1.584,0.283,2.463
				c0,0,0.684,3.514,0.783,4.038c0.875,0.657,3.693,2.939,5.615,6.379c1.039,1.859,1.494,3.567,1.693,4.824
				c6.078-3.998,18.188-10.919,18.316-10.993l1.438-0.822c0,0-0.378,2.463-0.504,3.286c5.906-3.968,15.146-9.542,15.271-9.619
				c0.5-0.273,1.32-0.536,2.278-0.535c1.175,0,2.558,0.394,3.806,1.643c0.998,0.998,1.494,2.121,1.479,3.339
				c-0.031,2.162-1.718,3.782-1.794,3.854l-1.354,1.267c-3.429,3.209-7.692,7.204-14.021,12.666
				c-10.235,8.698-21.955,17.667-22.072,17.756l-1.465,1.12c0,0,0.298-2.975,0.41-4.096c-5.303,4.33-15.256,13.32-15.365,13.419
				l-1.078,0.974c0,0-1.091-6.33-1.117-6.496c-4.611,2.526-8.979,3.938-14.01,4.514c-1.632,0.187-3.355,0.281-5.021,0.281
				c-1.219,0-2.406-0.051-3.502-0.153l-0.932-0.041c-1.852,0.022-3.39,0.613-4.331,1.664c-0.133,0.148-0.64,0.76-0.64,1.453
				c0,0.129,0.022,0.262,0.063,0.395c0.161,0.003,0.334,0.006,0.334,0.006l18.218,0.006c3.688,0,5.173,0.389,6.93,1.205
				c0.926,0.429,1.592,1.013,2.051,1.525c0.567-1.003,1.537-2.717,1.537-2.717h44.605l-9.836,17.053c0,0-1.731,0-2.327,0
				c-0.429,0.752-6.484,11.381-6.484,11.381s-68.964-0.016-69.761-0.016c-0.3,0.406-1.477,1.994-2.356,3.185
				c1.928,0.142,7.956,0.587,7.956,0.587l-0.979,1.19c-0.087,0.104-8.772,10.704-16.066,21.499
				c-4.408,6.66-8.42,13.837-12.268,21.941c-0.831,1.748-2.582,3.155-4.939,3.155c-0.781,0-1.627-0.153-2.529-0.502
				c-2.503-0.966-3.303-3.424-3.303-5.344c0-0.621,0.084-1.187,0.221-1.625c3.129-10.052,6.246-17.621,10.591-25.755
				c-0.938,0.008-1.938,0.018-1.938,0.018l-5.768-0.081l0.604-1.151c0.063-0.12,5.946-11.342,9.286-17.383
				c-1.654-0.244-2.853-0.918-3.895-1.646c-1.202-0.837-1.935-1.837-2.372-2.63c-0.465,0.512-1.116,1.127-2.004,1.729
				c-1.898,1.289-5.352,2.824-11.029,2.824H11.601l17.654-30.521c0,0,7.374,0,8.344,0c2.763-7.655,9.833-13.394,17.79-14.352
				c0.97-0.117,2.174-0.232,3.439-0.232c1.025,0,2.091,0.076,3.106,0.286c1.477-2.344,4.85-6.225,12.039-9.159
				c4.086-1.699,7.501-2.855,10.804-3.974l2.556-0.84c2.792-0.9,4.495-1.463,7.094-3.083c-3.651,0.05-14.137,0.187-14.137,0.187
				s11.792-14.805,13.502-16.952c-2.099-0.06-8.828-0.25-8.828-0.25s12.394-11.023,14.331-12.746
				c-2.017-0.476-9.377-2.211-9.377-2.211s15.096-5.777,17.141-6.559c-0.551-0.515-1.748-1.635-1.748-1.635l0.651-0.583
				c0.147-0.131,3.629-3.207,7.351-3.533C113.832,21.136,114.329,21.113,114.805,21.113 M114.805,19.113
				c-0.531,0-1.092,0.026-1.668,0.076c-4.296,0.377-8.088,3.66-8.506,4.033l-0.652,0.584l-1.633,1.458l1.01,0.944l-14.151,5.416
				l-6.07,2.323l6.326,1.492l5.631,1.328L83.635,46.955l-3.768,3.351l5.041,0.143l4.825,0.136l-11.008,13.82l-2.629,3.301
				l4.22-0.056l3.493-0.046c-3.251,1.102-6.602,2.247-10.604,3.911c-6.535,2.667-10.194,6.104-12.208,8.835
				c-0.683-0.077-1.408-0.116-2.169-0.116c-1.467,0-2.802,0.141-3.679,0.247c-8.155,0.982-15.587,6.67-18.908,14.337h-6.986h-1.154
				l-0.578,0.999L9.869,126.338l-1.736,3.001H11.6h29.487c6.187,0,10.024-1.725,12.153-3.171c0.2-0.136,0.395-0.275,0.586-0.421
				c0.457,0.481,0.966,0.919,1.523,1.308c0.57,0.397,1.26,0.836,2.096,1.211c-3.378,6.211-8.063,15.146-8.116,15.246l-0.604,1.153
				l-1.51,2.883l3.254,0.045l4.438,0.063c-3.624,7.171-6.442,14.281-9.208,23.162c-0.204,0.654-0.311,1.422-0.311,2.22
				c0,2.63,1.204,5.905,4.583,7.21c1.096,0.422,2.189,0.636,3.25,0.636c2.902,0,5.486-1.647,6.746-4.299
				c3.807-8.019,7.774-15.114,12.129-21.696c7.275-10.767,15.857-21.228,15.943-21.332l0.98-1.191l2.448-2.98l-0.765-0.057
				c18.772,0.005,60.933,0.014,60.933,0.014l1.162,0.001l0.576-1.011l5.908-10.371h1.166h1.154l0.578-1.001l9.834-17.053l1.729-3
				h-3.462h-40.806c1.965-1.764,6.578-5.89,10.58-9.331l-0.379,3.782l3.664-2.801l1.465-1.12
				c0.119-0.091,11.949-9.151,22.152-17.821c6.366-5.496,10.646-9.504,14.086-12.725l1.359-1.271
				c0.248-0.235,2.385-2.334,2.426-5.286c0.023-1.754-0.689-3.408-2.063-4.781c-1.844-1.842-3.854-2.229-5.222-2.229
				c-1.149,0-2.332,0.284-3.237,0.781l-0.035,0.019l-0.032,0.02c-0.071,0.043-6.132,3.7-11.587,7.204l0.451-2.945l-3.599,2.054
				l-1.438,0.822c-1.123,0.642-9.961,5.709-16.082,9.556c-0.316-0.895-0.715-1.772-1.19-2.625c-1.759-3.148-4.149-5.384-5.54-6.517
				l-0.643-3.306c-0.047-0.259-0.088-0.535-0.119-0.804c1.432-0.691,2.711-1.615,3.902-2.817l0.119-0.021l0.75-0.126l8.512-1.493
				c1.41,1.165,3.947,2.498,8.17,2.498c1.658,0,2.902-0.417,3.806-0.927c1.531,0.535,3.024,0.662,4.101,0.662
				c1.65,0,3.264-0.303,4.537-0.853c1.394-0.602,2.69-1.57,3.581-2.643c1.494-0.286,2.945-0.951,3.978-1.511
				c0.481-0.262,0.953-0.595,1.408-0.917c0.369-0.262,1.051-0.743,1.326-0.844c0.174-0.031,0.342-0.047,0.514-0.047
				c0.516,0,1.023,0.14,1.671,0.316c0.702,0.192,1.497,0.41,2.43,0.47c0.222,0.014,0.445,0.022,0.671,0.022
				c2.369,0,4.125-1.032,5.219-3.068c1.063-1.981,0.787-4.366-0.773-6.716c-1.844-2.77-5.641-5.564-10.104-5.796
				c-0.692-0.804-1.604-1.669-2.664-2.224c-1.429-0.749-3.677-1.744-6.688-1.744c-0.418,0-0.846,0.02-1.27,0.059
				c-1.797,0.166-3.244,0.589-4.323,1.03c-0.791-0.427-1.675-0.648-2.609-0.648c-1.92,0-3.244,0.617-4.212,1.068l-0.627,0.28
				c-0.031,0.003-0.088,0.006-0.182,0.006c-0.18,0-0.37-0.011-0.573-0.021c-0.287-0.015-0.593-0.03-0.905-0.03
				c-0.563,0-1.064,0.047-1.539,0.146c-0.932,0.192-2.197,0.534-3.586,1.35c-0.328-0.341-0.686-0.649-1.064-0.917
				c-1.785-1.254-3.81-1.889-6.017-1.889c-0.438,0-0.896,0.026-1.346,0.077l-7.229,0.855l-1.881-1.296l-0.617-0.426l-0.744,0.085
				l-9.512,1.089C119.13,19.618,117.145,19.113,114.805,19.113L114.805,19.113z M113.771,96.892
				c3.357-0.601,6.522-1.616,9.694-3.111l0.656,3.809l-0.188,0.331l-0.387,0.682c-0.201-0.115-0.406-0.221-0.619-0.319
				c-1.984-0.922-3.73-1.391-7.771-1.391L113.771,96.892L113.771,96.892z"/>
		</g>
		<path fill="#6D712E" d="M185.416,31.557c-1.512-2.273-4.968-4.512-8.393-4.183l-0.479,0.045l-0.265-0.401
			c-0.012-0.017-1.107-1.66-2.305-2.287c-1.39-0.729-3.32-1.533-5.953-1.29c-2.863,0.264-4.531,1.403-4.549,1.415l-0.605,0.421
			l-0.469-0.569c-0.349-0.421-0.789-0.87-1.645-0.87c-1.123,0-1.852,0.339-2.689,0.731l-0.834,0.372
			c-0.744,0.303-1.514,0.263-2.254,0.225c-0.539-0.028-1.047-0.054-1.529,0.046c-1.303,0.27-2.854,0.785-4.493,2.564l-0.2,0.224
			l-0.293,0.036c-0.262,0.032-0.743-0.07-0.887-0.652c-0.135-0.546-0.52-1.575-1.579-2.32c-1.431-1.004-3.027-1.39-4.88-1.18
			l-8.565,1.013c0,0-2.102-1.45-2.504-1.727c-0.562,0.064-10.313,1.181-10.313,1.181l-0.269-0.237
			c-1.286-1.143-3.253-1.581-6.012-1.338c-2.31,0.203-4.623,1.738-5.737,2.582c0.605,0.566,2.305,2.155,2.305,2.155
			s-11.188,4.281-14.673,5.615c2.457,0.58,7.313,1.725,7.313,1.725S91.44,44.83,89.041,46.963c2.331,0.066,7.998,0.226,7.998,0.226
			S85.431,61.763,83.644,64.007c2.665-0.035,16.032-0.21,16.032-0.21l-2.095,1.486c-4.242,3.009-6.201,3.641-9.758,4.789
			l-2.534,0.833c-3.429,1.162-6.667,2.258-10.708,3.938c-7.566,3.088-10.609,7.31-11.566,8.982l-0.307,0.536L62.112,84.2
			c-2.141-0.577-4.754-0.358-6.534-0.143c-7.544,0.908-14.242,6.459-16.666,13.813l-0.181,0.55c0,0-7.731,0-8.555,0
			c-0.431,0.744-14.546,25.146-15.804,27.321c2.506,0,26.714,0,26.714,0c5.271,0,8.418-1.386,10.13-2.55
			c1.689-1.146,2.405-2.354,2.413-2.366l0.985-1.683l0.483,1.889c0.004,0.018,0.477,1.796,2.308,3.07
			c1.058,0.735,2.26,1.457,4.286,1.461l1.362,0.004l-0.667,1.188c-2.599,4.631-7.549,14.016-9.265,17.278
			c1.303,0.019,3.145,0.045,3.145,0.045l4.623-0.042l-0.652,1.195c-4.636,8.498-7.853,16.224-11.102,26.658
			c-0.31,0.995-0.38,4.03,2.131,5.002c2.848,1.099,4.682-0.235,5.448-1.851c3.879-8.173,7.929-15.415,12.383-22.146
			c5.914-8.75,12.721-17.354,15.194-20.433c-1.982-0.146-6.34-0.466-6.34-0.466l-1.455-0.1l4.57-6.176
			c0,0,68.721,0.018,69.638,0.018c0.429-0.754,6.483-11.383,6.483-11.383s1.739,0,2.336,0c0.4-0.697,6.845-11.869,7.986-13.854
			c-2.563,0-40.021,0-40.902,0c-0.355,0.629-1.688,2.982-1.688,2.982l-0.737,1.297l-0.675-1.334
			c-0.007-0.014-0.631-1.225-2.094-1.902c-1.571-0.73-2.849-1.056-6.256-1.056c0,0-18.219-0.006-18.234-0.007l-1.258-0.023
			l-0.232-0.351c-0.814-1.232-0.596-2.859,0.557-4.146c1.244-1.39,3.199-2.17,5.505-2.197l1.103,0.048
			c2.48,0.231,5.467,0.186,8.188-0.125c5.159-0.59,9.596-2.087,14.382-4.855l0.988-0.572l0.38,2.142c0,0,0.385,2.232,0.644,3.725
			c3.094-2.78,11.949-10.695,15.854-13.702l1.469-1.131c0,0-0.302,3.01-0.415,4.147c3.459-2.677,12.462-9.709,20.536-16.57
			c6.298-5.437,10.551-9.419,13.968-12.619l1.351-1.263c0.014-0.012,1.274-1.24,1.291-2.722c0-0.009,0-0.019,0-0.028
			c0-0.766-0.33-1.469-1.01-2.149c-1.955-1.957-4.063-0.9-4.184-0.836c-0.344,0.207-11.094,6.698-16.657,10.57l-1.528,1.065
			c0,0,0.422-2.756,0.563-3.666c-3.675,2.119-13.434,7.793-17.872,10.836l-1.17,0.818l-0.085-1.498
			c-0.084-1.739-0.682-3.716-1.635-5.423c-2.063-3.693-5.368-6.02-5.401-6.043l-0.267-0.181l-0.908-4.687
			c-0.273-1.505-0.342-3.207-0.344-3.278l-0.022-0.617l0.591-0.179c2.312-0.699,4.021-1.917,5.711-4.073
			c0.537-0.687,1.072-0.734,1.428-0.652c0.416,0.096,0.688,0.395,0.86,0.703c1.021-0.179,7.843-1.375,9.108-1.597l-0.237-1.336
			c0,0,0.404,0.651,0.847,1.236l0.123-0.019l0.287,0.448c0.063,0.095,1.555,2.334,6.521,2.334c2.004,0,2.675-0.967,2.701-1.008
			l0.438-0.658l0.657,0.409c2.014,1.253,5.355,1.236,7.215,0.434c1.326-0.573,2.398-1.615,2.633-2.252l0.133-0.522h0.713
			c0.897,0.042,2.244-0.398,3.789-1.238c0.293-0.16,0.66-0.418,1.047-0.693c0.834-0.59,1.779-1.258,2.693-1.434
			c1.563-0.3,2.777,0.034,3.85,0.327c0.59,0.161,1.145,0.313,1.707,0.349c1.171,0.075,1.914-0.087,2.488-1.158
			C186.417,33.832,186.197,32.731,185.416,31.557z"/>
		<path d="M178.122,51.039c0.153-0.16,0.239-0.385,0.212-0.623c-0.049-0.422-0.432-0.726-0.854-0.677
			c-0.099,0.011-0.188,0.041-0.271,0.083c-7.817,4.505-15.353,9.43-22.563,14.737l0.658-4.176
			c-6.646,3.597-13.031,7.588-19.131,11.937c0.533-1.826,0.723-3.785,0.49-5.793c-0.536-4.691-3.223-8.611-6.959-10.898
			c-0.752-2.496-1.293-5.094-1.602-7.775c-0.188-1.65-0.281-3.29-0.289-4.913c0.119-0.01,0.236-0.019,0.355-0.032
			c3.251-0.372,5.944-2.294,7.439-4.943l2.592-0.413c0.467-0.052,0.904,0.146,1.176,0.489l5.834-0.925l-0.41-2.587l-4.924,0.78
			c-0.125-0.184-0.214-0.396-0.25-0.63c-0.087-0.54,0.117-1.057,0.493-1.398l5.8-0.919l-0.465-2.774
			c-0.212-1.852-1.885-3.18-3.734-2.968l-9.838,1.125l-2.55-1.686l-10.297,1.178c-1.308-1.262-3.149-1.951-5.097-1.729
			c-0.549,0.063-1.071,0.196-1.563,0.387l3.131,2.969c-5.928,6.241-9.157,14.964-8.104,24.186c0.267,2.301,0.785,4.51,1.522,6.606
			c-0.344,0.477-0.796,0.873-1.325,1.147c-0.896-2.387-1.521-4.919-1.822-7.567c-1.004-8.78,1.465-17.075,6.598-23.458
			c-1.734,0.51-8.02,2.879-8.02,2.879l3.662,0.925L96.186,44.507l6.221,0.355L89.55,61.215l15.79-0.356h0.24
			c-2.907,4.799-8.861,9.598-16.326,11.731c-5.894,1.684-9.594,3.299-9.594,3.299c-0.445,0.155-0.887,0.315-1.326,0.481
			c0,0-2.766,1.078-3.938,1.684c-1.024,0.49-2.029,1.011-3.013,1.563c-3.203,1.795-5.735,4.575-7.244,7.884
			c-2.38-0.787-4.965-1.083-7.62-0.78c-7.923,0.906-14.036,6.873-15.488,14.304h-7.653h-1.56l-4.869,8.435c0,0,1.194,0,2.388,0
			c-1.397,2.421-2.289,3.966-2.95,5.108c-0.375,0-2.389,0-2.389,0l-4.881,8.455h22.766c4.555,0,8.198-1.599,9.745-4.275
			l-0.029,0.049l0.75-1.238l3.231,1.433c-0.328-0.724-0.641-1.466-0.937-2.226c-0.245-0.631-0.47-1.26-0.683-1.887
			c0.378-0.706,0.511-1.35,0.511-1.9c0-0.084-0.011-0.157-0.017-0.238c0.718-0.46,1.35-1.044,1.805-1.834l0.036-0.064l1.57-2.898
			l-0.036,0.064c0.841-1.457,0.894-3.037,0.145-4.337c-0.964-1.669-2.997-2.554-6.043-2.635c0.382-4.954,2.219-8.675,5.388-9.908
			c0.61-0.231,1.259-0.391,1.936-0.469c1.296-0.148,2.556,0.022,3.7,0.448c-0.366,1.753-0.464,3.593-0.25,5.47
			c0.272,2.38,1.025,4.586,2.14,6.542H63.13l-4.868,8.434c0,0,1.195,0,2.388,0c-1.294,2.242-2.596,4.496-2.596,4.496
			c-0.452,0.782-0.68,1.602-0.68,2.391c0,0.688,0.174,1.358,0.525,1.968c1.004,1.739,3.184,2.62,6.479,2.62h3.437
			c-3.552,5.933-6.897,11.992-10.018,18.184l7.879-0.072c-5.837,9.938-10.505,20.608-13.836,31.799
			c-0.046,0.156-0.063,0.324-0.043,0.496c0.077,0.674,0.686,1.157,1.359,1.08c0.437-0.05,0.793-0.322,0.969-0.69
			c6.582-13.997,14.896-27.079,24.697-38.942l-7.362-0.705c3.002-4.406,6.323-8.572,9.484-12.746
			c1.227-0.695,2.194-1.596,2.818-2.676c0,0,3.05-5.281,4.156-7.195c1.272,0,2.883,0,5.534,0c-0.87,1.506-1.273,2.205-1.743,3.019
			c-0.375,0-2.389,0-2.389,0l-4.881,8.454h16.989c0,0,1.201-2.08,1.369-2.372c0.059,0.143,0.1,0.288,0.178,0.426
			c0.991,1.717,3.039,1.946,4.912,1.946h25.31c0,0,1.684-2.914,2.54-4.398c0.762,1.434,2.338,4.398,2.338,4.398h10.988
			c0,0,5.41-9.37,6.625-11.473c0.353,0,2.348,0,2.348,0l4.867-8.436h-4.678H146.51c0,0-1.683,2.916-2.539,4.398
			c-0.762-1.433-2.338-4.398-2.338-4.398h-13.379l-4.87,8.436c0,0,1.195,0,2.39,0c-0.869,1.506-1.271,2.203-1.741,3.019
			c-1.323,0-2.97,0-5.562,0c0.002-0.054,0.012-0.111,0.012-0.163c0-0.085-0.012-0.161-0.018-0.241
			c0.719-0.46,1.35-1.044,1.805-1.834l1.291-2.233c0.449-0.778,0.676-1.592,0.676-2.379c0-0.688-0.174-1.358-0.523-1.967
			c-1.009-1.748-3.199-2.635-6.518-2.635H93.688c-1.06-1.227-1.689-2.715-1.708-4.327c-0.049-4.271,4.203-7.783,9.497-7.843
			c0.443-0.005,0.881,0.014,1.312,0.057c2.428,0.226,4.916,0.207,7.435-0.082c6.779-0.775,12.898-3.396,17.916-7.303l0.9,5.098
			c5.825-5.476,12.02-10.582,18.543-15.275l-0.35,4.007C157.927,69.089,168.234,60.275,178.122,51.039z"/>
		<path d="M158.568,126.193c0-0.551-0.194-1.021-0.584-1.405c-0.392-0.386-0.86-0.581-1.414-0.581c-0.547,0-1.017,0.193-1.403,0.581
			c-0.39,0.39-0.584,0.856-0.584,1.405c0,0.554,0.192,1.023,0.578,1.412c0.388,0.393,0.856,0.588,1.409,0.588
			c0.554,0,1.022-0.195,1.414-0.588C158.374,127.217,158.568,126.746,158.568,126.193z M156.574,124.479
			c0.477,0,0.884,0.168,1.22,0.506c0.335,0.334,0.503,0.738,0.503,1.211c0,0.479-0.168,0.887-0.503,1.222
			c-0.335,0.337-0.741,0.505-1.22,0.505c-0.479,0-0.885-0.168-1.221-0.505c-0.332-0.335-0.5-0.742-0.5-1.222
			c0-0.473,0.168-0.877,0.504-1.211C155.693,124.646,156.1,124.479,156.574,124.479z"/>
		<path d="M155.77,125.102v2.179h0.381v-0.851h0.302c0.2,0,0.343,0.022,0.423,0.068c0.135,0.081,0.203,0.245,0.203,0.494v0.171
			l0.009,0.069c0.002,0.01,0.004,0.018,0.005,0.023c0.002,0.008,0.006,0.016,0.008,0.021h0.373l-0.018-0.026
			c-0.012-0.019-0.02-0.056-0.021-0.112c-0.006-0.057-0.008-0.108-0.008-0.16v-0.158c0-0.107-0.039-0.221-0.117-0.336
			c-0.08-0.112-0.203-0.185-0.373-0.211c0.138-0.021,0.242-0.059,0.318-0.104c0.145-0.093,0.217-0.237,0.217-0.435
			c0-0.274-0.113-0.461-0.34-0.555c-0.127-0.054-0.324-0.078-0.597-0.078H155.77z M157.088,125.771c0,0.166-0.074,0.276-0.225,0.338
			c-0.082,0.031-0.203,0.049-0.365,0.049h-0.348v-0.785h0.328c0.213,0,0.366,0.027,0.463,0.08
			C157.04,125.507,157.088,125.613,157.088,125.771z"/>
		<path d="M102.6,93.816L102.6,93.816L102.6,93.816z"/>
		<path fill="#FFFFFF" d="M56.606,104.468c-0.709-1.229-2.439-1.853-5.141-1.853H33.379h-0.647l-3.041,5.27c0,0,2.251,0,2.388,0
			c-1.282,2.223-4.295,7.439-4.776,8.273c-0.688,0-2.389,0-2.389,0l-3.055,5.291h20.026c3.925,0,7.134-1.336,8.375-3.485
			l2.244-3.705c0.286-0.495,0.386-0.925,0.386-1.284c0-0.339-0.089-0.615-0.195-0.826c-0.037-0.071-0.089-0.135-0.134-0.199
			c1.106-0.424,1.866-1.021,2.333-1.826l1.585-2.93l-0.015,0.027C57.216,105.914,56.876,104.936,56.606,104.468z"/>
		<path fill="#FFFFFF" d="M158.227,104.706h-10.8c0,0-2.347,4.063-3.512,6.082c-1.079-2.032-3.229-6.082-3.229-6.082H129.17
			l-3.044,5.271c0,0,2.252,0,2.39,0c-1.14,1.976-3.125,5.416-3.567,6.184c-0.939,0-6.229,0-8.706,0
			c0.101-0.174,0.283-0.493,0.283-0.493c0.279-0.481,0.377-0.903,0.377-1.259c0-0.342-0.09-0.619-0.195-0.831
			c-0.037-0.073-0.09-0.138-0.137-0.202c1.105-0.422,1.867-1.021,2.332-1.826l1.291-2.234c0.349-0.602,0.466-1.129,0.466-1.573
			c0-0.528-0.166-0.935-0.313-1.188c-0.707-1.224-2.438-1.844-5.146-1.844H79.061c0,0-6.028,10.439-6.612,11.452
			c-0.424,0-0.824,0-1.637,0c1.413-2.445,6.612-11.452,6.612-11.452H64.045l-3.043,5.27c0,0,2.252,0,2.389,0
			c-1.252,2.17-3.966,6.869-3.966,6.869c-0.35,0.605-0.468,1.142-0.468,1.586c0,0.529,0.167,0.937,0.313,1.188
			c0.701,1.215,2.42,1.83,5.108,1.83h9.641c3.925,0,7.134-1.335,8.375-3.485c0,0,4.048-7.01,4.612-7.988c0.954,0,6.659,0,9.188,0
			c-1.14,1.977-3.127,5.416-3.57,6.185c-0.688,0-2.389,0-2.389,0l-3.056,5.291h13.336c0,0,2.896-5.019,3.426-5.937
			c0.514,0,1.136,0,2.19,0c-0.79,1.367-1.709,2.959-1.709,2.959c-0.22,0.381-0.295,0.724-0.295,1.01
			c0,0.357,0.115,0.637,0.215,0.811c0.591,1.021,2.122,1.157,3.546,1.157h24.394c0,0,2.347-4.063,3.513-6.081
			c1.079,2.032,3.229,6.081,3.229,6.081h9.127c0,0,6.039-10.461,6.625-11.476c0.68,0,2.348,0,2.348,0l3.043-5.27L158.227,104.706
			L158.227,104.706z"/>
		<path fill="#FFFFFF" d="M124.191,30.686c0.506,1.092,1.666,1.791,2.928,1.646c1.261-0.145,2.232-1.087,2.479-2.265L124.191,30.686
			z"/>
		
			<ellipse transform="matrix(-0.114 -0.9935 0.9935 -0.114 128.1378 174.3273)" fill="#FFFFFF" cx="141.8" cy="30.028" rx="0.655" ry="1.31"/>
		<path fill="#A6192E" d="M175.948,30.088c-0.919,0.105-1.782,0.364-2.568,0.748c-0.521,0.204-1.147,0.324-1.819,0.327
			c-1.818,0.01-3.299-0.837-3.306-1.89c-0.006-1.054,1.466-1.916,3.285-1.926c0.769-0.003,1.474,0.146,2.036,0.398
			c-1.567-1.164-3.588-1.761-5.711-1.518c-2.053,0.235-3.834,1.209-5.094,2.618c-1.283,1.364-2.901,2.411-4.742,2.997
			c-0.19,0.063-0.397,0.108-0.615,0.134c-1.075,0.123-2.01-0.311-2.084-0.968c-0.072-0.634,0.682-1.246,1.701-1.398
			c1.912-0.257,3.316-1.592,3.173-3.022c-0.828,0.669-1.847,1.124-2.981,1.253c-0.455,0.052-0.901,0.05-1.338,0
			c-0.457-0.057-0.926-0.06-1.402-0.005c-2.115,0.243-3.848,1.572-4.694,3.367c-0.49,1.026-1.345,1.856-2.412,2.313
			c1.379,0.209,2.556,1.13,3.091,2.415c0.947,2.146,3.207,3.523,5.658,3.243c0.193-0.021,0.383-0.057,0.566-0.098
			c-0.077-0.033-0.159-0.068-0.237-0.107c-1.188-0.588-1.813-1.742-1.396-2.577c0.414-0.836,1.711-1.036,2.896-0.448
			c0.373,0.185,0.688,0.425,0.938,0.695c0.42,0.498,0.928,0.948,1.517,1.325c2.026,1.301,4.44,1.369,6.188,0.367
			c-0.552,0.159-1.293,0.083-2.02-0.261c-1.184-0.561-1.859-1.61-1.512-2.343c0.326-0.689,1.438-0.855,2.551-0.41
			c1.14,0.432,2.396,0.606,3.689,0.458c1.537-0.176,2.922-0.783,4.045-1.686c1.209-0.976,2.733-1.641,4.438-1.836
			c2.071-0.237,4.044,0.264,5.606,1.277C181.805,31.161,178.979,29.742,175.948,30.088z"/>
		<path fill="#A6192E" d="M55.511,106.654l-1.57,2.9c-0.688,1.188-2.458,1.815-5.466,2.006c2.805,0.313,3.813,0.854,3.089,2.108
			l-2.255,3.728c-1.037,1.797-3.95,2.926-7.405,2.926H23.817l1.761-3.051h2.389l6.069-10.516h-2.388l1.75-3.029h18.086
			C54.939,103.729,56.549,104.855,55.511,106.654z M40.327,110.307h4.606l2.071-3.549h-4.607L40.327,110.307z M40.935,117.271
			l2.455-4.291h-4.607l-2.455,4.291H40.935z"/>
		<path fill="#A6192E" d="M107.908,120.322c-2.176,0-3.001-0.418-2.493-1.295l2.678-4.643h-4.776l-3.426,5.938H89.14l1.762-3.051
			h2.389l4.863-8.424H86.379l-4.935,8.549c-1.038,1.797-3.95,2.926-7.406,2.926h-9.64c-3.456,0-5.033-1.107-3.984-2.926l4.936-8.549
			h-2.389l1.75-3.029h10.792l-6.612,11.453h4.223l6.613-11.453h35.49c3.456,0,5.076,1.105,4.027,2.926l-1.292,2.236
			c-0.688,1.189-2.457,1.816-5.466,2.006c2.805,0.313,3.813,0.856,3.09,2.111l-1.256,2.174h11.291l4.863-8.424h-2.39l1.749-3.029
			h10.193l3.863,7.271l4.199-7.271h10.151l-1.749,3.029h-2.348l-6.623,11.475h-7.809l-3.861-7.272l-4.199,7.272H107.908
			L107.908,120.322z M109.301,111.671l1.629-2.821h-4.437l-1.629,2.821H109.301z"/>
	</g>
</g>
</svg>
