<?xml version="1.0" encoding="utf-8"?>
<!-- Generator: Adobe Illustrator 14.0.0, SVG Export Plug-In . SVG Version: 6.00 Build 43363)  -->
<!DOCTYPE svg PUBLIC "-//W3C//DTD SVG 1.1//EN" "http://www.w3.org/Graphics/SVG/1.1/DTD/svg11.dtd">
<svg version="1.1" id="Layer_1" xmlns="http://www.w3.org/2000/svg" xmlns:xlink="http://www.w3.org/1999/xlink" x="0px" y="0px"
	 width="200px" height="200px" viewBox="0 0 200 200" enable-background="new 0 0 200 200" xml:space="preserve">
<g id="Background">
	<g>
		<g>
			<path fill="#8BB8E8" d="M89.953,173.3c-2.409-1.862-6.309-5.04-10.986-9.425l-2.796-2.393h0.291
				c-10.104-9.832-19.257-20.934-27.236-33.032c-12.397,1.014-24.885,2.409-37.128,4.153L9,133.042V65.439l2.332-0.333
				c3.296-0.469,6.665-0.921,10.031-1.345c-1.199-5.109-2.215-10.326-3.022-15.524l-1.009-6.501l19.831-15.67l5.259,1.194
				c2.434,0.552,4.677,0.821,6.856,0.821c5.001,0,9.246-1.38,15.12-3.291c8.551-2.781,19.186-6.24,35.612-6.24
				c16.227,0,26.643,3.665,35.014,6.609c5.611,1.972,9.662,3.396,14.33,3.396c2.386,0,4.907-0.38,7.713-1.162l5.522-1.538
				l20.101,15.881l-1.012,6.502c-0.809,5.202-1.824,10.42-3.021,15.526c3.348,0.422,6.711,0.873,10.013,1.343l2.33,0.332v67.604
				l-3.096-0.439c-12.25-1.744-24.73-3.14-37.111-4.149c-18.854,28.585-39.648,44.181-43.646,47.028l-7.32,6.285L89.953,173.3z"/>
			<path fill="#FFFFFF" d="M100.011,19.55c16.052,0,26.382,3.632,34.683,6.552c5.66,1.99,9.822,3.453,14.66,3.453
				c2.403,0,4.978-0.361,7.981-1.199l5.032-1.402l19.242,15.204l-0.922,5.925c-0.887,5.709-1.984,11.219-3.265,16.534
				c3.703,0.46,7.404,0.953,11.103,1.479l1.474,0.21v65.583l-1.956-0.277c-12.554-1.785-25.146-3.188-37.761-4.204
				c-18.729,28.582-39.312,44.118-43.72,47.261l-6.739,5.782l-9.22-7.909c-2.598-2.01-6.408-5.135-10.954-9.396l-0.774-0.664h0.07
				c-8.37-7.932-19.063-19.588-29.211-35.075c-12.621,1.02-25.219,2.42-37.78,4.206L10,131.891V66.307l1.473-0.21
				c3.704-0.527,7.411-1.021,11.121-1.481c-1.278-5.314-2.378-10.823-3.265-16.532l-0.919-5.925l18.998-15.012l4.793,1.088
				c2.594,0.589,4.899,0.846,7.078,0.846c5.16,0,9.599-1.444,15.429-3.34C73.187,22.983,83.739,19.55,100.011,19.55 M100.011,17.55
				c-16.586,0-27.305,3.486-35.918,6.288c-5.791,1.883-9.971,3.243-14.814,3.243c-2.104,0-4.274-0.26-6.635-0.796l-4.793-1.088
				l-0.933-0.212l-0.75,0.593L17.17,40.59l-0.916,0.723l0.179,1.153l0.92,5.925c0.754,4.857,1.689,9.731,2.786,14.518
				c-2.996,0.383-5.996,0.788-8.948,1.208l-1.474,0.211L8,64.572v1.735v65.583v2.305l2.282-0.324l1.956-0.278
				c12.039-1.713,24.305-3.091,36.48-4.098c7.48,11.272,15.974,21.674,25.304,30.987h-0.548l4.1,3.518l0.741,0.636
				c4.666,4.371,8.563,7.55,11.025,9.456l9.182,7.876l1.302,1.117l1.302-1.117l6.674-5.724c4.175-2.985,24.751-18.499,43.501-46.747
				c12.17,1.007,24.432,2.384,36.463,4.096l1.955,0.278l2.281,0.324v-2.305V66.307v-1.734l-1.717-0.245l-1.473-0.21
				c-2.949-0.42-5.943-0.824-8.933-1.206c1.099-4.789,2.032-9.663,2.786-14.52l0.922-5.925l0.18-1.153l-0.914-0.724l-19.244-15.204
				l-0.797-0.63l-0.979,0.273L156.8,26.43c-2.719,0.757-5.153,1.125-7.446,1.125c-4.496,0-8.479-1.4-13.994-3.339
				C126.914,21.246,116.408,17.55,100.011,17.55L100.011,17.55z"/>
		</g>
		<path fill="#E57200" d="M175.301,66.1c1.465-5.845,2.713-11.932,3.696-18.268l0.767-4.938L161.99,28.851l-4.193,1.167
			c-9.574,2.667-15.184,0.696-23.673-2.29c-8.179-2.875-18.354-6.454-34.112-6.454c-16,0-26.41,3.386-34.774,6.107
			c-8.56,2.784-14.216,4.623-23.414,2.536l-3.994-0.908L20.256,42.895l0.766,4.938c0.983,6.334,2.231,12.421,3.696,18.266
			c-4.339,0.525-8.674,1.09-13.004,1.707c0,20.707,0,41.415,0,62.122c12.926-1.84,25.896-3.271,38.89-4.3
			c12.226,18.872,25.324,32.095,34.155,39.864h-0.095l15.16,13.005l8.195-7.029c7.203-5.522,25.075-20.649,41.396-45.838
			c12.987,1.027,25.951,2.459,38.871,4.298c0-20.707,0-41.415,0-62.122C183.963,67.189,179.634,66.625,175.301,66.1z"/>
		<path fill="#FFFFFF" d="M168.025,71.547c2.252-7.705,4.123-15.896,5.47-24.568l0.269-1.729l-13-10.272l-1.463,0.401
			c-11.457,3.146-18.391,0.695-27.169-2.408c-8.124-2.873-17.333-6.128-32.121-6.128c-15.158,0-25.415,3.306-33.655,5.962
			c-8.848,2.853-15.837,5.105-25.68,2.563l-1.441-0.373L26.257,45.25l0.269,1.729c1.346,8.671,3.217,16.862,5.468,24.566
			c-5.209,0.601-10.413,1.271-15.608,2.01c0,16.869,0,33.738,0,50.607c12.43-1.77,24.902-3.139,37.397-4.114
			c4.531,7.245,9.105,13.507,13.336,18.763c6.378,7.92,12.489,14.258,17.587,19.057h-0.042l1.254,1.13
			c0.999,0.922,1.954,1.778,2.858,2.576l11.047,9.952l6.12-5.514c5.548-4.408,15.847-13.404,26.955-27.201
			c4.23-5.254,8.806-11.517,13.336-18.761c12.49,0.976,24.955,2.345,37.379,4.112c0-16.869,0-33.738,0-50.607
			C178.426,72.817,173.229,72.147,168.025,71.547z"/>
		<path fill="#2D2926" d="M180.736,76.723c-5.573-0.793-11.156-1.499-16.745-2.127c2.743-8.729,4.989-18.086,6.541-28.078
			l-10.438-8.247c-4.218,1.236-7.879,1.723-11.242,1.697c-14.605-0.165-23.856-10.126-48.842-10.126
			c-8.724,0-15.686,1.127-21.652,2.615c-7.676,1.896-13.784,4.381-19.681,5.89c-5.79,1.425-11.554,1.889-18.752-0.076l-10.438,8.247
			c1.551,9.991,3.797,19.347,6.541,28.075c-5.596,0.629-11.185,1.335-16.765,2.129c0,14.589,0,29.178,0,43.767
			c11.913-1.695,23.866-3.011,35.84-3.952c20.555,33.645,44.907,50.184,44.907,50.184s24.352-16.539,44.904-50.183
			c11.969,0.94,23.915,2.257,35.82,3.951C180.736,105.9,180.736,91.312,180.736,76.723z"/>
		<path fill="#E25D00" d="M93.045,34.99l1.809,36.04c0.471-0.004,0.942-0.004,1.414-0.007L93.045,34.99z"/>
		<path fill="#E57200" d="M75.956,38.741c-0.011,0.004-0.021,0.008-0.032,0.013l7.675,32.492c0.407-0.012,0.813-0.027,1.221-0.038
			L75.956,38.741z"/>
		<path fill="#E57200" d="M43.859,52.334l13.298,20.282c0.53-0.04,1.06-0.081,1.59-0.12L43.859,52.334z"/>
		<path fill="#E57200" d="M59.227,43.842c-0.003,0-0.007,0-0.011,0l12.046,27.89c0.464-0.023,0.929-0.046,1.393-0.068L59.227,43.842
			z"/>
		<path fill="#E57200" d="M38.314,64.814l6.261,8.88c0.417-0.041,0.833-0.077,1.25-0.116L38.314,64.814z"/>
		<path fill="#E25D00" d="M161.676,66.956l-6.406,6.724c0.416,0.041,0.834,0.083,1.25,0.125L161.676,66.956z"/>
		<path fill="#E57200" d="M107.193,129.02l21.056-13.543c-0.624-0.031-1.248-0.063-1.872-0.092l-19.973,12.389l13.828-12.643
			c-0.522-0.02-1.047-0.031-1.568-0.049l-13.256,11.604l8.953-11.729c-0.648-0.018-1.299-0.029-1.947-0.043l-8.182,10.884
			l5.563-10.938c-0.563-0.01-1.122-0.014-1.686-0.021l-5.191,10.294l3.087-10.32c-0.521-0.006-1.043-0.013-1.563-0.017l-2.938,9.916
			l1.146-9.924c-0.528-0.003-1.059-0.006-1.586-0.009l-1.027,9.771l-0.677-9.771c-0.496,0-0.991,0.004-1.487,0.006l0.695,9.866
			l-2.526-9.857c-0.495,0.003-0.99,0.005-1.485,0.012l2.581,10.213l-4.66-10.188c-0.535,0.007-1.069,0.013-1.604,0.021l4.923,10.777
			l-7.442-10.73c-0.611,0.013-1.222,0.025-1.833,0.041l8.065,11.533l-11.006-11.457c-0.526,0.014-1.053,0.03-1.579,0.049
			l0.142,0.147l11.403,12.304L75.51,115.3c-0.61,0.026-1.219,0.054-1.829,0.082l19.031,13.349L63.71,115.927
			c-0.664,0.042-1.327,0.089-1.991,0.132l30.387,14.017l-29.185-7.025c0.285,0.417,0.57,0.826,0.855,1.236l27.971,7.22
			l-23.709-1.346c0.292,0.388,0.585,0.771,0.877,1.15l22.737,1.664l-19.508,2.409c0.292,0.357,0.583,0.716,0.873,1.064l18.804-2.009
			l-16.219,5.06c0.292,0.335,0.58,0.662,0.87,0.99l15.776-4.64l-13.571,7.099c0.288,0.315,0.576,0.631,0.861,0.938l13.383-6.723
			l-11.372,8.853c0.29,0.303,0.58,0.604,0.866,0.896l11.402-8.579l-9.444,10.558c0.298,0.297,0.593,0.586,0.885,0.873l9.65-10.438
			l-7.609,12.399c0.308,0.293,0.616,0.582,0.916,0.861l7.942-12.48l-5.661,14.563c0.329,0.293,0.651,0.579,0.966,0.854l6.065-14.871
			l-3.333,17.207c0.36,0.303,0.702,0.582,1.034,0.854l3.745-17.768l-0.242,20.498c0.537,0.398,0.918,0.67,1.116,0.81l0.601-21.274
			l3.163,18.687c0.328-0.261,0.683-0.545,1.049-0.842l-2.758-18.079l5.664,15.646c0.316-0.273,0.644-0.559,0.978-0.851
			l-5.251-15.288l7.643,13.143c0.308-0.278,0.612-0.563,0.926-0.854l-7.285-13.021l9.396,11.018c0.293-0.282,0.59-0.573,0.889-0.866
			l-9.154-11.097l11.148,9.107c0.287-0.293,0.576-0.586,0.869-0.888l-11.076-9.354l13.091,7.244c0.284-0.305,0.571-0.608,0.86-0.922
			l-13.228-7.607l15.407,5.209c0.285-0.32,0.572-0.646,0.861-0.975l-15.785-5.627l18.303,2.699c0.29-0.345,0.58-0.691,0.871-1.043
			l-18.947-3.113l22.045-0.729c0.29-0.371,0.582-0.749,0.873-1.127l-22.956,0.382l26.99-5.826c0.286-0.399,0.571-0.802,0.858-1.212
			l-28.147,5.595l33.637-13.907c0.04-0.064,0.079-0.131,0.119-0.196c-0.565-0.041-1.134-0.082-1.7-0.122L107.193,129.02z"/>
		<path fill="#E25D00" d="M110.615,35.341l-4.87,35.696c0.621,0.006,1.241,0.017,1.862,0.025L110.615,35.341z"/>
		<path fill="#E57200" d="M127.484,40.116c-0.019-0.007-0.035-0.015-0.053-0.022l-10.018,31.182c0.501,0.015,1.003,0.03,1.505,0.046
			L127.484,40.116z"/>
		<path fill="#E57200" d="M144.165,45.328L129.927,71.79c0.535,0.028,1.069,0.059,1.604,0.088L144.165,45.328z"/>
		<path fill="#E57200" d="M159.32,53.677l-14.961,19.052c0.545,0.042,1.09,0.083,1.634,0.128L159.32,53.677z"/>
		<path fill="#E57200" d="M176.73,117.039c-50.896-7.242-102.563-7.242-153.459,0c0-0.391,0-0.782,0-1.173
			c50.896-7.244,102.562-7.244,153.459,0C176.73,116.257,176.73,116.648,176.73,117.039"/>
		<path fill="#E57200" d="M176.73,80.352c-50.896-7.243-102.563-7.243-153.459,0c0-0.391,0-0.782,0-1.172
			c50.896-7.244,102.562-7.244,153.459,0C176.73,79.57,176.73,79.961,176.73,80.352"/>
		<path fill="#2D2926" d="M100.029,77.648c8.538,0,15.47-6.919,15.47-15.47c0-8.547-6.933-15.476-15.47-15.476
			c-8.548,0-15.476,6.928-15.476,15.476C84.553,70.729,91.481,77.648,100.029,77.648"/>
		<path fill="#8BB8E8" d="M100.029,74.724c6.686,0,12.114-5.418,12.114-12.114c0-6.693-5.429-12.119-12.114-12.119
			c-6.693,0-12.12,5.426-12.12,12.119C87.91,69.305,93.336,74.724,100.029,74.724"/>
		<path fill="#FFFFFF" d="M98.71,50.048c-5.465,0.592-9.42,5.501-8.828,10.969c0.59,5.468,5.5,9.421,10.966,8.829
			c5.469-0.586,9.424-5.5,8.834-10.968C109.093,53.411,104.182,49.458,98.71,50.048"/>
		<path fill="#2D2926" d="M104.396,61.215c0.682-0.328,2.008-0.986,2.828-1.515c-1.011,0.056-2.402,0.388-3.134,0.576
			c-0.696-0.653-2.246-2.012-3.72-2.656c-0.084-0.752-0.262-2.225-0.485-3.176c-0.285,0.974-0.437,2.401-0.501,3.152
			c-0.744,0.289-2.228,1.024-3.689,2.665c-0.714-0.162-2.23-0.491-3.23-0.593c0.846,0.602,2.198,1.229,2.87,1.526
			c0.222,0.777,0.785,2.613,1.479,3.992c-0.025,0.036-1.267,1.987-1.829,3.205c1.139-0.819,2.623-2.483,2.67-2.538
			c0.798,0.138,2.399,0.323,4.279,0.057c0.022,0.024,1.615,1.708,2.662,2.553c-0.459-1.157-1.502-2.748-1.758-3.132
			C103.271,64.511,104.122,62.763,104.396,61.215"/>
		<path fill="#2D2926" d="M106.956,53.999c0,0-0.907-1.291-3.043-2.355c-0.302-0.562-0.793-1.393-1.313-1.914
			c0,0-2.417-0.867-5.708,0c0,0-1.168,1.388-1.968,2.779c0,0,2.562-0.466,4.819,1.025c0,0,1.165-1.101,3.413-1.279
			C103.854,52.433,105.376,52.913,106.956,53.999"/>
		<path fill="#2D2926" d="M110.922,55.77c0,0-1.677-0.691-3.246-1.029c0,0,1.223,2.297,0.491,4.902c0,0,1.401,0.773,2.256,2.862
			c0.041,0.717,0.048,2.317-0.503,4.153c0,0,0.949-1.261,1.316-3.619c0.443-0.458,1.084-1.178,1.424-1.832
			C112.66,61.208,112.749,58.642,110.922,55.77"/>
		<path fill="#2D2926" d="M109.428,67.368c0,0-1.803,1.877-4.507,1.992c0,0-0.297,1.573-2.017,3.034
			c-0.668,0.263-2.188,0.77-4.104,0.815c0,0,1.495,0.514,3.849,0.126c0.571,0.278,1.459,0.665,2.187,0.782
			c0,0,2.467-0.712,4.628-3.344C109.462,70.773,109.598,68.965,109.428,67.368"/>
		<path fill="#2D2926" d="M94.442,69.125c0,0-1.594,0.152-3.477-1.09c-0.439-0.568-1.348-1.885-1.927-3.711
			c0,0-0.076,1.577,0.954,3.729c-0.109,0.629-0.231,1.585-0.143,2.316c0,0,1.376,2.17,4.505,3.511c0,0,1.773-0.377,3.259-0.983
			C97.613,72.896,95.307,71.688,94.442,69.125"/>
		<path fill="#2D2926" d="M94.24,52.721c0,0-1.517,0.442-3.216,2.116c-0.628,0.102-1.575,0.297-2.235,0.62
			c0,0-1.607,2.005-1.854,5.399c0,0,0.933,1.557,1.993,2.762c0,0,0.39-2.571,2.532-4.223c0,0-0.663-1.459-0.103-3.645
			C91.752,55.15,92.7,53.862,94.24,52.721"/>
		<path fill="#E57200" d="M97.357,64.625c0,0-1.034-2.464-1.295-3.628c0,0,1.397-1.766,3.814-2.83c0,0,0,2.851,0,3.63L97.357,64.625
			"/>
		<path fill="#E57200" d="M96.375,51.684c0,0,0.427-0.807,1.009-1.319c0,0,2.093-0.748,4.448-0.192c0,0-2.528,0.287-3.738,1.667
			C98.093,51.84,97.116,51.603,96.375,51.684"/>
		<path fill="#E57200" d="M108.902,55.872c0,0,0.899,0.159,1.563,0.559c0,0,1.352,1.768,1.535,4.178c0,0-1.041-2.321-2.725-3.052
			C109.279,57.557,109.205,56.553,108.902,55.872"/>
		<path fill="#E57200" d="M108.734,68.887c0,0,0.127,0.905-0.045,1.658c0,0-1.258,1.834-3.492,2.76c0,0,1.883-1.711,2.055-3.538
			C107.252,69.768,108.184,69.388,108.734,68.887"/>
		<path fill="#E57200" d="M95.959,72.655c0,0-0.831,0.375-1.602,0.421c0,0-2.112-0.697-3.625-2.584c0,0,2.169,1.329,3.968,0.982
			C94.699,71.474,95.328,72.265,95.959,72.655"/>
		<path fill="#E57200" d="M88.75,61.98c0,0-0.624-0.666-0.918-1.381c0,0-0.03-2.224,1.259-4.27c0,0-0.548,2.483,0.365,4.074
			C89.456,60.404,88.912,61.252,88.75,61.98"/>
		<polyline fill="#E57200" points="99.892,121.014 102.684,129.607 111.718,129.607 104.407,134.918 107.202,143.511 
			99.892,138.198 92.582,143.511 95.374,134.918 88.066,129.607 97.099,129.607 99.892,121.014 		"/>
		<polyline fill="#FFFFFF" points="99.892,124.298 101.95,130.629 108.605,130.629 103.221,134.545 105.279,140.877 99.892,136.962 
			94.504,140.877 96.563,134.545 91.176,130.629 97.833,130.629 99.892,124.298 		"/>
		<path fill="#FFFFFE" d="M50.984,52.464c0.641,1.324,1.283,2.648,1.925,3.974c-0.62,0.299-1.235,0.605-1.849,0.917
			c-1.456-2.863-2.912-5.728-4.367-8.591c0.669-0.34,1.339-0.672,2.012-0.999c0.584,1.207,1.17,2.415,1.755,3.621
			c0.89-0.431,1.782-0.85,2.68-1.256c-0.554-1.223-1.108-2.443-1.662-3.665c0.679-0.308,1.361-0.609,2.043-0.903
			c1.271,2.951,2.542,5.9,3.813,8.851c-0.627,0.27-1.252,0.547-1.877,0.83c-0.606-1.34-1.215-2.681-1.823-4.021
			C52.748,51.623,51.863,52.038,50.984,52.464"/>
		<path fill="#FFFFFE" d="M53.481,45.462l-2.046,0.905c-0.025,0.012-0.045,0.033-0.055,0.061c-0.005,0.011-0.007,0.024-0.007,0.037
			c0,0.015,0.003,0.031,0.01,0.045c0,0,1.539,3.396,1.617,3.569c-0.173,0.081-2.314,1.085-2.488,1.166
			c-0.083-0.171-1.708-3.526-1.708-3.526c-0.012-0.026-0.034-0.045-0.062-0.054c-0.028-0.009-0.056-0.008-0.083,0.004l-2.013,1
			c-0.026,0.012-0.044,0.036-0.053,0.062c-0.009,0.027-0.006,0.057,0.006,0.082l4.366,8.592c0.026,0.053,0.092,0.072,0.144,0.046
			l1.848-0.916c0.037-0.019,0.06-0.058,0.06-0.097c0-0.016-0.003-0.031-0.011-0.046c0,0-1.789-3.69-1.878-3.876
			c0.173-0.081,2.282-1.069,2.456-1.151c0.085,0.189,1.777,3.923,1.777,3.923c0.025,0.053,0.089,0.077,0.142,0.053l1.875-0.829
			c0.055-0.024,0.081-0.087,0.058-0.142l-3.814-8.851c-0.012-0.026-0.031-0.047-0.058-0.058
			C53.535,45.45,53.506,45.452,53.481,45.462 M53.467,45.703c0.083,0.19,3.648,8.469,3.728,8.655
			c-0.166,0.074-1.518,0.671-1.683,0.744c-0.084-0.184-1.78-3.925-1.78-3.925c-0.012-0.026-0.033-0.047-0.06-0.057
			c-0.026-0.009-0.057-0.009-0.081,0.003l-2.654,1.245c-0.027,0.012-0.046,0.033-0.056,0.061c-0.003,0.011-0.005,0.022-0.005,0.034
			c0,0.016,0.004,0.033,0.011,0.048c0,0,1.875,3.871,1.88,3.878c-0.163,0.081-1.495,0.741-1.66,0.823
			c-0.09-0.181-4.175-8.216-4.268-8.401c0.165-0.082,1.652-0.82,1.817-0.903c0.084,0.175,1.708,3.525,1.708,3.525
			c0.026,0.053,0.091,0.074,0.143,0.049l2.677-1.254c0.039-0.019,0.064-0.059,0.064-0.099c0-0.014-0.004-0.03-0.01-0.044
			c0,0-1.537-3.389-1.617-3.566C51.791,46.445,53.298,45.777,53.467,45.703z"/>
		<path fill="#FFFFFE" d="M73.134,48.189c0.124,0.487-0.507,0.938-1.004,1.072c-1.596,0.434-2.71,0.758-4.294,1.252
			c-0.495,0.155-1.271,0.116-1.428-0.364c-0.982-3.01-1.523-4.664-2.506-7.675c-0.157-0.479,0.509-0.988,1.047-1.156
			c1.724-0.537,2.936-0.891,4.674-1.363c0.543-0.147,1.375-0.075,1.499,0.414C71.911,43.437,72.344,45.122,73.134,48.189
			 M69.077,41.191c-1.005,0.277-2.005,0.569-3.002,0.875c0.735,2.404,1.471,4.809,2.207,7.212c0.934-0.286,1.871-0.559,2.809-0.819
			C70.42,46.037,69.748,43.614,69.077,41.191z"/>
		<path fill="#FFFFFE" d="M69.593,39.852l-4.677,1.364c-0.375,0.118-0.868,0.416-1.063,0.794l-0.054,0.499l2.506,7.674
			c0.187,0.57,1.042,0.595,1.562,0.433c0.001,0,4.291-1.25,4.291-1.25c0.522-0.143,1.228-0.624,1.08-1.204l-2.013-7.819
			l-0.313-0.392C70.545,39.737,69.971,39.75,69.593,39.852 M66.509,50.116l-2.506-7.675l0.041-0.333
			c0.16-0.311,0.591-0.581,0.936-0.689l4.669-1.361c0.347-0.095,0.855-0.098,1.156,0.078l0.213,0.26c0,0,2.012,7.818,2.012,7.819
			c0.009,0.033,0.013,0.066,0.013,0.099c0,0.379-0.53,0.732-0.941,0.844l-4.298,1.252C67.359,50.551,66.643,50.525,66.509,50.116z"
			/>
		<path fill="#FFFFFE" d="M69.048,41.088l-3.004,0.876c-0.028,0.007-0.051,0.025-0.064,0.051c-0.014,0.025-0.016,0.055-0.007,0.081
			l2.208,7.213c0.016,0.056,0.077,0.087,0.133,0.07l2.806-0.818c0.057-0.016,0.09-0.075,0.075-0.131l-2.015-7.268
			c-0.008-0.027-0.026-0.051-0.051-0.065C69.103,41.083,69.075,41.08,69.048,41.088 M69.002,41.324
			c0.055,0.201,1.903,6.867,1.959,7.063c-0.185,0.053-2.425,0.707-2.607,0.76c-0.061-0.194-2.085-6.809-2.146-7.008
			C66.394,42.084,68.817,41.378,69.002,41.324z"/>
		<path fill="#FFFFFE" d="M83.52,37.088c0.41,2.833,0.82,5.667,1.231,8.501c0.883-0.128,1.767-0.244,2.654-0.351
			c-0.342-2.844-0.683-5.687-1.025-8.529c0.726-0.088,1.45-0.168,2.178-0.242c0.297,2.932,0.594,5.864,0.892,8.797
			c0.047,0.465-0.411,0.84-1.144,0.922c-1.552,0.178-2.631,0.32-4.177,0.552c-0.712,0.109-1.266-0.093-1.349-0.591
			c-0.475-2.909-0.952-5.818-1.428-8.727C82.073,37.304,82.797,37.193,83.52,37.088"/>
		<path fill="#FFFFFE" d="M88.546,36.362l-2.179,0.24c-0.029,0.004-0.054,0.018-0.072,0.041c-0.015,0.019-0.022,0.042-0.022,0.065
			c0,0.005,0.989,8.24,1.013,8.438c-0.188,0.024-2.258,0.299-2.445,0.324c-0.03-0.205-1.216-8.396-1.216-8.396
			c-0.003-0.028-0.019-0.054-0.042-0.07c-0.022-0.017-0.05-0.025-0.078-0.02l-2.17,0.334c-0.029,0.003-0.054,0.019-0.07,0.042
			c-0.018,0.023-0.023,0.052-0.02,0.08l1.429,8.727c0.089,0.536,0.667,0.802,1.469,0.682l4.173-0.554
			c0.795-0.089,1.293-0.507,1.24-1.039l-0.893-8.797c-0.002-0.029-0.017-0.054-0.04-0.073
			C88.602,36.368,88.574,36.358,88.546,36.362 M88.461,36.586c0.021,0.209,0.882,8.69,0.882,8.69
			c0.001,0.018,0.001,0.037,0.001,0.054c0,0.381-0.413,0.679-1.051,0.751l-4.182,0.553c-0.539,0.082-1.145-0.007-1.225-0.504
			c0,0-1.377-8.411-1.412-8.619c0.184-0.028,1.773-0.273,1.955-0.301c0.031,0.209,1.216,8.395,1.216,8.395
			c0.009,0.058,0.062,0.099,0.122,0.091l2.651-0.351c0.054-0.007,0.095-0.054,0.095-0.105c0-0.004-0.988-8.23-1.012-8.435
			C86.681,36.783,88.279,36.607,88.461,36.586z"/>
		<path fill="#FFFFFE" d="M100.908,42.195c-0.001,0.751-0.004,1.504-0.006,2.258c0.58,0.001,1.158,0.007,1.738,0.018
			c0.014-0.726,0.026-1.454,0.041-2.181c-1.127-1.001-2.289-1.986-3.478-2.952c-0.24-0.211-0.417-0.397-0.42-0.625
			c-0.014-0.82-0.019-1.199-0.032-2.054c-0.007-0.405,0.545-0.793,1.327-0.797c1.315-0.003,2.298,0.008,3.614,0.041
			c0.849,0.022,1.326,0.384,1.31,0.85c-0.022,0.655-0.051,1.311-0.073,1.966c-0.714-0.026-1.424-0.047-2.137-0.06
			c0.014-0.576,0.021-1.152,0.033-1.728c-0.618-0.012-1.238-0.019-1.859-0.021c-0.001,0.563-0.003,1.127-0.004,1.69
			c1.132,0.929,2.234,1.875,3.311,2.836c0.289,0.286,0.533,0.548,0.521,0.825c-0.04,1.072-0.054,1.438-0.094,2.509
			c-0.02,0.441-0.503,0.788-1.262,0.768c-1.211-0.03-2.111-0.04-3.322-0.037c-0.634,0.002-1.233-0.279-1.243-0.783
			c-0.012-0.836-0.025-1.673-0.038-2.508C99.528,42.196,100.22,42.192,100.908,42.195"/>
		<path fill="#FFFFFE" d="M98.857,36.183l-0.21,0.477l0.032,2.054c0.003,0.282,0.227,0.503,0.456,0.705
			c0.004,0.002,3.45,2.927,3.473,2.948c-0.032,0.004-0.051,1.011-0.051,1.011s-0.017,0.812-0.02,0.985
			c-0.178-0.002-1.354-0.014-1.528-0.017c0.001-0.174,0.009-2.15,0.009-2.15c0-0.028-0.012-0.056-0.031-0.076
			c-0.021-0.02-0.047-0.031-0.075-0.031L98.837,42.1c-0.029,0-0.055,0.012-0.075,0.032c-0.02,0.021-0.031,0.049-0.03,0.078
			l0.039,2.508c0.009,0.586,0.686,0.891,1.35,0.889l3.32,0.037c0.785,0.022,1.35-0.336,1.369-0.87c0,0,0.097-2.525,0.097-2.532
			c0-0.307-0.242-0.571-0.556-0.882c-0.004-0.003-3.3-2.826-3.314-2.84c0.031-0.002,0.039-1.226,0.04-1.502
			c0.179,0.002,1.465,0.017,1.644,0.02c-0.003,0.164-0.031,1.621-0.031,1.621c0,0.058,0.047,0.106,0.105,0.108l2.135,0.06
			c0.057,0.002,0.107-0.045,0.109-0.103l0.075-1.966c0.008-0.201-0.064-0.388-0.207-0.542c-0.242-0.257-0.668-0.406-1.206-0.419
			l-3.618-0.04C99.576,35.758,99.119,35.917,98.857,36.183 M102.749,44.473l0.041-2.182c-0.036-0.082-3.517-3.036-3.517-3.036
			c-0.238-0.21-0.378-0.368-0.38-0.544l-0.032-2.055l0.15-0.323c0.22-0.226,0.621-0.362,1.069-0.364l3.613,0.04
			c0.479,0.013,0.853,0.138,1.053,0.353c0.102,0.106,0.15,0.229,0.15,0.365c0,0.006-0.063,1.714-0.07,1.882
			c-0.184-0.005-1.739-0.05-1.924-0.054c0.004-0.165,0.031-1.624,0.031-1.624c0-0.028-0.012-0.054-0.029-0.074
			c-0.021-0.021-0.047-0.033-0.075-0.033l-1.86-0.021c-0.029,0-0.057,0.011-0.076,0.031c-0.021,0.021-0.031,0.046-0.031,0.076
			l-0.006,1.69c0.039,0.083,3.349,2.916,3.349,2.916c0.271,0.268,0.495,0.511,0.485,0.741l-0.096,2.509
			c-0.017,0.403-0.5,0.683-1.15,0.664l-3.324-0.036c-0.559,0.002-1.127-0.23-1.136-0.678c0-0.001-0.028-1.92-0.036-2.401
			c0.182-0.001,1.672-0.009,1.854-0.011c0,0.177-0.007,2.15-0.007,2.15c0,0.058,0.048,0.105,0.105,0.106l1.738,0.019
			C102.699,44.578,102.748,44.531,102.749,44.473z"/>
		<path fill="#FFFFFE" d="M117.198,46.771c-0.665-0.102-1.329-0.198-1.995-0.288c0.384-2.836,0.77-5.675,1.15-8.512
			c-0.775-0.106-1.555-0.203-2.332-0.292c0.041-0.347,0.08-0.694,0.121-1.04c2.295,0.263,4.584,0.594,6.86,0.992
			c-0.062,0.344-0.117,0.687-0.178,1.031c-0.774-0.134-1.55-0.262-2.323-0.38C118.068,41.111,117.632,43.942,117.198,46.771"/>
		<path fill="#FFFFFE" d="M114.075,36.555c-0.022,0.018-0.037,0.044-0.039,0.072c0,0-0.121,1.047-0.121,1.052
			c0,0.053,0.041,0.1,0.095,0.105c0,0,2.03,0.255,2.225,0.279c-0.027,0.204-1.137,8.414-1.137,8.419
			c0,0.053,0.038,0.099,0.092,0.106l1.992,0.288c0.06,0.009,0.113-0.031,0.121-0.089c0,0,1.262-8.183,1.293-8.384
			c0.191,0.032,2.213,0.363,2.213,0.363c0.058,0.01,0.113-0.029,0.123-0.087l0.18-1.031c0.012-0.059-0.026-0.113-0.086-0.125
			c-2.266-0.395-4.575-0.729-6.871-0.993C114.127,36.53,114.098,36.538,114.075,36.555 M114.229,36.814c0,0,0.004-0.03,0.006-0.053
			c2.224,0.257,4.455,0.58,6.646,0.96c-0.023,0.136-0.119,0.686-0.145,0.818c-0.19-0.032-2.217-0.364-2.217-0.364
			c-0.028-0.005-0.059,0.003-0.08,0.019c-0.021,0.017-0.037,0.042-0.041,0.07c0,0-1.263,8.184-1.293,8.385
			c-0.18-0.025-1.604-0.231-1.783-0.258c0.027-0.197,1.138-8.417,1.138-8.422c0-0.021-0.006-0.046-0.021-0.063
			c-0.019-0.022-0.043-0.038-0.071-0.041c0,0-2.033-0.255-2.228-0.279C114.16,37.423,114.229,36.814,114.229,36.814z"/>
		<path fill="#FFFFFE" d="M134.934,50.221c-0.158,0.478-0.936,0.516-1.43,0.361c-1.582-0.498-2.695-0.824-4.292-1.261
			c-0.498-0.137-1.128-0.588-1.002-1.076c0.796-3.065,1.231-4.75,2.028-7.813c0.126-0.489,0.955-0.56,1.501-0.411
			c1.735,0.476,2.948,0.832,4.671,1.372c0.539,0.17,1.204,0.68,1.044,1.159C136.466,45.559,135.923,47.213,134.934,50.221
			 M135.283,42.138c-0.997-0.307-1.998-0.601-3-0.881c-0.678,2.422-1.354,4.843-2.031,7.265c0.938,0.262,1.875,0.538,2.809,0.825
			C133.801,46.944,134.542,44.541,135.283,42.138z"/>
		<path fill="#FFFFFE" d="M130.449,40.013l-0.313,0.391l-2.03,7.813c-0.147,0.581,0.556,1.063,1.078,1.206l4.289,1.261
			c0.519,0.164,1.372,0.141,1.563-0.43l2.521-7.668l-0.054-0.498c-0.192-0.379-0.688-0.68-1.063-0.798l-4.674-1.373
			C131.389,39.814,130.814,39.8,130.449,40.013 M133.536,50.479l-4.296-1.262c-0.446-0.122-1.034-0.529-0.928-0.946l2.028-7.813
			l0.216-0.26c0.299-0.174,0.807-0.169,1.151-0.075l4.667,1.372c0.345,0.108,0.777,0.38,0.938,0.69l0.041,0.333
			c0,0-2.522,7.669-2.522,7.67C134.695,50.597,133.979,50.62,133.536,50.479z"/>
		<path fill="#FFFFFE" d="M132.23,41.163c-0.026,0.013-0.043,0.038-0.054,0.065l-2.028,7.265c-0.018,0.056,0.019,0.116,0.074,0.132
			l2.807,0.824c0.055,0.016,0.115-0.014,0.135-0.071l2.223-7.208c0.008-0.027,0.004-0.058-0.009-0.083
			c-0.015-0.025-0.036-0.044-0.063-0.052l-3.004-0.882C132.283,41.145,132.254,41.148,132.23,41.163 M131.369,44.917
			c0,0,0.932-3.33,0.986-3.528c0.186,0.054,2.606,0.767,2.793,0.82c-0.063,0.199-2.102,6.811-2.16,7.004
			c-0.185-0.054-2.422-0.712-2.604-0.765C130.438,48.256,131.369,44.917,131.369,44.917z"/>
		<path fill="#FFFFFE" d="M147.85,50.637c-0.703,1.547-1.406,3.094-2.106,4.641c-0.579-0.264-1.161-0.521-1.743-0.774
			c1.275-2.948,2.555-5.895,3.831-8.843c0.354,0.155,0.711,0.31,1.063,0.466c0.516,2.154,0.967,4.305,1.359,6.45
			c0.77-1.58,1.537-3.161,2.307-4.741c0.623,0.303,1.246,0.613,1.866,0.928c-1.454,2.864-2.909,5.728-4.364,8.591
			c-0.334-0.168-0.664-0.335-1-0.5C148.717,54.787,148.313,52.713,147.85,50.637"/>
		<path fill="#FFFFFE" d="M147.79,45.562c-0.026,0.01-0.047,0.031-0.06,0.057l-3.832,8.843c-0.022,0.054,0.002,0.117,0.057,0.14
			l1.74,0.774c0.055,0.023,0.117,0,0.143-0.053c0,0,1.729-3.804,1.969-4.336c0.114,0.585,1.15,5.886,1.15,5.886
			c0.006,0.033,0.027,0.064,0.059,0.079l0.998,0.499c0.051,0.026,0.116,0.007,0.144-0.046l4.366-8.592
			c0.014-0.025,0.018-0.054,0.007-0.082c-0.009-0.026-0.027-0.05-0.054-0.062l-1.869-0.93c-0.025-0.013-0.056-0.014-0.082-0.005
			c-0.026,0.009-0.049,0.029-0.062,0.055c0,0-1.928,3.963-2.171,4.461c-0.379-2.048-0.811-4.115-1.296-6.147
			c-0.062-0.073-1.125-0.54-1.125-0.54C147.846,45.552,147.816,45.55,147.79,45.562 M146.012,50.125c0,0,1.793-4.134,1.874-4.323
			c0.161,0.071,0.964,0.423,0.964,0.423c0.449,2.057,0.907,4.226,1.299,6.371c0.01,0.045,0.045,0.08,0.093,0.087
			c0.045,0.005,0.092-0.018,0.11-0.06c0,0,2.168-4.458,2.258-4.644c0.162,0.081,1.513,0.751,1.673,0.832
			c-0.093,0.185-4.175,8.219-4.267,8.401c-0.148-0.075-0.779-0.39-0.856-0.429c-0.021-0.107-1.204-6.169-1.204-6.169
			c-0.012-0.045-0.046-0.078-0.094-0.085c-0.047-0.004-0.092,0.022-0.11,0.064c0,0-1.979,4.359-2.063,4.545
			c-0.164-0.073-1.386-0.615-1.549-0.688C144.219,54.263,146.012,50.125,146.012,50.125z"/>
		<path fill="#E57200" d="M39.266,81.226c-2.981,0.405-5.958,0.841-8.933,1.306c-0.162,0.025-0.311,0.097-0.44,0.196l-3.31,0.504
			c-0.353,0.053-0.636,0.321-0.709,0.671c-0.074,0.349,0.077,0.707,0.379,0.898l3.228,2.051c0,8.497,0,16.994,0,25.489
			c0,0.476,0.382,0.798,0.852,0.724c3.045-0.478,6.092-0.92,9.145-1.334c4.059-0.556,8.164-2.729,8.164-6.525
			c0-6.45,0-12.901,0-19.352C47.642,81.923,43.431,80.655,39.266,81.226z M36.363,86.474c0.797-0.113,1.844-0.259,1.844-0.259
			c1.26-0.174,2.532,0.116,2.532,1.139c0,5.935,0,11.869,0,17.805c0,0.946-1.079,1.698-2.745,1.931c0,0-0.895,0.125-1.631,0.229
			C36.363,105.795,36.363,87.998,36.363,86.474z"/>
		<path fill="#E57200" d="M69.833,78.124c-1.72,0.115-3.439,0.241-5.159,0.377c-0.368,0.029-0.696,0.291-0.813,0.649
			c0-0.001-2.239,6.877-3.257,10.008c-1.093-2.933-3.519-9.432-3.519-9.43c-0.122-0.328-0.444-0.523-0.805-0.488
			c-1.771,0.173-3.539,0.355-5.307,0.548c-0.282,0.031-0.546,0.2-0.705,0.45c-0.101,0.156-0.151,0.331-0.151,0.502
			c0,0.103,0.019,0.204,0.056,0.299c-0.001-0.014,6.678,16.772,6.79,17.067c0,0.308,0,10.744,0,10.744
			c0,0.475,0.383,0.818,0.856,0.774c1.736-0.164,3.471-0.315,5.206-0.459c0.474-0.039,0.858-0.453,0.858-0.927
			c0,0,0-10.438,0-10.743c0.108-0.313,6.751-18.278,6.752-18.264c0.036-0.101,0.056-0.205,0.055-0.307
			c0.001-0.172-0.051-0.338-0.15-0.479C70.379,78.226,70.116,78.106,69.833,78.124z"/>
		<path fill="#E57200" d="M91.392,77.195c-1.615,0.031-3.231,0.07-4.847,0.119c-0.474,0.015-0.858,0.41-0.858,0.883
			c0,0,0,8.65,0,12.659c-2.204-3.629-7.828-12.789-7.828-12.78c-0.154-0.251-0.435-0.396-0.738-0.381
			c-0.904,0.046-1.81,0.095-2.714,0.146c-0.473,0.028-0.858,0.434-0.858,0.908c0,9.605,0,19.212,0,28.817
			c0,0.475,0.385,0.834,0.858,0.808c1.615-0.093,3.229-0.175,4.845-0.248c0.473-0.022,0.858-0.424,0.858-0.897c0,0,0-8.287,0-12.188
			c2.188,3.471,7.727,12.352,7.727,12.359c0.155,0.25,0.433,0.396,0.732,0.393c0.941-0.025,1.883-0.046,2.823-0.063
			c0.475-0.011,0.859-0.399,0.859-0.873c0-9.606,0-19.212,0-28.819C92.251,77.562,91.867,77.186,91.392,77.195z"/>
		<path fill="#E57200" d="M110.71,77.88c-0.097-0.381-0.44-0.653-0.831-0.663c-1.794-0.038-3.587-0.066-5.381-0.083
			c-0.391-0.005-0.732,0.255-0.832,0.632c-1.104,4.196-2.207,8.399-3.311,12.604l-4.433-3.303c-0.351-0.261-0.841-0.216-1.138,0.103
			c-0.297,0.32-0.308,0.813-0.023,1.143l4.702,5.457c-1.121,4.27-2.241,8.542-3.361,12.819c-0.068,0.259-0.012,0.53,0.15,0.739
			s0.414,0.329,0.68,0.326c1.723-0.01,3.446-0.012,5.169-0.006c0.396,0.002,0.739-0.267,0.834-0.648
			c0-0.001,0.814-3.343,1.752-7.168l6.631,7.697c0.188,0.215,0.464,0.322,0.744,0.293c0.021-0.002,0.039-0.012,0.061-0.014
			c1.736,0.045,3.475,0.101,5.213,0.166c0.266,0.012,0.516-0.104,0.68-0.306c0.162-0.202,0.219-0.474,0.152-0.731
			C115.684,97.23,113.195,87.545,110.71,77.88z M108.672,96.567l-2.695-2.009c0.469-1.917,0.883-3.61,1.145-4.674
			C107.452,91.313,108.044,93.861,108.672,96.567z"/>
		<path fill="#E57200" d="M144.402,79.297c-1.273-0.125-2.549-0.246-3.823-0.362c-0.343-0.031-0.651,0.145-0.786,0.448
			c0.001-0.01-5.383,12.034-6.12,13.692c-0.724-1.773-6.021-14.606-6.021-14.598c-0.135-0.324-0.444-0.549-0.788-0.569
			c-1.331-0.08-2.66-0.154-3.992-0.221c-0.474-0.023-0.856,0.341-0.856,0.814c0,9.607,0,19.212,0,28.819
			c0,0.474,0.383,0.875,0.856,0.897c1.687,0.087,3.37,0.183,5.055,0.285c0.474,0.028,0.857-0.329,0.857-0.804c0,0,0-6.237,0-10.84
			c1.418,3.909,3.126,8.633,3.126,8.633c0.124,0.344,0.445,0.591,0.805,0.615c0.564,0.041,1.133,0.082,1.699,0.127
			c0.355,0.027,0.675-0.17,0.802-0.491c0,0,1.821-4.646,3.285-8.377c0,4.616,0,11.06,0,11.06c0,0.475,0.384,0.891,0.854,0.932
			c1.684,0.146,3.367,0.304,5.047,0.471c0.473,0.047,0.854-0.299,0.854-0.771c0-9.605,0-19.213,0-28.818
			C145.259,79.766,144.875,79.344,144.402,79.297z"/>
		<path fill="#E57200" d="M173.988,83.937c-0.07-0.351-0.353-0.62-0.704-0.677l-5.57-0.898c-0.382-0.154-0.763-0.263-1.116-0.315
			c-3.805-0.567-7.615-1.086-11.431-1.556c-1.688-0.211-4.034,0.633-4.034,2.718c0,8.046,0,16.094,0,24.143
			c0,2.084,2.346,3.463,4.034,3.674c3.815,0.471,7.626,0.988,11.431,1.557c1.688,0.249,4.021-0.494,4.021-2.577
			c0-7.771,0-15.54,0-23.311l2.984-1.86C173.906,84.644,174.061,84.287,173.988,83.937z M163.736,86.474c0,1.523,0,19.321,0,20.844
			c-1.162-0.17-4.539-0.629-5.701-0.775c0-1.523,0-19.321,0-20.844C159.197,85.846,162.574,86.304,163.736,86.474z"/>
		<path fill="#FFFFFE" d="M39.27,82.2c-2.98,0.41-5.958,0.852-8.932,1.322c0,0.001,0,0.002,0,0.004
			c-1.208,0.184-2.417,0.369-3.626,0.552c1.209,0.768,2.417,1.536,3.626,2.304c0,8.653,0,17.308,0,25.959
			c3.044-0.481,6.09-0.932,9.142-1.35c3.704-0.513,7.309-2.413,7.309-5.582c0-7.921,0-11.43,0-19.35
			C46.789,82.739,43.08,81.672,39.27,82.2z M41.598,105.159c0,1.323-1.218,2.571-3.6,2.905c-0.828,0.117-1.654,0.234-2.482,0.355
			c0-7.52,0-15.038,0-22.557c0.898-0.132,1.797-0.261,2.696-0.387c2.009-0.282,3.387,0.483,3.387,1.876
			C41.596,93.92,41.598,98.596,41.598,105.159z"/>
		<path fill="#FFFFFE" d="M60.637,91.853c-1.453-3.895-2.903-7.782-4.354-11.663c-1.77,0.175-3.539,0.36-5.307,0.556
			c2.28,5.72,4.563,11.458,6.847,17.213c0,3.633,0,7.268,0,10.9c1.733-0.164,3.468-0.319,5.205-0.465c0-3.636,0-7.268,0-10.899
			c2.268-6.163,4.536-12.307,6.806-18.434c-1.72,0.117-3.439,0.243-5.158,0.38C63.329,83.573,61.982,87.711,60.637,91.853z"/>
		<path fill="#FFFFFE" d="M86.545,94.009c-3.143-5.161-6.284-10.288-9.424-15.383c-0.903,0.046-1.81,0.096-2.714,0.148
			c0,9.606,0,19.213,0,28.819c1.615-0.094,3.229-0.177,4.845-0.253c0-5.08,0-10.159,0-15.24c3.105,4.935,6.21,9.902,9.317,14.902
			c0.942-0.023,1.883-0.046,2.824-0.063c0-9.607,0-19.213,0-28.819c-1.616,0.031-3.232,0.071-4.848,0.12
			C86.545,83.496,86.545,88.752,86.545,94.009z"/>
		<path fill="#FFFFFE" d="M109.879,78.144c-1.794-0.04-3.587-0.068-5.381-0.086c-1.21,4.597-2.42,9.2-3.63,13.808l-5.446-4.059
			l4.991,5.792c-1.16,4.418-2.32,8.838-3.481,13.266c1.724-0.012,3.447-0.014,5.169-0.006c0.717-2.938,1.436-5.868,2.15-8.803
			l7.696,8.93c0.002,0.01,0.004,0.019,0.006,0.027c0.006,0,0.012,0,0.019,0l0.008,0.008l0.004-0.008
			c1.783,0.049,3.565,0.105,5.353,0.176C114.85,97.488,112.366,87.806,109.879,78.144z M105.012,94.954
			c0.646-2.641,1.291-5.286,1.938-7.924c0.125,0.001,0.25,0.004,0.375,0.005c0.9,3.881,1.802,7.77,2.701,11.656L105.012,94.954z"/>
		<path fill="#FFFFFE" d="M134.041,94.499c-0.246-0.019-0.495-0.038-0.742-0.057c-2.145-5.214-4.291-10.415-6.438-15.599
			c-1.328-0.08-2.657-0.154-3.989-0.222c0,9.607,0,19.212,0,28.818c1.687,0.086,3.369,0.184,5.055,0.289c0-5.207,0-10.413,0-15.618
			c1.597,4.4,3.192,8.81,4.786,13.227c0.566,0.042,1.135,0.085,1.7,0.128c1.647-4.21,3.296-8.411,4.942-12.604
			c0,5.244,0,10.488,0,15.73c1.684,0.148,3.364,0.309,5.045,0.479c0-9.607,0-19.214,0-28.82c-1.274-0.127-2.547-0.249-3.822-0.365
			C138.4,84.738,136.223,89.61,134.041,94.499z"/>
		<path fill="#FFFFFE" d="M173.148,84.105c-2.067-0.333-4.135-0.666-6.203-1c-0.119-0.03-0.238-0.057-0.354-0.074
			c-4.229-0.634-7.189-1.042-11.428-1.575c-1.323-0.167-3.182,0.444-3.182,1.954c0,9.468,0,14.674,0,24.141
			c0,1.51,1.856,2.559,3.182,2.725c4.236,0.531,7.199,0.941,11.428,1.574c1.318,0.197,3.169-0.341,3.167-1.849
			c0-9.347,0-14.543,0-23.785C170.891,85.513,172.02,84.809,173.148,84.105z M164.584,108.422c-2.466-0.359-4.936-0.701-7.406-1.021
			c0-7.52,0-15.038,0-22.558c2.473,0.319,4.94,0.66,7.406,1.021C164.584,93.384,164.584,100.902,164.584,108.422z"/>
		<path fill="#2D2926" d="M123.491,167.406v-2.905h-1.125v-0.508h2.823v0.508h-1.125v2.905H123.491 M125.564,167.406v-3.413h0.838
			l0.863,2.728l0.842-2.728h0.83v3.413h-0.521v-2.862l-0.884,2.862h-0.535l-0.909-2.905v2.905H125.564z"/>
	</g>
</g>
<g id="Content">
</g>
</svg>
