<?xml version="1.0" encoding="utf-8"?>
<!-- Generator: Adobe Illustrator 14.0.0, SVG Export Plug-In . SVG Version: 6.00 Build 43363)  -->
<!DOCTYPE svg PUBLIC "-//W3C//DTD SVG 1.1//EN" "http://www.w3.org/Graphics/SVG/1.1/DTD/svg11.dtd">
<svg version="1.1" id="Layer_1" xmlns="http://www.w3.org/2000/svg" xmlns:xlink="http://www.w3.org/1999/xlink" x="0px" y="0px"
	 width="200px" height="200px" viewBox="0 0 200 200" enable-background="new 0 0 200 200" xml:space="preserve">
<g id="Background">
	<g>
		
			<radialGradient id="SVGID_1_" cx="-93.5117" cy="1079.7051" r="73.1663" gradientTransform="matrix(1 0 0 1 188 -977)" gradientUnits="userSpaceOnUse">
			<stop  offset="0.3609" style="stop-color:#0A4699"/>
			<stop  offset="0.6706" style="stop-color:#0A4699"/>
			<stop  offset="1" style="stop-color:#002961"/>
		</radialGradient>
		<path fill="url(#SVGID_1_)" d="M28.72,34.974c0,0,29.574-11.586,64.436-11.586c0.358,0,0.716-0.003,1.075-0.004h0.257h0.258
			c0.358,0.001,0.716,0.004,1.075,0.004c34.863,0,64.435,11.586,64.435,11.586c0.451,5.756,0.719,12.556,0.669,18.315
			c-0.255,29.815-6.927,58.008-19.297,81.531c-11.915,22.658-28.649,39.414-47.14,47.207c-18.489-7.793-35.225-24.549-47.14-47.207
			c-12.37-23.522-19.042-51.715-19.296-81.531C28.002,47.53,28.268,40.73,28.72,34.974z"/>
		<polygon fill="#ACB3B8" points="123.656,27.95 124.863,31.748 128.861,31.747 125.609,34.057 126.875,37.849 123.658,35.474 
			120.441,37.85 121.705,34.058 118.453,31.749 122.451,31.749 		"/>
		<polygon fill="#ACB3B8" points="138.589,35.479 139.796,39.276 143.795,39.275 140.543,41.585 141.809,45.377 138.591,43.003 
			135.376,45.379 136.639,41.586 133.387,39.277 137.384,39.277 		"/>
		<polygon fill="#ACB3B8" points="143.646,50.633 144.852,54.431 148.852,54.43 145.6,56.74 146.863,60.532 143.646,58.157 
			140.434,60.533 141.693,56.741 138.443,54.431 142.439,54.432 		"/>
		<polygon fill="#ACB3B8" points="136.051,65.163 137.258,68.96 141.257,68.958 138.005,71.269 139.27,75.061 136.053,72.687 
			132.837,75.062 134.1,71.27 130.848,68.96 134.846,68.96 		"/>
		
			<linearGradient id="SVGID_2_" gradientUnits="userSpaceOnUse" x1="-165.4302" y1="999.1006" x2="-21.5957" y2="999.1006" gradientTransform="matrix(1 0 0 1 188 -977)">
			<stop  offset="0.0349" style="stop-color:#AEB0B3"/>
			<stop  offset="0.4709" style="stop-color:#E3E3E4"/>
			<stop  offset="0.8779" style="stop-color:#AEB0B3"/>
		</linearGradient>
		<path fill="url(#SVGID_2_)" d="M93.147,22.394c0.36,0,0.721-0.003,1.082-0.004h0.258h0.259c0.361,0,0.721,0.004,1.082,0.004
			c34.865,0,64.688,11.559,65.333,11.805c0,0,0.001,0.001,0.001,0.002l5.242-10.783l-3.914-1.469
			c-20.295-7.616-43.309-11.746-66.556-11.944C95.452,10.001,94.97,10,94.488,10s-0.964,0.001-1.447,0.005
			c-23.248,0.198-46.262,4.329-66.556,11.944l-3.915,1.469l5.242,10.781C28.458,33.952,58.281,22.394,93.147,22.394z"/>
		<path fill="#5A5B5D" d="M37.569,24.109v3.983l-1.186,0.395v-3.982l-2.1,0.7v-0.93l5.375-1.791v0.93L37.569,24.109z"/>
		<path fill="#5A5B5D" d="M41.447,23.091c0-0.457,0.083-0.788,0.249-0.994c0.165-0.205,0.473-0.371,0.925-0.499l3.483-0.983
			c0.452-0.127,0.76-0.135,0.925-0.023c0.165,0.112,0.247,0.397,0.247,0.854v2.59c0,0.457-0.083,0.788-0.247,0.993
			c-0.165,0.205-0.473,0.372-0.925,0.5l-3.483,0.982c-0.452,0.127-0.76,0.135-0.925,0.022c-0.166-0.112-0.249-0.396-0.249-0.854
			V23.091z M42.548,25.609l3.628-1.024v-3.113l-3.628,1.023V25.609z"/>
		<path fill="#5A5B5D" d="M50.914,19.391v3.99l3.173-0.731v-3.99l1.113-0.257v3.751c0,0.457-0.083,0.784-0.25,0.981
			c-0.167,0.197-0.479,0.349-0.937,0.454l-3.025,0.697c-0.458,0.105-0.77,0.098-0.937-0.022c-0.167-0.12-0.251-0.409-0.251-0.866
			v-3.751L50.914,19.391z"/>
		<path fill="#5A5B5D" d="M62.025,17.949l-3.174,0.583v1.057l3.022-0.556c0.463-0.085,0.781-0.064,0.952,0.063
			c0.173,0.127,0.259,0.419,0.259,0.876v0.676c0,0.457-0.086,0.781-0.258,0.971c-0.171,0.19-0.488,0.328-0.95,0.413l-2.987,0.549
			c-0.462,0.085-0.778,0.064-0.95-0.063s-0.258-0.419-0.258-0.876l0.017-0.234l0.976-0.181v0.47l3.417-0.628v-1.124L59.075,20.5
			c-0.461,0.085-0.777,0.063-0.945-0.064s-0.253-0.42-0.253-0.876v-0.542c0-0.458,0.084-0.781,0.253-0.97
			c0.168-0.189,0.484-0.328,0.945-0.412l2.744-0.504c0.443-0.082,0.753-0.063,0.932,0.057c0.178,0.12,0.267,0.386,0.267,0.798v0.149
			l-0.993,0.181V17.949z"/>
		<path fill="#5A5B5D" d="M71.16,20.638v-4.914l4.183-0.468c0.731-0.082,1.097,0.195,1.097,0.83v1.273
			c0,0.635-0.366,0.993-1.097,1.075l-3.066,0.343v1.735L71.16,20.638z M74.831,16.151l-2.555,0.286v1.502l2.555-0.286
			c0.177-0.02,0.3-0.053,0.369-0.099c0.095-0.069,0.143-0.187,0.143-0.354v-0.71c0-0.167-0.047-0.274-0.143-0.322
			C75.131,16.137,75.008,16.131,74.831,16.151z"/>
		<path fill="#5A5B5D" d="M78.28,16.128c0-0.457,0.085-0.771,0.257-0.941c0.17-0.171,0.491-0.272,0.959-0.306l3.609-0.253
			c0.469-0.033,0.788,0.024,0.959,0.171c0.171,0.146,0.256,0.448,0.256,0.905v2.589c0,0.458-0.085,0.772-0.256,0.942
			c-0.171,0.171-0.49,0.272-0.959,0.306l-3.609,0.253c-0.468,0.033-0.789-0.024-0.959-0.171c-0.172-0.146-0.257-0.448-0.257-0.906
			V16.128z M79.42,18.876l3.761-0.264v-3.113l-3.761,0.264V18.876z"/>
		<path fill="#5A5B5D" d="M88.053,14.393v3.989l3.254-0.086v-3.989l1.142-0.031v3.752c0,0.457-0.085,0.767-0.257,0.93
			c-0.171,0.163-0.492,0.251-0.961,0.263l-3.102,0.083c-0.47,0.012-0.791-0.058-0.962-0.212c-0.172-0.154-0.257-0.46-0.257-0.917
			v-3.751L88.053,14.393z"/>
		<path fill="#5A5B5D" d="M95.156,19.177v-4.913l4.208,0.063c0.737,0.011,1.104,0.333,1.104,0.968v1.152
			c0,0.635-0.368,0.947-1.104,0.935l-0.646-0.009l2.265,1.891l-1.635-0.025l-1.981-1.887l-1.085-0.016v1.856L95.156,19.177z
			 M98.851,15.157l-2.57-0.039v1.38l2.57,0.039c0.178,0.002,0.302-0.015,0.372-0.052c0.095-0.056,0.142-0.167,0.142-0.333v-0.595
			c0-0.166-0.047-0.278-0.142-0.337C99.152,15.181,99.028,15.16,98.851,15.157z"/>
		<path fill="#5A5B5D" d="M112.492,15.962l-3.559-0.295v3.113l3.559,0.295v-1.018l-1.86-0.155v-0.837l2.97,0.246v1.618
			c0,0.457-0.084,0.758-0.256,0.902c-0.171,0.145-0.49,0.197-0.957,0.159l-3.379-0.28c-0.469-0.039-0.787-0.144-0.959-0.317
			c-0.17-0.173-0.257-0.488-0.257-0.945v-2.59c0-0.457,0.087-0.758,0.257-0.902c0.172-0.145,0.49-0.198,0.959-0.159l3.379,0.28
			c0.454,0.038,0.771,0.142,0.947,0.312c0.178,0.171,0.266,0.471,0.266,0.903v0.255l-1.107-0.103L112.492,15.962L112.492,15.962z"/>
		<path fill="#5A5B5D" d="M115.25,20.252l2.759-4.567l1.097,0.137l2.797,5.263l-1.275-0.16l-0.585-1.149l-3.089-0.387l-0.567,1.005
			L115.25,20.252z M117.434,18.564l2.135,0.267L118.52,16.7L117.434,18.564z"/>
		<path fill="#5A5B5D" d="M128.389,18.119l-3.521-0.599v3.113l3.521,0.6v-0.977l-1.841-0.313v-0.838l2.938,0.5v1.576
			c0,0.457-0.086,0.75-0.254,0.88c-0.17,0.13-0.484,0.155-0.948,0.077l-3.341-0.568c-0.465-0.079-0.778-0.212-0.948-0.399
			c-0.169-0.188-0.253-0.509-0.253-0.967v-2.59c0-0.457,0.084-0.75,0.253-0.88c0.17-0.13,0.483-0.156,0.948-0.077l3.341,0.568
			c0.45,0.077,0.765,0.208,0.94,0.393c0.174,0.186,0.262,0.494,0.262,0.926v0.28l-1.098-0.207V18.119L128.389,18.119z"/>
		<path fill="#5A5B5D" d="M132.407,22.914V18l0.763,0.169l3.375,3.64c0.241,0.263,0.424,0.48,0.548,0.654
			c-0.03-0.464-0.046-0.75-0.046-0.858v-2.58l1.004,0.222v4.913l-0.762-0.168l-3.523-3.815c-0.147-0.16-0.281-0.323-0.398-0.489
			c0.029,0.325,0.047,0.588,0.047,0.792v2.657L132.407,22.914z"/>
		<path fill="#5A5B5D" d="M141.044,24.909v-4.913l4.851,1.32v0.838l-3.748-1.02v1.095l2.188,0.595v0.838l-2.188-0.595v1.219
			l3.795,1.032v0.924L141.044,24.909z"/>
		<path fill="#5A5B5D" d="M148.516,27.012V22.1l4.004,1.3c0.699,0.228,1.049,0.659,1.049,1.293v1.153c0,0.634-0.35,0.837-1.049,0.61
			l-0.617-0.2l1.869,2.461l-1.559-0.506l-1.597-2.374l-1.031-0.335v1.856L148.516,27.012z M152.029,24.079l-2.444-0.794v1.38
			l2.444,0.794c0.169,0.055,0.285,0.074,0.354,0.058c0.09-0.028,0.137-0.125,0.137-0.292V24.63c0-0.166-0.047-0.292-0.137-0.379
			C152.314,24.191,152.198,24.134,152.029,24.079z"/>
		<path fill="#959DA3" d="M46.469,135.282c5.99,11.392,13.118,21.274,21.184,29.372c8.195,8.228,17.159,14.408,26.644,18.371
			l0.19,0.08l0,0l0,0h0.001l0,0l0.19-0.08c9.484-3.963,18.449-10.146,26.643-18.371c8.065-8.098,15.193-17.98,21.186-29.372
			c12.443-23.662,19.155-52.013,19.41-81.985c0.052-6.068-0.188-12.026-0.755-19.098c-0.646-0.247-30.468-11.805-65.333-11.805
			c-0.361,0-0.721-0.003-1.082-0.004h-0.259h-0.258c-0.361,0-0.722,0.004-1.082,0.004c-34.866,0-64.689,11.559-65.334,11.805
			c-0.568,7.071-0.807,13.029-0.755,19.098C27.313,83.27,34.026,111.62,46.469,135.282z M28.72,34.974
			c0,0,29.574-11.586,64.436-11.586c0.358,0,0.716-0.003,1.075-0.004h0.257h0.258c0.358,0.001,0.716,0.004,1.075,0.004
			c34.863,0,64.435,11.586,64.435,11.586c0.451,5.756,0.719,12.556,0.669,18.315c-0.255,29.815-6.927,58.008-19.297,81.531
			c-11.915,22.658-28.649,39.414-47.14,47.207c-18.489-7.793-35.225-24.549-47.14-47.207c-12.37-23.522-19.042-51.715-19.296-81.531
			C28.002,47.53,28.268,40.73,28.72,34.974z"/>
		<path d="M164.318,113.984h-0.467v-2.063h-0.922v-0.446h2.314v0.446h-0.928v2.063H164.318z"/>
		<path d="M165.813,111.477h0.379l0.945,1.519l0.928-1.519h0.373v2.51h-0.433v-1.553c0-0.049,0.004-0.137,0.017-0.268
			c-0.043,0.111-0.082,0.204-0.116,0.264l-0.757,1.254h-0.094l-0.755-1.26c-0.048-0.078-0.09-0.16-0.12-0.258
			c0.008,0.104,0.012,0.186,0.012,0.268v1.553h-0.379V111.477L165.813,111.477z"/>
		
			<linearGradient id="SVGID_3_" gradientUnits="userSpaceOnUse" x1="-159.958" y1="1040.043" x2="-117.9561" y2="1040.043" gradientTransform="matrix(1 0 0 1 188 -977)">
			<stop  offset="0.0349" style="stop-color:#AEB0B3"/>
			<stop  offset="0.4709" style="stop-color:#F9F9F9"/>
			<stop  offset="0.5581" style="stop-color:#F9F9F9"/>
			<stop  offset="0.8779" style="stop-color:#AEB0B3"/>
		</linearGradient>
		<path fill="url(#SVGID_3_)" d="M28.988,71.119c1.807-3.81,4.421-6.018,7.849-6.516c4.523-0.653,8.932,0.442,12.062,3.062
			c4.854,4.062,4.877,10.295,4.877,10.295H42.62l2.479,9.528c0,0,16.66-0.012,19.589,0c-0.765,4.113-6.797,7.492-13.06,8.169
			c0.171,0.421,0.419,0.883,0.948,1.341c0.997,0.878,3.493,2.196,9.134,1.189l2.319-0.411c0,0-0.246,1.412,0.003,3.341l6.012-1.835
			V24.969c-5.721,0.76-11.07,1.729-15.9,2.765c-1.008,3.141-1.329,6.629-0.603,10.465c0.171,0.922,0.4,1.86,0.698,2.814
			c2.154,6.888,8.118,21.334,9.599,27.109c1.477,5.775,2.118,9.837,2.118,9.837s-3.419,0.009-5.623,0
			c-1.225-6.117-2.576-11.029-6.093-18.638c-6.458-13.972-15.117-21.301-24.229-19.97c-0.543,0.08-1.08,0.194-1.609,0.335
			c-0.254,4.543-0.39,9.355-0.354,13.602C28.103,59.307,28.42,65.258,28.988,71.119z"/>
		
			<linearGradient id="SVGID_4_" gradientUnits="userSpaceOnUse" x1="-167.3076" y1="1083.709" x2="-93.5122" y2="1083.709" gradientTransform="matrix(1 0 0 1 188 -977)">
			<stop  offset="0.0349" style="stop-color:#7B7D80"/>
			<stop  offset="0.118" style="stop-color:#828386"/>
			<stop  offset="0.2349" style="stop-color:#949698"/>
			<stop  offset="0.3718" style="stop-color:#B2B3B5"/>
			<stop  offset="0.5229" style="stop-color:#DCDCDD"/>
			<stop  offset="0.5462" style="stop-color:#E3E3E4"/>
			<stop  offset="0.8663" style="stop-color:#7B7D80"/>
		</linearGradient>
		<path fill="url(#SVGID_4_)" d="M94.487,183.105L94.487,183.105L94.487,183.105l-0.19-0.08
			c-9.485-3.963-18.449-10.146-26.644-18.371c-8.066-8.098-15.194-17.98-21.184-29.372C34.026,111.62,27.313,83.27,27.058,53.297
			c-0.052-6.068,0.187-12.026,0.755-19.098l-5.242-10.781l-0.486,4.152c-0.993,8.482-1.459,17.155-1.385,25.78
			c0.17,19.945,3.122,39.214,8.645,56.964c-0.001-0.002-0.002-0.006-0.002-0.008c-4.591,2.438-7.012,6.586-7.044,12.17
			c-0.039,6.691,0,26.859,0,27.063l0.003,1.468l28.553,3.491c11.508,16.033,25.658,27.986,40.986,34.395L94.488,190L94.487,183.105
			L94.487,183.105z"/>
		
			<linearGradient id="SVGID_5_" gradientUnits="userSpaceOnUse" x1="-93.5132" y1="1083.709" x2="-8.6934" y2="1083.709" gradientTransform="matrix(1 0 0 1 188 -977)">
			<stop  offset="0.0349" style="stop-color:#7B7D80"/>
			<stop  offset="0.098" style="stop-color:#828386"/>
			<stop  offset="0.1867" style="stop-color:#949698"/>
			<stop  offset="0.2907" style="stop-color:#B2B3B5"/>
			<stop  offset="0.4055" style="stop-color:#DCDCDD"/>
			<stop  offset="0.4232" style="stop-color:#E3E3E4"/>
			<stop  offset="0.4618" style="stop-color:#D5D6D7"/>
			<stop  offset="0.5834" style="stop-color:#AEAFB1"/>
			<stop  offset="0.6954" style="stop-color:#929496"/>
			<stop  offset="0.7933" style="stop-color:#818386"/>
			<stop  offset="0.8663" style="stop-color:#7B7D80"/>
		</linearGradient>
		<path fill="url(#SVGID_5_)" d="M179.29,66.44l-0.001-0.919l-11.124-6.941c0.058-1.737,0.097-3.48,0.11-5.229
			c0.074-8.625-0.394-17.298-1.385-25.78l-0.486-4.152l-5.242,10.783c0.566,7.071,0.806,13.028,0.754,19.096
			c-0.255,29.973-6.967,58.323-19.41,81.985c-5.99,11.392-13.117,21.273-21.186,29.373c-8.193,8.227-17.158,14.408-26.644,18.371
			l-0.19,0.08l0,0V190l2.648-1.105c20.141-8.416,38.251-26.404,51-50.649c4.678-8.896,8.569-18.425,11.649-28.429l9.188-2.806
			c6.711-2.048,10.275-6.719,10.314-13.508C179.329,86.811,179.291,66.643,179.29,66.44z"/>
		<path fill="#FFFFFF" d="M84.512,94.866c-4.659-1.371-8.508-4.148-9.107-7.378c2.927-0.012,19.588,0,19.588,0l2.479-9.528H86.314
			c0,0,0.025-6.233,4.879-10.295c3.129-2.619,7.539-3.715,12.061-3.063c5.061,0.736,8.35,5.191,9.883,13.032
			c4.355-1.421,9.516-5.874,11.112-14.217c2.36-12.335-4.95-22.705-14.171-24.066c-9.113-1.331-17.771,5.999-24.229,19.971
			c-3.517,7.608-4.869,12.52-6.093,18.637c-2.203,0.009-5.623,0-5.623,0s0.64-4.062,2.119-9.837
			c1.481-5.775,7.443-20.222,9.599-27.109c0.298-0.954,0.528-1.892,0.698-2.814c1.058-5.593-0.106-10.446-2.385-14.561
			c-4.885,0.267-9.616,0.733-14.117,1.331v74.313L84.512,94.866z"/>
		<path fill="#505153" d="M23.958,149.538l25.604,3.132c-2.028-2.932-3.968-5.992-5.814-9.173L23.958,149.538z"/>
		<path fill="#505153" d="M168.091,60.492c-0.127,3.032-0.319,6.046-0.575,9.039l10.114-3.087L168.091,60.492z"/>
		<path d="M177.63,66.443L33.098,110.559c-5.048,1.541-9.1,4.979-9.14,11.932c-0.039,6.763,0,27.05,0,27.05l27.021-8.247
			c3.303,5.53,6.908,10.646,10.759,15.305v-18.589l8.305-2.534v30.084c3.452,3.305,7.048,6.267,10.76,8.854v-42.226l8.305-2.535
			v49.826c1.775,0.935,3.569,1.785,5.38,2.549c1.812-0.764,3.605-1.614,5.38-2.549V126.37l7.918-2.417v50.729
			c3.711-2.56,7.307-5.49,10.761-8.764v-45.249l7.919-2.417v39.271c3.843-4.545,7.445-9.549,10.761-14.959v-27.598l7.918-2.417
			v15.118c2.535-5.51,4.771-11.245,6.709-17.165l16.639-5.078c5.047-1.541,9.1-4.977,9.14-11.93
			C177.669,86.73,177.63,66.443,177.63,66.443z"/>
		<path fill="#ACB3B8" d="M86.237,103.438c-0.011-2.313,2.143-4.644,4.845-5.469c2.149-0.657,3.586-0.161,3.592,0.762
			c0,0.562-0.434,1.081-1.009,1.256c-0.631,0.194-1.07-0.001-1.073-0.501c0-0.153,0.042-0.319,0.099-0.429
			c-0.27-0.094-0.804-0.105-1.648,0.153c-1.798,0.548-3.171,2.116-3.16,3.716c0.004,1.54,1.304,2.372,3.256,1.776
			c1.083-0.333,1.968-1,2.652-1.828l1.057,0.588c-0.894,1.104-2.227,2.017-3.705,2.466C88.293,106.797,86.248,105.83,86.237,103.438
			z"/>
		<path fill="#ACB3B8" d="M101.423,101.464l1.152-0.353l-0.026-5.361l-1.713,0.524l0.006,1.213l-1.503,0.459l-0.011-2.356
			l8.023-2.45l0.008,2.355l-1.504,0.462l-0.004-1.215l-1.716,0.523l0.025,5.36l1.151-0.352l0.004,1.181l-3.893,1.19L101.423,101.464
			z"/>
		<polygon fill="#ACB3B8" points="38.631,115.318 39.75,113.798 39.75,113.796 35.827,114.993 35.834,116.174 37.043,115.805 
			37.066,121.13 35.834,121.506 35.842,122.686 39.952,121.43 39.947,120.25 38.656,120.645 		"/>
		<polygon fill="#ACB3B8" points="54.852,110.363 54.852,110.363 55.996,108.831 55.996,108.831 53.481,109.6 50.664,114.741 
			47.807,111.333 45.277,112.105 45.277,112.105 46.437,112.934 46.437,112.934 46.437,112.934 46.437,112.934 46.437,112.934 
			46.164,118.352 45.069,118.686 45.074,119.863 48.84,118.714 48.833,117.533 47.724,117.873 47.889,113.859 50.546,116.906 
			50.757,116.842 53.38,112.182 53.583,116.083 52.472,116.423 52.478,117.602 56.271,116.441 56.266,115.264 55.17,115.6 		"/>
		<path fill="#ACB3B8" d="M65.135,106.04l-3.724,1.137l1.061,0.857l0,0l0,0l0,0l0,0l0.023,5.323l-1.052,0.322l0.005,1.182
			l3.793-1.159l-0.006-1.181l-1.151,0.354l-0.008-1.378c0.197-0.049,0.464-0.132,0.9-0.265c2.177-0.666,3.677-1.988,3.669-3.752
			C68.637,105.916,67.114,105.436,65.135,106.04z M67.003,107.982c0.002,0.912-0.699,1.687-1.893,2.053
			c-0.646,0.195-0.871,0.255-1.04,0.293l-0.013-2.778l0.999-0.305C66.193,106.896,66.997,107.177,67.003,107.982z"/>
		<path fill="#ACB3B8" d="M81.37,107.592l-2.331-4.633l1.012-0.309l-0.004-1.168l-5.227,1.597l0,0l1.018,0.858l-0.003,0.002
			l0.003-0.002l-2.281,6.041l-0.798,0.244l0.004,1.18l3.555-1.086l-0.006-1.168l-1.126,0.345l0.517-1.421l3.453-1.057l0.527,1.102
			l-1.067,0.328l0.006,1.166l3.555-1.084l-0.008-1.182L81.37,107.592z M76.13,106.843l1.279-3.42l1.309,2.628L76.13,106.843z"/>
		<path fill="#FFFFFF" d="M55.456,126.721c-0.018-3.639,3.147-7.4,7.687-8.787c4.514-1.379,7.615,0.486,7.63,4.108
			c0.016,3.642-3.147,7.401-7.686,8.79C58.571,132.21,55.471,130.346,55.456,126.721z M68.118,122.854
			c-0.013-2.584-2.133-3.807-5.013-2.928c-2.904,0.889-5.008,3.383-4.995,5.986c0.011,2.582,2.13,3.805,5.036,2.918
			C66.026,127.949,68.128,125.457,68.118,122.854z"/>
		<path fill="#FFFFFF" d="M95.729,118.725l1.857-0.569l-0.04-8.655l-2.769,0.85l0.008,1.959l-2.426,0.74l-0.015-3.813l12.955-3.959
			l0.02,3.812l-2.428,0.743l-0.012-1.963l-2.77,0.847l0.039,8.656l1.864-0.565l0.008,1.901l-6.284,1.919L95.729,118.725z"/>
		<polygon fill="#FFFFFF" points="83.264,112.011 83.272,113.916 85.134,113.346 85.167,119.646 76.946,113.939 73.383,115.029 
			73.383,115.029 75.093,116.416 75.093,116.416 75.093,116.416 75.134,125.016 73.432,125.536 73.439,127.438 79.385,125.622 
			79.375,123.718 77.514,124.287 77.482,117.512 86.198,123.54 87.594,123.111 87.553,112.607 89.184,112.109 89.175,110.202 		"/>
		<path fill="#FFFFFF" d="M120.096,104.514c-0.012-2.524-2.469-3.003-5.894-1.953l-5.786,1.768l0,0l1.709,1.384l0,0l0.042,8.603
			l-1.704,0.52l0.008,1.906l6.129-1.875l-0.008-1.903l-1.863,0.569l-0.014-2.793c0.32-0.077,0.751-0.209,1.229-0.354
			c0.293-0.092,0.709-0.262,1.024-0.378l3.056,3.813l3.293-1.008l-0.01-1.898l-1.703,0.518l-2.306-2.673
			C118.93,107.703,120.104,106.116,120.096,104.514z M117.439,105.4c0.009,1.302-1.354,2.51-3.279,3.1
			c-0.814,0.249-1.182,0.341-1.453,0.407l-0.02-3.981l1.387-0.423C116.139,103.87,117.436,104.1,117.439,105.4z"/>
		<polygon fill="#FFFFFF" points="135.674,99.546 135.654,96 124.518,99.404 126.225,100.789 126.227,100.789 126.266,109.391 
			124.563,109.911 124.572,111.814 135.738,108.402 135.721,104.857 133.27,105.607 133.275,107.268 128.828,108.626 
			128.813,105.116 133.327,103.739 133.32,101.927 128.805,103.309 128.79,99.988 133.213,98.634 133.223,100.295 		"/>
		<path fill="#FFFFFF" d="M153.491,101.07l-3.761-7.484l1.636-0.499l-0.011-1.884l-8.438,2.579l1.64,1.385h0.002l-3.682,9.758
			l-1.404,0.423l0.014,1.91l5.734-1.752l-0.007-1.867l-1.707,0.5l0.83-2.293l5.584-1.706l0.849,1.78l-1.588,0.499l0.006,1.874
			l5.609-1.716l-0.011-1.904L153.491,101.07z M145.032,99.857l2.065-5.523l2.107,4.249L145.032,99.857z"/>
		<polygon fill="#FFFFFF" points="166.535,95.345 166.543,97.1 162.436,98.354 162.396,89.736 164.371,89.131 164.361,87.229 
			158.128,89.134 159.833,90.518 159.833,90.518 159.833,90.518 159.833,90.518 159.833,90.518 159.872,99.118 158.171,99.639 
			158.182,101.546 169.025,98.231 169.008,94.591 		"/>
		<polygon fill="#FFFFFF" points="51.258,123.699 51.258,123.699 53.107,121.229 53.107,121.225 49.047,122.466 44.496,130.771 
			39.88,125.268 35.795,126.514 35.795,126.516 37.666,127.854 37.664,127.854 37.228,136.6 35.458,137.141 35.47,139.039 
			41.548,137.184 41.541,135.281 39.747,135.828 40.011,129.346 44.306,134.266 44.649,134.16 48.887,126.634 49.21,132.938 
			47.418,133.484 47.425,135.386 53.554,133.516 53.543,131.611 51.774,132.152 		"/>
		<polygon fill="#ACB3B8" points="133.223,94.2 133.216,92.107 126.034,96.632 		"/>
	</g>
</g>
<g id="Content">
</g>
</svg>
