<?xml version="1.0" encoding="utf-8"?>
<!-- Generator: Adobe Illustrator 14.0.0, SVG Export Plug-In . SVG Version: 6.00 Build 43363)  -->
<!DOCTYPE svg PUBLIC "-//W3C//DTD SVG 1.1//EN" "http://www.w3.org/Graphics/SVG/1.1/DTD/svg11.dtd">
<svg version="1.1" id="Layer_1" xmlns="http://www.w3.org/2000/svg" xmlns:xlink="http://www.w3.org/1999/xlink" x="0px" y="0px"
	 width="200px" height="200px" viewBox="0 0 200 200" enable-background="new 0 0 200 200" xml:space="preserve">
<g id="Background">
	<g>
		<path d="M95.493,13.882c23.997,5.587,43.18,17.135,55.461,33.394C166.021,67.231,173.593,71.885,190,78.49
			c-8.258,24.227-20.646,45.658-35.939,62.029c-16.854,18.053-36.442,28.85-56.647,31.229c-24.621,2.902-32.461,7.168-46.556,18.214
			c-16.862-19.269-29.231-40.715-35.764-62.139C11.693,116.675,10,105.814,10,95.485c0-11.564,2.124-22.465,6.368-32.332
			c6.608-15.358,8.865-24.408,8.865-34.115c0-4.682-0.539-9.557-1.36-15.325C48.941,8.769,73.667,8.797,95.493,13.882"/>
		<path fill="#28724F" d="M13.037,94.628c0,41.146,33.483,74.62,74.624,74.62c41.149,0,74.624-33.475,74.624-74.62
			C162.285,53.475,128.811,20,87.661,20C46.52,20,13.037,53.475,13.037,94.628z"/>
		<path d="M14.453,94.628c0-40.369,32.843-73.209,73.208-73.209c40.368,0,73.209,32.84,73.209,73.209
			c0,40.356-32.841,73.196-73.209,73.196C47.296,167.824,14.453,134.984,14.453,94.628"/>
		<path fill="#FFC658" d="M36.673,43.636c-13.62,13.616-21.118,31.729-21.118,50.993c0,19.255,7.498,37.364,21.118,50.984
			c13.624,13.628,31.733,21.117,50.988,21.117c39.762,0,72.114-32.35,72.114-72.103c0-19.264-7.506-37.377-21.123-50.993
			c-13.623-13.62-31.729-21.118-50.991-21.118C68.406,22.518,50.296,30.016,36.673,43.636z"/>
		<path fill="#E0A231" d="M99.431,88.651c-2.104,0-3.801,1.702-3.801,3.805c0,2.112,1.698,3.817,3.801,3.817
			c2.116,0,3.817-1.706,3.817-3.817C103.248,90.353,101.547,88.651,99.431,88.651z"/>
		<path fill="#EAAA00" d="M108.768,89.524c-1.621,0-2.938,1.311-2.938,2.932c0,1.625,1.316,2.94,2.938,2.94
			c1.629,0,2.943-1.315,2.943-2.94C111.711,90.835,110.396,89.524,108.768,89.524z"/>
		<path fill="#E0A231" d="M117.037,90.167c-1.268,0-2.293,1.034-2.293,2.293c0,1.271,1.025,2.297,2.293,2.297
			s2.297-1.025,2.297-2.297C119.334,91.201,118.305,90.167,117.037,90.167z"/>
		<path fill="#E0A231" d="M121.859,92.46c0,0.978,0.793,1.77,1.767,1.77c0.97,0,1.763-0.792,1.763-1.77
			c0-0.969-0.793-1.762-1.763-1.762C122.652,90.698,121.859,91.491,121.859,92.46z"/>
		<path fill="#E0A231" d="M123.305,84.89c0.729,0,1.313-0.587,1.313-1.307c0-0.724-0.583-1.307-1.313-1.307
			c-0.717,0-1.3,0.583-1.3,1.307C122.005,84.303,122.588,84.89,123.305,84.89z"/>
		<path fill="#EAAA00" d="M114.632,82.771c0,1.158,0.937,2.091,2.091,2.091c1.159,0,2.088-0.934,2.088-2.091
			c0-1.151-0.929-2.092-2.088-2.092C115.568,80.678,114.632,81.62,114.632,82.771z"/>
		<path fill="#E0A231" d="M106.438,82.086c0,1.243,1.012,2.253,2.248,2.253c1.248,0,2.258-1.01,2.258-2.253
			c0-1.239-1.01-2.249-2.258-2.249C107.447,79.837,106.438,80.847,106.438,82.086z"/>
		<path fill="#E0A231" d="M97.259,81.624c0,1.4,1.134,2.534,2.534,2.534c1.396,0,2.525-1.134,2.525-2.534
			c0-1.396-1.131-2.526-2.525-2.526C98.393,79.098,97.259,80.228,97.259,81.624z"/>
		<path fill="#E0A231" d="M88.96,84.729c1.621,0,2.932-1.311,2.932-2.932s-1.311-2.932-2.932-2.932
			c-1.625,0-2.937,1.311-2.937,2.932S87.335,84.729,88.96,84.729z"/>
		<path fill="#EAAA00" d="M88.948,74.821c1.328,0,2.396-1.074,2.396-2.397c0-1.327-1.07-2.397-2.396-2.397
			c-1.32,0-2.394,1.07-2.394,2.397C86.555,73.748,87.628,74.821,88.948,74.821z"/>
		<path fill="#EAAA00" d="M97.114,72.726c0,1.219,1.001,2.208,2.216,2.208c1.223,0,2.217-0.989,2.217-2.208
			c0-1.227-0.994-2.212-2.217-2.212C98.115,70.514,97.114,71.499,97.114,72.726z"/>
		<path fill="#EAAA00" d="M105.907,73.499c0,1.114,0.903,2.015,2.011,2.015c1.114,0,2.016-0.901,2.016-2.015
			c0-1.114-0.899-2.02-2.016-2.02C106.813,71.479,105.907,72.384,105.907,73.499z"/>
		<path fill="#EAAA00" d="M114.33,74.672c0,0.897,0.725,1.622,1.611,1.622c0.91,0,1.631-0.724,1.631-1.622
			c0-0.896-0.721-1.617-1.631-1.617C115.055,73.056,114.33,73.776,114.33,74.672z"/>
		<path fill="#EAAA00" d="M121.373,76.76c0.555,0,1.005-0.446,1.005-1.001c0-0.547-0.45-1.001-1.005-1.001s-1.002,0.455-1.002,1.001
			C120.371,76.314,120.818,76.76,121.373,76.76z"/>
		<path fill="#EAAA00" d="M88.948,66.362c1.086,0,1.971-0.88,1.971-1.967c0-1.09-0.885-1.967-1.971-1.967
			c-1.082,0-1.963,0.876-1.963,1.967C86.985,65.482,87.867,66.362,88.948,66.362z"/>
		<path fill="#EAAA00" d="M96.655,64.722c0,1.086,0.885,1.966,1.967,1.966c1.086,0,1.971-0.88,1.971-1.966
			c0-1.086-0.885-1.967-1.971-1.967C97.541,62.754,96.655,63.636,96.655,64.722z"/>
		<path fill="#EAAA00" d="M105.23,65.498c0,0.824,0.672,1.493,1.5,1.493c0.819,0,1.487-0.668,1.487-1.493
			c0-0.829-0.668-1.5-1.487-1.5C105.902,63.997,105.23,64.669,105.23,65.498z"/>
		<path fill="#EAAA00" d="M114.7,67.983c0.69,0,1.241-0.559,1.241-1.251c0-0.691-0.551-1.25-1.241-1.25
			c-0.688,0-1.252,0.559-1.252,1.25C113.448,67.424,114.012,67.983,114.7,67.983z"/>
		<path fill="#EAAA00" d="M88.948,58.945c0.8,0,1.44-0.644,1.44-1.44c0-0.797-0.64-1.448-1.44-1.448c-0.792,0-1.44,0.651-1.44,1.448
			C87.508,58.301,88.156,58.945,88.948,58.945z"/>
		<path fill="#EAAA00" d="M97.818,59.537c0.8,0,1.439-0.648,1.439-1.444c0-0.792-0.639-1.44-1.439-1.44
			c-0.796,0-1.44,0.647-1.44,1.44C96.377,58.889,97.021,59.537,97.818,59.537z"/>
		<path fill="#EAAA00" d="M105.77,61.202c0.625,0,1.127-0.507,1.127-1.134c0-0.624-0.502-1.126-1.127-1.126
			c-0.619,0-1.134,0.503-1.134,1.126C104.637,60.695,105.15,61.202,105.77,61.202z"/>
		<path fill="#EAAA00" d="M78.458,88.651c-2.104,0-3.81,1.702-3.81,3.805c0,2.112,1.706,3.817,3.81,3.817s3.813-1.706,3.813-3.817
			C82.271,90.353,80.562,88.651,78.458,88.651z"/>
		<path fill="#E0A231" d="M69.122,95.396c1.621,0,2.937-1.315,2.937-2.94c0-1.621-1.315-2.932-2.937-2.932s-2.936,1.311-2.936,2.932
			C66.186,94.081,67.5,95.396,69.122,95.396z"/>
		<path fill="#E0A231" d="M60.855,94.757c1.263,0,2.292-1.025,2.292-2.297c0-1.259-1.029-2.293-2.292-2.293
			c-1.271,0-2.296,1.034-2.296,2.293C58.559,93.731,59.584,94.757,60.855,94.757z"/>
		<path fill="#E0A231" d="M56.033,92.46c0-0.969-0.788-1.762-1.762-1.762c-0.978,0-1.77,0.792-1.77,1.762
			c0,0.978,0.792,1.77,1.77,1.77C55.245,94.23,56.033,93.438,56.033,92.46z"/>
		<path fill="#E0A231" d="M54.584,84.89c0.724,0,1.307-0.587,1.307-1.307c0-0.724-0.583-1.307-1.307-1.307
			c-0.732,0-1.307,0.583-1.307,1.307C53.277,84.303,53.853,84.89,54.584,84.89z"/>
		<path fill="#EAAA00" d="M61.169,84.862c1.158,0,2.092-0.934,2.092-2.091c0-1.151-0.934-2.092-2.092-2.092
			c-1.154,0-2.092,0.941-2.092,2.092C59.078,83.928,60.015,84.862,61.169,84.862z"/>
		<path fill="#E0A231" d="M69.202,84.339c1.243,0,2.249-1.01,2.249-2.253c0-1.239-1.006-2.249-2.249-2.249
			c-1.238,0-2.252,1.01-2.252,2.249C66.95,83.329,67.963,84.339,69.202,84.339z"/>
		<path fill="#EAAA00" d="M78.104,84.158c1.392,0,2.522-1.134,2.522-2.534c0-1.396-1.13-2.526-2.522-2.526
			c-1.4,0-2.538,1.13-2.538,2.526C75.565,83.023,76.704,84.158,78.104,84.158z"/>
		<path fill="#EAAA00" d="M78.562,74.934c1.223,0,2.213-0.989,2.213-2.208c0-1.227-0.99-2.212-2.213-2.212
			c-1.227,0-2.208,0.985-2.208,2.212C76.354,73.945,77.335,74.934,78.562,74.934z"/>
		<path fill="#EAAA00" d="M69.971,75.514c1.114,0,2.019-0.901,2.019-2.015c0-1.114-0.905-2.02-2.019-2.02
			c-1.114,0-2.011,0.905-2.011,2.02C67.959,74.612,68.856,75.514,69.971,75.514z"/>
		<path fill="#EAAA00" d="M61.945,76.294c0.893,0,1.622-0.724,1.622-1.622c0-0.896-0.729-1.617-1.622-1.617
			c-0.901,0-1.621,0.72-1.621,1.617C60.325,75.57,61.044,76.294,61.945,76.294z"/>
		<path fill="#E0A231" d="M56.523,74.757c-0.56,0-1.002,0.455-1.002,1.001c0,0.555,0.442,1.001,1.002,1.001
			c0.547,0,0.998-0.446,0.998-1.001C57.521,75.212,57.07,74.757,56.523,74.757z"/>
		<path fill="#EAAA00" d="M79.267,66.688c1.09,0,1.967-0.88,1.967-1.966c0-1.086-0.877-1.967-1.967-1.967
			c-1.083,0-1.967,0.881-1.967,1.967C77.3,65.808,78.184,66.688,79.267,66.688z"/>
		<path fill="#EAAA00" d="M71.165,66.99c0.829,0,1.496-0.668,1.496-1.493c0-0.829-0.667-1.5-1.496-1.5c-0.824,0-1.5,0.672-1.5,1.5
			C69.665,66.322,70.341,66.99,71.165,66.99z"/>
		<path fill="#EAAA00" d="M63.188,65.482c-0.684,0-1.243,0.559-1.243,1.25c0,0.692,0.56,1.251,1.243,1.251
			c0.692,0,1.259-0.559,1.259-1.251C64.447,66.041,63.881,65.482,63.188,65.482z"/>
		<path fill="#EAAA00" d="M80.071,59.537c0.796,0,1.444-0.648,1.444-1.444c0-0.792-0.648-1.44-1.444-1.44
			c-0.8,0-1.44,0.647-1.44,1.44C78.631,58.889,79.271,59.537,80.071,59.537z"/>
		<path fill="#EAAA00" d="M72.126,58.941c-0.627,0-1.134,0.503-1.134,1.126c0,0.627,0.507,1.134,1.134,1.134
			c0.623,0,1.126-0.507,1.126-1.134C73.253,59.444,72.75,58.941,72.126,58.941z"/>
		<path fill="#E0A231" d="M123.305,100.006c-0.717,0-1.3,0.58-1.3,1.305s0.583,1.304,1.3,1.304c0.729,0,1.313-0.579,1.313-1.304
			C124.615,100.585,124.032,100.006,123.305,100.006z"/>
		<path fill="#E0A231" d="M116.723,100.03c-1.154,0-2.091,0.94-2.091,2.092c0,1.149,0.937,2.092,2.091,2.092
			c1.159,0,2.088-0.942,2.088-2.092C118.811,100.971,117.882,100.03,116.723,100.03z"/>
		<path fill="#EAAA00" d="M108.686,100.553c-1.236,0-2.248,1.006-2.248,2.252c0,1.238,1.012,2.254,2.248,2.254
			c1.248,0,2.258-1.016,2.258-2.254C110.943,101.561,109.934,100.553,108.686,100.553z"/>
		<path fill="#E0A231" d="M99.793,100.746c-1.4,0-2.534,1.126-2.534,2.52c0,1.398,1.134,2.532,2.534,2.532
			c1.396,0,2.525-1.134,2.525-2.532C102.318,101.872,101.188,100.746,99.793,100.746z"/>
		<path fill="#E0A231" d="M88.96,100.159c-1.625,0-2.937,1.319-2.937,2.937c0,1.618,1.312,2.938,2.937,2.938
			c1.621,0,2.932-1.318,2.932-2.938C91.893,101.479,90.582,100.159,88.96,100.159z"/>
		<path fill="#EAAA00" d="M88.948,110.078c-1.32,0-2.394,1.07-2.394,2.389c0,1.328,1.074,2.398,2.394,2.398
			c1.328,0,2.396-1.07,2.396-2.398C91.346,111.148,90.276,110.078,88.948,110.078z"/>
		<path fill="#EAAA00" d="M99.33,109.958c-1.214,0-2.216,0.989-2.216,2.204c0,1.23,1.001,2.221,2.216,2.221
			c1.223,0,2.217-0.99,2.217-2.221C101.547,110.947,100.553,109.958,99.33,109.958z"/>
		<path fill="#E0A231" d="M107.918,109.387c-1.105,0-2.011,0.901-2.011,2.012c0,1.109,0.903,2.013,2.011,2.013
			c1.114,0,2.016-0.901,2.016-2.013C109.934,110.288,109.032,109.387,107.918,109.387z"/>
		<path fill="#EAAA00" d="M117.572,110.215c0-0.893-0.721-1.625-1.631-1.625c-0.89,0-1.611,0.732-1.611,1.625
			c0,0.901,0.725,1.625,1.611,1.625C116.852,111.84,117.572,111.116,117.572,110.215z"/>
		<path fill="#EAAA00" d="M121.373,110.135c0.555,0,1.005-0.449,1.005-1.006c0-0.556-0.45-0.998-1.005-0.998
			s-1.002,0.442-1.002,0.998C120.371,109.686,120.818,110.135,121.373,110.135z"/>
		<path fill="#EAAA00" d="M88.948,118.533c-1.082,0-1.963,0.877-1.963,1.971c0,1.078,0.881,1.963,1.963,1.963
			c1.086,0,1.971-0.885,1.971-1.963C90.919,119.41,90.034,118.533,88.948,118.533z"/>
		<path fill="#EAAA00" d="M98.622,118.212c-1.082,0-1.967,0.869-1.967,1.963c0,1.086,0.885,1.972,1.967,1.972
			c1.086,0,1.971-0.886,1.971-1.972C100.593,119.081,99.708,118.212,98.622,118.212z"/>
		<path fill="#EAAA00" d="M106.73,117.896c-0.828,0-1.5,0.678-1.5,1.498c0,0.828,0.672,1.496,1.5,1.496
			c0.819,0,1.487-0.668,1.487-1.496C108.221,118.574,107.552,117.896,106.73,117.896z"/>
		<path fill="#EAAA00" d="M114.7,116.917c-0.688,0-1.252,0.556-1.252,1.247s0.563,1.246,1.252,1.246c0.69,0,1.241-0.555,1.241-1.246
			S115.393,116.917,114.7,116.917z"/>
		<path fill="#EAAA00" d="M88.948,125.951c-0.792,0-1.44,0.645-1.44,1.439c0,0.797,0.647,1.438,1.44,1.438
			c0.8,0,1.44-0.646,1.44-1.438C90.388,126.596,89.749,125.951,88.948,125.951z"/>
		<path fill="#EAAA00" d="M97.818,125.355c-0.796,0-1.44,0.65-1.44,1.438c0,0.806,0.644,1.448,1.44,1.448
			c0.8,0,1.439-0.646,1.439-1.448C99.257,126.008,98.618,125.355,97.818,125.355z"/>
		<path fill="#EAAA00" d="M105.77,123.689c-0.619,0-1.134,0.508-1.134,1.135c0,0.628,0.515,1.135,1.134,1.135
			c0.625,0,1.127-0.507,1.127-1.135C106.896,124.197,106.395,123.689,105.77,123.689z"/>
		<path fill="#E0A231" d="M54.584,100.006c-0.732,0-1.307,0.58-1.307,1.305s0.575,1.304,1.307,1.304
			c0.724,0,1.307-0.579,1.307-1.304C55.892,100.585,55.309,100.006,54.584,100.006z"/>
		<path fill="#E0A231" d="M63.261,102.122c0-1.151-0.934-2.092-2.092-2.092c-1.154,0-2.092,0.94-2.092,2.092
			c0,1.149,0.938,2.092,2.092,2.092C62.328,104.214,63.261,103.271,63.261,102.122z"/>
		<path fill="#E0A231" d="M71.451,102.807c0-1.246-1.006-2.252-2.249-2.252c-1.238,0-2.252,1.006-2.252,2.252
			c0,1.237,1.014,2.252,2.252,2.252C70.445,105.059,71.451,104.044,71.451,102.807z"/>
		<path fill="#EAAA00" d="M80.626,103.266c0-1.394-1.13-2.52-2.522-2.52c-1.4,0-2.538,1.126-2.538,2.52
			c0,1.398,1.138,2.532,2.538,2.532C79.496,105.798,80.626,104.664,80.626,103.266z"/>
		<path fill="#E0A231" d="M80.775,112.162c0-1.215-0.99-2.204-2.213-2.204c-1.227,0-2.208,0.989-2.208,2.204
			c0,1.23,0.981,2.221,2.208,2.221C79.785,114.383,80.775,113.393,80.775,112.162z"/>
		<path fill="#E0A231" d="M71.99,111.396c0-1.108-0.905-2.012-2.019-2.012c-1.114,0-2.011,0.901-2.011,2.012
			c0,1.109,0.897,2.013,2.011,2.013C71.084,113.409,71.99,112.508,71.99,111.396z"/>
		<path fill="#E0A231" d="M63.567,110.215c0-0.893-0.729-1.625-1.622-1.625c-0.901,0-1.621,0.732-1.621,1.625
			c0,0.901,0.72,1.625,1.621,1.625C62.838,111.84,63.567,111.116,63.567,110.215z"/>
		<path fill="#EAAA00" d="M56.523,108.131c-0.56,0-1.002,0.442-1.002,0.998c0,0.557,0.442,1.006,1.002,1.006
			c0.547,0,0.998-0.449,0.998-1.006C57.521,108.573,57.07,108.131,56.523,108.131z"/>
		<path fill="#EAAA00" d="M81.233,120.175c0-1.094-0.877-1.963-1.967-1.963c-1.083,0-1.967,0.869-1.967,1.963
			c0,1.086,0.885,1.972,1.967,1.972C80.356,122.146,81.233,121.261,81.233,120.175z"/>
		<path fill="#EAAA00" d="M72.661,119.395c0-0.818-0.667-1.496-1.496-1.496c-0.824,0-1.5,0.678-1.5,1.496
			c0,0.828,0.676,1.496,1.5,1.496C71.994,120.891,72.661,120.223,72.661,119.395z"/>
		<path fill="#EAAA00" d="M63.188,116.917c-0.684,0-1.243,0.556-1.243,1.247s0.56,1.246,1.243,1.246
			c0.692,0,1.259-0.555,1.259-1.246S63.881,116.917,63.188,116.917z"/>
		<path fill="#EAAA00" d="M80.071,125.355c-0.8,0-1.44,0.65-1.44,1.438c0,0.806,0.64,1.448,1.44,1.448
			c0.796,0,1.444-0.646,1.444-1.448C81.515,126.008,80.867,125.355,80.071,125.355z"/>
		<path fill="#EAAA00" d="M72.126,123.689c-0.627,0-1.134,0.508-1.134,1.135c0,0.628,0.507,1.135,1.134,1.135
			c0.623,0,1.126-0.507,1.126-1.135C73.253,124.197,72.75,123.689,72.126,123.689z"/>
		<path fill="#E0A231" d="M88.944,88.02c-2.45,0-4.437,1.987-4.437,4.437c0,2.461,1.987,4.444,4.437,4.444
			c2.453,0,4.445-1.983,4.445-4.444C93.389,90.007,91.397,88.02,88.944,88.02z"/>
		<path fill="#E0A231" d="M142.111,141.85c-0.135,0.155-0.274,0.31-0.41,0.463C141.84,142.159,141.975,142.003,142.111,141.85z"/>
		<path fill="#EAAA00" d="M83.369,33.97c34.617,0,59.753,22.316,59.753,53.064c0,20.864-16.677,51.741-52.448,51.741l-0.994,0.008
			l-2.417-0.024c-4.336-0.225-8.966-1.263-13.387-3.001c-9.609-3.805-17.409-10.529-22.067-18.703
			c8.467,12.662,23.873,19.581,36.166,19.75h0.056c0.004,0,0.004,0,0.004,0c0.008,0.008,0.008,0,0.008,0c0.016,0,0.057,0,0.057,0
			c17.212-0.017,28.037-8.229,34.085-15.117c7.563-8.614,11.905-19.959,11.905-31.117c0-34.75-25.871-52.936-51.43-52.936
			c-30.667,0-55.615,27.341-55.615,60.948c0,32.026,25.945,66.33,64.572,66.33c19.678,0,37.462-8.685,50.082-22.601
			c0.136-0.154,0.274-0.309,0.409-0.463c0.021-0.022,0.041-0.048,0.063-0.068c10.962-12.65,17.604-29.143,17.604-47.152
			c0-8.668-1.523-17.101-4.438-24.998c1.151,5.056,1.682,10.361,1.682,16.461c0,25.032-12.274,41.073-22.568,50.107
			c-12.417,10.9-28.604,17.418-43.31,17.418c-16.488,0-31.588-6.018-42.509-16.936C38.487,126.537,32.667,112.82,32.667,99.04
			c0-27.251,21.954-49.456,49.089-49.934c-22.22,3.391-39.388,23.656-39.388,48.052c0,33.939,25.325,52.669,49.17,53.064
			l1.103,0.008c13.314,0,26.95-6.123,37.414-16.799c11.563-11.803,17.932-28.027,17.932-45.696c0-18.262-6.842-34.963-19.264-47.039
			c-11.703-11.37-27.248-17.775-43.93-18.121c-18.179,0.708-35.175,8.116-48.12,21.057c-13.62,13.617-21.118,31.73-21.118,50.994
			c0,11.732,2.788,23.037,8.044,33.162c-4.26-9.444-6.215-20.416-6.215-28.508C17.385,63.269,46.986,33.97,83.369,33.97z
			 M50.017,91.902C50.436,70.944,67.61,54.026,88.67,54.026c21.314,0,38.664,17.34,38.664,38.659
			c0,21.32-17.35,38.665-38.664,38.665c-21.207,0-38.472-17.158-38.659-38.316c0.089-0.171,0.146-0.363,0.146-0.571
			C50.156,92.258,50.103,92.07,50.017,91.902z"/>
		<polyline points="69.09,186.215 68.422,186.215 68.422,183.439 67.428,183.439 67.428,182.876 70.079,182.876 70.079,183.439 
			69.09,183.439 69.09,186.215 		"/>
		<polyline points="71.129,186.215 70.509,186.215 70.509,182.876 71.511,182.876 72.114,185.152 72.714,182.876 73.723,182.876 
			73.723,186.215 73.096,186.215 73.096,183.584 72.436,186.215 71.785,186.215 71.129,183.584 71.129,186.215 		"/>
		<path d="M156.521,81.326c0,0-7.94,14.593-8.488,15.583c0,1.094,0,11.562,0,11.562l-9.924,2.479c0,0,0-11.907,0-12.848
			c-0.284-0.626-4.519-9.922-7.075-15.542c-2.664,4.254-5.687,9.079-6.407,10.229c1.371,2.176,11.259,17.813,11.259,17.813
			l-10.354,2.734c0,0-4.114-6.709-6.351-10.361c-2.05,3.982-5.755,11.176-5.755,11.176l-14.408,0.925c0,0-0.829-4.224-1.174-5.96
			c-2.043,0-4.759,0-6.822,0c-0.326,1.834-1.102,6.17-1.102,6.17h-10.49l0.001-0.008c-2.833-0.106-5.882-0.223-6.015-0.228
			c-0.012,0-0.937-0.079-0.937-0.079s-0.165-0.017-0.165-0.025c0,0,0.004,0,0.012,0c-1.329-0.107-2.504-0.478-3.509-1.061
			l0.259,1.125l-11.143-0.725c0,0-1.109-5.188-1.524-7.127c-1.649-0.201-3.568-0.442-5.447-0.684
			c-0.619,2.113-2.08,7.127-2.08,7.127h-1.806c-0.33,0-0.33,0-6.303-1.345l-2.406-0.54l0.604-2.4
			c-1.744,1.117-3.63,1.35-4.924,1.156l-0.057-0.011l-8.097-1.614l-0.258-0.059c-1.368-0.249-2.461-0.563-4.119-2.188
			c-0.893-0.886-1.958-2.484-1.958-5.147V86.482c0-2.997,0.386-4.376,1.661-5.901c1.493-1.778,3.246-2.445,5.938-3.037l10.824-2.526
			l2.952-0.688v10.39c0,0-9.119,2.1-11.347,2.607c0,1.042,0,10.554,0,11.946c0.989,0.209,2.257,0.483,3.146,0.676
			c0-1.544,0-8.556,0-8.556h9.646v4.369l4.155-16.533l0.024-0.072c1.021-3.226,3.966-6.468,7.61-6.428
			c3.017,0.041,5.366,1.858,6.287,4.892l0.012,0.076l4.545,19.702V71.837H75c0,0,0,30.414,0,32.835c1,0,4.19,0,6.561,0l5.659-28.165
			l0.037-0.108c0.965-3.21,4.388-4.887,7.269-4.887c2.86,0,6.289,1.665,7.296,4.863l0.044,0.129l5.282,27.795
			c2.67-4.989,5.392-10.071,5.937-11.091c-1.243-2.063-13.044-21.661-13.044-21.661l12.23,0.933c0,0,4.145,6.959,6.39,10.732
			c1.995-3.407,5.539-9.46,5.539-9.46l15.124,2.586c0,0,2.238,5.185,3.779,8.745c1.34-2.53,3.625-6.858,3.625-6.858L156.521,81.326z
			 M94.491,92.532c-0.752,3.339-1.146,5.061-1.517,6.693c1.292,0,1.601,0,2.876,0C95.521,97.617,95.171,95.863,94.491,92.532
			 M53.76,95.175c-0.108,0.591-0.213,1.155-0.29,1.565c0.297,0.032,0.305,0.032,0.611,0.064
			C53.985,96.306,53.889,95.831,53.76,95.175"/>
		<path fill="#FFFFFF" d="M147.458,79.995c0,0-3.258,6.162-4.487,8.475c-1.128-2.611-4.675-10.829-4.675-10.829l-13.339-2.276
			c0,0-5.032,8.604-6.283,10.731c-1.307-2.192-7.271-12.212-7.271-12.212l-8.637-0.652c0,0,11.487,19.067,12.012,19.931
			c-0.328,0.612-5.217,9.743-8.293,15.489l-6.046-31.792l-0.016-0.048c-0.792-2.518-3.568-3.833-5.893-3.833
			c-2.345,0-5.105,1.319-5.873,3.841l-0.008,0.048l-5.878,29.267h-8.88c-0.346-0.016-0.346-0.109-0.35-0.199V73.306h-7.056v33.073
			c0,4.208,2.176,6.798,5.961,7.111c-0.023-0.008,0.229,0.023,0.229,0.023l0.712,0.063c-0.028,0,8.467,0.319,8.467,0.319l6.833-0.08
			c0,0,0.889-4.986,1.106-6.17c1.247,0,8.033,0,9.26,0c0.229,1.144,1.167,5.896,1.167,5.896l12.285-0.805
			c0,0,5.354-10.402,6.58-12.767c1.354,2.236,7.124,11.666,7.124,11.666l7.369-1.947c0,0-10.103-15.959-10.685-16.901
			c0.424-0.677,5.56-8.877,8.342-13.321c2.199,4.827,8.209,18.02,8.345,18.309c0,0.394,0,11.289,0,11.289l6.989-1.737
			c0,0,0-10.338,0-10.788c0.223-0.403,7.813-14.348,7.813-14.348L147.458,79.995z M91.141,100.698
			c0.362-1.592,2.292-10.185,3.427-15.168c1.01,5,2.76,13.6,3.078,15.168C96.173,100.698,92.641,100.698,91.141,100.698z"/>
		<path fill="#FFFFFF" d="M34.195,92.862c0,0,0,8.552,0,8.688c-0.008,0.024-0.016,0.056-0.016,0.064
			c-0.04,0.03-0.253,0.088-0.712-0.009c0.017,0.009-4.195-0.901-5.325-1.15c-0.012-0.113-0.016-0.218-0.016-0.218V86.716
			c0,0.032-0.004-0.551-0.004-0.551v-0.008c1.669-0.378,10.615-2.438,10.615-2.438l0.728-0.169v-7.373l-1.15,0.273l-10.821,2.526
			c-2.445,0.539-3.917,1.082-5.144,2.546c-1.034,1.239-1.315,2.309-1.315,4.959v14.972c0,1.705,0.519,3.122,1.517,4.095
			c1.399,1.376,2.184,1.585,3.354,1.802l0.278,0.049l8.037,1.617c1.183,0.178,3.065-0.097,4.642-1.432
			c1.356-1.15,2.052-2.752,2.052-4.764v-9.959L34.195,92.862L34.195,92.862z"/>
		<path fill="#FFFFFF" d="M67.207,113.417l-8.061-0.522c0,0-1.291-5.994-1.521-7.063c-1.034-0.128-6.496-0.813-7.711-0.965
			c-0.366,1.236-2.136,7.271-2.136,7.271h-0.7c-0.137,0-0.169,0-5.982-1.313l-0.941-0.209l0.237-0.934c0,0,7.55-30.021,7.562-30.077
			c0.84-2.651,3.298-5.446,6.199-5.41c2.377,0.028,4.155,1.428,4.907,3.906L67.207,113.417z M53.716,87.344
			c-0.825,4.424-1.753,9.477-1.975,10.683c1.102,0.129,2.848,0.314,4.167,0.443C55.61,96.973,54.597,91.836,53.716,87.344"/>
		<path fill="#28724F" d="M41.298,109.917l7.546-30.019c0.668-2.091,2.727-4.791,5.293-4.763c1.922,0.024,3.375,1.09,4.006,3.174
			l7.86,34.085L59.909,112l-1.509-7.023l-9.163-1.134l-2.16,7.354C47.006,111.197,41.298,109.917,41.298,109.917z M57.07,99.548
			L53.675,82.34L50.63,98.856L57.07,99.548"/>
		<path fill="#28724F" d="M23.209,104.882c-0.772-0.757-1.239-1.892-1.239-3.428c0-0.667,0-14.972,0-14.972
			c0-2.63,0.293-3.395,1.094-4.36c1.038-1.235,2.269-1.714,4.642-2.237l10.82-2.526v5.443l-10.969,2.526
			c-0.535,0.161-0.342,0.604-0.371,1.388c0,0-0.004,12.808,0,13.411c0.008,0.458-0.04,1.086,0.459,1.189l5.636,1.216
			c1.104,0.217,1.753-0.097,1.85-0.894v-7.835h4.838v9.019c0,1.85-0.651,3.145-1.717,4.037c-1.292,1.095-2.876,1.377-3.842,1.229
			l-8.045-1.606C25.233,106.257,24.593,106.241,23.209,104.882"/>
		<path fill="#28724F" d="M147.921,81.121l-5.036,9.521l-5.253-12.168l-12.192-2.083l-6.754,11.552l-7.836-13.154l-6.343-0.482
			l11.339,18.829l-9.787,18.298l-6.531-34.337c-0.668-2.088-3.045-3.182-5-3.182c-1.923,0-4.345,1.094-4.968,3.182l-6.027,30.011
			l-9.644-0.037c-0.793-0.023-1.255-0.428-1.295-1.086V74.238h-5.169v32.14c0,3.572,1.718,5.896,5.096,6.171
			c0.302,0.032,0.603,0.096,0.865,0.096l8.995,0.196l-0.009,0.045h5.531l1.099-6.179H99.83l1.146,5.857l10.937-0.727l7.096-13.781
			l7.636,12.494l5.453-1.438L121.783,92.79l9.587-15.292l9.146,20.079v10.29l5.112-1.279V96.306l7.39-13.568L147.921,81.121z
			 M89.966,101.639l4.646-20.584l4.183,20.584H89.966z"/>
		<path fill="#EAAA00" d="M102.926,110.135l0.596-0.121c-0.235-1.166-5.629-28.591-6.421-31.306c-0.467-1.593-1.662-2.1-2.619-2.048
			c-1.119,0.064-2.048,0.837-2.221,1.842c-0.064,0.375-0.458,2.096-1.058,4.694c-1.211,5.266-3.452,15.04-5.865,26.335
			c-0.466,0-10.667,0-10.667,0c-3.077,0-4.425-1.206-4.517-4.038V76.31h-0.599v29.191c0.096,3.169,1.714,4.634,5.116,4.634h11.15
			l0.052-0.232c0.405-1.896,0.805-3.745,1.196-5.543h14.717C102.451,107.721,102.91,110.053,102.926,110.135z M87.196,103.764
			c1.908-8.747,3.595-16.112,4.592-20.435c0.62-2.699,0.994-4.333,1.063-4.722c0.124-0.732,0.82-1.295,1.661-1.348
			c0.945-0.052,1.685,0.555,2.003,1.621c0.555,1.878,3.447,16.3,5.151,24.884H87.196L87.196,103.764z"/>
	</g>
</g>
<g id="Content">
</g>
</svg>
