<?xml version="1.0" encoding="utf-8"?>
<!-- Generator: Adobe Illustrator 14.0.0, SVG Export Plug-In . SVG Version: 6.00 Build 43363)  -->
<!DOCTYPE svg PUBLIC "-//W3C//DTD SVG 1.1//EN" "http://www.w3.org/Graphics/SVG/1.1/DTD/svg11.dtd">
<svg version="1.1" id="Layer_1" xmlns="http://www.w3.org/2000/svg" xmlns:xlink="http://www.w3.org/1999/xlink" x="0px" y="0px"
	 width="200px" height="200px" viewBox="0 0 200 200" enable-background="new 0 0 200 200" xml:space="preserve">
<g>
	<g>
		<g>
			<g>
				<defs>
					<rect id="SVGID_1_" width="200" height="200"/>
				</defs>
				<clipPath id="SVGID_2_">
					<use xlink:href="#SVGID_1_"  overflow="visible"/>
				</clipPath>
				<path clip-path="url(#SVGID_2_)" d="M95.493,13.882c23.998,5.587,43.18,17.135,55.461,33.394
					C166.021,67.231,173.592,71.885,190,78.49c-8.258,24.227-20.646,45.658-35.939,62.029
					c-16.854,18.054-36.441,28.851-56.646,31.229c-24.621,2.902-32.461,7.168-46.555,18.214
					c-16.862-19.269-29.231-40.715-35.764-62.139C11.694,116.675,10,105.813,10,95.485c0-11.565,2.124-22.465,6.367-32.332
					c6.609-15.358,8.866-24.409,8.866-34.115c0-4.682-0.539-9.557-1.36-15.325C48.941,8.769,73.667,8.797,95.493,13.882"/>
			</g>
		</g>
	</g>
	<g>
		<g>
			<g>
				<defs>
					<rect id="SVGID_3_" width="200" height="200"/>
				</defs>
				<clipPath id="SVGID_4_">
					<use xlink:href="#SVGID_3_"  overflow="visible"/>
				</clipPath>
				<path clip-path="url(#SVGID_4_)" fill="#004F59" d="M13.037,94.628c0,41.146,33.482,74.62,74.624,74.62
					c41.149,0,74.624-33.475,74.624-74.62C162.285,53.474,128.811,20,87.661,20C46.52,20,13.037,53.474,13.037,94.628"/>
			</g>
		</g>
	</g>
	<g>
		<g>
			<g>
				<defs>
					<rect id="SVGID_5_" width="200" height="200"/>
				</defs>
				<clipPath id="SVGID_6_">
					<use xlink:href="#SVGID_5_"  overflow="visible"/>
				</clipPath>
				<path clip-path="url(#SVGID_6_)" d="M14.453,94.628c0-40.369,32.843-73.209,73.209-73.209c40.369,0,73.208,32.84,73.208,73.209
					c0,40.356-32.839,73.196-73.208,73.196C47.295,167.824,14.453,134.984,14.453,94.628"/>
			</g>
		</g>
	</g>
	<g>
		<g>
			<g>
				<defs>
					<rect id="SVGID_7_" width="200" height="200"/>
				</defs>
				<clipPath id="SVGID_8_">
					<use xlink:href="#SVGID_7_"  overflow="visible"/>
				</clipPath>
				<path clip-path="url(#SVGID_8_)" fill="#FFC658" d="M36.673,43.636c-13.62,13.616-21.118,31.729-21.118,50.992
					c0,19.256,7.498,37.364,21.118,50.985c13.624,13.628,31.733,21.115,50.988,21.115c39.762,0,72.114-32.35,72.114-72.104
					c0-19.263-7.506-37.376-21.121-50.992c-13.623-13.62-31.729-21.118-50.993-21.118C68.406,22.518,50.297,30.016,36.673,43.636"/>
			</g>
		</g>
	</g>
	<g>
		<g>
			<g>
				<defs>
					<rect id="SVGID_9_" width="200" height="200"/>
				</defs>
				<clipPath id="SVGID_10_">
					<use xlink:href="#SVGID_9_"  overflow="visible"/>
				</clipPath>
				<path clip-path="url(#SVGID_10_)" fill="#E0A231" d="M99.431,88.651c-2.104,0-3.801,1.702-3.801,3.806
					c0,2.111,1.697,3.816,3.801,3.816c2.116,0,3.817-1.705,3.817-3.816C103.248,90.353,101.547,88.651,99.431,88.651"/>
			</g>
		</g>
	</g>
	<g>
		<g>
			<g>
				<defs>
					<rect id="SVGID_11_" width="200" height="200"/>
				</defs>
				<clipPath id="SVGID_12_">
					<use xlink:href="#SVGID_11_"  overflow="visible"/>
				</clipPath>
				<path clip-path="url(#SVGID_12_)" fill="#EAAA00" d="M108.768,89.524c-1.621,0-2.938,1.311-2.938,2.933
					c0,1.625,1.314,2.94,2.938,2.94c1.629,0,2.943-1.315,2.943-2.94C111.711,90.834,110.396,89.524,108.768,89.524"/>
			</g>
		</g>
	</g>
	<g>
		<g>
			<g>
				<defs>
					<rect id="SVGID_13_" width="200" height="200"/>
				</defs>
				<clipPath id="SVGID_14_">
					<use xlink:href="#SVGID_13_"  overflow="visible"/>
				</clipPath>
				<path clip-path="url(#SVGID_14_)" fill="#E0A231" d="M117.037,90.167c-1.268,0-2.294,1.034-2.294,2.293
					c0,1.271,1.026,2.297,2.294,2.297s2.296-1.026,2.296-2.297C119.333,91.201,118.305,90.167,117.037,90.167"/>
			</g>
		</g>
	</g>
	<g>
		<g>
			<g>
				<defs>
					<rect id="SVGID_15_" width="200" height="200"/>
				</defs>
				<clipPath id="SVGID_16_">
					<use xlink:href="#SVGID_15_"  overflow="visible"/>
				</clipPath>
				<path clip-path="url(#SVGID_16_)" fill="#E0A231" d="M121.859,92.46c0,0.978,0.793,1.77,1.767,1.77
					c0.97,0,1.763-0.792,1.763-1.77c0-0.97-0.793-1.762-1.763-1.762C122.652,90.698,121.859,91.49,121.859,92.46"/>
			</g>
		</g>
	</g>
	<g>
		<g>
			<g>
				<defs>
					<rect id="SVGID_17_" width="200" height="200"/>
				</defs>
				<clipPath id="SVGID_18_">
					<use xlink:href="#SVGID_17_"  overflow="visible"/>
				</clipPath>
				<path clip-path="url(#SVGID_18_)" fill="#E0A231" d="M123.305,84.89c0.729,0,1.313-0.587,1.313-1.307
					c0-0.724-0.584-1.307-1.313-1.307c-0.717,0-1.3,0.583-1.3,1.307C122.005,84.303,122.588,84.89,123.305,84.89"/>
			</g>
		</g>
	</g>
	<g>
		<g>
			<g>
				<defs>
					<rect id="SVGID_19_" width="200" height="200"/>
				</defs>
				<clipPath id="SVGID_20_">
					<use xlink:href="#SVGID_19_"  overflow="visible"/>
				</clipPath>
				<path clip-path="url(#SVGID_20_)" fill="#EAAA00" d="M114.632,82.771c0,1.158,0.937,2.091,2.091,2.091
					c1.159,0,2.088-0.933,2.088-2.091c0-1.151-0.929-2.092-2.088-2.092C115.568,80.678,114.632,81.619,114.632,82.771"/>
			</g>
		</g>
	</g>
	<g>
		<g>
			<g>
				<defs>
					<rect id="SVGID_21_" width="200" height="200"/>
				</defs>
				<clipPath id="SVGID_22_">
					<use xlink:href="#SVGID_21_"  overflow="visible"/>
				</clipPath>
				<path clip-path="url(#SVGID_22_)" fill="#E0A231" d="M106.438,82.086c0,1.243,1.014,2.253,2.248,2.253
					c1.248,0,2.258-1.01,2.258-2.253c0-1.239-1.01-2.249-2.258-2.249C107.448,79.837,106.438,80.847,106.438,82.086"/>
			</g>
		</g>
	</g>
	<g>
		<g>
			<g>
				<defs>
					<rect id="SVGID_23_" width="200" height="200"/>
				</defs>
				<clipPath id="SVGID_24_">
					<use xlink:href="#SVGID_23_"  overflow="visible"/>
				</clipPath>
				<path clip-path="url(#SVGID_24_)" fill="#E0A231" d="M97.259,81.624c0,1.4,1.134,2.534,2.534,2.534
					c1.396,0,2.525-1.134,2.525-2.534c0-1.396-1.129-2.526-2.525-2.526C98.393,79.098,97.259,80.228,97.259,81.624"/>
			</g>
		</g>
	</g>
	<g>
		<g>
			<g>
				<defs>
					<rect id="SVGID_25_" width="200" height="200"/>
				</defs>
				<clipPath id="SVGID_26_">
					<use xlink:href="#SVGID_25_"  overflow="visible"/>
				</clipPath>
				<path clip-path="url(#SVGID_26_)" fill="#E0A231" d="M88.96,84.729c1.621,0,2.932-1.311,2.932-2.932s-1.311-2.932-2.932-2.932
					c-1.625,0-2.936,1.311-2.936,2.932C86.024,83.417,87.335,84.729,88.96,84.729"/>
			</g>
		</g>
	</g>
	<g>
		<g>
			<g>
				<defs>
					<rect id="SVGID_27_" width="200" height="200"/>
				</defs>
				<clipPath id="SVGID_28_">
					<use xlink:href="#SVGID_27_"  overflow="visible"/>
				</clipPath>
				<path clip-path="url(#SVGID_28_)" fill="#EAAA00" d="M88.948,74.821c1.328,0,2.398-1.073,2.398-2.397
					c0-1.327-1.07-2.397-2.398-2.397c-1.32,0-2.394,1.07-2.394,2.397C86.554,73.749,87.628,74.821,88.948,74.821"/>
			</g>
		</g>
	</g>
	<g>
		<g>
			<g>
				<defs>
					<rect id="SVGID_29_" width="200" height="200"/>
				</defs>
				<clipPath id="SVGID_30_">
					<use xlink:href="#SVGID_29_"  overflow="visible"/>
				</clipPath>
				<path clip-path="url(#SVGID_30_)" fill="#EAAA00" d="M97.114,72.726c0,1.219,1.001,2.208,2.216,2.208
					c1.223,0,2.217-0.989,2.217-2.208c0-1.227-0.994-2.213-2.217-2.213C98.115,70.513,97.114,71.499,97.114,72.726"/>
			</g>
		</g>
	</g>
	<g>
		<g>
			<g>
				<defs>
					<rect id="SVGID_31_" width="200" height="200"/>
				</defs>
				<clipPath id="SVGID_32_">
					<use xlink:href="#SVGID_31_"  overflow="visible"/>
				</clipPath>
				<path clip-path="url(#SVGID_32_)" fill="#EAAA00" d="M105.907,73.499c0,1.114,0.903,2.015,2.011,2.015
					c1.115,0,2.016-0.901,2.016-2.015c0-1.114-0.897-2.02-2.016-2.02C106.813,71.479,105.907,72.384,105.907,73.499"/>
			</g>
		</g>
	</g>
	<g>
		<g>
			<g>
				<defs>
					<rect id="SVGID_33_" width="200" height="200"/>
				</defs>
				<clipPath id="SVGID_34_">
					<use xlink:href="#SVGID_33_"  overflow="visible"/>
				</clipPath>
				<path clip-path="url(#SVGID_34_)" fill="#EAAA00" d="M114.33,74.672c0,0.897,0.725,1.621,1.611,1.621
					c0.91,0,1.631-0.724,1.631-1.621s-0.721-1.617-1.631-1.617C115.055,73.056,114.33,73.775,114.33,74.672"/>
			</g>
		</g>
	</g>
	<g>
		<g>
			<g>
				<defs>
					<rect id="SVGID_35_" width="200" height="200"/>
				</defs>
				<clipPath id="SVGID_36_">
					<use xlink:href="#SVGID_35_"  overflow="visible"/>
				</clipPath>
				<path clip-path="url(#SVGID_36_)" fill="#EAAA00" d="M121.373,76.76c0.555,0,1.005-0.446,1.005-1.002
					c0-0.547-0.45-1.001-1.005-1.001s-1.001,0.454-1.001,1.001C120.372,76.314,120.818,76.76,121.373,76.76"/>
			</g>
		</g>
	</g>
	<g>
		<g>
			<g>
				<defs>
					<rect id="SVGID_37_" width="200" height="200"/>
				</defs>
				<clipPath id="SVGID_38_">
					<use xlink:href="#SVGID_37_"  overflow="visible"/>
				</clipPath>
				<path clip-path="url(#SVGID_38_)" fill="#EAAA00" d="M88.948,66.362c1.086,0,1.971-0.881,1.971-1.967
					c0-1.09-0.885-1.967-1.971-1.967c-1.082,0-1.963,0.877-1.963,1.967C86.985,65.481,87.866,66.362,88.948,66.362"/>
			</g>
		</g>
	</g>
	<g>
		<g>
			<g>
				<defs>
					<rect id="SVGID_39_" width="200" height="200"/>
				</defs>
				<clipPath id="SVGID_40_">
					<use xlink:href="#SVGID_39_"  overflow="visible"/>
				</clipPath>
				<path clip-path="url(#SVGID_40_)" fill="#EAAA00" d="M96.655,64.722c0,1.086,0.885,1.967,1.967,1.967
					c1.086,0,1.971-0.881,1.971-1.967c0-1.086-0.885-1.967-1.971-1.967C97.54,62.754,96.655,63.636,96.655,64.722"/>
			</g>
		</g>
	</g>
	<g>
		<g>
			<g>
				<defs>
					<rect id="SVGID_41_" width="200" height="200"/>
				</defs>
				<clipPath id="SVGID_42_">
					<use xlink:href="#SVGID_41_"  overflow="visible"/>
				</clipPath>
				<path clip-path="url(#SVGID_42_)" fill="#EAAA00" d="M105.23,65.498c0,0.824,0.672,1.492,1.5,1.492
					c0.818,0,1.486-0.668,1.486-1.492c0-0.829-0.668-1.501-1.486-1.501C105.902,63.997,105.23,64.668,105.23,65.498"/>
			</g>
		</g>
	</g>
	<g>
		<g>
			<g>
				<defs>
					<rect id="SVGID_43_" width="200" height="200"/>
				</defs>
				<clipPath id="SVGID_44_">
					<use xlink:href="#SVGID_43_"  overflow="visible"/>
				</clipPath>
				<path clip-path="url(#SVGID_44_)" fill="#EAAA00" d="M114.7,67.983c0.69,0,1.241-0.559,1.241-1.251s-0.551-1.251-1.241-1.251
					c-0.688,0-1.252,0.559-1.252,1.251C113.448,67.425,114.014,67.983,114.7,67.983"/>
			</g>
		</g>
	</g>
	<g>
		<g>
			<g>
				<defs>
					<rect id="SVGID_45_" width="200" height="200"/>
				</defs>
				<clipPath id="SVGID_46_">
					<use xlink:href="#SVGID_45_"  overflow="visible"/>
				</clipPath>
				<path clip-path="url(#SVGID_46_)" fill="#EAAA00" d="M88.948,58.945c0.801,0,1.44-0.644,1.44-1.44s-0.639-1.448-1.44-1.448
					c-0.792,0-1.44,0.652-1.44,1.448S88.156,58.945,88.948,58.945"/>
			</g>
		</g>
	</g>
	<g>
		<g>
			<g>
				<defs>
					<rect id="SVGID_47_" width="200" height="200"/>
				</defs>
				<clipPath id="SVGID_48_">
					<use xlink:href="#SVGID_47_"  overflow="visible"/>
				</clipPath>
				<path clip-path="url(#SVGID_48_)" fill="#EAAA00" d="M97.818,59.537c0.8,0,1.44-0.648,1.44-1.444c0-0.793-0.64-1.44-1.44-1.44
					c-0.796,0-1.44,0.647-1.44,1.44C96.378,58.889,97.022,59.537,97.818,59.537"/>
			</g>
		</g>
	</g>
	<g>
		<g>
			<g>
				<defs>
					<rect id="SVGID_49_" width="200" height="200"/>
				</defs>
				<clipPath id="SVGID_50_">
					<use xlink:href="#SVGID_49_"  overflow="visible"/>
				</clipPath>
				<path clip-path="url(#SVGID_50_)" fill="#EAAA00" d="M105.77,61.202c0.625,0,1.127-0.507,1.127-1.134
					c0-0.624-0.502-1.126-1.127-1.126c-0.617,0-1.134,0.502-1.134,1.126C104.637,60.695,105.15,61.202,105.77,61.202"/>
			</g>
		</g>
	</g>
	<g>
		<g>
			<g>
				<defs>
					<rect id="SVGID_51_" width="200" height="200"/>
				</defs>
				<clipPath id="SVGID_52_">
					<use xlink:href="#SVGID_51_"  overflow="visible"/>
				</clipPath>
				<path clip-path="url(#SVGID_52_)" fill="#EAAA00" d="M78.458,88.651c-2.104,0-3.809,1.702-3.809,3.806
					c0,2.111,1.705,3.816,3.809,3.816s3.813-1.705,3.813-3.816C82.271,90.353,80.562,88.651,78.458,88.651"/>
			</g>
		</g>
	</g>
	<g>
		<g>
			<g>
				<defs>
					<rect id="SVGID_53_" width="200" height="200"/>
				</defs>
				<clipPath id="SVGID_54_">
					<use xlink:href="#SVGID_53_"  overflow="visible"/>
				</clipPath>
				<path clip-path="url(#SVGID_54_)" fill="#E0A231" d="M69.122,95.396c1.621,0,2.937-1.315,2.937-2.94
					c0-1.621-1.316-2.933-2.937-2.933s-2.936,1.312-2.936,2.933C66.186,94.082,67.5,95.396,69.122,95.396"/>
			</g>
		</g>
	</g>
	<g>
		<g>
			<g>
				<defs>
					<rect id="SVGID_55_" width="200" height="200"/>
				</defs>
				<clipPath id="SVGID_56_">
					<use xlink:href="#SVGID_55_"  overflow="visible"/>
				</clipPath>
				<path clip-path="url(#SVGID_56_)" fill="#E0A231" d="M60.855,94.757c1.263,0,2.292-1.025,2.292-2.297
					c0-1.259-1.029-2.293-2.292-2.293c-1.271,0-2.297,1.034-2.297,2.293C58.559,93.732,59.584,94.757,60.855,94.757"/>
			</g>
		</g>
	</g>
	<g>
		<g>
			<g>
				<defs>
					<rect id="SVGID_57_" width="200" height="200"/>
				</defs>
				<clipPath id="SVGID_58_">
					<use xlink:href="#SVGID_57_"  overflow="visible"/>
				</clipPath>
				<path clip-path="url(#SVGID_58_)" fill="#E0A231" d="M56.033,92.46c0-0.97-0.788-1.762-1.762-1.762
					c-0.977,0-1.77,0.792-1.77,1.762c0,0.978,0.793,1.77,1.77,1.77C55.245,94.23,56.033,93.438,56.033,92.46"/>
			</g>
		</g>
	</g>
	<g>
		<g>
			<g>
				<defs>
					<rect id="SVGID_59_" width="200" height="200"/>
				</defs>
				<clipPath id="SVGID_60_">
					<use xlink:href="#SVGID_59_"  overflow="visible"/>
				</clipPath>
				<path clip-path="url(#SVGID_60_)" fill="#E0A231" d="M54.584,84.89c0.724,0,1.307-0.587,1.307-1.307
					c0-0.724-0.583-1.307-1.307-1.307c-0.732,0-1.307,0.583-1.307,1.307C53.278,84.303,53.853,84.89,54.584,84.89"/>
			</g>
		</g>
	</g>
	<g>
		<g>
			<g>
				<defs>
					<rect id="SVGID_61_" width="200" height="200"/>
				</defs>
				<clipPath id="SVGID_62_">
					<use xlink:href="#SVGID_61_"  overflow="visible"/>
				</clipPath>
				<path clip-path="url(#SVGID_62_)" fill="#EAAA00" d="M61.169,84.862c1.158,0,2.092-0.933,2.092-2.091
					c0-1.151-0.934-2.092-2.092-2.092c-1.155,0-2.092,0.941-2.092,2.092C59.078,83.929,60.014,84.862,61.169,84.862"/>
			</g>
		</g>
	</g>
	<g>
		<g>
			<g>
				<defs>
					<rect id="SVGID_63_" width="200" height="200"/>
				</defs>
				<clipPath id="SVGID_64_">
					<use xlink:href="#SVGID_63_"  overflow="visible"/>
				</clipPath>
				<path clip-path="url(#SVGID_64_)" fill="#E0A231" d="M69.202,84.339c1.243,0,2.249-1.01,2.249-2.253
					c0-1.239-1.006-2.248-2.249-2.248c-1.239,0-2.252,1.009-2.252,2.248C66.95,83.329,67.963,84.339,69.202,84.339"/>
			</g>
		</g>
	</g>
	<g>
		<g>
			<g>
				<defs>
					<rect id="SVGID_65_" width="200" height="200"/>
				</defs>
				<clipPath id="SVGID_66_">
					<use xlink:href="#SVGID_65_"  overflow="visible"/>
				</clipPath>
				<path clip-path="url(#SVGID_66_)" fill="#EAAA00" d="M78.104,84.158c1.392,0,2.522-1.134,2.522-2.534
					c0-1.396-1.13-2.526-2.522-2.526c-1.4,0-2.538,1.13-2.538,2.526C75.565,83.024,76.704,84.158,78.104,84.158"/>
			</g>
		</g>
	</g>
	<g>
		<g>
			<g>
				<defs>
					<rect id="SVGID_67_" width="200" height="200"/>
				</defs>
				<clipPath id="SVGID_68_">
					<use xlink:href="#SVGID_67_"  overflow="visible"/>
				</clipPath>
				<path clip-path="url(#SVGID_68_)" fill="#EAAA00" d="M78.562,74.934c1.223,0,2.213-0.989,2.213-2.208
					c0-1.227-0.99-2.213-2.213-2.213c-1.227,0-2.208,0.986-2.208,2.213C76.354,73.945,77.335,74.934,78.562,74.934"/>
			</g>
		</g>
	</g>
	<g>
		<g>
			<g>
				<defs>
					<rect id="SVGID_69_" width="200" height="200"/>
				</defs>
				<clipPath id="SVGID_70_">
					<use xlink:href="#SVGID_69_"  overflow="visible"/>
				</clipPath>
				<path clip-path="url(#SVGID_70_)" fill="#EAAA00" d="M69.971,75.514c1.114,0,2.019-0.901,2.019-2.015
					c0-1.114-0.905-2.02-2.019-2.02c-1.114,0-2.011,0.906-2.011,2.02C67.959,74.612,68.856,75.514,69.971,75.514"/>
			</g>
		</g>
	</g>
	<g>
		<g>
			<g>
				<defs>
					<rect id="SVGID_71_" width="200" height="200"/>
				</defs>
				<clipPath id="SVGID_72_">
					<use xlink:href="#SVGID_71_"  overflow="visible"/>
				</clipPath>
				<path clip-path="url(#SVGID_72_)" fill="#EAAA00" d="M61.945,76.294c0.893,0,1.621-0.724,1.621-1.621s-0.728-1.617-1.621-1.617
					c-0.901,0-1.621,0.72-1.621,1.617S61.044,76.294,61.945,76.294"/>
			</g>
		</g>
	</g>
	<g>
		<g>
			<g>
				<defs>
					<rect id="SVGID_73_" width="200" height="200"/>
				</defs>
				<clipPath id="SVGID_74_">
					<use xlink:href="#SVGID_73_"  overflow="visible"/>
				</clipPath>
				<path clip-path="url(#SVGID_74_)" fill="#E0A231" d="M56.524,74.757c-0.56,0-1.002,0.454-1.002,1.001
					c0,0.556,0.442,1.002,1.002,1.002c0.547,0,0.997-0.446,0.997-1.002C57.521,75.211,57.071,74.757,56.524,74.757"/>
			</g>
		</g>
	</g>
	<g>
		<g>
			<g>
				<defs>
					<rect id="SVGID_75_" width="200" height="200"/>
				</defs>
				<clipPath id="SVGID_76_">
					<use xlink:href="#SVGID_75_"  overflow="visible"/>
				</clipPath>
				<path clip-path="url(#SVGID_76_)" fill="#EAAA00" d="M79.267,66.688c1.09,0,1.967-0.881,1.967-1.967
					c0-1.086-0.877-1.967-1.967-1.967c-1.082,0-1.967,0.881-1.967,1.967C77.3,65.807,78.185,66.688,79.267,66.688"/>
			</g>
		</g>
	</g>
	<g>
		<g>
			<g>
				<defs>
					<rect id="SVGID_77_" width="200" height="200"/>
				</defs>
				<clipPath id="SVGID_78_">
					<use xlink:href="#SVGID_77_"  overflow="visible"/>
				</clipPath>
				<path clip-path="url(#SVGID_78_)" fill="#EAAA00" d="M71.165,66.99c0.829,0,1.496-0.668,1.496-1.492
					c0-0.829-0.667-1.501-1.496-1.501c-0.824,0-1.5,0.672-1.5,1.501C69.665,66.322,70.341,66.99,71.165,66.99"/>
			</g>
		</g>
	</g>
	<g>
		<g>
			<g>
				<defs>
					<rect id="SVGID_79_" width="200" height="200"/>
				</defs>
				<clipPath id="SVGID_80_">
					<use xlink:href="#SVGID_79_"  overflow="visible"/>
				</clipPath>
				<path clip-path="url(#SVGID_80_)" fill="#EAAA00" d="M63.188,65.482c-0.684,0-1.243,0.559-1.243,1.251s0.559,1.251,1.243,1.251
					c0.692,0,1.259-0.559,1.259-1.251C64.448,66.041,63.881,65.482,63.188,65.482"/>
			</g>
		</g>
	</g>
	<g>
		<g>
			<g>
				<defs>
					<rect id="SVGID_81_" width="200" height="200"/>
				</defs>
				<clipPath id="SVGID_82_">
					<use xlink:href="#SVGID_81_"  overflow="visible"/>
				</clipPath>
				<path clip-path="url(#SVGID_82_)" fill="#EAAA00" d="M80.071,59.537c0.796,0,1.444-0.648,1.444-1.444
					c0-0.793-0.648-1.44-1.444-1.44c-0.8,0-1.44,0.647-1.44,1.44C78.63,58.889,79.271,59.537,80.071,59.537"/>
			</g>
		</g>
	</g>
	<g>
		<g>
			<g>
				<defs>
					<rect id="SVGID_83_" width="200" height="200"/>
				</defs>
				<clipPath id="SVGID_84_">
					<use xlink:href="#SVGID_83_"  overflow="visible"/>
				</clipPath>
				<path clip-path="url(#SVGID_84_)" fill="#EAAA00" d="M72.126,58.941c-0.627,0-1.134,0.503-1.134,1.127
					c0,0.627,0.507,1.133,1.134,1.133c0.623,0,1.127-0.506,1.127-1.133C73.253,59.444,72.75,58.941,72.126,58.941"/>
			</g>
		</g>
	</g>
	<g>
		<g>
			<g>
				<defs>
					<rect id="SVGID_85_" width="200" height="200"/>
				</defs>
				<clipPath id="SVGID_86_">
					<use xlink:href="#SVGID_85_"  overflow="visible"/>
				</clipPath>
				<path clip-path="url(#SVGID_86_)" fill="#E0A231" d="M123.305,100.006c-0.717,0-1.3,0.579-1.3,1.303
					c0,0.728,0.583,1.308,1.3,1.308c0.729,0,1.313-0.58,1.313-1.308C124.615,100.585,124.031,100.006,123.305,100.006"/>
			</g>
		</g>
	</g>
	<g>
		<g>
			<g>
				<defs>
					<rect id="SVGID_87_" width="200" height="200"/>
				</defs>
				<clipPath id="SVGID_88_">
					<use xlink:href="#SVGID_87_"  overflow="visible"/>
				</clipPath>
				<path clip-path="url(#SVGID_88_)" fill="#E0A231" d="M116.723,100.03c-1.154,0-2.091,0.94-2.091,2.091s0.937,2.092,2.091,2.092
					c1.159,0,2.088-0.939,2.088-2.092C118.811,100.973,117.882,100.03,116.723,100.03"/>
			</g>
		</g>
	</g>
	<g>
		<g>
			<g>
				<defs>
					<rect id="SVGID_89_" width="200" height="200"/>
				</defs>
				<clipPath id="SVGID_90_">
					<use xlink:href="#SVGID_89_"  overflow="visible"/>
				</clipPath>
				<path clip-path="url(#SVGID_90_)" fill="#EAAA00" d="M108.686,100.555c-1.235,0-2.246,1.006-2.246,2.252
					c0,1.237,1.011,2.252,2.246,2.252c1.248,0,2.258-1.015,2.258-2.252C110.943,101.561,109.934,100.555,108.686,100.555"/>
			</g>
		</g>
	</g>
	<g>
		<g>
			<g>
				<defs>
					<rect id="SVGID_91_" width="200" height="200"/>
				</defs>
				<clipPath id="SVGID_92_">
					<use xlink:href="#SVGID_91_"  overflow="visible"/>
				</clipPath>
				<path clip-path="url(#SVGID_92_)" fill="#E0A231" d="M99.793,100.746c-1.4,0-2.534,1.126-2.534,2.518
					c0,1.4,1.134,2.534,2.534,2.534c1.396,0,2.525-1.134,2.525-2.534C102.318,101.872,101.188,100.746,99.793,100.746"/>
			</g>
		</g>
	</g>
	<g>
		<g>
			<g>
				<defs>
					<rect id="SVGID_93_" width="200" height="200"/>
				</defs>
				<clipPath id="SVGID_94_">
					<use xlink:href="#SVGID_93_"  overflow="visible"/>
				</clipPath>
				<path clip-path="url(#SVGID_94_)" fill="#E0A231" d="M88.96,100.159c-1.625,0-2.936,1.319-2.936,2.937
					c0,1.618,1.311,2.938,2.936,2.938c1.621,0,2.932-1.319,2.932-2.938C91.892,101.479,90.581,100.159,88.96,100.159"/>
			</g>
		</g>
	</g>
	<g>
		<g>
			<g>
				<defs>
					<rect id="SVGID_95_" width="200" height="200"/>
				</defs>
				<clipPath id="SVGID_96_">
					<use xlink:href="#SVGID_95_"  overflow="visible"/>
				</clipPath>
				<path clip-path="url(#SVGID_96_)" fill="#EAAA00" d="M88.948,110.078c-1.32,0-2.394,1.07-2.394,2.39
					c0,1.327,1.074,2.397,2.394,2.397c1.328,0,2.398-1.07,2.398-2.397C91.346,111.148,90.276,110.078,88.948,110.078"/>
			</g>
		</g>
	</g>
	<g>
		<g>
			<g>
				<defs>
					<rect id="SVGID_97_" width="200" height="200"/>
				</defs>
				<clipPath id="SVGID_98_">
					<use xlink:href="#SVGID_97_"  overflow="visible"/>
				</clipPath>
				<path clip-path="url(#SVGID_98_)" fill="#EAAA00" d="M99.33,109.958c-1.215,0-2.216,0.99-2.216,2.204
					c0,1.23,1.001,2.221,2.216,2.221c1.223,0,2.217-0.99,2.217-2.221C101.547,110.948,100.553,109.958,99.33,109.958"/>
			</g>
		</g>
	</g>
	<g>
		<g>
			<g>
				<defs>
					<rect id="SVGID_99_" width="200" height="200"/>
				</defs>
				<clipPath id="SVGID_100_">
					<use xlink:href="#SVGID_99_"  overflow="visible"/>
				</clipPath>
				<path clip-path="url(#SVGID_100_)" fill="#E0A231" d="M107.918,109.387c-1.105,0-2.012,0.901-2.012,2.012
					c0,1.109,0.904,2.014,2.012,2.014c1.114,0,2.016-0.901,2.016-2.014C109.934,110.288,109.032,109.387,107.918,109.387"/>
			</g>
		</g>
	</g>
	<g>
		<g>
			<g>
				<defs>
					<rect id="SVGID_101_" width="200" height="200"/>
				</defs>
				<clipPath id="SVGID_102_">
					<use xlink:href="#SVGID_101_"  overflow="visible"/>
				</clipPath>
				<path clip-path="url(#SVGID_102_)" fill="#EAAA00" d="M117.572,110.215c0-0.895-0.721-1.625-1.629-1.625
					c-0.893,0-1.613,0.73-1.613,1.625c0,0.9,0.725,1.625,1.613,1.625C116.852,111.84,117.572,111.115,117.572,110.215"/>
			</g>
		</g>
	</g>
	<g>
		<g>
			<g>
				<defs>
					<rect id="SVGID_103_" width="200" height="200"/>
				</defs>
				<clipPath id="SVGID_104_">
					<use xlink:href="#SVGID_103_"  overflow="visible"/>
				</clipPath>
				<path clip-path="url(#SVGID_104_)" fill="#EAAA00" d="M121.373,110.135c0.555,0,1.005-0.449,1.005-1.006
					c0-0.556-0.45-0.998-1.005-0.998s-1.001,0.442-1.001,0.998C120.372,109.686,120.818,110.135,121.373,110.135"/>
			</g>
		</g>
	</g>
	<g>
		<g>
			<g>
				<defs>
					<rect id="SVGID_105_" width="200" height="200"/>
				</defs>
				<clipPath id="SVGID_106_">
					<use xlink:href="#SVGID_105_"  overflow="visible"/>
				</clipPath>
				<path clip-path="url(#SVGID_106_)" fill="#EAAA00" d="M88.948,118.533c-1.082,0-1.963,0.877-1.963,1.972
					c0,1.077,0.881,1.963,1.963,1.963c1.086,0,1.971-0.886,1.971-1.963C90.919,119.41,90.034,118.533,88.948,118.533"/>
			</g>
		</g>
	</g>
	<g>
		<g>
			<g>
				<defs>
					<rect id="SVGID_107_" width="200" height="200"/>
				</defs>
				<clipPath id="SVGID_108_">
					<use xlink:href="#SVGID_107_"  overflow="visible"/>
				</clipPath>
				<path clip-path="url(#SVGID_108_)" fill="#EAAA00" d="M98.622,118.212c-1.082,0-1.967,0.868-1.967,1.963
					c0,1.086,0.885,1.972,1.967,1.972c1.086,0,1.971-0.886,1.971-1.972C100.593,119.08,99.708,118.212,98.622,118.212"/>
			</g>
		</g>
	</g>
	<g>
		<g>
			<g>
				<defs>
					<rect id="SVGID_109_" width="200" height="200"/>
				</defs>
				<clipPath id="SVGID_110_">
					<use xlink:href="#SVGID_109_"  overflow="visible"/>
				</clipPath>
				<path clip-path="url(#SVGID_110_)" fill="#EAAA00" d="M106.73,117.896c-0.828,0-1.5,0.678-1.5,1.496
					c0,0.83,0.672,1.498,1.5,1.498c0.818,0,1.486-0.668,1.486-1.498C108.221,118.574,107.552,117.896,106.73,117.896"/>
			</g>
		</g>
	</g>
	<g>
		<g>
			<g>
				<defs>
					<rect id="SVGID_111_" width="200" height="200"/>
				</defs>
				<clipPath id="SVGID_112_">
					<use xlink:href="#SVGID_111_"  overflow="visible"/>
				</clipPath>
				<path clip-path="url(#SVGID_112_)" fill="#EAAA00" d="M114.7,116.917c-0.688,0-1.252,0.556-1.252,1.247s0.563,1.245,1.252,1.245
					c0.69,0,1.241-0.554,1.241-1.245S115.393,116.917,114.7,116.917"/>
			</g>
		</g>
	</g>
	<g>
		<g>
			<g>
				<defs>
					<rect id="SVGID_113_" width="200" height="200"/>
				</defs>
				<clipPath id="SVGID_114_">
					<use xlink:href="#SVGID_113_"  overflow="visible"/>
				</clipPath>
				<path clip-path="url(#SVGID_114_)" fill="#EAAA00" d="M88.948,125.951c-0.792,0-1.44,0.645-1.44,1.439
					c0,0.793,0.648,1.438,1.44,1.438c0.801,0,1.44-0.646,1.44-1.438C90.388,126.596,89.749,125.951,88.948,125.951"/>
			</g>
		</g>
	</g>
	<g>
		<g>
			<g>
				<defs>
					<rect id="SVGID_115_" width="200" height="200"/>
				</defs>
				<clipPath id="SVGID_116_">
					<use xlink:href="#SVGID_115_"  overflow="visible"/>
				</clipPath>
				<path clip-path="url(#SVGID_116_)" fill="#EAAA00" d="M97.818,125.355c-0.796,0-1.44,0.649-1.44,1.438
					c0,0.807,0.644,1.448,1.44,1.448c0.8,0,1.44-0.646,1.44-1.448C99.258,126.008,98.618,125.355,97.818,125.355"/>
			</g>
		</g>
	</g>
	<g>
		<g>
			<g>
				<defs>
					<rect id="SVGID_117_" width="200" height="200"/>
				</defs>
				<clipPath id="SVGID_118_">
					<use xlink:href="#SVGID_117_"  overflow="visible"/>
				</clipPath>
				<path clip-path="url(#SVGID_118_)" fill="#EAAA00" d="M105.77,123.689c-0.617,0-1.134,0.509-1.134,1.136
					s0.517,1.134,1.134,1.134c0.625,0,1.127-0.507,1.127-1.134S106.395,123.689,105.77,123.689"/>
			</g>
		</g>
	</g>
	<g>
		<g>
			<g>
				<defs>
					<rect id="SVGID_119_" width="200" height="200"/>
				</defs>
				<clipPath id="SVGID_120_">
					<use xlink:href="#SVGID_119_"  overflow="visible"/>
				</clipPath>
				<path clip-path="url(#SVGID_120_)" fill="#E0A231" d="M54.584,100.006c-0.732,0-1.307,0.579-1.307,1.303
					c0,0.728,0.575,1.308,1.307,1.308c0.724,0,1.307-0.58,1.307-1.308C55.892,100.585,55.309,100.006,54.584,100.006"/>
			</g>
		</g>
	</g>
	<g>
		<g>
			<g>
				<defs>
					<rect id="SVGID_121_" width="200" height="200"/>
				</defs>
				<clipPath id="SVGID_122_">
					<use xlink:href="#SVGID_121_"  overflow="visible"/>
				</clipPath>
				<path clip-path="url(#SVGID_122_)" fill="#E0A231" d="M63.261,102.122c0-1.149-0.934-2.091-2.092-2.091
					c-1.154,0-2.092,0.941-2.092,2.091s0.938,2.092,2.092,2.092C62.327,104.214,63.261,103.271,63.261,102.122"/>
			</g>
		</g>
	</g>
	<g>
		<g>
			<g>
				<defs>
					<rect id="SVGID_123_" width="200" height="200"/>
				</defs>
				<clipPath id="SVGID_124_">
					<use xlink:href="#SVGID_123_"  overflow="visible"/>
				</clipPath>
				<path clip-path="url(#SVGID_124_)" fill="#E0A231" d="M71.451,102.807c0-1.248-1.005-2.252-2.249-2.252
					c-1.238,0-2.252,1.004-2.252,2.252c0,1.238,1.014,2.252,2.252,2.252C70.445,105.059,71.451,104.045,71.451,102.807"/>
			</g>
		</g>
	</g>
	<g>
		<g>
			<g>
				<defs>
					<rect id="SVGID_125_" width="200" height="200"/>
				</defs>
				<clipPath id="SVGID_126_">
					<use xlink:href="#SVGID_125_"  overflow="visible"/>
				</clipPath>
				<path clip-path="url(#SVGID_126_)" fill="#EAAA00" d="M80.626,103.266c0-1.394-1.13-2.52-2.522-2.52
					c-1.4,0-2.538,1.126-2.538,2.52c0,1.398,1.138,2.532,2.538,2.532C79.496,105.798,80.626,104.664,80.626,103.266"/>
			</g>
		</g>
	</g>
	<g>
		<g>
			<g>
				<defs>
					<rect id="SVGID_127_" width="200" height="200"/>
				</defs>
				<clipPath id="SVGID_128_">
					<use xlink:href="#SVGID_127_"  overflow="visible"/>
				</clipPath>
				<path clip-path="url(#SVGID_128_)" fill="#E0A231" d="M80.775,112.162c0-1.215-0.989-2.204-2.213-2.204
					c-1.226,0-2.208,0.989-2.208,2.204c0,1.23,0.982,2.221,2.208,2.221C79.786,114.383,80.775,113.393,80.775,112.162"/>
			</g>
		</g>
	</g>
	<g>
		<g>
			<g>
				<defs>
					<rect id="SVGID_129_" width="200" height="200"/>
				</defs>
				<clipPath id="SVGID_130_">
					<use xlink:href="#SVGID_129_"  overflow="visible"/>
				</clipPath>
				<path clip-path="url(#SVGID_130_)" fill="#E0A231" d="M71.99,111.396c0-1.108-0.905-2.013-2.019-2.013
					c-1.114,0-2.012,0.901-2.012,2.013c0,1.108,0.898,2.013,2.012,2.013C71.085,113.409,71.99,112.508,71.99,111.396"/>
			</g>
		</g>
	</g>
	<g>
		<g>
			<g>
				<defs>
					<rect id="SVGID_131_" width="200" height="200"/>
				</defs>
				<clipPath id="SVGID_132_">
					<use xlink:href="#SVGID_131_"  overflow="visible"/>
				</clipPath>
				<path clip-path="url(#SVGID_132_)" fill="#E0A231" d="M63.567,110.215c0-0.895-0.728-1.625-1.621-1.625
					c-0.902,0-1.621,0.73-1.621,1.625c0,0.9,0.719,1.625,1.621,1.625C62.839,111.84,63.567,111.115,63.567,110.215"/>
			</g>
		</g>
	</g>
	<g>
		<g>
			<g>
				<defs>
					<rect id="SVGID_133_" width="200" height="200"/>
				</defs>
				<clipPath id="SVGID_134_">
					<use xlink:href="#SVGID_133_"  overflow="visible"/>
				</clipPath>
				<path clip-path="url(#SVGID_134_)" fill="#EAAA00" d="M56.524,108.131c-0.56,0-1.002,0.443-1.002,0.998
					c0,0.557,0.442,1.006,1.002,1.006c0.547,0,0.997-0.449,0.997-1.006C57.521,108.574,57.071,108.131,56.524,108.131"/>
			</g>
		</g>
	</g>
	<g>
		<g>
			<g>
				<defs>
					<rect id="SVGID_135_" width="200" height="200"/>
				</defs>
				<clipPath id="SVGID_136_">
					<use xlink:href="#SVGID_135_"  overflow="visible"/>
				</clipPath>
				<path clip-path="url(#SVGID_136_)" fill="#EAAA00" d="M81.233,120.175c0-1.095-0.877-1.964-1.967-1.964
					c-1.082,0-1.967,0.869-1.967,1.964c0,1.086,0.885,1.972,1.967,1.972C80.356,122.146,81.233,121.261,81.233,120.175"/>
			</g>
		</g>
	</g>
	<g>
		<g>
			<g>
				<defs>
					<rect id="SVGID_137_" width="200" height="200"/>
				</defs>
				<clipPath id="SVGID_138_">
					<use xlink:href="#SVGID_137_"  overflow="visible"/>
				</clipPath>
				<path clip-path="url(#SVGID_138_)" fill="#EAAA00" d="M72.661,119.395c0-0.817-0.668-1.496-1.496-1.496
					c-0.824,0-1.5,0.679-1.5,1.496c0,0.83,0.676,1.498,1.5,1.498C71.993,120.893,72.661,120.225,72.661,119.395"/>
			</g>
		</g>
	</g>
	<g>
		<g>
			<g>
				<defs>
					<rect id="SVGID_139_" width="200" height="200"/>
				</defs>
				<clipPath id="SVGID_140_">
					<use xlink:href="#SVGID_139_"  overflow="visible"/>
				</clipPath>
				<path clip-path="url(#SVGID_140_)" fill="#EAAA00" d="M63.188,116.917c-0.684,0-1.243,0.556-1.243,1.247
					s0.559,1.245,1.243,1.245c0.692,0,1.259-0.554,1.259-1.245C64.448,117.473,63.881,116.917,63.188,116.917"/>
			</g>
		</g>
	</g>
	<g>
		<g>
			<g>
				<defs>
					<rect id="SVGID_141_" width="200" height="200"/>
				</defs>
				<clipPath id="SVGID_142_">
					<use xlink:href="#SVGID_141_"  overflow="visible"/>
				</clipPath>
				<path clip-path="url(#SVGID_142_)" fill="#EAAA00" d="M80.071,125.355c-0.8,0-1.44,0.649-1.44,1.438
					c0,0.807,0.64,1.448,1.44,1.448c0.796,0,1.444-0.646,1.444-1.448C81.515,126.008,80.867,125.355,80.071,125.355"/>
			</g>
		</g>
	</g>
	<g>
		<g>
			<g>
				<defs>
					<rect id="SVGID_143_" width="200" height="200"/>
				</defs>
				<clipPath id="SVGID_144_">
					<use xlink:href="#SVGID_143_"  overflow="visible"/>
				</clipPath>
				<path clip-path="url(#SVGID_144_)" fill="#EAAA00" d="M72.126,123.689c-0.627,0-1.134,0.509-1.134,1.136
					s0.507,1.134,1.134,1.134c0.623,0,1.127-0.507,1.127-1.134S72.75,123.689,72.126,123.689"/>
			</g>
		</g>
	</g>
	<g>
		<g>
			<g>
				<defs>
					<rect id="SVGID_145_" width="200" height="200"/>
				</defs>
				<clipPath id="SVGID_146_">
					<use xlink:href="#SVGID_145_"  overflow="visible"/>
				</clipPath>
				<path clip-path="url(#SVGID_146_)" fill="#E0A231" d="M88.944,88.02c-2.45,0-4.437,1.987-4.437,4.437
					c0,2.461,1.987,4.444,4.437,4.444c2.453,0,4.445-1.983,4.445-4.444C93.389,90.006,91.397,88.02,88.944,88.02"/>
			</g>
		</g>
	</g>
	<g>
		<g>
			<g>
				<defs>
					<rect id="SVGID_147_" width="200" height="200"/>
				</defs>
				<clipPath id="SVGID_148_">
					<use xlink:href="#SVGID_147_"  overflow="visible"/>
				</clipPath>
				<path clip-path="url(#SVGID_148_)" fill="#E0A231" d="M142.111,141.85c-0.135,0.155-0.274,0.311-0.41,0.463
					C141.839,142.159,141.975,142.003,142.111,141.85"/>
			</g>
		</g>
	</g>
	<g>
		<g>
			<g>
				<defs>
					<rect id="SVGID_149_" width="200" height="200"/>
				</defs>
				<clipPath id="SVGID_150_">
					<use xlink:href="#SVGID_149_"  overflow="visible"/>
				</clipPath>
				<path clip-path="url(#SVGID_150_)" fill="#EAAA00" d="M83.369,33.97c34.617,0,59.753,22.316,59.753,53.064
					c0,20.864-16.677,51.739-52.448,51.739l-0.994,0.009l-2.417-0.024c-4.336-0.225-8.966-1.263-13.387-3.001
					c-9.61-3.804-17.409-10.528-22.067-18.704c8.467,12.663,23.873,19.581,36.166,19.75h0.056h0.004c0.008,0.01,0.008,0,0.008,0
					H88.1c17.212-0.016,28.037-8.229,34.085-15.115c7.563-8.613,11.902-19.959,11.902-31.117c0-34.751-25.871-52.936-51.43-52.936
					c-30.667,0-55.614,27.341-55.614,60.948c0,32.026,25.945,66.33,64.572,66.33c19.678,0,37.462-8.685,50.082-22.601
					c0.136-0.154,0.274-0.31,0.409-0.463c0.021-0.022,0.039-0.049,0.063-0.068c10.961-12.65,17.604-29.143,17.604-47.152
					c0-8.668-1.523-17.1-4.438-24.997c1.148,5.056,1.684,10.361,1.684,16.461c0,25.032-12.275,41.073-22.569,50.108
					c-12.417,10.9-28.604,17.417-43.309,17.417c-16.488,0-31.589-6.017-42.51-16.937c-10.144-10.146-15.964-23.859-15.964-37.643
					c0-27.252,21.954-49.456,49.089-49.935c-22.22,3.391-39.388,23.656-39.388,48.052c0,33.938,25.325,52.67,49.17,53.063
					l1.103,0.01c13.314,0,26.95-6.121,37.412-16.799c11.565-11.803,17.934-28.027,17.934-45.695
					c0-18.262-6.842-34.963-19.264-47.039c-11.703-11.37-27.248-17.775-43.931-18.12c-18.179,0.707-35.174,8.115-48.119,21.057
					C23.053,57.25,15.555,75.364,15.555,94.627c0,11.73,2.788,23.036,8.044,33.162c-4.26-9.443-6.214-20.416-6.214-28.508
					C17.385,63.269,46.986,33.97,83.369,33.97 M50.017,91.902c0.418-20.958,17.593-37.876,38.654-37.876
					c21.313,0,38.663,17.34,38.663,38.659s-17.35,38.665-38.663,38.665c-21.207,0-38.473-17.158-38.66-38.315
					c0.09-0.171,0.145-0.363,0.145-0.571C50.156,92.258,50.103,92.07,50.017,91.902"/>
			</g>
		</g>
	</g>
	<g>
		<g>
			<g>
				<defs>
					<rect id="SVGID_151_" width="200" height="200"/>
				</defs>
				<clipPath id="SVGID_152_">
					<use xlink:href="#SVGID_151_"  overflow="visible"/>
				</clipPath>
				<polygon clip-path="url(#SVGID_152_)" points="69.09,186.215 68.422,186.215 68.422,183.439 67.429,183.439 67.429,182.876 
					70.079,182.876 70.079,183.439 69.09,183.439 				"/>
			</g>
		</g>
	</g>
	<g>
		<g>
			<g>
				<defs>
					<rect id="SVGID_153_" width="200" height="200"/>
				</defs>
				<clipPath id="SVGID_154_">
					<use xlink:href="#SVGID_153_"  overflow="visible"/>
				</clipPath>
				<polygon clip-path="url(#SVGID_154_)" points="71.129,186.215 70.51,186.215 70.51,182.876 71.511,182.876 72.115,185.152 
					72.714,182.876 73.723,182.876 73.723,186.215 73.096,186.215 73.096,183.585 72.436,186.215 71.785,186.215 71.129,183.585 
									"/>
			</g>
		</g>
	</g>
	<g>
		<g>
			<g>
				<defs>
					<rect id="SVGID_155_" width="200" height="200"/>
				</defs>
				<clipPath id="SVGID_156_">
					<use xlink:href="#SVGID_155_"  overflow="visible"/>
				</clipPath>
				<path clip-path="url(#SVGID_156_)" d="M156.521,81.326c0,0-7.94,14.593-8.487,15.583v11.562l-9.925,2.479V98.1
					c-0.284-0.626-4.52-9.923-7.075-15.543c-2.664,4.254-5.687,9.079-6.407,10.229c1.371,2.176,11.26,17.815,11.26,17.815
					l-10.354,2.731c0,0-4.115-6.709-6.354-10.36c-2.047,3.981-5.752,11.176-5.752,11.176l-14.409,0.926c0,0-0.829-4.225-1.174-5.961
					h-6.822c-0.326,1.834-1.102,6.171-1.102,6.171H79.43l0.002-0.007c-2.834-0.108-5.883-0.223-6.016-0.229
					c-0.012,0-0.937-0.08-0.937-0.08s-0.164-0.016-0.164-0.022h0.012c-1.329-0.108-2.505-0.479-3.51-1.063l0.259,1.125
					l-11.142-0.725c0,0-1.11-5.188-1.524-7.127c-1.65-0.201-3.568-0.442-5.447-0.687c-0.619,2.115-2.079,7.128-2.079,7.128h-1.806
					c-0.33,0-0.33,0-6.303-1.344l-2.406-0.54l0.604-2.399c-1.744,1.117-3.63,1.35-4.924,1.153l-0.056-0.009l-8.097-1.616
					l-0.258-0.057c-1.368-0.249-2.461-0.563-4.119-2.188c-0.893-0.887-1.959-2.484-1.959-5.147V86.48
					c0-2.997,0.386-4.377,1.662-5.901c1.492-1.778,3.245-2.446,5.937-3.037l10.824-2.526l2.952-0.688v10.39
					c0,0-9.118,2.1-11.347,2.607v11.946c0.99,0.209,2.257,0.483,3.146,0.676v-8.556h9.645v4.369l4.156-16.533l0.024-0.072
					c1.021-3.226,3.966-6.468,7.61-6.428c3.017,0.04,5.366,1.858,6.288,4.892l0.011,0.076L65.015,97.4V71.837h9.987v32.835h6.561
					l5.659-28.165l0.037-0.109c0.965-3.209,4.389-4.887,7.269-4.887c2.859,0,6.287,1.666,7.296,4.864l0.044,0.128l5.284,27.796
					c2.67-4.989,5.39-10.071,5.935-11.091c-1.243-2.063-13.045-21.661-13.045-21.661l12.233,0.934c0,0,4.142,6.958,6.387,10.732
					c1.995-3.408,5.539-9.461,5.539-9.461l15.124,2.586c0,0,2.239,5.185,3.78,8.745c1.34-2.53,3.625-6.858,3.625-6.858
					L156.521,81.326z M94.491,92.532c-0.752,3.339-1.146,5.061-1.516,6.694h2.876C95.521,97.617,95.171,95.863,94.491,92.532
					 M53.76,95.175c-0.108,0.591-0.213,1.155-0.289,1.565c0.297,0.032,0.305,0.032,0.611,0.064
					C53.985,96.306,53.889,95.831,53.76,95.175"/>
			</g>
		</g>
	</g>
	<g>
		<g>
			<g>
				<defs>
					<rect id="SVGID_157_" width="200" height="200"/>
				</defs>
				<clipPath id="SVGID_158_">
					<use xlink:href="#SVGID_157_"  overflow="visible"/>
				</clipPath>
				<path clip-path="url(#SVGID_158_)" fill="#FFFFFF" d="M147.459,79.995c0,0-3.259,6.162-4.488,8.475
					c-1.127-2.61-4.675-10.828-4.675-10.828l-13.338-2.277c0,0-5.032,8.604-6.284,10.732c-1.308-2.192-7.271-12.212-7.271-12.212
					l-8.637-0.652c0,0,11.488,19.067,12.012,19.931c-0.327,0.612-5.217,9.742-8.293,15.488l-6.045-31.792l-0.016-0.048
					c-0.793-2.518-3.568-3.833-5.893-3.833c-2.345,0-5.105,1.319-5.873,3.841l-0.008,0.048l-5.878,29.268h-8.88
					c-0.346-0.018-0.346-0.112-0.35-0.2V73.306h-7.056v33.073c0,4.208,2.176,6.798,5.961,7.111c-0.023-0.01,0.23,0.023,0.23,0.023
					l0.712,0.063c-0.028,0,8.467,0.321,8.467,0.321l6.834-0.08c0,0,0.889-4.986,1.106-6.172h9.26
					c0.229,1.146,1.166,5.896,1.166,5.896l12.285-0.805c0,0,5.354-10.402,6.581-12.767c1.353,2.236,7.123,11.666,7.123,11.666
					l7.369-1.947c0,0-10.103-15.959-10.687-16.901c0.424-0.677,5.562-8.877,8.342-13.321c2.199,4.827,8.209,18.02,8.346,18.309
					v11.289l6.988-1.737V96.539c0.225-0.402,7.813-14.348,7.813-14.348L147.459,79.995z M91.141,100.697
					c0.362-1.592,2.293-10.184,3.427-15.167c1.01,5,2.759,13.6,3.077,15.167H91.141z"/>
			</g>
		</g>
	</g>
	<g>
		<g>
			<g>
				<defs>
					<rect id="SVGID_159_" width="200" height="200"/>
				</defs>
				<clipPath id="SVGID_160_">
					<use xlink:href="#SVGID_159_"  overflow="visible"/>
				</clipPath>
				<path clip-path="url(#SVGID_160_)" fill="#FFFFFF" d="M34.195,92.862v8.689c-0.008,0.022-0.016,0.057-0.016,0.063
					c-0.04,0.032-0.253,0.088-0.712-0.009c0.016,0.009-4.195-0.901-5.326-1.15c-0.012-0.112-0.016-0.217-0.016-0.217V86.716
					c0,0.032-0.004-0.552-0.004-0.552v-0.007c1.67-0.378,10.615-2.438,10.615-2.438l0.728-0.169v-7.373l-1.15,0.274l-10.821,2.525
					c-2.445,0.539-3.917,1.082-5.144,2.547c-1.034,1.239-1.315,2.309-1.315,4.959v14.971c0,1.706,0.519,3.122,1.516,4.095
					c1.4,1.376,2.185,1.587,3.355,1.804l0.278,0.049l8.036,1.617c1.183,0.176,3.065-0.098,4.642-1.434
					c1.356-1.148,2.052-2.751,2.052-4.764v-9.958H34.195z"/>
			</g>
		</g>
	</g>
	<g>
		<g>
			<g>
				<defs>
					<rect id="SVGID_161_" width="200" height="200"/>
				</defs>
				<clipPath id="SVGID_162_">
					<use xlink:href="#SVGID_161_"  overflow="visible"/>
				</clipPath>
				<path clip-path="url(#SVGID_162_)" fill="#FFFFFF" d="M67.207,113.417l-8.061-0.522c0,0-1.291-5.994-1.52-7.063
					c-1.034-0.129-6.496-0.813-7.711-0.966c-0.366,1.237-2.136,7.271-2.136,7.271h-0.7c-0.136,0-0.169,0-5.981-1.312l-0.942-0.208
					l0.238-0.936c0,0,7.55-30.021,7.562-30.077c0.84-2.651,3.298-5.447,6.198-5.411c2.378,0.029,4.156,1.429,4.908,3.906
					L67.207,113.417z M53.716,87.344c-0.825,4.424-1.753,9.477-1.975,10.683c1.102,0.129,2.848,0.314,4.167,0.443
					C55.611,96.974,54.597,91.837,53.716,87.344"/>
			</g>
		</g>
	</g>
	<g>
		<g>
			<g>
				<defs>
					<rect id="SVGID_163_" width="200" height="200"/>
				</defs>
				<clipPath id="SVGID_164_">
					<use xlink:href="#SVGID_163_"  overflow="visible"/>
				</clipPath>
				<path clip-path="url(#SVGID_164_)" fill="#004F59" d="M41.298,109.917l7.546-30.02c0.668-2.091,2.727-4.79,5.294-4.763
					c1.922,0.025,3.375,1.091,4.006,3.174l7.86,34.086L59.91,112l-1.509-7.023l-9.163-1.134l-2.16,7.353
					C47.006,111.195,41.298,109.917,41.298,109.917 M57.07,99.548L53.675,82.34L50.63,98.855L57.07,99.548"/>
			</g>
		</g>
	</g>
	<g>
		<g>
			<g>
				<defs>
					<rect id="SVGID_165_" width="200" height="200"/>
				</defs>
				<clipPath id="SVGID_166_">
					<use xlink:href="#SVGID_165_"  overflow="visible"/>
				</clipPath>
				<path clip-path="url(#SVGID_166_)" fill="#004F59" d="M23.209,104.882c-0.773-0.757-1.239-1.892-1.239-3.428V86.483
					c0-2.63,0.294-3.395,1.094-4.36c1.038-1.235,2.269-1.714,4.642-2.237l10.82-2.526v5.443l-10.969,2.526
					c-0.535,0.16-0.342,0.603-0.37,1.387c0,0-0.004,12.808,0,13.411c0.008,0.459-0.04,1.086,0.459,1.191l5.635,1.214
					c1.106,0.219,1.754-0.097,1.85-0.894v-7.834h4.839v9.018c0,1.852-0.651,3.146-1.717,4.037c-1.291,1.096-2.876,1.377-3.841,1.229
					l-8.045-1.606C25.233,106.257,24.594,106.24,23.209,104.882"/>
			</g>
		</g>
	</g>
	<g>
		<g>
			<g>
				<defs>
					<rect id="SVGID_167_" width="200" height="200"/>
				</defs>
				<clipPath id="SVGID_168_">
					<use xlink:href="#SVGID_167_"  overflow="visible"/>
				</clipPath>
				<path clip-path="url(#SVGID_168_)" fill="#004F59" d="M147.921,81.12l-5.036,9.522l-5.253-12.168l-12.192-2.084l-6.754,11.553
					l-7.836-13.154l-6.343-0.482l11.339,18.829l-9.787,18.298l-6.531-34.342c-0.668-2.088-3.045-3.181-5-3.181
					c-1.923,0-4.345,1.093-4.968,3.181l-6.027,30.014l-9.644-0.037c-0.793-0.023-1.255-0.426-1.296-1.086V74.238h-5.168v32.14
					c0,3.572,1.717,5.897,5.096,6.17c0.302,0.033,0.603,0.097,0.865,0.097l8.995,0.196l-0.009,0.045h5.531l1.098-6.179h10.828
					l1.146,5.857l10.938-0.728l7.095-13.781l7.635,12.494l5.455-1.438L121.783,92.79l9.588-15.292l9.145,20.079v10.289l5.112-1.279
					V96.305l7.39-13.567L147.921,81.12z M89.966,101.639l4.646-20.583l4.183,20.583H89.966z"/>
			</g>
		</g>
	</g>
	<g>
		<g>
			<g>
				<path fill="#EAAA00" d="M102.926,110.135l0.596-0.119c-0.234-1.168-5.628-28.593-6.42-31.309
					c-0.467-1.593-1.662-2.099-2.619-2.047c-1.119,0.064-2.048,0.836-2.221,1.842c-0.063,0.374-0.458,2.096-1.057,4.694
					c-1.211,5.266-3.452,15.04-5.865,26.335h-10.67c-3.077,0-4.425-1.206-4.517-4.038V76.31h-0.599v29.19
					c0.096,3.17,1.713,4.635,5.116,4.635h11.15l0.053-0.232c0.404-1.896,0.804-3.744,1.195-5.543h14.718
					C102.451,107.719,102.91,110.053,102.926,110.135 M87.196,103.764c1.908-8.748,3.595-16.112,4.592-20.435
					c0.619-2.699,0.993-4.332,1.062-4.722c0.124-0.733,0.82-1.296,1.661-1.348c0.945-0.052,1.685,0.555,2.003,1.621
					c0.555,1.878,3.447,16.3,5.152,24.884H87.196L87.196,103.764z"/>
			</g>
		</g>
	</g>
</g>
</svg>
