<?xml version="1.0" encoding="utf-8"?>
<!-- Generator: Adobe Illustrator 14.0.0, SVG Export Plug-In . SVG Version: 6.00 Build 43363)  -->
<!DOCTYPE svg PUBLIC "-//W3C//DTD SVG 1.1//EN" "http://www.w3.org/Graphics/SVG/1.1/DTD/svg11.dtd">
<svg version="1.1" id="Layer_1" xmlns="http://www.w3.org/2000/svg" xmlns:xlink="http://www.w3.org/1999/xlink" x="0px" y="0px"
	 width="200px" height="200px" viewBox="0 0 200 200" enable-background="new 0 0 200 200" xml:space="preserve">
<g id="Background">
	<path fill="#FFC922" d="M99.947,190c-43.358-22.693-70.323-84.42-70.751-135.652C43.958,50.901,73.327,44.897,99.947,10
		c26.697,34.897,56.037,40.901,70.857,44.348C170.323,105.58,143.357,167.307,99.947,190"/>
	<path fill="#18559A" d="M38.434,61.183c1.039,22.373,7.393,46.693,17.781,67.653c11.267,22.854,26.723,40.499,43.732,50.514
		c17.058-10.015,32.542-27.658,43.81-50.514c10.388-20.96,16.712-45.28,17.863-67.653c-14.714-3.607-38.873-11.374-61.673-37.567
		C77.2,49.81,53.036,57.576,38.434,61.183"/>
	<path fill="#0C0528" d="M42.866,64.251c1.412,21.174,7.369,43.306,16.95,62.663c10.335,20.873,24.538,37.509,40.13,47.279
		c15.645-9.771,29.848-26.406,40.178-47.279c9.587-19.357,15.539-41.489,16.956-62.663c-15.247-3.951-36.63-12.146-57.134-34.495
		C79.496,52.105,58.055,60.3,42.866,64.251"/>
	<path fill="#E6A124" d="M97.971,19.747l1.976-2.296V10c-26.62,34.897-55.989,40.901-70.751,44.348l4.913,3.602l1.709-0.374
		C51.273,53.814,77.36,45.111,97.971,19.747"/>
	<path fill="#E6A124" d="M170.751,54.348l-5.073,3.602l-0.105,1.762c-0.055,23.121-7.985,50.406-18.559,71.735
		c-11.427,23.02-28.141,41.388-45.707,51.718l-1.359,0.776V190c43.412-22.693,70.376-84.42,70.857-135.652
		C170.751,54.348,170.751,54.348,170.751,54.348"/>
	<polyline fill="#0C0528" points="145.762,160.98 144.559,160.98 144.559,160.098 148.057,160.098 148.057,160.98 146.746,160.98 
		146.746,164.583 145.762,164.583 145.762,160.98 	"/>
	<path fill="#0C0528" d="M152.383,162.82c0-0.533,0-1.121,0-1.791h-0.054c-0.16,0.563-0.32,1.203-0.481,1.738l-0.563,1.762h-0.771
		l-0.48-1.762c-0.159-0.535-0.32-1.176-0.48-1.738c0,0.563,0,1.258-0.053,1.791l-0.107,1.763h-0.937l0.321-4.485h1.31l0.505,1.495
		c0.16,0.534,0.215,1.121,0.374,1.572c0.106-0.451,0.32-1.092,0.427-1.572l0.457-1.495h1.358l0.321,4.485h-1.039L152.383,162.82"/>
	<path fill="#B7B3C0" d="M93.539,119.195H70.472c-1.525,0-2.884-0.533-4.034-1.631c-1.146-1.092-1.709-2.457-1.709-4.059V79.231
		h8.598v31.985h20.212V119.195"/>
	<path fill="#FFFFFF" d="M66.331,80.216c0,3.446,0,32.358,0,32.358c0,0.99,0.32,1.814,1.15,2.593
		c0.694,0.747,1.573,1.146,2.617,1.146c0,0,17.834,0,21.038,0c0-1.549,0-2.563,0-4.059c-3.15,0-20.213,0-20.213,0s0-28.591,0-32.038
		C69.268,80.216,68.016,80.216,66.331,80.216"/>
	<path fill="#B7B3C0" d="M97.437,119.195h8.756l3.389-8.68h13.219l-2.83-7.34h-7.451l5.315-13.563l11.427,29.583h9.131
		c0,0-13.563-33.344-14.043-34.708c-1.098-2.961-2.807-5.257-6.515-5.257h-0.106c-3.631,0-5.209,2.296-6.248,5.257L97.437,119.195"
		/>
	<path fill="#FFFFFF" d="M99.84,116.313c1.977,0,3.281,0,4.432,0c0.694-1.869,3.39-8.756,3.39-8.756s9.077,0,12.631,0
		c-0.67-1.574-0.99-2.457-1.364-3.39c-1.814,0-9.902,0-9.902,0l8.408-21.441l9.854,25.204c0,0.106,2.029,5.819,3.015,8.383
		c1.15,0,2.724,0,4.806,0c-1.922-4.593-11.799-29.368-12.838-31.876c-1.045-2.641-2.297-4.005-4.271-4.005h-0.16
		c-2.967,0-4.059,1.364-5.104,3.897C112.732,84.328,101.307,112.628,99.84,116.313"/>
	<path fill="#FFC922" d="M142.475,133.264c-12.785-2.479-27.257-3.785-42.581-3.785c-15.966,0-31,1.494-44.295,4.213
		c-5.685,1.098-10.65,2.193-14.15,3.285c3.233,5.181,6.941,11.055,10.122,15.912c3.15-0.83,6.485-1.548,9.932-2.242
		c11.48-2.295,24.615-3.549,38.392-3.549c13.349,0,25.761,1.146,36.95,3.336c4.06,0.746,7.929,1.472,11.505,2.35
		c3.258-4.995,6.941-10.732,10.174-15.698C154.68,135.992,149.148,134.521,142.475,133.264"/>
	<path fill="#0C0528" d="M92.898,138.898c-0.214-0.237-0.267-0.724-0.267-1.336v-5.019l-2.806,0.16v5.103
		c0,1.092,0.16,1.786,1.043,2.506c0.985,0.828,2.136,0.828,3.602,0.775l3.02-0.136v-1.894l-2.859,0.159
		C93.724,139.326,93.218,139.166,92.898,138.898z"/>
	<path fill="#0C0528" d="M126.805,134.068l-3.285-0.319c0,0-1.467,1.733-1.922,2.243c-0.375-0.617-1.841-2.563-1.841-2.563
		l-3.34-0.35c0,0,3.5,4.378,3.714,4.592c-0.214,0.291-3.898,4.005-3.898,4.005l3.39,0.32c0,0,1.709-1.896,2.082-2.456
		c0.403,0.616,1.978,2.776,1.978,2.776l3.445,0.295c0,0-3.607-4.437-3.82-4.756C123.52,137.617,126.805,134.068,126.805,134.068z"/>
	<path fill="#0C0528" d="M78.452,133.536l-4.592,8.862l2.966-0.242c0,0,0.427-0.961,0.587-1.312l4.699-0.368
		c0.053,0.263,0.558,1.198,0.558,1.198l3.127-0.214l-4.593-8.197L78.452,133.536z M78.292,138.661c0.32-0.533,1.043-2.242,1.47-2.99
		c0.398,0.748,1.092,2.185,1.441,2.776L78.292,138.661z"/>
	<path fill="#0C0528" d="M58.938,140.264c0,1.467,0.612,2.504,1.709,3.121c1.092,0.533,2.107,0.428,3.388,0.268l5.233-0.611v-5.186
		l-4.699,0.593v1.709c1.31-0.058,1.524-0.058,2.082-0.136v1.334c-0.504,0.106-2.617,0.32-2.617,0.32
		c-1.281,0.215-2.028-0.054-2.028-1.922c0-2.189,0.99-2.617,2.028-2.777l5.233-0.724v-1.785l-5.233,0.642
		C60.647,135.564,58.938,137.244,58.938,140.264z"/>
	<path fill="#0C0528" d="M105.738,132.65l-4.594,8.438l2.967,0.054c0,0,0.479-1.043,0.587-1.281l4.646,0.053
		c0.159,0.35,0.611,1.389,0.611,1.389l3.126,0.16l-4.592-8.757L105.738,132.65z M105.578,137.807
		c0.318-0.563,1.043-2.136,1.471-2.858c0.398,0.772,1.146,2.351,1.441,2.907L105.578,137.807z"/>
	<path fill="#0C0528" d="M138.766,135.72c0,0-1.922,2.087-2.401,2.563c-0.374-0.665-2.296-3.281-2.296-3.281l-3.233-0.373
		c0,0,4.112,5.232,4.22,5.393c0,0.137,0,3.738,0,3.738l2.723,0.373c0,0,0-3.548,0-3.713c0.16-0.105,4.324-4.214,4.324-4.214
		L138.766,135.72z"/>
	<path fill="#E6A124" d="M152.702,138.846c-2.776,4.35-6.543,9.665-6.543,9.665c-3.442-0.665-7.181-1.364-11.054-1.976
		c-10.598-1.738-22.533-2.776-35.212-2.776c-13.189,0-25.631,1.097-36.63,2.989c-3.287,0.611-6.461,1.229-9.451,1.923l-2.242,4.218
		c2.402-0.615,6.111-1.494,7.368-1.709c0.107,0,2.801,4.165,2.908,4.06c0.053-0.159,1.951-1.976,3.043-3.015
		c1.258-1.098,3.5-2.776,3.554-2.776c9.796-1.312,20.344-2.351,31.451-2.351c13.242,0,25.761,1.146,36.95,3.336
		c5.471,0.961,9.477,1.84,11.611,2.35c3.34-4.995,6.543-10.383,10.066-15.698L152.702,138.846"/>
	<path fill="#18559A" d="M99.733,37.179c0,7.237-2.805,14.179-7.932,19.305c-5.097,5.097-11.801,7.98-19.14,7.98
		c-0.16,0-0.214,0.161-0.214,0.321c0,0.189,0.054,0.296,0.214,0.296c7.339,0.054,14.043,2.883,19.14,8.087
		c5.126,5.126,7.932,11.961,7.932,19.198c0,0.054,0.107,0.107,0.107,0.214c0.107,0.053,0.214,0.053,0.267,0h0.107
		c0.053-0.107,0.16-0.16,0.16-0.214c0-7.344,2.747-14.179,7.819-19.305c5.209-5.098,11.938-7.927,19.199-7.981
		c0.159,0,0.268-0.16,0.268-0.349c0-0.161-0.107-0.268-0.268-0.268c-7.263-0.052-13.99-2.883-19.199-8.086
		c-5.072-5.126-7.926-11.961-7.926-19.199c0-0.161-0.053-0.267-0.213-0.267C99.894,36.911,99.733,37.018,99.733,37.179"/>
	<path fill="#FFC922" d="M99.947,46.47l0.107,0.107c0.772,9.694,8.329,17.354,17.941,18.208c0.053,0,0.16,0,0.16,0.136
		c0,0-0.107,0.054-0.16,0.054c-1.418,0.106-2.859,0.374-4.22,0.854c-7.528,2.427-13.058,9.024-13.723,17.217
		c0,0,0,0.083-0.107,0.083c-0.053,0-0.053-0.083-0.053-0.083c-0.641-8.193-6.17-14.791-13.67-17.217
		c-1.417-0.481-2.723-0.748-4.272-0.854l-0.053-0.054c0-0.136,0-0.136,0.053-0.136c9.636-0.854,17.218-8.514,17.942-18.208
		L99.947,46.47"/>
	<path fill="#E6A124" d="M99.947,46.47l-0.053,0.107c-0.724,9.694-8.306,17.354-17.942,18.208c-0.053,0-0.053,0-0.053,0.136h18.048
		V46.47"/>
	<path fill="#E6A124" d="M99.947,83.129c0.107,0,0.107-0.083,0.107-0.083c0.665-8.193,6.193-14.791,13.723-17.217
		c1.358-0.481,2.801-0.748,4.219-0.854c0.053,0,0.16-0.054,0.16-0.054H99.947V83.129"/>
	<path fill="#FFFFFF" d="M112.038,64.785c-6.567-0.053-11.984-5.339-11.984-11.854h-0.16c0,3.179-1.204,6.194-3.394,8.359
		c-2.242,2.243-5.257,3.495-8.407,3.63h-0.107c0,0.054,0.107,0.054,0.107,0.054c6.485,0.106,11.801,5.471,11.801,11.96
		c0,0.107,0.053,0.107,0.053,0.107c0.107,0,0.107,0,0.107-0.107c0-6.568,5.417-11.96,11.984-11.96l0.054-0.054
		C112.092,64.785,112.038,64.785,112.038,64.785"/>
</g>
<g id="Content">
</g>
</svg>
