<?xml version="1.0" encoding="utf-8"?>
<!-- Generator: Adobe Illustrator 14.0.0, SVG Export Plug-In . SVG Version: 6.00 Build 43363)  -->
<!DOCTYPE svg PUBLIC "-//W3C//DTD SVG 1.1//EN" "http://www.w3.org/Graphics/SVG/1.1/DTD/svg11.dtd">
<svg version="1.1" id="Layer_1" xmlns="http://www.w3.org/2000/svg" xmlns:xlink="http://www.w3.org/1999/xlink" x="0px" y="0px"
	 width="200px" height="200px" viewBox="0 0 200 200" enable-background="new 0 0 200 200" xml:space="preserve">
<g id="Background">
	<g>
		<g>
			<path fill="#012169" d="M100,152.293c-50.178,0-91-23.459-91-52.293s40.822-52.293,91-52.293c50.178,0,91,23.459,91,52.293
				S150.178,152.293,100,152.293z"/>
			<path fill="#FFFFFF" d="M100,48.707c49.751,0,90,22.974,90,51.293c0,28.318-40.249,51.293-90,51.293
				c-49.754,0-90-22.975-90-51.293C10,71.68,50.246,48.707,100,48.707 M100,46.707c-24.398,0-47.357,5.43-64.648,15.29
				C17.714,72.053,8,85.55,8,100s9.714,27.947,27.352,38.004c17.291,9.859,40.25,15.289,64.648,15.289
				c24.396,0,47.355-5.43,64.646-15.289C182.286,127.945,192,114.45,192,100s-9.714-27.947-27.354-38.004
				C147.355,52.136,124.396,46.707,100,46.707L100,46.707z"/>
		</g>
		<path fill="#FFFFFF" d="M100.061,53.162c-43.701,0-79.134,20.995-79.134,46.739c0,25.947,35.433,46.937,79.134,46.937
			c43.583,0,79.013-20.99,79.013-46.937C179.073,74.157,143.645,53.162,100.061,53.162z"/>
		<path fill="#012169" d="M24.26,99.998c0-25.15,33.827-45.746,75.679-45.746c41.853,0,75.8,20.596,75.8,45.746
			c0,25.352-33.947,45.75-75.8,45.75C58.087,145.748,24.26,125.35,24.26,99.998"/>
		<path fill="#FFFFFF" d="M27.038,100c0-24.557,32.716-44.559,72.962-44.559S172.963,75.443,172.963,100
			c0,24.557-32.717,44.559-72.963,44.559S27.038,124.557,27.038,100"/>
		<path fill="#FFCD00" d="M119.251,57.019c-1.296-0.217-2.606-0.413-3.933-0.586l-1.37,29.311L119.251,57.019z"/>
		<path fill="#FFCD00" d="M135.352,61.033c-1.422-0.483-2.871-0.938-4.35-1.362l-17.791,27.458L135.352,61.033z"/>
		<path fill="#FFCD00" d="M156.646,71.952c-1.812-1.36-3.746-2.653-5.802-3.874L111.852,87.92L156.646,71.952z"/>
		<path fill="#FFCD00" d="M110.246,87.919L172.963,100c0-2.943-0.475-5.819-1.371-8.604L110.246,87.919z"/>
		<path fill="#FFCD00" d="M156.673,128.027c2.304-1.733,4.396-3.573,6.259-5.506l-54.168-35.396L156.673,128.027z"/>
		<path fill="#FFCD00" d="M110.863,87.919c1.729,0,3.085-1.385,3.085-2.971c0-0.417-0.076-0.809-0.212-1.169l0.092,0.18
			l-9.958-28.455c-1.281-0.041-2.571-0.063-3.87-0.063c-0.21,0-0.419,0.004-0.63,0.005l14.046,27.7
			c-0.248-0.375-0.575-0.686-0.956-0.918L82.973,56.669c-2.534,0.372-5.016,0.824-7.44,1.353l36.273,23.906
			c-0.298-0.094-0.613-0.145-0.943-0.145c-0.074,0-0.148,0.006-0.225,0.012L46.845,69.512c-3.893,2.53-7.311,5.335-10.16,8.364
			l73.393,4.021c-0.243,0.069-0.477,0.168-0.696,0.295l-80.535,27.683c1.304,3.505,3.288,6.854,5.859,9.992L108.9,82.532
			c-0.1,0.084-0.191,0.177-0.28,0.273l0.022-0.034l-48.281,54.622c3.075,1.219,6.306,2.303,9.676,3.233l38.028-56.994
			c-0.157,0.343-0.258,0.721-0.28,1.122l-11.398,59.749c1.197,0.036,2.4,0.056,3.611,0.056c1.378,0,2.746-0.024,4.104-0.072
			l3.719-59.078c0.057,0.315,0.168,0.617,0.326,0.895l18.976,55.063c2.646-0.648,5.216-1.389,7.698-2.215l-26.44-52.499
			C108.963,87.407,109.891,87.919,110.863,87.919z"/>
		<path fill="#FFCD00" d="M73.703,80.789l-12.59,2.576v33.072h12.838c0,0,0-17.823,0-21.39c2.961,2.378,19.999,16.636,19.999,16.636
			h11.479c0,0,17.037-14.258,20.004-16.636c0,3.565,0,21.39,0,21.39h12.838V83.365l-13.211-2.576c0,0-24.074,21.193-25.434,22.381
			c-1.234-1.188-25.429-22.381-25.429-22.381H73.703 M100.369,105.346c0,0,24.445-21.585,25.308-22.179
			c0.865,0.198,9.136,1.781,10.494,1.979c0,1.586,0,27.331,0,29.115c-1.479,0-7.036,0-8.519,0c0-1.981,0-23.963,0-23.963
			s-22.344,18.812-22.961,19.21c-0.74,0-9.259,0-9.876,0c-0.617-0.398-22.963-19.21-22.963-19.21s0,21.981,0,23.963
			c-1.604,0-7.037,0-8.519,0c0-1.784,0-27.528,0-29.115c1.358-0.198,9.384-1.781,10.246-1.979
			c0.741,0.594,26.049,22.776,26.049,22.776L100.369,105.346z"/>
		<path fill="#FFFFFF" d="M73.827,81.584L61.73,83.959v31.885h11.604c0,0,0-20.398,0-22.179
			c1.482,1.188,20.864,17.426,20.864,17.426h11.112c0,0,19.381-16.239,20.737-17.426c0,1.781,0,22.179,0,22.179h11.604V83.958
			l-12.469-2.576c0,0-24.938,22.183-25.558,22.578c-0.493-0.396-25.677-22.578-25.677-22.578L73.827,81.584"/>
		<path fill="#FFCD00" d="M100,104.95c0,0,25.184-22.179,25.434-22.575c0.491,0.198,10.737,2.177,11.354,2.375
			c0,0.594,0,29.313,0,30.104c-0.741,0-9.013,0-9.753,0c0-0.791,0-23.17,0-23.17s-21.852,18.222-22.1,18.418
			c-0.367,0-10.123,0-10.371,0c-0.245-0.196-22.099-18.418-22.099-18.418s0,22.379,0,23.17c-0.865,0-9.012,0-9.753,0
			c0-0.791,0-29.511,0-30.104c0.617-0.198,10.619-2.176,10.987-2.375c0.372,0.396,25.925,22.773,25.925,22.773L100,104.95z"/>
		<path fill="#012169" d="M109.229,94.654c0,1.187,0.877,1.979,1.883,1.979c1.003,0,1.883-0.792,1.883-1.979
			c0-0.99-0.88-1.785-1.883-1.785C110.105,92.87,109.229,93.665,109.229,94.654"/>
		<path fill="#FFFFFF" d="M110.221,94.652c0-0.396,0.447-0.792,0.894-0.792s0.89,0.396,0.89,0.792c0,0.594-0.443,0.989-0.89,0.989
			S110.221,95.246,110.221,94.652"/>
		<path fill="#012169" d="M73.334,96.831h-2.348v5.746c0,0.196-0.121,0.196-0.121,0.196h-0.248h-8.026h-0.245c0,0,0,0,0-0.196
			v-5.746H59.63v6.339c0,0.197,0.369,0.396,0.493,0.396c0.493,0,1.11,0,1.851,0h9.26c0.741,0,1.234,0,1.727,0
			c0.248-0.198,0.497-0.198,0.497-0.594V96.83L73.334,96.831"/>
		<path fill="#012169" d="M97.035,99.604c-0.369,0-0.862,0-1.479,0h-8.891H86.42l-0.124-0.198c0,0,0-1.385,0-1.781
			c0.124,0,0.124,0,0.124,0h0.245h8.026h0.248c0,0,0,0,0.121,0c0,0.198,0,0.792,0,0.792h2.592v-0.989
			c0-0.399-0.245-0.399-0.617-0.597c-0.369,0-1.11,0-1.851,0h-9.26c-0.617,0-1.11,0-1.727,0c-0.493,0.198-0.617,0.396-0.617,0.597
			v2.375c0,0.198,0.124,0.594,0.493,0.594c0.496,0.199,0.865,0,1.358,0h0.493h8.767l0.248,0.199c0.121,0,0.121,0,0.121,0
			s0,1.783,0,2.18c-0.121,0-0.369,0-0.369,0h-8.026H86.42c0-0.196,0-0.791,0-0.791h-2.717v0.988c0,0.396,0.249,0.396,0.617,0.594
			c0.369,0,0.986,0,1.727,0h9.384c0.741,0,1.234,0,1.727,0c0.249-0.196,0.617-0.196,0.617-0.594V100.2
			C97.776,100,97.408,99.802,97.035,99.604"/>
		<polyline fill="#012169" points="112.346,96.831 109.753,96.831 109.753,103.564 112.471,103.564 112.471,96.831 112.346,96.831 
					"/>
		<path fill="#012169" d="M137.777,96.831c-0.493,0-1.11,0-1.978,0h-9.012c-0.741,0-1.481,0-1.976,0
			c-0.25,0.198-0.617,0.198-0.617,0.597v5.742c0,0.197,0.244,0.197,0.617,0.396c0.617,0,1.108,0,1.852,0h9.26
			c0.741,0,1.234,0,1.729,0c0.248-0.198,0.617-0.198,0.617-0.594v-5.545C138.271,97.227,138.146,97.029,137.777,96.831
			 M135.678,102.773L135.678,102.773h-0.248h-8.146h-0.248c0-0.197,0-4.95,0-5.148l0,0h0.248h8.146h0.125h0.123
			C135.678,97.823,135.678,102.576,135.678,102.773z"/>
		<path fill="#012169" d="M109.596,95.644v-1.583H36.667v9.9h3.085c0,0,0-3.961,0-4.159c0.372,0,9.508,0,9.508,0v-1.583
			c0,0-9.136,0-9.508,0c0-0.198,0-2.18,0-2.576c0.372,0,69.508,0,69.508,0"/>
		<path fill="#012169" d="M160.861,94.061h-48.234v1.583c0,0,45.27,0,45.518,0c0,0.396,0,5.741,0,6.141
			c-0.369-0.198-9.629-4.558-9.629-4.558h-2.472v6.537h2.717c0,0,0-4.355,0-4.753c0.372,0.198,10.249,4.753,10.249,4.753h1.729
			h0.122V94.061"/>
		<path fill="#012169" d="M89.754,132.677c0.369,0,4.32,0,4.32,0l1.976-1.386h-0.617h-7.409v7.131h1.73c0,0,0-2.576,0-2.972h3.579
			l1.852-1.188c0,0-5.061,0-5.43,0C89.754,134.064,89.754,132.874,89.754,132.677z"/>
		<path fill="#012169" d="M107.16,132.677c0.369,0,6.912,0,6.912,0l-1.852-1.386h-0.123h-5.063l-1.604,1.188v4.953l1.604,0.99h5.186
			l1.853-1.389c0,0-6.543,0-6.912,0C107.16,136.835,107.16,132.874,107.16,132.677z"/>
		<polygon fill="#012169" points="96.542,136.835 96.426,136.835 96.426,136.835 95.175,136.835 95.175,136.835 95.06,136.835 
			95.06,138.422 96.667,138.422 96.667,136.835 		"/>
		<polygon fill="#012169" points="116.922,136.835 116.922,136.835 115.671,136.835 115.671,136.835 115.555,136.835 
			115.555,138.422 117.037,138.422 117.037,136.835 		"/>
		<polyline fill="#012169" points="166.664,143.372 165.678,143.372 165.678,139.411 164.195,139.411 164.195,138.422 
			168.146,138.422 168.146,139.411 166.664,139.411 166.664,143.372 		"/>
		<polyline fill="#012169" points="169.629,143.372 168.764,143.372 168.764,138.422 170.246,138.422 171.111,141.789 
			171.975,138.422 173.456,138.422 173.456,143.372 172.59,143.372 172.59,139.607 171.604,143.372 170.615,143.372 
			169.629,139.607 169.629,143.372 		"/>
	</g>
</g>
<g id="Content">
</g>
</svg>
