<?xml version="1.0" encoding="utf-8"?>
<!-- Generator: Adobe Illustrator 14.0.0, SVG Export Plug-In . SVG Version: 6.00 Build 43363)  -->
<!DOCTYPE svg PUBLIC "-//W3C//DTD SVG 1.1//EN" "http://www.w3.org/Graphics/SVG/1.1/DTD/svg11.dtd">
<svg version="1.1" id="Layer_1" xmlns="http://www.w3.org/2000/svg" xmlns:xlink="http://www.w3.org/1999/xlink" x="0px" y="0px"
	 width="200px" height="200px" viewBox="0 0 200 200" enable-background="new 0 0 200 200" xml:space="preserve">
<g id="Background">
	<path d="M118.137,127.848c0-0.043-0.078-0.082-0.236-0.111c-0.143-0.043-0.353-0.061-0.569-0.061h-0.827v0.861h0.827
		c0.219,0,0.429-0.014,0.569-0.051c0.158-0.03,0.236-0.073,0.236-0.125V127.848 M118.137,129.779v-0.883
		c0-0.057-0.078-0.1-0.236-0.123c-0.143-0.039-0.353-0.058-0.569-0.058h-0.827v1.063h-1.113v-2.27h1.94
		c0.793,0,1.329,0.025,1.63,0.096c0.282,0.061,0.314,0.166,0.314,0.267v0.487c0,0.177-0.521,0.259-1.026,0.273
		c0.506,0.014,1.026,0.092,1.026,0.258v0.889H118.137"/>
	<path d="M124.148,129.438c0,0.107-0.063,0.197-0.348,0.271c-0.309,0.061-0.806,0.09-1.595,0.09c-0.798,0-1.325-0.029-1.604-0.09
		c-0.305-0.073-0.353-0.163-0.353-0.271v-0.41h1.128v0.457c0,0.097,0.287,0.136,0.827,0.136c0.526,0,0.797-0.039,0.797-0.136v-0.805
		h-2.752v-0.832c0-0.105,0.048-0.205,0.353-0.267c0.277-0.06,0.807-0.095,1.604-0.095c0.789,0,1.286,0.035,1.595,0.095
		c0.283,0.062,0.348,0.159,0.348,0.267v0.291h-1.146V127.8c0-0.099-0.271-0.133-0.797-0.133c-0.54,0-0.827,0.034-0.827,0.133v0.699
		h2.77V129.438"/>
	<polyline points="125.175,129.779 125.175,127.514 126.298,127.514 126.298,129.602 128.195,129.602 128.195,129.779 
		125.175,129.779 	"/>
	<path d="M117.887,130.686l-1.591,0.48c-0.081,0.033-0.099,0.068-0.099,0.098v0.193h1.945v0.124h-2.738v-0.313
		c0-0.076,0.099-0.129,0.271-0.172l1.526-0.479c0.086-0.018,0.152-0.068,0.152-0.111v-0.316c0-0.067-0.205-0.095-0.582-0.095
		s-0.574,0.025-0.574,0.095v0.274h-0.793v-0.249c0-0.066,0.048-0.138,0.244-0.181c0.197-0.042,0.564-0.068,1.123-0.068
		c0.558,0,0.935,0.026,1.127,0.068c0.203,0.043,0.244,0.11,0.244,0.181v0.291C118.145,130.568,118.041,130.634,117.887,130.686"/>
	<path d="M121.471,131.346v-1.132c0-0.067-0.048-0.138-0.244-0.181c-0.209-0.042-0.568-0.068-1.123-0.068
		c-0.558,0-0.922,0.026-1.119,0.068c-0.223,0.043-0.248,0.111-0.248,0.181v1.132c0,0.072,0.025,0.137,0.248,0.18
		c0.197,0.043,0.563,0.068,1.119,0.068c0.555,0,0.914-0.025,1.123-0.068C121.423,131.482,121.471,131.418,121.471,131.346
		 M120.669,131.371c0,0.068-0.185,0.09-0.565,0.09c-0.377,0-0.578-0.021-0.578-0.09v-1.184c0-0.068,0.201-0.096,0.578-0.096
		c0.381,0,0.565,0.025,0.565,0.096V131.371"/>
	<path d="M124.878,131.346v-1.132c0-0.067-0.046-0.138-0.243-0.181c-0.215-0.042-0.566-0.068-1.123-0.068
		c-0.558,0-0.918,0.026-1.133,0.068c-0.209,0.043-0.238,0.111-0.238,0.181v1.132c0,0.072,0.029,0.137,0.238,0.18
		c0.215,0.043,0.575,0.068,1.133,0.068c0.557,0,0.908-0.025,1.123-0.068C124.832,131.482,124.878,131.418,124.878,131.346
		 M124.077,131.371c0,0.068-0.188,0.09-0.565,0.09c-0.378,0-0.584-0.021-0.584-0.09v-1.184c0-0.068,0.206-0.096,0.584-0.096
		c0.377,0,0.565,0.025,0.565,0.096V131.371"/>
	<path d="M127.952,130.686l-1.595,0.48c-0.078,0.033-0.104,0.068-0.104,0.098v0.193h1.955v0.124h-2.748v-0.313
		c0-0.076,0.106-0.129,0.271-0.172l1.529-0.479c0.082-0.018,0.154-0.068,0.154-0.111v-0.316c0-0.067-0.201-0.095-0.578-0.095
		c-0.386,0-0.583,0.025-0.583,0.095v0.274h-0.793v-0.249c0-0.066,0.047-0.138,0.253-0.181c0.197-0.042,0.564-0.068,1.123-0.068
		c0.549,0,0.917,0.026,1.119,0.068c0.205,0.043,0.253,0.11,0.253,0.181v0.291C128.21,130.568,128.09,130.634,127.952,130.686"/>
	<path fill="#F2A900" d="M163.773,24.908c0,0.009,0.018,0.114,0.018,0.114l-0.893-5.372c-0.146-0.83-0.865-1.44-1.705-1.44h-3.995
		c1.122-2.036,2.979-5.413,2.979-5.413c0.153-0.28,0.234-0.606,0.234-0.913c0-0.331-0.097-0.663-0.263-0.958
		c-0.338-0.57-0.957-0.926-1.619-0.926H41.07c-0.673,0-1.288,0.36-1.629,0.938c-0.171,0.292-0.255,0.615-0.255,0.946
		c0,0.319,0.083,0.641,0.242,0.926c0,0,1.895,3.363,3.042,5.399h-3.652c-0.847,0-1.563,0.611-1.695,1.44l-0.886,5.271
		c-0.04,0.259-4.359,26.439,0.706,59.312c2.969,19.282,8.548,37.064,16.573,52.87c10.121,19.908,24.144,36.639,41.692,49.746
		c0.015,0,3.785,2.809,3.785,2.809c0.611,0.46,1.447,0.46,2.056,0l3.764-2.815c17.547-13.101,31.574-29.833,41.68-49.735
		c8.038-15.789,13.613-33.58,16.582-52.872C168.107,51.527,163.816,25.167,163.773,24.908"/>
	<path d="M162.072,25.21c0,0,0.008,0.02,0.008,0.054c-0.014-0.109-0.094-0.606-0.646-3.942l-0.24-1.387h-6.666v-0.782l4.006-7.269
		H41.07l4.094,7.269v0.782h-6.347l-0.879,5.266c-0.043,0.26-4.285,26.352,0.708,58.768c2.94,19.104,8.464,36.719,16.404,52.358
		c9.997,19.668,23.859,36.188,41.191,49.136c0.004,0,3.774,2.813,3.774,2.813l3.776-2.813c17.318-12.945,31.18-29.477,41.172-49.136
		c7.944-15.64,13.461-33.254,16.41-52.358C166.363,51.553,162.119,25.465,162.072,25.21"/>
	<path fill="#F2A900" d="M40.95,22.454c-0.097,0.577-0.527,3.162-0.527,3.162c-0.017,0.105-1.676,10.325-1.676,26.045
		c0,10.899,0.804,21.636,2.388,31.923c2.898,18.834,8.336,36.195,16.164,51.596c9.819,19.324,23.428,35.562,40.451,48.258
		c0,0-0.013,0.021-0.013,0.024c0.264,0.177,0.834,0.597,2.278,1.672c0.416-0.304,2.268-1.688,2.268-1.688
		c17.019-12.715,30.626-28.952,40.435-48.266c7.823-15.391,13.265-32.753,16.161-51.596c1.596-10.351,2.405-21.124,2.405-32.006
		c0-15.624-1.673-25.852-1.688-25.953c0,0.004-0.142-0.855-0.142-0.855s-0.302-1.775-0.388-2.315
		C158.557,22.454,41.67,22.454,40.95,22.454"/>
	<path d="M157.507,25.971l-0.228-1.406H42.742l-0.234,1.406c-0.043,0.24-4.165,25.618,0.711,57.29
		c2.87,18.625,8.24,35.765,15.963,50.96c9.668,19.021,23.067,35.016,39.832,47.524l1.001,0.746l0.999-0.746
		c16.754-12.509,30.154-28.503,39.821-47.524c7.72-15.195,13.088-32.336,15.951-50.958
		C161.669,51.589,157.549,26.211,157.507,25.971"/>
	<polyline points="136.08,103.566 148.041,103.566 148.041,24.58 136.093,24.58 136.08,103.566 	"/>
	<rect x="112.087" y="24.58" width="11.974" height="78.979"/>
	<polyline fill="#C8102E" points="112.087,103.566 112.074,24.58 99.989,24.58 99.989,103.566 112.087,103.566 	"/>
	<polyline fill="#C8102E" points="136.08,103.566 136.093,24.58 124.052,24.58 124.052,103.566 136.08,103.566 	"/>
	<path fill="#C8102E" d="M157.507,25.975l-0.235-1.396h-9.229v78.987h4.477c1.767-6.542,3.196-13.313,4.271-20.292
		C161.66,51.607,157.541,26.226,157.507,25.975"/>
	<path fill="#C8102E" d="M47.487,103.566c2.949,10.906,6.857,21.168,11.69,30.668c9.669,19.023,23.06,35.016,39.824,47.523
		l0.992,0.741v-78.937H47.487"/>
	<path fill="#F2A900" d="M69.22,34.733l-0.922,3.076c0,0-1.803,6.085-2.146,7.213c-1.222,0-12.068,0-12.068,0
		s8.88,7.054,9.764,7.753c-0.33,1.093-3.882,13.037-3.882,13.037s9.14-7.251,10.158-8.06c1.018,0.808,10.158,8.06,10.158,8.06
		s-3.552-11.943-3.884-13.037c0.892-0.699,9.772-7.753,9.772-7.753s-10.852,0-12.072,0c-0.356-1.194-3.974-13.358-3.974-13.358
		L69.22,34.733"/>
	<path d="M69.211,38.082c0,0-2.023,6.786-2.352,7.894c-1.205,0-10.048,0-10.048,0s7.339,5.829,8.128,6.452
		c-0.281,0.938-3.205,10.77-3.205,10.77s7.376-5.847,8.39-6.66c1.018,0.813,8.39,6.66,8.39,6.66s-2.928-9.83-3.2-10.77
		c0.791-0.624,8.135-6.452,8.135-6.452s-8.855,0-10.058,0c-0.33-1.108-3.267-10.974-3.267-10.974L69.211,38.082"/>
	<polyline fill="#FFFFFF" points="70.124,38.311 72.667,46.848 80.889,46.848 74.237,52.129 76.771,60.658 70.124,55.386 
		63.473,60.663 66.015,52.129 59.366,46.848 67.582,46.848 70.124,38.311 	"/>
	<path fill="#F2A900" d="M117.377,117.717L117.377,117.717c-6.452,2.227-9.895,9.295-7.67,15.746
		c2.221,6.456,9.281,9.887,15.736,7.67c6.453-2.226,9.896-9.285,7.67-15.736C130.889,118.939,123.828,115.497,117.377,117.717"/>
	<path d="M110.633,133.146c-2.053-5.951,1.11-12.44,7.065-14.494c5.95-2.06,12.433,1.104,14.489,7.061
		c2.049,5.951-1.105,12.441-7.058,14.494C119.164,142.256,112.684,139.096,110.633,133.146"/>
	<path fill="#FFFFFF" d="M111.684,132.786c-1.854-5.382,1-11.236,6.375-13.088c5.371-1.849,11.231,1.007,13.08,6.374
		c1.848,5.371-1.008,11.228-6.375,13.078C119.391,141.008,113.535,138.145,111.684,132.786"/>
	<path d="M112.488,124.563l0.734,1.53c1.901-0.716,2.981-0.836,2.981-0.836c1.171-1.491,2.313-2.772,2.313-2.772
		c-1.045,1.281-2.078,2.897-2.078,2.897c0.617,2.07,2.059,3.956,2.059,3.956c-2.021,2.188-2.285,2.271-2.771,3.727
		c0.366,1.662,1.422,3.283,1.422,3.283c-1.199-1.171-1.725-2.979-1.725-2.979c-1.486-0.574-3.043-1.926-3.043-1.926
		c-0.262,0.388-0.845,1.041-0.845,1.041l-0.116-0.377c0.43-0.428,0.738-0.94,0.738-0.94c-0.695-3.146,0.691-4.879,0.691-4.879
		L112.488,124.563"/>
	<path d="M116.712,138.643c0.197-0.397,0.817-1.664,0.817-1.664c1.97,0.904,4.641,0.979,5.09,0.56c0.588-0.397,2.117-1.921,2.4-2.81
		c-0.851,1.754-2.145,3.187-2.145,3.187c0.201,0.196,0.77,1.615,0.77,1.615C122.504,139.848,119.327,140.258,116.712,138.643"/>
	<path d="M126.615,125.712c0.729,0.407,2.156,0.909,3.104,2.104c0.807-0.545,1.148-0.98,1.346-1.725
		c0.112,0.952-1.226,2.084-1.226,2.084c0.231,1.041,0.382,2.646-0.185,3.504c0.08,0.428,0.664,2.48,0.664,2.48
		c-0.608-1.376-1.148-1.994-1.148-1.994c-1.552,1.268-2.619,1.63-3.699,1.945c0.072-1.887-1.265-4.063-1.265-4.063
		c-1.946-0.06-4.396-0.076-4.733-0.482c1.646,0.148,4.235,0.386,4.938-0.254C125.491,128.413,126.615,125.712,126.615,125.712"/>
	<path d="M124.316,121.939c0,0-2.599-1.217-4.887-0.172l-0.851-2.281c2.761-1.016,7.511-0.277,8.114,1.105
		c-0.85,0.225-1.26,0.373-1.744,1.262c0.697,0.883,1.394,3.086,1.394,3.086C125.234,122.488,124.316,121.939,124.316,121.939"/>
	<polyline points="154.411,79.637 117.348,79.637 118.834,81.212 114.309,81.212 114.309,74.904 101.598,74.904 101.588,81.133 
		91.688,81.133 92.63,79.596 63.51,79.596 63.51,74.741 44.853,74.741 44.853,80.869 46.218,80.869 46.218,106.229 45.449,106.354 
		45.449,112.195 101.604,104.055 154.373,111.969 154.411,79.637 	"/>
	<path fill="#FFFFFF" d="M99.783,87.743c0,0.75,0,14.014,0,14.666c-0.603,0.09-6.668,0.95-7.455,1.063c0-0.857,0-14.979,0-15.729
		C93.022,87.743,99.084,87.743,99.783,87.743"/>
	<path fill="#FFFFFF" d="M89.383,81.383c-0.405,0.457-1.423,1.614-1.423,1.614s11.041,0,11.8,0c0,0.519,0,1.717,0,2.231
		c-0.746,0-16.698,0-18.297,0c0.33-0.373,1.265-1.423,1.265-1.423h-5.575v19.58c0,0,0.708-0.099,0.962-0.133
		c0.009,0.588,0.009,1.891,0.009,2.354c-0.536,0.082-3.456,0.523-4.163,0.631c0-0.596,0-1.916,0-2.379
		c0.251-0.028,0.851-0.129,0.851-0.129v-20.02c0,0-11.198,0-11.952,0c0-0.519,0-1.805,0-2.326
		C63.619,81.383,87.733,81.383,89.383,81.383"/>
	<path fill="#FFFFFF" d="M61.709,76.554c0,0.532,0,1.897,0,2.431c-0.399,0-1.361,0-1.361,0v26.835c0,0,0.589-0.068,0.729-0.076
		c0,0.574,0,1.902,0,2.365c-0.5,0.067-2.431,0.353-3.076,0.447c0-0.896,0-29.559,0-29.559h-2.613c0,0,0,29.271,0,29.964
		c-0.465,0.063-1.764,0.235-2.349,0.315c0-0.896,0-30.279,0-30.279h-2.585c0,0,0,30.002,0,30.675
		c-0.5,0.082-2.488,0.384-3.138,0.478c0-0.592,0-1.92,0-2.383c0.223-0.035,0.813-0.117,0.813-0.117V78.985c0,0-0.975,0-1.378,0
		c0-0.534,0-1.899,0-2.431C47.491,76.554,60.963,76.554,61.709,76.554"/>
	<path fill="#FFFFFF" d="M88.944,87.709c0,0.729,0,9.952,0,10.67c-0.331,0-1.19,0-1.19,0l0.558,3.327c0,0,0.703-0.104,1.005-0.146
		c0,0.597,0,1.955,0,2.414c-0.495,0.08-2.321,0.354-2.87,0.428c-0.133-0.655-1.164-5.819-1.164-5.819H83.65c0,0,0,5.597,0,6.218
		c-0.5,0.073-2.441,0.369-3.091,0.469c0-0.598,0-1.941,0-2.404c0.208-0.034,0.756-0.116,0.756-0.116v-12.52c0,0-0.69,0-0.962,0
		c0-0.538,0-1.979,0-2.519C81.06,87.709,88.236,87.709,88.944,87.709"/>
	<polyline points="86.17,90.101 83.699,90.101 83.699,96.163 86.577,96.163 86.577,90.101 86.17,90.101 	"/>
	<path fill="#FFFFFF" d="M71.535,86.097c0,0.602,0,3.073,0,3.669c-0.527,0-1.826,0-2.354,0c0-0.377,0-1.325,0-1.325h-2.639v5.895
		c0,0,3.556,0,4.218,0c0,0.536,0,1.88,0,2.407c-0.662,0-4.218,0-4.218,0v8.19l2.598-0.369c0,0,0-2.408,0-3.021
		c0.523,0,1.826,0,2.354,0c0,0.655,0,4.471,0,5.046c-0.604,0.081-7.352,1.046-8.143,1.161c0-0.583,0-1.886,0-2.357
		c0.21-0.023,0.783-0.095,0.783-0.095V88.401c0,0-0.913,0-1.301,0c0-0.517,0-1.786,0-2.304
		C63.543,86.097,70.823,86.097,71.535,86.097"/>
	<polyline points="97.029,90.097 94.678,90.097 94.678,100.741 97.434,100.456 97.434,90.097 97.029,90.097 	"/>
	<path fill="#FFFFFF" d="M112.417,76.55c0,0.609,0,3.284,0,3.892c-0.541,0-1.978,0-2.517,0c0-0.446,0-1.584,0-1.584h-3.948v8.833
		c0,0,5.71,0,6.431,0c0,0.75,0,15.189,0,16.054c-0.814-0.12-8.193-1.213-8.806-1.304c0-0.597,0-6.252,0-6.942
		c0.532,0,1.843,0,2.375,0c0,0.679,0,4.964,0,4.964l4.047,0.589V90.043c0,0-5.701,0-6.403,0c0-0.746,0-12.756,0-13.493
		C104.298,76.55,111.705,76.55,112.417,76.55"/>
	<path fill="#FFFFFF" d="M152.508,86.129c0,0.649,0,4.261,0,4.902c-0.527,0-1.826,0-2.354,0c0-0.57,0-2.538,0-2.538h-2.572v7.687
		c0,0,4.219,0,4.896,0c0,0.733,0,12.685,0,13.534c-0.776-0.11-6.649-0.974-7.242-1.063c0-0.563,0-4.217,0-4.873
		c0.52,0,1.826,0,2.346,0c0,0.604,0,2.858,0,2.858l2.572,0.403v-8.51c0,0-4.229,0-4.918,0c0-0.733,0-11.662,0-12.4
		C145.932,86.129,151.813,86.129,152.508,86.129"/>
	<path fill="#FFFFFF" d="M129.988,87.722c0,0.771,0,16.32,0,16.32s0.549,0.073,0.746,0.106c0,0.463,0,1.74,0,2.332
		c-0.64-0.096-2.599-0.386-3.101-0.463c0-0.625,0-7.501,0-7.501h-2.743c0,0,0,6.285,0,7.099c-0.645-0.094-2.633-0.387-3.13-0.454
		c0-0.459,0-1.775,0-2.358c0.146,0.026,0.765,0.104,0.765,0.104s0-14.413,0-15.185C123.216,87.722,129.298,87.722,129.988,87.722"/>
	<polyline points="127.189,90.118 124.846,90.118 124.846,96.195 127.593,96.195 127.593,90.118 127.189,90.118 	"/>
	<path fill="#FFFFFF" d="M141.906,86.11c0,0.733,0,11.519,0,12.252c-0.305,0-1.067,0-1.067,0l0.765,7.408
		c0,0,0.65,0.078,0.941,0.111c0,0.473,0,1.779,0,2.366c-0.654-0.095-2.648-0.397-3.104-0.472c-0.068-0.574-0.986-9.221-0.986-9.221
		h-2.28c0,0,0,7.893,0,8.736c-0.639-0.099-2.606-0.377-3.112-0.45c0-0.462,0-1.762,0-2.349c0.154,0.017,0.776,0.11,0.776,0.11V88.63
		c0,0-0.764,0-1.081,0c0-0.54,0-1.98,0-2.521C133.466,86.11,141.188,86.11,141.906,86.11"/>
	<polyline points="139.137,88.498 136.218,88.498 136.218,96.146 139.54,96.146 139.54,88.498 139.137,88.498 	"/>
	<path fill="#FFFFFF" d="M152.508,81.338c0,0.527,0,1.827,0,2.354c-0.789,0-24.486,0-24.486,0s1.021,1.149,1.424,1.608
		c-1.519,0-10.924,0-10.924,0v17.019c0,0,0.694,0.101,0.986,0.144c0,0.459,0,1.745,0,2.341c-0.712-0.105-3.738-0.549-4.287-0.626
		c0-0.463,0-1.739,0-2.34c0.248,0.033,0.969,0.153,0.969,0.153V85.31c0,0-7.057,0-7.779,0c0-0.531,0-1.897,0-2.428
		c0.76,0,14.34,0,14.34,0s-0.898-1.11-1.261-1.542C123.082,81.338,151.736,81.338,152.508,81.338"/>
</g>
<g id="Content">
</g>
</svg>
