<?xml version="1.0" encoding="utf-8"?>
<!-- Generator: Adobe Illustrator 14.0.0, SVG Export Plug-In . SVG Version: 6.00 Build 43363)  -->
<!DOCTYPE svg PUBLIC "-//W3C//DTD SVG 1.1//EN" "http://www.w3.org/Graphics/SVG/1.1/DTD/svg11.dtd">
<svg version="1.1" id="Layer_1" xmlns="http://www.w3.org/2000/svg" xmlns:xlink="http://www.w3.org/1999/xlink" x="0px" y="0px"
	 width="200px" height="200px" viewBox="0 0 200 200" enable-background="new 0 0 200 200" xml:space="preserve">
<g id="Background">
	<g>
		<path fill="#FFFFFF" d="M189.956,109.189c-0.636-1.482-27.336-9.482-32.233-10.787c-0.291-0.078-0.878-0.271-0.878-0.271
			s-0.032-0.52-0.009-0.82c0.045-0.594,0.02-1.491,0.031-2.085c0,0,2.967,0.166,3.609-0.084c1.824-0.712,2.522-3.161,1.885-4.891
			c-0.336-0.904-1.764-1.475-2.058-2.231c-0.28-0.72-0.464-1.282-1.224-1.668c-1.232-0.625-4.354-1.172-5.725-1.052
			c-1.157,0.104-1.383,1.441-2.098,1.749c-2.865,1.234-4.14,0.654-4.111,4.926l0.059,0.389c-1.126-0.543-2.714-1.332-3.867-1.821
			V51.999H100H56.661v38.545c-1.153,0.489-2.741,1.278-3.867,1.821l0.06-0.389c0.027-4.272-1.247-3.692-4.113-4.926
			c-0.714-0.308-0.939-1.645-2.097-1.749c-1.372-0.12-4.49,0.428-5.723,1.052c-0.76,0.387-0.944,0.948-1.224,1.668
			c-0.294,0.756-1.722,1.327-2.057,2.231c-0.639,1.73,0.059,4.179,1.883,4.891c0.644,0.25,3.61,0.084,3.61,0.084
			c0.011,0.594-0.014,1.491,0.032,2.085c0.023,0.3-0.009,0.82-0.009,0.82s-0.586,0.193-0.878,0.271
			c-4.897,1.303-31.599,9.303-32.233,10.787c-0.166,0.324,0.193,0.41,0.193,0.41c0.659,0.067,17.468-3.802,20.65-4.387
			c3.614-0.666,6.444-1.249,10.987-1.927l-0.022,0.257c-0.007,1.473,0.312,1.463,1.533,1.879l-0.041,0.275
			c-1.529,0.311-6.354,1.039-7.411,1.746c-1.16,0.774-3.881-0.184-5.785,2.408c-0.5,0.68-0.51,3.498-0.019,4.17
			c0.803,1.103,1.633,0.619,2.737,0.772c0.667,0.101,0.999,0.745,1.549,1.051c0.543,0.296,1.303,0.183,1.904,0.195
			c1.44,0.032,1.899-1.26,2.912-1.961c0.489-0.337,1.069-0.106,1.61-0.248c0.812-0.222,1.342-1.147,2.059-1.517
			c0.414-0.22,1.403-0.15,1.801,0.098c2.562,1.57,9.35-0.044,11.959-1.648v8.934c0,0-0.205,2.779,1.472,5.656
			C66.313,139.402,83.695,147.992,100,148l0,0l0,0c16.307-0.008,33.688-8.598,41.867-22.646c1.677-2.877,1.472-5.656,1.472-5.656
			v-8.934c2.609,1.604,9.397,3.221,11.959,1.648c0.397-0.248,1.388-0.316,1.802-0.098c0.717,0.367,1.246,1.295,2.06,1.517
			c0.541,0.142,1.121-0.089,1.61,0.248c1.013,0.701,1.472,1.993,2.912,1.961c0.601-0.015,1.358,0.101,1.902-0.194
			c0.551-0.307,0.883-0.951,1.549-1.052c1.104-0.153,1.934,0.329,2.737-0.772c0.491-0.672,0.481-3.49-0.019-4.17
			c-1.904-2.592-4.625-1.634-5.785-2.408c-1.059-0.707-5.883-1.437-7.411-1.746l-0.041-0.275c1.223-0.416,1.541-0.406,1.532-1.879
			l-0.021-0.257c4.543,0.678,7.373,1.261,10.986,1.927c3.184,0.585,19.992,4.454,20.65,4.387
			C189.764,109.6,190.122,109.514,189.956,109.189z"/>
		<path fill="#1A2458" d="M136.604,117.916c-0.123,2.234-0.709,3.49-1.727,5.08c-7.73,11.121-20.393,18.393-34.877,18.393l0,0l0,0
			c-14.486,0-27.145-7.271-34.877-18.393c-1.017-1.59-1.604-2.846-1.727-5.08v-5.932h-4.184v5.031c0,4.725,0.555,5.84,1.67,7.762
			c8.521,12.574,22.78,20.832,39.117,20.832l0,0l0,0c16.338,0,30.596-8.258,39.117-20.832c1.114-1.922,1.67-3.037,1.67-7.762v-5.031
			h-4.185v5.932H136.604z M139.01,115.669v-2.911h0.533v3.407c-0.018,2.767-0.037,5.553-1.506,7.721
			c-1.895,2.88-4.273,5.705-6.896,8.147c-8.74,7.941-19.209,12.207-31.141,12.266c-11.932-0.059-22.4-4.322-31.14-12.266
			c-2.623-2.442-5.004-5.268-6.897-8.147c-1.47-2.168-1.49-4.954-1.506-7.721v-3.407h0.532v2.911
			c0.075,2.804-0.127,5.741,1.431,7.942c2.02,3.078,4.534,5.979,7.393,8.57c8.529,7.474,18.602,11.502,30.187,11.582
			c11.584-0.08,21.658-4.108,30.188-11.582c2.858-2.592,5.373-5.492,7.393-8.57C139.139,121.41,138.936,118.473,139.01,115.669z"/>
		<path fill="#1A2458" d="M100,54.639H59.213v34.868l4.184-1.981V58.832H100h36.604v28.694l4.185,1.981V54.639H100z M139.543,88.14
			v-0.003l-0.533-0.25V56.418H100H60.99v31.468l-0.532,0.25v0.003h-0.007l0.007-0.003v-32.25H100h39.543v32.251l0.006,0.003H139.543
			z"/>
		<path fill="#E50B2C" d="M167.245,110.602c0.991,0.269,0.698,1.414,0.912,2.211c-0.039,0.055-0.116,0.172-0.196,0.156
			c-0.368-0.156-0.966-0.043-1.241-0.389c-0.116-0.409-0.269-0.701-0.31-1.165C166.506,111.064,166.876,110.641,167.245,110.602z"/>
		<path fill="#E50B2C" d="M158.104,93.465c-1.207-0.219-2.468-0.424-3.647-0.759c-0.445-0.596-1.308-0.417-1.942-0.62
			c-0.521,0.199,1.352,1.68,1.574,1.98c0.238,0.317,0.654,1.263,0.719,1.647c0.14,0.842-0.361,1.861-1.125,2.236
			c-0.689,0.333-1.291,0.146-1.94-0.098c-0.554-0.213-2.248-0.667-2.409-1.262c0.157-0.443,3.007,0.07,3.573-0.312
			c0.271-0.182-0.134-0.611-0.214-0.816c-0.377-0.945-3.455-3.136-3.67-3.992c-0.453-1.833,2.646-2.202,3.805-2.449
			c0.242-0.051,1.689-0.328,1.474-0.72c-0.022-0.042-0.567-0.536-0.696-0.714l0.138-0.159c0.442-0.03,3.667,0.737,4.211,0.933
			c0.137,0.051,0.214,0.185,0.271,0.314c-0.324,0.518,0.174,1.002,0.057,1.528c-0.071,0.367-1.452,0.274-0.795,0.952l1.051,0.135
			c0.467-0.202-0.137-0.68,0.404-0.793c0.436,0.158,1.119,0.297,1.343,0.756c0.192,0.398,0.19,1.083-0.063,1.454
			C159.764,93.388,158.881,93.605,158.104,93.465z"/>
		<path fill="#E50B2C" d="M164.624,109.9c0.065-0.203,1.347,0.021,1.417,0.271C166.145,110.539,164.954,110.715,164.624,109.9z"/>
		<path fill="#E50B2C" d="M108.814,105.359c0.883-0.611,1.391-1.561,2.088-2.342c0.26-0.293,0.619-0.498,0.863-0.767
			c0.153-0.172,1.147-2.306,1.313-2.677l0.216-0.115c1.809,0.098,3.619,0.122,5.428,0.168c0.785,0.021,1.801,0.186,2.568,0.085
			c0.114-0.018,0.145-0.109,0.114-0.214c-1.712-0.58-4.835,0.342-6.019-1.24c-0.154-0.217-0.129-0.588-0.423-0.662
			c-0.31,0.156-0.635,0.3-0.991,0.217l-0.154-0.217c0.271-1.125,0.565-2.313,1.301-3.24c1.163-1.467,3.997-4.568,5.607-5.373
			c0.724-0.364,1.614-1.638,1.901-1.187c-0.014,0.156,0.075,0.293,0.177,0.405c0.705,0.147,0.684-1.189,1.629-1.763
			c0.953-0.576,2.203-0.878,3.299-0.643c1.348,0.293,2.736,1.009,3.959,1.63c2.692,1.364,5.385,2.729,8.089,4.072
			c1.276,0.633,2.558,1.34,3.866,1.906c0.309,0.134,0.752,0.183,0.896,0.544c0.185,0.482-0.228,1.194-0.626,1.458
			c-0.83,0.552-2.113-0.133-2.912-0.447l-0.132,0.074c0.587,0.741,1.254,0.757,2.096,0.932c0.666,0.14,1.333,0.495,2.001,0.683
			c0.908,0.256,1.799,0.541,2.694,0.829c0.375,0.122,0.993,0.21,0.892,0.759c0.127,0.305,0.471,0.262,0.736,0.307
			c2.941,0.539,5.883,1.278,8.814,1.904c1.822,0.394,3.645,0.834,5.451,1.298c6.034,1.57,12.073,3.072,18.033,4.916
			c0.585,0.18,3.692,1.083,3.951,1.335c-0.375,0.087-9.783-2.478-11.178-2.815c-8.781-2.139-17.688-3.717-26.586-5.255
			c-8.436-1.459-16.987-2.596-25.479-3.691c-1.477-0.187-2.964-0.405-4.442-0.542c-0.95-0.086-1.111,0.235-1.768,0.852
			c0.004,0.422,1.762,0.313,2.154,0.353c0.063-0.051,0.059-0.13,0.021-0.193c-0.281-0.151-0.572-0.271-0.779-0.527l0.101-0.212
			c3.092,0.264,6.204,0.837,9.274,1.307c4.695,0.723,9.41,1.424,14.088,2.265c3.14,0.567,6.24,1.359,9.375,1.959v0.137
			c-5.667-0.601-11.26-1.963-16.904-2.752l-0.021,0.15c1.369,0.421,2.787,0.641,4.175,0.978c6.396,1.519,12.851,2.791,19.252,4.321
			c-1.134-0.158-2.267-0.301-3.396-0.445c-0.43,0.264,0.107,0.725-0.116,1.262c-0.385,0.926-1.125,0.052-1.203,0.521
			c-0.03,0.182,0.215,0.782,0.406,0.895c2.584,0.303,5.108,1.035,7.687,1.357l0.04,0.21l-1.61,0.045l-0.177,0.134
			c-0.01,0.398,0.577,0.264,0.834,0.309c0.91,0.175,1.813,0.396,2.719,0.566c2.01,0.375,1.735,1.912,3.145,2.269
			c0.146,0.036,0.25,0.127,0.351,0.231c0.026,0.567-0.748-0.263-0.969,0.276c0.146,0.573,0.471,1.119,0.229,1.726
			c-0.084,0.219-0.223,0.455-0.466,0.522c-1.211,0.341-1.686-1.819-2.445-2.248c-0.619-0.353-1.377,0.429-2.173-0.022
			c-0.454-0.254-0.911-0.504-1.354-0.774c-0.482-0.289-1.094-1.401-1.791-1.263c-0.543,0.108-0.734,0.937-1.629,1.01
			c-1.438,0.117-2.954,0.164-4.385-0.041c-2.342-0.33-6.295-1.479-8.033-3.104c0.224-0.66,2.197-0.072,2.678,0
			c-0.445-0.941,0.156-1.359-0.33-1.593l-2.018-0.192c-0.597-0.053-1.205-0.227-1.813-0.293c-0.608-0.063-1.258-0.027-1.856-0.114
			c-0.371-0.056-0.976-0.169-1.164-0.527c0.053-0.291,0.267-0.669,0.06-0.946c-0.257-0.346-0.948-0.42-1.34-0.563
			c-0.523-0.195-0.953-0.582-1.492-0.736c-0.614,0.188-0.077,1.142-0.799,1.337c-0.664,0.188-2.284-0.673-2.716-0.132
			c0,0.291,0.197,0.729-0.075,0.946c-0.437,0.353-0.976,0.419-1.419,0.878c-0.563,0.578-1.352,1.67-1.105,2.539
			c0.258,0.896,2.36,1.901,3.146,1.399c0.517-0.33,0.471-1.08,1.201-0.858c0.853,0.267,1.744,0.323,2.6,0.563
			c0.713,0.202,1.704,0.352,2.348,0.664c0.096,0.043,0.27,0.209,0.157,0.328c-0.334,0.361-3.528-0.027-4.153-0.099
			c-0.291-0.029-0.549-0.043-0.756,0.196c-0.392,0.447,0.489,0.574,0.232,0.986c-0.359,0.563-1.297,0.771-1.904,0.621
			c-1.101-0.27-2.271-0.736-3.313-1.191c-0.332-0.15-0.695-0.384-1.032-0.496c-0.821-0.27-1.726,0.172-2.291-0.76
			c-0.511-0.836-1.188-1.777-1.203-2.789c-0.009-0.828,0.519-1.345,0.813-2.062c0.109-0.255,0.631-1.572,0.621-1.767
			c-0.009-0.127-0.556-1.397-0.678-1.414l-3.59-0.447c-0.068-0.01-0.277,0.146-0.293,0.216c-0.146,0.728,0.95,1.574,1.342,2.074
			c0.146,0.187,0.448,0.685,0.368,0.934c-0.136,0.409-0.724-0.219-0.796,0.25c-0.053,0.329,0.698,0.851,0.621,1.455
			c-0.066,0.506-0.104,1.249-0.621,1.495c-0.864,0.411-0.943-0.299-1.338-0.313c-0.159-0.002-0.396,0.088-0.582,0.096
			c-0.539,0.008-1.044-0.168-1.555-0.307c-1.02-0.28-4.104-1.726-4.928-1.612c-0.967,0.136-1.505,1.799-4.465,1.883l-0.156-0.233
			c1.008-0.972,1.746-0.326,2.793-2.443c0.282-0.565,0.763-1.203,1.205-1.648c0.02-0.089-0.021-0.195-0.117-0.214
			c-1.789,0.638-2.062,3.438-4.733,3.222l-0.138-0.154C108.021,105.643,108.551,105.542,108.814,105.359z M132.314,91.443
			c-0.207-0.256-0.481-0.429-0.76-0.596c-0.361,0.038-0.57,0.118-0.933,0c-0.808-0.278-4.028-1.125-4.731-0.992
			c-0.045,0.221,0.299,0.25,0.443,0.292c1.925,0.53,3.939,0.994,5.902,1.376L132.314,91.443z M119.468,93.483
			c3.705,0.542,11.392,1.633,11.392,1.633l-0.524-0.242l-11.096-1.807c-0.114-0.02-0.232,0.021-0.326,0.079
			C118.831,93.416,119.311,93.465,119.468,93.483z M146.886,108.492l3.783,0.969c0.079,0,0.213-0.023,0.274-0.125
			c-0.019-0.152-0.187-0.373-0.344-0.436c-0.97-0.271-1.92-0.348-2.871-0.539c-0.582-0.121-0.822-0.108-1.267-0.149L146.886,108.492
			z M126.531,109.122c0.096-0.017,0.211-0.072,0.234-0.19c-0.218-0.816-0.66-1.938-0.039-2.758l0.892-1.922
			c-0.075-0.266-0.368-0.311-0.603-0.387c-0.174-0.018-0.35,0.152-0.39,0.33l-1.047,2.466
			C125.348,107.633,125.912,108.504,126.531,109.122z M116.646,104.979c0.301,0.039,0.722,0.139,0.957-0.043
			c0.145-0.277-0.078-0.559-0.199-0.816c-0.277-0.337-0.696-0.439-1.114-0.439c-0.101,0.08-0.125,0.18-0.125,0.277
			C116.21,104.355,116.29,104.777,116.646,104.979z"/>
		<path fill="#E50B2C" d="M133.535,107.844c-0.346,0.036-0.391-0.387-0.698-0.467c-0.58,0.426-0.54,1.165-1.124,1.577
			c-0.313,0.052-0.738-0.138-1.09-0.214c-0.229-0.123-0.464-0.355-0.464-0.609c0.118-0.462,0.392-0.869,0.485-1.354
			c0.252-0.76,1.166-0.252,1.726-0.252c0.623,0.154,1.165-0.096,1.708-0.217c0.156,0.024,0.253,0.14,0.354,0.234
			c0.115,0.232,0.074,0.505-0.022,0.719C134.234,107.594,133.885,107.803,133.535,107.844z"/>
		<path fill="#E50B2C" d="M92.238,77.684c-1.674,0.009-3.157-0.959-3.995-2.435c-0.93-1.534-0.892-3.922-0.018-5.473
			c0.814-1.515,2.33-2.523,4.056-2.482c1.165,0.057,2.255,0.466,3.063,1.317l-0.016-7.568h3.121v14.125
			C96.133,75.437,94.008,76.333,92.238,77.684 M95.075,71.174c-0.291-0.603-0.874-1.105-1.513-1.241
			c-0.837-0.178-1.592,0.114-2.152,0.773c-0.603,0.696-0.739,1.747-0.446,2.639c0.305,0.874,1.046,1.551,1.997,1.631
			c0.949,0.077,1.784-0.562,2.175-1.398C95.464,72.859,95.446,71.874,95.075,71.174 M117.559,73.732
			c0.099,0.524,0.512,1.089,1.059,1.284c0.523,0.249,1.24,0.156,1.709-0.157c0.461-0.31,0.736-0.796,0.792-1.339v-5.84h3.048v6.714
			c-0.152,1.476-1.473,2.676-2.793,3.147c-1.863,0.694-4.23,0.385-5.688-0.935c-0.699-0.601-1.105-1.397-1.242-2.252V67.68h3.115
			V73.732L117.559,73.732z M83.276,70.378c-0.423-0.855-1.454-1.225-2.346-0.895c-0.739,0.292-1.226,1.03-1.208,1.805l3.786-0.019
			C83.508,71.27,83.433,70.649,83.276,70.378 M86.074,69.775c0.464,0.992,0.639,2.136,0.505,3.339h-6.872
			c0,0.739,0.33,1.337,0.931,1.764c0.68,0.447,1.77,0.485,2.445-0.019c0.291-0.191,0.564-0.526,0.721-0.813
			c0.833,0.347,1.688,0.774,2.5,1.163c-1.067,1.879-3.046,2.699-5.161,2.543c-1.881-0.138-3.649-1.496-4.306-3.243
			c-0.78-1.86-0.391-4.23,0.969-5.667c1.356-1.549,3.453-2.057,5.433-1.472C84.458,67.718,85.51,68.573,86.074,69.775
			 M108.701,65.198c-0.309-0.678-0.854-0.841-1.479-0.861c-0.572-0.017-1.769,0.004-1.769,0.004l0.022,10.305l2.719,0.002
			c0.621,0,1.203-0.369,1.49-0.894c0.408-0.737,0.426-1.864-0.155-2.52c-0.453-0.655-1.033-0.669-1.906-0.669
			c-0.429,0-1.253-0.011-1.253-0.011l0.035-2.873c0,0,1.711,0.118,2.176-0.66C108.951,66.516,108.973,65.738,108.701,65.198
			 M108.021,61.627c1.242,0.098,2.504,0.484,3.185,1.649c0.772,1.165,0.89,2.968,0.248,4.25c-0.214,0.424-0.464,0.851-0.832,1.2
			c0.989,0.547,2.056,1.418,2.308,2.6c0.526,1.863,0,3.846-1.494,5.108c-1.084,0.927-2.52,1.067-4.033,0.969
			c-0.168-0.1-0.336-0.193-0.502-0.289c-1.414-0.914-3.026-1.559-4.76-1.856v-13.65L108.021,61.627z M72.022,61.508
			c1.708,0.12,3.219,1.262,3.919,2.798c0.66,1.396,0.446,3.296-0.427,4.537c-0.66,0.971-1.706,1.631-2.757,1.942l4.54,6.654h-3.878
			l-3.298-5.256v-3.787c1.085,0.1,2.152-0.136,2.698-1.065c0.426-0.583,0.348-1.532-0.021-2.116
			c-0.698-1.242-2.252-0.989-3.551-0.989l-0.018,13.213h-3.301V61.508H72.022z M134.354,77.439h-3.074V61.042h3.074V77.439z
			 M129.094,77.439h-3.096V61.042h3.096V77.439z"/>
		<path fill="#FCB42C" d="M118.616,89.418c-1.474,1.277-4.522,4.224-5.152,6.006c-1.515,4.276-1.233,5.186-4.54,8.617
			c-1.146,1.188-1.938,0.402-1.845,2.406l0.544,0.546l0.445,0.075v0.678l0.546,0.563c3.001,0.135,2.786-0.479,5.159-1.746
			c1.646,0.457,3.181,1.268,4.848,1.664c-4.131,7.674-13.469,13.203-22.252,11.086c1.306-0.026,3.706-0.021,5.031-0.117
			c1.8-0.133,4.658-0.971,6.524-2.289c-0.164-0.047-3.321,1.261-6.493,1.261c-8.146,0-15.866-2.493-19.952-9.955
			c0.956-0.271,4.092-1.692,4.738-1.647c0.668,0.047,1.669,2.021,5.077,1.746c0.551-0.039,0.869-0.82,0.687-1.281
			c0.437,0.074,0.842-0.187,0.99-0.6c0.089-0.26,0.125-0.729,0-0.97c-0.16-0.31-0.803-0.647-1.09-0.819
			c-1.206-0.699-1.681-2.141-2.832-2.908c-2.891-5.971-2.596-8.683-8.53-13.059c7.725-17.137,30.91-15.47,38.885,0.111l-0.753,0.604
			C118.717,89.379,118.525,89.329,118.616,89.418"/>
		<path fill="#FFFFFF" d="M87.2,87.846c0-7.05,5.719-12.771,12.771-12.771c7.054,0,12.768,5.721,12.768,12.771
			c0,7.053-5.714,12.773-12.768,12.773C92.918,100.619,87.2,94.899,87.2,87.846"/>
		<path fill="#B8C0C8" d="M90.375,94.734c3.721,2.691,8.969,3.119,13.076,0.911c4.456-2.309,7.15-7.056,6.74-12.178
			c-0.078-0.742-0.194-1.467-0.391-2.169c1.26,1.894,1.981,4.134,1.981,6.548c0,6.524-5.289,11.813-11.813,11.813
			C96.019,99.659,92.516,97.719,90.375,94.734"/>
		<path fill="#1A2458" d="M96.49,90.795c-2.764-0.664-4.649-1.333-4.649-1.333c-0.296-2.853-0.046-5.333-0.046-5.333
			c1.199-0.624,4.438-2.071,4.438-2.071c1.542,1.747,3.012,4.092,3.012,4.092C98.535,87.532,96.49,90.795,96.49,90.795
			 M91.934,79.188c-0.275,0.452-1.085,1.816-1.817,3.443c-0.689,0.863-1.292,1.741-1.554,2.126
			C89.151,82.591,90.339,80.669,91.934,79.188 M104.331,86.057c0.003,0,1.03-2.156,2.276-3.906c0,0,2.394,1.125,3.52,2.045
			c0,0,0.417,1.286,0.139,5.059c0,0-1.429,0.827-3.496,1.335C106.77,90.591,105.361,88.222,104.331,86.057 M98.972,94.914
			l5.109-0.138l0.985,2.783c-1.936,1.149-4.258,1.749-4.258,1.749c-2.436-0.531-3.842-1.59-3.842-1.59L98.972,94.914z M99.97,76.037
			c1.556,0,3.046,0.296,4.409,0.845c-0.048,0.222-0.214,0.842-0.691,1.636c-2.461-0.324-5.197-0.073-5.197-0.073l-2.277-1.803
			C97.396,76.249,98.658,76.037,99.97,76.037 M92.404,96.915c-1.961-1.633-3.378-3.89-3.958-6.466
			c0.635,0.659,1.856,1.91,1.856,1.91c0.737,1.523,2.573,4.165,2.573,4.165C92.743,96.672,92.537,96.824,92.404,96.915"/>
		<path fill="#E50B2C" d="M32.755,110.602c-0.992,0.269-0.698,1.414-0.912,2.211c0.039,0.055,0.116,0.172,0.195,0.156
			c0.369-0.156,0.967-0.043,1.242-0.389c0.116-0.409,0.269-0.701,0.31-1.165C33.495,111.064,33.124,110.641,32.755,110.602z"/>
		<path fill="#E50B2C" d="M41.895,93.465c1.208-0.219,2.468-0.424,3.649-0.759c0.446-0.596,1.308-0.417,1.943-0.62
			c0.521,0.199-1.352,1.68-1.574,1.98c-0.239,0.317-0.655,1.263-0.719,1.647c-0.139,0.842,0.361,1.861,1.125,2.236
			c0.689,0.333,1.29,0.146,1.94-0.098c0.553-0.213,2.248-0.667,2.409-1.262c-0.157-0.443-3.007,0.07-3.574-0.312
			c-0.271-0.182,0.134-0.611,0.214-0.816c0.378-0.945,3.456-3.136,3.669-3.992c0.453-1.833-2.646-2.202-3.804-2.449
			c-0.243-0.051-1.69-0.328-1.474-0.72c0.023-0.042,0.569-0.536,0.696-0.714l-0.136-0.159c-0.444-0.03-3.667,0.737-4.211,0.933
			c-0.136,0.051-0.214,0.185-0.271,0.314c0.325,0.518-0.173,1.002-0.057,1.528c0.073,0.367,1.454,0.274,0.796,0.952l-1.051,0.135
			c-0.467-0.202,0.136-0.68-0.405-0.793c-0.434,0.158-1.119,0.297-1.342,0.756c-0.193,0.398-0.191,1.083,0.062,1.454
			C40.237,93.388,41.12,93.605,41.895,93.465z"/>
		<path fill="#E50B2C" d="M35.375,109.9c-0.066-0.203-1.346,0.021-1.417,0.271C33.856,110.539,35.046,110.715,35.375,109.9z"/>
		<path fill="#E50B2C" d="M91.185,105.359c-0.883-0.611-1.39-1.561-2.088-2.342c-0.26-0.293-0.619-0.498-0.862-0.767
			c-0.155-0.172-1.149-2.306-1.315-2.677l-0.216-0.115c-1.808,0.098-3.619,0.122-5.428,0.168c-0.785,0.021-1.799,0.186-2.568,0.085
			c-0.114-0.018-0.144-0.109-0.114-0.214c1.71-0.58,4.834,0.342,6.017-1.24c0.154-0.217,0.129-0.588,0.423-0.662
			c0.309,0.156,0.635,0.3,0.992,0.217l0.155-0.217c-0.271-1.125-0.566-2.313-1.301-3.24c-1.162-1.467-3.997-4.568-5.607-5.373
			c-0.723-0.364-1.615-1.638-1.901-1.187c0.014,0.156-0.075,0.293-0.178,0.405c-0.705,0.147-0.683-1.189-1.629-1.763
			c-0.953-0.576-2.202-0.878-3.298-0.643c-1.346,0.293-2.736,1.009-3.958,1.63c-2.693,1.364-5.384,2.729-8.089,4.072
			c-1.276,0.633-2.557,1.34-3.867,1.906c-0.307,0.134-0.751,0.183-0.894,0.544c-0.185,0.482,0.228,1.194,0.625,1.458
			c0.831,0.552,2.113-0.133,2.912-0.447l0.132,0.074c-0.586,0.741-1.253,0.757-2.095,0.932c-0.667,0.14-1.333,0.495-2.002,0.683
			c-0.908,0.256-1.797,0.541-2.693,0.829c-0.375,0.122-0.994,0.21-0.892,0.759c-0.127,0.305-0.471,0.262-0.737,0.307
			c-2.941,0.539-5.882,1.278-8.814,1.904c-1.822,0.394-3.645,0.834-5.451,1.298c-6.035,1.57-12.075,3.072-18.034,4.916
			c-0.584,0.18-3.692,1.083-3.951,1.335c0.375,0.087,9.784-2.478,11.178-2.815c8.781-2.139,17.686-3.717,26.585-5.255
			c8.435-1.459,16.988-2.596,25.48-3.691c1.477-0.187,2.964-0.405,4.442-0.542c0.951-0.086,1.112,0.235,1.768,0.852
			c-0.004,0.422-1.761,0.313-2.154,0.353c-0.063-0.051-0.059-0.13-0.02-0.193c0.28-0.151,0.571-0.271,0.778-0.527l-0.1-0.212
			c-3.091,0.264-6.203,0.837-9.274,1.307c-4.695,0.723-9.411,1.424-14.087,2.265c-3.139,0.567-6.24,1.359-9.375,1.959v0.137
			c5.667-0.601,11.258-1.963,16.904-2.752l0.021,0.15c-1.37,0.421-2.787,0.641-4.174,0.978c-6.396,1.519-12.85,2.791-19.251,4.321
			c1.133-0.158,2.266-0.301,3.396-0.445c0.43,0.264-0.107,0.725,0.116,1.262c0.384,0.926,1.125,0.052,1.203,0.521
			c0.032,0.182-0.214,0.782-0.405,0.895c-2.584,0.303-5.109,1.035-7.688,1.357l-0.041,0.21l1.61,0.045l0.178,0.134
			c0.009,0.398-0.578,0.264-0.835,0.309c-0.91,0.175-1.813,0.396-2.718,0.566c-2.009,0.375-1.736,1.912-3.144,2.269
			c-0.145,0.036-0.25,0.127-0.35,0.231c-0.027,0.567,0.749-0.263,0.969,0.276c-0.146,0.573-0.471,1.119-0.229,1.726
			c0.084,0.219,0.223,0.455,0.466,0.522c1.21,0.341,1.686-1.819,2.445-2.248c0.619-0.353,1.376,0.429,2.172-0.022
			c0.455-0.254,0.912-0.504,1.356-0.774c0.482-0.289,1.092-1.401,1.79-1.263c0.544,0.108,0.735,0.937,1.629,1.01
			c1.438,0.117,2.955,0.164,4.386-0.041c2.341-0.33,6.294-1.479,8.032-3.104c-0.223-0.66-2.197-0.072-2.677,0
			c0.446-0.941-0.157-1.359,0.33-1.593l2.018-0.192c0.596-0.053,1.206-0.227,1.813-0.293c0.61-0.063,1.258-0.027,1.856-0.114
			c0.371-0.056,0.976-0.169,1.165-0.527c-0.052-0.291-0.266-0.669-0.059-0.946c0.257-0.346,0.949-0.42,1.34-0.563
			c0.523-0.195,0.953-0.582,1.492-0.736c0.614,0.188,0.078,1.142,0.799,1.337c0.664,0.188,2.284-0.673,2.716-0.132
			c0,0.291-0.198,0.729,0.075,0.946c0.437,0.353,0.976,0.419,1.419,0.878c0.562,0.578,1.351,1.67,1.105,2.539
			c-0.257,0.896-2.361,1.901-3.146,1.399c-0.516-0.33-0.471-1.08-1.201-0.858c-0.853,0.267-1.745,0.323-2.6,0.563
			c-0.712,0.202-1.704,0.352-2.347,0.664c-0.096,0.043-0.269,0.209-0.157,0.328c0.334,0.361,3.528-0.027,4.153-0.099
			c0.292-0.029,0.548-0.043,0.756,0.196c0.391,0.447-0.489,0.574-0.232,0.986c0.359,0.563,1.296,0.771,1.904,0.621
			c1.101-0.27,2.272-0.736,3.312-1.191c0.332-0.15,0.696-0.384,1.033-0.496c0.821-0.27,1.724,0.172,2.291-0.76
			c0.51-0.836,1.19-1.777,1.204-2.789c0.009-0.828-0.519-1.345-0.814-2.062c-0.109-0.255-0.63-1.572-0.621-1.767
			c0.009-0.127,0.555-1.397,0.678-1.414l3.59-0.447c0.068-0.01,0.277,0.146,0.293,0.216c0.146,0.728-0.951,1.574-1.342,2.074
			c-0.146,0.187-0.448,0.685-0.369,0.934c0.137,0.409,0.724-0.219,0.796,0.25c0.052,0.329-0.698,0.851-0.621,1.455
			c0.066,0.506,0.104,1.249,0.621,1.495c0.864,0.411,0.944-0.299,1.337-0.313c0.159-0.002,0.398,0.088,0.583,0.096
			c0.539,0.008,1.044-0.168,1.554-0.307c1.019-0.28,4.104-1.726,4.927-1.612c0.967,0.136,1.506,1.799,4.465,1.883l0.157-0.233
			c-1.007-0.972-1.747-0.326-2.793-2.443c-0.282-0.565-0.762-1.203-1.206-1.648c-0.018-0.089,0.021-0.195,0.118-0.214
			c1.788,0.638,2.061,3.438,4.734,3.222l0.136-0.154C91.979,105.643,91.449,105.542,91.185,105.359z M67.684,91.443
			c0.207-0.256,0.482-0.429,0.76-0.596c0.361,0.038,0.571,0.118,0.933,0c0.808-0.278,4.028-1.125,4.731-0.992
			c0.045,0.221-0.298,0.25-0.444,0.292c-1.924,0.53-3.94,0.994-5.903,1.376L67.684,91.443z M80.532,93.483
			c-3.706,0.542-11.392,1.633-11.392,1.633l0.526-0.242l11.096-1.807c0.114-0.02,0.232,0.021,0.325,0.079
			C81.169,93.416,80.689,93.465,80.532,93.483z M53.114,108.492l-3.783,0.969c-0.08,0-0.214-0.023-0.275-0.125
			c0.019-0.152,0.187-0.373,0.344-0.436c0.969-0.271,1.92-0.348,2.871-0.539c0.583-0.121,0.823-0.108,1.267-0.149L53.114,108.492z
			 M73.469,109.122c-0.096-0.017-0.211-0.072-0.234-0.19c0.216-0.816,0.66-1.938,0.039-2.758l-0.892-1.922
			c0.075-0.266,0.369-0.311,0.603-0.387c0.173-0.018,0.348,0.152,0.389,0.33l1.046,2.466
			C74.652,107.633,74.088,108.504,73.469,109.122z M83.353,104.979c-0.3,0.039-0.721,0.139-0.958-0.043
			c-0.143-0.277,0.08-0.559,0.201-0.816c0.277-0.337,0.696-0.439,1.115-0.439c0.1,0.08,0.125,0.18,0.125,0.277
			C83.79,104.355,83.71,104.777,83.353,104.979z"/>
		<path fill="#E50B2C" d="M66.465,107.844c0.346,0.036,0.389-0.387,0.698-0.467c0.58,0.426,0.539,1.165,1.124,1.577
			c0.312,0.052,0.739-0.138,1.09-0.214c0.229-0.123,0.464-0.355,0.464-0.609c-0.118-0.462-0.391-0.869-0.487-1.354
			c-0.25-0.76-1.165-0.252-1.724-0.252c-0.624,0.154-1.165-0.096-1.708-0.217c-0.157,0.024-0.252,0.14-0.353,0.234
			c-0.116,0.232-0.075,0.505,0.023,0.719C65.764,107.594,66.115,107.803,66.465,107.844z"/>
		<path fill="#FFFFFF" d="M88.758,80.774l-0.132-0.076c-2.448,1.031-5.462,4.465-6.504,6.888c1.01-1.369,2.159-2.647,3.46-3.746
			c0.755-0.648,1.731-1.098,2.282-1.962C88.057,81.585,88.555,81.078,88.758,80.774"/>
		<path fill="#1A2458" d="M68.06,122.691l1.035,1.147l3.223-2.899c0.981-0.883,2.878-2.756,3.756-3.662l0.025,0.029
			c-2.164,2.572-3.942,5.24-5.913,7.752l0.983,1.088l11.121-10.015l-1.037-1.155l-3.224,2.907c-0.982,0.888-2.877,2.761-3.755,3.662
			l-0.025-0.03c2.166-2.572,3.938-5.24,5.91-7.748l-0.98-1.091L68.06,122.691"/>
		<path fill="#1A2458" d="M87.737,120.248l-2.543-1.781c-0.705-0.49-1.667-0.32-2.159,0.383l-6.804,9.717
			c-0.491,0.707-0.323,1.668,0.382,2.16l2.539,1.778l0.89-1.271l-2.541-1.78l2.958-4.226l1.906,1.338l0.89-1.27l-1.906-1.337
			l2.957-4.22l2.543,1.773L87.737,120.248"/>
		<path fill="#1A2458" d="M84.859,135.512l1.37,0.469c1.146-1.973,2.422-3.886,3.688-6.84l0.039,0.015
			c-0.828,3.106-0.994,5.396-1.311,7.665l1.37,0.469l5.348-13.985l-1.488-0.509c-0.894,2.527-1.833,5.061-2.705,7.604
			c-0.314,0.906-0.589,1.832-0.903,2.746l-0.041-0.018c0.55-2.425,0.712-4.122,1.026-5.807l-1.228-0.422
			c-0.792,1.52-1.704,2.957-2.766,5.203l-0.043-0.013c0.316-0.91,0.669-1.81,0.98-2.719c0.874-2.541,1.695-5.116,2.548-7.659
			l-1.488-0.51L84.859,135.512"/>
		<path fill="#1A2458" d="M104.527,138.376l1.539-0.19l-0.816-6.634c0.457-0.245,0.794-0.587,1.021-0.993
			c0.223-0.427,0.31-0.901,0.25-1.379l-0.739-6.033l-1.54,0.188l0.816,6.674l-1.535,0.196l-0.821-6.684l-1.538,0.19l0.742,6.032
			c0.055,0.479,0.257,0.919,0.576,1.281c0.316,0.339,0.728,0.587,1.228,0.716L104.527,138.376"/>
		<path fill="#1A2458" d="M115.844,133.809l-1.436,0.582l-4.444-11l1.438-0.58L115.844,133.809 M112.729,134.372
			c0.478,1.179,1.84,1.767,3.026,1.283c1.187-0.482,1.767-1.843,1.287-3.03l-3.96-9.795c-0.479-1.186-1.843-1.766-3.027-1.283
			c-1.184,0.479-1.766,1.842-1.287,3.03L112.729,134.372z"/>
		<path fill="#1A2458" d="M116.364,119.952l1.235-0.933l3.104,4.119l-1.242,0.932L116.364,119.952 M123.195,131.598l1.24-0.934
			l-4.037-5.355l1.238-0.937l3.371,4.473c0.223,0.3,0.609,0.537,0.934,0.688l1.27-0.96c-0.393-0.176-0.714-0.322-0.97-0.66
			l-2.997-3.982c-0.559-0.736-1.002-0.803-1.387-0.688c0.174-0.396,0.265-0.802-0.164-1.369l-2.854-3.785
			c-0.516-0.688-1.483-0.823-2.174-0.305l-2.476,1.864L123.195,131.598z"/>
		<path fill="#1A2458" d="M122.693,111.518l-1.023,1.223c0,0,0.236,0.658,0.741,1.078c0.507,0.428,2.882,2.416,2.882,2.416
			s1.137,0.854,0.102,2.091l-4.938-4.134l-0.992,1.183l11.47,9.608l0.984-1.178l-5.305-4.449c0,0,0.99-1.188,1.979-0.357
			c0.844,0.708,3.405,2.854,3.405,2.854s0.543,0.506,1.133,0.506l1.022-1.217c0,0-0.654-0.049-1.363-0.645
			c-0.713-0.596-2.837-2.377-2.837-2.377s-1.888-1.76-3.53,0.201c0,0,1.421-1.967-0.701-3.748c-1.679-1.405-2.516-2.106-2.516-2.106
			S122.8,112.075,122.693,111.518"/>
		<path fill="#1A2458" d="M146.289,120.979v-2.268h0.715l0.414,1.559l0.414-1.559h0.709v2.268h-0.432v-1.814l-0.489,1.814h-0.414
			l-0.481-1.814v1.814H146.289 M144.889,120.979v-1.877h-0.701v-0.391h1.836v0.391h-0.678v1.877H144.889z"/>
	</g>
</g>
<g id="Content">
</g>
</svg>
