<?xml version="1.0" encoding="utf-8"?>
<!-- Generator: Adobe Illustrator 14.0.0, SVG Export Plug-In . SVG Version: 6.00 Build 43363)  -->
<!DOCTYPE svg PUBLIC "-//W3C//DTD SVG 1.1//EN" "http://www.w3.org/Graphics/SVG/1.1/DTD/svg11.dtd">
<svg version="1.1" id="Layer_1" xmlns="http://www.w3.org/2000/svg" xmlns:xlink="http://www.w3.org/1999/xlink" x="0px" y="0px"
	 width="200px" height="200px" viewBox="0 0 200 200" enable-background="new 0 0 200 200" xml:space="preserve">
<g id="Background">
	<g>
		<polygon points="136.126,40.157 128.9,42.042 130.473,30.104 126.702,23.508 121.047,28.22 120.732,30.419 117.592,29.477 
			117.592,24.764 113.439,22.804 111.623,12.199 109.443,20.917 106.283,19.424 106.283,16.597 92.46,10 78.953,19.738 
			79.581,27.906 76.754,27.592 63.874,34.817 65.549,41.414 63.141,40.89 56.963,45.498 60.202,58.744 75.812,77.225 72.042,42.984 
			100,98.822 127.958,42.984 124.188,77.225 138.236,60.592 142.408,43.613 		"/>
		<polygon fill="#898D8D" points="70.703,71.178 63.665,43.717 59.162,47.068 63.086,62.159 		"/>
		<polygon fill="#898D8D" points="73.437,55.656 69.214,37.33 77.382,32.304 77.068,30.104 66.387,36.387 75.14,71.128 		"/>
		<polygon fill="#898D8D" points="124.188,77.225 128.479,72.145 134.555,42.984 127.738,44.979 		"/>
		<polygon fill="#898D8D" points="126.826,45.247 121.676,46.754 120.768,57.345 		"/>
		<polygon fill="#898D8D" points="114.266,70.331 117.277,34.188 104.084,39.215 102.552,93.724 		"/>
		<polygon fill="#898D8D" points="99.386,97.597 100.314,17.225 92.775,21.623 92.46,13.142 81.78,20.995 84.583,68.033 		"/>
		<polygon fill="#898D8D" points="72.15,43.967 72.042,42.984 80.48,59.838 78.01,35.445 71.099,39.215 72.042,43.613 		"/>
		<polygon fill="#898D8D" points="106.833,35.523 106.907,33.662 114.445,30.206 114.445,32.405 		"/>
		<polygon fill="#898D8D" points="123.561,34.468 123.561,31.361 122.775,31.125 123.012,29.084 125.995,27.042 125.445,34.538 		
			"/>
		<polygon points="126.316,59.93 129.182,58.754 130.072,53.964 127.26,55.118 		"/>
		<polygon points="125.773,62.822 125.305,67.096 127.77,66.084 128.659,61.294 125.848,62.448 		"/>
		<polygon points="126.406,73.466 127.298,68.676 125.025,69.608 124.518,74.242 		"/>
		<polygon points="111.697,75.461 111.777,74.212 105.755,76.684 105.682,79.346 110.68,77.492 		"/>
		<polygon points="109.295,80.257 105.624,81.764 105.557,84.293 107.579,83.685 		"/>
		<polygon points="96.858,92.548 96.858,22.799 94.355,24.199 95.247,89.33 		"/>
		<polygon points="93.2,85.241 91.848,25.6 89.639,26.835 91.184,81.214 		"/>
		<polygon points="88.99,76.833 87.121,28.242 85.242,29.292 87.398,73.654 		"/>
		<polygon points="68.155,68.161 66.562,61.485 64.596,62.718 65.004,64.431 		"/>
		<polygon points="63.906,59.828 65.872,58.595 64.759,53.931 62.793,55.165 		"/>
		<polygon points="62.139,52.328 64.105,51.095 62.992,46.431 61.026,47.665 		"/>
		<polygon points="90.262,19.071 90.262,16.597 83.351,21.623 83.461,23.606 		"/>
		<polygon points="83.554,25.291 83.665,27.277 90.262,22.879 90.262,20.72 		"/>
		<polygon points="127.783,52.705 130.646,51.529 131.539,46.739 128.727,47.893 		"/>
		<polygon points="106.673,41.067 106.6,43.77 113.938,40.995 114.137,37.958 		"/>
		<polygon points="106.541,46.204 106.467,48.875 113.604,46.159 113.793,43.228 		"/>
		<polygon points="106.41,51.284 106.336,53.979 113.268,51.323 113.458,48.392 		"/>
		<polygon points="106.279,56.364 106.204,59.005 112.932,56.487 113.121,53.555 		"/>
		<polygon points="106.146,61.444 106.074,64.329 112.596,61.651 112.785,58.72 		"/>
		<polygon points="106.018,66.524 105.943,69.215 112.259,66.815 112.45,63.883 		"/>
		<polygon points="105.887,71.604 105.813,74.241 111.924,71.979 112.113,69.048 		"/>
		<polygon fill="#F2A900" points="161.57,86.649 142.096,95.445 151.52,44.869 124.188,77.225 127.958,42.984 100,98.822 
			72.042,42.984 75.812,77.225 48.481,44.869 57.906,95.445 38.429,86.649 97.172,190 95.288,166.126 100,175.786 104.712,166.126 
			102.827,190 		"/>
		<polygon points="155.604,91.989 138.953,99.843 147.749,53.037 121.676,84.136 124.188,55.864 100,104.163 75.812,55.864 
			78.324,84.136 52.251,53.037 61.047,99.843 44.397,91.989 93.639,179.318 91.833,151.361 100,170.209 108.168,151.361 
			106.361,179.318 		"/>
		<polygon fill="#C8102E" points="140.838,105.497 129.529,114.922 140.21,67.487 113.193,104.555 116.648,83.822 100,122.934 
			83.351,83.822 86.806,104.555 59.791,67.487 70.471,114.922 59.162,105.497 86.728,157.958 73.298,97.33 100,157.958 
			126.702,97.33 113.271,157.958 		"/>
		<path d="M140.297,131.092c-9.273-5.244-23.869-8.631-40.297-8.631c-16.628,0-31.388,3.466-40.643,8.822l4.96,15.371
			c9.165-3.935,21.763-6.365,35.682-6.365c13.737,0,26.19,2.368,35.324,6.212L140.297,131.092z"/>
		<path fill="#FFFFFF" d="M66.284,132.626l-0.708,0.228l2.891,9.037l-2.643,0.846l-0.508-1.59l1.053-0.336l-2.383-7.449
			l-1.053,0.339l-0.515-1.609l7.258-2.319l2.897,9.057l1.072-0.344l0.508,1.591l-2.662,0.852l-2.891-9.038l-0.709,0.229l2.892,9.038
			l-1.608,0.514L66.284,132.626z"/>
		<path fill="#FFFFFF" d="M72.21,129.128l5.089-1.101l0.59,2.73l-1.651,0.356l-0.233-1.081l-0.727,0.156l0.629,2.908l0.727-0.158
			l-0.238-1.1l1.651-0.357l0.828,3.832l-1.65,0.357l-0.238-1.101l-0.727,0.157l0.671,3.104l0.727-0.157l-0.238-1.1l1.65-0.356
			l0.591,2.73l-5.09,1.101l-0.353-1.631l1.081-0.233l-1.652-7.646l-1.081,0.233L72.21,129.128z"/>
		<path fill="#FFFFFF" d="M81.141,131.346l-1.67,0.244l-0.568-3.879l6.445-0.943l0.567,3.879l-1.651,0.242l-0.323-2.207
			l-0.736,0.106l1.132,7.737l1.114-0.162l0.242,1.65l-3.879,0.566l-0.242-1.648l1.114-0.164l-1.133-7.737l-0.736,0.105
			L81.141,131.346z"/>
		<path fill="#FFFFFF" d="M90.257,128.031l0.196,2.404l-0.742,0.061l-0.195-2.405L90.257,128.031z M91.804,126.211l-5.19,0.423
			l0.137,1.683l1.103-0.09l0.634,7.795l-1.102,0.09l0.136,1.664l2.765-0.226l-0.242-2.966l0.742-0.061l0.241,2.965l2.785-0.228
			l-0.135-1.661l-1.102,0.088l-0.242-2.965l-2.425,0.196l-0.062-0.762l2.425-0.197L91.804,126.211z"/>
		<path fill="#FFFFFF" d="M97.134,127.689l0.198,7.815l-0.744,0.021l-0.198-7.817L97.134,127.689z M99.042,137.133l-0.283-11.174
			l-4.1,0.104l0.283,11.177L99.042,137.133z"/>
		<path fill="#FFFFFF" d="M104.342,131.999l0.311-5.963l4.076,0.212l-0.146,2.791l-1.666-0.087l0.06-1.104l-0.744-0.039l-0.135,2.59
			l2.408,0.127l-0.357,6.888l-4.074-0.213l0.146-2.79l1.666,0.087l-0.059,1.124l0.743,0.038l0.183-3.533L104.342,131.999z"/>
		<path fill="#FFFFFF" d="M111.361,130.398l-1.68-0.181l0.416-3.896l6.479,0.688l-0.416,3.898l-1.659-0.178l0.235-2.221
			l-0.738-0.078l-0.829,7.776l1.119,0.119l-0.177,1.659l-3.898-0.415l0.178-1.659l1.118,0.119l0.83-7.776l-0.739-0.079
			L111.361,130.398z"/>
		<path fill="#FFFFFF" d="M120.529,129.375l-0.623,3.666l-0.734-0.125l0.626-3.666L120.529,129.375z M119.625,134.686l-0.688,4.043
			l2.754,0.472l0.281-1.646l-1.092-0.188l1.6-9.373l-4.045-0.689l-1.599,9.375l-1.108-0.188l-0.279,1.646l2.755,0.471l0.688-4.043
			L119.625,134.686z"/>
		<path fill="#FFFFFF" d="M127.934,130.948l-0.582,2.341l-0.723-0.18l0.582-2.342L127.934,130.948z M129.979,129.717l-5.054-1.256
			l-0.407,1.639l1.074,0.269l-1.887,7.59l-1.073-0.269l-0.401,1.619l2.691,0.67l0.719-2.889l0.721,0.18l-0.717,2.89l2.713,0.674
			l0.401-1.619l-1.073-0.269l0.717-2.887l-2.358-0.588l0.185-0.74l2.36,0.586L129.979,129.717z"/>
		<path fill="#FFFFFF" d="M130.545,136.088l1.883-5.666l3.872,1.285l-0.881,2.652l-1.584-0.525l0.351-1.05l-0.707-0.234
			l-0.816,2.462l2.29,0.76l-2.177,6.545l-3.871-1.285l0.882-2.652l1.583,0.526l-0.354,1.067l0.707,0.233l1.114-3.356
			L130.545,136.088z"/>
	</g>
</g>
<g id="Content">
</g>
</svg>
