<?xml version="1.0" encoding="utf-8"?>
<!-- Generator: Adobe Illustrator 14.0.0, SVG Export Plug-In . SVG Version: 6.00 Build 43363)  -->
<!DOCTYPE svg PUBLIC "-//W3C//DTD SVG 1.1//EN" "http://www.w3.org/Graphics/SVG/1.1/DTD/svg11.dtd">
<svg version="1.1" xmlns="http://www.w3.org/2000/svg" xmlns:xlink="http://www.w3.org/1999/xlink" x="0px" y="0px" width="200px"
	 height="200px" viewBox="0 0 200 200" enable-background="new 0 0 200 200" xml:space="preserve">
<g id="Background">
	<g>
		<path fill="#FFFFFF" d="M189.922,117.234c-0.066-0.262-0.166-0.545-0.248-0.766l-0.078-0.205c-0.064-0.168-0.125-0.329-0.188-0.51
			c-0.023-0.08-0.051-0.159-0.064-0.227c-0.012-0.049-0.012-0.098-0.01-0.146c0.086-0.959-0.154-1.457-0.531-2.107
			c-0.289-0.509-0.697-0.708-0.971-0.721c-0.07,0.202-0.26,0.324-0.469,0.324c-0.029,0-0.059-0.002-0.088-0.006
			c-0.27-0.041-0.455-0.309-0.426-0.578c0.008-0.066,0.016-0.135,0.02-0.212c0.008-0.255-0.049-0.482-0.176-0.72
			c-0.32-0.604-2.641-2.513-3.523-2.513c-0.713,0-1.461,0.392-2.006,1.048c-0.096,0.12-0.24,0.187-0.393,0.187
			c-0.016,0-0.031-0.001-0.047-0.003c-0.168-0.016-0.316-0.113-0.4-0.264c-0.076-0.144-0.143-0.297-0.205-0.46
			c-0.158-0.419-0.25-0.847-0.34-1.259l-0.068-0.317c-0.248-1.073-0.607-2.155-2.043-2.573c-0.115-0.035-0.268-0.061-0.451-0.076
			c-0.154-0.016-0.324-0.021-0.496-0.027l-0.131-0.002c-0.289-0.007-0.588-0.016-0.883-0.057c-0.588-0.086-0.98-0.277-0.98-0.938
			c0-0.058,0.01-0.113,0.027-0.167l0.158-0.453c0.117-0.331,0.285-0.841,0.416-1.448c0.248-1.128,0.266-2.161,0.059-3.071
			c-0.039-0.165,0.01-0.336,0.123-0.458c0.098-0.104,0.232-0.164,0.373-0.164c0.025,0,0.051,0.001,0.072,0.006
			c0.592,0.09,1.07,0.097,1.205,0.097c3.059,0,7.914-1.997,7.914-7.359c0-3.08-2.496-6.008-4.588-7.923
			c-0.137-0.126-0.195-0.316-0.15-0.498c0.045-0.181,0.186-0.322,0.365-0.371c2.977-0.775,4.615-2.756,4.615-5.575v-0.188
			c0.002-0.44,0.004-0.939-0.086-1.475c-0.121-0.749-0.4-1.441-0.842-2.116c-0.047-0.07-0.121-0.15-0.287-0.15
			c-0.063,0-0.107,0.014-0.123,0.017c-0.119,0.032-0.246,0.111-0.332,0.168c-0.277,0.182-0.678,0.523-0.998,0.799
			c-0.363,0.311-0.799,0.542-1.412,0.747c-0.373,0.124-0.76,0.227-1.172,0.336c-0.217,0.055-0.438,0.114-0.668,0.179
			c-1.418,0.397-2.967,0.974-4.689,2.489c-0.787,0.695-1.334,1.849-1.387,2.943c-0.049,0.919,0.293,1.868,1.047,2.903
			c0.65,0.901,1.516,1.749,2.422,2.611l0.32,0.307c0.33,0.314,0.656,0.626,0.967,0.936c0.471,0.469,0.826,0.854,1.115,1.209
			c0.717,0.882,1.053,1.607,1.053,2.281c0,1.438-1.029,2.406-2.592,2.406c-1.725-0.012-3.051-0.675-4.898-1.895
			c-0.281-0.188-0.568-0.382-0.865-0.583c-0.613-0.413-1.248-0.84-1.951-1.281c-1.279-0.798-2.461-1.432-3.719-1.994
			c-0.35-0.156-0.697-0.293-1.057-0.418V27.351H35.977v59.725c-0.658,0.166-1.292,0.388-1.924,0.685
			c-0.867,0.408-1.743,0.932-2.843,1.694c-0.475,0.329-0.94,0.667-1.398,1.004c-0.41,0.297-0.813,0.591-1.216,0.873
			c-1.813,1.27-3.366,2.114-5.051,2.114c-1.665,0-2.847-0.973-3.009-2.48c-0.141-1.329,0.537-2.671,1.913-3.784l0.759-0.608
			c0.563-0.451,1.092-0.875,1.571-1.285c0.798-0.686,1.343-1.239,1.761-1.789c1.035-1.36,1.297-2.759,0.854-4.536
			c-0.401-1.599-1.63-2.687-3.759-3.325c-0.76-0.23-1.532-0.369-2.256-0.485l-0.251-0.041c-0.223-0.035-0.425-0.068-0.598-0.101
			c-0.233-0.042-0.396-0.083-0.491-0.123c-1.154-0.514-3.664-2.193-4.167-2.532l-0.205-0.138l-0.14,0.203
			c-0.46,0.659-0.821,1.18-1.096,3.468c-0.302,2.526,1.779,5.608,5.362,6.173c0.199,0.032,0.361,0.18,0.413,0.374
			c0.052,0.197-0.019,0.404-0.178,0.529c-3.791,2.981-4.598,4.26-4.798,7.61c-0.122,2.077,0.603,4.113,1.995,5.59
			c1.52,1.613,3.723,2.464,6.372,2.464c0.706,0,1.451-0.061,2.215-0.18c0.026-0.004,0.054-0.006,0.079-0.006
			c0.114,0,0.226,0.038,0.314,0.109c0.113,0.088,0.182,0.218,0.192,0.36c0.177,2.331,0.6,4.226,1.127,5.071
			c0.13,0.207,0.095,0.479-0.085,0.645c-0.164,0.148-0.422,0.296-0.748,0.422c-0.809,0.316-2.034,0.513-3.257,0.513
			c-0.763,0-1.33,0.522-1.787,1.648c-0.148,0.364-0.269,0.755-0.388,1.132l-0.033,0.105c-0.061,0.193-0.117,0.369-0.175,0.525
			c-0.053,0.146-0.108,0.279-0.167,0.389c-0.153,0.272-0.379,0.539-0.692,0.816c-0.095,0.084-0.215,0.127-0.336,0.127
			c-0.029,0-0.06,0-0.087-0.006c-0.152-0.027-0.284-0.121-0.359-0.256c-0.373-0.674-0.963-1.104-1.75-1.275l-0.018-0.002h-0.079
			c-1.164,0-3.175,0.982-3.916,2.83c-0.069,0.171-0.229,0.295-0.414,0.314l-0.093,0.012c-0.929,0.096-1.513,0.528-1.843,1.354
			c-0.138,0.352-0.221,0.743-0.286,1.084l-0.05,0.252c-0.052,0.285-0.107,0.572-0.181,0.854c-0.059,0.225-0.138,0.422-0.259,0.643
			c-0.06,0.109-0.12,0.207-0.175,0.302c-0.044,0.071-0.086,0.14-0.123,0.205c-0.206,0.379-0.311,0.767-0.146,1.428
			c0.074,0.304,0.314,0.563,0.71,0.778c0.293,0.16,0.673,0.297,1.127,0.406c0.808,0.197,1.608,0.26,1.762,0.26
			c0.111,0,0.221-0.031,0.329-0.094c0.078-0.042,0.151-0.101,0.236-0.164c0.093-0.07,0.217-0.115,0.337-0.115
			c0.026,0,0.053,0.004,0.079,0.006l0.376,0.072c0.311,0.059,0.696,0.137,1.08,0.214l0.062,0.014c0.367,0.073,0.73,0.146,1.024,0.2
			c0.158,0.031,0.301,0.055,0.405,0.07c0.118,0.018,0.211,0.026,0.267,0.026h0.004c1.601-0.077,2.276-0.698,2.725-1.296
			c0.125-0.17,0.238-0.347,0.35-0.533l0.181-0.309l0.137-0.23c0.131-0.225,0.261-0.43,0.404-0.625
			c0.099-0.133,0.251-0.208,0.412-0.208c0.042,0,0.088,0.007,0.132,0.016c0.183,0.05,0.367,0.084,0.523,0.112
			c0.371,0.063,0.71,0.096,0.855,0.105c0.105,0.007,0.208,0.01,0.31,0.01c1.515,0,2.644-0.844,3.58-1.636l0.307-0.261
			c0.146-0.123,0.285-0.248,0.425-0.362c0.188-0.155,0.434-0.356,0.689-0.526c0.455-0.303,0.84-0.441,1.214-0.441l0.092,0.002
			c0.364,0.022,1.732,0.121,4.056,0.491c0.099,0.014,0.2,0.021,0.304,0.021c0.389,0,0.859-0.1,1.403-0.297v10.964
			c0,7.694,0.989,10.655,3.355,14.771l0.133,0.23l0.147,0.222c13.72,20.481,36.508,32.711,60.959,32.711
			c24.447,0,47.234-12.228,60.957-32.709l0.148-0.221l0.133-0.233c2.363-4.111,3.352-7.072,3.352-14.771v-10.567
			c0.172,0.021,0.348,0.032,0.527,0.031c0.385,0,0.781-0.051,1.182-0.151c0.43-0.112,0.859-0.165,1.313-0.165
			c0.227,0,0.447,0.016,0.66,0.037c0.57,0.063,1.076,0.189,1.486,0.292l0.107,0.028c0.666,0.166,1.295,0.428,1.926,0.805
			c0.52,0.311,0.957,0.643,1.379,0.963l0.113,0.086c0.838,0.637,1.707,1.295,2.922,1.295c0.045,0,0.096-0.002,0.146-0.004
			c0.08-0.002,0.174-0.027,0.215-0.039c0.066-0.019,0.145-0.043,0.232-0.074c0.166-0.06,0.363-0.139,0.559-0.218
			c0.191-0.073,0.404-0.159,0.65-0.207c0.031-0.006,0.064-0.009,0.098-0.009c0.168,0,0.326,0.082,0.422,0.223
			c0.063,0.092,0.127,0.195,0.195,0.303c0.121,0.199,0.244,0.402,0.404,0.607c0.467,0.604,1.32,1.41,3.311,1.459
			c0.182,0.006,0.355,0.007,0.523,0.007c1.035,0,1.674-0.079,1.959-0.128c0.029-0.006,0.055-0.006,0.086-0.006
			c0.102,0,0.203,0.029,0.289,0.092c0.211,0.146,0.438,0.218,0.686,0.218c0.535,0,1.33-0.161,1.979-0.401
			c0.381-0.139,0.695-0.302,0.93-0.475c0.305-0.227,0.482-0.479,0.523-0.746C190.018,117.77,189.996,117.53,189.922,117.234z"/>
		<path fill="#1A2458" d="M160.293,111.43c-0.873-1.184-1.457-2.748-1.684-4.521c-0.018-0.15-0.104-0.284-0.23-0.363
			c-0.082-0.053-0.18-0.08-0.273-0.08c-0.053,0-0.105,0.006-0.154,0.022c-0.18,0.058-0.371,0.104-0.564,0.144v1.402v16.683
			c0,6.638-0.771,8.2-2.32,10.896c-11.828,17.656-31.822,29.258-54.494,29.258c-22.675,0-42.67-11.602-54.499-29.258
			c-1.546-2.695-2.319-4.258-2.319-10.896v-15.243V106.7c-0.045,0.001-0.093,0.005-0.137,0.005h-0.133h-0.01
			c-0.194,0-0.37,0.107-0.458,0.277c-0.225,0.453-0.446,0.906-0.655,1.338l-0.378,0.775c-0.349,0.707-0.707,1.405-0.971,1.736
			c-0.234,0.295-0.499,0.523-0.753,0.703v2.268v10.913c0,7.055,0.849,9.269,2.784,12.634l0.061,0.105l0.066,0.1
			c12.924,19.293,34.382,30.812,57.401,30.812c23.018,0,44.477-11.519,57.398-30.812l0.068-0.1l0.059-0.102
			c1.936-3.367,2.783-5.58,2.783-12.638v-11.195v-1.483C160.646,111.846,160.455,111.648,160.293,111.43z"/>
		<path fill="#1A2458" d="M43.028,84.748l0.188-0.173c0.176-0.161,0.356-0.324,0.539-0.487V35.128h113.632v48.696
			c0.35,0.23,0.695,0.463,1.031,0.691c0.303,0.207,0.6,0.407,0.885,0.598c0.531,0.35,1.045,0.578,1.578,0.752V31.634H40.26V86.41
			c0.522-0.137,1.042-0.343,1.573-0.686C42.173,85.505,42.529,85.201,43.028,84.748z"/>
		<path fill="#1A2458" d="M39.43,86.578V30.804h122.281v55.292c0.217,0.052,0.438,0.101,0.668,0.149l0.238,0.049
			c0.334,0.069,0.68,0.145,1.031,0.228V28.866H37.493v57.931c0.296-0.037,0.586-0.066,0.872-0.094
			C38.728,86.667,39.082,86.629,39.43,86.578z"/>
		<path fill="#1A2458" d="M161.813,112.658c-0.035-0.021-0.068-0.043-0.102-0.063v1.477v10.645c0,7.26-0.883,9.552-2.895,13.05
			l-0.074,0.13l-0.082,0.122c-13.078,19.522-34.793,31.176-58.088,31.176c-23.296,0-45.013-11.653-58.09-31.176l-0.084-0.124
			l-0.072-0.128c-2.013-3.502-2.896-5.793-2.896-13.05v-10.515v-2.191c-0.14,0.066-0.276,0.13-0.405,0.189l-0.061,0.027
			c-0.205,0.094-0.375,0.174-0.517,0.265c-0.323,0.201-0.645,0.388-0.955,0.558v2.256v9.411c0,7.689,1.01,10.287,3.152,14.017
			l0.106,0.186l0.119,0.179c13.438,20.061,35.757,32.037,59.702,32.037c23.943,0,46.26-11.977,59.699-32.037l0.117-0.179
			l0.107-0.186c2.143-3.727,3.152-6.325,3.152-14.017v-9.478v-1.533c-0.543-0.245-1.031-0.547-1.469-0.819
			C162.059,112.807,161.936,112.733,161.813,112.658z"/>
		<path fill="#FCB42C" d="M128.377,104.191c-0.152,0.918,1.027,2.361,1.365,3.012c0.166-0.332,1.154-2.592,1.303-2.867
			C130.563,104.308,129.248,104.299,128.377,104.191z"/>
		<path fill="#FCB42C" d="M71.503,106.529c0.469-0.836,0.988-0.966,1.335-1.394c0.198-0.572,0.478-0.903,0.867-1.393
			c-0.943,0.143-2.736,0.483-3.495,0.624C70.383,104.907,70.549,106.158,71.503,106.529z"/>
		<path fill="#FCB42C" d="M129.84,112.702c-0.053-0.183-0.104-0.372-0.15-0.566c-0.053-0.226-0.248-0.385-0.479-0.392h-0.018
			c-0.223,0-0.42,0.145-0.484,0.359c-0.248,0.809-0.938,2.182-2.783,2.294c-0.043,0.003-0.088,0.005-0.135,0.005
			c-0.822,0-1.9-0.411-2.615-0.685l-0.328-0.126c-0.365-0.141-0.727-0.277-1.063-0.396c-0.49-0.165-0.846-0.252-1.119-0.275
			c-0.068-0.007-0.141-0.007-0.217-0.007c-0.105,0-0.217,0.006-0.334,0.014c-0.209,0.016-0.428,0.039-0.66,0.063
			c-0.451,0.05-0.949,0.105-1.447,0.105h-0.113c-1.068-0.021-1.906-0.323-2.555-0.919c-0.096-0.09-0.221-0.137-0.344-0.137
			c-0.135,0-0.266,0.056-0.365,0.158c-1.633,1.692-3.645,2.553-5.986,2.553h-0.211c-0.486-0.013-1.352-0.279-1.713-0.745
			c-0.145-0.187-0.188-0.382-0.135-0.61c0.037-0.15,0.002-0.307-0.094-0.43c-0.094-0.121-0.238-0.193-0.391-0.196
			c-1.324-0.021-2.111-0.655-2.303-1.271c-0.148-0.48,0.055-0.948,0.57-1.318l0.127-0.09c0.186-0.128,0.402-0.277,0.691-0.516
			c0.432-0.356,0.93-0.834,1.525-1.457c1.229-1.282,2.15-2.848,2.9-4.914c0.641-1.764,1.076-3.691,1.494-5.552l0.064-0.279
			c0.871-3.834,1.854-8.183,4.99-11.607c2.316-2.532,4.09-3.927,8.986-7.409c0.832-0.592,1.676-1.3,2.502-2.003
			c-3.676-5.024-8.705-8.993-14.551-11.372c2.557,2.962,4.105,6.818,4.105,11.039c0,9.337-7.568,16.907-16.908,16.907
			c-9.336,0-16.905-7.57-16.905-16.907c0-4.163,1.506-7.972,4-10.917c-5.399,2.256-10.09,5.872-13.638,10.423
			c0.877,0.621,1.721,1.271,2.75,2.117c0.697,0.572,1.455,1.217,2.347,1.974c0.628,0.533,1.323,1.123,2.11,1.786
			c0.464,0.453,1.053,1.125,1.771,2.035c0.236,0.299,0.469,0.598,0.693,0.886c0.326,0.42,0.63,0.816,0.902,1.148
			c2.194,2.687,3.547,4.476,3.86,6.686c0.606,4.299,1.002,6.746,2.688,11.061c0.032,0.08,0.097,0.186,0.192,0.305
			c0.091,0.119,0.205,0.245,0.328,0.369l0.382,0.404c0.133,0.137,0.26,0.279,0.366,0.41c0.271,0.357,0.504,0.765,0.694,1.119
			l0.178,0.335c0.152,0.287,0.31,0.581,0.478,0.87c0.391,0.666,0.959,1.502,1.916,2.043c1.008,0.564,1.21,0.683,1.554,1.006
			c0.162,0.152,0.24,0.329,0.238,0.54c-0.006,0.313-0.188,0.677-0.471,0.924c-0.307,0.274-0.73,0.461-1.251,0.554
			c-0.141,0.025-0.263,0.105-0.339,0.227c-0.077,0.121-0.1,0.268-0.063,0.404c0.089,0.34,0.022,0.686-0.192,0.972
			c-0.321,0.431-0.916,0.683-1.671,0.708c-0.11,0.003-0.218,0.003-0.324,0.003c-3.178,0-5.334-1.495-6.338-2.385
			c-0.095-0.085-0.217-0.13-0.337-0.13c-0.106,0-0.209,0.032-0.297,0.098l-0.136,0.098c-0.368,0.264-0.92,0.664-1.635,0.957
			c-0.491,0.235-1.036,0.34-1.741,0.34c-0.252,0-0.5-0.014-0.731-0.029c-0.165-0.01-0.331-0.024-0.494-0.037
			c-0.245-0.02-0.488-0.038-0.729-0.053c-0.135-0.006-0.264-0.009-0.386-0.009c-0.271,0-0.501,0.017-0.703,0.055
			c-0.572,0.103-1.184,0.308-1.833,0.522l-0.431,0.143c-0.756,0.244-1.63,0.512-2.418,0.544c-0.065,0.001-0.128,0.003-0.189,0.003
			c-1.153,0-1.969-0.436-2.425-1.296c-0.094-0.177-0.17-0.37-0.236-0.589c-0.061-0.2-0.235-0.343-0.44-0.358
			c-0.017-0.003-0.032-0.005-0.05-0.005c-0.188,0-0.361,0.104-0.448,0.275c-0.01,0.02-0.021,0.037-0.031,0.058
			c5.758,10.374,16.821,17.397,29.528,17.397c12.658,0,23.684-6.969,29.461-17.277C129.848,112.724,129.844,112.713,129.84,112.702z
			"/>
		<path fill="#E50B2C" d="M63.377,46.527c0-4.035-3.176-7.305-7.095-7.305c-0.119,0-0.669,0.001-0.785,0.008h-8.253v24.731h5.01
			V43.498l2.986-0.027c1.851,0,3.256,1.449,3.256,3.237c0,1.787-1.5,3.234-3.35,3.234l-1.163,0.027v5.89l5.004,8.103h5.904
			l-6.92-10.335C61.076,52.845,63.377,49.963,63.377,46.527z"/>
		<path fill="#E50B2C" d="M71.781,47.968c-4.409,0-7.985,3.699-7.985,8.263s3.577,8.271,7.988,8.271
			c3.364,0,5.991-1.558,7.346-3.997l-3.923-1.851c-0.5,1.104-1.667,1.879-3.028,1.879c-1.816,0-3.287-1.38-3.287-3.081
			c0-0.109-0.044-0.065-0.032-0.171l10.675,0.004c0.031-0.338,0.049-0.684,0.046-1.038C79.653,50.901,76.192,47.968,71.781,47.968z
			 M68.873,54.443c0-1.666,1.321-3.017,2.952-3.017c1.629,0,2.95,1.351,2.95,3.017H68.873z"/>
		<path fill="#E50B2C" d="M97.973,59.277l-0.006-20.851h-4.885l0.02,11.971c-1.295-1.267-3.021-2.033-4.905-2.033
			c-4.03,0-7.298,3.529-7.298,7.884c0,4.353,3.268,7.882,7.298,7.882c0.03,0,0.059-0.002,0.088-0.002
			C90.833,61.552,94.205,59.795,97.973,59.277z M85.998,56.392c0-2.139,1.605-3.871,3.583-3.871c1.98,0,3.584,1.732,3.584,3.871
			s-1.604,3.872-3.584,3.872C87.603,60.264,85.998,58.531,85.998,56.392z"/>
		<rect x="149.182" y="38.616" fill="#E50B2C" width="4.709" height="25.382"/>
		<path fill="#E50B2C" d="M133.311,57.72c0,1.485-1.236,2.688-2.76,2.688c-1.525,0-2.762-1.203-2.762-2.688v-8.916h-4.795v9.863
			c0,3.34,3.375,6.047,7.539,6.047s7.539-2.707,7.539-6.047v-9.863h-4.762V57.72z"/>
		<path fill="#E50B2C" d="M117.238,50.437c1.287-1.265,2.074-2.961,2.074-4.826c0-1.69-0.615-3.242-1.693-4.461
			c-1.123-1.303-3.111-1.881-5.799-1.881h-8.049v20.204c3.232,0.675,6.125,2.273,8.391,4.506h2.006
			c3.984-0.068,7.189-3.256,7.189-7.144C121.357,54.006,120.414,51.99,117.238,50.437z M113.295,59.646h-4.506V43.536h3.145
			c1.381,0,2.5,1.178,2.5,2.632c0,1.453-1.119,2.631-2.5,2.631h-1.635v4.467h2.996c1.674,0,2.939,1.422,2.939,3.183
			C116.174,58.271,115.115,59.527,113.295,59.646z"/>
		<rect x="141.225" y="38.616" fill="#E50B2C" width="4.707" height="25.382"/>
		<path fill="#B8C0C8" d="M87.592,85.141c4.929,3.562,11.878,4.126,17.31,1.207c5.9-3.053,9.473-9.344,8.928-16.124
			c-0.102-0.984-0.258-1.941-0.516-2.873c1.666,2.506,2.623,5.476,2.623,8.671c0,8.635-7.002,15.639-15.641,15.639
			C95.064,91.661,90.431,89.089,87.592,85.141"/>
		<path fill="#1A2458" d="M90.277,88.029c-2.591-2.165-4.47-5.151-5.236-8.561c0.836,0.867,2.455,2.529,2.455,2.529
			c0.974,2.011,3.409,5.512,3.409,5.512C90.731,87.703,90.455,87.907,90.277,88.029 M100.297,60.381c2.064,0,4.035,0.4,5.834,1.125
			c-0.061,0.289-0.279,1.114-0.914,2.161c-3.258-0.426-6.881-0.091-6.881-0.091l-3.011-2.388
			C96.885,60.666,98.561,60.381,100.297,60.381 M98.975,85.377l6.76-0.183l1.309,3.685c-2.557,1.522-5.633,2.315-5.633,2.315
			c-3.227-0.703-5.084-2.102-5.084-2.102L98.975,85.377z M106.07,73.654c0,0,1.369-2.859,3.014-5.176c0,0,3.168,1.491,4.66,2.711
			c0,0,0.547,1.704,0.182,6.697c0,0-1.889,1.097-4.629,1.768C109.297,79.654,107.439,76.518,106.07,73.654 M89.661,64.558
			c-0.369,0.6-1.443,2.405-2.411,4.559c-0.912,1.142-1.708,2.304-2.052,2.815C85.973,69.063,87.544,66.522,89.661,64.558
			 M95.687,79.928c-3.654-0.883-6.152-1.767-6.152-1.767c-0.394-3.776-0.06-7.063-0.06-7.063c1.581-0.824,5.875-2.743,5.875-2.743
			c2.042,2.316,3.992,5.42,3.992,5.42C98.396,75.603,95.687,79.928,95.687,79.928"/>
		<path fill="#1A2458" d="M50.342,134.496l1.51,1.826l5.1-4.219c1.554-1.287,4.561-4.021,5.959-5.344l0.041,0.049
			c-3.471,3.782-6.345,7.738-9.51,11.436l1.428,1.727l17.597-14.557l-1.508-1.825l-5.103,4.223
			c-1.553,1.282-4.561,4.021-5.958,5.341l-0.042-0.049c3.471-3.783,6.344-7.736,9.51-11.438l-1.426-1.725L50.342,134.496z"/>
		<path fill="#1A2458" d="M80.505,132.031l-3.761-2.875c-1.041-0.795-2.521-0.598-3.318,0.443L62.43,143.982
			c-0.797,1.041-0.6,2.521,0.441,3.318l3.762,2.874l1.438-1.879l-3.76-2.876l4.778-6.253l2.82,2.157l1.438-1.878l-2.82-2.158
			l4.778-6.251l3.761,2.877L80.505,132.031z"/>
		<path fill="#1A2458" d="M75.147,155.127l2.055,0.806c1.874-2.94,3.945-5.772,6.058-10.2l0.061,0.023
			c-1.457,4.686-1.86,8.17-2.484,11.601l2.054,0.806l9.05-20.984l-2.233-0.875c-1.525,3.801-3.12,7.605-4.615,11.418
			c-0.535,1.37-1.014,2.764-1.551,4.134l-0.059-0.022c0.99-3.666,1.346-6.24,1.935-8.793l-1.846-0.724
			c-1.304,2.272-2.792,4.403-4.557,7.767l-0.059-0.025c0.535-1.367,1.134-2.715,1.671-4.085c1.493-3.812,2.909-7.688,4.373-11.513
			l-2.233-0.875L75.147,155.127z"/>
		<path fill="#1A2458" d="M105.199,160.385l2.355-0.262l-1.117-10.141c0.699-0.369,1.223-0.876,1.574-1.494
			c0.346-0.648,0.492-1.374,0.412-2.104l-1.014-9.221l-2.354,0.258l1.121,10.206l-2.354,0.26l-1.121-10.208l-2.354,0.261
			l1.016,9.221c0.082,0.731,0.379,1.405,0.859,1.964c0.475,0.527,1.098,0.91,1.859,1.115L105.199,160.385z"/>
		<path fill="#1A2458" d="M117.789,154.426c0.709,1.816,2.779,2.726,4.598,2.018c1.816-0.707,2.729-2.777,2.018-4.596l-5.848-15.021
			c-0.709-1.82-2.779-2.73-4.598-2.02c-1.816,0.705-2.729,2.776-2.02,4.596L117.789,154.426z M122.561,153.631l-2.205,0.859
			l-6.57-16.869l2.205-0.86L122.561,153.631z"/>
		<path fill="#1A2458" d="M133.822,150.401l1.908-1.4l-6.057-8.254l1.906-1.399l5.055,6.885c0.342,0.463,0.926,0.828,1.416,1.063
			l1.959-1.438c-0.6-0.276-1.09-0.513-1.465-1.028l-4.506-6.135c-0.834-1.135-1.504-1.24-2.102-1.078
			c0.275-0.599,0.418-1.217-0.227-2.096l-4.277-5.828c-0.777-1.056-2.252-1.283-3.309-0.506l-3.816,2.801L133.822,150.401z
			 M123.617,132.497l1.908-1.401l4.656,6.344l-1.908,1.4L123.617,132.497z"/>
		<path fill="#1A2458" d="M133.441,119.746l-1.586,1.845c0,0,0.348,1.003,1.111,1.663c0.77,0.659,4.352,3.738,4.352,3.738
			s1.719,1.322,0.109,3.195l-7.459-6.411l-1.535,1.789l17.316,14.888l1.529-1.783l-8.012-6.887c0,0,1.535-1.795,3.029-0.511
			c1.277,1.098,5.143,4.423,5.143,4.423s0.818,0.783,1.721,0.795l1.584-1.843c0,0-0.996-0.085-2.074-1.007
			c-1.072-0.923-4.281-3.684-4.281-3.684s-2.844-2.715-5.389,0.244c0,0,2.207-2.979-1.002-5.736
			c-2.531-2.178-3.797-3.264-3.797-3.264S133.596,120.59,133.441,119.746"/>
		<path fill="#E50B2C" d="M58.02,110.162c0.592,0.648,0.562,1.65,1.239,2.152c0.885,0.148,1.68-0.205,2.358-0.736
			c0.385-0.323-0.177-0.736-0.235-1.121c-0.383-0.561-0.119-1.68-1.063-1.709c-0.942,0.146-1.886,0.178-2.829,0.178l-0.266,0.176
			C57.049,109.662,57.874,109.662,58.02,110.162"/>
		<path fill="#E50B2C" d="M13.3,113.289c-0.472,0.234-0.974,0.678-1.091,1.207c-0.149,0.945,0.06,1.83-0.679,2.507
			c-0.029,0.177-0.206,0.382-0.029,0.561c0.649,0.204,1.269,0.47,2.064,0.56c0.353-1.15,0.618-2.417,1.031-3.42v-0.297
			C14.243,113.967,13.889,113.405,13.3,113.289"/>
		<path fill="#E50B2C" d="M94.664,109.926c-1.768-1.031-2.474-2.976-3.565-4.512c-0.383-0.56-1.061-0.914-1.415-1.474
			c-1.268-3.451-2.358-6.899-2.683-10.849c-0.266-0.973-0.47-1.974-1.003-2.888c-1.591-2.595-3.653-4.955-5.659-7.342
			c-0.178-0.176-0.179-0.192-0.561-0.56l-6.986-5.807c-0.856-0.649-1.829-1.062-2.802-1.503c-1.474-0.562-3.479-0.442-4.922,0.178
			c-1.504,0.795-2.86,1.946-4.453,2.476c-2.297,1.032-4.892,1.238-6.868,3.008c-1.149,1.003-2.122,2.564-3.833,2.298
			c-1.916-0.089-3.624,0.619-5.069,1.798c-1.299,1.18-2.534,2.565-4.217,2.89c-1.474,0.619-3.271,0.322-4.775,0.884
			c-2.389,0.588-4.275,2.476-6.308,3.921c-2.034,1.178-3.98,2.446-6.518,2.388c-1.648-0.118-3.241-1.268-3.772-2.859
			c-0.501-1.83,0.059-3.715,1.504-4.954c1.504-1.798,3.89-2.86,5.071-4.924c0.618-1.091,0.529-2.858-0.296-3.89
			c-1.563-1.622-3.803-1.682-5.836-2.183c-1.297-0.355-2.301-1.356-3.45-1.975c-0.441,0.677-0.59,1.416-0.528,2.24
			c0.234,1.858,1.648,3.537,3.417,4.186c1.032,0.444,2.212,0.12,3.272,0.355c0.296,0.117,0.592,0.412,0.618,0.736
			c-0.056,0.296-0.086,0.59-0.352,0.796c-1.651,1.387-3.39,2.712-4.777,4.422c-1.474,1.593-1.65,4.392-0.882,6.399
			c0.854,2.298,3.241,3.803,5.54,4.097c1.681,0.266,3.186-0.177,4.717-0.501c0.207,0,0.297,0.208,0.384,0.324
			c0.147,1.356-0.06,2.565,0.236,3.803c0.266,1.15,0.649,1.946,1.061,3.065c0.061,0.383,0,0.797-0.266,1.092
			c-0.854,0.65-1.739,1.094-2.682,1.506l-2.299,0.146l-0.443,0.208c-0.855,1.003-0.885,2.034-1.414,3.153
			c-0.709,1.181-2.005,1.738-3.097,2.417c-0.353,0.56-0.737,1.15-1.237,1.593c-0.385,0.354-0.855,0.442-1.355,0.502
			c-0.797,0.914-0.973,2.182-1.182,3.42c1.298,0.117,2.655,0.824,3.923,0.117c1.09-0.502,1.327-1.828,2.152-2.623
			c0.647-0.708,1.621-0.178,2.388-0.031c1.147,0.059,1.975-0.766,2.949-1.148c0.675-0.441,1.236-1.208,1.943-1.652
			c1.357-0.646,3.242-0.295,4.658-0.027c1.12,0.293,2.3,0.117,3.272-0.326c0.914-0.56,1.77-1.268,2.8-1.504
			c0.914-0.47,1.357-1.502,1.74-2.355c0.293-0.799,1.061-1.416,1.002-2.329c-0.237-0.208-0.501-0.652-0.854-0.622
			c-0.443,0.622-0.767,1.268-1.268,1.859c-2.132,2.908-3.808,3.183-8.137,3.183c-3.214-0.118-6.104,0.856-8.313,3.361
			c-0.147,0.089-0.354,0.028-0.473-0.087c-0.087-0.355,0.209-0.943,0.354-1.208c1.977-2.8,5.042-3.448,8.283-3.506
			c1.769-0.121,3.45-0.414,4.954-1.181c1.681-0.854,2.828-2.186,3.538-3.838c0.381-1.856,0.53-3.862,1.003-5.631
			c0.058-0.176,0.499-0.309,0.645-0.25c0.178,0.03,0.528,0.191,0.528,0.397c-0.322,1.827-0.909,3.978-0.202,5.747
			c1.415,1.861,4.04,0.857,5.957,0.768c2.004-0.178,3.615-0.02,5.531,0.097c0.942-0.028,1.641,0.202,2.377-0.386
			c0.205-0.326,0.289-0.766,0.23-1.119c-0.061-0.531-0.503-0.851,0-1.293c0.146-0.119,0.587-0.04,0.704,0.107
			c0.266,0.737,0.384,1.533,0.855,2.182c0.943,1.211,2.329,2.154,3.624,2.831c1.237,0.857,2.271,2.065,2.36,3.567
			c0,0.768-0.708,1.297-1.298,1.652c-1.002,0.5-2.094,0.914-3.271,0.795c-1.564-0.766-1.977-2.417-3.008-3.627
			c-0.529-0.588-1.326-0.706-2.123-0.646c-0.855,0.086-1.709,0.116-2.475,0.383c-0.207,0.178-0.267,0.441-0.237,0.709
			c0.531,0.971,1.121,1.915,1.708,2.887c0.682,0.414,1.624-0.236,2.212,0.5c0.501,0.769,0.825,1.684,1.594,2.273
			c0.737,0.646,1.857,0.941,2.83,0.529c2.181-0.679,4.363-1.385,6.397-2.477h0.677c0.825-0.088,1.741-0.029,2.329-0.648
			c0.648-0.944,1.18-1.828,1.68-2.83c0.501-0.68,0.266-1.711,0.062-2.447c-1.004-1.237-1.564-2.625-2.096-4.042
			c-0.499-0.147-0.943-0.441-1.502-0.412c-0.265,0.116-0.649,0.058-0.797,0.354l2.329,4.601c0.146,0.354,0.324,0.854,0.235,1.326
			c-0.325,0.975-0.825,1.915-1.62,2.624c-0.147,0.09-0.325,0.178-0.442-0.028c0.265-1.003,0.736-2.093,0.678-3.243l-2.269-4.101
			c-0.267-0.561-0.738-1.062-0.71-1.71c0-0.296,0.265-0.501,0.503-0.619c1.002-0.325,2.21-0.266,2.976-1.06
			c1.004-1.565,1.212-3.098,1.478-4.954c0.06-0.118,0.298-0.345,0.474-0.345c0.177-0.059,0.379,0.199,0.466,0.286
			c0.298,2.034-0.117,4.097-1.296,5.69c-0.059,0.207-0.147,0.472,0.088,0.619c1.121,0.354,2.3,0,3.243-0.502
			c1.21,0.03,2.329-0.265,3.422-0.441c0.116,0.058,0.234,0.177,0.234,0.294c-0.735,0.825-1.149,1.739-1.356,2.804
			c-0.886,0.914-2.152,1.709-2.241,3.037c0.147,0.646,0.709,0.028,1.092,0.088c0.177,0.031,0.295,0.176,0.295,0.354l-0.884,1.297
			c-0.473,0.768,0.087,1.652,0.087,2.389c0.207,0.588,0.914,0.885,1.533,0.885c1.327-0.059,2.506-0.561,3.687-0.975
			c1.297-0.561,2.917-0.531,4.334-0.295c1.385-0.087,2.416-1.002,3.448-1.916c0.562,0,1.062,0.384,1.444,0.798
			c1.59,1.708,3.655,2.445,5.984,2.388l0.206-0.117c0.148-0.149,0.088-0.413-0.09-0.531l-1.383-0.708
			c-0.974-0.621-2.184-1.445-2.506-2.536c-0.296-0.973-0.827-2.035-1.417-2.979c-0.205-0.473-0.677-0.854-0.884-1.326
			c0.058-0.062,0.118-0.149,0.207-0.119c1.532,0.532,2.447,2.035,3.152,3.393c1.122,1.562,2.742,2.887,4.865,2.536l0.177-0.149
			c0.09-0.117,0.06-0.265,0-0.354L94.664,109.926z M71.526,89.161c-0.037-0.009-0.073-0.019-0.073-0.019s-0.004,0.014-0.009,0.029
			c-0.009,0.01-0.02,0.021-0.02,0.021c-0.085,0.082-0.233,0.144-0.383,0.043c0,0-0.021-0.015-0.039-0.027
			c-0.005-0.022-0.01-0.048-0.01-0.048c-0.229-1.175-0.491-2.42-0.967-3.576c0,0.001-0.273-0.467-0.273-0.467l-0.106-0.147
			l-0.233-0.339c-0.187-0.297-0.367-0.699-0.118-1.176l0.027-0.037c0.215-0.214,0.593-0.232,0.853-0.135l0.033,0.018
			c0.502,0.347,0.827,0.92,1.063,1.339c0.298,0.693,0.45,1.563,0.45,2.461c0,0.685-0.088,1.388-0.269,2.042
			C71.453,89.143,71.489,89.152,71.526,89.161 M82.76,108.604c0,0-0.013,0.01-0.006,0.016c-0.009-0.004-0.029,0.002-0.029,0.002
			c-0.547,0.172-1.164,0.243-1.838,0.211l-0.038-0.008c0.002,0.002-0.121-0.055-0.121-0.055c-0.002-0.002-0.131-0.08-0.131-0.08
			c-0.065-0.053-0.164-0.167-0.107-0.332c0.255-0.77,1.015-1.648,1.972-1.846c0.024-0.003,0.083-0.003,0.083-0.003h0.133l0.216,0.03
			c0.103,0.029,0.28,0.115,0.325,0.366c0.015,0.142,0.027,0.298,0.027,0.46C83.246,107.818,83.151,108.312,82.76,108.604
			 M86.373,100.572c-0.008,0.022-0.089,0.25-0.089,0.25c-0.005,0.018-0.078,0.256-0.078,0.256c-0.086,0.232-0.221,0.361-0.423,0.41
			c-0.118,0.034-0.232,0.016-0.321-0.051c-0.09-0.068-0.143-0.176-0.143-0.299c0-0.006-0.018-0.264-0.018-0.264l-0.091-0.907
			c-0.073-0.424-0.197-0.748-0.393-1.021c-0.006-0.008-0.397-0.463-0.397-0.463c-0.014-0.018-0.45-0.511-0.45-0.511
			c-0.347-0.346-0.657-0.512-0.981-0.522c-0.254,0.079-0.482,0.246-0.728,0.514l-0.314,0.385l-0.275,0.37
			c-0.1,0.173-0.326,0.076-0.327,0.074c0,0-0.021-0.01-0.04-0.02c-0.008-0.02-0.016-0.041-0.016-0.041
			c-0.071-0.179-0.099-0.349-0.099-0.509c0-0.283,0.086-0.536,0.172-0.743l0.24-0.491l0.274-0.581l0.036-0.054
			c0.083-0.08,0.163-0.221,0.253-0.459l0.073-0.2l0.161-0.412c0.244-0.524,0.607-0.665,1.14-0.438
			c0.413,0.221,0.668,0.57,0.86,0.884l0.13,0.217l0.169,0.277l0.348,0.444c0.951,1.066,1.412,2.073,1.412,3.114
			C86.458,100.042,86.43,100.306,86.373,100.572"/>
		<path fill="#E50B2C" d="M16.394,113.199c0.914-0.531,1.504-1.532,1.977-2.389c-0.088-0.322-0.414-0.559-0.68-0.796
			c-0.175-0.146-0.439-0.029-0.647,0.03c-0.649,0.561-1.324,1.002-2.034,1.446c-0.294,0.205-0.177,0.647-0.235,0.972
			c0,0.295,0.354,0.5,0.531,0.678C15.629,113.289,16.041,113.317,16.394,113.199"/>
		<path fill="#E50B2C" d="M141.535,109.279c-0.797,0.146-1.711-0.029-2.508,0.086c-0.352,0.531-0.678,1.181-0.59,1.89
			c0.088,0.736,0.914,0.796,1.445,1.002c0.502,0.058,1.236,0.234,1.506-0.294c0.293-0.768,0.559-1.592,0.678-2.418
			C142.006,109.309,141.77,109.22,141.535,109.279"/>
		<path fill="#E50B2C" d="M184.191,114.792c-1.504,0.087-2.24-1.534-3.123-2.478c-0.738-0.854-2.182-1.354-2.152-2.624
			c-0.266-0.5-0.326-1.295-0.561-1.945c-0.207-0.529-0.414-1.298-1.121-1.415c-1.268-0.204-2.801,0.146-3.598-1.031
			c-0.822-0.887,0.09-1.918,0.238-2.773c0.352-1.09,0.383-2.536,0.205-3.656c-0.029-0.649-0.471-1.178-0.354-1.828
			c0.295-0.56,1.004-0.147,1.443-0.088c1.65,0.472,3.598,0.236,5.1-0.413c2.064-1.003,3.717-3.096,3.627-5.484
			c-0.295-3.096-2.506-5.629-4.893-7.635c-0.443-0.384-1.004-0.796-1.15-1.356c-0.059-1.209,1.297-0.62,1.977-0.914
			c0.824-0.208,1.65-0.414,2.328-0.884c1.799-1.21,2.182-3.333,1.828-5.396c-0.059-0.176-0.059-0.443-0.324-0.443
			c-0.324,0.267-0.65,0.65-1.061,0.885c-1.15,0.68-2.686,0.562-3.893,1.151c-1.504,0.649-3.361,1.562-4.01,3.271
			c-0.178,0.857,0.031,1.741,0.414,2.449c1.826,2.888,5.688,4.775,6.309,8.253c0.234,1.416-0.473,2.447-1.564,3.244
			c-1.652,1.001-4.127,0.648-5.777-0.236c-3.184-1.591-5.955-4.245-9.375-5.336c-2.152-0.972-4.805-0.738-6.721-2.242
			c-1.445-0.943-2.771-2.181-4.393-2.593c-1.121-0.383-2.389-0.325-3.418-0.884c-1.064-0.944-2.184-1.828-3.422-2.446
			c-1.709-0.856-3.596-1.297-5.482-1.711c-1.121-0.265-1.533-1.502-2.447-2.122c-1.563-1.238-3.303-2.123-5.424-1.945
			c-0.885,0.059-1.564,0.648-2.242,1.238c-4.51,3.95-9.67,6.663-13.795,11.173c-2.773,2.86-3.51,6.486-4.541,9.993
			c-1.473,5.308-2.094,11.146-7.43,14.419c-0.088,0.147-0.088,0.414,0.088,0.531c1.416,0.354,2.801-0.209,3.744-1.179
			c0.914-1.446,1.887-2.832,3.125-4.157l0.297-0.148c0.146,0.031,0.322,0.119,0.264,0.324c-0.354,1.179-1.416,2.036-1.768,3.213
			c-0.473,1.416-1.828,2.506-2.98,3.509l-0.029,0.177c0,0.147,0.148,0.295,0.297,0.324c2.596,0.117,4.451-1.74,6.189-3.479
			c0.18-0.178,0.414-0.146,0.65-0.089c0.766,0.591,1.473,1.477,2.477,1.682c1.061-0.149,2.18-0.294,3.301-0.205
			c1.563,0.472,3.066,1.118,4.629,1.649c0.795-0.028,1.385-0.797,1.799-1.444c0.324-0.766-0.148-1.534-0.09-2.271
			c0.385-0.235,0.826,0.058,1.24-0.061c0.174-0.115,0.324-0.324,0.324-0.529c-0.295-1.355-1.506-2.359-1.889-3.627
			c-0.59-1.623-2.506-2.595-2.859-4.335c0.088-0.118,0.236-0.294,0.385-0.177c1.268,0.915,2.389,2.123,3.949,2.358
			c1.178,0.119,2.389,0.236,3.566,0.147c0.178-0.058,0.324-0.265,0.266-0.47c-0.5-1.063-0.973-2.123-1.268-3.274
			c-0.412-1.443-0.709-3.449-0.236-5.041c0.088-0.118,0.471-0.344,0.648-0.285c0.236,0.059,0.527,0.344,0.557,0.55
			c0.178,2.507-0.084,4.806,1.42,6.78c0.646,1.032,1.768,1.238,2.564,2.035c0.293,0.414,0.354,1.09,0.148,1.563l-1.799,2.654
			c-0.414,0.59-0.826,1.24-0.975,1.889c-0.146,0.737-0.059,1.443,0,2.151c-0.117,0.058-0.174-0.118-0.293-0.177
			c-0.473-0.973-1.002-2.213-0.502-3.361l2.27-3.51l0.088-0.266c-0.5-0.266-1.061-0.529-1.59-0.649
			c-0.266,0.12-0.443,0.384-0.621,0.62l-2.209,4.012c-0.15,0.471-0.295,0.826-0.18,1.326c0.119,0.591,0.266,1.181,0.533,1.68
			c0.176,0.827,0.322,1.388,0.705,2.123c0.561,0.619,1.328,0.06,2.037,0.236c0.707,0.178,0.973,1.031,1.678,1.238
			c1.592,0.528,3.303,0.824,4.893,1.445c0.828,0.264,2.006,0.59,2.744-0.091c1.031-0.558,1.297-1.649,1.475-2.683
			c0.322-0.441,0.971-0.264,1.443-0.41c0.887-0.59,1.18-1.652,1.828-2.447l0.117-0.414c-0.088-0.266-0.324-0.413-0.559-0.502h-3.008
			c-1.387,0.178-1.506,1.711-2.092,2.655c-0.326,0.591-0.973,0.824-1.652,0.767c-1.416-0.385-3.154-0.59-3.803-2.123
			c-0.09-0.383-0.09-0.854,0.205-1.121c0.736-0.854,1.623-1.826,2.535-2.534c1.299-0.267,2.568-1.239,3.242-2.391
			c0.355-0.502,0.297-1.238,0.887-1.622c0.178-0.029,0.57-0.041,0.689,0.135c0.266,0.855-0.215,1.469-0.479,2.205
			c3.213,0.326,5.705-0.604,8.828-0.484c1.328,0,2.518,0.151,3.813,0.062c1.301-0.06,2.713-0.591,3.125-1.946
			c0.592-1.74-0.229-3.714-0.527-5.366l0.357-0.28c0.209-0.117,0.555,0.045,0.701,0.163c0.561,1.563,0.943,3.45,1.18,5.158
			c0.236,1.505,0.885,2.482,1.711,3.753c1.502,2.238,4.156,3.121,6.781,2.562c3.182-0.235,5.922,1.443,7.871,3.919v0.146
			c-0.061,0.117-0.178,0.266-0.326,0.238c-1.68-1.3-3.361-2.685-5.514-2.948c-2.174-0.397-4.127,0.735-6.396-0.179
			c-2.734-0.9-3.883-2.585-5.041-5.279h-0.236c-0.176,0.03-0.293,0.209-0.324,0.386l0.295,1.829c0.355,1.473,0.828,3.213,2.42,3.891
			c1.236,0.737,2.443,1.798,3.979,1.385c2.684-0.59,5.395,0.177,7.457,1.682c0.68,0.383,1.209,1.091,1.947,1.355
			c0.795,0.322,1.768,0.146,2.418-0.386c1.504-0.498,1.855,1.388,2.889,2.065c0.914,0.885,2.738,0.518,3.947,0.518l-0.027-0.133
			C184.988,116.795,184.662,115.852,184.191,114.792 M121.383,109.153l-0.02,0.037c-0.191,0.137-0.43,0.192-0.762,0.177
			l-0.564-0.064l-0.188-0.028l-0.039-0.013c-0.566-0.314-0.703-0.957-0.768-1.603c0-0.218,0.072-0.388,0.223-0.505
			c0,0,0.016-0.014,0.029-0.025h0.041c0.775,0,1.361,0.232,1.738,0.69l0.02,0.032l0.117,0.229l0.174,0.365l0.07-0.026
			c-0.035,0.014-0.07,0.026-0.07,0.026c0.053,0.137,0.078,0.261,0.078,0.377C121.463,108.939,121.438,109.047,121.383,109.153
			 M122.059,98.947l-0.08,0.284c-0.068,0.094-0.154,0.207-0.264,0.275c-0.094,0.055-0.236,0.1-0.391,0.002
			c-0.158-0.062-0.279-0.159-0.385-0.301c-0.002,0-0.125-0.191-0.125-0.191l-0.109-0.188c-0.131-0.227-0.258-0.399-0.564-0.375
			c-0.275-0.014-0.475,0.097-0.65,0.219l-0.193,0.143l-0.107,0.083c-0.002,0-0.311,0.208-0.311,0.208
			c-0.014,0.009-0.424,0.36-0.424,0.36l-0.182,0.155l-0.594,0.55c-0.43,0.448-0.662,0.856-0.738,1.282c0,0.001-0.08,0.31-0.08,0.31
			l-0.023,0.133l-0.037,0.189c-0.041,0.205-0.115,0.435-0.324,0.564c-0.141,0.041-0.314,0.014-0.449-0.084
			c-0.107-0.079-0.168-0.191-0.168-0.308c-0.121-1.423,0.379-2.752,1.369-3.654c0.5-0.412,0.924-0.908,1.273-1.34l0.387-0.491
			l0.773-0.958l0.088-0.046c0.561-0.108,0.912,0.393,1.037,0.613c0.486,0.629,0.883,1.338,1.25,2.239
			c0.021,0.063,0.031,0.13,0.031,0.2C122.068,98.863,122.066,98.906,122.059,98.947 M134.086,82.184l-0.127,0.249l-0.137,0.221
			c-0.002-0.001-0.932,0.863-0.932,0.863l-0.994,0.93c-0.746,0.725-1.271,1.338-1.648,1.93c-0.316,0.435-0.557,0.94-0.787,1.428
			c-0.072,0.146-0.25,0.149-0.346,0.117c0,0-0.027-0.009-0.055-0.018c-0.008-0.025-0.018-0.054-0.018-0.054
			c-0.064-0.188-0.094-0.385-0.094-0.601c0-0.164,0.018-0.341,0.053-0.529c0-0.001,0.184-0.737,0.184-0.737l0.094-0.332
			c0.564-1.503,1.828-3.074,3.465-4.301c0.211-0.133,0.602-0.229,0.9-0.136c0.18,0.056,0.309,0.175,0.383,0.352
			c0.074,0.121,0.107,0.24,0.107,0.362c0,0.083-0.016,0.167-0.047,0.255l0.068,0.024L134.086,82.184"/>
		<path fill="#E50B2C" d="M188.201,116.326c-0.148-0.68,0.029-1.623-0.414-2.242c-0.383-0.295-0.736-0.736-1.236-0.619
			c-0.414,0.355-1.033,0.765-0.943,1.386c0.352,1.061,0.59,1.826,0.795,2.917c0.119,0.207,0,0.62,0.326,0.62l1.885-0.62
			C188.938,117.239,188.318,116.826,188.201,116.326"/>
		<path fill="#E50B2C" d="M183.426,110.193c-0.59-0.503-1.209,0.234-1.504,0.679c0.207,0.706,0.795,1.296,1.238,1.945
			c0.236,0.354,0.617,0.588,1.031,0.618c0.412,0,0.738-0.205,1.031-0.441c0.207-0.268,0.443-0.592,0.355-0.973
			C185.018,111.255,184.133,110.779,183.426,110.193"/>
	</g>
</g>
<g id="Content">
</g>
</svg>
