<?xml version="1.0" encoding="utf-8"?>
<!-- Generator: Adobe Illustrator 14.0.0, SVG Export Plug-In . SVG Version: 6.00 Build 43363)  -->
<!DOCTYPE svg PUBLIC "-//W3C//DTD SVG 1.1//EN" "http://www.w3.org/Graphics/SVG/1.1/DTD/svg11.dtd">
<svg version="1.1" id="Layer_1" xmlns="http://www.w3.org/2000/svg" xmlns:xlink="http://www.w3.org/1999/xlink" x="0px" y="0px"
	 width="200px" height="200px" viewBox="0 0 200 200" enable-background="new 0 0 200 200" xml:space="preserve">
<g id="Background">
	<path fill="#041E42" d="M10,99.997C10,149.628,50.376,190,100,190c49.628,0,90-40.372,90-90.003C190,50.373,149.628,10,100,10
		C50.376,10,10,50.373,10,99.997"/>
	<path fill="#FE5000" d="M13.687,100.001c0,47.599,38.716,86.312,86.314,86.312c47.595,0,86.312-38.713,86.312-86.312
		c0-47.592-38.717-86.314-86.312-86.314C52.403,13.687,13.687,52.41,13.687,100.001"/>
	<path fill="#041E42" d="M15.562,100.001c0-46.563,37.88-84.44,84.44-84.44c46.561,0,84.439,37.877,84.439,84.44
		c0,46.556-37.879,84.437-84.439,84.437C53.442,184.438,15.562,146.559,15.562,100.001"/>
	<path fill="#6CACE4" d="M180.631,99.999c0,44.53-36.099,80.632-80.632,80.632c-44.527,0-80.629-36.104-80.629-80.632
		c0-44.533,36.102-80.629,80.629-80.629C144.532,19.369,180.631,55.465,180.631,99.999"/>
	<path fill="#041E42" d="M37.11,100.001c0,34.739,28.159,62.89,62.895,62.89c34.729,0,62.886-28.149,62.886-62.89
		c0-34.732-28.156-62.892-62.886-62.892C65.269,37.11,37.11,65.269,37.11,100.001"/>
	<path fill="#FFFFFF" d="M41.007,99.999c0,32.526,26.466,58.995,58.996,58.995c32.522,0,58.99-26.469,58.99-58.995
		c0-32.533-26.468-58.991-58.99-58.991C67.473,41.007,41.007,67.466,41.007,99.999"/>
	<path fill="#041E42" d="M43.195,100.001c0-31.321,25.485-56.806,56.813-56.806c31.321,0,56.797,25.485,56.797,56.806
		c0,31.322-25.477,56.804-56.797,56.804C68.681,156.805,43.195,131.323,43.195,100.001"/>
	<polygon fill="#041E42" points="23.791,98.881 25.553,104.311 31.264,104.311 33.026,98.881 28.405,95.53 	"/>
	<polygon fill="#041E42" points="176.21,98.881 174.447,104.311 168.736,104.311 166.975,98.881 171.596,95.53 	"/>
	<polygon fill="#041E42" points="46.826,45.025 51.125,49.215 43.642,48.295 42.256,49.71 49.231,56.515 50.713,55.006 
		46.276,50.671 54.01,51.62 55.28,50.318 48.305,43.51 	"/>
	<polygon fill="#041E42" points="50.894,41.311 56.797,49.061 62.702,44.556 61.538,43.047 57.338,46.247 56.097,44.617 
		59.746,41.832 58.592,40.32 54.939,43.102 53.746,41.536 57.894,38.378 56.736,36.857 	"/>
	<polygon fill="#041E42" points="69.802,29.567 71.011,36.362 66.055,31.458 64.422,32.294 65.489,39.182 60.692,34.23 
		58.646,35.278 66.068,42.491 67.728,41.642 66.792,34.97 71.647,39.645 73.307,38.793 71.802,28.551 	"/>
	<polygon fill="#041E42" points="85.233,24.94 83.799,29.278 80.661,25.988 78.22,26.542 83.182,31.465 84.041,35.205 
		86.131,34.731 85.263,30.94 87.613,24.396 	"/>
	<path fill="#041E42" d="M91.343,28.882l-0.003-0.026c-0.135-1.666,0.955-3.119,2.669-3.257c1.724-0.132,3.052,1.154,3.187,2.82
		v0.026c0.135,1.659-0.952,3.116-2.679,3.257c-0.08,0.009-0.164,0.013-0.248,0.013C92.678,31.712,91.466,30.471,91.343,28.882
		 M93.88,23.628c-2.997,0.241-4.994,2.672-4.772,5.435v0.029c0.222,2.756,2.544,4.82,5.541,4.585
		c2.997-0.238,4.994-2.679,4.782-5.435l-0.006-0.029c-0.212-2.618-2.309-4.605-5.081-4.605
		C94.192,23.608,94.038,23.615,93.88,23.628"/>
	<path fill="#041E42" d="M106.025,28.535l-2.16-0.164l0.216-2.785l2.119,0.164c1.041,0.08,1.64,0.598,1.571,1.508l-0.002,0.029
		c-0.064,0.762-0.611,1.257-1.531,1.257C106.171,28.545,106.098,28.542,106.025,28.535 M101.341,33.198l2.14,0.164l0.236-3.103
		l1.653,0.128h0.024l1.836,3.267l2.5,0.193l-2.104-3.653c1.269-0.36,2.188-1.28,2.313-2.849v-0.029
		c0.066-0.91-0.159-1.691-0.658-2.277c-0.59-0.688-1.521-1.116-2.758-1.203l-4.438-0.344L101.341,33.198"/>
	<polygon fill="#041E42" points="111.007,34.082 113.094,34.552 113.75,31.648 115.113,30.754 117.133,35.471 119.646,36.041 
		116.844,29.647 121.622,26.497 119.098,25.93 114.307,29.204 115.248,25.056 113.154,24.58 	"/>
	<path fill="#041E42" d="M126.137,33.198l-0.013,0.021c-1.181,2.543-0.181,5.447,2.425,6.653c1.701,0.788,2.99,0.653,4.352,0.103
		l-0.651-1.823c-0.991,0.305-1.795,0.421-2.81-0.039c-1.512-0.707-1.978-2.457-1.271-3.974l0.013-0.023
		c0.701-1.514,2.354-2.257,3.838-1.569c0.883,0.418,1.408,1.119,1.797,2.055l1.904-0.858c-0.445-1.19-1.188-2.203-2.854-2.975
		c-0.749-0.348-1.508-0.508-2.241-0.508C128.71,30.262,126.982,31.378,126.137,33.198"/>
	<polygon fill="#041E42" points="133.588,42.343 135.414,43.456 140.463,35.118 138.627,34.018 	"/>
	<polygon fill="#041E42" points="141.488,38.018 143.857,39.8 139.195,46.006 140.902,47.289 145.572,41.089 147.939,42.867 
		149.129,41.292 142.678,36.439 	"/>
	<polygon fill="#041E42" points="148.941,49.18 146.23,51.907 147.753,53.418 150.492,50.662 157.277,49.135 155.548,47.417 
		151.116,48.53 152.216,44.115 150.439,42.35 	"/>
	<polygon fill="#041E42" points="42.289,150.238 43.465,151.477 46.337,148.746 49.723,152.311 50.855,151.241 47.475,147.676 
		49.395,145.846 53.212,149.857 54.344,148.791 49.353,143.529 	"/>
	<path fill="#041E42" d="M53.929,159.232c-1.527-1.189-1.646-3.28-0.486-4.771l0.016-0.02c1.167-1.496,3.177-1.896,4.702-0.698
		c1.53,1.19,1.649,3.272,0.485,4.766l-0.016,0.022c-0.694,0.896-1.701,1.396-2.72,1.396
		C55.229,159.927,54.54,159.709,53.929,159.232 M52.029,153.357l-0.016,0.016c-1.688,2.168-1.434,5.242,0.929,7.075
		c2.363,1.842,5.441,1.338,7.123-0.83l0.016-0.022c1.688-2.166,1.431-5.238-0.929-7.08c-0.987-0.763-2.097-1.123-3.174-1.123
		C54.463,151.393,53.009,152.094,52.029,153.357"/>
	<path fill="#041E42" d="M64.618,166.188c-1.705-0.904-2.174-2.943-1.28-4.619l0.013-0.021c0.891-1.669,2.813-2.39,4.524-1.479
		c1.698,0.916,2.17,2.953,1.273,4.621l-0.013,0.021c-0.624,1.174-1.759,1.878-2.968,1.878
		C65.657,166.587,65.129,166.458,64.618,166.188 M61.756,160.723l-0.013,0.024c-1.299,2.415-0.531,5.399,2.109,6.817
		c2.637,1.408,5.589,0.389,6.882-2.032l0.016-0.022c1.29-2.419,0.527-5.398-2.113-6.813c-0.817-0.439-1.666-0.645-2.489-0.645
		C64.329,158.052,62.65,159.057,61.756,160.723"/>
	<polygon fill="#041E42" points="72.979,162.855 75.883,163.911 73.098,171.584 74.718,172.162 77.506,164.5 80.407,165.555 
		80.947,164.061 73.513,161.364 	"/>
	<path fill="#041E42" d="M85.095,173.445l-2.778-0.596l0.56-2.613l2.653,0.563c1.322,0.287,1.862,0.891,1.688,1.698l-0.01,0.028
		c-0.142,0.67-0.646,0.996-1.405,0.996C85.584,173.521,85.35,173.497,85.095,173.445 M85.465,169.311l-2.287-0.487l0.537-2.524
		l2.402,0.514c1.078,0.226,1.583,0.811,1.421,1.564l-0.006,0.021c-0.145,0.676-0.659,0.99-1.379,0.99
		C85.938,169.389,85.706,169.361,85.465,169.311 M80.355,173.986l4.412,0.936c2.122,0.45,3.72-0.161,4.081-1.865l0.006-0.021
		c0.276-1.304-0.363-2.104-1.399-2.716c0.785-0.226,1.566-0.693,1.811-1.831l0.003-0.032c0.135-0.645,0.029-1.202-0.302-1.717
		c-0.431-0.656-1.222-1.145-2.313-1.367l-4.277-0.906L80.355,173.986"/>
	<path fill="#041E42" d="M94.086,172.355l1.891-3.795l1.457,3.983L94.086,172.355z M90.485,176.021l1.749,0.1l1.139-2.293
		l4.595,0.275l0.855,2.396l1.804,0.104l-3.714-10.039l-1.583-0.095L90.485,176.021"/>
	<polygon fill="#041E42" points="102.518,166.723 103.313,176.438 110.126,175.87 110.001,174.311 104.896,174.738 104.223,166.584 
			"/>
	<polygon fill="#041E42" points="110.82,165.904 112.816,175.434 119.506,174.031 119.186,172.5 114.175,173.559 112.496,165.559 	
		"/>
	<path fill="#041E42" d="M127.086,160.799c-2.708,1.17-3.711,4.077-2.602,6.624l0.009,0.021c1.112,2.561,3.934,3.748,6.538,2.623
		c1.669-0.721,2.431-1.776,2.936-3.146l-1.449-0.589c-0.453,1.049-0.965,1.798-2.063,2.272c-1.707,0.742-3.569-0.146-4.328-1.902
		l-0.007-0.021c-0.766-1.752-0.128-3.688,1.583-4.438c1.021-0.44,1.979-0.324,2.981,0.025l0.506-1.597
		c-0.606-0.222-1.229-0.37-1.899-0.37C128.622,160.303,127.904,160.448,127.086,160.799"/>
	<polygon fill="#041E42" points="131.982,158.631 137.035,166.956 142.871,163.416 142.066,162.081 137.688,164.73 133.443,157.74 	
		"/>
	<path fill="#041E42" d="M143.836,150.335l3.523,4.37c1.133,1.396,0.982,2.693-0.192,3.646c-1.192,0.957-2.526,0.782-3.665-0.617
		l-3.479-4.303l-1.338,1.072l3.525,4.354c1.771,2.199,3.952,2.322,5.92,0.728c1.98-1.603,2.342-3.767,0.51-6.028l-3.468-4.297
		L143.836,150.335"/>
	<path fill="#041E42" d="M151.837,150.38l1.839-2.003c0.913-0.991,1.707-1.146,2.315-0.589l0.013,0.022
		c0.648,0.592,0.508,1.424-0.283,2.284l-1.916,2.091L151.837,150.38 M148.865,147.652l1.658-1.813
		c0.75-0.813,1.513-0.94,2.074-0.424l0.021,0.017c0.648,0.603,0.477,1.439-0.271,2.248l-1.58,1.728L148.865,147.652 M151.92,143.354
		c-0.788,0.035-1.604,0.478-2.354,1.293l-2.959,3.221l7.178,6.586l3.049-3.322c1.466-1.598,1.749-3.286,0.463-4.46l-0.018-0.021
		c-0.973-0.895-1.989-0.75-3.051-0.17c0.213-0.791,0.203-1.701-0.656-2.491l-0.021-0.022c-0.457-0.418-0.972-0.613-1.536-0.613
		C151.984,143.352,151.952,143.354,151.92,143.354"/>
	<polygon fill="#FFFFFF" points="75.072,82.726 75.072,87.559 78.809,87.559 78.809,115.65 74.985,115.65 74.985,120.451 
		87.742,120.451 87.742,115.65 83.822,115.65 83.822,88.446 117.59,120.365 117.691,120.471 121.841,120.445 121.841,87.559 
		125.706,87.559 125.706,82.761 112.952,82.761 112.952,87.559 116.82,87.559 116.82,113.011 84.905,82.726 	"/>
	<polygon fill="#FFFFFF" points="97.225,144.704 93.327,144.704 93.327,149.868 106.477,149.868 106.477,144.704 102.383,144.704 
		102.383,107.889 97.225,103.014 	"/>
	<path fill="#FFFFFF" d="M65.146,57.367v5.087h4.032l9.911,9.583l18.246,17.435v3.116l5.084,4.997v-8.489l17.04-16.288
		c-1.447-0.994-2.968-1.884-4.563-2.666l-15.21,14.535L83.603,69.319l-7.068-6.865h2.45v-5.087H65.146"/>
	<path fill="#FFFFFF" d="M120.2,57.203v5.267h2.604l-1.949,1.897c1.53,0.852,3,1.807,4.398,2.855l4.903-4.753h3.927v-5.267
		L120.2,57.203"/>
	<path fill="#FFFFFF" d="M133.068,88.928h5.44V73.451h-5.157v4.5C126.176,67.172,113.921,60.064,100,60.064
		c-6.87,0-13.335,1.731-18.986,4.779l3.909,3.787c4.646-2.229,9.771-3.407,15.077-3.407c9.32,0,18.083,3.629,24.674,10.22
		C128.532,79.301,131.373,83.905,133.068,88.928z"/>
	<path fill="#FFFFFF" d="M65.107,100.116c0-9.32,3.629-18.083,10.22-24.673c0.867-0.867,1.772-1.681,2.71-2.444l-3.735-3.602
		c-8.773,7.347-14.354,18.38-14.354,30.718c0,20.675,15.666,37.689,35.774,39.824v-5.188c-7.701-0.937-14.825-4.392-20.396-9.962
		C68.736,118.198,65.107,109.438,65.107,100.116z"/>
	<path fill="#FFFFFF" d="M133.365,110.383c-1.648,5.383-4.6,10.313-8.691,14.406c-5.662,5.661-12.927,9.136-20.771,10.003v5.187
		c16.826-1.629,30.604-13.666,34.818-29.596H133.365z"/>
</g>
<g id="Content">
</g>
</svg>
