<?xml version="1.0" encoding="utf-8"?>
<!-- Generator: Adobe Illustrator 14.0.0, SVG Export Plug-In . SVG Version: 6.00 Build 43363)  -->
<!DOCTYPE svg PUBLIC "-//W3C//DTD SVG 1.1//EN" "http://www.w3.org/Graphics/SVG/1.1/DTD/svg11.dtd">
<svg version="1.1" id="Layer_1" xmlns="http://www.w3.org/2000/svg" xmlns:xlink="http://www.w3.org/1999/xlink" x="0px" y="0px"
	 width="200px" height="200px" viewBox="0 0 200 200" enable-background="new 0 0 200 200" xml:space="preserve">
<g id="Background">
	<path fill="#FFFFFF" d="M169.844,24.014c0,0-27.664-14.014-69.844-14.014c-42.18,0-69.844,14.014-69.844,14.014
		S-16.634,142.525,100,190C216.635,142.525,169.844,24.014,169.844,24.014"/>
	<path fill="#5F259F" d="M100,189.07c-26.27-10.752-46.249-26.053-59.385-45.485c-10.548-15.604-16.743-33.903-18.412-54.391
		c-2.693-33.049,7.421-61.309,8.637-64.556C33.924,23.162,60.826,10.86,100,10.86s66.076,12.302,69.16,13.778
		c1.215,3.247,11.328,31.507,8.638,64.556c-1.67,20.488-7.864,38.787-18.413,54.391C146.248,163.018,126.27,178.318,100,189.07"/>
	<path fill="#FFFFFF" d="M100,184.943c-24.849-10.424-43.761-25.053-56.227-43.494c-10.177-15.053-16.156-32.738-17.771-52.564
		c-2.386-29.287,5.544-54.72,7.883-61.451c6.461-2.867,31.29-12.762,66.115-12.762c34.824,0,59.654,9.896,66.115,12.762
		c2.339,6.73,10.269,32.164,7.883,61.451c-1.615,19.826-7.594,37.512-17.771,52.564C143.762,159.893,124.85,174.52,100,184.943"/>
	<path fill="#5F259F" d="M100,180.805c-23.426-10.089-41.275-24.041-53.07-41.488c-9.805-14.504-15.568-31.574-17.13-50.739
		c-2.162-26.533,4.342-49.774,7.152-58.313c8.263-3.472,31.369-11.78,63.048-11.78c31.68,0,54.785,8.307,63.047,11.779
		c2.811,8.539,9.314,31.78,7.152,58.313c-1.563,19.165-7.325,36.234-17.131,50.738C141.273,156.764,123.425,170.716,100,180.805"/>
	<path fill="#FFFFFF" d="M66.761,135.993c-0.569-0.556-1.242-0.997-1.999-1.313c-0.76-0.315-1.584-0.478-2.451-0.478
		s-1.691,0.159-2.452,0.478c-0.756,0.316-1.429,0.758-1.998,1.313c-0.569,0.557-1.021,1.214-1.344,1.952
		c-0.325,0.742-0.489,1.548-0.489,2.396c0,0.849,0.165,1.653,0.489,2.396c0.323,0.738,0.775,1.396,1.344,1.953
		c0.569,0.557,1.241,0.998,1.998,1.313c0.76,0.315,1.584,0.478,2.452,0.478c0.867,0,1.692-0.16,2.451-0.478
		c0.757-0.315,1.429-0.759,1.999-1.313c0.568-0.557,1.021-1.213,1.344-1.953c0.325-0.741,0.489-1.549,0.489-2.396
		c0-0.848-0.164-1.653-0.489-2.396C67.781,137.206,67.329,136.548,66.761,135.993 M66.531,140.342c0,0.59-0.109,1.147-0.325,1.656
		c-0.215,0.509-0.518,0.955-0.899,1.325c-0.382,0.372-0.836,0.672-1.35,0.887c-1.02,0.429-2.271,0.429-3.291,0
		c-0.514-0.216-0.968-0.515-1.351-0.887c-0.381-0.37-0.683-0.816-0.898-1.325c-0.216-0.509-0.325-1.064-0.325-1.656
		c0-0.591,0.109-1.148,0.325-1.656c0.215-0.509,0.517-0.955,0.898-1.326c0.383-0.373,0.836-0.67,1.35-0.885
		c0.51-0.215,1.064-0.324,1.646-0.324c0.581,0,1.135,0.109,1.646,0.324c0.512,0.215,0.966,0.512,1.35,0.885
		c0.381,0.371,0.684,0.817,0.899,1.326C66.421,139.193,66.531,139.751,66.531,140.342z"/>
	<polyline fill="#FFFFFF" points="92.622,144.48 86.509,144.48 86.509,134.338 84.445,134.338 84.445,146.346 91.618,146.346 
		92.622,144.48 	"/>
	<polyline fill="#FFFFFF" points="108.971,139.008 116.91,146.693 116.91,134.771 114.637,134.771 114.637,141.634 107.031,133.947 
		107.031,142.206 108.971,145.869 108.971,139.008 	"/>
	<path fill="#FFFFFF" d="M127.716,136.061c-0.552-0.533-1.213-0.957-1.966-1.263c-0.752-0.306-1.573-0.46-2.439-0.46h-4.065v12.008
		h4.065c0.866,0,1.688-0.154,2.439-0.46c0.753-0.306,1.414-0.729,1.966-1.263s0.992-1.174,1.312-1.902
		c0.318-0.729,0.48-1.531,0.48-2.379c0-0.849-0.162-1.648-0.48-2.379C128.708,137.234,128.268,136.594,127.716,136.061
		 M121.309,136.201h1.799c0.596,0,1.16,0.105,1.685,0.316c0.522,0.213,0.988,0.506,1.383,0.877c0.394,0.366,0.704,0.81,0.933,1.313
		c0.225,0.503,0.34,1.053,0.34,1.632c0,0.592-0.114,1.143-0.34,1.641c-0.228,0.5-0.539,0.938-0.933,1.309
		c-0.395,0.369-0.858,0.663-1.383,0.875c-0.521,0.21-1.088,0.316-1.685,0.316h-1.799V136.201z"/>
	<path fill="#FFFFFF" d="M143.482,137.945c-0.324-0.739-0.777-1.397-1.347-1.952c-0.567-0.556-1.239-0.997-1.997-1.313
		c-0.761-0.315-1.584-0.478-2.451-0.478s-1.69,0.159-2.451,0.478c-0.758,0.316-1.43,0.758-1.998,1.313
		c-0.568,0.557-1.021,1.214-1.346,1.952c-0.324,0.742-0.488,1.548-0.488,2.396c0,0.849,0.164,1.653,0.488,2.396
		c0.322,0.738,0.774,1.396,1.346,1.953c0.568,0.557,1.24,0.998,1.998,1.313c0.76,0.315,1.584,0.478,2.451,0.478
		s1.691-0.16,2.451-0.478c0.758-0.315,1.43-0.759,1.997-1.313c0.568-0.557,1.021-1.213,1.347-1.953
		c0.324-0.741,0.487-1.549,0.487-2.396C143.973,139.494,143.807,138.688,143.482,137.945 M141.907,140.342
		c0,0.59-0.109,1.147-0.324,1.656c-0.216,0.509-0.519,0.955-0.899,1.325c-0.383,0.372-0.836,0.672-1.35,0.887
		c-1.021,0.429-2.271,0.429-3.292,0c-0.515-0.216-0.968-0.515-1.351-0.887c-0.381-0.37-0.685-0.816-0.897-1.325
		c-0.216-0.509-0.325-1.064-0.325-1.656c0-0.591,0.109-1.148,0.325-1.656c0.215-0.509,0.519-0.955,0.897-1.326
		c0.384-0.373,0.838-0.67,1.351-0.885c0.511-0.215,1.063-0.324,1.646-0.324c0.584,0,1.136,0.109,1.646,0.324
		c0.514,0.215,0.967,0.512,1.35,0.885c0.381,0.371,0.686,0.817,0.899,1.326C141.798,139.193,141.907,139.751,141.907,140.342z"/>
	<rect x="94.308" y="149.926" fill="#FFFFFF" width="2.064" height="12.008"/>
	<path fill="#FFFFFF" d="M117.84,149.926l-3.208,4.574l-3.209-4.574h-2.438c0.066,0.137,4.615,6.734,4.615,6.734v5.271h2.063v-5.271
		l4.657-6.734H117.84"/>
	<polyline fill="#FFFFFF" points="106.988,149.926 98.964,149.926 98.964,151.789 102.297,151.789 102.297,161.934 104.359,161.934 
		104.359,151.789 108.223,151.789 106.988,149.926 	"/>
	<polyline fill="#FFFFFF" points="100.584,133.516 94.477,146.346 96.752,146.346 100.584,138.188 101.824,140.816 100.584,140.816 
		99.72,142.68 102.707,142.68 104.417,146.346 106.691,146.346 100.584,133.516 	"/>
	<path fill="#FFFFFF" d="M91.325,158.391c-0.158,0.239-0.337,0.461-0.541,0.657c-0.382,0.373-0.836,0.671-1.35,0.886
		c-1.02,0.431-2.272,0.431-3.291,0c-0.514-0.215-0.968-0.514-1.35-0.886c-0.381-0.37-0.684-0.815-0.899-1.325
		c-0.216-0.509-0.325-1.064-0.325-1.656c0-0.59,0.109-1.146,0.325-1.655c0.215-0.509,0.518-0.954,0.899-1.325
		c0.383-0.373,0.836-0.671,1.35-0.887c0.51-0.215,1.064-0.322,1.646-0.322s1.135,0.107,1.646,0.322
		c0.513,0.216,0.966,0.514,1.349,0.887c0.204,0.197,0.383,0.419,0.541,0.657v-2.761c-0.338-0.225-0.7-0.418-1.084-0.576
		c-0.76-0.317-1.585-0.479-2.452-0.479s-1.691,0.161-2.451,0.479c-0.757,0.314-1.43,0.758-1.998,1.313
		c-0.569,0.559-1.022,1.215-1.345,1.952c-0.325,0.742-0.489,1.548-0.489,2.396c0,0.849,0.165,1.654,0.489,2.396
		c0.323,0.738,0.775,1.396,1.345,1.952c0.568,0.558,1.241,0.998,1.998,1.313c0.759,0.316,1.584,0.479,2.452,0.479
		s1.692-0.161,2.452-0.479c0.384-0.158,0.746-0.354,1.084-0.576L91.325,158.391"/>
	<path fill="#FFFFFF" d="M78.243,141.76c1.281-0.724,1.908-1.96,1.908-3.359c0-2.242-1.462-4.063-4.182-4.063
		c-0.07,0-4.357,0-4.357,0v12.008h2.063v-10.009h1.795c0.07,0,0.323,0,0.383,0c1.139,0,2.063,0.923,2.063,2.063
		c0,1.139-0.923,2.063-2.063,2.063c-0.057,0-0.309,0-0.383,0h-1.2l4.867,5.883h2.777L78.243,141.76"/>
	<path fill="#EED484" d="M100,96.508c0,0-9.46,0.381-10.815,3.453c-0.249,0.563,0,4.586,0,4.586s0.797,0.168,1.423-0.268
		c0,0-0.1,1.781,1.196,2.68c1.294,0.896,3.33,2.159,3.373,2.159c0.042,0,1.238-0.897,1.921-0.953
		c0.683-0.058,2.163,2.524,2.903,3.253c0.74-0.729,2.22-3.311,2.901-3.253c0.685,0.056,1.88,0.953,1.923,0.953
		s2.077-1.263,3.372-2.159c1.296-0.898,1.195-2.68,1.195-2.68c0.627,0.436,1.424,0.268,1.424,0.268s0.248-4.023,0-4.586
		C109.46,96.889,100,96.508,100,96.508"/>
	<path fill="#EED484" d="M138.922,80.146c13.271-0.717,12.833-8.519,12.833-8.519c-7.774,3.405-10.394-2.397-13.575-3.044
		c10.967-3.768,9.338-12.03,9.338-12.03c-4.266,5.514-10.707,0.629-13.844,1.104c8.823-5.863,5.432-14.142,5.432-14.142
		c-1.653,6.211-12.51,4.371-12.51,4.371c6.006-8.864,0.656-14.889,0.656-14.889c0.449,6.54-10.952,8.229-10.952,8.229
		c2.958-11.585-3.675-14.508-3.675-14.508c1.313,5.51-6.355,9.87-6.355,9.87L100,24.362l-6.269,12.224c0,0-7.67-4.36-6.357-9.87
		c0,0-6.632,2.923-3.674,14.508c0,0-11.402-1.688-10.952-8.229c0,0-5.35,6.025,0.656,14.889c0,0-10.854,1.841-12.509-4.371
		c0,0-3.393,8.279,5.431,14.142c-3.135-0.475-9.578,4.41-13.843-1.104c0,0-1.628,8.262,9.338,12.03
		c-3.182,0.646-5.801,6.449-13.576,3.044c0,0-0.437,7.802,12.833,8.519c-4.755,2.794-3.734,8.282-12.453,7.354
		c0,0,2.858,7.154,14.612,4.07c-3.607,3.792-1.738,8.712-9.863,10.247c0,0,5.299,6.457,15.482-0.146
		c-1.901,3.554,0.769,8.913-6.37,12.459c0,0,7.385,4.308,15.152-4.911c-0.345,5.559,3.054,9.733-2.365,14.496
		c0,0,8.162,2.225,12.947-9.209c0.843,4.814,5.473,6.792,1.79,14.398c0,0,6.1,0.472,9.989-9.495c3.89,9.967,9.987,9.495,9.987,9.495
		c-3.685-7.606,0.947-9.584,1.791-14.398c4.785,11.434,12.947,9.209,12.947,9.209c-5.42-4.763-2.021-8.938-2.365-14.496
		c7.767,9.219,15.149,4.911,15.149,4.911c-7.138-3.546-4.468-8.905-6.368-12.459c10.185,6.604,15.481,0.146,15.481,0.146
		c-8.125-1.534-6.256-6.455-9.863-10.247c11.755,3.083,14.612-4.07,14.612-4.07C142.656,88.428,143.677,82.939,138.922,80.146
		 M82.126,47.917c5.294,0,4.838-4.095,4.269-5.049c0,0,4.412,0.196,8.112,2.917c0,0,4.412-5.049,5.493-9.088
		c1.082,4.04,5.493,9.088,5.493,9.088c3.698-2.721,8.11-2.917,8.11-2.917c-0.568,0.954-1.023,5.049,4.271,5.049
		c5.293,0,6.403,1.739,6.403,1.739c-1.537-0.308-3.699-0.617-9.422,1.319c-5.722,1.935-4.467-3.058-4.467-3.058
		C102.275,48.506,100,53.034,100,53.034s-2.277-4.528-10.389-5.118c0,0,1.252,4.993-4.468,3.058
		c-5.721-1.936-7.884-1.626-9.421-1.319C75.722,49.655,76.833,47.917,82.126,47.917z M103.387,85.888
		c-2.22,1.347-3.387,3.261-3.387,3.261s-1.167-1.914-3.387-3.261c0,0,0.256-1.578-0.299-1.683s-2.177-0.042-2.177-0.042
		s-2.583-1.052-3.031-3.156c0,0,1.409,0.4,3.288-0.189c1.878-0.589,2.647,0.084,3.244,0.336c0.598,0.253,1.224,0.337,2.363,0.337
		c1.14,0,1.765-0.084,2.362-0.337c0.598-0.252,1.365-0.925,3.244-0.336c1.879,0.589,3.287,0.189,3.287,0.189
		c-0.449,2.104-3.03,3.156-3.03,3.156s-1.623-0.063-2.179,0.042C103.131,84.31,103.387,85.888,103.387,85.888z M91.291,69.346
		c-2.76-0.056-9.791-0.561-10.046-5.947v-0.14c0,0,3.894-0.616,5.379,0c2.704,1.122,5.038,6.255,9.42,2.412
		c0,0-2.931,6.48-4.753,9.706C91.291,75.377,94.051,69.402,91.291,69.346z M108.709,69.346c-2.761,0.056,0,6.031,0,6.031
		c-1.82-3.226-4.753-9.706-4.753-9.706c4.383,3.843,6.717-1.29,9.421-2.412c1.484-0.616,5.379,0,5.379,0v0.14
		C118.499,68.785,111.471,69.29,108.709,69.346z M129.6,86.372c-7.938-1.556-11.101,2.062-11.101,2.062
		c5.166,0.715,7.379,6.794,7.379,6.794c-3.785-2.314-7.976-1.788-7.976-1.788c5.123,12.896-11.935,15.882-17.902,22.972
		c-5.97-7.09-23.025-10.076-17.902-22.972c0,0-4.191-0.526-7.977,1.788c0,0,2.213-6.08,7.378-6.794c0,0-3.159-3.618-11.1-2.062
		c0,0,4.141-4.88,9.307-3.955c0,0-2.647-4.585-10.289-5.048c0,0,1.238-1.641,5.763-1.978c0,0-3.444-3.913-1.878-11.094
		c0,0-2.675-2.103-1.708-8.386c0,0,1.009,5.095,3.159,4.46c1.494-0.442,0.811-2.307-0.363-2.167c0,0,0.341-1.388,2.54-2.293
		c2.199-0.904,2.775-0.988,2.689-2.735c0,0,1.558-0.652,2.113,0.842s-0.96,2.208-1.729,2.356c-0.768,0.147-1.836,0.463-2.305,1.346
		c0,0,1.622,0.547,0.341,1.979c-1.281,1.43-5.934,12.159,4.995,19.606c0,0-0.256,3.45,3.628,6.689c0,0-1.665-0.154-1.957-0.084
		c-0.292,0.07-0.392,3.212,0,3.324s6.482,0,6.482,0s-6.133,1.851-6.373,2.068c-0.24,0.217,0.069,1.858,0.269,1.886
		c0.199,0.028,5.166-1.472,7.727-1.641c0,0-5.806,2.65-6.788,3.45c0,0,0.939,2.062,2.22,2.777c0,0,8.396-3.03,11.755-5.764
		c3.358,2.734,11.755,5.764,11.755,5.764c1.28-0.715,2.221-2.777,2.221-2.777c-0.981-0.799-6.789-3.45-6.789-3.45
		c2.563,0.168,7.527,1.669,7.729,1.641c0.198-0.028,0.508-1.669,0.269-1.886c-0.238-0.217-6.373-2.068-6.373-2.068
		s6.092,0.112,6.481,0c0.392-0.112,0.292-3.254,0-3.324c-0.292-0.07-1.957,0.084-1.957,0.084c3.885-3.24,3.629-6.689,3.629-6.689
		c10.931-7.447,6.274-18.176,4.995-19.606c-1.281-1.431,0.341-1.979,0.341-1.979c-0.469-0.883-1.534-1.199-2.305-1.346
		s-2.284-0.862-1.729-2.356s2.112-0.842,2.112-0.842c-0.085,1.747,0.491,1.831,2.688,2.735c2.199,0.905,2.541,2.293,2.541,2.293
		c-1.174-0.14-1.856,1.725-0.362,2.167c2.149,0.635,3.159-4.46,3.159-4.46c0.968,6.283-1.709,8.386-1.709,8.386
		c1.564,7.181-1.877,11.094-1.877,11.094c4.523,0.337,5.763,1.978,5.763,1.978c-7.642,0.463-10.288,5.048-10.288,5.048
		C125.459,81.491,129.6,86.372,129.6,86.372z"/>
</g>
<g id="Content">
</g>
</svg>
