<?xml version="1.0" encoding="utf-8"?>
<!-- Generator: Adobe Illustrator 14.0.0, SVG Export Plug-In . SVG Version: 6.00 Build 43363)  -->
<!DOCTYPE svg PUBLIC "-//W3C//DTD SVG 1.1//EN" "http://www.w3.org/Graphics/SVG/1.1/DTD/svg11.dtd">
<svg version="1.1" id="Layer_1" xmlns="http://www.w3.org/2000/svg" xmlns:xlink="http://www.w3.org/1999/xlink" x="0px" y="0px"
	 width="200px" height="200px" viewBox="0 0 200 200" enable-background="new 0 0 200 200" xml:space="preserve">
<g id="Background">
	<path fill="#89734C" d="M100,10c-49.625,0-90,40.375-90,89.999C10,149.625,50.375,190,100,190s90-40.375,90-90.001
		C190,50.375,149.625,10,100,10"/>
	<path fill="#041C2C" d="M100,13.495c-47.698,0-86.505,38.807-86.505,86.505c0,47.701,38.807,86.504,86.505,86.504
		c47.702,0,86.504-38.804,86.504-86.504C186.505,52.302,147.702,13.495,100,13.495"/>
	<path fill="#FFFFFE" d="M100,161.656c-33.998,0-61.656-27.66-61.656-61.657S66.003,38.344,100,38.344s61.656,27.658,61.656,61.655
		S133.997,161.656,100,161.656 M100,40.782c-32.653,0-59.217,26.564-59.217,59.217c0,32.653,26.565,59.217,59.217,59.217
		c32.654,0,59.219-26.563,59.219-59.217C159.219,67.346,132.654,40.782,100,40.782z"/>
	<path fill="#89734C" d="M99.999,40.756c-32.667,0-59.243,26.577-59.243,59.244s26.576,59.245,59.243,59.245
		c32.668,0,59.245-26.578,59.245-59.245S132.667,40.756,99.999,40.756"/>
	<path fill="#418FDE" d="M58.433,90.207c-0.312-3.083-0.476-6.217-0.476-9.392c0-6.984,0.782-13.762,2.232-20.246l0.145,0.046
		l-0.145-0.25l-1.224,1.676c-1.5,6.792-2.924,15.226-2.924,22.574c0,2.062,0.068,4.104,0.192,6.13
		C56.958,90.555,57.7,90.39,58.433,90.207z"/>
	<path fill="#418FDE" d="M119.803,62.19V44.164c-6.195-2.204-12.861-3.408-19.804-3.408c-6.942,0-13.606,1.204-19.802,3.408V62.19
		c7.393-1.305,14.147-4.672,19.803-9.548C105.654,57.519,112.41,60.886,119.803,62.19z"/>
	<path fill="#418FDE" d="M142.043,80.815c0,3.175-0.164,6.309-0.477,9.392c0.731,0.183,1.476,0.348,2.199,0.539
		c0.125-2.025,0.19-4.068,0.19-6.13c0-7.348-1.424-15.782-2.924-22.574l-1.226-1.676l-0.145,0.25l0.145-0.046
		C141.262,67.053,142.043,73.831,142.043,80.815z"/>
	<path fill="#418FDE" d="M153.152,73.856h-0.773c2.955,6.881,4.605,14.457,4.605,22.424c0,24.485-15.476,45.354-37.17,53.366v-1.668
		c12.319-13.334,20.771-31.063,23.291-50.918l-2.446-0.634c-4.449,26.118-19.765,47.969-40.659,59.529
		c-20.894-11.563-36.209-33.411-40.66-59.529l-2.446,0.634c2.521,19.855,10.969,37.584,23.29,50.918v1.668
		c-21.696-8.012-37.168-28.881-37.168-53.366c0-7.967,1.649-15.543,4.605-22.424h-0.775c-3.896,7.89-6.09,16.765-6.09,26.144
		c0,32.667,26.576,59.245,59.243,59.245H100h0.001c32.667,0,59.243-26.578,59.243-59.245
		C159.244,90.621,157.05,81.746,153.152,73.856z"/>
	<path fill="#041C2C" d="M100,85.231c14.268,0,28.453,1.724,41.566,4.977c0.313-3.083,0.477-6.219,0.477-9.394
		c0-6.984-0.781-13.762-2.232-20.246c-4.145,1.445-8.547,2.226-13.112,2.226c-10.087,0-19.325-3.796-26.696-10.152
		c-7.371,6.356-16.61,10.152-26.696,10.152c-4.566,0-8.97-0.781-13.114-2.226c-1.451,6.484-2.232,13.262-2.232,20.246
		c0,3.175,0.164,6.311,0.476,9.394C71.547,86.955,85.733,85.231,100,85.231z"/>
	<path fill="#041C2C" d="M148.346,95.039c-14.891-4.443-31.604-6.814-48.346-6.814s-33.455,2.371-48.346,6.814
		c0,0-1.095,0.351-2.378,0.791l2.823,2.56c2.354-0.71,4.754-1.362,7.191-1.965c4.448,26.108,19.829,47.951,40.71,59.515
		c20.882-11.563,36.262-33.405,40.71-59.515c2.437,0.603,4.837,1.254,7.19,1.965l2.822-2.56
		C149.441,95.389,148.346,95.039,148.346,95.039z"/>
	<path fill="#89734C" d="M28.22,85.096c0.204-0.384,0.332-0.71,0.388-0.978c0.111-0.54,0.017-0.947-0.287-1.224
		c-0.3-0.277-0.899-0.504-1.797-0.689c-1.201-0.248-2.064-0.274-2.588-0.08c-0.383,0.13-0.646,0.528-0.783,1.204
		c-0.122,0.579-0.108,1.011,0.041,1.288c0.078,0.168,0.195,0.292,0.349,0.372c0.156,0.079,0.423,0.159,0.792,0.235l6.239,1.286
		c0.303,0.061,0.55,0.108,0.733,0.139c0.187,0.031,0.343,0.049,0.463,0.053c0.129,0.005,0.23,0,0.316-0.018
		c0.083-0.017,0.178-0.048,0.27-0.099c0.215-0.105,0.379-0.261,0.495-0.466c0.12-0.2,0.238-0.548,0.347-1.032l1.33,0.274
		l-1.497,7.27L31.7,92.358c0.066-0.469,0.08-0.821,0.024-1.062c-0.054-0.236-0.189-0.439-0.402-0.606
		c-0.071-0.058-0.136-0.104-0.199-0.146c-0.059-0.039-0.142-0.072-0.256-0.103c-0.113-0.032-0.247-0.066-0.412-0.106
		c-0.16-0.041-0.377-0.087-0.643-0.146l-6.083-1.248c-0.29-0.061-0.527-0.105-0.725-0.139c-0.19-0.035-0.35-0.05-0.471-0.057
		c-0.123-0.005-0.229,0.007-0.317,0.03c-0.086,0.023-0.179,0.049-0.266,0.087c-0.218,0.108-0.375,0.25-0.479,0.431
		c-0.111,0.175-0.217,0.475-0.331,0.892l-1.331-0.273l0.897-4.34c0.114-0.558,0.208-1.052,0.284-1.488
		c0.076-0.442,0.151-0.9,0.223-1.38c0.041-0.281,0.087-0.547,0.133-0.8c0.045-0.25,0.083-0.465,0.124-0.637
		c0.281-1.358,0.847-2.263,1.714-2.714c0.86-0.449,2.132-0.5,3.809-0.155c1.596,0.33,2.704,0.903,3.309,1.717
		c0.618,0.813,0.777,1.921,0.486,3.322c-0.217,1.058-0.627,1.885-1.235,2.492L28.22,85.096"/>
	<path fill="#89734C" d="M42.722,61.815c-0.235,0.393-0.431,0.666-0.586,0.813c-0.151,0.15-0.345,0.248-0.581,0.29
		c-0.103,0.025-0.198,0.032-0.289,0.025c-0.086-0.01-0.189-0.033-0.307-0.07c-0.116-0.037-0.257-0.096-0.431-0.178
		c-0.171-0.082-0.393-0.193-0.668-0.337l-5.509-2.863c-0.238-0.126-0.434-0.23-0.579-0.314c-0.146-0.083-0.267-0.154-0.368-0.213
		c-0.096-0.057-0.171-0.115-0.223-0.169c-0.042-0.055-0.095-0.121-0.148-0.197c-0.169-0.221-0.243-0.459-0.225-0.707
		c0.023-0.246,0.142-0.597,0.346-1.053l-1.203-0.624l-2.567,4.938l4.532,2.288l-1.85,3.554l-4.523-2.308l-2.507,4.828l1.201,0.629
		c0.22-0.375,0.414-0.634,0.569-0.783c0.149-0.148,0.347-0.244,0.578-0.288c0.098-0.011,0.192-0.016,0.28-0.016
		c0.092,0,0.196,0.021,0.312,0.061c0.12,0.037,0.267,0.1,0.443,0.186c0.173,0.083,0.397,0.19,0.662,0.329l5.507,2.865
		c0.243,0.124,0.432,0.229,0.577,0.311c0.146,0.084,0.27,0.153,0.367,0.216c0.101,0.057,0.169,0.116,0.219,0.17
		c0.05,0.055,0.098,0.118,0.149,0.193c0.172,0.223,0.25,0.458,0.231,0.699c-0.022,0.24-0.131,0.585-0.329,1.026l1.202,0.624
		l2.54-4.879l-5.463-2.821l1.847-3.552l5.475,2.803l2.517-4.847L42.722,61.815"/>
	<path fill="#89734C" d="M40.624,51.066c-0.228-0.192-0.42-0.35-0.569-0.474c-0.152-0.121-0.28-0.216-0.386-0.283
		c-0.099-0.059-0.202-0.105-0.285-0.129c-0.09-0.022-0.179-0.037-0.277-0.05c-0.239-0.012-0.454,0.037-0.633,0.145
		c-0.185,0.111-0.427,0.317-0.729,0.626l-1.03-0.886l4.788-5.521l1.022,0.89c-0.298,0.383-0.483,0.69-0.557,0.92
		c-0.076,0.229-0.053,0.477,0.059,0.735c0.033,0.083,0.066,0.156,0.1,0.22c0.038,0.068,0.091,0.14,0.179,0.219
		c0.077,0.08,0.181,0.177,0.304,0.292c0.122,0.116,0.286,0.262,0.49,0.44l4.693,4.066c0.231,0.206,0.424,0.364,0.574,0.481
		c0.145,0.123,0.27,0.212,0.375,0.277c0.105,0.06,0.201,0.109,0.28,0.14c0.086,0.024,0.176,0.038,0.28,0.042
		c0.245,0.014,0.456-0.037,0.639-0.147c0.184-0.106,0.429-0.318,0.734-0.625l1.018,0.89l-4.778,5.513l-1.026-0.888
		c0.296-0.382,0.483-0.688,0.56-0.918c0.069-0.23,0.054-0.476-0.063-0.736c-0.029-0.084-0.07-0.157-0.097-0.222
		c-0.037-0.065-0.092-0.138-0.176-0.218c-0.08-0.081-0.183-0.178-0.304-0.295c-0.128-0.114-0.29-0.259-0.492-0.436L40.624,51.066"/>
	<path fill="#89734C" d="M64.191,42.984l-9.189,6.966l-0.817-1.08c0.369-0.317,0.614-0.579,0.734-0.787
		c0.123-0.211,0.15-0.453,0.094-0.73c-0.015-0.092-0.036-0.168-0.057-0.24c-0.011-0.069-0.057-0.151-0.123-0.249
		c-0.064-0.092-0.144-0.208-0.238-0.348c-0.1-0.14-0.228-0.316-0.39-0.533l-3.752-4.943c-0.18-0.237-0.332-0.432-0.453-0.585
		c-0.127-0.152-0.229-0.268-0.324-0.353c-0.085-0.084-0.172-0.148-0.254-0.189c-0.08-0.042-0.167-0.075-0.259-0.105
		c-0.232-0.061-0.453-0.058-0.652,0.013c-0.203,0.066-0.481,0.221-0.843,0.459l-0.817-1.082l5.828-4.424l0.821,1.081
		c-0.37,0.314-0.617,0.578-0.74,0.792c-0.128,0.212-0.16,0.462-0.1,0.738c0.016,0.089,0.032,0.169,0.055,0.239
		c0.015,0.067,0.06,0.152,0.121,0.246c0.064,0.096,0.143,0.213,0.242,0.351c0.098,0.138,0.226,0.314,0.386,0.528l3.854,5.081
		c0.141,0.181,0.252,0.324,0.334,0.425c0.09,0.106,0.167,0.188,0.229,0.251c0.061,0.06,0.121,0.104,0.172,0.124
		c0.047,0.022,0.106,0.031,0.177,0.031c0.081,0.001,0.157-0.006,0.232-0.024c0.072-0.023,0.153-0.053,0.243-0.098
		c0.091-0.044,0.206-0.114,0.333-0.2c0.127-0.09,0.287-0.208,0.479-0.353l0.21-0.157c0.227-0.178,0.41-0.319,0.553-0.434
		c0.14-0.112,0.252-0.221,0.34-0.32c0.086-0.097,0.144-0.194,0.192-0.284c0.042-0.092,0.066-0.194,0.081-0.307
		c0.058-0.281,0.036-0.564-0.068-0.861c-0.106-0.293-0.308-0.656-0.601-1.093l1.339-1.016L64.191,42.984"/>
	<path fill="#89734C" d="M70.79,24.695c0.102,0.137,0.183,0.256,0.257,0.365c0.072,0.11,0.15,0.211,0.227,0.312
		c0.077,0.1,0.158,0.201,0.247,0.302c0.083,0.106,0.192,0.227,0.322,0.361l5.823,6.573c0.321,0.352,0.597,0.638,0.829,0.853
		c0.234,0.219,0.458,0.379,0.666,0.483c0.213,0.101,0.424,0.158,0.636,0.163c0.218,0.007,0.461-0.024,0.74-0.096l0.511,1.254
		l-6.396,2.626l-0.517-1.254c0.465-0.218,0.76-0.419,0.886-0.603c0.132-0.185,0.142-0.404,0.043-0.65
		c-0.068-0.164-0.307-0.503-0.724-1.015l-0.231-0.303l-3.197,1.314l0.021,0.383c0,0.249,0.02,0.471,0.056,0.667
		c0.037,0.196,0.086,0.365,0.14,0.5c0.119,0.289,0.28,0.445,0.494,0.479c0.207,0.031,0.571-0.033,1.089-0.186l0.52,1.253
		l-5.149,2.111l-0.514-1.253c0.221-0.166,0.404-0.325,0.539-0.474c0.135-0.147,0.237-0.325,0.294-0.526
		c0.064-0.2,0.1-0.449,0.118-0.737c0.012-0.288,0.012-0.662,0-1.126l-0.412-8.727c-0.015-0.504-0.045-0.9-0.087-1.191
		c-0.036-0.291-0.074-0.516-0.109-0.674L70.79,24.695 M71.772,30.982l-0.134-0.164c-0.037-0.058-0.08-0.112-0.133-0.166
		l-0.256-0.308c-0.109-0.148-0.211-0.273-0.31-0.378l-0.276-0.343c-0.051-0.069-0.103-0.131-0.154-0.202
		c-0.046-0.066-0.101-0.134-0.156-0.195l0.095,1.729l0.116,2.359l2.321-0.953L71.772,30.982z"/>
	<path fill="#89734C" d="M85.431,24.257c-0.036-0.296-0.066-0.541-0.093-0.735c-0.03-0.192-0.064-0.348-0.099-0.467
		c-0.034-0.121-0.077-0.215-0.125-0.289c-0.049-0.075-0.105-0.151-0.167-0.224c-0.168-0.173-0.361-0.278-0.564-0.323
		c-0.211-0.043-0.531-0.052-0.964-0.03l-0.158-1.346l3.896-0.454c0.807-0.095,1.493-0.18,2.061-0.252
		c0.566-0.071,1.034-0.137,1.39-0.19c0.32-0.055,0.628-0.099,0.93-0.141c0.3-0.04,0.527-0.072,0.675-0.089
		c1.11-0.129,2.031-0.069,2.772,0.175c0.734,0.249,1.335,0.697,1.8,1.35c0.381,0.554,0.706,1.235,0.979,2.054
		c0.269,0.819,0.462,1.709,0.575,2.673c0.256,2.212-0.019,3.932-0.825,5.166c-0.805,1.236-2.144,1.962-4.001,2.177
		c-0.147,0.02-0.324,0.038-0.522,0.06c-0.2,0.026-0.438,0.045-0.706,0.064c-0.503,0.03-0.961,0.067-1.391,0.111
		c-0.431,0.042-0.862,0.089-1.287,0.14l-4.783,0.556l-0.161-1.344c0.48-0.084,0.827-0.185,1.036-0.305
		c0.208-0.118,0.359-0.314,0.45-0.583c0.03-0.084,0.057-0.161,0.078-0.232c0.018-0.069,0.021-0.161,0.018-0.278
		c-0.008-0.112-0.018-0.254-0.028-0.424c-0.014-0.167-0.038-0.385-0.069-0.653L85.431,24.257 M89.863,29.991
		c0.028,0.228,0.052,0.41,0.077,0.542c0.025,0.131,0.045,0.241,0.077,0.326c0.034,0.086,0.065,0.151,0.105,0.204
		c0.04,0.047,0.093,0.101,0.173,0.162c0.152,0.133,0.334,0.208,0.537,0.231c0.207,0.025,0.502,0.016,0.893-0.031
		c0.602-0.071,1.094-0.208,1.477-0.419c0.384-0.207,0.674-0.51,0.872-0.915c0.196-0.401,0.316-0.919,0.35-1.549
		c0.039-0.625,0-1.396-0.11-2.307c-0.096-0.869-0.235-1.594-0.411-2.17c-0.175-0.579-0.403-1.033-0.687-1.367
		c-0.288-0.333-0.638-0.553-1.056-0.659c-0.42-0.106-0.927-0.128-1.517-0.059c-0.374,0.042-0.669,0.092-0.887,0.144
		c-0.221,0.054-0.38,0.137-0.491,0.251c-0.107,0.114-0.168,0.268-0.185,0.449c-0.01,0.182,0,0.432,0.038,0.736L89.863,29.991z"/>
	<path fill="#89734C" d="M116.787,25.245L115.145,25c0.026-0.419,0.008-0.774-0.047-1.062c-0.049-0.286-0.147-0.524-0.309-0.708
		c-0.16-0.19-0.372-0.333-0.648-0.435c-0.281-0.104-0.641-0.192-1.078-0.254l-0.264-0.043c-0.328-0.05-0.604-0.074-0.805-0.077
		c-0.206-0.006-0.363,0.027-0.475,0.088c-0.112,0.066-0.192,0.179-0.246,0.336c-0.049,0.154-0.097,0.365-0.133,0.632l-0.34,2.26
		l2.861,0.429c0.289,0.045,0.527,0.07,0.711,0.078c0.186,0.008,0.383,0,0.588-0.025l-0.354,2.359
		c-0.186-0.053-0.365-0.101-0.539-0.141c-0.183-0.038-0.463-0.089-0.854-0.146l-2.735-0.415l-0.361,2.402
		c-0.049,0.317-0.072,0.565-0.072,0.746c0,0.18,0.049,0.317,0.143,0.419c0.093,0.103,0.25,0.181,0.479,0.236
		c0.226,0.054,0.534,0.11,0.935,0.17l0.5,0.073c0.428,0.079,0.78,0.107,1.072,0.094c0.287-0.022,0.529-0.098,0.717-0.242
		c0.19-0.143,0.354-0.354,0.486-0.643c0.135-0.289,0.254-0.669,0.368-1.141l1.662,0.25l-0.648,4.3l-11.602-1.746l0.2-1.34
		c0.484,0.045,0.838,0.038,1.076-0.021c0.235-0.063,0.433-0.208,0.588-0.445c0.055-0.073,0.096-0.142,0.137-0.205
		c0.033-0.061,0.063-0.15,0.088-0.262s0.052-0.249,0.083-0.416c0.028-0.165,0.067-0.383,0.11-0.649l0.92-6.14
		c0.045-0.294,0.078-0.54,0.104-0.734c0.021-0.193,0.03-0.354,0.027-0.475c0-0.123-0.017-0.227-0.048-0.313
		c-0.021-0.089-0.061-0.174-0.101-0.263c-0.118-0.207-0.274-0.358-0.465-0.457c-0.192-0.1-0.496-0.189-0.919-0.282l0.199-1.339
		l8.723,1.309c0.348,0.052,0.635,0.093,0.857,0.118c0.229,0.031,0.438,0.046,0.615,0.056c0.188,0.005,0.358,0.002,0.519-0.007
		c0.161-0.008,0.351-0.031,0.575-0.064L116.787,25.245"/>
	<path fill="#89734C" d="M131.1,40.27l-10.649-4.411l0.519-1.252c0.458,0.161,0.813,0.242,1.049,0.238
		c0.244-0.002,0.473-0.1,0.683-0.287c0.065-0.06,0.127-0.117,0.18-0.166c0.047-0.055,0.101-0.131,0.149-0.235
		c0.048-0.103,0.111-0.23,0.184-0.384c0.071-0.151,0.154-0.355,0.26-0.605l2.379-5.736c0.117-0.272,0.205-0.502,0.275-0.688
		c0.064-0.18,0.113-0.333,0.141-0.455c0.028-0.119,0.037-0.222,0.035-0.314c-0.007-0.09-0.017-0.184-0.039-0.276
		c-0.063-0.233-0.179-0.417-0.341-0.559c-0.157-0.138-0.437-0.303-0.821-0.495l0.521-1.251l6.764,2.805l-0.521,1.253
		c-0.455-0.161-0.811-0.242-1.057-0.244c-0.25,0-0.479,0.096-0.688,0.287c-0.069,0.056-0.128,0.112-0.182,0.165
		c-0.051,0.05-0.102,0.129-0.147,0.234c-0.058,0.101-0.11,0.229-0.185,0.382c-0.071,0.157-0.157,0.354-0.265,0.605l-2.437,5.886
		c-0.092,0.213-0.155,0.382-0.202,0.509c-0.045,0.126-0.079,0.233-0.101,0.319c-0.021,0.089-0.026,0.153-0.021,0.21
		c0.007,0.053,0.024,0.108,0.062,0.17c0.041,0.071,0.088,0.137,0.139,0.186c0.053,0.053,0.123,0.103,0.207,0.162
		c0.086,0.061,0.195,0.123,0.34,0.187c0.14,0.065,0.326,0.144,0.547,0.237l0.242,0.101c0.261,0.112,0.479,0.195,0.652,0.26
		c0.164,0.061,0.318,0.106,0.445,0.129c0.127,0.025,0.241,0.031,0.346,0.023c0.098-0.012,0.196-0.036,0.305-0.081
		c0.273-0.09,0.509-0.256,0.71-0.496c0.198-0.237,0.411-0.592,0.646-1.073l1.547,0.645L131.1,40.27"/>
	<path fill="#89734C" d="M142.441,40.513c0.264,0.352,1.947,1.38,2.162,1.542c0.44,0.328,0.854,0.418,1.229,0.262
		c0.379-0.156,0.843-0.601,1.393-1.336c0.733-0.982,1.123-1.749,1.17-2.307c0.047-0.403-0.201-0.807-0.754-1.223
		c-0.478-0.355-0.873-0.523-1.188-0.505c-0.185-0.005-0.345,0.048-0.483,0.156c-0.138,0.105-0.32,0.311-0.544,0.612l-3.815,5.105
		c-0.188,0.248-0.332,0.452-0.439,0.608c-0.104,0.151-0.188,0.285-0.243,0.396c-0.059,0.109-0.098,0.203-0.12,0.292
		c-0.021,0.084-0.025,0.179-0.021,0.283c0.007,0.243,0.072,0.458,0.208,0.649c0.139,0.195,0.397,0.445,0.79,0.753l-0.811,1.084
		l-5.949-4.442l0.813-1.086c0.395,0.265,0.708,0.42,0.949,0.471c0.236,0.053,0.48,0.017,0.724-0.104
		c0.081-0.042,0.147-0.077,0.216-0.117c0.06-0.038,0.127-0.102,0.201-0.188c0.071-0.089,0.164-0.2,0.27-0.328
		c0.105-0.132,0.242-0.307,0.406-0.524l3.717-4.974c0.179-0.237,0.32-0.438,0.433-0.595c0.108-0.163,0.194-0.296,0.255-0.406
		c0.055-0.11,0.088-0.208,0.108-0.298c0.013-0.09,0.02-0.183,0.03-0.283c-0.013-0.238-0.069-0.441-0.185-0.612
		c-0.12-0.171-0.342-0.399-0.67-0.676l0.812-1.087l3.549,2.652c0.453,0.337,0.863,0.636,1.229,0.893
		c0.36,0.255,0.746,0.516,1.151,0.784c0.236,0.16,0.457,0.312,0.668,0.46c0.209,0.151,0.382,0.276,0.521,0.38
		c1.112,0.828,1.688,1.734,1.73,2.706c0.038,0.974-0.454,2.145-1.479,3.518c-0.979,1.308-1.968,2.063-2.963,2.27
		c-0.998,0.207-2.07-0.119-3.215-0.974c-0.857-0.646-2.107-1.792-2.396-2.598L142.441,40.513"/>
	<path fill="#89734C" d="M165.127,52.527l-4.044,3.083l-2.44-3.179l4.039-3.077l-3.358-4.365l-1.076,0.828
		c0.244,0.359,0.397,0.641,0.47,0.84c0.071,0.203,0.076,0.419,0.018,0.649c-0.029,0.095-0.064,0.182-0.104,0.265
		c-0.043,0.08-0.104,0.165-0.188,0.255c-0.086,0.091-0.198,0.197-0.352,0.32c-0.15,0.126-0.349,0.277-0.583,0.46l-4.921,3.786
		c-0.211,0.163-0.393,0.297-0.529,0.392c-0.137,0.098-0.254,0.181-0.346,0.243c-0.096,0.064-0.181,0.107-0.249,0.127
		c-0.071,0.021-0.149,0.039-0.237,0.053c-0.275,0.065-0.521,0.034-0.729-0.084c-0.212-0.122-0.479-0.365-0.792-0.733l-1.077,0.827
		l3.334,4.332l4.883-3.736l2.443,3.173l-4.883,3.736l3.365,4.379l1.073-0.832c-0.26-0.379-0.423-0.67-0.497-0.873
		c-0.068-0.201-0.07-0.416-0.011-0.652c0.021-0.1,0.054-0.188,0.103-0.265c0.039-0.077,0.104-0.16,0.188-0.252
		c0.079-0.088,0.196-0.191,0.345-0.315c0.146-0.119,0.338-0.272,0.584-0.464l4.924-3.786c0.215-0.164,0.39-0.295,0.525-0.392
		c0.141-0.101,0.258-0.18,0.352-0.247c0.094-0.063,0.176-0.104,0.246-0.126c0.067-0.018,0.146-0.036,0.233-0.053
		c0.282-0.062,0.529-0.03,0.741,0.094c0.214,0.128,0.48,0.377,0.813,0.754l1.069-0.824L165.127,52.527"/>
	<path fill="#89734C" d="M169.479,66.909c0.271-0.119,0.494-0.225,0.672-0.311c0.178-0.087,0.313-0.163,0.416-0.232
		c0.104-0.068,0.187-0.138,0.238-0.205c0.06-0.071,0.111-0.146,0.166-0.228c0.109-0.213,0.157-0.425,0.137-0.638
		c-0.021-0.212-0.108-0.522-0.26-0.924l1.236-0.555l2.979,6.667l-1.23,0.554c-0.229-0.43-0.43-0.729-0.602-0.893
		c-0.18-0.169-0.405-0.254-0.69-0.261c-0.094-0.001-0.176-0.003-0.245-0.001c-0.074,0.005-0.164,0.025-0.271,0.065
		c-0.105,0.04-0.238,0.094-0.395,0.155c-0.158,0.063-0.357,0.148-0.604,0.261l-5.672,2.535c-0.279,0.126-0.508,0.23-0.679,0.312
		c-0.167,0.085-0.305,0.159-0.405,0.229c-0.104,0.066-0.188,0.134-0.24,0.197c-0.064,0.063-0.116,0.142-0.164,0.234
		c-0.112,0.214-0.155,0.431-0.133,0.64c0.021,0.212,0.104,0.521,0.252,0.927l-1.234,0.551l-2.979-6.666l1.234-0.552
		c0.223,0.433,0.424,0.732,0.602,0.895c0.18,0.165,0.408,0.25,0.693,0.256c0.083,0.007,0.17,0.007,0.24,0.002
		c0.076-0.003,0.162-0.022,0.271-0.062c0.105-0.042,0.239-0.097,0.393-0.157c0.158-0.062,0.359-0.148,0.609-0.26L169.479,66.909"/>
	<path fill="#89734C" d="M179.412,85.272c-0.148,0.071-0.284,0.134-0.402,0.189c-0.123,0.05-0.24,0.104-0.352,0.161
		c-0.112,0.057-0.227,0.121-0.344,0.186c-0.117,0.063-0.258,0.149-0.416,0.246l-7.543,4.497c-0.404,0.247-0.736,0.464-0.992,0.655
		c-0.26,0.189-0.459,0.379-0.596,0.564c-0.146,0.19-0.235,0.387-0.285,0.595c-0.043,0.209-0.063,0.455-0.043,0.74l-1.326,0.274
		l-1.383-6.78l1.324-0.27c0.129,0.498,0.273,0.825,0.428,0.987c0.158,0.162,0.369,0.216,0.633,0.16
		c0.173-0.036,0.551-0.209,1.131-0.52l0.338-0.173l-0.691-3.389l-0.377-0.047c-0.248-0.047-0.469-0.071-0.666-0.071
		c-0.201,0-0.373,0.015-0.52,0.044c-0.307,0.064-0.489,0.193-0.559,0.393c-0.07,0.199-0.08,0.569-0.025,1.11l-1.328,0.272
		l-1.109-5.451l1.326-0.271c0.123,0.25,0.242,0.456,0.366,0.617c0.121,0.163,0.271,0.289,0.46,0.391
		c0.186,0.101,0.42,0.182,0.697,0.25c0.285,0.066,0.658,0.135,1.109,0.206l8.65,1.229c0.501,0.074,0.896,0.123,1.186,0.138
		c0.291,0.014,0.523,0.021,0.686,0.014L179.412,85.272 M173.052,85.063c0.063-0.039,0.124-0.071,0.188-0.097
		c0.065-0.027,0.129-0.059,0.188-0.101l0.354-0.197c0.164-0.072,0.31-0.151,0.431-0.233l0.39-0.203
		c0.072-0.04,0.146-0.081,0.228-0.114c0.071-0.041,0.147-0.076,0.222-0.122l-1.719-0.224l-2.341-0.329l0.506,2.458L173.052,85.063z"
		/>
	<polyline fill="#89734C" points="32.47,107.785 28.415,109.658 28.949,114.1 25.911,110.818 21.856,112.699 24.033,108.796 
		20.995,105.521 25.377,106.385 27.554,102.482 28.087,106.92 32.47,107.785 	"/>
	<polyline fill="#89734C" points="36.281,123.809 32.794,126.6 34.382,130.783 30.642,128.33 27.159,131.132 28.336,126.816 
		24.597,124.373 29.06,124.152 30.233,119.841 31.817,124.023 36.281,123.809 	"/>
	<polyline fill="#89734C" points="43.827,138.443 41.12,141.99 43.666,145.671 39.446,144.189 36.739,147.744 36.843,143.275 
		32.624,141.8 36.903,140.518 37.008,136.046 39.553,139.725 43.827,138.443 	"/>
	<polyline fill="#89734C" points="54.68,150.833 52.901,154.93 56.256,157.889 51.809,157.465 50.034,161.566 49.056,157.206 
		44.609,156.787 48.458,154.516 47.48,150.148 50.832,153.107 54.68,150.833 	"/>
	<polyline fill="#89734C" points="68.187,160.254 67.452,164.654 71.417,166.719 66.997,167.381 66.259,171.787 64.267,167.785 
		59.848,168.449 63.032,165.318 61.037,161.316 65.002,163.384 68.187,160.254 	"/>
	<polyline fill="#89734C" points="83.566,166.145 83.908,170.594 88.255,171.643 84.123,173.352 84.469,177.807 81.573,174.402 
		77.445,176.109 79.78,172.303 76.883,168.898 81.23,169.949 83.566,166.145 	"/>
	<polygon fill="#89734C" points="100,168.169 101.381,172.418 105.852,172.418 102.234,175.044 103.616,179.292 100,176.666 
		96.384,179.292 97.765,175.044 94.15,172.418 98.618,172.418 	"/>
	<polyline fill="#89734C" points="167.529,107.785 171.585,109.658 171.051,114.1 174.089,110.818 178.145,112.699 175.967,108.796 
		179.005,105.521 174.623,106.385 172.445,102.482 171.913,106.92 167.529,107.785 	"/>
	<polyline fill="#89734C" points="163.719,123.809 167.206,126.6 165.618,130.783 169.357,128.33 172.842,131.132 171.664,126.816 
		175.402,124.373 170.939,124.152 169.768,119.841 168.184,124.023 163.719,123.809 	"/>
	<polyline fill="#89734C" points="156.173,138.443 158.881,141.99 156.334,145.671 160.555,144.189 163.262,147.744 
		163.156,143.275 167.376,141.8 163.098,140.518 162.992,136.046 160.447,139.725 156.173,138.443 	"/>
	<polyline fill="#89734C" points="145.32,150.833 147.1,154.93 143.744,157.889 148.189,157.465 149.966,161.566 150.943,157.206 
		155.391,156.787 151.543,154.516 152.52,150.148 149.168,153.107 145.32,150.833 	"/>
	<polyline fill="#89734C" points="131.813,160.254 132.549,164.654 128.583,166.719 133.003,167.381 133.74,171.787 
		135.732,167.785 140.152,168.449 136.968,165.318 138.963,161.316 134.998,163.384 131.813,160.254 	"/>
	<polyline fill="#89734C" points="116.434,166.145 116.092,170.594 111.745,171.643 115.878,173.352 115.529,177.807 
		118.427,174.402 122.555,176.109 120.221,172.303 123.117,168.898 118.77,169.949 116.434,166.145 	"/>
	<path fill="#89734C" d="M74.784,80.929l-2.505,0.361V67.122l-2.683,0.387v14.78c0,0.819,0.521,1.349,1.326,1.349
		c0.095,0,0.195-0.008,0.296-0.024l4.683-0.676c0.92-0.131,1.562-0.839,1.562-1.728V66.373l-2.68,0.388L74.784,80.929L74.784,80.929
		z"/>
	<polygon fill="#89734C" points="89.241,73.291 85.513,65.595 83.985,65.693 83.985,82.03 86.523,81.866 86.523,74.184 
		90.211,81.622 91.784,81.518 91.784,65.182 89.241,65.347 	"/>
	<polygon fill="#89734C" points="98.424,65.024 98.437,81.36 101.175,81.348 101.13,65.015 	"/>
	<path fill="#89734C" d="M114.54,65.494l-5.071-0.293c-0.738,0-1.533,0.546-1.533,1.429v13.32c0,0.976,0.924,1.548,1.59,1.588
		l4.988,0.291l0.08,0.001c0.744,0,1.538-0.546,1.538-1.432V67.085C116.132,66.113,115.209,65.537,114.54,65.494z M113.43,79.602
		l-2.793-0.165V67.434l2.793,0.163V79.602z"/>
	<polygon fill="#89734C" points="127.887,66.948 127.887,74.853 124.208,66.441 122.675,66.233 122.675,82.571 125.193,82.919 
		125.193,75.289 128.825,83.417 130.404,83.638 130.404,67.297 	"/>
	<path fill="#89734C" d="M73.387,102.439c0.292,0.117,0.605,0.233,0.947,0.334c1.037,0.31,2.35,0.5,3.971,0.302l0.623-0.071
		l-0.496,0.438c-0.437,0.388-1.727,1.211-3.021,1.724c2.243-0.288,6.3-2.097,8.698-3.519c-0.237-0.129-0.489-0.309-0.69-0.479
		C79.922,102.531,76.101,102.756,73.387,102.439"/>
	<path fill="#89734C" d="M82.757,125.917c-0.59,1.002-0.891,2.033-0.897,3.069c-0.014,1.701,0.759,3.379,2.228,4.854
		c3.054,3.073,8.785,4.982,14.956,4.982c9.511,0,17.274-4.415,17.306-9.842c0.006-1.037-0.283-2.065-0.858-3.067
		c-2.341,4.006-8.984,6.769-16.406,6.769C91.664,132.682,85.052,129.921,82.757,125.917"/>
	<path fill="#89734C" d="M118.777,126.202c0.236,0.028,0.701,0.079,1.326,0.079c1.655,0,4.06-0.319,6.51-1.76
		c-1.756,0.033-5.385-0.193-9.229-1.889C117.898,123.52,118.506,124.791,118.777,126.202"/>
	<path fill="#89734C" d="M99.151,97.259l0.127,0.005c4.5,0,8.482,2.504,8.535,5.583c0.022,1.325-0.649,2.711-1.898,3.729
		c-1.02,0.788-2.479,1.348-3.811,1.85c-0.004,0-3.115,1.117-5.691,2.024c-0.133,0.038-12.228,3.871-12.228,11.206
		c-0.011,1.438,0.633,2.851,1.852,4.077c2.659,2.678,7.833,4.281,13.409,4.142c8.45-0.217,15.35-4.271,15.374-9.033
		c0.02-3.032-2.98-5.393-7.592-6.631c-1.099,0.424-2.343,0.817-3.66,1.229c-1.279,0.402-2.732,0.863-4.255,1.414
		c-3.463,1.254-4.138,2.334-4.232,2.867c-0.062,0.34,0.081,0.594,0.189,0.734c1.321-0.77,3.251-1.334,5.333-1.553
		c0.592-0.063,1.187-0.094,1.758-0.094c3.19,0,5.341,0.893,5.347,2.35c0,0.408-0.177,0.799-0.534,1.158
		c-1.107,1.115-3.878,1.832-7.054,1.832c-2.678,0-5.178-0.846-6.537-2.205c-0.695-0.702-1.059-1.512-1.059-2.338
		c0-2.972,4.307-4.437,7.156-5.405c0.347-0.124,0.676-0.233,0.965-0.337c2.502-0.905,5.524-2.021,5.524-2.021
		c4.821-1.553,7.376-5.722,6.741-9.748c-0.747-4.75-5.424-8.069-11.372-8.069c-0.578,0-1.169,0.034-1.758,0.097
		c-0.003,0.002-0.543,0.101-1.19,0.101c-0.678,0-1.214-0.106-1.598-0.316c-0.861-0.471-1.731-0.535-1.741-0.536
		c-6.944,1.536-10.951,4.479-11.705,5.07c0.231,0.615,1.323,2.809,4.772,2.309c1.291-0.186,2.317-0.214,3.223-0.236
		c2.05-0.058,3.181-0.088,4.723-1.872C97.377,97.359,98.754,97.259,99.151,97.259"/>
	<path fill="#041C2C" d="M92.345,96.986c0.576-0.358,0.924-1.767,0.924-1.767c-2.385,0.598-4.908,1.885-4.908,1.885
		S91.773,97.346,92.345,96.986"/>
	<path fill="#89734C" d="M168.199,170.768h-1.284v3.515h-1.208v-3.515h-1.281v-0.974h3.773V170.768 M174.604,174.279H173.4v-3.508
		h-0.131l-1.104,2.453h-0.84l-1.119-2.496h-0.16v3.551h-1.141v-4.485h1.953l0.904,2.192l0.942-2.192h1.896v4.485H174.604z"/>
</g>
<g id="Content">
</g>
</svg>
