<?xml version="1.0" encoding="utf-8"?>
<!-- Generator: Adobe Illustrator 14.0.0, SVG Export Plug-In . SVG Version: 6.00 Build 43363)  -->
<!DOCTYPE svg PUBLIC "-//W3C//DTD SVG 1.1//EN" "http://www.w3.org/Graphics/SVG/1.1/DTD/svg11.dtd">
<svg version="1.1" id="Layer_1" xmlns="http://www.w3.org/2000/svg" xmlns:xlink="http://www.w3.org/1999/xlink" x="0px" y="0px"
	 width="200px" height="200px" viewBox="0 0 200 200" enable-background="new 0 0 200 200" xml:space="preserve">
<g>
	<g>
		<g>
			<g>
				<defs>
					<rect id="SVGID_1_" width="200" height="200"/>
				</defs>
				<clipPath id="SVGID_2_">
					<use xlink:href="#SVGID_1_"  overflow="visible"/>
				</clipPath>
				<path clip-path="url(#SVGID_2_)" fill="#004712" d="M184.576,104.02c0.234-2.568,0.359-5.168,0.359-7.803
					c0-24.247-10.162-46.118-26.455-61.595c-1.516-6.243-3.541-10.15-3.738-10.523l-2.098-3.941l-4.234,1.413
					c-1.686,0.562-3.378,1.088-5.078,1.589C130.641,15.619,115.827,11.285,100,11.283c-15.828,0.002-30.64,4.336-43.332,11.877
					c-1.701-0.501-3.393-1.027-5.079-1.589l-4.234-1.413l-2.098,3.941c-0.198,0.373-2.226,4.28-3.737,10.523
					C25.227,50.099,15.064,71.97,15.064,96.217c0,2.632,0.124,5.231,0.359,7.803L10,109.443
					c2.338,15.973,8.821,30.597,18.339,42.729h7.776c12.037,13.723,28.421,23.531,47.01,27.279c-0.279,2.113-0.44,3.574-0.459,4.225
					c1.5,1.331,6.947,5.026,17.334,5.039c10.389-0.013,15.835-3.708,17.335-5.039c-0.021-0.648-0.181-2.107-0.459-4.225
					c18.589-3.748,34.972-13.559,47.011-27.279h7.773c9.52-12.134,16.002-26.758,18.34-42.729L184.576,104.02z"/>
			</g>
		</g>
	</g>
	<g>
		<g>
			<g>
				<defs>
					<rect id="SVGID_3_" width="200" height="200"/>
				</defs>
				<clipPath id="SVGID_4_">
					<use xlink:href="#SVGID_3_"  overflow="visible"/>
				</clipPath>
				<path clip-path="url(#SVGID_4_)" fill="#FFFFFF" d="M150.162,26.632c-18.035,6.018-35.245,7.996-50.162,7.971
					c-14.916,0.025-32.127-1.953-50.162-7.971c0,0-10.711,20.102,0,43.682c0,0,16.58-11.46,50.162-11.46s50.162,11.46,50.162,11.46
					C160.874,46.734,150.162,26.632,150.162,26.632"/>
			</g>
		</g>
	</g>
	<g>
		<g>
			<g>
				<defs>
					<rect id="SVGID_5_" width="200" height="200"/>
				</defs>
				<clipPath id="SVGID_6_">
					<use xlink:href="#SVGID_5_"  overflow="visible"/>
				</clipPath>
				<path clip-path="url(#SVGID_6_)" fill="#FFFFFF" d="M100,63.932c-3.447,0-6.951,0.144-10.051,0.391
					c0.419,2.594,1.99,13.155,1.99,25.894c0,4.454-0.052,12.326-0.205,21.791H100h8.266c-0.148-9.465-0.205-17.337-0.205-21.791
					c0-12.739,1.571-23.3,1.99-25.894C106.951,64.076,103.448,63.932,100,63.932"/>
			</g>
		</g>
	</g>
	<g>
		<g>
			<g>
				<defs>
					<rect id="SVGID_7_" width="200" height="200"/>
				</defs>
				<clipPath id="SVGID_8_">
					<use xlink:href="#SVGID_7_"  overflow="visible"/>
				</clipPath>
				<path clip-path="url(#SVGID_8_)" fill="#FFFFFF" d="M111.458,180.425c-0.743-6.185-1.333-14.323-1.792-23.229H100h-9.666
					c-0.459,8.906-1.048,17.048-1.791,23.229h-0.007l0.007,0.005c0,0.004,0,0.006-0.007,0.006c0,0,3.045,2.812,11.464,2.812
					c8.42,0,11.465-2.812,11.465-2.812c-0.007,0-0.007-0.002-0.007-0.006l0.007-0.005H111.458z"/>
			</g>
		</g>
	</g>
	<g>
		<g>
			<g>
				<defs>
					<rect id="SVGID_9_" width="200" height="200"/>
				</defs>
				<clipPath id="SVGID_10_">
					<use xlink:href="#SVGID_9_"  overflow="visible"/>
				</clipPath>
				<path clip-path="url(#SVGID_10_)" fill="#EBE72A" d="M135.365,25.253c0.162-0.039,0.322-0.073,0.479-0.108
					c0.073-0.02,0.143-0.035,0.207-0.052l-0.004-0.001c4.016-0.961,7.98-2.078,11.891-3.368c-3.676,0.373-9.854,0.995-15.664,1.58
					c-9.86-4.375-20.781-6.809-32.271-6.809c-11.489,0-22.411,2.434-32.274,6.809c-5.807-0.585-11.987-1.207-15.662-1.58
					c3.908,1.29,7.875,2.407,11.889,3.368l-0.003,0.001c0.064,0.017,0.132,0.032,0.207,0.052c0.155,0.035,0.316,0.069,0.478,0.108
					c1.5,0.354,3,0.686,4.515,0.992c9.431-4.164,19.869-6.481,30.85-6.481c10.979,0,21.418,2.317,30.853,6.481
					C132.365,25.939,133.865,25.607,135.365,25.253"/>
			</g>
		</g>
	</g>
	<g>
		<g>
			<g>
				<defs>
					<rect id="SVGID_11_" width="200" height="200"/>
				</defs>
				<clipPath id="SVGID_12_">
					<use xlink:href="#SVGID_11_"  overflow="visible"/>
				</clipPath>
				<polygon clip-path="url(#SVGID_12_)" fill="#EBE72A" points="133.404,112.053 113.738,92.393 113.738,96.8 128.994,112.053 				
					"/>
			</g>
		</g>
	</g>
	<g>
		<g>
			<g>
				<defs>
					<rect id="SVGID_13_" width="200" height="200"/>
				</defs>
				<clipPath id="SVGID_14_">
					<use xlink:href="#SVGID_13_"  overflow="visible"/>
				</clipPath>
				<path clip-path="url(#SVGID_14_)" fill="#EBE72A" d="M161.412,112.053l-46.807-46.808l-0.086,0.565
					c-0.015,0.049-0.406,2.358-0.817,6.243l39.999,40H161.412z"/>
			</g>
		</g>
	</g>
	<g>
		<g>
			<g>
				<defs>
					<rect id="SVGID_15_" width="200" height="200"/>
				</defs>
				<clipPath id="SVGID_16_">
					<use xlink:href="#SVGID_15_"  overflow="visible"/>
				</clipPath>
				<path clip-path="url(#SVGID_16_)" fill="#EBE72A" d="M183.839,109.75l0.031-0.034l-4.655-4.591
					c0.328-2.925,0.516-5.892,0.516-8.911c0-18.159-6.078-34.894-16.307-48.3c-1.137-11.175-6.408-20.36-8.785-24.012l0.104,0.196
					c0.28,0.533,4.271,8.221,5.188,19.642c0.065,0.796,0.115,1.61,0.146,2.442c0.003,0.048,0.003,0.095,0.009,0.143
					c0.027,0.86,0.037,1.739,0.032,2.636c10.239,13.006,16.348,29.415,16.348,47.253c0,2.013-0.079,4.004-0.233,5.976
					l-24.293-23.943l-5.584-3.628c-0.056-0.035-1.84-1.227-5.369-2.794l40.152,39.578l-0.345,1.654h-0.003
					c-0.48,2.338-1.025,4.646-1.637,6.908c-2.471,8.641-6.215,16.737-11.049,24.055h-8.449
					c-10.135,12.619-24.18,21.957-40.305,26.162c-0.123,0.031-0.24,0.063-0.354,0.096c-0.995,0.25-1.993,0.486-2.998,0.703
					c-0.039,0.01-0.076,0.02-0.12,0.023c0.047,0.568,0.096,1.128,0.143,1.676c0.047,0.565,0.103,1.117,0.152,1.664
					c0.402,2.859,0.719,5.178,0.917,6.838c1.085-2.611,1.959-5.338,2.634-7.723c16.717-4.253,31.328-13.784,41.946-26.725h7.896
					l0.81-1.217c5.032-7.609,8.86-15.957,11.401-24.848c0.619-2.305,1.191-4.693,1.688-7.127l0.05-0.268
					c0.058-0.266,0.111-0.53,0.155-0.799l0.396-2.701L183.839,109.75z"/>
			</g>
		</g>
	</g>
	<g>
		<g>
			<g>
				<defs>
					<rect id="SVGID_17_" width="200" height="200"/>
				</defs>
				<clipPath id="SVGID_18_">
					<use xlink:href="#SVGID_17_"  overflow="visible"/>
				</clipPath>
				<polygon clip-path="url(#SVGID_18_)" fill="#EBE72A" points="71.006,112.053 86.261,96.8 86.261,92.393 66.596,112.053 				"/>
			</g>
		</g>
	</g>
	<g>
		<g>
			<g>
				<defs>
					<rect id="SVGID_19_" width="200" height="200"/>
				</defs>
				<clipPath id="SVGID_20_">
					<use xlink:href="#SVGID_19_"  overflow="visible"/>
				</clipPath>
				<path clip-path="url(#SVGID_20_)" fill="#EBE72A" d="M85.394,65.245l-46.806,46.808h7.711l40-40.001
					c-0.412-3.885-0.806-6.194-0.819-6.242L85.394,65.245z"/>
			</g>
		</g>
	</g>
	<g>
		<g>
			<g>
				<defs>
					<rect id="SVGID_21_" width="200" height="200"/>
				</defs>
				<clipPath id="SVGID_22_">
					<use xlink:href="#SVGID_21_"  overflow="visible"/>
				</clipPath>
				<path clip-path="url(#SVGID_22_)" fill="#EBE72A" d="M81.001,170.277c-0.115-0.033-0.232-0.063-0.354-0.096
					c-16.125-4.205-30.171-13.543-40.305-26.162h-8.449c-4.835-7.316-8.579-15.416-11.049-24.056
					c-0.611-2.269-1.156-4.571-1.636-6.907h-0.003l-0.345-1.654L59.012,71.82c-3.528,1.567-5.313,2.758-5.368,2.794l-5.585,3.628
					l-24.292,23.943c-0.153-1.972-0.233-3.96-0.233-5.977c0-17.838,6.108-34.246,16.348-47.253
					c-0.005-0.897,0.004-1.776,0.032-2.636c0.006-0.048,0.006-0.095,0.009-0.142c0.028-0.832,0.078-1.646,0.146-2.442
					c0.917-11.421,4.906-19.109,5.188-19.642l0.105-0.197c-2.377,3.652-7.649,12.838-8.786,24.013
					c-10.227,13.407-16.305,30.142-16.305,48.3c0,3.019,0.186,5.987,0.515,8.911l-4.655,4.591l0.031,0.035l-0.229,0.03l0.396,2.701
					c0.044,0.267,0.099,0.532,0.155,0.799l0.05,0.266c0.495,2.432,1.067,4.823,1.686,7.127c2.541,8.889,6.372,17.234,11.405,24.844
					l0.806,1.217h7.897c10.618,12.941,25.229,22.476,41.946,26.729c0.676,2.384,1.549,5.107,2.634,7.723
					c0.198-1.658,0.515-3.978,0.917-6.838c0.053-0.546,0.106-1.098,0.152-1.662c0.047-0.55,0.096-1.106,0.143-1.677
					c-0.044-0.007-0.081-0.021-0.121-0.022C82.995,170.764,81.997,170.525,81.001,170.277"/>
			</g>
		</g>
	</g>
	<g>
		<g>
			<g>
				<defs>
					<rect id="SVGID_23_" width="200" height="200"/>
				</defs>
				<clipPath id="SVGID_24_">
					<use xlink:href="#SVGID_23_"  overflow="visible"/>
				</clipPath>
				<polygon clip-path="url(#SVGID_24_)" fill="#2C5234" points="161.424,163.077 160.073,163.077 160.073,162.1 163.923,162.1 
					163.923,163.077 162.559,163.077 162.559,166.359 161.424,166.359 				"/>
			</g>
		</g>
	</g>
	<g>
		<g>
			<g>
				<defs>
					<rect id="SVGID_25_" width="200" height="200"/>
				</defs>
				<clipPath id="SVGID_26_">
					<use xlink:href="#SVGID_25_"  overflow="visible"/>
				</clipPath>
				<polygon clip-path="url(#SVGID_26_)" fill="#2C5234" points="166.16,166.359 165.359,163.82 165.359,166.359 164.361,166.359 
					164.361,162.1 165.781,162.1 166.639,164.825 167.499,162.1 168.919,162.1 168.919,166.359 167.841,166.359 167.841,163.82 
					167.04,166.359 				"/>
			</g>
		</g>
	</g>
	<g>
		<g>
			<g>
				<defs>
					<rect id="SVGID_27_" width="200" height="200"/>
				</defs>
				<clipPath id="SVGID_28_">
					<use xlink:href="#SVGID_27_"  overflow="visible"/>
				</clipPath>
				<path clip-path="url(#SVGID_28_)" fill="#FFFFFF" d="M153.973,135.46h6.836c5.467,0,8.07-0.938,8.07-8.423
					c0-7.471-2.604-8.408-8.07-8.408h-6.836V135.46L153.973,135.46z M158.445,122.191h2.338c2.89,0,3.406,1.263,3.406,4.3v1.102
					c0,3.036-0.52,4.416-3.406,4.416h-2.338V122.191z"/>
			</g>
		</g>
	</g>
	<g>
		<g>
			<g>
				<defs>
					<rect id="SVGID_29_" width="200" height="200"/>
				</defs>
				<clipPath id="SVGID_30_">
					<use xlink:href="#SVGID_29_"  overflow="visible"/>
				</clipPath>
				<polygon clip-path="url(#SVGID_30_)" fill="#FFFFFF" points="114.824,131.71 106.245,131.71 106.245,118.628 101.773,118.628 
					101.773,135.459 113.367,135.459 				"/>
			</g>
		</g>
	</g>
	<g>
		<g>
			<g>
				<defs>
					<rect id="SVGID_31_" width="200" height="200"/>
				</defs>
				<clipPath id="SVGID_32_">
					<use xlink:href="#SVGID_31_"  overflow="visible"/>
				</clipPath>
				<path clip-path="url(#SVGID_32_)" fill="#FFFFFF" d="M31.121,118.628v16.831h4.457v-4.37H38.6c4.298,0,6.586-0.916,6.586-6.265
					c0-5.352-2.221-6.196-6.566-6.196H31.121z M40.698,124.864c0,2.585-1.095,2.683-2.079,2.683h-3.042v-5.33H38.6
					C39.559,122.217,40.698,122.281,40.698,124.864"/>
			</g>
		</g>
	</g>
	<g>
		<g>
			<g>
				<defs>
					<rect id="SVGID_33_" width="200" height="200"/>
				</defs>
				<clipPath id="SVGID_34_">
					<use xlink:href="#SVGID_33_"  overflow="visible"/>
				</clipPath>
				<polygon clip-path="url(#SVGID_34_)" fill="#FFFFFF" points="150.637,118.628 146.335,118.628 146.335,124.286 140.117,118.628 
					135.609,118.628 135.609,135.459 139.913,135.459 139.913,124.359 146.323,130.507 146.323,135.459 150.637,135.459 				"/>
			</g>
		</g>
	</g>
	<g>
		<g>
			<g>
				<defs>
					<rect id="SVGID_35_" width="200" height="200"/>
				</defs>
				<clipPath id="SVGID_36_">
					<use xlink:href="#SVGID_35_"  overflow="visible"/>
				</clipPath>
				<path clip-path="url(#SVGID_36_)" fill="#FFFFFF" d="M120.698,133.122h6.323l0.854,2.337h4.748l-6.576-16.943h-4.145
					l-6.586,16.943h4.531L120.698,133.122z M123.871,124.439l1.879,5.164h-3.775L123.871,124.439z"/>
			</g>
		</g>
	</g>
	<g>
		<g>
			<g>
				<defs>
					<rect id="SVGID_37_" width="200" height="200"/>
				</defs>
				<clipPath id="SVGID_38_">
					<use xlink:href="#SVGID_37_"  overflow="visible"/>
				</clipPath>
				<path clip-path="url(#SVGID_38_)" fill="#FFFFFF" d="M64.32,126.99c0-7.377-3.206-8.635-8.261-8.635
					c-5.024,0-8.295,1.299-8.295,8.683s3.227,8.688,8.254,8.688C61.07,135.729,64.32,134.381,64.32,126.99 M59.633,127.708
					c0,3.175-0.761,4.317-3.574,4.317c-2.783,0-3.611-1.193-3.611-4.371v-1.326c0-3.18,0.784-4.178,3.57-4.178
					c2.812,0,3.615,1.055,3.615,4.229V127.708z"/>
			</g>
		</g>
	</g>
	<g>
		<g>
			<g>
				<defs>
					<rect id="SVGID_39_" width="200" height="200"/>
				</defs>
				<clipPath id="SVGID_40_">
					<use xlink:href="#SVGID_39_"  overflow="visible"/>
				</clipPath>
				<path clip-path="url(#SVGID_40_)" fill="#FFFFFF" d="M71.865,130.855h2.445l3.202,4.604h5.097l-3.904-5.621
					c1.683-0.509,2.554-1.813,2.554-5.125c0-5.346-2.213-6.086-6.561-6.086h-7.266v16.832h4.433V130.855L71.865,130.855z
					 M71.865,122.217h2.811c1.354,0,2.104,0.389,2.104,2.541c0,2.075-0.616,2.567-2.082,2.567h-2.833V122.217z"/>
			</g>
		</g>
	</g>
	<g>
		<g>
			<g>
				<defs>
					<rect id="SVGID_41_" width="200" height="200"/>
				</defs>
				<clipPath id="SVGID_42_">
					<use xlink:href="#SVGID_41_"  overflow="visible"/>
				</clipPath>
				<polygon clip-path="url(#SVGID_42_)" fill="#FFFFFF" points="93.453,135.459 93.453,122.482 98.826,122.482 100.097,118.628 
					82.351,118.628 83.627,122.482 88.973,122.482 88.973,135.459 				"/>
			</g>
		</g>
	</g>
	<g>
		<g>
			<g>
				<defs>
					<rect id="SVGID_43_" width="200" height="200"/>
				</defs>
				<clipPath id="SVGID_44_">
					<use xlink:href="#SVGID_43_"  overflow="visible"/>
				</clipPath>
				<path clip-path="url(#SVGID_44_)" fill="#EBE72A" d="M126.872,149.033h1.735l2.281,3.279h3.627l-2.785-4.008
					c1.203-0.354,1.83-1.283,1.83-3.645c0-3.814-1.582-4.34-4.678-4.34h-5.173v11.988h3.159L126.872,149.033L126.872,149.033z
					 M126.872,142.895h1.999c0.96,0,1.49,0.271,1.49,1.81c0,1.479-0.44,1.813-1.479,1.813h-2.014L126.872,142.895L126.872,142.895z"
					/>
			</g>
		</g>
	</g>
	<g>
		<g>
			<g>
				<defs>
					<rect id="SVGID_45_" width="200" height="200"/>
				</defs>
				<clipPath id="SVGID_46_">
					<use xlink:href="#SVGID_45_"  overflow="visible"/>
				</clipPath>
				<path clip-path="url(#SVGID_46_)" fill="#EBE72A" d="M105.131,148.939c0-2.006-1.025-2.633-2.132-2.854
					c1.116-0.317,1.823-0.901,1.823-2.789c0-2.472-1.506-2.972-4.318-2.972h-5.493v11.988h5.806
					C103.973,152.313,105.131,151.453,105.131,148.939 M98.175,142.868h2.329c0.671,0,1.109,0.133,1.109,1.069
					c0,0.955-0.438,1.119-1.109,1.119h-2.329V142.868z M98.175,147.368h2.642c0.666,0,1.119,0.297,1.119,1.255
					c0,0.936-0.453,1.213-1.119,1.213h-2.642V147.368z"/>
			</g>
		</g>
	</g>
	<g>
		<g>
			<g>
				<defs>
					<rect id="SVGID_47_" width="200" height="200"/>
				</defs>
				<clipPath id="SVGID_48_">
					<use xlink:href="#SVGID_47_"  overflow="visible"/>
				</clipPath>
				<polygon clip-path="url(#SVGID_48_)" fill="#EBE72A" points="89.594,152.331 89.594,140.323 85.613,140.323 83.183,145.059 
					80.771,140.323 76.783,140.323 76.783,152.331 79.583,152.331 79.583,145.172 81.602,148.725 81.602,152.331 84.767,152.331 
					84.767,148.706 86.56,145.172 86.56,152.331 				"/>
			</g>
		</g>
	</g>
	<g>
		<g>
			<g>
				<defs>
					<rect id="SVGID_49_" width="200" height="200"/>
				</defs>
				<clipPath id="SVGID_50_">
					<use xlink:href="#SVGID_49_"  overflow="visible"/>
				</clipPath>
				<polygon clip-path="url(#SVGID_50_)" fill="#EBE72A" points="59.845,152.313 59.845,143.075 63.667,143.075 64.573,140.323 
					51.941,140.323 52.844,143.075 56.65,143.075 56.65,152.313 				"/>
			</g>
		</g>
	</g>
	<g>
		<g>
			<g>
				<defs>
					<rect id="SVGID_51_" width="200" height="200"/>
				</defs>
				<clipPath id="SVGID_52_">
					<use xlink:href="#SVGID_51_"  overflow="visible"/>
				</clipPath>
				<path clip-path="url(#SVGID_52_)" fill="#EBE72A" d="M143.031,149.825c-1.098,0-3.633-0.315-4.022-0.415l-0.483,2.642
					c0.506,0.122,2.375,0.429,4.479,0.429c3.579,0,5.056-0.92,5.056-3.619c0-2.867-0.769-3.254-4.486-3.932
					c-1.661-0.287-1.893-0.33-1.893-1.156c0-0.646,0.229-0.879,1.389-0.879c1.438,0,2.955,0.221,3.955,0.364l0.486-2.647
					c-0.604-0.193-3.047-0.443-4.423-0.443c-2.866,0-4.612,0.814-4.612,3.55c0,2.772,0.764,3.29,4.234,3.915
					c1.878,0.332,2.096,0.396,2.096,1.207C144.805,149.656,144.548,149.825,143.031,149.825"/>
			</g>
		</g>
	</g>
	<g>
		<g>
			<g>
				<defs>
					<rect id="SVGID_53_" width="200" height="200"/>
				</defs>
				<clipPath id="SVGID_54_">
					<use xlink:href="#SVGID_53_"  overflow="visible"/>
				</clipPath>
				<polygon clip-path="url(#SVGID_54_)" fill="#EBE72A" points="118.699,143.075 119.607,140.323 110.012,140.323 110.012,152.313 
					118.699,152.313 119.607,149.643 113.204,149.643 113.204,147.664 115.535,147.664 116.445,144.93 113.204,144.93 
					113.204,143.075 				"/>
			</g>
		</g>
	</g>
	<g>
		<g>
			<g>
				<defs>
					<rect id="SVGID_55_" width="200" height="200"/>
				</defs>
				<clipPath id="SVGID_56_">
					<use xlink:href="#SVGID_55_"  overflow="visible"/>
				</clipPath>
				<rect x="68.246" y="140.323" clip-path="url(#SVGID_56_)" fill="#EBE72A" width="3.201" height="11.987"/>
			</g>
		</g>
	</g>
</g>
</svg>
