<?xml version="1.0" encoding="utf-8"?>
<!-- Generator: Adobe Illustrator 14.0.0, SVG Export Plug-In . SVG Version: 6.00 Build 43363)  -->
<!DOCTYPE svg PUBLIC "-//W3C//DTD SVG 1.1//EN" "http://www.w3.org/Graphics/SVG/1.1/DTD/svg11.dtd">
<svg version="1.1" id="Layer_1" xmlns="http://www.w3.org/2000/svg" xmlns:xlink="http://www.w3.org/1999/xlink" x="0px" y="0px"
	 width="200px" height="200px" viewBox="0 0 200 200" enable-background="new 0 0 200 200" xml:space="preserve">
<g id="Background">
	<path fill="#DAAA00" d="M37.044,10v75.042C37.044,157.708,100,190,100,190s62.956-32.292,62.956-104.958V10H37.044z"/>
	<polygon fill="#001E62" points="134.777,166.42 136.439,166.42 136.439,171.404 137.032,171.404 137.032,166.42 138.781,166.42 
		138.781,165.826 134.777,165.826 	"/>
	<polygon fill="#001E62" points="143.4,165.826 141.968,170.361 140.531,165.826 139.576,165.826 139.576,171.404 140.18,171.404 
		140.18,166.654 141.665,171.404 142.27,171.404 143.768,166.654 143.768,171.404 144.372,171.404 144.372,165.826 	"/>
	<path fill="#9D2235" d="M39.422,12.378c0,4.459,0,72.665,0,72.665c0,16.201,3.226,31.673,9.586,45.988
		c5.097,11.47,12.212,22.236,21.146,32.003c12.95,14.153,26.06,22.11,29.845,24.255c3.786-2.145,16.896-10.102,29.845-24.255
		c8.937-9.767,16.051-20.533,21.147-32.003c6.36-14.314,9.586-29.787,9.586-45.988c0,0,0-68.206,0-72.665
		C156.088,12.378,43.912,12.378,39.422,12.378z M155.813,85.042c0,15.456-3.058,30.211-9.088,43.856
		c-4.851,10.972-11.633,21.287-20.16,30.66c-10.597,11.646-21.334,18.978-26.563,22.191c-5.23-3.216-15.969-10.546-26.564-22.191
		c-8.528-9.373-15.311-19.688-20.16-30.66c-6.031-13.646-9.089-28.4-9.089-43.856c0,0,0-56.205,0-67.9c11.946,0,99.681,0,111.626,0
		C155.813,28.838,155.813,85.042,155.813,85.042z"/>
	<path fill="#001E62" d="M153.436,19.521c0,14.516,0,65.522,0,65.522c0,15.086-2.975,29.484-8.843,42.797
		c-4.727,10.725-11.345,20.813-19.67,29.991c-9.669,10.657-19.468,17.644-24.923,21.114c-5.455-3.473-15.253-10.457-24.922-21.114
		c-8.326-9.179-14.944-19.269-19.67-29.991c-5.868-13.313-8.843-27.711-8.843-42.797c0,0,0-51.006,0-65.522
		C61.504,19.521,138.496,19.521,153.436,19.521z"/>
	<path fill="#FFFFFF" d="M104.546,71.001c0-2.07-3.979-2.087-3.979-2.807c0-0.522,0.886-0.541,1.35-0.541
		c0.908,0,1.573,0.271,1.35,0.901c0,0,0.969,0.036,0.969-0.505c0-0.827-1.637-0.936-2.719-0.936c-0.808,0-2.607,0.27-2.583,1.404
		c0,1.836,3.954,1.836,3.954,2.898c0,0.396-0.264,0.846-1.297,0.846c-1.246,0-2.278-0.882-1.423-1.512
		c-0.868,0-1.624,0.414-1.624,0.936c0,0.936,1.965,1.169,3.062,1.169C102.948,72.855,104.546,72.316,104.546,71.001z"/>
	<path fill="#FFFFFF" d="M115.738,67.222l-0.023,0.936c0.15-0.216,0.314-0.324,0.491-0.324c0,0,0.742-0.072,1.724-0.072v4.626
		c0,0.18-0.087,0.306-0.275,0.36h2.52c-0.188-0.054-0.275-0.18-0.275-0.36v-4.626c0.981,0,1.725,0.072,1.725,0.072
		c0.177,0,0.341,0.107,0.49,0.324l-0.023-0.936H115.738z"/>
	<path fill="#FFFFFF" d="M110.867,72.352l-3.172-5.382l-3.049,5.382c-0.103,0.126-0.276,0.27-0.518,0.396h1.738
		c-0.24-0.054-0.342-0.27-0.268-0.432l0.44-0.863h2.218l0.479,0.899c0.102,0.197-0.09,0.289-0.275,0.396h2.896
		C111.282,72.712,110.992,72.549,110.867,72.352z M106.371,70.894l0.758-1.422l0.805,1.422H106.371z"/>
	<path fill="#FFFFFF" d="M116.169,71.021c0,0,0.353,1.151-1.563,1.151h-1.008V67.6c0-0.161,0.09-0.287,0.267-0.377h-2.519
		c0.176,0.09,0.276,0.216,0.276,0.377v4.789c0,0.161-0.089,0.287-0.267,0.36h3.918c0.742,0,1.446-0.199,1.687-0.702
		C117.251,71.417,116.169,71.021,116.169,71.021z"/>
	<path fill="#FFFFFF" d="M129.741,72.046c0.29-0.629-0.78-1.025-0.78-1.025s0.34,1.151-1.574,1.151h-0.629V67.6
		c0-0.161,0.088-0.287,0.264-0.377h-2.519c0.19,0.09,0.276,0.216,0.276,0.377v4.789c0,0.161-0.086,0.287-0.276,0.36h3.552
		C128.797,72.748,129.516,72.549,129.741,72.046z"/>
	<path fill="#FFFFFF" d="M147.896,72.172h-1.927v-2.179h1.61c0.229,0,0.363,0.235,0.363,0.235V69.22
		c-0.086,0.162-0.199,0.233-0.363,0.233h-1.61v-1.691h2.005c0.313,0.018,0.553,0.144,0.717,0.342l-0.063-0.882h-4.948
		c0.215,0.09,0.315,0.216,0.315,0.377v4.789c0,0.216-0.177,0.306-0.277,0.342c-0.088-0.036-0.288-0.145-0.415-0.289l-2.984-3.114
		l2.367-1.782c0.238-0.163,0.692-0.324,0.692-0.324h-2.041c0.164,0.107,0.315,0.27,0.103,0.414l-2.631,1.944V67.6
		c0-0.161,0.101-0.287,0.275-0.377h-2.518c0.188,0.09,0.274,0.216,0.274,0.377v4.789c0,0.107-0.036,0.197-0.127,0.27
		c-0.11-0.073-0.263-0.18-0.339-0.306l-3.188-5.382l-3.047,5.382c-0.101,0.126-0.275,0.27-0.517,0.396h1.737
		c-0.228-0.054-0.34-0.27-0.264-0.432l0.439-0.863h2.215l0.479,0.899c0.104,0.197-0.086,0.289-0.275,0.396h5.125
		c-0.178-0.054-0.275-0.18-0.275-0.36v-2.124l2.064,2.141c0.188,0.199-0.189,0.342-0.189,0.342h8.26l0.266-1.062
		C149.207,71.686,148.956,72.172,147.896,72.172z M131.87,70.894l0.754-1.422l0.819,1.422H131.87z"/>
	<path fill="#DAAA00" d="M98.553,79.605c16.495,0,30.167,12.114,32.674,27.973c-2.076-16.884-16.406-29.934-33.77-29.934
		c-18.812,0-34.048,15.3-34.048,34.182c0,13.607,7.921,25.344,19.378,30.852c0.063-0.18,0.139-0.342,0.202-0.521
		c-10.426-5.581-17.527-16.614-17.527-29.322C65.462,94.492,80.283,79.605,98.553,79.605z"/>
	<path fill="#9D2235" d="M112.314,78.4c13.334,5.562,22.715,18.757,22.715,34.147c0,13.247-6.963,24.876-17.4,31.391
		c0.214,0.738,0.378,1.515,0.502,2.287c11.195-6.498,18.737-18.629,18.737-32.545C136.868,97.461,126.645,83.655,112.314,78.4z"/>
	<path fill="#9D2235" d="M66.005,130.4c3.449,6.967,8.989,12.689,15.801,16.363c0.039-0.361,0.102-0.701,0.164-1.063
		C75.221,142.354,69.631,136.99,66.005,130.4z"/>
	<path fill="#DAAA00" d="M120.313,119.566l-10.377-9.813c-2.025-1.835-4.256-2.896-6.711-3.203c0,0,10.955-0.848,10.955-7.201
		c0-3.06-3.828-7.2-15.753-7.2H84.425c0,0,1.863,1.044,1.863,1.927v13.569c1.738,0.849,4.105,1.621,6.448,2.594v-2.646h3.853
		c2.039,0,3.198,0.469,4.269,1.35l11.168,10.404c1.563,1.351,4.66,2.969,7.365,2.969c3.465,0,4.851-1.149,4.851-1.149
		S122.012,121.023,120.313,119.566z M97.395,105.904h-4.659V93.916h4.659c5.854,0,9.771,1.998,9.771,5.994
		C107.166,103.148,103.1,105.904,97.395,105.904z"/>
	<path fill="#DAAA00" d="M92.736,119.331v-1.528c-1.523-1.08-3.941-1.963-6.448-2.972v4.5c0,1.045-1.662,1.927-1.662,1.927h9.885
		C94.511,121.258,92.736,120.376,92.736,119.331z"/>
	<path fill="#9D2235" d="M101.979,101.135v2.986c2.619-0.936,4.117-2.609,4.117-4.211c0-0.216-0.013-0.414-0.037-0.612h-5.628
		C100.428,99.298,101.979,99.694,101.979,101.135z"/>
	<path fill="#9D2235" d="M123.509,122.752c0,0-1.423,2.502-5.767,2.502h-10.325v-8.729l-5.438-5.076v13.753
		c0,1.457-1.548,1.835-1.548,1.835h18.27C126.027,127.036,123.509,122.752,123.509,122.752z"/>
	<path fill="#9D2235" d="M96.462,104.986c0,0,1.889-0.938,1.889-2.646c0-1.654-2.078-2.556-4.546-3.006v2.07
		C95.518,102.195,96.349,103.475,96.462,104.986z"/>
	<path fill="#9D2235" d="M82.536,104.896c0-1.496,1.121-2.701,2.682-3.457v-2.052c-3.689,0.865-7.214,3.005-7.214,6.769
		c0,8.027,17.389,7.775,17.389,14.094c0,3.24-2.268,5.454-6.61,5.454c-4.911,0-9.079-2.556-8.046-6.373c0,0-3.186,0.737-3.186,3.403
		c0,2.447,4.66,4.66,11.232,4.66c8.259,0,11.697-4.266,11.697-8.314C100.479,110.422,82.536,110.602,82.536,104.896z"/>
	<path fill="#FFFFFF" d="M114.857,148.779c-0.051-3.096-1.045-5.957-2.705-8.314l-5.994,0.07l-1.788-5.725
		c-1.386-0.432-2.845-0.666-4.37-0.666c-1.522,0-2.983,0.234-4.368,0.666l-1.789,5.725l-5.994-0.07
		c-1.662,2.357-2.657,5.219-2.707,8.314l4.897,3.457l-1.927,5.688c1.776,2.357,4.231,4.157,7.078,5.146l4.809-3.601l4.812,3.601
		c2.847-0.989,5.301-2.789,7.074-5.146l-1.925-5.688L114.857,148.779z"/>
	<path fill="#DAAA00" d="M88.026,145.126l4.834-3.798l-4.369-0.055c-1.397,2.068-2.254,4.554-2.342,7.234l3.564,2.521
		L88.026,145.126z"/>
	<path fill="#DAAA00" d="M103.803,135.676c-1.207-0.342-2.479-0.521-3.803-0.521c-1.321,0-2.594,0.181-3.802,0.521l-1.297,4.178
		l5.099-3.422l5.1,3.422L103.803,135.676z"/>
	<path fill="#DAAA00" d="M110.289,151.029l3.563-2.521c-0.088-2.683-0.943-5.166-2.343-7.234l-4.368,0.055l4.834,3.798
		L110.289,151.029z"/>
	<path fill="#DAAA00" d="M90.482,153.425l-1.397,4.121c1.585,2.017,3.701,3.582,6.157,4.481l3.5-2.61l-6.145-0.233L90.482,153.425z"
		/>
	<path fill="#DAAA00" d="M107.393,159.184l-6.134,0.233l3.502,2.61c2.455-0.899,4.569-2.465,6.156-4.481l-1.396-4.121
		L107.393,159.184z"/>
	<path fill="#9D2235" d="M85.281,150.4c0,0-0.479,3.078,1.763,5.885l0.554-1.709C87.598,154.576,85.597,152.74,85.281,150.4z"/>
	<path fill="#9D2235" d="M96.777,163.45c0,0,2.783,1.386,6.132,0.126l-1.448-1.063C101.461,162.516,99.106,163.863,96.777,163.45z"
		/>
	<path fill="#9D2235" d="M114.758,150.742l-1.461,1.063c0,0,0.555,2.646-0.566,4.733
		C112.73,156.538,114.922,154.324,114.758,150.742z"/>
	<path fill="#9D2235" d="M106.207,135.514l0.557,1.711c0,0,2.692,0.289,4.33,1.998C111.094,139.223,109.657,136.468,106.207,135.514
		z"/>
	<path fill="#9D2235" d="M89.084,138.936h1.8c0,0,1.107-2.468,3.235-3.492C94.12,135.441,91.048,135.945,89.084,138.936z"/>
	<path fill="#9D2235" d="M105.818,150.076l-1.737-5.364l1.522-3.421l-2.781,2.521H97.18l-2.782-2.521l1.523,3.421l-1.738,5.364
		l-3.249,1.872l3.728-0.396l4.558,3.331l0.78,3.672l0.781-3.672l4.559-3.331l3.729,0.396L105.818,150.076z M98.78,147.016
		l-3.123,4.143l1.826-5.832h5.832L98.78,147.016z"/>
	<path fill="#DAAA00" d="M98.352,24.598c-0.643,0.955,0.693,2.088,0.693,2.088s-0.391,1.008-1.562,1.207
		c-1.411,0.234-2.872,0.144-3.162-2.448c0,0-0.956,2.628-3.16,2.052c-1.435-0.378-2.001-1.513-2.203-2.106
		c1.423-0.163,2.518-1.044,2.518-2.087h-2.09c-0.077-1.063-0.958-1.657-0.958-1.657s-0.868,0.593-0.957,1.657h-2.077
		c0,1.043,1.095,1.925,2.517,2.087c-0.202,0.593-0.768,1.728-2.203,2.106c-2.216,0.576-3.16-2.052-3.16-2.052
		c-0.29,2.592-1.75,2.682-3.16,2.448c-1.172-0.199-1.575-1.207-1.575-1.207s1.348-1.133,0.706-2.088
		c-1.851,1.747-3.3-1.854-5.05-0.053c0,0,2.066,1.079,2.494,2.106c0.427,1.007,0.616,1.368,0.616,1.368l-0.352,1.259l1.347,0.576
		l0.831,1.8c0,0,3.904-1.764,10.022-1.764c6.132,0,10.035,1.764,10.035,1.764l0.831-1.8l1.348-0.576l-0.353-1.259
		c0,0,0.189-0.361,0.618-1.368c0.416-1.027,2.492-2.106,2.492-2.106C101.65,22.744,100.201,26.345,98.352,24.598z"/>
	<path fill="#DAAA00" d="M88.429,31.078c-5.528,0-10.011,1.134-10.011,2.556c0,0.09,0.026,0.198,0.063,0.306
		c2.141-1.134,5.792-1.89,9.947-1.89c4.167,0,7.818,0.756,9.946,1.89c0.051-0.108,0.077-0.216,0.077-0.306
		C98.452,32.212,93.97,31.078,88.429,31.078z"/>
	<path fill="#DAAA00" d="M99.409,48.429c0,0-1.638,6.696-6.321,6.696c-3.991,0-6.17-4.59-6.938-6.606l13.196-4.661
		c0,0-2.153-9.937-10.224-9.937c-5.629,0-11.308,4.32-11.308,12.564c0,7.884,5.856,14.814,12.529,14.814
		c5.515,0,10.476-4.374,10.476-10.224C100.818,48.628,99.962,46.594,99.409,48.429z M84.665,42.345c0-2.25,0.944-3.814,2.304-3.814
		c1.938,0,3.211,2.52,3.778,3.942l-5.793,2.052C84.815,43.912,84.665,43.12,84.665,42.345z"/>
	<path fill="#FFFFFF" d="M90.344,60.238c7.163,0,9.972-6.947,9.354-9.45c0,0-1.889,5.418-6.61,5.418
		c-5.967,0-8.285-8.334-8.285-8.334l13.258-4.68c0,0-2.241-8.208-8.939-8.208c-4.798,0-10.25,3.509-10.25,11.501
		C78.872,53.794,84.249,60.238,90.344,60.238z M86.969,37.468c3.563,0,5.138,5.652,5.138,5.652l-7.845,2.772
		c0,0-0.667-1.783-0.667-3.547C83.594,39.286,85.118,37.468,86.969,37.468z"/>
	<path fill="#DAAA00" d="M145.958,54.154c0.795,2.213,0.051,5.491-5.942,5.491h-3.89V37.072c0-2.323,2.103-3.637,2.103-3.637h-13.6
		c0,0,2.104,1.314,2.104,3.637v22.662c0,0.413-0.176,0.846-0.439,1.278c-0.126-0.216-0.251-0.432-0.378-0.685l-13.521-28.025
		l-10.05,22.104c-2.128,4.663-2.972,6.031-4.068,7.812c-0.969,1.728-6.812,3.907-9.82,3.907c-8.461,0-9.406-13.861-17.754-17.299
		c2.833-1.223,6.082-3.492,6.082-7.487c0-3.601-2.153-7.903-12.427-7.903H51.16c0,0,2.052,1.513,2.052,3.079v24.373
		c0,1.565-2.052,3.059-2.052,3.059h13.509c0,0-2.064-1.494-2.064-3.059v-9.811c6.057,1.621,9.204,22.249,23.482,22.249
		c8.398,0,12.302-9.378,12.302-9.378h7.667c0,0-2.217-1.691-1.774-2.753l1.647-3.978h8.463l1.75,4.014
		c0.504,1.152-0.793,1.764-2.143,2.717h28.354c6.422,0,8.123-3.113,8.123-4.751C150.479,56.08,145.958,54.154,145.958,54.154z
		 M63.07,46.954c0,0-0.265,0-0.453,0c0-1.567,0-7.921,0-9.505c0.188,0,0.453,0,0.453,0c1.989,0,4.105,1.243,4.105,4.752
		C67.175,44.614,64.821,46.954,63.07,46.954z M107.771,53.2l2.277-5.274l2.479,5.274H107.771z"/>
	<path fill="#FFFFFF" d="M66.408,49.042c0,0,9.305-1.602,9.305-7.703c0-5.977-6.875-6.84-11.357-6.84H53.627
		c0,0,0.655,0.863,0.655,2.015v24.373c0,1.134-0.655,1.998-0.655,1.998h8.562c0,0-0.643-0.863-0.643-1.998V49.833
		c8.134,0,10.098,22.429,24.541,22.429c7.215,0,10.968-7.975,10.968-7.975s-4.482,2.898-8.6,2.898
		C77.891,67.186,78.294,49.042,66.408,49.042z M63.07,48.033h-1.524V36.387h1.524c2.342,0,5.175,1.477,5.175,5.814
		C68.246,45.19,65.413,48.033,63.07,48.033z"/>
	<path fill="#FFFFFF" d="M147.256,56.313c-0.314,1.008-0.807,4.393-7.24,4.393h-4.947V37.072c0-1.44,0.668-2.574,0.668-2.574h-8.611
		c0,0,0.666,1.133,0.666,2.574v23.525c0,0.847-0.816,1.494-1.482,1.891c-0.418-0.396-1.021-1.026-1.351-1.692l-12.541-25.974
		l-9.103,20.016c-2.307,5.04-2.91,5.958-4.193,8.045h4.48c0,0-0.703-1.08-0.302-2.088l1.927-4.662h9.871l2.017,4.662
		c0.466,1.098-0.164,2.088-0.164,2.088h25.407c6.082,0,7.064-2.88,7.064-3.689C149.422,57.431,147.256,56.313,147.256,56.313z
		 M106.146,54.262l3.864-8.929l4.191,8.929H106.146z"/>
</g>
<g id="Content">
</g>
</svg>
