<?xml version="1.0" encoding="utf-8"?>
<!-- Generator: Adobe Illustrator 14.0.0, SVG Export Plug-In . SVG Version: 6.00 Build 43363)  -->
<!DOCTYPE svg PUBLIC "-//W3C//DTD SVG 1.1//EN" "http://www.w3.org/Graphics/SVG/1.1/DTD/svg11.dtd">
<svg version="1.1" id="Layer_1" xmlns="http://www.w3.org/2000/svg" xmlns:xlink="http://www.w3.org/1999/xlink" x="0px" y="0px"
	 width="200px" height="200px" viewBox="0 0 200 200" enable-background="new 0 0 200 200" xml:space="preserve">
<g id="Background">
	<path fill="#DAAA00" d="M33.229,10v68.679C33.229,155.76,99.997,190,99.997,190s66.774-34.24,66.774-111.321V10H33.229"/>
	<path fill="#9D2235" d="M35.754,12.526v66.153c0,69.045,55.497,103.352,64.242,108.34c8.751-4.988,64.249-39.295,64.249-108.34
		V12.526H35.754 M159.191,78.679c0,62.359-45.924,94.364-59.195,102.377c-13.27-8.017-59.193-40.021-59.193-102.377V17.578h118.389
		V78.679z"/>
	<path fill="#001E62" d="M43.329,20.101v58.578c0,59.145,42.3,90.4,56.667,99.398c14.371-8.998,56.672-40.253,56.672-99.398V20.101
		H43.329"/>
	<path fill="#FFFFFF" d="M114.859,135.227c-0.047-3.093-1.037-5.961-2.699-8.318l-6.004,0.072l-1.784-5.733
		c-1.384-0.429-2.854-0.655-4.375-0.655c-1.522,0-2.991,0.229-4.369,0.655l-1.79,5.733l-6.003-0.072
		c-1.659,2.357-2.651,5.229-2.699,8.318l4.898,3.467l-1.929,5.688c1.773,2.355,4.229,4.172,7.077,5.146l4.814-3.59l4.818,3.59
		c2.844-0.977,5.297-2.789,7.074-5.146l-1.926-5.688L114.859,135.227"/>
	<path fill="#D39B00" d="M127.491,55.254c6.868,6.451,11.64,15.119,13.183,24.867c-1.246-10.098-5.854-19.142-12.652-25.992
		L127.491,55.254"/>
	<path fill="#DAAA00" d="M83.267,127.925c-16.694-6.036-28.636-22.071-28.636-40.913c0-13.933,6.534-26.322,16.681-34.281
		l-1.375-2.954c-10.92,8.152-17.999,21.202-17.999,35.916c0,20.007,13.094,36.937,31.141,42.648
		C83.137,128.201,83.202,128.063,83.267,127.925"/>
	<path fill="#DAAA00" d="M113.168,86.66c-2.971-2.666-6.245-4.226-9.826-4.686c0,0,16.027-1.225,16.027-10.536
		c0-4.478-5.604-10.534-23.049-10.534h-20.5c0,0,2.728,1.523,2.728,2.824v19.856c2.537,1.245,5.999,2.39,9.444,3.786v-3.851h5.625
		c2.987-0.007,4.695,0.674,6.249,1.979l16.352,15.225c2.29,1.957,6.828,4.344,10.781,4.344c5.071,0,7.101-1.694,7.101-1.694
		s-3.272-0.204-5.76-2.335L113.168,86.66 M94.805,81.045h-6.813V63.479h6.813c8.575,0,14.294,2.938,14.294,8.783
		C109.1,77.006,103.159,81.045,94.805,81.045z"/>
	<path fill="#DAAA00" d="M78.547,94.092v6.606c0,1.517-2.443,2.807-2.443,2.807h14.468c0,0-2.581-1.29-2.581-2.807v-2.239
		C85.76,96.874,82.206,95.571,78.547,94.092"/>
	<path fill="#DAAA00" d="M68.509,39.693c1.078,2.556,1.542,3.449,1.542,3.449l-0.873,3.188l3.381,1.487l2.098,4.519
		c0,0,9.862-4.453,25.34-4.453c15.476,0,25.343,4.453,25.343,4.453l2.098-4.519l3.379-1.487l-0.866-3.188
		c0,0,0.455-0.893,1.534-3.449c1.078-2.557,6.318-5.314,6.318-5.314c-4.425-4.552-8.089,4.552-12.768,0.13
		c-1.608,2.407,1.77,5.309,1.77,5.309s-1.009,2.527-3.955,3.022c-3.554,0.599-7.264,0.376-7.979-6.166c0,0-2.411,6.613-7.977,5.167
		c-3.623-0.944-5.072-3.835-5.584-5.296c3.604-0.439,6.354-2.641,6.354-5.289h-5.252c-0.203-2.707-2.417-4.931-2.417-4.931
		s-2.214,2.224-2.417,4.931h-5.25c0,2.647,2.746,4.85,6.354,5.289c-0.511,1.461-1.96,4.352-5.586,5.296
		c-5.568,1.445-7.977-5.167-7.977-5.167c-0.714,6.542-4.423,6.765-7.977,6.166c-2.942-0.495-3.956-3.022-3.956-3.022
		s3.38-2.901,1.768-5.309c-4.673,4.421-8.343-4.682-12.77-0.13C62.188,34.379,67.434,37.136,68.509,39.693"/>
	<path fill="#DAAA00" d="M125.118,58.1c0.12-0.253,0.187-0.511,0.187-0.773c0-3.548-11.336-6.422-25.308-6.422
		c-13.971,0-25.304,2.874-25.304,6.422c0,0.263,0.061,0.52,0.179,0.773c5.389-2.851,14.623-4.734,25.125-4.734
		C110.498,53.366,119.734,55.249,125.118,58.1"/>
	<path fill="#DAAA00" d="M88.02,131.563l4.836-3.795l-4.369-0.059c-1.405,2.086-2.256,4.568-2.351,7.247l3.564,2.522L88.02,131.563"
		/>
	<path fill="#DAAA00" d="M103.809,122.114c-1.213-0.345-2.49-0.531-3.812-0.531c-1.322,0-2.598,0.187-3.804,0.531l-1.305,4.172
		l5.108-3.425l5.107,3.425L103.809,122.114"/>
	<path fill="#DAAA00" d="M107.141,127.768l4.836,3.795l-1.684,5.916l3.566-2.521c-0.094-2.678-0.944-5.161-2.349-7.247
		L107.141,127.768"/>
	<path fill="#DAAA00" d="M90.48,139.868l-1.402,4.139c1.58,2.019,3.706,3.586,6.158,4.481l3.506-2.614l-6.15-0.228L90.48,139.868"/>
	<path fill="#DAAA00" d="M107.396,145.646l-6.146,0.228l3.507,2.615c2.453-0.896,4.579-2.464,6.162-4.482l-1.403-4.139
		L107.396,145.646"/>
	<path fill="#9D2235" d="M145.645,86.627c0,19.464-11.461,36.234-27.97,43.898c0.252,0.918,0.441,1.857,0.552,2.828
		c17.531-7.473,29.83-24.916,29.83-45.25c0-15.311-6.978-28.984-17.912-37.993l-0.729,0.321
		C139.372,59.29,145.645,72.22,145.645,86.627"/>
	<path fill="#9D2235" d="M81.71,134.023c0.043-0.554,0.108-1.103,0.199-1.644c-11.378-3.901-20.841-11.968-26.583-22.39
		C60.777,120.977,70.206,129.616,81.71,134.023"/>
	<path fill="#9D2235" d="M101.512,74.044v4.373c3.828-1.364,6.03-3.82,6.03-6.155c0-0.315-0.03-0.614-0.063-0.9h-8.229
		C99.247,71.362,101.512,71.934,101.512,74.044"/>
	<path fill="#9D2235" d="M101.512,89.158v20.132c0,2.108-2.265,2.687-2.265,2.687h26.746c10.723,0,7.038-6.291,7.038-6.291
		s-2.094,3.66-8.44,3.66h-15.112V96.575L101.512,89.158"/>
	<path fill="#9D2235" d="M93.439,79.692c0,0,2.76-1.367,2.76-3.874c0-2.431-3.036-3.751-6.651-4.409v3.047
		C92.062,75.603,93.28,77.469,93.439,79.692"/>
	<path fill="#9D2235" d="M65.747,105.675c0,3.589,6.836,6.83,16.459,6.83c12.076,0,17.109-6.262,17.109-12.179
		c0-12.681-26.272-12.422-26.272-20.768c0-2.176,1.653-3.956,3.943-5.066v-2.996c-5.401,1.261-10.567,4.394-10.567,9.915
		c0,11.751,25.457,11.364,25.457,20.612c0,4.761-3.323,8.006-9.67,8.006c-7.198,0-13.3-3.745-11.79-9.348
		C70.416,100.682,65.747,101.77,65.747,105.675"/>
	<path fill="#9D2235" d="M85.263,136.852c0,0-0.469,3.082,1.772,5.879l0.554-1.707C87.589,141.023,85.579,139.2,85.263,136.852"/>
	<path fill="#9D2235" d="M96.772,149.9c0,0,2.787,1.396,6.139,0.131l-1.456-1.055C101.455,148.977,99.105,150.326,96.772,149.9"/>
	<path fill="#9D2235" d="M113.311,138.245c0,0,0.554,2.657-0.568,4.741c0,0,2.188-2.221,2.021-5.799L113.311,138.245"/>
	<path fill="#9D2235" d="M106.209,121.951l0.555,1.707c0,0,2.7,0.292,4.332,2.006C111.096,125.664,109.665,122.896,106.209,121.951"
		/>
	<path fill="#9D2235" d="M94.117,121.875c0,0-3.077,0.507-5.046,3.498h1.797C90.868,125.373,91.983,122.896,94.117,121.875"/>
	<path fill="#9D2235" d="M104.079,131.163l1.528-3.431l-2.785,2.515h-5.646l-2.787-2.515l1.528,3.431l-1.746,5.364l-3.255,1.877
		l3.735-0.396l4.569,3.321l0.776,3.67l0.777-3.67l4.567-3.321l3.734,0.396l-3.253-1.877L104.079,131.163 M98.771,133.461
		l-3.114,4.148l1.823-5.84h5.838L98.771,133.461z"/>
	<path fill="#00134E" d="M109.1,72.262c0-5.845-5.72-8.783-14.292-8.783h-6.813v17.565h6.813
		C103.159,81.045,109.1,77.006,109.1,72.262 M93.439,79.692c-0.16-2.223-1.378-4.089-3.891-5.236v-3.047
		c3.615,0.658,6.651,1.979,6.651,4.409C96.2,78.325,93.439,79.692,93.439,79.692z M101.512,78.417v-4.373
		c0-2.11-2.265-2.683-2.265-2.683h8.231c0.032,0.286,0.063,0.585,0.063,0.9C107.542,74.597,105.34,77.053,101.512,78.417z"/>
	<polyline fill="#001E62" points="136.883,164.986 138.641,164.986 138.641,170.285 139.275,170.285 139.275,164.986 
		141.123,164.986 141.123,164.355 136.883,164.355 136.883,164.986 	"/>
	<polyline fill="#001E62" points="144.51,169.18 142.988,164.355 141.971,164.355 141.971,170.285 142.604,170.285 142.604,165.249 
		144.191,170.285 144.827,170.285 146.42,165.249 146.42,170.285 147.052,170.285 147.052,164.355 146.032,164.355 144.51,169.18 	
		"/>
</g>
<g id="Content">
</g>
</svg>
