<?xml version="1.0" encoding="utf-8"?>
<!-- Generator: Adobe Illustrator 14.0.0, SVG Export Plug-In . SVG Version: 6.00 Build 43363)  -->
<!DOCTYPE svg PUBLIC "-//W3C//DTD SVG 1.1//EN" "http://www.w3.org/Graphics/SVG/1.1/DTD/svg11.dtd">
<svg version="1.1" id="Layer_1" xmlns="http://www.w3.org/2000/svg" xmlns:xlink="http://www.w3.org/1999/xlink" x="0px" y="0px"
	 width="200px" height="200px" viewBox="0 0 200 200" enable-background="new 0 0 200 200" xml:space="preserve">
<polygon points="131.576,186.977 130.348,186.977 130.348,190 129.57,190 129.57,186.982 128.332,186.982 128.332,186.206 
	131.576,186.206 "/>
<polygon points="135.684,190 134.906,190 134.906,187.579 133.838,189.137 132.764,187.579 132.764,190 131.986,190 
	131.986,186.206 132.758,186.206 133.832,187.764 134.917,186.206 135.684,186.206 "/>
<g>
	<path d="M99.142,189.886c-2.651-0.378-19.664-5.182-36.518-18.88c-5.154-4.189-14.991-13.255-22.964-26.879
		c-7.877-13.462-11.871-27.675-11.871-42.244V20.289l4.317-1.301C35.326,18.017,64.584,9.5,100,9.5
		c35.412,0,64.674,8.517,67.895,9.488l4.316,1.301v81.594c0,14.57-3.994,28.783-11.871,42.244
		c-7.974,13.626-17.811,22.689-22.964,26.879c-16.847,13.692-33.865,18.5-36.519,18.88L100,190.008L99.142,189.886z"/>
	<path fill="#FFFFFF" d="M100,10c35.33,0,64.536,8.497,67.75,9.466l3.961,1.194v4.137v77.085c0,14.479-3.971,28.607-11.803,41.991
		c-7.936,13.563-17.721,22.576-22.848,26.744c-16.765,13.624-33.646,18.396-36.273,18.771L100,189.503l-0.787-0.112
		c-2.629-0.375-19.511-5.146-36.273-18.771c-5.126-4.168-14.912-13.185-22.848-26.744c-7.832-13.384-11.803-27.515-11.803-41.991
		V24.798v-4.137l3.961-1.194C35.464,18.497,64.667,10,100,10 M100,9c-35.488,0-64.812,8.536-68.038,9.509L28,19.703l-0.711,0.214
		v0.743v4.137v77.085c0,14.659,4.017,28.957,11.939,42.496c8.013,13.692,17.899,22.804,23.08,27.017
		c16.943,13.771,34.089,18.604,36.763,18.985l0.787,0.112l0.141,0.02l0.141-0.02l0.788-0.112
		c2.676-0.383,19.827-5.223,36.764-18.985c5.181-4.213,15.065-13.32,23.08-27.017c7.922-13.538,11.938-27.836,11.938-42.496V24.798
		v-4.137v-0.743L172,19.703l-3.961-1.194C164.813,17.536,135.482,9,100,9L100,9z"/>
</g>
<path fill="#FFFFFF" d="M100,15.569c-34.844,0-63.815,8.527-66.142,9.229c0,0,0,76.614,0,77.085
	c0,29.985,18.577,53.021,32.594,64.414c15.78,12.825,31.83,17.336,33.548,17.581c1.719-0.245,17.768-4.756,33.548-17.581
	c14.019-11.395,32.595-34.429,32.595-64.414c0-0.471,0-77.085,0-77.085C163.814,24.096,134.846,15.569,100,15.569z"/>
<path d="M162.085,101.883c0,12.748-3.528,25.239-10.485,37.131c-7.168,12.25-15.99,20.379-20.609,24.135
	c-3.072,2.496-6.141,4.645-9.049,6.477l-18.361-33.234c-0.229,0.039-0.461,0.072-0.689,0.105c-0.947,0.131-1.914,0.205-2.903,0.205
	c-11.501,0-20.824-9.324-20.824-20.826c0-5.16,1.881-9.877,4.987-13.516l-0.002-0.004c0.127-0.148,0.252-0.301,0.384-0.445
	L65.04,66.62h-4.497l19.285,34.907c-2.894,4.051-4.601,9-4.601,14.348c0,13.655,11.11,24.764,24.762,24.764
	c0.478,0,0.95-0.016,1.418-0.043l17.159,31.063c-3.188,1.83-6.076,3.257-8.424,4.312c-4.998,2.247-8.688,3.374-10.142,3.756
	c-1.452-0.382-5.143-1.509-10.141-3.756c-5.18-2.328-13.002-6.441-20.848-12.818c-4.621-3.756-13.442-11.885-20.611-24.135
	c-6.957-11.892-10.485-24.384-10.485-37.132V27.867c3.407-0.92,9.572-2.466,17.564-3.958c15.221-2.841,30.2-4.282,44.521-4.282
	c14.321,0,29.299,1.441,44.521,4.282c7.992,1.492,14.158,3.038,17.564,3.958L162.085,101.883L162.085,101.883z"/>
<path fill="#003DA5" d="M144.521,23.909c-15.224-2.841-30.201-4.282-44.521-4.282c-14.321,0-29.299,1.441-44.521,4.282
	c-7.992,1.493-14.157,3.038-17.564,3.958v74.016c0,12.748,3.528,25.24,10.485,37.131c7.168,12.25,15.99,20.379,20.611,24.135
	c7.845,6.377,15.667,10.49,20.848,12.819c4.999,2.247,8.689,3.374,10.141,3.755c1.451-0.381,5.143-1.508,10.141-3.755
	c2.349-1.055,5.237-2.479,8.424-4.312l-0.654-1.189c-1.396,0.803-2.732,1.526-3.99,2.174l-14.946-27.07
	c-0.545-0.02-1.084-0.051-1.62-0.098l0.002,0.004c-15.181-1.332-27.091-14.076-27.091-29.604c0-4.879,1.184-9.48,3.27-13.541
	c0.109-0.209,0.219-0.418,0.332-0.626c0.029-0.054,0.324-0.588,0.449-0.798l-18.932-34.29h-1.565l18.929,34.288
	c-2.452,4.441-3.851,9.543-3.851,14.967c0,16.523,12.958,30.064,29.243,31.025l14.553,26.357c-1.114,0.555-2.157,1.043-3.108,1.473
	c-4.856,2.184-8.373,3.246-9.584,3.584c-1.212-0.338-4.725-1.399-9.584-3.584c-5.106-2.297-12.816-6.354-20.547-12.637
	c-4.549-3.697-13.235-11.701-20.295-23.768c-6.834-11.68-10.299-23.939-10.299-36.443v-72.97c3.731-0.984,9.369-2.343,16.455-3.666
	c15.14-2.827,30.035-4.26,44.271-4.26c14.234,0,29.131,1.433,44.271,4.26c7.084,1.322,12.724,2.682,16.455,3.666v72.972
	c0,12.503-3.465,24.764-10.301,36.443c-7.06,12.064-15.744,20.068-20.296,23.768c-3.004,2.441-6.002,4.543-8.848,6.34l0.655,1.189
	c2.908-1.832,5.978-3.979,9.05-6.477c4.62-3.756,13.442-11.886,20.61-24.136c6.957-11.891,10.484-24.382,10.484-37.13V27.867
	C158.678,26.947,152.512,25.401,144.521,23.909z"/>
<polygon fill="#003DA5" points="142.346,66.619 127.75,66.619 134.762,80.441 "/>
<path fill="#003DA5" d="M66.598,66.619l18.885,34.224c3.136-3.021,7.211-5.069,11.748-5.667L81.812,66.619H66.598z"/>
<polygon fill="#003DA5" points="119.454,108.257 119.479,108.301 127.12,94.371 112.68,66.619 97.345,66.619 117.232,104.073 "/>
<polygon fill="#003DA5" points="127.119,94.377 153.434,94.377 153.434,80.446 134.762,80.446 "/>
<path fill="#003DA5" d="M119.475,108.307c0.92,2.357,1.431,4.918,1.431,7.601c0,2.208-0.345,4.333-0.978,6.333h29.983
	c1.608-4.59,2.67-9.24,3.176-13.934H119.475L119.475,108.307z"/>
<path fill="#003DA5" d="M112.551,150.094h19.846c3.424-3.555,7.297-8.208,10.819-13.929h-38.351L112.551,150.094z"/>
<path fill="#FFFFFF" d="M99.79,96.188l-0.714,3.304c-3.063,1.434-5.239,3.664-5.239,3.664c-1.765,0.061-4.412,0.223-7.117,0.646
	c-0.281-0.885-0.34-1.77-0.351-2.103C89.997,98.2,94.753,96.249,99.79,96.188 M100.274,96.188l0.712,3.304
	c3.065,1.434,5.24,3.664,5.24,3.664c1.766,0.061,4.412,0.223,7.115,0.646c0.281-0.885,0.342-1.77,0.354-2.103
	C110.068,98.2,105.311,96.249,100.274,96.188"/>
<path fill="#C8C9C7" d="M108.582,118.635c-0.919,2.715-3.316,6.863-3.873,7.814c-0.521,0.109-2.451,0.471-4.87,0.471
	c-1.603,0-3.11-0.156-4.483-0.471c-0.555-0.947-2.952-5.1-3.872-7.814c0.88-1.318,3.097-4.484,5.524-6.798h6.051
	C105.484,114.15,107.699,117.314,108.582,118.635 M93.035,104.891c-2.453-0.471-5.016-0.584-6.374-0.606
	c-2.306,2.879-3.89,6.387-4.274,7.278c0.521,3.314,2.084,6.285,2.394,6.83c1.069,0.094,2.181,0.145,3.312,0.145
	c1.525,0,2.639-0.087,3.049-0.123c1.492-3.91,3.412-7.35,3.861-8.139L93.035,104.891z M113.418,104.282
	c-1.361,0.024-3.932,0.138-6.393,0.608l-1.965,5.381c0.45,0.787,2.371,4.229,3.861,8.141c0.409,0.036,1.521,0.123,3.051,0.123
	c1.131,0,2.244-0.049,3.316-0.145c0.313-0.548,1.875-3.521,2.396-6.842C117.297,110.636,115.734,107.158,113.418,104.282"/>
<path fill="#97999B" d="M84.317,126.383l-0.722,0.324c-2.125-3.217-3.249-6.961-3.249-10.834c0-1.287,0.125-2.574,0.37-3.827
	c0.233-0.003,0.692-0.03,1.272-0.144c0.134,0.992,0.664,4.211,2.205,7.188C83.857,120.217,83.375,122.771,84.317,126.383
	 M115.75,126.383l0.721,0.324c2.127-3.217,3.25-6.961,3.25-10.834c0-1.287-0.125-2.574-0.371-3.827
	c-0.231-0.003-0.69-0.03-1.271-0.144c-0.136,0.992-0.664,4.211-2.205,7.188C116.209,120.217,116.689,122.771,115.75,126.383"/>
<path fill="#53565A" d="M90.912,131.4c0.49,1.488,0.833,2.156,0.971,2.395c-3.2-1.457-5.936-3.732-7.963-6.621l0.685-0.148
	C86.269,129.238,89.798,130.909,90.912,131.4 M109.16,131.4c-0.489,1.488-0.832,2.156-0.971,2.395
	c3.199-1.457,5.937-3.732,7.963-6.621l-0.686-0.148C113.805,129.238,110.275,130.909,109.16,131.4"/>
<path fill="#75787B" d="M108.16,131.031c-0.277-0.276-0.709-0.711-1.174-1.206c-0.979-1.042-1.695-1.988-2.145-2.679
	c-4.756,1.143-8.671,0.244-9.623-0.018c-0.919,1.428-2.781,3.379-3.516,4.098c0.063,0.461,0.261,1.752,0.644,2.688
	c0.018,0.039,0.034,0.072,0.052,0.111c2.418,1.018,4.984,1.531,7.631,1.531c2.602,0,5.128-0.498,7.516-1.484
	c0.453-1.004,0.674-2.551,0.726-2.932C108.236,131.105,108.203,131.072,108.16,131.031"/>
<path fill="#97999B" d="M84.193,119.092c-1.542-2.979-2.07-6.197-2.205-7.189c-0.581,0.113-1.039,0.143-1.272,0.146
	c-0.246,1.253-0.37,2.54-0.37,3.827c0,3.873,1.125,7.617,3.249,10.834l0.722-0.324C83.375,122.771,83.856,120.217,84.193,119.092"/>
<path d="M84.604,127.025l-0.685,0.146c2.027,2.889,4.764,5.164,7.963,6.621c-0.139-0.236-0.481-0.904-0.971-2.396
	C89.798,130.91,86.269,129.238,84.604,127.025"/>
<path fill="#FFFFFF" d="M89.738,58.803h1.621v3.104c-0.004,0.294-0.011,0.705-0.337,1.038c-0.348,0.354-0.829,0.371-1.283,0.384
	H88.81V62.26h0.365c0.345-0.012,0.546-0.025,0.564-0.468v-2.989H89.738z"/>
<path fill="#FFFFFF" d="M96.492,58.9c1.039,0.422,1.404,1.372,1.404,2.148c0,0.422-0.102,0.858-0.327,1.229
	c-0.142,0.237-0.319,0.443-0.538,0.609c-0.614,0.487-1.345,0.602-2.166,0.602c-1.578,0-2.226-0.558-2.558-1.012
	c-0.308-0.411-0.431-0.847-0.431-1.366c0-0.506,0.129-1.008,0.417-1.417c0.634-0.897,1.711-1.044,2.513-1.057
	C95.371,58.631,95.972,58.688,96.492,58.9 M93.544,61.06c0,0.699,0.377,1.422,1.358,1.422c0.225,0,0.455-0.025,0.654-0.127
	c0.5-0.251,0.673-0.839,0.673-1.295c0-0.494-0.218-1.404-1.327-1.417C93.883,59.629,93.544,60.438,93.544,61.06"/>
<path fill="#FFFFFF" d="M99.976,59.97c0,0.065,0.018,0.122,0.05,0.161c0.11,0.141,0.564,0.244,0.815,0.295
	c0.308,0.069,0.623,0.128,0.931,0.199c0.197,0.037,0.392,0.083,0.582,0.161c0.604,0.223,0.795,0.673,0.795,1.082
	c0,0.301-0.103,0.578-0.235,0.775c-0.377,0.571-1.142,0.82-2.358,0.82c-0.456,0-1.36-0.038-1.892-0.512
	c-0.39-0.346-0.449-0.763-0.474-0.968l1.595-0.045c0.057,0.295,0.36,0.52,1.001,0.52c0.167,0,0.402-0.02,0.563-0.108
	c0.107-0.065,0.227-0.192,0.227-0.347c0-0.211-0.176-0.301-0.303-0.347c-0.197-0.063-1.217-0.243-1.442-0.294
	c-0.178-0.038-0.346-0.082-0.518-0.141c-0.173-0.063-0.897-0.321-0.897-1.147c0-0.34,0.141-0.653,0.365-0.885
	c0.506-0.526,1.417-0.576,1.917-0.576c0.554,0,1.098,0.077,1.38,0.173c0.846,0.268,0.954,0.903,1,1.147l-1.589,0.09
	c-0.041-0.148-0.116-0.417-0.795-0.417C100.476,59.605,99.976,59.637,99.976,59.97"/>
<polygon fill="#FFFFFF" points="108.396,58.803 108.396,59.823 105.248,59.823 105.248,60.56 108.157,60.56 108.157,61.586 
	105.242,61.586 105.242,62.303 108.459,62.303 108.459,63.328 103.627,63.328 103.627,58.803 "/>
<path fill="#FFFFFF" d="M71.85,59.97c0,0.065,0.02,0.122,0.051,0.161c0.109,0.141,0.565,0.244,0.814,0.295
	c0.308,0.069,0.622,0.128,0.929,0.199c0.199,0.037,0.39,0.083,0.582,0.161c0.604,0.223,0.796,0.673,0.796,1.082
	c0,0.301-0.103,0.578-0.237,0.775c-0.379,0.571-1.141,0.82-2.359,0.82c-0.454,0-1.358-0.038-1.891-0.512
	c-0.39-0.346-0.448-0.763-0.473-0.968l1.595-0.045c0.058,0.295,0.359,0.52,1,0.52c0.167,0,0.403-0.02,0.564-0.108
	c0.109-0.065,0.225-0.192,0.225-0.347c0-0.211-0.173-0.301-0.301-0.347c-0.2-0.063-1.218-0.243-1.443-0.294
	c-0.179-0.038-0.346-0.082-0.521-0.141c-0.17-0.063-0.896-0.321-0.896-1.147c0-0.34,0.141-0.653,0.367-0.885
	c0.505-0.526,1.416-0.576,1.915-0.576c0.55,0,1.096,0.077,1.378,0.173c0.847,0.268,0.956,0.903,1,1.147l-1.59,0.09
	c-0.038-0.148-0.116-0.417-0.794-0.417C72.349,59.605,71.85,59.637,71.85,59.97"/>
<polygon fill="#FFFFFF" points="84.352,58.803 84.384,61.279 82.193,58.803 80.853,58.803 80.853,62.557 81.188,63.328 
	82.454,63.328 82.429,60.835 84.601,63.328 85.948,63.328 85.948,58.803 "/>
<polygon fill="#FFFFFF" points="78.766,58.803 76.919,58.803 74.972,63.328 76.747,63.328 77.848,60.06 78.381,61.592 
	77.743,61.592 77.407,62.592 78.722,62.592 78.964,63.328 80.728,63.328 "/>
<rect x="46.569" y="60.374" fill="#FFFFFF" width="20.324" height="1.363"/>
<path fill="#FFFFFF" d="M106.693,36.638h4.877v18.693h-3.818l-1.059-3.26V36.638z M122.762,36.638h-5.701l-5.438,8.986l5.873,9.708
	h5.703l-5.873-9.708L122.762,36.638z"/>
<polygon fill="#FFFFFF" points="101.344,55.328 100.559,52.944 95.094,52.944 96.376,49.045 99.275,49.045 97.121,42.416 
	92.896,55.328 87.941,55.328 94.086,36.65 100.179,36.65 106.327,55.328 "/>
<path fill="#FFFFFF" d="M80.041,51.629c-1.018,0-1.889-0.323-2.449-0.908c-0.91-0.888-0.91-2.028-0.91-2.863V36.65h-4.949v10.584
	v0.082c0.055,2.095,0.112,4.264,2.008,6.11c1.692,1.623,3.619,2.347,6.241,2.347c2.979,0,4.608-0.94,6.105-2.353
	c2.301-2.19,2.301-5.183,2.301-7.544V36.65h-4.932v11.208c0,0.834,0,1.979-0.951,2.896C82.155,51.081,81.342,51.629,80.041,51.629"
	/>
<path fill="#FFFFFF" d="M67.503,51.343c0.941-1.214,1.584-2.475,2-3.784c0.424-1.342,0.61-2.646,0.61-3.909
	c0-1.66-0.29-3.224-0.922-4.696c-0.634-1.475-1.457-2.755-2.548-3.847c-1.094-1.09-2.371-1.957-3.836-2.602
	c-1.463-0.642-3.036-0.966-4.719-0.966c-1.682,0-3.255,0.316-4.719,0.951c-1.463,0.63-2.747,1.499-3.851,2.6
	c-1.103,1.103-1.931,2.389-2.564,3.864c-0.634,1.472-0.923,3.036-0.923,4.696c0,1.679,0.289,3.25,0.923,4.712
	c0.634,1.462,1.462,2.738,2.564,3.828c1.104,1.092,2.388,1.953,3.851,2.587c1.463,0.633,3.037,0.949,4.719,0.949
	c0.917,0,1.82-0.098,2.704-0.295c0.886-0.196,1.786-0.512,2.706-0.949l0.041-0.031l0.028,0.048l0.515,0.815h5.941l-2.472-3.896
	L67.503,51.343z M50.971,43.634c0-3.958,3.142-7.167,7.101-7.167c1.485,0,2.854,0.451,3.986,1.223
	c0.042,0.03,0.083,0.062,0.125,0.091c0.051,0.036,0.101,0.072,0.151,0.108c1.729,1.307,2.836,3.393,2.836,5.743
	c0,1.242-0.309,2.41-0.856,3.427h-5.54l1.994,3.09l0.051,0.078l-0.044,0.039c-0.066,0.027-0.132,0.054-0.199,0.08
	c-0.024,0.008-0.048,0.018-0.071,0.027c-0.072,0.026-0.143,0.05-0.215,0.073c-0.042,0.014-0.083,0.028-0.124,0.04
	c-0.061,0.019-0.123,0.035-0.185,0.053c-0.052,0.014-0.102,0.029-0.153,0.042c-0.06,0.015-0.12,0.028-0.18,0.041
	c-0.054,0.012-0.106,0.025-0.161,0.036c-0.068,0.014-0.136,0.025-0.206,0.037c-0.045,0.008-0.091,0.017-0.137,0.024
	c-0.09,0.014-0.181,0.024-0.272,0.034c-0.026,0.003-0.051,0.007-0.078,0.01c-0.239,0.024-0.481,0.036-0.727,0.036
	c-0.123,0-0.244-0.003-0.365-0.009C53.92,50.598,50.971,47.469,50.971,43.634"/>
<path fill="#FFFFFF" d="M146.443,43.512c-1.51-0.29-2.5-0.596-2.5-1.619c0-0.866,0.771-1.364,2.113-1.364
	c0.457,0,2.043,0.051,3.271,0.705c0.69,0.384,1.015,0.807,1.272,1.155l3.176-2.901c-0.582-0.651-1.193-1.32-2.387-1.954
	c-1.424-0.766-3.199-1.169-5.141-1.169c-3.475,0-6.027,1.359-7.002,3.728c-0.305,0.708-0.473,1.536-0.473,2.331
	c0,3.579,2.615,4.764,4.582,5.314c0.242,0.063,0.797,0.178,1.438,0.313c1.188,0.249,2.663,0.558,3.065,0.718
	c0.922,0.323,1.058,0.959,1.058,1.308c0,1.438-2.104,1.549-2.747,1.549c-0.837,0-1.736-0.157-2.473-0.43
	c-0.793-0.28-1.301-0.624-1.668-0.987c-0.232-0.232-0.436-0.469-0.613-0.709c-0.018-0.022-0.053-0.078-0.104-0.16
	c-0.071-0.109-0.131-0.21-0.131-0.21l-3.48,2.301h-8.574v-3.85h6.66v-3.9h-6.66v-3.128h7.992V36.65H124.26v18.678h13.625v-2.772
	c0.797,0.942,2.027,2.087,4.129,2.736c1.176,0.371,2.473,0.55,3.967,0.55c2.893,0,5.074-0.791,6.487-2.353
	c0.688-0.752,1.503-2.07,1.503-4.076C153.971,44.899,150.143,44.195,146.443,43.512"/>
<rect x="132.766" y="60.374" fill="#C8102E" width="20.666" height="1.363"/>
<path fill="#C8102E" d="M111.51,59.467c0.762-0.084,1.109-0.342,1.43-0.587h1.135v4.364h-1.508v-2.85h-1.057V59.467z"/>
<path fill="#C8102E" d="M117.041,61.771c-1.063,0-1.951-0.419-1.951-1.409c0-0.426,0.201-0.966,0.876-1.275
	c0.599-0.27,1.493-0.284,1.661-0.284c1.514,0,2.492,0.625,2.492,2.151c0,0.483-0.092,1.339-0.838,1.905
	c-0.566,0.425-1.268,0.482-1.903,0.482c-0.356,0-0.801-0.025-1.25-0.167c-0.696-0.22-0.927-0.599-1.043-1.029l1.687-0.041
	c0.104,0.124,0.236,0.284,0.65,0.284c0.264,0,0.534-0.057,0.739-0.225c0.348-0.284,0.38-0.708,0.386-0.895
	C118.32,61.462,117.977,61.771,117.041,61.771 M116.637,60.297c0,0.527,0.707,0.533,0.894,0.533c0.64,0,0.968-0.173,0.968-0.527
	c0-0.425-0.359-0.566-1.012-0.547C117.145,59.769,116.637,59.833,116.637,60.297"/>
<path fill="#C8102E" d="M127.55,58.989h1.737v2.532h0.756v1.02h-0.77v0.787h-1.441v-0.787h-2.848v-0.95L127.55,58.989z
	 M127.838,60.137l-1.371,1.384h1.371V60.137z"/>
<path fill="#C8102E" d="M125.402,59.823c-2.752,1.825-2.659,3.505-2.659,3.505h-1.718c0,0,0.115-2.274,2.886-3.505h-3.296v-1.021
	h4.787V59.823z"/>
<line fill="none" x1="79.162" y1="115.873" x2="120.904" y2="115.873"/>
</svg>
