<?xml version="1.0" encoding="utf-8"?>
<!-- Generator: Adobe Illustrator 14.0.0, SVG Export Plug-In . SVG Version: 6.00 Build 43363)  -->
<!DOCTYPE svg PUBLIC "-//W3C//DTD SVG 1.1//EN" "http://www.w3.org/Graphics/SVG/1.1/DTD/svg11.dtd">
<svg version="1.1" id="Layer_1" xmlns="http://www.w3.org/2000/svg" xmlns:xlink="http://www.w3.org/1999/xlink" x="0px" y="0px"
	 width="200px" height="200px" viewBox="0 0 200 200" enable-background="new 0 0 200 200" xml:space="preserve">
<path fill="#1A1818" d="M141.848,110.292c7.668,2.106,14.504,6.343,19.877,11.963c7.445,7.791,12.021,18.228,12.021,29.377
	c0,10.919-4.393,20.621-11.368,27.517c-6.052,5.981-14.146,9.945-23.233,10.854l0,0l-14.539-12.273H75.397L60.859,190l0,0
	c-9.093-0.906-17.185-4.87-23.236-10.852c-6.978-6.896-11.368-16.6-11.368-27.519c0-11.149,4.574-21.586,12.022-29.377
	c5.37-5.62,12.208-9.854,19.876-11.963l0,0l11.138-36.634h4.231l0,0c-6.717-6.76-10.877-16.062-10.877-26.304
	C62.646,26.781,79.427,10,100,10c20.574,0,37.354,16.781,37.354,37.354c0,10.243-4.16,19.544-10.875,26.304l0,0h4.229
	L141.848,110.292L141.848,110.292z"/>
<path fill="#D2D755" stroke="#1A1818" stroke-width="0.0921" stroke-miterlimit="1" d="M145.784,114.773l0.938,0.41l0.928,0.434
	l0.914,0.453l0.905,0.476l0.896,0.499l0.889,0.521l0.442,0.27l0,0c0.394,0.256,0.785,0.516,1.176,0.78
	c0.382,0.265,0.766,0.536,1.145,0.811c0.375,0.276,0.748,0.56,1.117,0.845c0.365,0.289,0.729,0.582,1.09,0.881l0,0l0.715,0.607
	l0.707,0.625l0.762,0.729l0.74,0.739l0.721,0.756l0.699,0.771l0.686,0.787l0.667,0.806l0.652,0.82l0.638,0.84l0,0
	c0.271,0.387,0.536,0.773,0.8,1.166c0.322,0.488,0.64,0.982,0.946,1.481c0.243,0.397,0.482,0.805,0.72,1.211
	c0.177,0.307,0.351,0.614,0.521,0.927c0.216,0.42,0.428,0.848,0.635,1.271c0.199,0.424,0.396,0.851,0.589,1.278
	c0.187,0.429,0.368,0.859,0.546,1.293c0.174,0.435,0.344,0.872,0.506,1.313c0.161,0.442,0.318,0.89,0.471,1.338l0,0l0.146,0.45l0,0
	c0.165,0.565,0.322,1.138,0.473,1.712c0.145,0.569,0.279,1.146,0.406,1.722c0.082,0.385,0.161,0.773,0.237,1.162
	c0.065,0.415,0.13,0.833,0.188,1.251c0.056,0.413,0.104,0.829,0.151,1.246c0.043,0.412,0.083,0.829,0.117,1.244
	c0.028,0.415,0.06,0.833,0.082,1.25c0.019,0.42,0.032,0.842,0.045,1.264l0,0l0.007,0.421l0,0c-0.007,0.469-0.02,0.938-0.033,1.408
	c-0.021,0.468-0.045,0.938-0.072,1.406l0,0l-0.061,0.627l-0.068,0.623l-0.076,0.617l-0.088,0.613l-0.097,0.608l-0.104,0.606
	l-0.113,0.604l-0.125,0.603l-0.134,0.599l-0.144,0.597l-0.152,0.598l-0.164,0.596l-0.176,0.596l-0.185,0.596l-0.192,0.598
	l-0.205,0.595l-0.278,0.713l0,0c-0.285,0.705-0.587,1.401-0.906,2.093c-0.162,0.342-0.327,0.685-0.497,1.022
	c-0.336,0.661-0.679,1.325-1.06,1.963c-0.337,0.552-0.679,1.101-1.03,1.642l0,0l-0.176,0.27l-0.358,0.505l-0.362,0.497l-0.368,0.488
	l-0.378,0.479l-0.381,0.474l-0.388,0.465l-0.396,0.459l-0.401,0.451l-0.409,0.445l-0.417,0.438l-0.424,0.435l-0.435,0.427
	L159.5,177.8l-0.449,0.416l-0.459,0.41l-0.468,0.404l0,0c-0.326,0.263-0.653,0.521-0.985,0.778c-0.33,0.25-0.664,0.5-1,0.741
	c-0.34,0.239-0.68,0.476-1.021,0.707c-0.347,0.229-0.694,0.454-1.048,0.677c-0.354,0.219-0.713,0.435-1.072,0.646l0,0l-0.362,0.208
	l-1.321,0.695l-0.678,0.319l-0.684,0.31l-0.686,0.296l-0.688,0.28l-0.689,0.267l-0.697,0.252l-0.699,0.237l-0.704,0.225
	l-0.708,0.208l-0.714,0.196l-0.718,0.18l-0.725,0.165l-0.728,0.151l-0.733,0.136l-0.738,0.121l-0.658,0.095l-14.383-12.145H74.319
	L59.935,186.92l-0.61-0.087l-0.692-0.112l-0.688-0.125l-0.683-0.139l-0.679-0.15l-0.674-0.164l-0.671-0.178l-0.666-0.189
	l-0.662-0.201l-0.66-0.215l-0.655-0.229l-0.652-0.24l-0.65-0.252l-0.646-0.264l-0.645-0.277l-0.641-0.287l0,0
	c-0.377-0.187-0.753-0.377-1.125-0.567c-0.368-0.195-0.734-0.396-1.1-0.601c-0.359-0.207-0.719-0.418-1.075-0.633
	c-0.354-0.218-0.707-0.441-1.057-0.668c-0.351-0.23-0.696-0.467-1.042-0.706l0,0l-0.344-0.243l0,0
	c-0.294-0.222-0.586-0.447-0.878-0.672c-0.48-0.383-0.957-0.771-1.427-1.169l0,0l-0.423-0.383l-0.417-0.386l-0.409-0.393
	l-0.401-0.396l-0.395-0.401l-0.387-0.403l-0.382-0.41l-0.373-0.415l-0.729-0.849l-0.355-0.436l-0.351-0.439l-0.345-0.445
	l-0.675-0.912l-0.33-0.467l-0.413-0.64l0,0c-0.403-0.639-0.789-1.284-1.161-1.94c-0.243-0.438-0.481-0.883-0.712-1.326
	c-0.228-0.451-0.451-0.906-0.668-1.362c-0.205-0.476-0.404-0.952-0.596-1.432c-0.186-0.478-0.365-0.958-0.536-1.44
	c-0.126-0.361-0.249-0.729-0.367-1.092c-0.154-0.492-0.304-0.986-0.443-1.48l0,0l-0.104-0.375l0,0
	c-0.123-0.519-0.24-1.041-0.35-1.562c-0.103-0.519-0.198-1.04-0.286-1.56c-0.063-0.395-0.121-0.784-0.176-1.178
	c-0.068-0.527-0.13-1.058-0.184-1.587l0,0l-0.037-0.397l0,0c-0.028-0.479-0.051-0.954-0.067-1.432
	c-0.013-0.476-0.021-0.947-0.021-1.423c0.002-0.474,0.01-0.948,0.024-1.422c0.018-0.479,0.04-0.955,0.069-1.43
	c0.039-0.417,0.082-0.835,0.128-1.25c0.05-0.412,0.104-0.825,0.163-1.235l0,0l0.127-0.816l0,0c0.093-0.545,0.193-1.088,0.302-1.631
	c0.114-0.543,0.237-1.09,0.365-1.631c0.124-0.455,0.253-0.91,0.385-1.361c0.135-0.453,0.275-0.903,0.417-1.354l0,0l0.22-0.618
	l0.229-0.61l0.235-0.604l0.243-0.601l0.253-0.592l0.26-0.588l0.268-0.584l0.276-0.578l0.285-0.572l0.294-0.571l0.303-0.565
	l0.312-0.563l0.322-0.563l0.331-0.56l0.34-0.558l0.35-0.553l0,0c0.331-0.488,0.667-0.975,1.008-1.451
	c0.205-0.285,0.413-0.571,0.622-0.854l0,0l0.426-0.539l0.431-0.53l0.437-0.521l0.442-0.516l0.448-0.504l0.455-0.498l0.462-0.487
	l0.468-0.482l0.477-0.475l0.483-0.47l0.491-0.461l0.499-0.453l0.508-0.446l0.516-0.441l0.526-0.437l0.534-0.432l0.819-0.612
	l0.831-0.597l0,0c0.421-0.291,0.845-0.578,1.269-0.859l0,0l0.429-0.278l0.593-0.358l0.598-0.352l0.599-0.339l0.603-0.328
	l0.604-0.315l0.609-0.31l0.614-0.296l0.617-0.286l0.622-0.274l0.627-0.267l0.632-0.256l0.638-0.245l0.645-0.234l0.649-0.228
	l0.657-0.217l0.661-0.206l2.238-0.639l10.969-36.081h9.019l-1.26-1.289l0,0c-0.78-0.791-1.564-1.583-2.342-2.379
	c-0.462-0.477-0.924-0.959-1.381-1.444l0,0l-0.899-0.98l-0.441-0.498l-0.436-0.502l-0.427-0.508l-0.42-0.515l0,0
	c-0.25-0.331-0.496-0.665-0.74-1.002c-0.237-0.334-0.473-0.675-0.704-1.016c-0.226-0.341-0.449-0.687-0.669-1.035
	c-0.215-0.349-0.428-0.702-0.636-1.058c-0.206-0.359-0.409-0.722-0.607-1.086l0,0l-0.196-0.368l0,0
	c-0.161-0.329-0.32-0.66-0.477-0.993c-0.2-0.44-0.397-0.885-0.587-1.333c-0.139-0.334-0.274-0.673-0.407-1.011
	c-0.173-0.454-0.34-0.912-0.5-1.373l0,0l-0.233-0.697l0,0c-0.14-0.477-0.273-0.958-0.399-1.439
	c-0.121-0.479-0.234-0.959-0.343-1.442c-0.102-0.482-0.198-0.967-0.286-1.454c-0.063-0.367-0.124-0.736-0.181-1.106l0,0
	l-0.053-0.371l0,0c-0.047-0.432-0.092-0.866-0.131-1.299c-0.034-0.433-0.065-0.867-0.093-1.302l0,0l-0.041-0.868l0.034-2.652l0,0
	c0.043-0.54,0.094-1.081,0.149-1.621c0.071-0.642,0.152-1.283,0.244-1.921c0.081-0.536,0.169-1.071,0.262-1.606l0,0l0.851-3.293
	l1.159-3.156l1.451-3.005l1.728-2.837l1.984-2.652l2.226-2.447l2.448-2.225l2.65-1.985l2.838-1.727l3.005-1.452l3.156-1.159
	l3.29-0.85l3.408-0.522L100,12.95l3.51,0.179l3.409,0.522l3.289,0.85l3.155,1.159l3.007,1.452l2.838,1.727l2.651,1.985l2.447,2.225
	l2.226,2.447l1.983,2.652l1.728,2.837l1.452,3.005l1.158,3.156l0.851,3.29l0.522,3.411l0,0c0.045,0.64,0.09,1.28,0.118,1.919
	c0.021,0.457,0.035,0.917,0.046,1.372c0.004,0.276,0.006,0.552,0.006,0.826c-0.004,0.527-0.039,1.052-0.073,1.576
	c-0.031,0.43-0.069,0.858-0.111,1.286c-0.047,0.427-0.099,0.851-0.153,1.276c-0.062,0.425-0.127,0.85-0.197,1.272
	c-0.074,0.426-0.155,0.852-0.24,1.276l0,0l-0.092,0.425l0,0c-0.09,0.358-0.182,0.718-0.275,1.074
	c-0.132,0.472-0.271,0.941-0.413,1.408c-0.11,0.349-0.226,0.698-0.343,1.043c-0.121,0.347-0.246,0.692-0.373,1.035
	c-0.132,0.345-0.27,0.69-0.406,1.032c-0.168,0.381-0.342,0.762-0.518,1.139c-0.182,0.373-0.363,0.745-0.551,1.113
	c-0.188,0.365-0.385,0.729-0.582,1.089c-0.201,0.36-0.408,0.718-0.618,1.073c-0.216,0.356-0.437,0.71-0.657,1.061l0,0l-0.229,0.35
	l0,0c-0.207,0.297-0.418,0.593-0.629,0.887c-0.213,0.289-0.432,0.578-0.648,0.864c-0.293,0.377-0.594,0.751-0.896,1.12
	c-0.311,0.368-0.623,0.731-0.94,1.092l0,0l-0.488,0.536l-5.452,5.618h9.02l10.969,36.081l0,0c0.834,0.237,1.669,0.479,2.498,0.729
	c0.296,0.092,0.594,0.187,0.887,0.276c0.493,0.16,0.982,0.328,1.471,0.504l0,0l0.961,0.38L145.784,114.773L145.784,114.773z
	 M147.857,118.35c-0.359-0.186-0.724-0.367-1.084-0.543c-0.362-0.171-0.729-0.341-1.094-0.505c-0.367-0.161-0.736-0.319-1.105-0.474
	l0,0l-0.748-0.297l0,0c-0.602-0.23-1.207-0.453-1.821-0.65c-0.694-0.219-1.396-0.426-2.097-0.626
	c-0.764-0.219-1.532-0.431-2.299-0.649l0,0l-10.834-35.639h-12.849l9.318-9.601l0,0c0.294-0.322,0.585-0.647,0.872-0.975
	c0.277-0.328,0.555-0.659,0.824-0.993l0,0l0.529-0.676l0.512-0.688l0.498-0.702l0,0c0.242-0.358,0.481-0.72,0.719-1.084l0,0
	l0.232-0.372l0.39-0.67l0,0c0.313-0.56,0.614-1.125,0.907-1.697l0,0l0.174-0.349l0,0c0.164-0.357,0.326-0.715,0.482-1.077
	c0.15-0.357,0.299-0.716,0.441-1.077c0.139-0.361,0.271-0.723,0.402-1.087c0.127-0.366,0.25-0.733,0.369-1.103
	c0.114-0.373,0.229-0.747,0.336-1.123l0,0l0.104-0.384l0.206-0.89l0.181-0.884l0.157-0.883l0.135-0.883l0.111-0.887l0,0
	c0.047-0.446,0.09-0.893,0.126-1.34c0.029-0.455,0.056-0.91,0.074-1.365l0,0l-0.002-1.029L132,46.128l0,0
	c-0.023-0.508-0.055-1.02-0.088-1.529l0,0l-0.037-0.518l-0.484-3.171l-0.791-3.062l-1.078-2.936l-0.498-1.063l-0.514-1.034
	l-0.541-1.021l-0.574-1.024l-0.642-0.975l-0.655-0.944l-0.334-0.466l-0.693-0.924l-0.358-0.464l-0.772-0.871l-0.781-0.84
	l-0.803-0.822l-0.834-0.813l-0.89-0.752l-0.896-0.721l-0.91-0.698l-0.941-0.688l-0.99-0.621l-0.992-0.587l-1.006-0.563l-1.037-0.548
	l-2.869-1.216l-3-0.937l-3.118-0.641l-3.226-0.328h-3.292l-3.225,0.328L92.01,16.32l-3,0.937l-1.09,0.446l-1.062,0.465l-1.049,0.491
	l-1.054,0.526l-2.642,1.607l-0.942,0.688l-0.911,0.699L79.368,22.9l-0.89,0.752l-0.833,0.813l-0.803,0.822l-0.781,0.84l-0.773,0.87
	l-0.71,0.925l-0.678,0.93l-0.656,0.944l-0.642,0.975l-0.573,1.023l-0.54,1.021l-0.515,1.034l-0.497,1.064l-1.079,2.936l-0.789,3.06
	l-0.288,1.799l-0.215,1.786l0,0c-0.041,0.405-0.076,0.811-0.108,1.215l0,0l-0.033,2.466l0.052,1.018l0.076,1.004l0.103,1.001
	l0.127,1.007l0,0c0.067,0.393,0.139,0.784,0.213,1.173c0.078,0.385,0.162,0.769,0.248,1.15c0.091,0.381,0.187,0.761,0.284,1.137
	c0.104,0.378,0.213,0.755,0.325,1.129c0.116,0.377,0.238,0.753,0.363,1.127l0,0l0.131,0.378l0.232,0.597l0.239,0.587l0.25,0.579
	l0.258,0.571l0.268,0.564l0.277,0.557l0.286,0.55l0.297,0.544l0.307,0.539l0.317,0.534l0.328,0.528l0.337,0.525l0.35,0.52
	l0.359,0.518l0.372,0.514l0.384,0.511l0,0c0.182,0.225,0.365,0.45,0.548,0.671c0.309,0.369,0.622,0.735,0.938,1.094l0,0
	l9.839,10.163H73.226l-10.835,35.639l-4.077,1.172l-0.932,0.313l-0.916,0.333l-0.903,0.354l-0.89,0.373l-0.877,0.396l-0.865,0.416
	l-0.851,0.438l-0.842,0.457l-0.828,0.479l-0.817,0.5l-0.806,0.521l-0.796,0.539l-0.785,0.563l-0.774,0.582l-0.765,0.604
	l-0.757,0.627l-0.96,0.854l-0.526,0.5l-0.514,0.505l-0.503,0.513l-0.493,0.519l-0.482,0.524l-0.472,0.531l-0.462,0.539l-0.451,0.547
	l-0.442,0.557l-0.434,0.563l-0.423,0.57l-0.416,0.58l-0.406,0.589l-0.397,0.598l-0.39,0.606l-0.382,0.619l0,0
	c-0.274,0.479-0.545,0.963-0.81,1.449c-0.157,0.291-0.313,0.586-0.467,0.883l0,0l-0.268,0.56l-0.258,0.56l-0.248,0.56l-0.239,0.559
	l-0.229,0.563l-0.22,0.563l-0.213,0.565l-0.202,0.567l-0.194,0.57l-0.186,0.574l-0.176,0.578l-0.169,0.581l-0.16,0.589l-0.15,0.593
	l-0.145,0.601l-0.136,0.604l0,0c-0.062,0.328-0.123,0.659-0.181,0.988c-0.092,0.55-0.179,1.101-0.259,1.652
	c-0.041,0.393-0.083,0.784-0.118,1.18c-0.043,0.518-0.078,1.037-0.105,1.558c-0.017,0.388-0.03,0.776-0.04,1.166
	c-0.006,0.392-0.007,0.782-0.005,1.173c0.006,0.396,0.016,0.792,0.028,1.187l0,0l0.041,0.594l0.05,0.586l0.06,0.582l0.066,0.576
	l0.075,0.573l0.084,0.572l0.094,0.568l0.102,0.566l0.111,0.564l0.12,0.563l0.131,0.563l0.139,0.563l0.149,0.563l0.159,0.563
	l0.169,0.563l0.179,0.567l0,0c0.239,0.675,0.492,1.346,0.757,2.012l0,0l0.117,0.288l0.294,0.653l0.303,0.643l0.314,0.633
	l0.322,0.621l0.335,0.612l0.346,0.604l0.357,0.596l0.368,0.586l0.381,0.578l0.393,0.572l0.405,0.564l0.418,0.561l0.432,0.553
	l0.445,0.547l0.458,0.544l0.475,0.538l1.101,1.145l0.511,0.484l0.516,0.471l0.521,0.457l0.526,0.443l0.534,0.434l0.541,0.42
	l0.548,0.409l0.555,0.396l0.564,0.389l0.571,0.374l0.58,0.362l0.59,0.354l0.599,0.342l0.609,0.333l0.617,0.322l0.63,0.313l0,0
	c0.56,0.254,1.122,0.504,1.688,0.737c0.632,0.263,1.279,0.484,1.927,0.703c0.42,0.136,0.843,0.269,1.266,0.396
	c0.423,0.119,0.85,0.234,1.276,0.346l0,0l0.859,0.205l0,0c0.435,0.097,0.871,0.188,1.308,0.271l0,0l0.531,0.099l14.232-12.018
	h53.088l14.231,12.018l0,0c0.438-0.078,0.879-0.162,1.314-0.252c0.404-0.088,0.811-0.182,1.209-0.275
	c0.503-0.125,1.002-0.258,1.499-0.398c0.302-0.088,0.603-0.178,0.899-0.27c0.418-0.145,0.835-0.291,1.25-0.441l0,0l0.818-0.315l0,0
	c0.409-0.164,0.817-0.337,1.225-0.509l0,0l0.677-0.319l0.665-0.33l0.652-0.342l0.645-0.354l0.632-0.365l0.623-0.377l0.612-0.391
	l0.604-0.402l0.596-0.416l0.586-0.43l0.578-0.441l0.57-0.457l0.563-0.472l0.557-0.483l0.549-0.5l0.545-0.515l1.102-1.144
	l0.476-0.539l0.457-0.543l0.445-0.549l0.433-0.551l0.418-0.562l0.404-0.563l0.395-0.572l0.381-0.578l0.367-0.588l0.356-0.596
	l0.347-0.604l0.334-0.612l0.323-0.621l0.313-0.633l0.304-0.642l0.295-0.654l0.601-1.521l0.19-0.562l0.183-0.558l0.172-0.555
	l0.162-0.557l0.152-0.557l0.145-0.559l0.134-0.557l0.127-0.563l0.114-0.561l0.106-0.563l0.099-0.566l0.09-0.568l0.08-0.574
	l0.072-0.576l0.12-1.17l0.037-0.662l0,0c0.032-0.656,0.054-1.314,0.062-1.976l0,0l-0.012-0.628l-0.021-0.621l-0.031-0.617
	l-0.04-0.613l-0.051-0.608l-0.061-0.606l-0.07-0.605l-0.077-0.604l-0.091-0.604l-0.1-0.604l-0.107-0.601l-0.116-0.601l-0.131-0.604
	l-0.14-0.602l-0.146-0.604l-0.159-0.605l-0.191-0.639l0,0c-0.196-0.636-0.405-1.268-0.621-1.894l0,0l-0.224-0.58l-0.229-0.567
	l-0.233-0.563l-0.242-0.56l-0.25-0.553l-0.258-0.547l-0.265-0.543l-0.273-0.537l-0.278-0.533l-0.289-0.529l-0.297-0.526
	l-0.309-0.522l-0.314-0.521l-0.322-0.519l-0.332-0.518l-0.342-0.517l0,0c-0.322-0.452-0.647-0.9-0.98-1.347l0,0l-0.4-0.528l0,0
	c-0.354-0.457-0.729-0.897-1.104-1.337c-0.306-0.35-0.612-0.692-0.924-1.033c-0.313-0.337-0.632-0.673-0.95-1
	c-0.326-0.328-0.655-0.653-0.984-0.973c-0.339-0.317-0.681-0.635-1.021-0.943l0,0l-0.352-0.313l-0.813-0.67l-0.822-0.646
	l-0.833-0.622l-0.85-0.602l-0.86-0.578l-0.879-0.559l-0.896-0.537l-0.916-0.52L147.857,118.35L147.857,118.35z"/>
<path fill="#D2D755" d="M74.816,168.652c0,0.955-1.064,1.592-2.576,1.592c-1.232,0-2.185-0.358-2.185-0.756
	c0-0.278,0.279-0.479,0.783-0.479c0.225,0,1.121,0.238,1.568,0.238c0.449,0,0.785-0.198,0.785-0.479
	c0-0.317-0.224-0.438-1.177-0.676c-1.4-0.279-1.848-0.637-1.848-1.313c0-0.875,0.951-1.512,2.408-1.512
	c1.009,0,1.793,0.316,1.793,0.717c0,0.277-0.28,0.438-0.673,0.438c-0.224,0-0.896-0.158-1.177-0.158
	c-0.447,0-0.783,0.158-0.783,0.396c0,0.199,0.336,0.357,0.896,0.477c0.168,0.041,0.28,0.08,0.337,0.08
	C74.257,167.541,74.816,167.979,74.816,168.652L74.816,168.652z M82.161,169.25h-2.464l-0.225,0.479l0,0
	c-0.168,0.316-0.393,0.478-0.729,0.478c-0.447,0-0.728-0.239-0.728-0.519c0-0.119,0-0.237,0.056-0.316l0,0l1.736-3.339l0,0
	c0.28-0.478,0.617-0.677,1.177-0.677c0.504,0,0.896,0.199,1.12,0.597l0,0l1.681,3.419l0,0c0.056,0.119,0.112,0.236,0.112,0.316
	c0,0.317-0.337,0.519-0.784,0.519c-0.393,0-0.616-0.159-0.784-0.519l0,0L82.161,169.25L82.161,169.25z M80.929,166.507l-0.784,1.75
	h1.569L80.929,166.507L80.929,166.507z M89.024,167.262v2.147l0,0c0,0.517-0.28,0.755-0.784,0.755c-0.504,0-0.729-0.238-0.729-0.755
	l0,0v-3.341l0,0c0-0.479,0.225-0.715,0.673-0.715c0.335,0,0.56,0.078,0.784,0.356l0,0l2.801,2.624v-2.229l0,0
	c0-0.518,0.279-0.754,0.784-0.754c0.504,0,0.729,0.236,0.729,0.754l0,0v3.42l0,0c0,0.478-0.225,0.677-0.673,0.677
	c-0.336,0-0.561-0.119-0.84-0.396l0,0L89.024,167.262L89.024,167.262z M102.031,168.336v-2.227l0,0c0-0.52,0.279-0.756,0.783-0.756
	s0.785,0.236,0.785,0.756l0,0v2.584l0,0c0,1.033-0.729,1.551-1.961,1.551c-1.01,0-1.738-0.318-1.738-0.756
	c0-0.318,0.28-0.519,0.672-0.519c0.28,0,0.782,0.238,1.009,0.238C101.92,169.21,102.031,169.012,102.031,168.336L102.031,168.336z
	 M109.089,167.777c0,0.875,0.673,1.473,1.625,1.473s1.625-0.598,1.625-1.473c0-0.912-0.616-1.469-1.625-1.469
	S109.089,166.865,109.089,167.777L109.089,167.777z M107.465,167.777c0-1.51,1.288-2.504,3.249-2.504s3.248,0.994,3.248,2.504
	c0,1.473-1.287,2.506-3.248,2.506S107.465,169.25,107.465,167.777L107.465,167.777z M122.266,168.652
	c0,0.955-1.063,1.592-2.578,1.592c-1.229,0-2.185-0.358-2.185-0.756c0-0.278,0.28-0.479,0.784-0.479
	c0.225,0,1.121,0.238,1.568,0.238c0.446,0,0.783-0.198,0.783-0.479c0-0.317-0.225-0.438-1.178-0.676
	c-1.398-0.279-1.85-0.637-1.85-1.313c0-0.875,0.953-1.512,2.41-1.512c1.009,0,1.791,0.316,1.791,0.717
	c0,0.277-0.278,0.438-0.672,0.438c-0.225,0-0.896-0.158-1.177-0.158c-0.448,0-0.784,0.158-0.784,0.396
	c0,0.199,0.336,0.357,0.896,0.477c0.167,0.041,0.279,0.08,0.336,0.08C121.704,167.541,122.266,167.979,122.266,168.652
	L122.266,168.652z M127.089,165.395h1.736l0,0c0.672,0,1.063,0.16,1.063,0.518c0,0.316-0.337,0.479-1.063,0.479l0,0h-1.232v0.875
	h1.064l0,0c0.728,0,1.063,0.157,1.063,0.477c0,0.357-0.337,0.519-1.063,0.519l0,0h-1.064v0.873h1.232l0,0
	c0.729,0,1.12,0.159,1.12,0.478c0,0.357-0.394,0.519-1.12,0.519l0,0h-1.736l0,0c-0.784,0-1.009-0.159-1.009-0.676l0,0v-3.302l0,0
	C126.08,165.592,126.305,165.395,127.089,165.395L127.089,165.395z"/>
<path fill="#EF3340" d="M68.446,109.016h13.91l1.266-4.164h-13.91l1.266-4.162h13.91l1.266-4.163H72.242l1.267-4.162h13.91
	l1.266-4.162H74.773l1.266-4.163h13.91l5.868-19.299l0,0c0.506,0.042,1.016,0.064,1.532,0.064c9.986,0,18.131-7.981,18.131-17.767
	c0-9.785-8.146-17.766-18.131-17.766c-7.505,0-13.968,4.506-16.718,10.898l0,0l5.839,8.747l0,0
	c-3.286,3.458-5.263,7.875-5.263,12.677c0,3.071,0.809,5.984,2.251,8.59c-7.064-5.136-11.672-13.462-11.672-22.829
	c0-12.873,8.697-23.779,20.516-27.144l0,0l3.108,3.576l1.543-4.48l0,0c1.001-0.108,2.017-0.166,3.046-0.166
	c6.76,0,12.978,2.399,17.844,6.387l0,0l-1.138,4.566l4.518-1.295l0,0c4.351,4.966,6.99,11.462,6.99,18.556
	c0,0.713-0.027,1.419-0.081,2.12l0,0l-4.38,1.682l3.641,2.948l0,0c-1.83,7.412-6.604,13.685-13.004,17.499l0,0l-3.846-2.594
	l-0.325,4.635l0,0c-0.983,0.384-1.993,0.716-3.026,0.989l0,0l2.859,9.407h13.91l1.266,4.163h-13.91l1.268,4.162h13.91l1.266,4.162
	h-13.91l1.266,4.162h13.91l1.266,4.164h-13.91l1.268,4.162h13.91l1.266,4.162h-13.91l1.613,5.312h14.539l0,0
	c1.063,0.081,2.252,0.243,3.498,0.489c1.543,0.305,2.961,0.691,4.129,1.109c0.023,0.01,0.05,0.02,0.074,0.028
	c1.993,0.803,3.858,1.749,5.688,2.879c11.48,7.356,18.031,20.391,15.777,34.026c-1.935,10.129-8.367,18.121-17.91,22.022
	c-1.037,0.397-2.082,0.753-3.148,1.046c5.854-3.771,9.794-8.715,10.715-13.443c-3.688,3.647-10.127,6.283-17.678,6.965l0,0
	l11.08-11.326l1.416-15.752l5.02-4.647l-11.453-4.905l-3.729-9.685l-5.906,4.664h-13.67l-6.771-12.517h-8.613h-7.151H87.82
	l-6.773,12.517H67.369l-5.907-4.664l-3.73,9.685l-11.452,4.905l5.019,4.647l1.415,15.752l11.08,11.324l0,0
	c-7.55-0.68-13.989-3.314-17.677-6.965c0.921,4.731,4.867,9.679,10.725,13.45c-9.682-2.614-17.082-9.864-20.191-19.461
	c-4.099-13.8,1.601-27.93,12.979-36.339c2.541-1.814,5.2-3.258,8.072-4.345c1.088-0.366,2.364-0.706,3.74-0.978
	c1.241-0.244,2.428-0.406,3.487-0.488l0,0h14.55l1.613-5.311h-13.91L68.446,109.016L68.446,109.016z"/>
<path fill="#FFFFFF" stroke="#EF3340" stroke-width="0.3141" stroke-miterlimit="1" d="M76.112,143.723h-3.478l-7.176,15.229h13.119
	l-1.904,4.044H57.99l11.113-23.588h9.04l0.699-1.482h5.551l-4.508,9.569h-5.551L76.112,143.723L76.112,143.723z"/>
<polygon fill="#FFFFFF" stroke="#EF3340" stroke-width="0.3141" stroke-miterlimit="1" points="136.718,162.996 127.58,162.996 
	131.378,154.936 128.458,154.936 124.659,162.996 119.747,162.996 123.545,154.936 123.506,154.936 124.081,153.713 
	111.559,153.713 110.98,154.936 118.982,154.936 115.186,162.996 76.674,162.996 86.883,141.325 84.523,141.325 86.696,136.713 
	89.056,136.713 90.631,136.713 94.521,136.713 88.622,149.232 84.064,158.906 88.031,158.906 89.902,154.936 99.139,154.936 
	99.714,153.713 90.478,153.713 92.588,149.232 105.283,149.232 100.727,158.906 103.917,158.906 104.988,158.906 113.132,158.906 
	113.707,157.684 105.563,157.684 109.546,149.232 126.23,149.232 129.956,141.325 127.775,141.325 129.947,136.713 132.125,136.713 
	133.884,136.713 137.043,136.713 131.145,149.232 139.234,149.232 134.678,158.906 138.645,158.906 "/>
<polygon fill="#1A1818" stroke="#EF3340" stroke-width="0.3141" stroke-miterlimit="1" points="97.265,158.906 91.371,158.906 
	91.947,157.684 97.84,157.684 "/>
</svg>
