<?xml version="1.0" encoding="utf-8"?>
<!-- Generator: Adobe Illustrator 14.0.0, SVG Export Plug-In . SVG Version: 6.00 Build 43363)  -->
<!DOCTYPE svg PUBLIC "-//W3C//DTD SVG 1.1//EN" "http://www.w3.org/Graphics/SVG/1.1/DTD/svg11.dtd">
<svg version="1.1" id="Layer_1" xmlns="http://www.w3.org/2000/svg" xmlns:xlink="http://www.w3.org/1999/xlink" x="0px" y="0px"
	 width="200px" height="200px" viewBox="0 0 200 200" enable-background="new 0 0 200 200" xml:space="preserve">
<path d="M186.123,50.569l1.027-4.906l-1.854-1.558c-0.085-0.079-9.407-7.993-14.185-16.423l-1.161-2.055h-4.765h-0.231l-0.224,0.026
	c-0.045,0.005-0.877,0.097-2.42,0.244l11.297-9.059l-9.355-1.008c-0.176-0.023-17.495-1.91-26.541-4.099L130.549,10l2.52,6.635
	c-7.98-1.015-18.834-1.896-32.465-1.896c-13.771,0-24.71,0.9-32.714,1.929L70.415,10l-7.162,1.73
	c-9.047,2.189-26.37,4.076-26.545,4.099l-9.354,1.008l11.438,9.171c-2.205-0.21-3.39-0.346-3.441-0.353l-0.235-0.03H30.28
	l-1.203,1.838C23.614,35.85,14.669,44.194,14.572,44.28l-1.708,1.592l1.113,4.873c0.21,0.882,5.074,21.799,17.264,48.826
	c4.867,10.802,11.356,23.488,19.651,36.462H12.85c0,0,6.991,7.742,7.018,7.761c0.306,0.374,1.068,1.906,1.573,3.354
	c0,0.949,0,33.078,0,33.078l29.582-6.211c0,0,0-0.74,0-1.412c5.487-0.752,16.044-2.096,26.063-2.791
	c5.15,5.426,10.688,10.635,16.632,15.482l5.77,4.704l5.855-4.592c6.331-4.968,12.188-10.3,17.609-15.851
	c11.801,1.047,22.466,2.99,25.848,3.646c0.915,0.632,1.913,1.188,3.009,1.596c0,0-0.132-0.094-0.199-0.131
	c0.703,0.309,2.16,0.829,5.732,2.098c0.004,0,1.342,0.5,1.342,0.5c5.037,1.84,8.549,0.188,10.196-0.965
	c2.037-1.42,4.474-4.26,4.524-9.688v0.189l0.139-2.644l0.008-0.194c0.004-0.392,0.008-0.824,0.008-1.281
	c0-2.088-0.151-4.777-1.144-7.343c0.438-0.216,0.896-0.444,0.896-0.444s0.153-7.881,0.172-8.754
	c0.141-0.377,0.707-1.395,1.483-2.311l3.905-4.589l-1.096-1.752c-0.825-1.345-1.588-1.343-4.387-1.334l-1.984,0.004l-17.913,0.019
	l-0.523,0.127c0.021-0.002-0.282,0.067-0.282,0.067c-0.957,0.224-2.677,0.821-4.414,2.142c-0.064,0-0.186,0-0.344,0
	c9.271-13.888,16.319-27.551,21.467-39.064C181.486,72.413,185.943,51.447,186.123,50.569z"/>
<path fill="#9FA3C7" d="M181.378,49.575l0.448-2.149l-1.559-1.808l-0.149-0.108c-0.07-0.06-7.745-5.695-12.207-14.162l-0.5-0.96
	l-1.077,0.104c-0.15,0.014-7.141,0.644-18.031,1.314l0.713-3.669c2.771,0.745,4.008,1.21,4.027,1.219l0.83,0.313l0.706-0.557
	l13.168-10.56l-3.744-0.404c-0.176-0.022-17.642-1.928-26.844-4.147l-2.866-0.695l1.05,2.754l1.292,3.414
	c-8.072-1.203-20.121-2.405-36.031-2.405c-16.12,0-28.278,1.235-36.354,2.454c0.023-0.003,0.045-0.007,0.068-0.01l2.351-6.207
	l-2.866,0.695c-9.199,2.22-26.668,4.125-26.844,4.147l-3.74,0.404l13.866,11.116l0.833-0.313c0.022-0.009,1.328-0.501,4.271-1.284
	l0.748,3.839c-11.599-0.708-19.051-1.405-19.202-1.419l-0.986-0.093l-0.531,0.837c-5.128,8.086-13.248,15.384-13.33,15.451
	l-0.714,0.639l0.534,2.332c0.198,0.86,4.978,21.358,16.953,47.922c5.813,12.89,13.966,28.508,24.786,44.028
	c-5.142,0-9.069,0-9.806,0c0.033-0.059,1.244-2.488,1.244-2.488h-1.308H19.8c0,0,2.253,2.484,2.328,2.566
	c0.306,0.475,1.815,2.987,2.398,4.937c0,0.254,0,29.803,0,29.803l23.41-4.921c0,0,0-1.45,0-1.581
	c4.518-0.655,19.63-2.733,32.695-3.419c-0.486-0.512-0.965-1.029-1.444-1.545c-13.558,0.801-28.803,2.964-32.178,3.463l-0.691,0.098
	c0,0,0,1.605,0,1.679c-0.407,0.086-19.55,4.103-20.178,4.235c0-0.123,0-28.059,0-28.059l-0.034-0.104
	c-0.646-2.263-2.365-5.095-2.679-5.539c0.183,0,25.686,0,25.843,0c-0.094,0.19-1.241,2.494-1.241,2.494h13.558
	c-0.013-0.02-0.024-0.035-0.037-0.055h2.729c-11.735-16.311-20.471-32.936-26.588-46.509c-11.89-26.377-16.767-47.298-16.811-47.5
	l-0.3-1.323l1.028-0.878c8.272-7.018,11.243-12.948,11.266-13.004l0.695-1.397l1.547,0.153c0.124,0.015,6.658,0.688,18.237,1.343
	l1.241,6.369l1.604-0.43c0.176-0.048,17.868-4.656,44.405-4.656c26.541,0,44.232,4.607,44.41,4.656l1.608,0.43l1.259-6.468
	c10.784-0.622,16.955-1.229,17.08-1.244l1.479-0.146l0.701,1.308c3.719,6.89,11.207,12.996,11.279,13.055l1.055,0.855l-0.275,1.331
	c-0.045,0.209-4.479,21.078-16.258,47.44c-6.077,13.591-14.865,30.25-26.914,46.614h2.75c-0.012,0.019-0.024,0.035-0.037,0.054
	h11.279l0.244-0.246c1.344-1.406,2.887-1.886,3.48-2.02c0,0,0.295-0.071,0.306-0.071c0.083,0,16.194-0.024,17.265-0.024
	c-0.344,0.418-2.529,3.107-2.529,5.024c0-0.016-0.119,5.89-0.123,6.054c-0.143,0.076-3.28,1.619-3.28,1.619l0.878,0.803
	c2.328,2.115,2.598,5.603,2.598,8.341c0,0.434-0.008,0.849-0.02,1.237c0,0.015,0,0.041,0,0.041c0,0.019-0.131,2.541-0.131,2.541
	c-0.029,2.795-0.882,4.771-2.521,5.922c-1.596,1.113-3.576,1.248-5.89,0.398l-0.612-0.234l-0.078-0.029l-5.147-1.835
	c-0.662-0.239-0.933-0.332-1.08-0.374c0.013,0,0.058,0.008,0.058,0.008c-0.973-0.352-1.828-0.845-2.558-1.457l-0.161-0.135
	l-0.199-0.045c-1.802-0.357-15.172-2.959-29.582-4.077c-0.017,0.017-0.029,0.03-0.045,0.047c-0.965-0.074-1.933-0.142-2.902-0.201
	c-5.24,5.371-10.9,10.529-17.016,15.325l-1.396,1.104l-1.379-1.125c-5.688-4.64-10.992-9.625-15.932-14.821
	c-0.975,0.021-1.962,0.052-2.958,0.092c0.44,0.476,0.881,0.95,1.328,1.421c5.006,5.271,10.384,10.326,16.153,15.033l2.758,2.253
	l2.806-2.201c6.15-4.823,11.848-10.008,17.119-15.405c14.517,1.024,28.313,3.674,30.571,4.121c0.83,0.661,1.769,1.199,2.836,1.594
	c0.009,0.008,6.19,2.207,6.19,2.207l-0.086-0.033l0.764,0.296c2.832,1.038,5.316,0.841,7.363-0.591
	c2.102-1.478,3.182-3.892,3.215-7.192c0,0-0.045,0.045-0.049,0.045c0.053-0.308,0.086-0.69,0.111-1.271l0.07-1.293l0.003-0.108
	c0.013-0.407,0.013-0.841,0.013-1.302c0-2.709-0.259-6.119-2.344-8.639c0.628-0.313,2.135-1.055,2.135-1.055l0.143-7.061
	c0-1.012,1.318-3.021,2.212-4.063l2.213-2.597l-3.412,0.008l-17.556,0.02l-0.48,0.114c-0.695,0.161-2.422,0.726-3.994,2.226
	c-0.158,0-8.974,0-9.479,0c11.09-15.576,19.288-31.23,25.063-44.138C176.868,70.847,181.198,50.426,181.378,49.575z M153.6,27.902
	c0,0-1.293-0.499-4.285-1.299l0.847-4.335l-0.165-0.047l0.02-0.032l-10.668-6.109c9.713,2.013,24.492,3.613,24.492,3.613
	L153.6,27.902z M145.125,20.994c-1.675-0.36-3.915-0.796-6.725-1.246l-1.258-3.321L145.125,20.994z M62.577,19.786
	c-2.58,0.417-4.665,0.82-6.267,1.16l7.366-4.138l-1.132,2.983C62.556,19.789,62.566,19.787,62.577,19.786z M51.889,26.539
	c-3.164,0.838-4.524,1.363-4.524,1.363l-10.238-8.209c0,0,15.624-1.691,25.303-3.785l-11.265,6.329l-0.107,0.031l0.979,5.023
	L51.889,26.539z M145.413,38.496c0,0-17.72-4.712-44.81-4.712c-27.083,0-44.804,4.712-44.804,4.712L52.857,23.37
	c0,0,16.471-4.742,47.747-4.742c31.283,0,47.758,4.742,47.758,4.742L145.413,38.496z"/>
<path fill="#FFFFFF" d="M69.107,32.457c0.273-0.344,0.359-0.837,0.277-1.509l-0.128-1.035c-0.142-1.114-0.399-1.562-1.042-1.793
	l-2.668-0.931c-0.381-0.127-0.657-0.224-0.706-0.646l0.101-0.456l0.307-0.168l0.258,0.078c0.209,0.168,0.328,0.553,0.366,0.841
	c0.213-0.075,2.738-0.938,2.881-0.99c-0.019-0.175-0.074-0.609-0.074-0.609c-0.139-1.091-0.822-1.569-2.045-1.412l-3.217,0.396
	c-1.222,0.146-1.771,0.781-1.637,1.865l0.119,1.001c0.131,1.035,0.564,1.353,1.436,1.644l2.286,0.754
	c0.501,0.165,0.636,0.299,0.726,0.972c0.041,0.389,0.041,0.837-0.396,0.89c-0.311,0.037-0.534-0.288-0.612-0.912
	c0,0-0.041-0.358-0.063-0.526c-0.217,0.078-2.755,0.994-2.896,1.042c0.019,0.139,0.139,1.091,0.139,1.091
	c0.131,1.095,0.818,1.577,2.044,1.424l3.217-0.396C68.413,32.992,68.847,32.794,69.107,32.457z"/>
<path fill="#FFFFFF" d="M80.497,30.293c0,0-1.678-7.402-1.719-7.578c-0.168,0.015-4.667,0.396-5.156,0.441
	c0.179,0.146,0.392,0.366,0.392,0.628c0,0.007,0,0.019,0,0.034c0,0-0.545,8.336-0.564,8.572c0.225-0.019,2.848-0.239,3.02-0.254
	c0.004-0.168,0.038-2.224,0.038-2.224l1.087,0.433c0,0,0.418,2.376,0.471,2.665c0.231-0.165,2.825-1.999,3.15-2.224
	C80.979,30.72,80.646,30.589,80.497,30.293z M76.421,27.742l0.067-2.844l0.201-0.015l0.639,3.377L76.421,27.742z"/>
<path fill="#FFFFFF" d="M87.533,27.088c0,0,1.424,5.101,1.498,5.358c0.213-0.135,2.919-1.936,3.236-2.149
	c-0.213-0.075-0.512-0.22-0.52-0.504c0,0-0.225-7.473-0.228-7.671c-0.188,0.008-2.471,0.071-2.653,0.075
	c0.004,0.198,0.108,3.777,0.108,3.777l-0.198,0.034c0,0-1.277-3.628-1.326-3.766c-0.139,0.003-2.772,0.082-3.24,0.097
	c0.157,0.142,0.337,0.352,0.337,0.609c0,0,0.25,8.366,0.254,8.568c0.19-0.004,2.47-0.075,2.653-0.079
	c-0.004-0.198-0.128-4.315-0.128-4.315L87.533,27.088z"/>
<path fill="#FFFFFF" d="M104.202,22.496l-0.045,5.975c-0.013,0.336-0.063,0.531-0.188,0.654l-0.332,0.116
	c-0.43-0.003-0.496-0.396-0.496-0.747c0-0.011,0.012-0.904,0.012-1.11c-0.229,0.049-2.701,0.628-2.847,0.665
	c0,0.198-0.007,0.991-0.007,1.013c0,0.837,0.149,1.372,0.448,1.689c0.275,0.277,0.702,0.407,1.341,0.415l3.083,0.026
	c1.434,0.015,1.896-0.508,1.909-2.137c0,0,0.062-6.902,0.062-7.107c-0.185-0.004-2.854-0.026-3.26-0.026
	C104.029,22.084,104.202,22.323,104.202,22.496z"/>
<path fill="#FFFFFF" d="M139.158,24.54c-0.254-0.042-5.188-0.818-5.646-0.89c0.09,0.142,0.18,0.321,0.18,0.52
	c0,0.037,0,0.063-0.008,0.089c0,0-1.297,8.318-1.33,8.516c0.194,0.026,4.615,0.721,4.808,0.755c0.028-0.179,0.271-1.734,0.299-1.913
	c-0.18-0.03-1.913-0.299-1.913-0.299l0.332-2.126c0,0,1.729,0.269,1.913,0.299c0.024-0.179,0.272-1.738,0.3-1.909
	c-0.184-0.026-1.904-0.299-1.904-0.299l0.187-1.222c0,0,1.778,0.276,1.925,0.295C138.352,26.239,139.055,24.752,139.158,24.54z"/>
<path fill="#FFFFFF" d="M127.182,23.019l-3.217-0.374c-0.643-0.071-1.145,0.03-1.49,0.303c-0.3,0.243-0.485,0.624-0.541,1.128
	l-0.117,1.001c-0.118,1.035,0.227,1.45,1.007,1.936l2.038,1.271c0.453,0.284,0.548,0.445,0.473,1.118
	c-0.041,0.366-0.123,0.572-0.266,0.688l-0.329,0.082l-0.242-0.134c-0.115-0.153-0.146-0.389-0.146-0.602
	c0-0.109,0.012-0.213,0.02-0.299c0,0,0.038-0.355,0.057-0.523c-0.229,0.026-2.906,0.313-3.061,0.333
	c-0.012,0.142-0.12,1.091-0.12,1.091c-0.015,0.104-0.019,0.198-0.019,0.291c0,0.381,0.098,0.703,0.291,0.949
	c0.271,0.34,0.735,0.557,1.379,0.628l3.215,0.374c0.639,0.071,1.113-0.02,1.441-0.284c0.344-0.27,0.545-0.733,0.627-1.402
	l0.118-1.035c0.12-1.113-0.024-1.618-0.59-1.992l-2.377-1.532c-0.34-0.217-0.586-0.37-0.534-0.796
	c0.038-0.336,0.26-0.542,0.542-0.512l0.23,0.142c0.128,0.161,0.177,0.43,0.177,0.68c0,0.079-0.008,0.153-0.02,0.216
	c0.23-0.019,2.886-0.269,3.037-0.28c0.012-0.13,0.074-0.605,0.074-0.605c0.004-0.104,0.02-0.194,0.02-0.292
	C128.859,23.676,128.292,23.149,127.182,23.019z"/>
<path fill="#FFFFFF" d="M113.827,22.01c-3.291-0.131-3.976,1.479-4.099,4.484c-0.127,3.49,0.914,4.891,3.73,5.003
	c3.766,0.142,4.016-1.595,4.133-4.678C117.717,23.598,117.202,22.14,113.827,22.01z M114.529,26.916
	c-0.063,1.686-0.19,2.373-0.475,2.638l-0.441,0.142l-0.41-0.176c-0.266-0.287-0.34-0.986-0.276-2.668
	c0.087-2.238,0.206-2.843,0.894-2.81C114.496,24.061,114.619,24.577,114.529,26.916z"/>
<path fill="#012169" d="M136.969,95.849c6.24,6.338,10.508,13.877,12.85,21.863c0,0,0,0,0.017-0.019
	c20.313-36.135,27.19-69.027,27.19-69.027s-7.86-6.345-11.838-13.735c0,0-5.463,0.546-15.224,1.136l-1.67,7.211l-3.875-1.024
	c-0.172-0.037-17.629-4.581-43.815-4.581c-26.179,0-43.636,4.544-43.808,4.581l-4.024,1.062l-1.381-7.14
	c-10.634-0.63-16.51-1.245-16.51-1.245s-3.031,6.262-11.834,13.732c0,0,7.411,32.238,27.055,67.888
	c2.492-7.811,6.841-15.15,13.076-21.285C83.688,75.084,116.787,75.35,136.969,95.849z"/>
<path fill="#FFFFFF" d="M53.809,123.061c0.008,0.016,0.014,0.024,0.021,0.037c0.024,0.043,0.051,0.086,0.075,0.129
	C53.873,123.171,53.842,123.115,53.809,123.061z"/>
<polygon fill="#FFFFFF" points="142.618,113.616 142.609,113.623 142.611,113.627 "/>
<path fill="#FFFFFF" d="M82.218,88.38c0.087,0.007,0.165,0.015,0.238,0.022c0-0.001,0.001-0.002,0.001-0.003
	C82.385,88.392,82.304,88.386,82.218,88.38z"/>
<path fill="#FFFFFF" d="M96.061,128.809c-0.291,0.068-19.038,4.475-19.328,4.541c-1.275,3.635-2.167,7.002-2.787,9.823h17.586
	c1.809-1.058,4.17-1.584,7.145-1.584c3.243,0,5.571,0.493,7.368,1.584h4.088c0.014-0.096,0.026-0.19,0.039-0.287
	C109.98,142.695,96.272,129.02,96.061,128.809z"/>
<path fill="#FFFFFF" d="M56.371,116.785c6.3-1.487,9.652-1.842,10.916-1.926c1.057-1.854,4.92-7.785,14.126-14.407
	c-0.084-0.799-0.211-2.308-0.211-4.176c0-2.289,0.206-5.073,0.911-7.625c-1.428-0.09-4.631-0.023-8.97,1.688l-0.015-0.026
	c-2.942,1.864-5.734,4.062-8.318,6.604c-4.073,4.01-7.301,8.549-9.699,13.401l0.002,0.059
	C55.114,110.413,55.233,113.971,56.371,116.785z"/>
<path fill="#FFFFFF" d="M67.206,116.352c-1.323,0.104-4.695,0.488-10.844,1.953c-0.457,0.953-1.297,2.785-2.164,5.079l-0.076,0.205
	c3.863,6.534,8.135,13.12,12.855,19.584h5.454c0.646-2.993,1.595-6.614,2.99-10.551C74.1,130.807,70.003,124.782,67.206,116.352z"/>
<path fill="#FFFFFF" d="M132.775,117.766c-7.806-9.488-13.857-13.05-15.623-13.955c-2.336,0.127-8.467,0.848-16.59,4.666
	c-0.049,0.277-3.447,18.973-3.5,19.25c0.2,0.199,14.027,13.994,14.21,14.181c2.078-0.234,8.939-1.244,17.843-5
	c0.71-1.396,3.667-7.825,3.667-18.312C132.784,118.322,132.781,118.045,132.775,117.766z"/>
<path fill="#FFFFFF" d="M100.043,107.1c7.85-3.684,13.74-4.563,16.67-4.752c0.999-3.375,1.266-6.146,1.266-8.12
	c0-1.203-0.099-2.099-0.185-2.667c-6.339-5.549-15.202-7.222-19.95-7.724c-3.142,0.165-8.128,1.093-14.114,4.536
	c-0.821,2.543-1.039,5.515-1.039,7.918c0,1.678,0.103,3.047,0.177,3.826C84.877,100.358,91.13,101.531,100.043,107.1z"/>
<path fill="#FFFFFF" d="M142.268,114.836c-0.276,0.115-7.69,3.202-8.014,3.336c0.001,0.146,0.002,0.295,0.002,0.439
	c0,10.33-2.74,16.785-3.711,18.746c0.648,0.86,1.828,2.592,3.143,5.3c5.43-7.306,10.248-14.755,14.506-22.106
	c-0.038-0.156-0.082-0.313-0.123-0.471C146.466,118.1,143.367,115.672,142.268,114.836z"/>
<path fill="#FFFFFF" d="M135.396,97.565l-0.273,0.578c5.654,6.026,7.32,13.005,7.73,15.282c0.002,0.002,0.008,0.007,0.008,0.007
	c0.896,0.674,2.703,2.072,4.322,3.584C144.891,109.93,140.966,103.248,135.396,97.565z"/>
<path fill="#FFFFFF" d="M99.808,82.6c5.191,0.749,13.267,2.74,19.172,8.033c6.742,1.1,13.429,5.398,15.004,6.463l0.3-0.633
	C124.666,87.234,112.242,82.607,99.808,82.6z"/>
<path fill="#B8BABC" d="M165.793,72.308c6.198-12.405,2.963-17.259,2.963-17.259s-0.063,5.134-4.447,10.515
	c-11.192,13.754-12.539,4.853-25.076,17.797c-5.974,6.168-6.434,5.996-6.467,5.941l-0.005-0.007c0.665-0.77,1.802-2.44,3.765-5.945
	c3.94-7.07,4.285-19.113,7.268-24.729c3.005-5.668,7.734-8.804,7.734-8.804s-5.521-0.284-10.824,6.099
	c-4.553,5.474-6.592,12.439-14.188,19.673c-3.742,3.565-5.23,5.233-5.756,5.861c-0.042,0.01-0.074,0.028-0.09,0.061
	c0.03-1.207,0.063-3.486-0.037-7.047c-0.275-9.439,5.037-14.491,5.387-18.608c0.762-9.11-1.619-12.163-1.619-12.163
	s0,5.153-2.689,10.548c-2.701,5.392-9.05,8.983-12.137,16.983c-0.631,1.648-1.938,4.771-3.465,8.362l0.095-1.405
	c-0.095-0.979-0.325-2.858-0.813-6.416c-1.13-8.21-6.742-14.289-7.041-19.457c-0.332-5.881,0.837-11.401,0.837-11.401
	s-4.514,4.943-5.119,11.714c-0.479,5.325,2.074,11.307,1.614,19.143c-0.235,3.935-1.651,6.472-2.044,7.118
	c-0.011-0.475-0.399-2.119-2.537-7.66c-3.094-8-9.438-11.591-12.137-16.983c-2.697-5.396-2.697-10.548-2.697-10.548
	s-2.377,3.053-1.618,12.163c0.352,4.118,5.669,9.169,5.396,18.608c-0.101,3.561-0.074,5.84-0.041,7.047
	c-0.415-0.938-1.42-2.687-3.736-5.967c-4.663-6.617-15.365-12.137-19.146-17.259c-3.804-5.164-4.581-10.784-4.581-10.784
	s-2.055,4.611,0.811,12.402c4.851,13.212,9.166,10.246,12.937,19.954c2.541,6.513,1.625,9.438,1.625,9.438s0.143,0.5-6.472-5.934
	c-9.708-9.435-18.336-11.053-25.08-17.797c-4.91-4.903-5.852-11.703-5.852-11.703s-2.832,4.207,2.077,13.594
	c5.931,11.325,11.058,9.708,19.146,24.269c4.466,8.034,3.505,9.434,3.505,9.434s0-3.504-5.938-6.74
	c-2.2-1.203-9.15-1.207-12.413-5.164c3.594,8.488,7.971,17.77,13.22,27.295c2.493-7.811,6.841-15.148,13.075-21.283
	c20.51-20.182,53.609-19.917,73.791,0.583c6.24,6.338,10.508,13.877,12.851,21.863c0.016-0.022,0.016-0.022,0.016-0.022
	c5.556-9.875,10.104-19.509,13.785-28.292c0,0-2.377,2.526-5.116,3.67c-2.298,0.975-4.822,0.478-6.732,1.621
	c-4.043,2.425-6.336,6.471-6.336,6.471s-0.965-1.4,3.504-9.434C157.029,77.162,160.075,83.742,165.793,72.308z"/>
<path fill="#B8BABC" d="M81.211,103.855c0,0-6.532,4.084-11.636,11.633c0,0,0.612,2.762,2.343,6.427c0,0-0.714-3.467-0.512-6.222
	C71.615,112.938,81.211,103.855,81.211,103.855"/>
<path fill="#B8BABC" d="M120.393,93.046c0.103,4.895-1.222,8.976-1.222,8.976s3.472,1.629,6.737,4.797c0,0-3.778-4.489-4.594-5.104
	C120.493,101.1,122.029,94.978,120.393,93.046"/>
<path fill="#B8BABC" d="M125.021,110.743c0,0,7.109,7.11,7.265,7.731c0.157,0.614-0.616,12.678-3.554,17.164
	c0,0-6.961,3.866-16.707,5.104l-7.577-6.961c0,0,7.271,5.566,8.821,5.566c1.545,0,7.569-1.392,11.285-4.019
	c0,0,6.65-7.433,6.493-15.933C131.05,119.4,129.975,116.146,125.021,110.743"/>
<path fill="#B8BABC" d="M84.346,99.145c0,0,7.425,0.916,15.929,6.326c0,0,5.725-3.546,15.157-4.32c0,0,1.855-3.865,1.235-9.118
	c0,0-1.083,6.031-2.313,7.581c0,0-7.117,0.767-14.08,3.692C100.274,103.303,97.181,100.228,84.346,99.145"/>
<path fill="#B8BABC" d="M80.172,92.804c0,0-0.62,3.094-0.157,6.651c0,0-7.271,4.48-13.459,13.758c0,0-3.554,0.153-9.584,2.01
	c0,0,4.023-2.469,8.972-3.398c0,0,4.076-7.146,12.588-12.864C78.531,98.958,78.472,95.355,80.172,92.804"/>
<path fill="#B8BABC" d="M146.825,120.484c0,0-2.316-2.787-4.483-4.024l-6.654,2.478c0,0,0.312,10.049-3.555,18.246
	c0,0,1.248,1.202,2.643,4.002c4.607-6.297,8.757-12.688,12.483-19.021C147.128,121.613,146.982,121.049,146.825,120.484"/>
<path fill="#B8BABC" d="M140.018,104.092c0,0,2.783,4.326,3.564,8.504l2.007,2.164C145.589,114.76,143.73,108.883,140.018,104.092"
	/>
<path fill="#B8BABC" d="M115.199,87.004c0,0,2.627,1.159,4.33,2.627c0,0,3.554,0.31,10.365,4.178c0,0-2.246-2.399-9.359-4.947
	C120.535,88.861,117.826,87.389,115.199,87.004"/>
<path fill="#B8BABC" d="M75.067,142.13c0,0-0.138,0.384-0.33,1.043h0.235C75.028,142.537,75.067,142.13,75.067,142.13z"/>
<path fill="#B8BABC" d="M101.512,135.789c0,0,3.738,4.678,5.088,7.384h2.004L101.512,135.789z"/>
<path fill="#B8BABC" d="M74.291,133.473c0,0-4.865-7.039-7.422-13.766c0,0,1.394,6.498,5.415,13.766c0,0-2.074,4.813-3.063,9.7
	h1.857C71.649,140.467,72.619,137.122,74.291,133.473z"/>
<polyline fill="#1A1818" points="124.738,176.148 123.965,176.148 123.965,172.977 122.829,172.977 122.829,172.33 125.867,172.33 
	125.867,172.977 124.738,172.977 124.738,176.148 "/>
<polyline fill="#1A1818" points="127.07,176.148 126.355,176.148 126.355,172.33 127.507,172.33 128.202,174.938 128.883,172.33 
	130.044,172.33 130.044,176.148 129.327,176.148 129.327,173.145 128.572,176.148 127.825,176.148 127.07,173.145 127.07,176.148 
	"/>
<path fill="#FFFFFF" d="M69.893,164.049l7.433-4.876l-1.141-0.493c-0.037-0.004-0.414-0.269-0.538-0.729l0.071-7.208
	c0.516-0.011,1.181-0.019,1.809-0.019h0.456v10.617l6.034-0.553l0.02,2.225l7.01-4.195c0.238,0.324,0.496,0.623,0.792,0.886
	c0.758,0.713,1.58,1.104,2.286,1.321l-1.592,1.757l4.537-0.345l5.634,3.732l4.737-5.895c0.547,0.371,1.265,0.548,2.205,0.584
	c-0.008-0.004,4.601,0.18,4.601,0.18c0.874,0.049,1.856,0.004,2.597-0.586l-0.09,0.645l5.842,0.438c0,0,0.307-2.599,0.344-3.004
	l0.045-0.022l0.719,4.648l5.072-2.977v1.786l5.959,0.755v-3.049l1.434,4.93c0-0.004,4.732-3.043,4.732-3.043v2.045l8.634,1.593
	l0.981-2.275c0.242,1.769,1.034,3.353,3.365,4.211l6.868,2.702c1.458,0.537,2.578,0.518,3.419-0.07
	c0.923-0.646,1.375-1.896,1.375-3.813l-0.004,0.037l0.139-3.699c0.045-2.66,0.103-6.305-2.044-7.828l0.06,0.041
	c-1.252-1.066-2.568-2.204-3.635-3.152l5.521-2.722l0.045-3.221c0-1.265,1.396-2.8,1.396-2.8l-13.137,0.02
	c-0.878,0.213-2.188,1.039-2.922,2.473h-15.523c0,0-0.428,1.731-0.699,2.646v-2.646h-30.004c-1.387-1.094-3.437-1.582-6.532-1.582
	c-4.607,0-6.909,1.346-7.981,3.719v-2.137H44.338l1.237-2.49H27.19c0,0,1.027,1.543,1.166,2.726v25.062l14.801-3.107v-1.655
	c0.123-0.024,5.602-1.218,5.602-1.218l0.276-4.335l0.553,0.206l0.639,5.727l4.955-2.834v0.313l6.071-0.833v-3.206l1.962,4.996
	l6.054-4.143c0,0-1.408-0.451-1.823-1.177l-1.868-4.073c0.213-0.101,0.414-0.216,0.579-0.392c0.493-0.505,1.005-1.868,1.109-3.759
	l2.627-0.041V164.049 M43.049,159.577l-5.653,1.132v-2.664h5.295l-0.004-6.863h-5.291v-2.016h4.913l1.278-2.566
	c0.485,0.239,0.818,0.727,0.859,0.904C44.442,147.57,43.635,154.51,43.049,159.577 M55.182,156.965l-1.338-10.668
	c0.235,0.135,0.403,0.225,0.403,0.225c0.374,0.226,0.931,0.707,0.935,1.015C55.182,147.521,55.182,152.68,55.182,156.965
	 M98.377,156.813c-0.486,0-0.646-0.098-0.748-0.197c-0.56-0.559-0.56-2.944-0.56-3.727c0-1.729,0.056-3.386,0.481-3.797
	c0.078-0.09,0.247-0.188,0.785-0.188c0.59,0,0.773,0.102,0.87,0.199c0.444,0.442,0.501,2.252,0.501,3.782
	C99.707,156.813,99.181,156.813,98.377,156.813 M104.637,160.979c-0.109-0.049-0.267-0.151-0.468-0.271
	c0.767-0.463,1.535-1.277,2.093-2.709c0.135,0.988,0.459,1.695,1.021,2.154C107.281,160.152,104.768,160.959,104.637,160.979
	 M117.938,152.688v-6.387l0.432,0.231c0.139,0.077,0.395,0.292,0.365,0.452C118.732,146.984,118.354,149.704,117.938,152.688
	 M128.773,156.936l-1.619-11.045l1.07,0.627c0.221,0.14,0.479,0.358,0.549,0.479V156.936 M140.898,159.723l-1.797-6.046
	c0.27-0.837,1.19-3.759,1.797-5.811V159.723 M151.496,159.506l-0.781,0.09l-0.701,0.074l-3.021-0.579v-1.917l2.81,0.108v-5.706
	l-2.81-0.026v-0.84l2.376,0.015l1.047-1.973v1.08c0,2.725,0.89,3.904,2.634,5.25c-0.007-0.008,1.775,1.486,3.271,2.738
	L151.496,159.506 M158.387,160.455c-0.012,0.303-0.021,1.21-0.021,1.229c-0.021-0.012-0.112-0.037-0.112-0.037
	c-0.134-0.032-0.309-0.086-0.357-0.123c-0.016-0.025-0.058-0.146-0.058-0.479v-1.95c0.206,0.173,0.354,0.291,0.415,0.349
	C158.412,159.621,158.412,159.67,158.387,160.455 M158.577,150.021c-0.386-0.362-0.65-0.621-0.751-0.735
	c-0.008-0.05-0.016-0.12-0.016-0.194c0.032,0,0.066,0,0.098,0c0.041,0,0.09,0,0.142,0h0.136c0.107,0,0.291,0,0.39,0.012
	c0.004,0.021,0.004,0.049,0.004,0.078L158.577,150.021"/>
<path fill="#012169" d="M29.115,145.232c0,0.533,0,24.228,0,24.228l13.283-2.787v-6.188l-5.758,1.151v-4.354h5.291l-0.012-5.341
	H36.64v-3.537h5.201l2.504-5.033H28.308C28.308,143.371,29.115,144.705,29.115,145.232"/>
<path fill="#012169" d="M161.006,169.128c2.471,0.899,3.777,0.011,3.777-3.173l0.127-2.709c0-2.475,0.352-6.691-1.715-8.164
	c0,0-5.709-4.869-6.03-5.407c-0.131-0.225-0.112-0.55-0.112-0.792c0-0.636,0.588-0.554,0.997-0.554c0.49,0,1.286-0.093,1.286,0.853
	c0,0.082,0,1.565,0,1.684l5.496-2.719v-2.885c0,0,0.258-1.005,1.129-1.895h-11.896c-1.116,0.266-2.894,1.523-2.894,4.146v2.316
	c0,2.47,0.759,3.426,2.343,4.646l5.267,4.416c0.534,0.577,0.352,0.783,0.352,2.737c0,1.063-0.426,0.937-1.038,0.761
	c-0.619-0.174-1.013-0.26-1.013-1.348v-2.684l-5.908,2.065v0.854c0,2.675,0.613,4.273,2.968,5.137L161.006,169.128"/>
<path fill="#012169" d="M55.01,161.686l-1.984-15.826h-9.203c0.837,0.359,1.431,1.269,1.383,1.684c-0.12,1.146-2,17.307-2,17.307
	l4.847-1.06l0.527-5l1.647,0.583l0.527,5.689l4.996-3.136C55.294,161.896,55.01,161.686,55.01,161.686 M48.688,154.992
	c0,0,0.448-2.545,0.534-3.563c0.063,1.018,0.549,3.004,0.698,4.023L48.688,154.992"/>
<path fill="#012169" d="M67.098,160.184l-2.59-5.625c0,0,0.773-0.074,1.106-0.414c0.325-0.345,0.9-1.715,0.9-3.891
	c0-1.727-0.295-3.292-0.896-3.867c-0.579-0.554-1.285-0.52-2.048-0.527c-2.47-0.01-6.483,0-8.949,0c0,0,1.304,0.744,1.322,1.656
	v15.106l4.548-0.624v-6.551l3.09,7.869l4.525-2.877C68.106,160.439,67.654,160.455,67.098,160.184 M61.011,151.854
	c-0.176-0.065-0.344-0.127-0.52-0.18c0-0.766,0-1.535,0-2.32c0.176,0.067,0.344,0.136,0.52,0.181
	c0.489,0.188,0.635,0.567,0.635,1.391C61.646,151.729,61.5,152.003,61.011,151.854"/>
<path fill="#012169" d="M70.654,162.667l5.135-3.24c0,0-0.542-0.007-0.908-0.331l0.082-9.093c0.718-0.021,1.704-0.04,2.563-0.04
	c0-1.121,0-4.104,0-4.104H66.23c0,0,1.054,0.673,1.054,1.267l-0.037,3.026c0,0,2.687-0.041,3.407-0.058V162.667"/>
<path fill="#012169" d="M128.288,158.882l-1.901-13.022h-7.66c0,0,0.871,0.469,0.768,1.233c-0.469,3.345-1.729,12.306-1.864,13.298
	c1.56,0.09,2.421,0.202,4.282,0.334c0.104-1.063,0.324-2.623,0.398-3.625l1.314,0.58l0.525,4.609l4.766-3.094
	C128.916,159.195,128.479,159.227,128.288,158.882 M122.784,153.598c0,0,0.153-2.555,0.239-3.414
	c0.06,0.859,0.406,3.736,0.406,3.736L122.784,153.598"/>
<path fill="#012169" d="M141.661,162.975l7.414,1.371l1.723-3.992l-0.817,0.086l-3.752-0.721v-3.332l2.813,0.107l-0.007-4.163
	l-2.809-0.029c0,0,0-1.7,0-2.356l2.685,0.016l2.183-4.102h-9.887c0,0,0.455,0.412,0.455,1.109
	C141.661,150.57,141.661,161.777,141.661,162.975"/>
<path fill="#012169" d="M102.461,160.48c2.163-0.205,3.863-2.443,3.863-7.959c0-5.682-1.207-8.246-8.127-8.246
	c-6.92,0-8.063,3.065-8.063,8.205c0,8.457,5.758,8.041,5.758,8.041l-1.936,1.637l3.289-0.52l5.298,3.516l2.896-3.594
	c0,0-0.672,0.217-0.953,0.18C104.213,161.699,102.461,160.48,102.461,160.48 M100.469,152.889c0,4.055-0.59,4.683-2.092,4.683
	s-2.063-0.759-2.063-4.683c0-3.932,0.328-4.742,2.021-4.742C100.024,148.146,100.469,148.83,100.469,152.889"/>
<path fill="#012169" d="M90.204,158.434c0,0-0.512-0.008-0.747-0.258c0,0,0-11.128,0-12.316c-1.502,0-3.008,0-4.708,0v5.078
	c-0.041-0.049-1.337-0.532-1.342-0.549v-4.529c-1.703,0-3.71,0-5.204,0c0,0,0.541,0.49,0.541,0.978v13.681l4.663-0.435
	c0-1.399,0-4.146,0-5.106c0.005,0.016,1.335,0.599,1.342,0.582l0.037,6.129L90.204,158.434"/>
<path fill="#012169" d="M117.172,145.859h-4.531c0,0,0,8.516,0,9.354c0,0.729-0.004,0.994-0.613,1.351
	c-0.357,0.213-0.571-0.336-0.571-1.068c0-0.837,0-9.637,0-9.637h-5.361c0,0,0.855,0.41,0.855,1.072c0,2.606,0,9.116,0,9.846
	c0,2.545,0.745,3.263,2.717,3.317c1.551,0.058,3.069,0.115,4.613,0.19c2.081,0.105,2.894-0.479,2.894-3.174
	C117.172,156.176,117.172,146.82,117.172,145.859"/>
<path fill="#012169" d="M136.505,163.73l4.642-3.267c0,0-0.498,0.095-0.838-0.073l-2.002-6.724c0,0,2.073-6.478,2.354-7.812
	c-1.521,0-4.614,0-4.614,0l-1.51,6.188l-0.563-0.262c0-0.785,0-2.015,0-2.649c0-1.084,0-2.171,0-3.277c-1.479,0-5.367,0-5.367,0
	s0.924,0.552,0.924,1.072c0,3.461,0,13.239,0,14.364c0,0,2.964,0.354,4.443,0.558c0-1.232,0-2.271,0-3.502c0-0.677,0-1.334,0-2.377
	l0.479,0.262L136.505,163.73"/>
<polyline fill="#1A1818" points="41.438,156.834 41.435,152.339 41.061,152.339 41.061,156.546 35.841,156.546 35.841,162.794 
	36.211,162.723 36.211,156.834 41.438,156.834 "/>
<polyline fill="#1A1818" points="43.078,143.9 40.986,147.623 35.841,147.623 35.841,152.63 36.211,152.63 36.211,147.918 
	41.359,147.918 43.602,143.9 43.078,143.9 "/>
<path fill="#1A1818" d="M41.482,166.094l-11.886,2.413c0,0.239,0,0.378,0,0.378l12.257-2.5v-5.271l-0.371,0.073V166.094"/>
<polyline fill="#9FA3C7" points="35.841,162.794 41.449,161.568 41.854,161.111 36.248,162.33 35.841,162.794 "/>
<polyline fill="#9FA3C7" points="41.435,152.339 36.199,152.339 35.841,152.63 41.027,152.63 41.435,152.339 "/>
<path fill="#9FA3C7" d="M43.602,143.9H29.119c0,0,0.478,0.662,0.478,1.137c0,0.197,0,4.355,0,9.146h-0.489c0,0.074,0,0.156,0,0.23
	h0.489c0,6.677,0,14.469,0,14.469l0.374-0.479c0-2.114,0-8.479,0-13.989l11.938-0.007v-0.231l-11.938,0.007c0-4.662,0-8.654,0-8.848
	c0-0.482-0.479-1.145-0.479-1.145h13.399L43.602,143.9z"/>
<polyline fill="#1A1818" points="48.007,155.635 48.389,155.307 49.214,150.475 49.102,149.364 48.007,155.635 "/>
<g>
	<path fill="#1A1818" d="M54.703,161.998l-1.909-15.869h-0.337l1.888,15.701C54.345,161.83,54.476,161.927,54.703,161.998z"/>
	<path fill="#1A1818" d="M54.314,161.867l-3.235,2.1l0.048,0.501l3.767-2.437C54.621,162.018,54.419,161.927,54.314,161.867z"/>
</g>
<path fill="#1A1818" d="M50.862,158.729l-2.893-0.994l-0.677,5.408l-3.523,0.75c-0.029,0.248-0.045,0.381-0.045,0.381l3.942-0.836
	l0.605-5.151l2.638,0.881L50.862,158.729"/>
<path fill="#9FA3C7" d="M52.469,146.428l0.325-0.299h-8.235c0.18,0.078,0.34,0.18,0.481,0.299H52.469"/>
<polyline fill="#9FA3C7" points="51.4,163.73 50.862,158.729 50.533,159.059 51.127,164.468 51.4,163.73 "/>
<path fill="#9FA3C7" d="M48.811,154.166h-3.507c0.371-3.218,0.696-6.04,0.741-6.449c0.034-0.324-0.238-0.773-0.84-1.146
	c0.385,0.361,0.493,0.6,0.463,0.854c-0.047,0.427-0.39,3.404-0.774,6.741h-0.466c-0.004,0.082-0.019,0.157-0.022,0.23h0.461
	c-0.536,4.644-1.142,9.877-1.142,9.877l0.468-0.526c0.195-1.666,0.665-5.726,1.084-9.351l3.501-0.002
	C48.784,154.323,48.799,154.248,48.811,154.166z"/>
<path fill="#9FA3C7" d="M54.079,154.395l-0.026-0.23l-3.878,0.004l-1.073-4.802c-0.022,0.278,0.112,1.108,0.112,1.108l0.712,3.691
	h-0.248c0.011,0.074,0.029,0.157,0.041,0.229h0.251l0.31,1.604l-1.891-0.69l-0.382,0.328l2.702,0.92l-0.483-2.158h3.853V154.395z"/>
<path fill="#1A1818" d="M60.222,148.867c0.154,0.057,0.307,0.119,0.464,0.165c0.049,0.015,0.859,0.426,0.904,0.452
	c-0.075-0.338-0.986-0.908-1.281-1.027c-0.153-0.042-0.311-0.102-0.46-0.161c0,0.706,0,3.703,0,3.703l0.34-0.131
	C60.188,151.33,60.222,149.421,60.222,148.867"/>
<polyline fill="#1A1818" points="59.771,154.027 59.773,161.344 56.385,161.826 56.385,162.174 60.144,161.641 60.144,154.797 
	60.589,155.082 60.745,154.708 59.771,154.027 "/>
<path fill="#1A1818" d="M66.994,160.529l-2.957-6.18c0,0,1.002-0.19,1.293-0.502c0.299-0.308,0.818-1.531,0.818-3.481
	c0-1.54-0.272-3.21-0.811-3.722c-0.102-0.096-0.202-0.17-0.311-0.223c0.493,0.559,0.748,2.171,0.748,3.65
	c0,1.945-0.527,3.173-0.819,3.479c-0.291,0.307-1.293,0.506-1.293,0.506l3.061,6.396l-3.098,1.961l0.165,0.433l3.579-2.272
	C67.37,160.574,67.222,160.578,66.994,160.529z"/>
<path fill="#9FA3C7" d="M63.771,146.428c0.558,0,1.076-0.016,1.529,0.246c-0.02-0.029-0.042-0.052-0.064-0.074
	c-0.52-0.496-1.154-0.471-1.838-0.471c-2.205-0.012-5.792,0-8.004,0c0,0,0.194,0.107,0.422,0.299
	C58.029,146.428,61.578,146.412,63.771,146.428"/>
<polyline fill="#9FA3C7" points="63.835,162.314 60.745,154.708 60.589,155.082 63.791,162.848 63.835,162.314 "/>
<path fill="#9FA3C7" d="M59.849,151.999c0,0,1.76,0.729,1.913,0.688c0.153-0.041,0.602,0.336,0.512-1.823
	c-0.037-0.867-0.722-1.405-0.722-1.405s0.453,0.602,0.415,1.521c-0.037,0.927-0.242,1.146-0.396,1.267
	c-0.149,0.116-1.383-0.377-1.383-0.377L59.849,151.999"/>
<path fill="#9FA3C7" d="M65.438,151.341l-1.322,3.161l-0.781-1.818l-0.904,2.092l-0.714-1.026l-0.722,0.521l-0.649-0.098
	l-0.03-0.011h-0.033l-3.514,0.002l0.012-6.263c-0.015-0.599-0.479-1.116-0.807-1.35c0.291,0.273,0.419,0.646,0.426,1.059
	l-0.007,6.555h-0.464v0.227h0.464l-0.008,7.785l0.37-0.415l0.014-7.37h3.491l0.698,0.113l0.071,0.038l0.056-0.053l0.609-0.411
	l0.781,1.177l0.859-2.014l0.762,1.838l1.342-3.157l0.628,1.278c0.037-0.104,0.074-0.209,0.108-0.325L65.438,151.341z"/>
<path fill="#1A1818" d="M71.432,149.514c-0.489,0.017-3.082,0.012-3.792,0.021v0.3c0,0,2.885,0.012,3.792-0.008V149.514"/>
<path fill="#1A1818" d="M77.171,149.6c0-1.004,0-3.471,0-3.471h-0.377c0,0.725,0,2.376,0,3.176c-0.766,0-1.958,0.021-2.601,0.037
	l-0.071,10.167c0.002,0.002,0.004,0.003,0.005,0.005l-3.068,1.938v0.534l3.912-2.479c0,0-0.226,0-0.476-0.095l0.072-9.78
	C75.21,149.614,76.405,149.6,77.171,149.6z"/>
<path fill="#9FA3C7" d="M76.794,146.428l0.377-0.299H66.952c0,0,0.187,0.119,0.396,0.299H76.794"/>
<path fill="#9FA3C7" d="M68.021,149.514l0.026-1.961c0-0.445-0.423-0.928-0.646-1.08c0.239,0.221,0.269,0.508,0.269,0.784
	l-0.029,2.575L68.021,149.514"/>
<path fill="#9FA3C7" d="M73.51,150.439l-1.655,5.086l-0.423-0.756v-5.256c-0.097,0.008-0.373,0.311-0.373,0.311v4.277l-0.415-0.744
	v0.473l0.415,0.757v7.399l0.373-0.799v-5.92l0.452,0.825l1.626-4.864l1.397,3.254l0.008-0.553L73.51,150.439z"/>
<path fill="#1A1818" d="M82.69,150.943c0.008,0.006,0.172,0.067,0.374,0.146l0.011-4.962c-0.119,0-0.246,0-0.374,0L82.69,150.943"/>
<path fill="#1A1818" d="M89.11,158.469c0-1.466,0-11.367,0-12.34c-0.124,0-0.251,0-0.374,0c0,1.882,0,11.521,0,12.301l-3.613,2.131
	v0.517l4.331-2.554C89.454,158.523,89.287,158.52,89.11,158.469z"/>
<path fill="#1A1818" d="M85.467,155.115c0,0-2.762-1.313-2.766-1.315c0,0.853,0,4.392,0,5.646l-3.561,0.35v0.332l3.935-0.385
	c0-1.258,0-4.45,0-5.309c0.004,0.004,2.025,0.916,2.025,0.916L85.467,155.115"/>
<path fill="#9FA3C7" d="M82.69,150.943c0,0,2.731,1.104,2.772,1.147v-5.665c1.237,0,3.266,0,3.266,0l0.382-0.299h-4.024v5.328
	c-0.02-0.025-1.999-0.841-1.999-0.841L82.69,150.943"/>
<polyline fill="#9FA3C7" points="85.493,160.309 85.467,155.115 85.101,155.352 85.123,161.075 85.493,160.309 "/>
<path fill="#9FA3C7" d="M88.763,154.823l-1.278-3.65l-0.845,4.619l-0.814-2.935l-0.717,0.969l-0.771-1.506l-0.631,1.181
	l-0.561-1.433l-0.949,2.065l-1.125-3.808l-1.199,4.521l-0.358-0.783v-6.778c0-0.427-0.482-0.859-0.482-0.859
	c1.125,0,2.357,0,3.654,0l0.389-0.299c-1.528,0-3.075,0-4.42,0c0,0,0.485,0.44,0.485,0.866v6.253l-0.411-0.897v0.567l0.411,0.956
	v6.252l0.374-0.385v-4.997l0.414,0.965l1.17-4.461l0.998,3.703l1.02-2.197l0.557,1.229l0.665-1.104l0.718,1.457l0.691-0.894
	l0.915,3.496l0.894-4.797l1.207,3.521l0.68-2.462c0-0.288,0-0.572,0-0.854L88.763,154.823z"/>
<path fill="#1A1818" d="M96.598,157.122c-0.444-0.526-0.627-1.618-0.627-3.741c0-3.516,0.209-5.574,1.909-5.556
	c0.389,0,1.353-0.063,1.606,0.056c-0.292-0.357-1.371-0.347-1.984-0.354c-1.666-0.026-1.905,2.048-1.905,5.56
	C95.597,155.729,95.881,156.768,96.598,157.122"/>
<polyline fill="#1A1818" points="104.723,162.009 102.495,164.748 97.278,161.389 94.782,161.809 97.278,161.102 102.371,164.337 
	103.971,162.219 104.723,162.009 "/>
<path fill="#1A1818" d="M96.28,160.275l0.43-0.313h-0.721c0,0-2.253-0.276-3.67-1.442C93.571,159.932,96.28,160.275,96.28,160.275"
	/>
<path fill="#1A1818" d="M104.288,146.264c0.896,1.125,1.435,3.033,1.435,6.123c0,5.438-1.563,7.139-3.496,7.475l-0.998,0.181
	l0.554,0.213l0.965-0.104c1.862-0.457,3.262-2.443,3.262-7.446C106.007,149.305,105.355,147.324,104.288,146.264"/>
<path fill="#9FA3C7" d="M90.776,152.66c0-5.852,2.437-7.725,7.615-7.725c3.232,0,5.119,0.558,5.896,1.325
	c-0.809-1.012-2.286-1.644-6.229-1.644c-3.935,0-7.573,0.98-7.573,7.724c0,3.214,0.729,5.07,1.834,6.179
	C91.386,157.364,90.776,155.594,90.776,152.66"/>
<path fill="#9FA3C7" d="M104.768,162.027c0,0-0.379,0.041-0.711-0.082c-0.258-0.098-2.302-1.67-2.302-1.67l-0.526-0.226l2.705,2.142
	L104.768,162.027"/>
<polyline fill="#9FA3C7" points="96.284,160.582 96.74,160.5 94.707,161.867 96.284,160.582 "/>
<path fill="#9FA3C7" d="M93.438,156.891l1.408-7.146l1.536,5.216c-0.034-0.313-0.046-0.673-0.064-1.063l-1.543-5.513l-1.379,7.316
	l-1.165-4.722L91.27,154.6l-1.14-2.601c0,0.153-0.012,0.306-0.012,0.467c0,0.082,0.012,0.157,0.012,0.235l1.199,2.627l0.875-3.352
	L93.438,156.891"/>
<path fill="#9FA3C7" d="M106.048,155.557l-1.704-5.209l-1.02,4.692l-0.883-2.589l-0.936,4.734l-0.445-1.783
	c0.037-0.407,0.059-0.867,0.059-1.4c0-2.689-0.184-5.275-0.911-5.624c0.435,0.526,0.538,3.172,0.538,5.332
	c0,0.146-0.004,0.276-0.008,0.413l-0.284-1.135c0,0.393-0.004,0.744-0.022,1.072l0.255,1.056c-0.221,2.364-1.042,2.771-2.185,2.771
	c-0.329,0-0.613-0.045-0.849-0.156c0.292,0.345,0.688,0.451,1.222,0.451c1.003,0,1.756-0.307,2.074-1.966l0.557,2.308l1.019-5.069
	l0.863,2.581l0.988-4.594l1.609,4.684l0.005-0.008c0.044-0.197,0.082-0.418,0.114-0.641L106.048,155.557z"/>
<path fill="#1A1818" d="M110.76,146.428c0,1.432,0,8.756,0,9.42c0,0.625,0.176,1.096,0.471,0.979
	c-0.056-0.183-0.09-0.418-0.09-0.681c0-0.758,0-10.019,0-10.019L110.76,146.428"/>
<path fill="#1A1818" d="M116.484,146.417c0,1.726,0,9.022,0,9.797c0,2.414-0.724,3.595-2.586,3.505
	c-1.383-0.074-2.746-0.123-4.129-0.176c-0.617-0.02-1.104-0.107-1.478-0.32c0.39,0.426,0.99,0.599,1.854,0.619
	c1.379,0.049,2.737,0.098,4.129,0.165c1.855,0.104,2.582-1.08,2.582-3.498c0-0.837,0-10.384,0-10.384L116.484,146.417"/>
<path fill="#9FA3C7" d="M110.45,154.85l-1.224-1.842l-1.137,2.107l-0.385-0.887c0-2.054,0-4.756,0-6.172
	c0-0.445-0.223-1.438-0.432-1.57c0.149,0.158,0.051,1.035,0.051,1.279c0,1.283,0,3.631,0,5.588l-0.395-0.902
	c0,0.242,0,0.475,0,0.706l0.395,0.909c0,1.264,0,2.256,0,2.502c0,1.479,0.291,2.269,0.968,2.651
	c-0.406-0.446-0.587-1.185-0.587-2.354c0-0.207,0-0.94,0-1.918l0.354,0.821l1.188-2.287l1.166,1.808l1.03-1.338
	c0-0.164,0-0.341,0-0.517L110.45,154.85z"/>
<path fill="#9FA3C7" d="M116.073,154.794l-1.207-4.521l-1.173,4.785l-0.289-0.678c0-2.729,0-7.954,0-7.954l3.076-0.011l0.377-0.292
	l-3.83,0.004c0,0,0.011,4.56,0.009,7.388l-0.408-0.959c0,0.271,0,0.536,0,0.786l0.407,0.925c-0.001,0.711-0.004,1.228-0.008,1.387
	c-0.049,1.731-1.797,1.173-1.797,1.173c-0.017,0.008-0.03,0.008-0.045,0.022c0.086,0.254,0.582,0.402,0.803,0.426
	c0.576,0.037,1.416-0.422,1.416-1.322c0-0.114,0-0.417,0-0.846l0.353,0.797l1.15-4.461l1.11,4.229l1.146-2.574
	c0-0.201,0-0.404,0-0.611L116.073,154.794z"/>
<path fill="#1A1818" d="M124.154,157.1l-2.438-1.072c-0.071,0.891-0.389,3.076-0.485,4.027c-1.489-0.104-2.004-0.156-3.152-0.234
	c-0.02,0.115-0.034,0.205-0.045,0.263c1.404,0.086,1.908,0.147,3.574,0.271c0.091-0.955,0.416-2.802,0.481-3.688l2.119,0.927
	L124.154,157.1"/>
<path fill="#1A1818" d="M127.917,159.313l-1.854-13.184h-0.338l1.832,12.992l-3.19,2.018l0.057,0.502l3.646-2.316
	C128.066,159.322,128.003,159.326,127.917,159.313z"/>
<path fill="#1A1818" d="M121.91,154.076l0.426,0.16c0.075-0.688,0.68-4.723,0.68-4.723l-0.115-1.104L121.91,154.076"/>
<path fill="#9FA3C7" d="M119.783,146.428h5.979l0.299-0.299h-6.658C119.402,146.129,119.598,146.232,119.783,146.428"/>
<polyline fill="#9FA3C7" points="124.684,160.889 124.154,157.1 123.887,157.466 124.421,161.641 124.684,160.889 "/>
<path fill="#9FA3C7" d="M122.9,148.411c-0.022,0.288,0.115,1.103,0.115,1.103l0.877,4.984l-1.49-0.684l-0.451,0.303l2.313,1.021
	C124.145,154.117,122.9,148.411,122.9,148.411"/>
<path fill="#9FA3C7" d="M127.627,154.428l-0.785,1.479l-1.289-2.032l-1.203,2.298l-0.688-0.998l-0.422,0.673l-0.725-1.149
	l-0.535,0.688l-0.391-0.721l-0.463,0.853l-0.896-3.074l-0.92,1.992l-0.063-0.117c0.367-2.647,0.767-5.521,0.942-6.793
	c0.088-0.644-0.317-1.047-0.407-1.09c0.184,0.188,0.077,0.459,0.032,0.795c-0.183,1.313-0.549,3.951-0.9,6.496l-0.297-0.528
	c-0.02,0.128-0.034,0.243-0.051,0.366l0.289,0.57c-0.431,3.102-0.826,5.948-0.826,5.948l0.455-0.271c0,0,0.324-2.34,0.697-5.03
	l0.15,0.299l0.841-1.86l0.882,3.068l0.553-1.068l0.371,0.612l0.49-0.632l0.787,1.088l0.422-0.688l0.688,1.129l1.185-2.34
	l1.305,2.051l0.838-1.559L127.627,154.428z"/>
<path fill="#1A1818" d="M133.314,148.768c0,0.562,0.019,2.836,0.019,3.534l0.358-0.254c0-0.526,0-2.557,0-2.989
	c0-0.968,0-1.933,0-2.93c-0.108,0-0.239,0-0.377,0C133.314,147.018,133.314,147.885,133.314,148.768"/>
<path fill="#1A1818" d="M140.025,160.643l-2.017-7.037c0,0,1.988-6.289,2.242-7.477c-0.147,0-0.303,0-0.447,0
	c-0.423,1.641-2.217,7.063-2.217,7.063l2.114,7.352l-3.102,2.219c0.065,0.309,0.114,0.477,0.114,0.477l3.591-2.561
	C140.309,160.676,140.189,160.676,140.025,160.643z"/>
<path fill="#1A1818" d="M134.805,155.57l-1.49-0.762c0,0.931,0,1.592,0,2.199c0,1.104,0,3.088,0,4.196
	c-1.022-0.144-2.643-0.358-3.418-0.456c0,0.107,0,0.189,0,0.25c0,0,2.471,0.313,3.795,0.505c0-1.108,0-3.094,0-4.204
	c0-0.598,0-0.882,0-1.814l1.007,0.472L134.805,155.57"/>
<polyline fill="#9FA3C7" points="133.333,152.302 134.966,153.034 136.662,146.428 139.719,146.428 140.253,146.129 
	136.292,146.129 134.786,152.484 133.691,151.999 133.333,152.302 "/>
<polyline fill="#9FA3C7" points="136.85,162.551 134.805,155.57 134.695,155.956 136.718,163.234 136.85,162.551 "/>
<path fill="#9FA3C7" d="M133.314,146.428l0.377-0.299h-4.434c0,0,0.205,0.123,0.407,0.299
	C129.955,146.428,133.314,146.428,133.314,146.428"/>
<path fill="#9FA3C7" d="M138.443,154.166l-3.19-0.004l-0.976-0.287l-0.599,0.307l-0.845-0.558l-0.607,0.821l-0.941-1.016
	l-0.764,1.438l-0.258-0.415c0-2.813,0-5.781,0-7.074c0-0.356-0.291-0.729-0.522-0.886c0.188,0.173,0.153,0.386,0.153,0.595
	c0,1.326,0,4.068,0,6.771l-0.373-0.602c0,0.141,0,0.28,0,0.419l0.373,0.64c0,3.44,0,6.686,0,6.686l0.369-0.23c0,0,0-2.754,0-5.823
	l0.258,0.438l0.821-1.476l0.843,0.961l0.689-0.883l0.747,0.516l0.706-0.357l0.783,0.242l3.396,0.008L138.443,154.166z"/>
<path fill="#1A1818" d="M150.039,146.129l-1.745,3.094l-2.717-0.015c0,0.586,0,3.681,0,3.681h0.381c0-0.468,0-2.964,0-3.386
	l2.714,0.011l1.896-3.385H150.039"/>
<polyline fill="#1A1818" points="145.921,156.083 148.738,156.176 148.73,152.619 148.361,152.619 148.361,155.881 145.54,155.788 
	145.54,160.261 145.921,160.339 145.921,156.083 "/>
<path fill="#1A1818" d="M148.455,163.646l-6.323-1.154c0,0.097,0,0.176,0,0.23l6.704,1.219l1.371-3.227l-0.525,0.063
	L148.455,163.646"/>
<polyline fill="#9FA3C7" points="145.934,160.114 145.54,160.261 149.531,161.038 150.207,160.716 149.475,160.799 145.934,160.114 
	"/>
<polyline fill="#9FA3C7" points="148.73,152.619 145.934,152.602 145.577,152.889 148.365,152.91 148.73,152.619 "/>
<path fill="#9FA3C7" d="M150.568,146.129h-8.844c0,0,0.405,0.365,0.405,0.997c0,1.36,0,4.171,0,7.04h-0.479c0,0.074,0,0.152,0,0.229
	h0.479c0,3.842,0,7.726,0,8.328l0.374-0.18c0-1.283,0-4.764,0-8.148h6.521v-0.229h-6.521c0-2.768,0-5.438,0-6.748
	c0-0.628-0.402-0.99-0.402-0.99h7.729L150.568,146.129z"/>
<path fill="#1A1818" d="M164.055,145.098l-0.024,2.664l-4.31,2.11c0,0.243,0,0.444,0,0.479l4.689-2.295l0.02-2.77
	c0-1.084,0.205-0.941,0.791-1.523C164.384,144.118,164.055,143.995,164.055,145.098"/>
<path fill="#1A1818" d="M162.915,155.271c0,0-5.915-4.778-6.206-5.267c-0.116-0.192-0.102-0.479-0.102-0.696
	c0-0.072,0.012-1.072,0.021-1.13c0.111-0.37,1.732-0.307,2.053-0.307c0.2,0,0.459-0.021,0.684,0.044
	c-0.198-0.396-0.717-0.348-1.068-0.348c-0.311,0-1.928-0.057-2.035,0.313c-0.02,0.05-0.02,1.056-0.02,1.125
	c0,0.213-0.023,0.504,0.093,0.702c0.292,0.489,6.207,5.261,6.207,5.261c1.854,1.319,1.535,5.945,1.535,8.154l-0.111,2.45
	c0,2.852-1.178,3.646-3.382,2.841l-6.756-2.631c-0.407-0.157-0.766-0.329-1.068-0.538c0.373,0.328,0.84,0.607,1.438,0.829
	l6.76,2.635c2.205,0.813,3.374,0.013,3.374-2.836l0.124-2.451C164.455,161.21,164.771,156.584,162.915,155.271"/>
<path fill="#1A1818" d="M156.779,162.158c-0.104-0.16-0.16-0.403-0.16-0.788v-2.402l-0.374,0.136v1.974
	C156.245,161.8,156.451,162.027,156.779,162.158"/>
<path fill="#9FA3C7" d="M159.627,148.43c0.057,0.109,0.094,0.243,0.094,0.432c0,0.063,0,1.395,0,1.49l0.375-0.677
	c0,0,0-0.497,0-0.522C160.096,148.699,159.885,148.505,159.627,148.43"/>
<path fill="#9FA3C7" d="M151.926,161.777v-0.768l4.316-1.486l0.377-0.558l-5.067,1.748v0.761c0,1.928,0.355,3.229,1.581,4.067
	C152.202,164.703,151.926,163.484,151.926,161.777"/>
<path fill="#9FA3C7" d="M154.564,144.063h10.088c0,0,0.209-0.127,0.567-0.299h-11.03c-0.994,0.239-2.582,1.375-2.582,3.723v2.529
	c0,2.203,0.666,3.06,2.078,4.15h-0.559c0.096,0.074,0.186,0.152,0.281,0.229h0.563l5.209,4.154c0.477,0.52,0.312,2.098,0.312,3.842
	c0,0.957-1.146,0.414-1.692,0.262c-0.142-0.036-0.265-0.077-0.385-0.122c0.16,0.254,0.422,0.323,0.755,0.419
	c0.549,0.152,1.696,0.689,1.696-0.264c0-1.744,0.164-3.319-0.309-3.84l-5.479-4.373c-0.034-0.024-0.066-0.052-0.101-0.078h8.414
	c-0.086-0.069-0.177-0.146-0.271-0.229h-8.429c-1.161-0.964-1.709-1.857-1.709-3.855v-2.533
	C151.984,145.438,153.566,144.298,154.564,144.063z"/>
<path fill="#9FA3C7" d="M110.736,146.428l0.404-0.299h-4.356c0,0,0.224,0.107,0.434,0.299H110.736"/>
<path fill="#012169" d="M103.652,170.268l-6.937-4.593l-9.938,0.75c4.033,4.072,8.301,7.983,12.818,11.667
	c5.597-4.394,10.804-9.101,15.655-14.016c-2.183-0.102-4.358-0.157-6.496-0.157L103.652,170.268z"/>
</svg>
