<?xml version="1.0" encoding="utf-8"?>
<!-- Generator: Adobe Illustrator 14.0.0, SVG Export Plug-In . SVG Version: 6.00 Build 43363)  -->
<!DOCTYPE svg PUBLIC "-//W3C//DTD SVG 1.1//EN" "http://www.w3.org/Graphics/SVG/1.1/DTD/svg11.dtd">
<svg version="1.1" id="Layer_1" xmlns="http://www.w3.org/2000/svg" xmlns:xlink="http://www.w3.org/1999/xlink" x="0px" y="0px"
	 width="200px" height="200px" viewBox="0 0 200 200" enable-background="new 0 0 200 200" xml:space="preserve">
<path fill="#FFFFFF" d="M155.83,19.733c-2.615,1.22-6.168,1.656-10.678-0.471c-9.998-4.716-15.18-6.313-22.854-1.832l-1.324,0.777
	l0.373,1.466c-14.183-2.187-28.52-2.187-42.702,0l0.374-1.466l-1.327-0.777c-7.672-4.484-12.854-2.884-22.851,1.832
	c-4.513,2.127-8.052,1.662-10.681,0.474c-3.157-1.426-6.152-5.52-8.183-9.736c-1.619,4.796-1.336,10.02-1.293,10.559
	c0.235,3.14,1.146,6.441,2.618,9.581c-1.495-0.125-3.966-0.334-3.966-0.334l-0.553,0.817l-1.138,1.744
	c-5.093,7.805-13.46,15.613-13.545,15.692l-2.326,2.155l1.279,5.559c0.19,0.837,4.839,20.843,16.519,46.759
	c4.245,9.413,8.987,18.512,14.078,27.136c-2.267,0-3.993,0-5.922,0c0.088-0.264,0.944-2.852,0.944-2.852H12.312l2.481,2.74
	c0.097,0.108,2.428,2.74,2.428,8.276v31.978l2.039-0.521c2.855-0.737,5.445-1.285,8.449-1.917l10.258-2.258l0.167-1.078
	c0,0,0.094-0.563,0.19-1.128c8.143-1.776,18.466-3.305,29.337-4.338c8.091,9.938,16.77,18.73,25.82,26.115l6.525,5.313l6.526-5.313
	c9.09-7.414,17.799-16.25,25.922-26.24c10.724,0.968,20.085,2.395,27.864,4.24c0.617,0.959,1.966,2.389,4.791,3.146
	c2.582,0.698,4.979,1.251,6.752,1.562c3.695,0.643,6.543,0.152,8.461-1.459c1.67-1.406,2.519-3.535,2.519-6.336v-9.549
	c0-3.318-1.562-5.675-2.913-7.119c1.043-0.593,2.913-1.656,2.913-1.656v-3.854c0-5.061,2.343-7.766,2.441-7.88l2.405-2.714
	l-3.617-0.01h-17.784c-3.228,0-5.113,1.748-5.993,2.852c-1.061,0-5.003,0-7.936,0c5.09-8.621,9.832-17.72,14.078-27.136
	c11.68-25.917,16.328-45.922,16.521-46.762l1.276-5.556l-2.322-2.155c-0.085-0.08-8.457-7.888-13.545-15.692l-1.672-2.561
	c0,0-2.498,0.21-4.004,0.337c1.473-3.143,2.34-6.447,2.617-9.583c0.108-1.214,0.049-7.008-1.291-10.559
	C162.863,12.513,160.189,17.706,155.83,19.733"/>
<path d="M166.287,128.45c-3.661,0-5.153,2.848-5.153,2.848h-11.616c6.353-10.491,11.457-20.624,15.434-29.438
	c11.591-25.709,16.229-45.616,16.418-46.45l1.064-4.64l-1.634-1.512c-0.086-0.082-8.597-8.018-13.801-15.999l-1.142-1.744
	c0,0-2.135,0.205-5.967,0.505c3.063-5.116,4.512-11.273,3.558-16.288l-0.207-1.086l-0.548,0.958
	c-0.256,0.443-6.324,10.758-18.236,5.137c-9.665-4.558-14.3-6.007-21.33-1.898l-0.268,0.156l0.682,2.658
	c-15.593-2.687-31.492-2.687-47.085,0l0.681-2.658L76.87,18.84c-7.028-4.109-11.665-2.66-21.33,1.898
	c-11.912,5.621-17.981-4.694-18.233-5.137l-0.551-0.958l-0.207,1.086c-0.953,5.014,0.496,11.171,3.557,16.285
	c-3.82-0.298-5.95-0.502-5.95-0.502l-1.141,1.744c-5.204,7.981-13.715,15.917-13.8,15.999l-1.634,1.512l1.066,4.64
	c0.192,0.834,4.83,20.741,16.415,46.452c3.977,8.813,9.085,18.947,15.435,29.438H39.473l0.947-2.848H15.989
	c0,0,2.862,3.041,2.862,9.385c0,6.997,0,29.873,0,29.873c5.298-1.359,9.483-2.047,17.675-3.943l0.377-2.223
	c8.353-1.891,19.294-3.561,31.447-4.68c7.606,9.418,16.293,18.507,26.16,26.558l5.496,4.478l5.496-4.478
	c9.912-8.086,18.635-17.218,26.264-26.683c10.024,0.873,20.453,2.279,29.623,4.513c0,0,0.66,2.065,4.146,3.007
	c2.394,0.645,4.782,1.208,6.608,1.525c6.051,1.052,9.064-1.258,9.064-6.188v-9.549c0-4.878-4.07-7.411-4.07-7.411l4.07-2.313
	c0,0,0-0.641,0-2.905c0-5.829,2.863-8.97,2.863-8.97S174.835,128.45,166.287,128.45"/>
<path fill="#FFFFFF" d="M145.096,32.071c-0.462,1.282-4.875,13.539-5.32,14.776c-25.688-9.047-53.861-9.047-79.548,0
	c-0.445-1.237-4.858-13.494-5.32-14.776C84.022,21.787,115.979,21.787,145.096,32.071z M53.577,30.794l-0.766,0.278l6.424,17.845
	l0.769-0.275c25.791-9.285,54.2-9.285,79.992,0l0.766,0.275l6.428-17.845l-0.77-0.278C116.484,20.017,83.515,20.017,53.577,30.794"
	/>
<path fill="#FFFFFF" d="M73.9,20.349c-6.044-2.502-9.921-0.04-14.518,2.221c-1.521,0.751-3.098,1.528-4.646,2.13
	c-4.629,1.804-9.269,1.475-13.063-0.925l-1.844-1.168l0.627,2.093c1.73,5.763,5.165,10.19,9.666,12.459
	c0.198,0.1,0.399,0.179,0.598,0.27l-0.92-2.332c-3.086-1.9-5.554-4.992-7.107-8.925c3.84,1.725,8.253,1.756,12.64,0.048
	c1.608-0.63,3.22-1.418,4.771-2.184c2.632-1.296,5.514-3.205,9.529-3.264l-7.373,5.204L73.9,20.349"/>
<path fill="#FFFFFF" d="M158.323,23.775c-3.796,2.399-8.433,2.729-13.063,0.925c-1.546-0.602-3.121-1.378-4.646-2.13
	c-4.595-2.261-8.472-4.723-14.515-2.221c0.342-0.034,0.647-0.034,0.94-0.009l-0.94,0.009l11.64,5.626l-7.37-5.204
	c4.014,0.06,6.896,1.968,9.523,3.264c1.558,0.766,3.164,1.554,4.773,2.184c4.385,1.708,8.798,1.676,12.641-0.048
	c-1.557,3.931-4.019,7.02-7.104,8.922l-0.922,2.331c0.199-0.09,0.396-0.167,0.59-0.266c4.507-2.269,7.938-6.696,9.669-12.459
	l0.629-2.093L158.323,23.775"/>
<path fill="#0072CE" d="M160.172,43.574c-3.502,0.27-8.146,0.596-13.688,0.917l-3.567,9.007l-0.946-0.377
	c-27.063-10.715-56.875-10.715-83.938,0l-0.95,0.377l-3.564-9.007c-5.542-0.321-10.174-0.647-13.676-0.917
	c-3.327,4.399-6.96,8.333-9.523,10.942c1.307,5.091,5.979,21.983,15.27,42.602c2.021,4.487,4.379,9.358,7.045,14.44
	c0.221-0.773,0.456-1.676,0.547-1.951c2.085-7.356,5.925-14.33,11.558-20.235c18.511-19.413,49.363-20.148,68.777-1.642
	c5.998,5.718,10.207,12.618,12.625,19.993c0.271,0.873,0.758,2.685,1.082,4.143c2.729-5.196,5.14-10.17,7.201-14.745
	c9.292-20.619,13.965-37.511,15.271-42.602C167.132,51.906,163.499,47.976,160.172,43.574z M104.664,164.379
	c0,0-8.56-5.326-8.795-5.468c-0.272,0.026-8.554,0.966-8.554,0.966l4.577-4.384c-3.117,0.073-6.208,0.198-9.268,0.354
	c5.297,5.997,11.077,11.77,17.382,17.084c6.321-5.328,12.116-11.117,17.422-17.136c-1.5-0.067-2.978-0.13-4.406-0.179
	L104.664,164.379"/>
<path d="M90.518,131.298c1.186-2.075,2.91-2.972,9.421-2.972c6.512,0,8.125,1.137,9.356,2.972h26.577
	c4.286-6.618,8.153-12.848,11.43-19.073c-0.317-1.502-0.864-3.556-1.159-4.502c-2.42-7.375-6.629-14.272-12.627-19.993
	c-19.412-18.506-50.268-17.771-68.778,1.642c-5.633,5.908-9.473,12.878-11.558,20.235c-0.113,0.35-0.454,1.668-0.709,2.504
	c3.324,6.346,7.289,12.424,11.665,19.188L90.518,131.298"/>
<path fill="#0072CE" d="M81.791,96.848c0,0-5.968,4-10.497,11.186c0,0,1.177,4.184,3.432,8.123c0,0-1.718-4.66-1.716-7.989
	C74.587,103.998,81.791,96.848,81.791,96.848"/>
<path fill="#0072CE" d="M117.99,85.603c0.234,4.563-0.879,8.406-0.879,8.406s3.283,1.418,6.421,4.268c0,0-3.653-4.07-4.433-4.617
	C118.322,93.112,119.566,87.364,117.99,85.603"/>
<path fill="#B2B4B2" d="M144.387,99.922c-0.695-1.336-1.445-2.641-2.264-3.914c1.938-4.728,4.738-9.561,8.689-13.046
	c14.944-13.199,13.211-23.381,12.084-25.406c-0.978,6.126-4.403,12.439-17.371,19.476c-5.396,2.927-9.332,5.32-12.616,8.295
	c-0.406-0.352-0.813-0.698-1.226-1.038c0.524-3.849,1.922-7.442,4.801-10.045c13.199-11.934,11.773-22.76,10.647-24.788
	c-0.973,6.129-2.994,10.993-14.507,18.092c-5.27,3.247-8.943,6.443-11.796,9.938c-1.021-0.474-2.062-0.919-3.11-1.319
	c-0.262-2.632,0.402-5.377,2.516-8.367c6.304-8.928,3.328-17.141,2.209-19.328c-0.068,6.324-1.938,9.515-8.836,17.11
	c-2.643,2.91-4.655,5.468-6.104,7.916c-0.563-0.085-1.132-0.173-1.705-0.241c-0.231-3.038-0.985-6.188-2.583-9.578
	c-3.911-8.31-4.683-11.472-2.646-16.773c-1.784,1.515-7.266,7.516-4.333,16.759c0.91,2.867,0.493,6.14-0.655,9.45
	c-1.041,0.09-2.076,0.207-3.097,0.357c-1.447-2.439-3.463-4.992-6.093-7.89c-6.899-7.596-8.767-10.786-8.834-17.11
	c-1.12,2.187-4.096,10.4,2.209,19.328c2.099,2.973,2.769,5.704,2.519,8.322c-1.072,0.402-2.127,0.836-3.162,1.31
	c-2.842-3.475-6.512-6.651-11.75-9.884C55.86,60.449,53.838,55.585,52.865,49.456c-1.126,2.028-2.55,12.854,10.649,24.788
	c2.851,2.575,4.246,6.12,4.788,9.924c-0.44,0.357-0.868,0.72-1.294,1.089c-3.267-2.941-7.184-5.324-12.535-8.225
	c-12.97-7.037-16.396-13.35-17.369-19.476c-1.129,2.025-2.864,12.207,12.082,25.406c3.905,3.446,6.693,8.208,8.625,12.888
	c-0.834,1.287-1.605,2.617-2.323,3.979c-1.982-1.424-4.464-2.652-7.589-3.511c-1.129-0.312-2.161-0.681-3.143-1.075
	c0.272,0.621,0.55,1.245,0.834,1.875c1.729,3.834,3.695,7.942,5.893,12.231l-0.002,0.006c0.224,0.438,0.468,0.889,0.697,1.33
	c0.15,0.289,0.307,0.584,0.457,0.873c0.221-0.773,0.456-1.676,0.547-1.951c2.085-7.356,5.925-14.33,11.558-20.235
	c18.511-19.413,49.368-20.148,68.78-1.642c5.998,5.718,10.207,12.618,12.627,19.993c0.271,0.873,0.76,2.688,1.08,4.146
	c0.125-0.235,0.244-0.474,0.367-0.703c0.223-0.42,0.453-0.854,0.672-1.271l-0.006-0.015c2.311-4.476,4.367-8.771,6.168-12.763
	c0.284-0.632,0.564-1.259,0.842-1.883c-0.99,0.397-2.027,0.769-3.164,1.083C148.91,97.196,146.393,98.458,144.387,99.922"/>
<path fill="#FFFFFF" d="M101.118,178.046c0,0-0.751,0.615-1.111,0.907c-0.363-0.297-1.117-0.91-1.117-0.91
	c-8.183-6.676-15.53-14.104-22.104-21.854c-0.987,0.066-1.963,0.141-2.938,0.213c6.954,8.354,14.79,16.382,23.585,23.558l2.575,2.14
	l2.575-2.14c8.829-7.203,16.692-15.267,23.67-23.653c-0.995-0.07-1.979-0.136-2.958-0.195
	C116.703,163.889,109.332,171.348,101.118,178.046z M176.695,51.668c-0.076-0.071-7.803-7.011-12.678-14.706l-0.511-0.8
	l-0.938,0.091c-0.121,0.011-5.121,0.479-13.232,1.023l-0.979,2.474c6.082-0.366,10.881-0.726,14.002-0.979
	c4.32,6.146,9.929,11.872,12.425,14.317c-0.05,0.21-0.177,0.763-0.177,0.763c-0.188,0.808-4.646,20.012-15.98,45.16
	c-4.328,9.597-10.029,20.798-17.258,32.286h2.802c6.896-11.113,12.374-21.915,16.563-31.217
	c11.396-25.279,15.942-44.777,16.127-45.591l0.512-2.218L176.695,51.668z M25.408,53.857c0,0-0.073-0.314-0.179-0.768
	c2.493-2.442,8.101-8.171,12.423-14.317c3.122,0.252,7.915,0.613,13.987,0.979l-0.979-2.474c-8.103-0.547-13.1-1.012-13.216-1.023
	l-0.941-0.091l-0.505,0.8c-4.879,7.694-12.604,14.635-12.681,14.706l-0.681,0.604l0.511,2.218
	c0.187,0.814,4.733,20.312,16.129,45.591c4.191,9.302,9.671,20.104,16.565,31.217h2.802c-7.226-11.488-12.932-22.691-17.257-32.286
	C30.052,73.864,25.593,54.66,25.408,53.857"/>
<path fill="#FFFFFF" d="M136.018,34.932c0.271-0.352,0.541-0.703,0.813-1.055c-1.741-0.567-3.491-1.092-5.25-1.574
	c0,0,0.344,0.567,0.134,1.313c-0.21,0.746-0.369,1.313-0.369,1.313c-0.465,1.664-0.931,3.332-1.393,5
	c1.361,0.38,2.72,0.786,4.07,1.219c0.129-0.403,0.258-0.802,0.386-1.205c-0.587-0.187-1.177-0.372-1.767-0.55
	c0.229-0.757,0.459-1.517,0.688-2.277c0.602,0.184,1.203,0.371,1.804,0.564c0.132-0.403,0.259-0.802,0.39-1.205
	c-0.604-0.195-1.217-0.383-1.824-0.567c0.152-0.519,0.312-1.035,0.468-1.551C134.783,34.544,135.4,34.736,136.018,34.932z
	 M114.338,35.275c-0.021,0.15-0.411,0.19-0.661,0.159c-0.31-0.04-0.608-0.198-0.577-0.468c0.184-1.551,0.358-3.108,0.543-4.662
	c0.021-0.154,0.408-0.196,0.637-0.168c0.371,0.045,0.691,0.193,0.654,0.471C114.736,32.162,114.536,33.718,114.338,35.275z
	 M114.466,28.877c-2.907-0.343-3.241-0.142-3.372,1.254c-0.148,1.543-0.293,3.085-0.438,4.628c-0.138,1.466,0.28,1.645,2.866,1.948
	c2.648,0.335,3.043,0.23,3.259-1.2c0.229-1.531,0.462-3.065,0.688-4.597C117.686,29.484,117.254,29.229,114.466,28.877z
	 M104.484,29.359c-0.027,0.774-0.051,1.364-0.051,1.364c-0.051,1.24-0.097,2.479-0.145,3.719c-0.006,0.164-0.395,0.235-0.641,0.229
	c-0.297-0.011-0.629-0.133-0.618-0.406c0.014-0.53,0.026-1.063,0.042-1.599c-0.776,0.119-1.557,0.241-2.325,0.371
	c-0.003,0.414-0.006,0.829-0.011,1.239c-0.01,1.416,0.379,1.597,2.869,1.665c2.664,0.099,3.043-0.034,3.129-1.463
	c0.125-2.076,0.25-4.149,0.371-6.223c-1.019-0.063-2.033-0.11-3.055-0.145C104.057,28.111,104.518,28.585,104.484,29.359z
	 M88.365,32.624c-0.749-1.262-1.521-2.516-2.31-3.761c-0.936,0.111-1.871,0.232-2.805,0.366c0,0,0.403,0.315,0.573,0.916
	c0.309,2.247,0.621,4.49,0.93,6.733c0.676-0.094,1.354-0.179,2.031-0.264c-0.153-1.262-0.304-2.524-0.454-3.787
	c0.769,1.188,1.518,2.385,2.246,3.588c0.74-0.077,1.48-0.145,2.221-0.207c-0.215-2.587-0.428-5.17-0.644-7.757
	c-0.731,0.063-1.463,0.128-2.195,0.204C88.096,29.978,88.229,31.299,88.365,32.624z M76.884,34.93
	c-0.025-0.792-0.048-1.583-0.07-2.374l0.221-0.045c0.347,0.896,0.689,1.795,1.03,2.694C77.673,35.111,77.278,35.021,76.884,34.93z
	 M74.133,30.888c0,0,0.642,0.238,0.661,1.114c0.006,0.156,0.006,0.307,0.012,0.448c0,2.087,0.025,4.169,0.073,6.248
	c0.706-0.162,1.418-0.32,2.127-0.468c-0.025-0.599-0.048-1.197-0.071-1.795c0.585,0.133,1.166,0.275,1.745,0.417
	c0.119,0.323,0.24,0.646,0.357,0.967c0.723-0.139,1.446-0.269,2.172-0.395c-0.97-2.464-1.979-4.92-3.023-7.365
	C76.83,30.313,75.48,30.587,74.133,30.888z M124.834,30.607c-2.742-0.57-3.219-0.454-3.477,0.944
	c-0.058,0.297-0.108,0.598-0.166,0.894c-0.118,0.661,0.104,1.14,0.926,1.602c0.566,0.318,1.126,0.644,1.682,0.967
	c0.436,0.25,0.715,0.431,0.655,0.703c-0.095,0.423-0.185,0.848-0.28,1.271c-0.031,0.142-0.457,0.147-0.688,0.1
	c-0.288-0.065-0.612-0.25-0.555-0.511c0.062-0.306,0.123-0.612,0.188-0.921c-0.842-0.031-1.674-0.054-2.508-0.071
	c-0.036,0.19-0.07,0.38-0.104,0.567c-0.264,1.441,0.199,1.654,2.729,2.184c1.394,0.301,2.195,0.471,2.687,0.232
	c0.345-0.165,0.44-0.434,0.536-0.826c0.141-0.576,0.275-1.151,0.417-1.724c0.142-0.596-0.011-1.052-0.94-1.6
	c-0.514-0.306-1.033-0.607-1.552-0.908c-0.429-0.247-0.731-0.425-0.676-0.7c0.052-0.238,0.101-0.479,0.149-0.72
	c0.047-0.236,0.39-0.313,0.713-0.242c0.371,0.077,0.658,0.255,0.602,0.52c-0.04,0.173-0.076,0.343-0.113,0.513
	c0.842,0.048,1.688,0.103,2.535,0.164c0.049-0.204,0.1-0.411,0.147-0.615C127.988,31.427,126.943,31.064,124.834,30.607z
	 M66.291,32.862c-2.699,0.809-3.068,1.14-2.626,2.493c0.094,0.286,0.188,0.576,0.28,0.865c0.207,0.639,0.636,0.95,1.586,0.961
	c0.652,0.012,1.302,0.025,1.948,0.048c0.505,0.011,0.84,0.037,0.913,0.303c0.122,0.417,0.244,0.834,0.363,1.254
	c0.04,0.139-0.338,0.346-0.564,0.414c-0.283,0.083-0.658,0.074-0.734-0.184c-0.088-0.298-0.179-0.598-0.272-0.899
	c-0.755,0.372-1.506,0.751-2.252,1.138c0.06,0.184,0.116,0.366,0.179,0.547c0.451,1.393,0.967,1.358,3.457,0.616
	c1.373-0.403,2.164-0.632,2.479-1.075c0.227-0.309,0.184-0.595,0.079-0.987c-0.15-0.57-0.304-1.14-0.454-1.71
	c-0.158-0.596-0.508-0.922-1.594-0.962c-0.599-0.02-1.197-0.04-1.801-0.053c-0.496-0.015-0.849-0.026-0.931-0.292
	c-0.07-0.235-0.142-0.471-0.213-0.706c-0.067-0.23,0.199-0.462,0.514-0.553c0.366-0.107,0.706-0.088,0.783,0.17
	c0.048,0.17,0.094,0.338,0.145,0.508c0.766-0.366,1.537-0.72,2.312-1.066c-0.055-0.204-0.108-0.408-0.162-0.613
	C69.465,32.076,68.373,32.255,66.291,32.862"/>
<path fill="#FFFFFF" d="M99.896,149.764c-0.706,0-1.229-0.343-1.229-1.086l0.006-11.6c0-0.156,0-0.21,0-0.395
	c0-0.428,0.621-0.664,1.115-0.664c0.812,0,1.329,0.289,1.329,1.059c0.003,3.867,0.003,7.732,0.006,11.6c0,0.238,0,0.369,0,0.426
	C101.124,149.525,100.461,149.764,99.896,149.764z M101.964,153.773c4.257-0.133,4.906-0.933,4.897-4.424
	c-0.008-4.293-0.02-8.586-0.025-12.877c-0.008-4.009-0.998-4.457-6.974-4.457c-6.226,0-6.895,0.555-6.903,4.457
	c-0.011,4.295-0.02,8.588-0.031,12.879c-0.005,3.537,0.743,4.297,4.854,4.422l-4.74,3.539l4.751-0.963l6.396,4.047l4.401-4.48
	l-1.938,0.477L101.964,153.773z M149.406,134.725c-1.547-0.029-3.094,0.022-4.641,0c-0.586,2.604-1.177,5.267-1.767,7.818
	l-0.008,0.006c-0.255-0.146-0.48-0.279-0.734-0.423c-0.021-2.453,0.021-4.949,0-7.401c-0.705-0.012-5.083,0.002-5.354,0
	c0,0,0.861,0.918,0.879,2.515c0.011,1.592,0,2.803,0,2.803c0.039,4.771-0.04,9.535,0,14.3c1.488,0.156,2.986,0.317,4.476,0.493
	c-0.021-2.958,0.025-5.919,0-8.877c0.334,0.192,0.683,0.386,1.017,0.582c0.729,2.856,1.461,5.745,2.188,8.672
	c1.577,0.196,3.15,0.401,4.729,0.621c-1.104-3.99-2.211-7.904-3.313-11.75C147.719,141.057,148.563,137.835,149.406,134.725z
	 M33.795,137.367c0.502-1.768,1.004-3.563,1.503-5.292c-3.31,0.003-13.477,0-13.806,0c0,0.003,0.983,1.54,0.983,4.042
	c0,0.306,0.003,19.443,0,26.953c3.591-0.846,7.182-1.627,10.792-2.354c0.272-1.817,0.55-3.627,0.822-5.425
	c-1.957,0.313-3.911,0.646-5.862,0.992c0.006-2.399,0.015-4.793,0.02-7.188c1.832-0.229,3.665-0.444,5.5-0.655
	c0.005-1.758,0.014-3.521,0.022-5.277c-1.835,0.145-3.67,0.29-5.508,0.445l0.017-6.023
	C30.119,137.506,31.957,137.436,33.795,137.367z M84.831,141.223v0.229c-0.746-0.337-1.5-0.677-2.246-1.011
	c0.011-1.976-0.012-3.742,0-5.717c-0.774,0.004-5.165-0.004-5.435,0c0,0,0.763,0.707,0.755,2.205c-0.009,1.5,0,2.646,0,2.646
	c-0.031,4.487,0.025,8.979,0,13.471c1.563-0.093,3.114-0.178,4.68-0.255c0.011-2.439-0.015-4.884,0-7.328
	c0.746,0.328,1.497,0.657,2.246,0.986c-0.012,2.08,0.009,4.16,0,6.24c1.574-0.065,3.137-0.116,4.714-0.164v-17.801
	c-1.568,0.004-3.148-0.011-4.714,0C84.819,136.962,84.84,138.986,84.831,141.223z M116.521,134.725c0.02,4.693,0,13.065,0,13.797
	c0,0.814-0.573,0.941-1.043,0.931c-0.563-0.021-1.112-0.312-1.115-0.938v-13.789c-0.783-0.006-5.271,0-5.539,0
	c0,0,0.828,0.618,0.83,2.078c0.004,1.449-0.008,8.926,0,12.104c0.012,3.378,0.856,3.729,5.838,3.932
	c5.1,0.231,5.757-0.131,5.74-3.522v-14.592C119.664,134.713,118.087,134.732,116.521,134.725z M128.41,145.325
	c0.262-2.203,0.52-4.41,0.777-6.625c0.179,0.006,0.354,0.009,0.535,0.012c0.338,2.614,0.676,5.238,1.014,7.87
	C129.962,146.162,129.188,145.739,128.41,145.325z M125.182,134.725c0,0,0.73,0.676,0.808,2.07
	c-0.964,5.484-1.933,10.926-2.899,16.311c1.455,0.091,2.913,0.189,4.368,0.303c0.17-1.432,0.34-2.867,0.511-4.305
	c1.108,0.606,2.223,1.225,3.332,1.852c0.122,0.936,0.238,1.855,0.357,2.794c1.475,0.128,2.943,0.267,4.418,0.408
	c-1.202-6.604-2.399-13.021-3.598-19.433C131.098,134.707,125.182,134.725,125.182,134.725z M170.436,132.075
	c-6.088,0.009-7.056,0.505-7.024,5.627c0.006,1.089,0.012,2.181,0.021,3.271c0.014,2.41,0.703,4.004,2.719,5.291
	c1.379,0.887,2.754,1.799,4.129,2.737c1.076,0.703,1.561,1.211,1.563,2.274c0.005,1.342,0.009,2.687,0.011,4.024
	c0.004,0.298,0.004,0.479,0.004,0.554c0,0.547-0.732,0.779-1.268,0.688c-0.681-0.122-1.271-0.655-1.271-1.664l-0.017-4.002
	c-1.934,0.836-3.868,1.639-5.806,2.41c0.003,0.408,0.003,0.82,0.006,1.229c0.025,5.232,1.186,5.965,7.141,7.234
	c3.279,0.707,5.156,1.09,6.118-0.064c0.675-0.8,0.74-1.929,0.74-3.531v-1.254c0-1.928,0-3.857,0-5.791
	c0-2.434-0.569-4.123-2.864-5.623c-1.268-0.834-2.533-1.646-3.807-2.438c-1.041-0.663-1.563-1.126-1.563-2.166
	c-0.006-0.792-0.008-1.583-0.011-2.377c-0.003-0.896,0.479-1.415,1.199-1.393c0.819,0.029,1.313,0.479,1.313,1.512
	c0.002,0.82,0.002,1.645,0.006,2.464c1.906-0.987,3.816-2.021,5.728-3.104c0,0,0-1.379,0-2.043c0-2.5,0.979-3.859,0.979-3.862
	C176.168,132.075,170.824,132.075,170.436,132.075z M41.297,147.57c0.286-2.355,0.578-4.707,0.87-7.035
	c0.179-0.012,0.354-0.02,0.533-0.028c0.307,2.731,0.607,5.442,0.913,8.144C42.84,148.295,42.067,147.936,41.297,147.57z
	 M38.228,134.725c0,0,1.007,1.332,0.777,2.978c-0.232,1.642-2.152,13.418-3.222,20.347c1.438-0.256,2.878-0.505,4.322-0.74
	c0.213-1.768,0.426-3.506,0.641-5.25c1.138,0.508,2.28,1.004,3.424,1.491c0.113,1.015,0.229,2.04,0.343,3.054
	c1.466-0.229,2.93-0.44,4.396-0.646c-1.128-6.848-2.257-14.085-3.392-21.229C44.142,134.749,38.628,134.716,38.228,134.725z
	 M57.859,139.789c-0.006,0.729-0.012,1.458-0.02,2.188c-0.003,0.24-0.003,0.441-0.006,0.541c-0.003,0.594-0.21,0.803-1.001,0.851
	c-0.147,0.009-0.976,0.028-1.151,0.043l0.039-4.878c0.147-0.012,0.979-0.037,1.123-0.04c0.996-0.034,1.024,0.216,1.019,1.053
	L57.859,139.789z M62.539,142.109c0.009-1.114,0.02-2.231,0.028-3.353c0.028-3.469-0.698-4.104-5.769-4.032
	c-1.132,0.014-6.279-0.009-6.549,0c0.003,0,0.724,1.146,0.709,2.824c-0.048,6.041,0.051,12.084,0,18.125
	c1.565-0.209,3.058-0.408,4.623-0.601c0.025-2.802,0.049-5.599,0.071-8.396c0.267-0.021,0.535-0.041,0.802-0.062
	c1.03,2.698,2.06,5.37,3.086,7.991c1.427-0.158,2.851-0.312,4.277-0.447c-1.072-2.684-2.145-5.417-3.214-8.178
	C62.216,145.416,62.52,144.357,62.539,142.109z M160.172,139.186c0.42-1.348,0.844-3.092,1.264-4.461c0,0-9.998,0.006-10.268,0
	c0,0,0.854,1.209,0.867,2.924c0.006,0.684-0.042,13.041,0,18.457c2.723,0.395,5.539,0.813,8.253,1.271
	c-0.011-1.378-0.017-2.751-0.028-4.126c-1.162-0.165-2.379-0.32-3.548-0.477c-0.014-2.057,0.015-4.107,0-6.166
	c1.169,0.107,2.343,0.225,3.509,0.336c-0.006-1.209-0.015-2.418-0.02-3.625c-1.169-0.088-2.32-0.17-3.489-0.252v-4.045
	C157.881,139.075,159.004,139.126,160.172,139.186z M63.813,134.725c0,0,0.8,0.891,0.788,2.455
	c-0.014,1.574-0.011,1.146-0.011,1.146c0.185-0.008,0.371-0.014,0.556-0.02c0.908-0.021,1.758-0.046,2.666-0.07v15.561
	c1.563-0.136,3.12-0.264,4.683-0.383c0.036-5.1-0.037-10.188,0-15.29c0.919-0.019,1.892-0.036,2.808-0.056l0.025-3.344
	C72.709,134.747,64.093,134.719,63.813,134.725"/>
<path fill="#B2B4B2" d="M104.021,158.967c-0.666-0.422-6.015-3.806-6.015-3.806l-1.599,0.323c-0.36,0.27-0.721,0.539-1.075,0.803
	c1.174-0.235,2.563-0.52,2.563-0.52l6.208,3.928l2.61-2.662c0,0-0.21-0.116-0.541-0.301
	C105.217,157.723,104.32,158.661,104.021,158.967"/>
<path fill="#B2B4B2" d="M68.951,137.063l-3.216,0.086c0.034-0.777-0.188-1.43-0.399-1.875c-0.301,0-0.505,0-0.565,0
	c0.199,0.468,0.381,1.086,0.381,1.867c0,0.016-0.003,0.332-0.006,0.614l3.216-0.088c0,0,0,14.425,0,15.53
	c0.8-0.065,2.888-0.238,3.579-0.295v-0.558c-0.913,0.072-2.354,0.191-2.989,0.24C68.951,151.484,68.951,137.063,68.951,137.063z
	 M60.281,153.404l-3.083-7.975l-0.192,0.032l-1.311,0.104c0,0,0,0.219-0.003,0.562l0.721-0.058l0.411-0.027
	c0,0,2.808,7.271,3.08,7.979c0.559-0.057,2.255-0.235,3.137-0.33c-0.048-0.115-0.125-0.314-0.216-0.549L60.281,153.404z
	 M52.1,136.898c0-0.578-0.199-1.188-0.377-1.625c-0.313,0-0.539,0-0.61,0c0.204,0.554,0.4,1.321,0.4,2.229v17.545
	c0.822-0.104,2.87-0.375,3.524-0.46c0-0.091,0.003-0.289,0.003-0.561c-0.888,0.113-2.288,0.3-2.94,0.385V136.898z M72.53,137.574
	c0.681-0.018,1.759-0.037,2.227-0.049c0-0.17,0.003-0.377,0.003-0.592c-0.898,0.02-2.229,0.045-2.229,0.045
	S72.53,137.197,72.53,137.574z M85.971,151.514c0-0.766,0-5.793,0-5.793l-3.346-1.47c0,0,0,0.237,0,0.629l2.425,1.063l0.331,0.146
	c0,0,0,5.267,0,6.027c0.771-0.025,2.885-0.101,3.61-0.125v-0.584C88.056,151.438,86.587,151.491,85.971,151.514z M45.5,155.318
	c-0.08-0.69-0.29-2.543-0.29-2.543l-4.387-1.911l-0.034,0.517l-0.012,0.085l3.902,1.704c0,0,0.238,2.109,0.317,2.801
	c0.735-0.109,2.556-0.375,3.279-0.479c-0.015-0.092-0.043-0.289-0.091-0.567C47.307,155.055,46.062,155.236,45.5,155.318z
	 M79.043,137.135c0-0.824-0.156-1.432-0.324-1.859h-0.601c0.179,0.41,0.337,0.935,0.337,1.627v15.562
	c0.78-0.04,2.868-0.151,3.579-0.19v-0.576c-0.924,0.052-2.368,0.132-2.991,0.164V137.135L79.043,137.135z M28.315,137.029
	c1.33-0.055,4.518-0.176,5.06-0.198c0.049-0.176,0.113-0.394,0.165-0.59c-1.39,0.054-5.222,0.204-5.222,0.204L28.315,137.029z
	 M58.083,138.261c0.335,0.329,0.332,0.794,0.33,1.288l-0.004,0.246v-0.003l-0.022,2.731c-0.003,0.252-0.048,0.451-0.113,0.623
	c0.403-0.172,0.695-0.521,0.7-1.23c0,0,0.023-2.163,0.023-2.729c0-1.67-1.194-1.849-2.048-1.824l-1.186,0.025l-0.006,0.588
	l1.069-0.033C57.363,137.923,57.782,137.971,58.083,138.261z M85.971,135.273c-0.243,0-0.456,0-0.59,0v6.158l0.59,0.264V135.273z
	 M61.583,144.588c-0.167,0.105-0.352,0.199-0.572,0.275l-0.539,0.188l0.133,0.342C61.056,145.203,61.37,144.965,61.583,144.588z
	 M39.161,135.273c0.221,0.502,0.428,1.16,0.428,1.93c0,0.184-0.011,0.377-0.042,0.572l-1.181,7.459c0,0-1.71,10.797-1.92,12.139
	c0.917-0.159,2.624-0.454,3.16-0.544c0.014-0.116,0.042-0.332,0.076-0.606l-2.558,0.428l1.835-12.021c0,0,0.98-5.831,1.188-7.076
	c0.142-0.872-0.145-1.688-0.405-2.271C39.569,135.277,39.365,135.277,39.161,135.273z M44.161,148.587l0.009,0.082l0.604,0.287
	l-1.083-9.636l-1.421,0.084l-0.074,0.578l0.993-0.058L44.161,148.587z M28.287,148.488v0.048c1.282-0.153,4.277-0.509,4.912-0.584
	c0-0.122,0-0.318,0-0.539c-1.503,0.183-4.915,0.587-4.915,0.587L28.287,148.488z M23.616,135.51c0-1.203-0.378-2.164-0.692-2.882
	h-0.566c0.306,0.743,0.669,1.909,0.669,3.489c0,0,0,24.972,0,26.271c3.256-0.761,6.529-1.479,9.754-2.13
	c0.017-0.114,0.048-0.323,0.087-0.59c-3.063,0.624-6.165,1.306-9.251,2.021C23.616,160.395,23.616,135.51,23.616,135.51"/>
<path fill="#B2B4B2" d="M146.307,144.078l1.647-6.072c0,0,0.496-1.85,0.735-2.73h-0.582c-0.588,2.168-2.396,8.806-2.396,8.806
	s2.541,9.024,2.936,10.417c-0.806-0.104-2.117-0.281-2.894-0.387c0.074,0.301,0.128,0.517,0.147,0.602
	c0.517,0.068,2.505,0.332,3.525,0.465c-0.392-1.395-3.086-10.941-3.086-10.941L146.307,144.078z M120.057,135.273
	c0.014,2.806,0.078,13.523,0.078,13.561c0,1.372-0.017,2.148-0.377,2.501c-0.582,0.56-2.224,0.468-4.89,0.347
	c-2.326-0.094-3.628-0.225-4.362-0.602c0.479,0.87,1.729,1.074,5.01,1.208c2.668,0.122,4.129,0.08,4.707-0.479
	c0.363-0.349,0.459-0.994,0.459-2.367c0-0.043,0.006-13.152,0-14.166h-0.625V135.273z M131.451,135.273
	c0.576,3.101,3.055,16.484,3.27,17.66c-0.687-0.064-1.869-0.191-2.646-0.273c0.03,0.255,0.06,0.462,0.071,0.578
	c0.586,0.054,2.359,0.219,3.256,0.303c-0.239-1.293-3.229-17.441-3.383-18.268H131.451z M127.038,147.309
	c0,0-0.494,4.233-0.573,4.903c-0.516-0.034-1.729-0.11-2.629-0.171c-0.048,0.268-0.082,0.463-0.1,0.557
	c0.783,0.055,2.547,0.174,3.23,0.221c0.076-0.666,0.448-3.777,0.448-3.777l0.096-0.814l3.693,2.051
	c-0.056-0.428-0.097-0.744-0.097-0.744L127.038,147.309z M141.125,144.021c0,0-0.003,8.674-0.003,9.588
	c-0.612-0.064-1.914-0.221-2.788-0.325v0.562c0.661,0.074,2.578,0.284,3.375,0.372c0-0.919,0-8.256,0-8.256l0.006-0.956l1.5,0.865
	c-0.119-0.485-0.195-0.786-0.195-0.786L141.125,144.021z M176.854,132.628c-0.338,0.692-0.554,1.729-0.554,3.075v1.613
	c-0.364,0.197-2.616,1.414-3.983,2.154c0.002,0.327,0.008,0.641,0.008,0.69c1.111-0.604,4.191-2.272,4.626-2.509v-1.723
	c0-1.527,0.337-2.604,0.638-3.308h-0.73v0.004h-0.004V132.628z M159.148,153.652c0,0.726-0.006,1.787,0,2.41
	c-0.875-0.133-4.896-0.766-6.563-1.026v0.599c0.771,0.119,6.114,0.938,7.146,1.096c-0.004-0.791-0.02-2.385-0.021-3.002
	C159.582,153.712,159.381,153.684,159.148,153.652z M175.021,146.451c1.035,1.141,1.273,2.416,1.276,4.05v7.046
	c0,1.658,0.063,2.635-0.456,3.255c-0.729,0.878-2.572,0.366-5.738-0.313c-2.828-0.604-4.488-1.144-5.457-2.058
	c0.775,1.498,2.479,2.008,6.104,2.778c3.165,0.683,4.853,0.995,5.582,0.118c0.521-0.618,0.615-1.518,0.61-3.178v-7.045
	C176.948,149.18,176.607,147.747,175.021,146.451z M159.339,138.006l-3.735-0.165v5.128c0,0,0.227,0.018,0.562,0.039v-4.563
	l3.604,0.166c0.15-0.547,0.758-2.688,0.939-3.338h-0.598C159.854,136.176,159.46,137.58,159.339,138.006z M99.261,134.979
	c-0.933,0-1.727,0.537-1.727,1.938l-0.006,11.157c0,0.463,0.097,0.857,0.383,1.148c0.116,0.114,0.261,0.207,0.411,0.278
	c-0.131-0.237-0.207-0.513-0.207-0.825l0.009-11.992c0-0.765,0.848-1.219,1.665-1.219c0.377,0,0.666,0.063,0.906,0.153
	C100.43,135.273,99.981,134.979,99.261,134.979z M156.162,146.003c0,0,2.674,0.253,3.505,0.332c-0.003-0.7-0.015-1.899-0.017-2.507
	c-0.131-0.01-0.332-0.023-0.57-0.04c0.003,0.621,0.009,1.403,0.012,1.92c-0.83-0.082-3.488-0.312-3.488-0.312v7.256
	c0,0,0.227,0.033,0.562,0.078L156.162,146.003L156.162,146.003z M141.709,135.273c-0.143,0-0.346,0-0.587,0c0,1.805,0,6.563,0,6.563
	l0.587,0.354V135.273z M169.23,142.45c-0.32-0.403-0.519-0.892-0.521-1.569l-0.009-2.379c-0.005-0.624,0.188-1.145,0.554-1.497
	c0.313-0.307,0.736-0.46,1.219-0.442c0.369,0.017,0.688,0.104,0.95,0.256c-0.261-0.494-0.728-0.756-1.43-0.756
	c-1.021,0-1.882,0.894-1.882,2.537v1.676C168.122,141.324,168.559,141.928,169.23,142.45z M169.163,156.23
	c-0.253-0.369-0.397-0.826-0.399-1.354c0,0-0.01-2.143-0.012-3.179c-0.171,0.067-0.395,0.163-0.645,0.271
	c0,1.053,0.006,2.305,0.006,2.305C168.119,155.152,168.518,155.857,169.163,156.23z M93.906,152.084l0.238,0.314
	c0.618,0.621,1.951,0.806,4.356,0.84l0.8-0.6h-0.054C96.437,152.648,94.791,152.559,93.906,152.084z M128.703,138.136l0.936,0.022
	l-0.078-0.59l-1.365-0.02l-0.879,7.499l0.539,0.3L128.703,138.136z M105.271,133.209c0.354,0.585,0.42,1.434,0.426,2.661
	l0.025,12.876c0.006,1.74-0.063,2.705-0.537,3.179c-0.683,0.685-2.422,0.722-5.251,0.716l1.078,0.604
	c2.549-0.028,4.01-0.207,4.653-0.853c0.478-0.479,0.651-1.303,0.646-3.043l-0.025-12.873
	C106.279,134.732,106.17,133.751,105.271,133.209z M113.982,149.18c-0.104-0.197-0.166-0.423-0.17-0.666c0,0,0-12.224,0-13.238
	h-0.59c0,2.699,0,12.634,0,12.634C113.227,148.471,113.51,148.928,113.982,149.18"/>
<path fill="#FFFFFF" d="M131.973,89.539c5.129,4.918,8.926,10.777,11.356,17.395c-1.796-1.535-3.644-2.817-3.853-2.961
	c-0.434-2.037-2.187-8.552-7.683-14.031C131.84,89.848,131.895,89.721,131.973,89.539z M96.388,119.596
	c0.15,0.146,8.594,8.047,9.83,9.207c-1.456-0.457-3.435-0.682-6.279-0.682c-6.597,0-8.323,0.925-9.534,2.973
	c-0.21,0-13.217,0-13.725,0c0.502-2.267,1.098-4.51,1.781-6.676C78.683,124.357,96.173,119.652,96.388,119.596z M69.149,108.848
	c2.888,7.858,6.903,13.36,8.163,14.973c-0.754,2.359-1.407,4.806-1.945,7.273c-0.31,0-10.896,0-11.118,0
	c-2.686-4.156-5.332-8.539-7.855-13.035c0.065-0.173,2.606-6.879,2.677-7.064C64.828,109.426,67.956,108.975,69.149,108.848z
	 M66.45,91.005c2.529-2.652,5.389-5.012,8.497-7.008c3.551-1.35,6.174-1.438,7.313-1.396c-0.491,1.997-0.658,4.152-0.658,6.047
	c0,2.405,0.235,4.351,0.335,5.045c-8.449,6.498-11.858,12.157-12.757,13.866c-1.148,0.11-4.263,0.536-10.179,2.133
	c-0.916-2.053-1.248-4.512-1.348-5.541C59.811,99.287,62.769,94.865,66.45,91.005z M139.023,105.209
	c0.901,0.641,3.554,2.568,5.213,4.316l0.279,0.941c0.301,1.146,0.617,2.688,0.897,4.348c-3.029,5.578-6.271,11.058-9.649,16.276
	c-0.209,0-3.953,0-4.174,0c-1.248-2.317-2.316-3.772-2.893-4.483c0.777-1.688,2.938-7.15,2.938-15.883
	c0-0.695-0.018-1.412-0.046-2.146C131.825,108.473,138.818,105.3,139.023,105.209z M130.98,88.631
	c-0.058,0.125-0.111,0.255-0.188,0.425c-1.234-0.791-7.638-4.733-14.203-5.59c-5.267-4.438-12.146-6.138-17.037-6.79
	C111.204,76.558,122.266,80.741,130.98,88.631z M96.712,77.639c4.409,0.326,12.756,1.625,18.854,6.636
	c0.117,0.624,0.267,1.688,0.267,3.174c0,1.784-0.222,4.152-0.964,6.988c-2.709,0.258-8.186,1.245-15.435,4.935
	c-8.587-4.997-14.452-5.862-16.256-6.01c-0.113-0.879-0.304-2.654-0.304-4.762c0-2.005,0.179-4.28,0.763-6.291
	C89.136,78.901,93.782,77.886,96.712,77.639z M115.291,95.682c1.656,0.783,7.425,3.914,15.018,12.578
	c0.039,0.828,0.06,1.631,0.06,2.408c0,8.895-2.347,14.391-2.91,15.59c-8.271,3.805-14.646,4.938-16.532,5.208
	c-0.142-0.137-13.554-12.692-13.706-12.837c0.03-0.207,2.662-17.861,2.693-18.072C107.421,96.72,113.133,95.869,115.291,95.682"/>
<path fill="#B2B4B2" d="M126.861,86.037c0,0-2.16-2.164-8.868-4.334c0,0-2.566-1.288-5.025-1.568c0,0,2.481,1.001,4.112,2.32
	C117.08,82.455,120.404,82.636,126.861,86.037z M122.82,101.961c4.774,4.893,5.88,7.889,5.88,7.889
	c0.394,7.926-5.579,15.036-5.579,15.036c-3.383,2.563-8.962,4.035-10.402,4.085c-1.441,0.045-8.379-4.928-8.379-4.928l7.268,6.264
	c9.045-1.447,15.41-5.254,15.41-5.254c2.606-4.269,2.976-15.529,2.809-16.104C129.661,108.379,122.82,101.961,122.82,101.961z
	 M114.484,84.771c0,0-0.83,5.652-1.938,7.13c0,0-6.606,0.93-13.006,3.869c0,0-2.973-2.785-14.967-3.412
	c0,0,6.943,0.638,15.032,5.429c0,0,5.227-3.478,13.997-4.479C113.604,93.308,115.217,89.655,114.484,84.771z M80.497,86.578
	c-1.509,2.425-1.347,5.777-1.347,5.777c-7.757,5.584-11.348,12.368-11.348,12.368c-4.586,1.008-8.259,3.433-8.259,3.433
	c5.567-1.904,8.874-2.156,8.874-2.156C73.908,97.173,80.55,92.78,80.55,92.78C80.013,89.477,80.497,86.578,80.497,86.578z
	 M142.111,105.096c0,0-1.905-5.417-5.508-9.777c0,0,2.727,3.951,3.565,7.82L142.111,105.096z M143.432,110.391
	c0,0-2.244-2.521-4.298-3.607l-6.122,2.497c0,0,0.584,9.36-2.771,17.114c0,0,1.424,2.317,2.842,4.699H136
	c3.168-4.902,6.068-9.771,8.676-14.488C144.221,114.259,143.547,110.75,143.432,110.391z M74.352,124.71c0,0-1.135,2.89-1.988,6.384
	h1.729c0.481-1.951,1.16-4.127,2.133-6.443c0,0-4.748-6.416-7.326-12.604C68.9,112.046,70.39,118.055,74.352,124.71"/>
<polyline points="132.688,161.287 133.788,161.287 133.788,164.611 134.188,164.611 134.188,161.287 135.348,161.287 
	135.348,160.889 132.688,160.889 132.688,161.287 "/>
<polyline points="138.432,160.889 137.479,163.919 136.52,160.889 135.881,160.889 135.881,164.611 136.277,164.611 
	136.277,161.449 137.275,164.611 137.677,164.611 138.672,161.449 138.672,164.611 139.07,164.611 139.07,160.889 138.432,160.889 
	"/>
</svg>
