<?xml version="1.0" encoding="utf-8"?>
<!-- Generator: Adobe Illustrator 14.0.0, SVG Export Plug-In . SVG Version: 6.00 Build 43363)  -->
<!DOCTYPE svg PUBLIC "-//W3C//DTD SVG 1.1//EN" "http://www.w3.org/Graphics/SVG/1.1/DTD/svg11.dtd">
<svg version="1.1" id="Layer_1" xmlns="http://www.w3.org/2000/svg" xmlns:xlink="http://www.w3.org/1999/xlink" x="0px" y="0px"
	 width="200px" height="200px" viewBox="0 0 200 200" enable-background="new 0 0 200 200" xml:space="preserve">
<g id="Background">
	<path fill="#FFFFFF" d="M161.67,55.753c-5.49,0.607-11.527,0.653-17.402,0.891c1.325-16.382,1.022-30.453,1.022-30.453L100,10
		L54.709,26.191c0,0-0.302,14.071,1.024,30.453c-5.875-0.238-11.912-0.284-17.403-0.891c2.834,5.864,4.84,10.756,6.969,16.28
		c-1.968,0.775-4.477,1.591-6.479,2.445v42.499c2.151-0.918,5.436-2.459,7.488-3.3c-0.861,2.22-1.673,5.193-1.673,5.193l6.051,4.28
		C77.553,142.014,87.503,157.54,100,190c12.497-32.46,22.447-47.986,49.313-66.85l6.054-4.279c0,0-0.813-2.975-1.675-5.193
		c2.054,0.84,5.339,2.383,7.488,3.301v-42.5c-2.003-0.854-4.512-1.67-6.479-2.445C156.83,66.509,158.835,61.617,161.67,55.753z"/>
	<path fill="#171B21" d="M158.76,76.565c-2.429-1.035-4.841-2-7.253-2.906c1.693-4.997,3.874-10.03,6.397-15.248
		c0,0-8.385,0.925-16.266,0.914c1.754-17.479,1.438-31.521,1.438-31.521L100,12.625L56.922,27.804c0,0-0.315,14.042,1.438,31.521
		c-7.88,0.011-16.265-0.914-16.265-0.914c2.524,5.218,4.705,10.251,6.397,15.248c-2.411,0.906-4.824,1.871-7.253,2.906v36.988
		c3.131-1.337,6.186-2.566,9.201-3.699c-0.111,0.441-0.221,0.888-0.34,1.332c-0.653,2.42-2.602,7.229-2.602,7.229
		c7.545,4.646,14.402,9.95,20.833,16.063c15.997,15.201,23.868,30.047,31.668,50.301c7.801-20.254,15.672-35.1,31.668-50.301
		c6.433-6.112,13.288-11.418,20.834-16.063c0,0-1.949-4.809-2.603-7.229c-0.119-0.444-0.229-0.891-0.34-1.332
		c3.015,1.133,6.068,2.362,9.198,3.699V76.565H158.76z"/>
	<path fill="#005695" d="M58.943,64.577c-2.798,0.093-5.566,0.063-8.272-0.121c1.111,2.4,2.073,4.87,2.912,7.381
		c2.023-0.687,4.045-1.335,6.07-1.93C59.394,68.115,59.155,66.332,58.943,64.577z"/>
	<path fill="#005695" d="M143.913,107.822c-3.886-1.316-7.728-2.454-11.597-3.42c-6.191,18.043-15.899,34.164-32.316,46.783
		c-16.417-12.619-26.125-28.74-32.318-46.783c-3.868,0.966-7.71,2.104-11.595,3.42c-0.303,1.574-0.646,3.142-1.063,4.688
		c-0.493,1.822-0.939,3.131-1.192,3.82c6.438,4.148,12.477,9.186,18.014,14.443c9.776,9.293,21.187,22.781,28.153,39.858
		c0,0,0-0.001,0.001-0.001v0.001c6.967-17.077,18.377-30.565,28.154-39.858c5.537-5.262,11.576-10.295,18.014-14.443
		c-0.253-0.689-0.699-1.998-1.191-3.82C144.559,110.964,144.216,109.396,143.913,107.822z"/>
	<path fill="#005695" d="M141.057,64.577c-0.211,1.755-0.451,3.538-0.709,5.33c2.024,0.595,4.047,1.243,6.069,1.93
		c0.839-2.511,1.801-4.98,2.912-7.381C146.623,64.639,143.855,64.669,141.057,64.577z"/>
	<path fill="#FFFFFF" d="M53.584,71.836c-0.839-2.511-1.801-4.98-2.914-7.381c2.706,0.184,5.475,0.214,8.272,0.121
		c-0.061-0.503-0.12-1.003-0.177-1.505c-6.193,0.173-10.518-0.316-10.518-0.316c1.518,3.138,2.812,6.332,3.893,9.568
		C52.622,72.156,53.103,72,53.584,71.836z"/>
	<path fill="#FFFFFF" d="M93.707,55.334c-1.082-0.205-0.877,0.691-0.877,0.691l0.681,8.27c1.005-0.043,2.013-0.082,3.029-0.105
		v-7.548c0,0,0.155-0.831-0.741-0.973C95.824,55.67,93.707,55.334,93.707,55.334z"/>
	<path fill="#FFFFFF" d="M113.505,49.516c0.56-1.484-0.162-3.11-1.454-4.347c-0.201-0.788,0.455-1.029,0.455-1.029
		c0.676,0.532,1.314,1.128,1.926,1.791c1.146-3.056-3.539-5.645-5.371-6.114c-2.051-0.527-4.719-0.267-6.426,0.68l-0.52,0.289
		c1.559-0.056,3.061,0.122,4.568,0.511c1.471,0.382,2.821,0.926,4.067,1.651c0.19,0.636-0.459,0.972-0.459,0.972
		c-1.806-0.935-3.968-1.146-5.562,0.072l0.262,0.083C107.936,45.021,111.773,47.097,113.505,49.516z"/>
	<path fill="#FFFFFF" d="M145.495,108.375c-0.537-0.188-1.073-0.379-1.606-0.563c0.541,2.91,1.278,5.787,2.281,8.52
		c-0.816,0.527-2.578,1.693-4.975,3.469c-17.353,12.84-33.008,30.766-41.195,50.835c-6.967-17.077-18.378-30.565-28.154-39.858
		c-5.538-5.26-11.577-10.295-18.014-14.443c0.252-0.689,0.7-1.996,1.193-3.818c0.417-1.55,0.758-3.117,1.063-4.689
		c-0.526,0.179-1.055,0.367-1.582,0.553c-0.262,1.255-0.549,2.507-0.885,3.76c-0.73,2.702-1.589,4.789-1.589,4.789
		c6.752,4.146,13.094,9.475,18.809,14.906c12.999,12.35,22.646,25.881,29.159,42.793c8.415-21.855,23.438-39.882,42.063-53.66
		c3.312-2.451,5.903-4.043,5.903-4.043s-0.858-2.087-1.585-4.789C146.043,110.882,145.755,109.63,145.495,108.375z"/>
	<path fill="#FFFFFF" d="M149.33,64.456c-1.156,2.492-2.121,4.955-2.936,7.375c0.486,0.165,0.976,0.323,1.463,0.494
		c1.082-3.234,2.377-6.431,3.895-9.566c-3.404,0.385-6.939,0.499-10.523,0.392c-0.057,0.476-0.111,0.952-0.17,1.43
		C143.854,64.669,146.624,64.641,149.33,64.456z"/>
	<path fill="#FFFFFF" d="M66.732,68.033c-2.512-17.309-2.607-31.345-2.586-34.888l33.658-11.86l-0.622,8.17l-0.368,0.511
		c-1.165,0.433-2.351,1.113-3.455,2.053c-0.779,0.727-1.474,1.832-1.654,2.992c-4.021,0.8-7.566,2.238-9.373,4.354
		c-2.818,1.158-6.048,3.039-6.048,5.939c0,2.517,2.533,4.279,4.895,5.437c0,3.238,4.639,4.821,7.126,5.511l1.147,8.282
		c0.618-0.043,1.233-0.093,1.854-0.129l-1.349-9.64c-3.76-0.892-6.927-2.359-6.927-4.024c0-0.362,0.13-0.72,0.383-1.062
		c-3.07-1.188-4.915-2.712-4.915-4.375c0-1.676,1.875-3.211,4.985-4.404c1.395-2.003,5.27-3.626,10.306-4.371
		c-0.943-1.461,0.805-3.132,0.805-3.132c1.105-0.941,2.25-1.527,3.37-1.866l1.03-1.423l0.647-9.007c0.345-1.269,0.712,0,0.712,0
		l0.648,9.007l0.792,1.093c2.913,0.846,4.063,2.276,4.063,2.276l-0.596-0.042c-2.669,0.329-3.393,1.741-3.287,2.698
		c7.036,0.306,12.771,2.231,14.539,4.767c3.111,1.193,4.983,2.728,4.983,4.404c0,1.663-1.845,3.187-4.912,4.375
		c0.25,0.342,0.384,0.7,0.384,1.062c0,1.665-2.757,3.139-6.99,4.049l-1.321,9.611c0.62,0.037,1.235,0.088,1.853,0.129l1.135-8.229
		c2.596-0.669,7.178-2.208,7.178-5.58c2.361-1.158,4.895-2.902,4.895-5.419c0-2.901-3.229-4.781-6.049-5.938
		c-1.805-2.126-5.331-3.878-9.271-4.389c-0.203-1.265-1.013-3.343-5.194-5.001l-0.384-0.521l-0.676-8.188l33.713,11.881
		c0.065,10.339-0.668,22.448-2.502,34.907c0.789,0.19,1.575,0.376,2.361,0.58c2.988-20.598,2.621-37.274,2.621-37.274L100,17.848
		l-38.335,13.51c0,0-0.364,16.676,2.624,37.274C65.101,68.423,65.916,68.228,66.732,68.033z"/>
	<path fill="#FFFFFF" d="M106.38,55.322c-0.629,0.101-2.161,0.342-2.161,0.342c-0.72,0.116-0.752,0.583-0.752,0.877
		c0,0,0.006,3.23,0.006,7.651c1.017,0.022,2.021,0.062,3.026,0.104l0.664-8.232C107.191,55.825,107.236,55.173,106.38,55.322z"/>
	<path fill="#FFFFFF" d="M91.448,100.807c-0.743,8.93-2.213,18.407-3.927,27.504c-5.294-7.596-9.383-16.379-12.563-25.494
		c-0.846,0.158-1.687,0.326-2.525,0.504c5.577,16.087,14.135,31.395,27.568,41.718c13.435-10.323,21.989-25.631,27.571-41.72
		c-0.85-0.178-1.703-0.348-2.559-0.51c-3.279,9.303-7.404,18.021-12.562,25.457c-1.709-9.082-3.136-18.349-3.896-27.459
		c-0.682-0.041-1.363-0.08-2.056-0.108c0.81,9.933,2.728,21.459,4.3,29.862c-0.943,1.263-1.926,2.482-2.938,3.658
		c-1.084-5.443-2.25-11.383-3.105-16.019c-0.191-1.046-0.469-1.654-0.928-1.589c-0.362,0.053-0.543,0.533-0.583,1.724l-1.438,22.005
		c-0.594,0.52-1.194,1.028-1.808,1.518c-0.619-0.49-1.224-1-1.821-1.52l-1.435-22.003c-0.041-1.19-0.219-1.671-0.582-1.724
		c-0.462-0.065-0.738,0.543-0.931,1.589c-0.858,4.643-2.024,10.594-3.108,16.044c-1.017-1.176-2-2.389-2.946-3.643
		c1.577-8.404,3.502-19.955,4.31-29.906C92.803,100.729,92.124,100.766,91.448,100.807z"/>
	<polygon fill="#FFFFFF" points="92.04,75.967 93.862,75.838 92.938,73.963 	"/>
	<path fill="#FFFFFF" d="M100,67.687c-19.666,0-38.395,4.018-55.404,11.277v29.701C61.605,101.402,80.334,97.386,100,97.386
		s38.391,4.017,55.404,11.279V78.964C138.391,71.703,119.666,67.687,100,67.687z"/>
	<path fill="#171B21" d="M75.676,89.168c0,1.783-0.642,2.979-2.042,3.231c-1.411,0.259-2.053-0.696-2.053-2.463v-7.051l-2.477,0.516
		v7.203c0,3.447,1.601,4.957,4.472,4.452c2.872-0.505,4.574-2.631,4.574-6.146v-6.196l0.96-1.131l-3.435,0.529L75.676,89.168
		L75.676,89.168z"/>
	<polygon fill="#171B21" points="85.362,77.229 81.618,77.691 81.618,76.862 84.594,76.496 85.086,75.364 81.618,75.79 
		81.618,74.963 85.281,74.514 85.281,73.313 80.19,73.937 80.19,79.106 85.362,78.472 	"/>
	<path fill="#171B21" d="M94.463,77.798l1.59-0.11l-2.56-4.99l-1.855,0.129l-2.521,5.346l1.594-0.112l0.418-0.944l2.892-0.203
		L94.463,77.798z M91.665,75.967l0.898-2.004l0.924,1.875L91.665,75.967z"/>
	<polygon fill="#171B21" points="89.819,80.357 87.035,80.585 86.998,86.496 80.391,81.007 80.401,93.245 83.261,92.903 
		83.308,88.147 82.139,86.425 89.887,92.539 	"/>
	<path fill="#171B21" d="M62.261,84.9c-3.489,0.909-5.825,4.316-5.825,8.019c0,3.69,2.228,5.909,5.717,5.001
		c3.476-0.906,5.825-4.313,5.825-8.003C67.978,86.213,65.735,83.998,62.261,84.9z M62.2,95.318
		c-1.781,0.463-2.984-0.872-2.984-3.122c0-2.263,1.203-4.204,2.984-4.67c1.784-0.463,2.983,0.854,2.983,3.12
		C65.183,92.895,63.984,94.851,62.2,95.318z"/>
	<path fill="#171B21" d="M97.026,80.031c-2.645,0.032-5.641,0.222-5.641,0.222l1.052,1.184l-0.018,10.662
		c0,0,1.861-0.018,4.251-0.099c1.298,0.032,3.773-1.07,3.773-4.265v-3.913C100.443,80.728,98.683,80.109,97.026,80.031z
		 M98.049,87.69c0,0.893-0.369,1.84-1.918,1.783l-1.15,0.057v-7.076c1.484,0.103,3.068-0.466,3.068,1.976V87.69z"/>
	<polygon fill="#171B21" points="129.164,79.694 125.42,78.964 125.42,78.137 128.292,78.683 128.887,77.739 125.42,77.065 
		125.42,76.237 129.081,76.951 129.081,75.751 123.992,74.763 123.992,79.929 129.164,80.934 	"/>
	<path fill="#171B21" d="M71.9,80.656l1.729-0.337c1.894-0.367,2.319-0.679,2.319-2.071c0-1.505-0.515-1.556-2.729-1.118
		c-1.53,0.305-1.705,0.324-1.705-0.126c0-0.278,0.217-0.44,0.54-0.503l1.58-0.307c0.657-0.127,0.693,0.021,0.693,0.399l1.428-0.276
		v-0.165c0-0.905-0.155-1.498-1.799-1.179l-1.992,0.387c-1.799,0.35-1.876,1.086-1.876,2.022c0,1.271,0.245,1.506,2.391,1.092
		c1.835-0.358,2.003-0.363,2.003,0.088c0,0.399-0.307,0.495-0.61,0.553l-1.747,0.34c-0.412,0.08-0.612,0.077-0.617-0.471
		l-1.428,0.278v0.356C70.082,80.737,70.602,80.908,71.9,80.656z"/>
	<polygon fill="#171B21" points="120.775,78.059 117.57,77.606 117.57,73.768 116.145,73.567 116.145,78.735 120.775,79.386 	"/>
	<path fill="#171B21" d="M52.837,93.492c-1.515-0.127-2.122-0.185-2.122-1.032c0-0.527,0.413-1.19,1.431-1.567
		c0.854-0.313,1.973-0.177,2.664,0.075l0.708-2.938c-0.708-0.248-2.058-0.243-3.371,0.241c-2.812,1.039-4.243,3.396-4.243,5.278
		c0,1.551,0.739,2.598,2.862,2.73c1.84,0.115,2.152,0.457,2.152,1.126c0,0.634-0.377,1.267-1.366,1.633
		c-1.133,0.417-2.399,0.388-3.37-0.008l-0.771,2.994c1.051,0.354,2.696,0.324,4.062-0.174c2.892-1.066,4.291-3.539,4.291-5.599
		C55.763,94.597,55.087,93.682,52.837,93.492z"/>
	<path fill="#171B21" d="M121.117,85.564c0.001-2.04-1.237-3.992-3.633-4.348l-6.164-0.676l1.289,1.409v10.622l2.607,0.292v-4.5
		l1.248,0.189l2.104,4.722l3.052,0.528l-2.485-5.346C120.208,88.126,121.126,87.163,121.117,85.564z M117.486,86.366
		c-0.107,0.006-0.223-0.002-0.346-0.018l-1.925-0.291v-2.671l1.847,0.276c0.887,0.136,1.443,0.789,1.443,1.589
		C118.492,85.944,118.143,86.32,117.486,86.366z"/>
	<path fill="#171B21" d="M149.256,99.538c-2.133-0.775-3.454-2.677-3.454-4.976c0-2.3,1.321-3.236,3.454-2.459
		c0.934,0.342,1.881,1.008,2.725,1.819l0.809-2.139c-1.023-1.033-2.241-1.897-3.563-2.38c-3.718-1.355-6.238,0.446-6.238,4.131
		c0,3.669,2.521,7.312,6.238,8.668c1.308,0.473,2.678,0.532,3.672,0.188l-0.791-2.726C151.249,99.928,150.189,99.88,149.256,99.538z
		"/>
	<polygon fill="#171B21" points="112.404,73.174 106.971,72.793 106.971,74.08 108.975,74.22 108.975,78.103 110.4,78.202 
		110.4,74.319 112.404,74.459 	"/>
	<polygon fill="#171B21" points="138.43,88.1 143.083,89.344 143.083,86.689 135.738,84.724 135.738,89.994 134.381,89.62 
		135.738,91.134 135.738,97.206 138.43,97.926 138.43,92.875 141.118,93.594 142.457,91.781 138.43,90.706 	"/>
	<path fill="#171B21" d="M105.566,89.593l-0.008-2.518l2.611,0.232l1.325-2.008l-3.947-0.353l0.024-2.302l4.633,0.276l-0.012-2.474
		l-7.36-0.383l-0.022,4.658l-1.371-0.131l1.375,1.264l0.047,6.1l7.391,0.43l-0.018-2.407
		C110.234,89.976,105.563,89.551,105.566,89.593z"/>
	<polygon fill="#171B21" points="102.182,77.815 102.182,73.933 104.188,73.969 104.188,72.683 98.752,72.589 98.752,73.875 
		100.756,73.907 100.756,77.792 	"/>
	<path fill="#171B21" d="M127.438,87.853c-1.467-0.928-2.056-1.305-2.07-2.092c-0.01-0.492,0.377-0.89,1.359-0.695
		c0.82,0.161,1.907,0.882,2.578,1.487l0.639-2.355c-0.688-0.61-1.995-1.323-3.262-1.575c-2.709-0.532-4.058,0.901-4.023,2.656
		c0.023,1.441,0.762,2.81,2.816,4.065c1.789,1.086,2.097,1.572,2.106,2.195c0.01,0.589-0.347,0.978-1.294,0.791
		c-1.094-0.217-2.322-0.914-3.27-1.8l-0.699,2.375c1.024,0.888,2.619,1.739,3.936,1.998c2.788,0.549,4.1-1.006,4.063-2.921
		C130.293,90.439,129.624,89.23,127.438,87.853z"/>
	<polygon fill="#171B21" points="113.541,164.199 114.715,164.199 114.715,167.75 115.145,167.75 115.145,164.199 116.38,164.199 
		116.38,163.771 113.541,163.771 	"/>
	<polygon fill="#171B21" points="118.652,167.009 117.634,163.771 116.948,163.771 116.948,167.75 117.377,167.75 117.377,164.371 
		118.439,167.75 118.867,167.75 119.934,164.371 119.934,167.75 120.357,167.75 120.357,163.771 119.674,163.771 	"/>
	<path fill="#5D9732" d="M66.729,68.016c-2.511-17.302-2.605-31.331-2.583-34.872l33.656-11.86l-0.62,8.17l-0.368,0.511
		c-1.167,0.435-2.353,1.115-3.457,2.054c-0.778,0.727-1.472,1.831-1.651,2.992c-4.021,0.799-7.567,2.236-9.373,4.351
		c-2.82,1.158-6.049,3.04-6.049,5.939c0,2.518,2.534,4.279,4.896,5.439c0,3.24,4.639,4.819,7.126,5.509l1.145,8.273
		C81.655,65.073,74.14,66.238,66.729,68.016 M103.198,29.975c4.183,1.657,4.993,3.735,5.198,5c3.938,0.509,7.465,2.263,9.268,4.388
		c2.82,1.158,6.051,3.04,6.051,5.939c0,2.518-2.533,4.264-4.895,5.421c0,3.371-4.582,4.909-7.178,5.578l-1.134,8.218
		c7.841,0.553,15.396,1.724,22.847,3.516c1.834-12.455,2.563-24.555,2.498-34.891l-33.718-11.881l0.679,8.188L103.198,29.975z
		 M108.54,100.793c0.767,9.113,2.203,18.385,3.913,27.473c5.156-7.438,9.294-16.154,12.574-25.461
		C119.712,101.802,114.271,101.127,108.54,100.793 M74.939,102.813c3.183,9.119,7.285,17.9,12.583,25.498
		c1.712-9.097,3.195-18.584,3.939-27.517C85.716,101.127,80.266,101.805,74.939,102.813"/>
</g>
<g id="Content">
</g>
</svg>
