<?xml version="1.0" encoding="utf-8"?>
<!-- Generator: Adobe Illustrator 14.0.0, SVG Export Plug-In . SVG Version: 6.00 Build 43363)  -->
<!DOCTYPE svg PUBLIC "-//W3C//DTD SVG 1.1//EN" "http://www.w3.org/Graphics/SVG/1.1/DTD/svg11.dtd">
<svg version="1.1" id="Layer_1" xmlns="http://www.w3.org/2000/svg" xmlns:xlink="http://www.w3.org/1999/xlink" x="0px" y="0px"
	 width="200px" height="200px" viewBox="0 0 200 200" enable-background="new 0 0 200 200" xml:space="preserve">
<g>
	<path fill="#7F7F7E" d="M100,190.5c-0.071,0-0.22,0-0.748-0.246c-1.417-0.668-14.185-6.814-31.24-19.318
		c-20.779-15.229-34.909-33.945-43.198-57.219c-10.353-29.046-4.396-63.051,4.629-85.19l0.08-0.196l0.26-0.137
		C50.921,15.977,75.224,9.502,100,9.5c24.775,0.002,49.077,6.477,70.279,18.725l0.149,0.087l0.128,0.218
		c9.024,22.135,14.979,56.141,4.629,85.187c-8.287,23.271-22.418,41.987-43.197,57.219c-17.021,12.479-29.814,18.646-31.219,19.31
		C100.22,190.5,100.071,190.5,100,190.5L100,190.5z"/>
	<path fill="#FFFFFF" d="M100,10c25.425,0.002,49.467,6.779,70.029,18.658c0.021,0.008,0.061,0.048,0.063,0.058
		c8.452,20.731,15.365,54.688,4.621,84.833c-9.424,26.461-25.234,43.945-43.021,56.982c-17.783,13.039-31.015,19.201-31.154,19.27
		c0,0-0.428,0.199-0.537,0.199s-0.536-0.199-0.536-0.199c-0.143-0.068-13.372-6.229-31.156-19.27
		c-17.787-13.037-33.598-30.521-43.022-56.982c-10.744-30.145-3.831-64.102,4.621-84.833c0.004-0.01,0.044-0.05,0.063-0.058
		C50.532,16.779,74.575,10.002,100,10 M100,9L100,9c-24.864,0.002-49.253,6.5-70.53,18.792l0,0
		c-0.183,0.106-0.388,0.292-0.492,0.551c-4.886,11.985-8.288,25.895-9.576,39.162c-1.646,16.956,0.016,32.56,4.941,46.379
		c8.324,23.369,22.511,42.162,43.373,57.453c17.094,12.532,29.901,18.698,31.305,19.36C99.669,191,99.876,191,100,191
		s0.331,0,0.959-0.293c1.434-0.676,14.27-6.864,31.324-19.369c20.863-15.292,35.051-34.085,43.374-57.453
		c4.925-13.819,6.587-29.423,4.94-46.379c-1.287-13.267-4.689-27.177-9.578-39.167c-0.104-0.254-0.308-0.44-0.49-0.545l0,0
		C149.252,15.5,124.861,9.002,100,9L100,9z"/>
</g>
<path fill="#FFFFFF" d="M167.833,43.614l-0.423-1.071l-0.961-0.641c-1.124-0.744-27.95-18.256-66.449-18.256
	S34.675,41.158,33.551,41.902l-0.961,0.641l-0.423,1.071c-19.653,49.622-0.437,85.646,19.146,107.13
	c20.974,23.008,46.142,34.236,47.202,34.701l1.485,0.652l1.484-0.652c1.062-0.465,26.229-11.693,47.203-34.701
	C168.271,129.264,187.486,93.236,167.833,43.614z"/>
<path fill="#0C2340" d="M164.46,45.099c-0.019-0.041-0.091-0.152-0.166-0.202C162.367,43.653,136.391,27.33,100,27.33
	c-36.389,0-62.367,16.323-64.294,17.566c-0.075,0.05-0.147,0.161-0.166,0.202C-1.008,137.654,100,182.076,100,182.076
	S201.008,137.654,164.46,45.099z"/>
<path fill="#A7BCD6" d="M100,108.203V95.5c-23.494,1.098-44.908,8.741-61.731,20.807c1.469,3.488,3.202,6.922,5.183,10.295
	C59.016,116.145,78.562,109.439,100,108.203"/>
<path fill="#A7BCD6" d="M31.719,84.285c12.989-8.733,28.099-15.09,44.527-18.343c-3.54-4.197-6.884-8.058-10.08-11.634
	C54.625,57.409,43.805,62.061,33.97,68C32.535,73.953,31.786,79.104,31.719,84.285"/>
<path fill="#A7BCD6" d="M83.064,74.156C64.124,77.145,46.823,84.33,32.43,94.594c0.422,2.947,1.028,6.055,1.821,9.453
	c0.249,1.061,0.526,2.119,0.826,3.172C51.056,95.791,70.952,88.23,92.828,86.248C89.42,81.971,86.171,77.944,83.064,74.156"/>
<path fill="#A7BCD6" d="M100,164.469c-5.532,0.68-10.865,1.74-15.935,3.133c7.236,4.77,13.159,7.834,15.935,9.189V164.469z"/>
<path fill="#A7BCD6" d="M100,130.65v-12.24c-19.273,1.393-36.906,7.277-51.201,16.335c2.185,3.005,4.573,5.952,7.147,8.847
	C68.566,136.609,83.63,132.004,100,130.65"/>
<path fill="#A7BCD6" d="M100,153.165v-11.774c-13.351,1.313-25.754,4.811-36.511,9.99c3.138,2.971,6.313,5.688,9.425,8.153
	C81.191,156.396,90.32,154.205,100,153.165"/>
<polygon fill="#7F7F7E" points="138.046,177.516 138.046,182.538 137.453,182.538 137.453,177.516 135.848,177.516 135.848,176.982 
	139.652,176.982 139.652,177.516 "/>
<polygon fill="#7F7F7E" points="144.859,182.538 144.859,178.318 143.339,181.666 142.83,181.666 141.286,178.318 141.286,182.538 
	140.693,182.538 140.693,176.982 141.286,176.982 143.098,180.925 144.859,176.982 145.453,176.982 145.453,182.538 "/>
<path fill="#FFFFFF" d="M40.102,33.33c-0.786-0.402-1.555-0.787-2.305-1.158c-0.271,0.9-0.549,1.825-0.831,2.775
	c-0.54,0.288-1.084,0.58-1.632,0.883c0.753-2.338,1.458-4.525,2.121-6.578c0.478-0.236,0.952-0.471,1.422-0.697
	c-0.228,0.762-0.698,2.336-0.698,2.336l3.415-3.667c0,0,1.291-0.541,1.851-0.784c-0.004,0.013,0.236-0.1,0.234-0.084
	c-1.19,1.299-3.104,3.339-4.422,4.809c0.937,0.459,1.579,0.794,2.574,1.297c-0.004,0.015-0.008,0.033-0.012,0.049
	C41.159,32.826,40.778,32.995,40.102,33.33"/>
<path fill="#FFFFFF" d="M52.651,27.99c-0.087-0.283-0.175-0.566-0.259-0.85c-1.15,0.427-2.307,0.876-3.467,1.348
	c-0.256,0.421-0.516,0.841-0.777,1.266c-0.514,0.213-1.025,0.429-1.541,0.65c0.002-0.004,0.004-0.012,0.004-0.016
	c1.524-2.412,3-4.749,4.426-7.021c0.494-0.189,0.992-0.378,1.483-0.559c0.461,1.541,0.947,3.105,1.46,4.686
	c-0.001,0.006-0.003,0.01-0.006,0.016C53.535,27.666,53.096,27.826,52.651,27.99 M51.498,24.262
	c-0.595,0.983-1.199,1.98-1.813,2.986c0.816-0.322,1.631-0.639,2.443-0.942C51.913,25.621,51.702,24.939,51.498,24.262"/>
<path fill="#FFFFFF" d="M65.709,23.961c-1.053-0.932-2.083-1.846-3.09-2.742c-0.238,1.252-0.478,2.516-0.717,3.787
	c-0.499,0.146-1.003,0.298-1.506,0.45c0.37-1.864,0.734-3.705,1.099-5.522c0.474-0.136,0.946-0.272,1.421-0.399
	c0.999,0.856,2.021,1.73,3.064,2.621c0.194-1.2,0.387-2.39,0.579-3.568c0.475-0.118,0.946-0.228,1.418-0.336
	c-0.267,1.757-0.539,3.54-0.813,5.345C66.68,23.714,66.197,23.836,65.709,23.961"/>
<path fill="#FFFFFF" d="M80.54,21.053c-1.742,0.24-3.491,0.518-5.243,0.835c-0.347,0.063-0.544-0.085-0.507-0.387
	c0.049-0.428,0.1-0.86,0.149-1.292c0.494-0.09,0.985-0.178,1.476-0.262c-0.032,0.287-0.063,0.574-0.095,0.86
	c1.133-0.194,2.264-0.374,3.393-0.534c0.021-0.246,0.046-0.491,0.068-0.735c-1.449-0.2-2.896-0.375-4.335-0.522
	c-0.286-0.023-0.351-0.144-0.321-0.379c0.053-0.449,0.104-0.896,0.156-1.344c0.034-0.297,0.275-0.526,0.611-0.584
	c1.713-0.299,3.423-0.561,5.126-0.784c0.327-0.043,0.516,0.113,0.491,0.401c-0.033,0.386-0.068,0.773-0.103,1.162
	c-0.484,0.062-0.967,0.127-1.45,0.195c0.021-0.244,0.045-0.487,0.068-0.729c-1.109,0.153-2.224,0.328-3.336,0.513
	c-0.024,0.211-0.047,0.422-0.07,0.633c1.434,0.16,2.874,0.346,4.319,0.558c0.268,0.036,0.352,0.171,0.332,0.397
	c-0.042,0.479-0.084,0.959-0.126,1.437C81.118,20.785,80.885,21.006,80.54,21.053"/>
<path fill="#FFFFFF" d="M94.607,19.775c-0.159-0.292-0.317-0.586-0.477-0.876c-1.18,0.054-2.355,0.123-3.532,0.212
	c-0.186,0.311-0.373,0.627-0.561,0.938c-0.516,0.041-1.027,0.086-1.543,0.132v-0.014c1.103-1.772,2.185-3.532,3.242-5.274
	c0.517-0.035,1.03-0.067,1.546-0.094c0.94,1.626,1.904,3.262,2.887,4.907v0.013C95.65,19.733,95.128,19.754,94.607,19.775
	 M92.469,15.893c-0.436,0.762-0.88,1.523-1.325,2.289c0.835-0.059,1.669-0.109,2.502-0.15
	C93.249,17.316,92.857,16.604,92.469,15.893"/>
<path fill="#FFFFFF" d="M109.945,20.047c-1.77-0.131-3.547-0.223-5.334-0.275c-0.348-0.013-0.582-0.206-0.588-0.499
	c-0.015-0.42-0.023-0.843-0.033-1.263c0.503,0.012,1.004,0.031,1.502,0.052c0.01,0.28,0.02,0.561,0.029,0.842
	c1.15,0.045,2.303,0.106,3.448,0.181c-0.014-0.238-0.024-0.48-0.038-0.723c-1.535-0.507-3.063-0.987-4.593-1.441
	c-0.301-0.082-0.384-0.217-0.389-0.448c-0.015-0.438-0.024-0.87-0.036-1.306c-0.007-0.293,0.209-0.467,0.548-0.457
	c1.742,0.063,3.476,0.162,5.202,0.297c0.331,0.023,0.55,0.218,0.566,0.5c0.023,0.382,0.045,0.764,0.07,1.143
	c-0.49-0.037-0.979-0.074-1.472-0.107c-0.015-0.241-0.024-0.479-0.039-0.718c-1.125-0.079-2.254-0.14-3.386-0.188
	c0.008,0.207,0.013,0.413,0.02,0.618c1.521,0.463,3.043,0.952,4.569,1.468c0.28,0.095,0.389,0.249,0.403,0.474
	c0.028,0.47,0.06,0.944,0.088,1.417C110.508,19.904,110.297,20.071,109.945,20.047"/>
<path fill="#FFFFFF" d="M130.303,23.102c-1.867-0.432-3.723-0.813-5.572-1.152c-0.336-0.063-0.56-0.285-0.597-0.582
	c-0.161-1.4-0.323-2.805-0.483-4.218c-0.033-0.304,0.142-0.462,0.472-0.405c1.821,0.313,3.653,0.67,5.494,1.073
	c0.338,0.074,0.582,0.319,0.625,0.624c0.063,0.487,0.126,0.971,0.188,1.457c-0.49-0.112-0.979-0.222-1.469-0.327
	c-0.041-0.317-0.082-0.638-0.122-0.956c-1.237-0.263-2.47-0.506-3.696-0.73c0.129,1.094,0.258,2.181,0.39,3.266
	c1.237,0.234,2.483,0.488,3.729,0.764c-0.043-0.332-0.084-0.668-0.128-1.004c0.49,0.106,0.979,0.219,1.474,0.332
	c0.064,0.5,0.134,0.998,0.194,1.498C130.844,23.044,130.648,23.182,130.303,23.102"/>
<path fill="#FFFFFF" d="M138.04,25.054c-0.354-1.83-0.705-3.642-1.058-5.433c0.479,0.137,0.951,0.277,1.429,0.42
	c0.366,1.803,0.739,3.625,1.112,5.467C139.027,25.354,138.533,25.201,138.04,25.054"/>
<path fill="#FFFFFF" d="M148.672,24.32c0.379,1.546,0.76,3.128,1.155,4.74c-0.505-0.219-1-0.432-1.495-0.639
	c-0.357-1.572-0.713-3.109-1.061-4.619c-0.815-0.295-1.613-0.573-2.396-0.836c-0.073-0.342-0.143-0.68-0.211-1.018
	c2.005,0.646,4.124,1.396,6.357,2.266c0.102,0.379,0.205,0.758,0.308,1.141C150.423,24.99,149.539,24.646,148.672,24.32"/>
<path fill="#FFFFFF" d="M161.432,32.17c0.209,0.691,0.495,1.771,0.705,2.467c-0.508-0.277-1.009-0.549-1.507-0.813
	c-0.196-0.679-0.379-1.474-0.579-2.15c-1.326-1.738-2.709-3.684-3.945-5.297c-0.006-0.016-0.008-0.031-0.012-0.044
	c0.473,0.205,1.562,0.69,2.045,0.91c0.93,1.236,1.836,2.564,2.453,3.314c0.571-0.615,1.277-1.539,1.277-1.539
	s0.854,0.447,1.406,0.73c0.007,0.018,0.012,0.034,0.016,0.053C162.677,30.6,162.057,31.391,161.432,32.17"/>
<path fill="#FFFFFF" d="M51.386,42.75c-3.396,1.501-6.684,3.074-9.947,4.916c-0.642,0.363-1.164,0.996-1.344,1.617
	c-0.27,0.933-0.609,2.035-0.877,2.968c-0.146,0.492-0.07,0.683,0.449,0.521c2.623-0.771,5.342-1.437,8.152-1.988
	c-0.119,0.5-0.306,1.307-0.425,1.805c-2.298,1.063-4.623,2.315-6.858,3.528c0.162-0.593,0.319-1.107,0.48-1.698
	c-0.962,0.521-1.949,1.122-2.901,1.671c-0.259,0.897-0.487,1.729-0.746,2.623c-0.18,0.622,0.139,0.764,0.819,0.381
	c3.45-1.948,7.044-3.862,10.636-5.452c0.709-0.312,1.255-0.891,1.391-1.49c0.224-0.972,0.451-2.074,0.673-3.048
	c0.108-0.464-0.024-0.677-0.547-0.585c-2.823,0.492-5.559,1.095-8.197,1.803c0.119-0.438,0.367-1.222,0.488-1.662
	c2.074-1.145,4.215-2.19,6.494-3.237c-0.121,0.499-0.237,0.999-0.361,1.5c0.969-0.449,1.946-0.886,2.927-1.306
	c0.182-0.793,0.363-1.584,0.543-2.375C52.367,42.654,52.039,42.461,51.386,42.75"/>
<path fill="#FFFFFF" d="M67.731,36.964c-3.867,1.098-7.668,2.329-11.419,3.845c-0.742,3.494-1.535,7.195-2.276,10.691
	c1.016-0.411,2.041-0.809,3.068-1.191c0.557-2.824,1.162-5.889,1.717-8.711c2.237-0.832,4.486-1.564,6.764-2.25
	c-0.175,1.07-0.389,2.357-0.561,3.43c-2.145,0.646-4.273,1.36-6.383,2.135c0.69,0.332,1.395,0.671,2.106,1.015
	c1.947-0.665,3.912-1.278,5.888-1.837c0.716-0.207,1.22-0.701,1.3-1.291c0.242-1.683,0.52-3.494,0.758-5.177
	C68.78,37.032,68.419,36.77,67.731,36.964"/>
<path fill="#FFFFFF" d="M85.315,33.592c-4.022,0.494-8.003,1.138-11.956,2.047c-0.707,0.162-1.184,0.648-1.264,1.238
	c-0.377,2.768-0.771,5.643-1.142,8.357c-0.079,0.57,0.313,0.832,1.05,0.663c4.115-0.937,8.283-1.667,12.474-2.175
	c0.737-0.092,1.231-0.504,1.28-1.073c0.209-2.694,0.425-5.484,0.642-8.23C86.445,33.832,86.025,33.504,85.315,33.592 M82.582,42.225
	c-2.797,0.389-5.566,0.865-8.328,1.447c0.26-2.094,0.554-4.494,0.816-6.617c2.567-0.537,5.391-1.015,8.12-1.396
	C82.994,37.777,82.772,40.141,82.582,42.225"/>
<path fill="#FFFFFF" d="M102.779,39.334c0.725,0.02,1.19-0.316,1.183-0.875c-0.032-1.537-0.065-3.151-0.097-4.703
	c-0.014-0.584-0.485-0.973-1.186-0.988c-4.078-0.092-8.138,0.021-12.159,0.364c-0.132,3.354-0.261,6.734-0.389,10.021
	c1.061-0.083,2.124-0.154,3.191-0.207c0.07-2.672,0.134-5.514,0.205-8.229c2.404-0.135,4.822-0.178,7.246-0.16
	c0.006,0.976,0.015,2.001,0.021,2.97c-2.32-0.015-4.629,0.014-6.932,0.132c0.541,0.369,5.769,3.816,7.857,5.18
	c1.313,0.021,2.625,0.066,3.941,0.133c-0.002-0.031-0.002-0.061-0.002-0.092c-1.898-1.233-3.508-2.432-5.337-3.582
	C101.258,39.299,101.85,39.311,102.779,39.334"/>
<path fill="#FFFFFF" d="M106.529,34.734c1.843,0.098,3.685,0.247,5.527,0.436c0.197,2.74,0.397,5.665,0.592,8.332
	c1.054,0.111,2.104,0.235,3.156,0.373c-0.224-2.672-0.447-5.598-0.677-8.343c1.842,0.24,3.687,0.534,5.521,0.866
	c-0.067-0.66-0.108-1.178-0.178-1.844c-4.656-0.84-9.369-1.395-14.045-1.638C106.464,33.575,106.492,34.08,106.529,34.734"/>
<path fill="#FFFFFF" d="M124.333,45.168c1.071,0.213,2.14,0.436,3.204,0.676c-0.432-3.373-0.874-6.877-1.307-10.248
	c-1.004-0.227-2.014-0.439-3.025-0.636C123.578,38.318,123.962,41.811,124.333,45.168"/>
<path fill="#FFFFFF" d="M142.094,46.917c-3.005-3.167-6.023-6.546-8.979-9.577c-1.002-0.281-2.049-0.564-3.062-0.822
	c0.536,3.453,1.075,7.004,1.595,10.342c1.062,0.258,2.11,0.555,3.16,0.841c-0.377-2.288-0.779-4.824-1.168-7.163
	c2.986,3.06,6.096,6.521,9.133,9.713c0.994,0.35,1.908,0.709,2.967,1.119c-0.663-3.324-1.408-7.041-2.09-10.485
	c-0.972-0.378-1.945-0.743-2.928-1.098C141.163,42.092,141.667,44.665,142.094,46.917"/>
<path fill="#FFFFFF" d="M162.535,58.455c-0.461-1.705-1.053-3.922-1.317-4.91c-2.629-1.48-3.6-2.014-6.681-3.563l1.609,2.276
	c1.396,0.717,1.646,0.854,2.765,1.463c0.255,0.839,0.541,1.905,0.726,2.559c-2.555-1.439-4.356-2.307-6.934-3.539
	c-0.682-2.641-1.227-4.964-1.768-7.181c2.631,1.216,4.342,2.073,6.705,3.329c0.127,0.532,0.295,1.182,0.295,1.182l2.752,1.552
	c0,0-0.391-1.396-0.621-2.201c-0.194-0.685-0.575-1.214-1.246-1.577c-3.455-1.866-5.881-3.11-10.151-5.017
	c-0.663-0.297-1.032-0.048-0.887,0.562c0.668,2.865,1.366,6.072,2.032,8.928c0.143,0.605,0.668,1.079,1.369,1.392
	c3.68,1.629,6.699,3.147,10.325,5.171C162.367,59.353,162.782,59.355,162.535,58.455"/>
<path fill="#FFFFFF" d="M130.374,86.379c-0.313,0.096-0.093,0.42,0.065,0.611c0.275,0.326,1.963,2.397,2.234,2.668
	c0.229,0.234,0.271,0.428,0.721,0.374c0.476-0.14,0.933-0.262,1.369-0.345c0.705-0.119,1.439-0.197,2.178-0.234
	c0.149-0.003,0.285-0.008,0.397-0.011c2.361-0.065,4.058,0.3,4.081,0.305c4.917,0.823,5.371,4.909,5.389,5.065l0.004,0.129
	c0.037,0.935,0.104,2.881-1.951,4.467c-0.092,0.066-0.123,0.175-0.094,0.281c0.025,0.102,0.115,0.179,0.225,0.188
	c0.789,0.082,1.607,0.123,2.434,0.123c0.223,0,0.447-0.002,0.68-0.008c1.938-0.048,3.414-0.499,4.396-1.348
	c1.002-0.857,1.482-2.125,1.441-3.746c0-0.063-0.015-5.914-8.452-8.602c-2.574-0.82-5.302-0.994-7.14-0.994
	c-1.441,0-2.393,0.104-2.416,0.107c-0.051,0-1.271,0.066-3.144,0.426C131.9,85.994,131.225,86.155,130.374,86.379"/>
<path fill="#FFFFFF" d="M154.566,125.014c-0.092-0.072-0.222-0.08-0.313-0.015c-2.659,1.799-5.825,2.714-9.422,2.714
	c-2.131,0-4.313-0.322-6.492-0.958c-0.512-0.146-0.923-0.29-1.319-0.442c-0.651-0.244-1.263-0.514-1.867-0.818
	c-1.135-0.568-2.245-1.271-3.303-2.072c-0.404-0.313-0.789-0.632-1.156-0.947c-4.42-3.896-6.168-8.594-6.188-8.646
	c-1.204-3.002-1.941-5.563-1.904-9.088c0.019-1.332,0.189-2.672,0.5-3.98c0.004-0.004,0.004-0.008,0.006-0.012
	c0.021-0.093,0.076-0.431,0.076-0.431c0.045-0.184-0.041-0.316-0.152-0.44c-0.275-0.299-4.162-5.042-4.404-5.287
	c-0.208-0.204-0.354-0.576-0.641-0.501c-0.977,1.313-1.596,2.522-2.021,3.433c-0.084,0.179-0.169,0.363-0.247,0.543
	c-0.043,0.1-0.085,0.189-0.124,0.281c-0.004,0.016-0.011,0.029-0.014,0.047c-1.129,2.751-1.659,5.895-1.565,9.343
	c0,0.099,0.395,9.757,7.469,16.354c1.904,1.78,4.006,3.271,6.248,4.44c0.432,0.225,0.855,0.427,1.283,0.62
	c1.756,0.807,3.6,1.418,5.481,1.822c0.56,0.118,1.078,0.213,1.535,0.278c1.212,0.185,2.399,0.278,3.53,0.278
	c0.996,0,1.563-0.073,1.563-0.073c8.729-0.313,12.601-4.004,13.515-6.134C154.688,125.213,154.654,125.092,154.566,125.014"/>
<path fill="#FFFFFF" d="M120.65,90.819l5.627,6.974c0.007,0.008,0.035,0.047,0.041,0.052l0.063,0.083
	c0.263,0.324,0.525,0.642,0.774,0.959l0.129,0.185c4.285,6.177,6.458,11.996,6.458,17.301c0,0.447-0.021,0.896-0.046,1.339
	l-0.026,0.349c-0.024,0.319-0.063,0.638-0.103,0.955l-0.006,0.068c-0.02,0.143-0.039,0.282-0.063,0.427
	c-0.029,0.205-0.063,0.412-0.1,0.613c-0.142,0.762-0.358,1.551-0.619,2.397c-0.07,0.205,0.188,0.334,0.381,0.459
	c0.327,0.223,2.787,1.674,5.309,2.51c0.213,0.068,0.284,0.068,0.348-0.069c0.521-1.228,0.937-2.421,1.256-3.635
	c0.01-0.034,0.015-0.063,0.019-0.103c0.722-2.615,1.08-5.313,1.08-8.021c0-4.604-0.989-9.063-2.95-13.235
	c-0.994-2.15-2.414-4.514-4.216-7.02c-0.271-0.379-0.55-0.758-0.835-1.141c-0.074-0.1-0.15-0.199-0.23-0.301l-0.215-0.285
	c-0.289-0.375-0.588-0.758-0.896-1.133c-0.155-0.207-0.313-0.402-0.479-0.613c-0.229-0.26-0.443-0.521-0.666-0.785l-0.467-0.559
	c-0.281-0.328-0.557-0.654-0.836-0.988l-1.182-1.41c-1.688-2.01-3.377-4.024-5.031-6.035c-4.704-5.975-7.168-10.451-7.316-13.305
	c-0.094-1.646,0.465-2.924,1.709-3.906c1.336-1.055,2.676-1.481,4.642-1.481c1.206,0,2.575,0.67,3.483,1.698
	c0.869,1.084,1.293,2.065,1.293,2.998l0.006,0.135c0.002,0.937,0.017,2.885-2.08,4.42c-0.086,0.063-0.125,0.17-0.096,0.271
	c0.026,0.104,0.11,0.182,0.219,0.195c1.008,0.129,2.054,0.193,3.115,0.193c3.912,0,5.92-1.668,5.969-4.957
	c0.039-1.607-0.508-3.963-3.356-6.063c-2.182-1.611-4.993-2.646-7.521-2.772c-3.786-0.188-7.311,0.777-10.528,2.872
	c-3,1.959-4.583,4.913-4.583,8.535c0,3.945,2.248,8.851,6.688,14.588C116.766,85.99,118.709,88.406,120.65,90.819 M139.836,121.646
	v0.004V121.646z"/>
<path fill="#FFFFFF" d="M128.07,132.787c-0.418-0.189-0.525-0.18-0.779,0.176c-0.426,0.561-0.878,1.133-1.346,1.699
	c-4.491,5.291-10.262,9.803-17.155,13.406c-0.12,0.059-0.171,0.191-0.133,0.313c0.036,0.108,0.139,0.181,0.251,0.181
	c0.011,0,0.027-0.004,0.039-0.004c7.755-1.24,14.523-4.47,20.147-9.611c0.022-0.021,0.046-0.039,0.089-0.082l0.077-0.073
	c0.769-0.716,1.456-1.396,2.091-2.073c0.399-0.377,0.979-1.092,1.769-2.082c0.092-0.109,0.008-0.219-0.103-0.238
	C130.367,133.915,128.475,132.967,128.07,132.787"/>
</svg>
