<?xml version="1.0" encoding="utf-8"?>
<!-- Generator: Adobe Illustrator 14.0.0, SVG Export Plug-In . SVG Version: 6.00 Build 43363)  -->
<!DOCTYPE svg PUBLIC "-//W3C//DTD SVG 1.1//EN" "http://www.w3.org/Graphics/SVG/1.1/DTD/svg11.dtd">
<svg version="1.1" id="Layer_1" xmlns="http://www.w3.org/2000/svg" xmlns:xlink="http://www.w3.org/1999/xlink" x="0px" y="0px"
	 width="200px" height="200px" viewBox="0 0 200 200" enable-background="new 0 0 200 200" xml:space="preserve">
<g>
	<g>
		<g>
			<defs>
				<rect id="SVGID_1_" width="200" height="200"/>
			</defs>
			<clipPath id="SVGID_2_">
				<use xlink:href="#SVGID_1_"  overflow="visible"/>
			</clipPath>
			<path clip-path="url(#SVGID_2_)" d="M100,190c0,0,81.865-27.762,81.865-98.135C181.865,46.651,145.213,10,100,10
				c-45.214,0-81.865,36.651-81.865,81.865C18.135,162.238,100,190,100,190"/>
		</g>
	</g>
	<g>
		<g>
			<defs>
				<rect id="SVGID_3_" width="200" height="200"/>
			</defs>
			<clipPath id="SVGID_4_">
				<use xlink:href="#SVGID_3_"  overflow="visible"/>
			</clipPath>
			<path clip-path="url(#SVGID_4_)" fill="#0072CE" d="M55.244,41.58c-11.482,6.309-19.536,15.578-28.276,28.592h8.18l0.136-0.466
				C38.018,60.353,45.769,49.898,55.244,41.58"/>
		</g>
	</g>
	<g>
		<g>
			<defs>
				<rect id="SVGID_5_" width="200" height="200"/>
			</defs>
			<clipPath id="SVGID_6_">
				<use xlink:href="#SVGID_5_"  overflow="visible"/>
			</clipPath>
			<path clip-path="url(#SVGID_6_)" fill="#0072CE" d="M62.973,52.541c-11.324,5.473-18.915,14.026-21.781,17.631h9.386l0.282-0.703
				C53.275,63.448,57.946,57.499,62.973,52.541"/>
		</g>
	</g>
	<g>
		<g>
			<defs>
				<rect id="SVGID_7_" width="200" height="200"/>
			</defs>
			<clipPath id="SVGID_8_">
				<use xlink:href="#SVGID_7_"  overflow="visible"/>
			</clipPath>
			<path clip-path="url(#SVGID_8_)" fill="#0072CE" d="M75.575,60.803c-8.669,2.008-15.108,6.681-18.256,9.368h12.953l0.128-0.449
				C71.284,66.625,73.216,63.542,75.575,60.803"/>
		</g>
	</g>
	<g>
		<g>
			<defs>
				<rect id="SVGID_9_" width="200" height="200"/>
			</defs>
			<clipPath id="SVGID_10_">
				<use xlink:href="#SVGID_9_"  overflow="visible"/>
			</clipPath>
			<path clip-path="url(#SVGID_10_)" fill="#0072CE" d="M177.314,70.172c-8.541-30.393-34.543-53.542-66.455-57.878
				c9.422,4.173,15.998,13.597,15.998,24.564c0,14.782-11.941,26.77-26.705,26.854c-9.722,0.643-17.557,4.079-21.927,6.46H177.314z"
				/>
		</g>
	</g>
	<g>
		<g>
			<defs>
				<rect id="SVGID_11_" width="200" height="200"/>
			</defs>
			<clipPath id="SVGID_12_">
				<use xlink:href="#SVGID_11_"  overflow="visible"/>
			</clipPath>
			<path clip-path="url(#SVGID_12_)" fill="#FFD100" d="M86.256,13.783c-30.105,5.288-54.405,27.62-62.569,56.647
				c14.072-21.308,26.287-32.799,49.896-38.397C74.991,24.277,79.723,17.683,86.256,13.783"/>
		</g>
	</g>
	<g>
		<g>
			<defs>
				<rect id="SVGID_13_" width="200" height="200"/>
			</defs>
			<clipPath id="SVGID_14_">
				<use xlink:href="#SVGID_13_"  overflow="visible"/>
			</clipPath>
			<path clip-path="url(#SVGID_14_)" fill="#DA291C" d="M73.513,32.425C58.261,39.559,41.973,56.03,37.762,70.43
				c0,0,13.615-20.085,36.954-24.503c-1.016-2.834-1.574-5.887-1.574-9.069C73.142,35.346,73.273,33.868,73.513,32.425"/>
		</g>
	</g>
	<g>
		<g>
			<defs>
				<rect id="SVGID_15_" width="200" height="200"/>
			</defs>
			<clipPath id="SVGID_16_">
				<use xlink:href="#SVGID_15_"  overflow="visible"/>
			</clipPath>
			<path clip-path="url(#SVGID_16_)" fill="#981D97" d="M72.884,70.43c0,0,7.31-5.462,18.715-8.062
				c-3.244-1.069-6.216-2.733-8.782-4.872C78.267,60.989,74.154,65.977,72.884,70.43"/>
		</g>
	</g>
	<g>
		<g>
			<defs>
				<rect id="SVGID_17_" width="200" height="200"/>
			</defs>
			<clipPath id="SVGID_18_">
				<use xlink:href="#SVGID_17_"  overflow="visible"/>
			</clipPath>
			<path clip-path="url(#SVGID_18_)" fill="#009639" d="M74.778,46.108c-7.263,4.929-17.613,14.577-21.521,24.322
				c0,0,11.514-12.555,29.32-13.142C79.098,54.319,76.383,50.483,74.778,46.108"/>
		</g>
	</g>
	<g>
		<g>
			<defs>
				<rect id="SVGID_19_" width="200" height="200"/>
			</defs>
			<clipPath id="SVGID_20_">
				<use xlink:href="#SVGID_19_"  overflow="visible"/>
			</clipPath>
			<path clip-path="url(#SVGID_20_)" fill="#FFFFFF" d="M125.29,38.119c-1.544,1.641-4.151,2.566-4.151,2.566
				c-0.354,2.031-0.017,4.805-3.261,8.29c-0.114,2.153-0.325,4.813-0.444,6.239C122.006,50.87,124.961,44.841,125.29,38.119"/>
		</g>
	</g>
	<g>
		<g>
			<defs>
				<rect id="SVGID_21_" width="200" height="200"/>
			</defs>
			<clipPath id="SVGID_22_">
				<use xlink:href="#SVGID_21_"  overflow="visible"/>
			</clipPath>
			<path clip-path="url(#SVGID_22_)" fill="#FFFFFF" d="M105.934,51.317c0,0,1.76-5.19,0.092-10.643
				c-6.841-1.312-10.524-5.23-10.524-5.23s7.472,4.432,11.746,3.677c4.304-1.94,8.31-6.897,8.31-6.897s4.021,3.621,5.551,7.365
				c0,0,2.283-0.219,4.192-1.749c0.013-0.327,0.024-0.653,0.024-0.983c0-6.465-2.428-12.361-6.413-16.836
				c-2.749-0.114-4.027,1.695-4.027,1.695s1.259,4.896,0.483,8.102c0,0,0.425-5.191-2.128-8.047
				c-4.804-5.372-11.539-4.734-11.539-4.734l-0.039-5.443c-0.552-0.035-1.103-0.059-1.66-0.059c-6.609,0-12.625,2.534-17.134,6.681
				l0.773,3.972c0,0,3.843-0.519,7.103,0.559c2.631-2.037,5.308-3.376,7.607-4.175c-3.511,1.958-4.418,3.061-6.709,4.804
				c-0.125,4.192,1.698,10.956,1.698,10.956s-6.289,2.289-9.675,6.743c0.017,1.887-1.069,2.865,0.591,8.711
				c-2.2-4.886-1.812-8.495-1.812-8.495s-3.889-2.857-5.379-6.846c-1.05,0.651-1.834,1.158-2.363,1.507
				c-0.011,0.301-0.023,0.601-0.023,0.905c0,6.878,2.746,13.11,7.195,17.674c1.051-1.114,2.733-2.759,2.733-2.759
				s5.423,4.866,10.426,5.56c4.202-0.269,7.713-3.564,7.713-3.564s-1.408,1.821-6.099,4.696c0.064,0.98,0.244,2.627,0.347,3.532
				c0.987,0.117,1.989,0.185,3.007,0.185c6.675,0,12.744-2.588,17.27-6.809c-0.148-1.42-0.515-4.223-1.18-5.375
				C111.303,51.866,105.934,51.317,105.934,51.317"/>
		</g>
	</g>
	<g>
		<g>
			<defs>
				<rect id="SVGID_23_" width="200" height="200"/>
			</defs>
			<clipPath id="SVGID_24_">
				<use xlink:href="#SVGID_23_"  overflow="visible"/>
			</clipPath>
			<path clip-path="url(#SVGID_24_)" fill="#FFFFFF" d="M82.48,22.314c0.058-1.606,0.196-3.215,0.268-3.987
				c-4.477,4.171-7.437,9.941-7.976,16.403l2.012-1.416C76.784,33.314,76.938,26.597,82.48,22.314"/>
		</g>
	</g>
	<g>
		<g>
			<defs>
				<rect id="SVGID_25_" width="200" height="200"/>
			</defs>
			<clipPath id="SVGID_26_">
				<use xlink:href="#SVGID_25_"  overflow="visible"/>
			</clipPath>
			<path clip-path="url(#SVGID_26_)" fill="#FFFFFF" d="M168.162,135.251h-27.268c10.806-10.798,27.518-28.944,39.336-46.84
				c-0.228-5.187-0.947-10.247-2.111-15.14H117.26c0.719,7.571,1.163,14.694,1.401,21.435h26.78
				c-7.565,10.864-19.418,25.64-27.625,35.651c-3.102,34.025-12.127,51.653-15.381,57.067c6.313-2.502,22.037-9.389,37.623-21.387
				C149.68,158.634,160.262,148.42,168.162,135.251"/>
		</g>
	</g>
	<g>
		<g>
			<defs>
				<rect id="SVGID_27_" width="200" height="200"/>
			</defs>
			<clipPath id="SVGID_28_">
				<use xlink:href="#SVGID_27_"  overflow="visible"/>
			</clipPath>
			<path clip-path="url(#SVGID_28_)" fill="#FFFFFF" d="M85.838,73.271C77.854,156.025,100,188.354,100,188.354
				s22.146-32.328,14.164-115.083H85.838z"/>
		</g>
	</g>
	<g>
		<g>
			<defs>
				<rect id="SVGID_29_" width="200" height="200"/>
			</defs>
			<clipPath id="SVGID_30_">
				<use xlink:href="#SVGID_29_"  overflow="visible"/>
			</clipPath>
			<path clip-path="url(#SVGID_30_)" fill="#FFFFFF" d="M97.566,187.426L97.566,187.426c-4.736-7.881-21.7-41.624-14.824-114.155
				H68.166c-2.724,9.921-5.399,24.239-4.921,44.801c-5.071-17.207-7.669-32.875-8.926-44.801h-7.321
				c-4.068,16.808-6.198,31.583-5.601,44.946c-5.243-12.025-6.975-25.119-6.99-44.946H21.881
				c-1.421,5.973-2.196,12.193-2.196,18.594c0,35.689,21.893,60.035,40.256,74.175c0.699,0.535,1.398,1.053,2.096,1.569
				c-1.955-10.383-3.18-20.068-3.786-29.021C71.158,163.87,90.996,183.542,97.566,187.426"/>
		</g>
	</g>
</g>
</svg>
