<?xml version="1.0" encoding="utf-8"?>
<!-- Generator: Adobe Illustrator 14.0.0, SVG Export Plug-In . SVG Version: 6.00 Build 43363)  -->
<!DOCTYPE svg PUBLIC "-//W3C//DTD SVG 1.1//EN" "http://www.w3.org/Graphics/SVG/1.1/DTD/svg11.dtd">
<svg version="1.1" id="Layer_1" xmlns="http://www.w3.org/2000/svg" xmlns:xlink="http://www.w3.org/1999/xlink" x="0px" y="0px"
	 width="200px" height="200px" viewBox="0 0 200 200" enable-background="new 0 0 200 200" xml:space="preserve">
<g>
	<g>
		<g>
			<defs>
				<rect id="SVGID_1_" width="200" height="200"/>
			</defs>
			<clipPath id="SVGID_2_">
				<use xlink:href="#SVGID_1_"  overflow="visible"/>
			</clipPath>
			<path clip-path="url(#SVGID_2_)" fill="#FFFFFF" d="M116.014,26.473C111.251,23.877,105.796,22.4,100,22.4
				c-5.719,0-11.107,1.441-15.824,3.975c-14.884,2.524-28.847,8.639-41.083,17.957C27.236,56.561,15.456,73.797,10.12,92.951
				L10,93.13v45.981c0,2.817,1.349,4.797,4.047,6.296l0.059,0.12l84.89,32.072l85.009-32.072c3.956-1.438,5.995-3.598,5.995-6.416
				v-44.99C180.51,58.792,151.198,32.675,116.014,26.473"/>
		</g>
	</g>
	<g>
		<g>
			<defs>
				<rect id="SVGID_3_" width="200" height="200"/>
			</defs>
			<clipPath id="SVGID_4_">
				<use xlink:href="#SVGID_3_"  overflow="visible"/>
			</clipPath>
			<path clip-path="url(#SVGID_4_)" d="M115.512,27.312c-4.611-2.503-9.896-3.924-15.512-3.924c-5.556,0-10.785,1.394-15.362,3.847
				c-35.492,5.871-64.127,31.926-73.649,66.016v45.862c0,3.417,2.517,4.975,3.536,5.574l84.471,31.894l84.648-31.894
				c1.799-0.66,5.396-2.157,5.396-5.574V94.329C179.809,59.946,151.116,33.409,115.512,27.312"/>
		</g>
	</g>
	<g>
		<g>
			<defs>
				<rect id="SVGID_5_" width="200" height="200"/>
			</defs>
			<clipPath id="SVGID_6_">
				<use xlink:href="#SVGID_5_"  overflow="visible"/>
			</clipPath>
			<path clip-path="url(#SVGID_6_)" fill="#FFFFFF" d="M181.367,138.693l-14.389,5.875v-13.909l4.916,5.516l5.338-2.518v-13.369
				l-7.496,2.519c-1.56,0-2.758-1.14-2.758-2.578V99.545c0-1.558,1.198-2.517,2.758-2.517h14.389v10.492l-4.916-6.354h-5.275v14.088
				l7.556-2.577c1.438,0,2.638,0.959,2.638,2.577v20.923C184.125,137.734,183.404,138.033,181.367,138.693"/>
		</g>
	</g>
	<g>
		<g>
			<defs>
				<rect id="SVGID_7_" width="200" height="200"/>
			</defs>
			<clipPath id="SVGID_8_">
				<use xlink:href="#SVGID_7_"  overflow="visible"/>
			</clipPath>
			<path clip-path="url(#SVGID_8_)" fill="#FFFFFF" d="M97.856,130.3h5.277v-29.017h-5.277V130.3z M103.134,168.968v-34.471h-5.277
				v35.31l-9.172-3.355l2.218-4.315v-62.77c0-1.679,1.17-2.518,2.757-2.518h13.578c1.589,0,2.813,0.839,2.813,2.518v62.768
				l2.158,3.417L103.134,168.968z"/>
		</g>
	</g>
	<g>
		<g>
			<defs>
				<rect id="SVGID_9_" width="200" height="200"/>
			</defs>
			<clipPath id="SVGID_10_">
				<use xlink:href="#SVGID_9_"  overflow="visible"/>
			</clipPath>
			<path clip-path="url(#SVGID_10_)" fill="#FFFFFF" d="M155.109,101.164h-5.276v43.225l5.276-2.457V101.164 M159.307,146.966
				l-6.654,2.638l-2.817-1.258l-1.438,2.996l-7.555,3.238l2.037-4.256v-49.4l-2.037-4.076h7.436l1.559,2.278l2.221-2.278h7.254
				c1.559,0,2.817,0.959,2.817,2.517v45.084C162.125,145.947,160.744,146.426,159.307,146.966"/>
		</g>
	</g>
	<g>
		<g>
			<defs>
				<rect id="SVGID_11_" width="200" height="200"/>
			</defs>
			<clipPath id="SVGID_12_">
				<use xlink:href="#SVGID_11_"  overflow="visible"/>
			</clipPath>
			<path clip-path="url(#SVGID_12_)" fill="#FFFFFF" d="M129.152,101.284h-5.276v26.558l5.276-1.738V101.284 M129.152,158.775
				v-27.758l-5.276,1.681v27.815l-9.089,4.196l2.217-5.097v-58.691l-2.217-4.077h18.523c1.416,0,2.795,0.96,2.795,2.518v22.003
				l-3.754,6.054l3.754,1.68v22.123l2.121,4.256L129.152,158.775z"/>
		</g>
	</g>
	<g>
		<g>
			<defs>
				<rect id="SVGID_13_" width="200" height="200"/>
			</defs>
			<clipPath id="SVGID_14_">
				<use xlink:href="#SVGID_13_"  overflow="visible"/>
			</clipPath>
			<polygon clip-path="url(#SVGID_14_)" fill="#FFFFFF" points="68.001,158.896 77.293,101.044 73.607,101.044 68.751,111.596 
				68.751,96.848 85.866,96.848 76.725,154.58 81.4,156.318 86.316,144.809 86.316,165.671 			"/>
		</g>
	</g>
	<g>
		<g>
			<defs>
				<rect id="SVGID_15_" width="200" height="200"/>
			</defs>
			<clipPath id="SVGID_16_">
				<use xlink:href="#SVGID_15_"  overflow="visible"/>
			</clipPath>
			<polygon clip-path="url(#SVGID_16_)" fill="#FFFFFF" points="53.524,153.74 55.742,149.482 55.742,100.925 53.524,96.848 
				65.663,96.848 63.476,100.925 63.476,152.002 65.663,157.997 			"/>
		</g>
	</g>
	<g>
		<g>
			<defs>
				<rect id="SVGID_17_" width="200" height="200"/>
			</defs>
			<clipPath id="SVGID_18_">
				<use xlink:href="#SVGID_17_"  overflow="visible"/>
			</clipPath>
			<path clip-path="url(#SVGID_18_)" fill="#FFFFFF" d="M48.548,100.864v46.821c0,1.736-1.17,2.638-2.817,2.638l-11.482-4.076
				l-1.858-5.216l-2.188,3.775l-9.412-3.775c-1.649-0.659-2.638-1.021-2.638-2.521v-37.646l-2.188-4.136h9.083v39.208l4.525,1.681
				V96.728h7.734v43.404l4.436,1.798V96.728h9.023L48.548,100.864"/>
		</g>
	</g>
	<g>
		<g>
			<defs>
				<rect id="SVGID_19_" width="200" height="200"/>
			</defs>
			<clipPath id="SVGID_20_">
				<use xlink:href="#SVGID_19_"  overflow="visible"/>
			</clipPath>
			<path clip-path="url(#SVGID_20_)" fill="#00A3E0" d="M62.791,54.515C45.349,61.66,31.353,73.819,17.903,93.384l13.53-0.117
				C38.681,78.4,49.566,64.956,62.791,54.515"/>
		</g>
	</g>
	<g>
		<g>
			<defs>
				<rect id="SVGID_21_" width="200" height="200"/>
			</defs>
			<clipPath id="SVGID_22_">
				<use xlink:href="#SVGID_21_"  overflow="visible"/>
			</clipPath>
			<path clip-path="url(#SVGID_22_)" fill="#00A3E0" d="M67.063,68.321c-11.697,4.346-19.301,11.467-31.549,24.93h13.357
				C51.638,86.452,56.599,77.421,67.063,68.321"/>
		</g>
	</g>
	<g>
		<g>
			<defs>
				<rect id="SVGID_23_" width="200" height="200"/>
			</defs>
			<clipPath id="SVGID_24_">
				<use xlink:href="#SVGID_23_"  overflow="visible"/>
			</clipPath>
			<path clip-path="url(#SVGID_24_)" fill="#00A3E0" d="M53.258,93.401h13.413c1.733-3.193,6.157-8.693,9.852-12.582
				C68.112,82.219,63.038,85.161,53.258,93.401"/>
		</g>
	</g>
	<g>
		<g>
			<defs>
				<rect id="SVGID_25_" width="200" height="200"/>
			</defs>
			<clipPath id="SVGID_26_">
				<use xlink:href="#SVGID_25_"  overflow="visible"/>
			</clipPath>
			<path clip-path="url(#SVGID_26_)" fill="#00A3E0" d="M124.29,34.267c5.147,5.76,8.282,13.359,8.282,21.693
				c0,17.989-14.583,32.572-32.572,32.572c-4.095,0-8.011-0.763-11.621-2.143c-5.005,0.491-10.561,3.671-16.03,6.862h111.655
				C174.721,64.856,153.085,43.565,124.29,34.267"/>
		</g>
	</g>
	<g>
		<g>
			<defs>
				<rect id="SVGID_27_" width="200" height="200"/>
			</defs>
			<clipPath id="SVGID_28_">
				<use xlink:href="#SVGID_27_"  overflow="visible"/>
			</clipPath>
			<path clip-path="url(#SVGID_28_)" fill="#DA291C" d="M69.823,68.221c-11.089,9.083-16.318,18.211-19.177,25.12
				c11.296-9.547,16.817-12.905,26.393-14.282C73.956,75.994,71.488,72.314,69.823,68.221"/>
		</g>
	</g>
	<g>
		<g>
			<defs>
				<rect id="SVGID_29_" width="200" height="200"/>
			</defs>
			<clipPath id="SVGID_30_">
				<use xlink:href="#SVGID_29_"  overflow="visible"/>
			</clipPath>
			<path clip-path="url(#SVGID_30_)" fill="#FFCD00" d="M36.827,57.971C27.865,67.352,21,79.103,15.845,93.461
				C31,70.984,46.889,57.907,67.597,50.927c0.083-0.059,0.167-0.116,0.25-0.175c1.03-6.406,3.925-12.188,8.115-16.769
				C59.941,39.315,47.037,47.161,36.827,57.971"/>
		</g>
	</g>
	<g>
		<g>
			<defs>
				<rect id="SVGID_31_" width="200" height="200"/>
			</defs>
			<clipPath id="SVGID_32_">
				<use xlink:href="#SVGID_31_"  overflow="visible"/>
			</clipPath>
			<path clip-path="url(#SVGID_32_)" fill="#009775" d="M67.568,53.003c-9.365,6.824-24.061,19.816-34.187,40.127
				c13.806-15.32,21.763-22.757,35.576-27.295c-0.991-3.116-1.529-6.432-1.529-9.876C67.428,54.962,67.48,53.978,67.568,53.003"/>
		</g>
	</g>
	<g>
		<g>
			<defs>
				<rect id="SVGID_33_" width="200" height="200"/>
			</defs>
			<clipPath id="SVGID_34_">
				<use xlink:href="#SVGID_33_"  overflow="visible"/>
			</clipPath>
			<path clip-path="url(#SVGID_34_)" fill="#1B59A9" d="M68.571,93.461c1.348-0.69,2.637-1.469,2.637-1.469
				c4.766-2.818,9.699-5.659,14.446-6.787c-2.446-1.202-4.716-2.704-6.768-4.454C74.712,84.956,70.374,90.475,68.571,93.461"/>
		</g>
	</g>
	<g>
		<g>
			<defs>
				<rect id="SVGID_35_" width="200" height="200"/>
			</defs>
			<clipPath id="SVGID_36_">
				<use xlink:href="#SVGID_35_"  overflow="visible"/>
			</clipPath>
			<path clip-path="url(#SVGID_36_)" fill="#FFFFFF" d="M125.842,42.983c0,0,0.188-1.185,0.869-2.552
				c2.659,4.564,4.189,9.866,4.189,15.529c0,2.202-0.234,4.349-0.672,6.421l-2.371-4.41
				C127.857,57.971,130.436,51.645,125.842,42.983"/>
		</g>
	</g>
	<g>
		<g>
			<defs>
				<rect id="SVGID_37_" width="200" height="200"/>
			</defs>
			<clipPath id="SVGID_38_">
				<use xlink:href="#SVGID_37_"  overflow="visible"/>
			</clipPath>
			<path clip-path="url(#SVGID_38_)" fill="#FFFFFF" d="M69.771,49.544c0.36,0.58,3.443,5.561,3.951,6.718
				c-0.929,2.997,0.93,7.553,2.458,10.491c0,0-2.312,3.519-2.014,6.154C70.967,68.04,69.1,62.219,69.1,55.96
				C69.1,53.76,69.333,51.614,69.771,49.544"/>
		</g>
	</g>
	<g>
		<g>
			<defs>
				<rect id="SVGID_39_" width="200" height="200"/>
			</defs>
			<clipPath id="SVGID_40_">
				<use xlink:href="#SVGID_39_"  overflow="visible"/>
			</clipPath>
			<path clip-path="url(#SVGID_40_)" fill="#FFFFFF" d="M116.305,82.207l-4.033-5.323c-5.814,4.976-14.539,3.537-14.539,3.537
				s-3.208-0.839-8.544-7.103c0,0,3.988,5.904,6.775,7.913c-0.606,2.718-1.54,3.6-3.35,4.734
				c-7.534-1.849-13.985-6.455-18.212-12.694c0.02-1.964,0.72-3.536,2.468-5.528c3.807,2.697,8.393,2.937,10.911,3.536
				c0,0,1.049-8.903,3.447-12.5c1.529-2.458,9.383-3.956,14.357-4.916c-6.024-0.06-8.603,1.17-14.357,2.638
				c0,0-5.845-5.335-7.135-10.94c-2.937,1.858-5.754,3.746-9.321,8.782c0,0-2.081-1.279-4.998-4.811
				c1.906-9.008,7.734-16.566,15.615-20.803c0.771,0.969,2.546,3.16,3.081,3.462c0,0-2.698,5.217-3.686,11.121
				c0.988-4.796,3.357-8.603,4.856-10.251c0.899-1.679,8.812-3.687,15.467-2.668c0,0,0.459-2.995,0.785-4.766
				c8.482,1.639,15.728,6.747,20.203,13.791c-0.32,0.685-0.9,1.962-1.236,2.906c0,0-5.693-2.638-10.551-3.089
				c0,0-3.152-4.915-7.556-7.283c0,0,4.399,3.926,6.92,8.453c-0.182,4.676-0.899,5.156-5.03,13.338c0,0,5.847,4.347,9.405,9.923
				c0,0-1.642,5.604-3.68,10.28c0,0,2.276-4.735,4.46-10.131c0,0,3.15-1.259,8.129-4.976l3.242,3.662
				C128.411,70.801,123.289,77.858,116.305,82.207"/>
		</g>
	</g>
	<g>
		<g>
			<defs>
				<rect id="SVGID_41_" width="200" height="200"/>
			</defs>
			<clipPath id="SVGID_42_">
				<use xlink:href="#SVGID_41_"  overflow="visible"/>
			</clipPath>
			<polygon clip-path="url(#SVGID_42_)" points="150.793,164.712 150.135,164.712 150.135,161.834 149.055,161.834 149.055,161.174 
				151.872,161.174 151.872,161.834 150.793,161.834 			"/>
		</g>
	</g>
	<g>
		<g>
			<defs>
				<rect id="SVGID_43_" width="200" height="200"/>
			</defs>
			<clipPath id="SVGID_44_">
				<use xlink:href="#SVGID_43_"  overflow="visible"/>
			</clipPath>
			<polygon clip-path="url(#SVGID_44_)" points="153.07,164.712 152.352,164.712 152.352,161.174 153.43,161.174 154.029,163.633 
				154.689,161.174 155.708,161.174 155.708,164.712 155.109,164.712 155.109,161.952 154.389,164.712 153.67,164.712 
				153.07,161.952 			"/>
		</g>
	</g>
</g>
</svg>
