<?xml version="1.0" encoding="utf-8"?>
<!-- Generator: Adobe Illustrator 14.0.0, SVG Export Plug-In . SVG Version: 6.00 Build 43363)  -->
<!DOCTYPE svg PUBLIC "-//W3C//DTD SVG 1.1//EN" "http://www.w3.org/Graphics/SVG/1.1/DTD/svg11.dtd">
<svg version="1.1" id="Layer_1" xmlns="http://www.w3.org/2000/svg" xmlns:xlink="http://www.w3.org/1999/xlink" x="0px" y="0px"
	 width="200px" height="200px" viewBox="0 0 200 200" enable-background="new 0 0 200 200" xml:space="preserve">
<g>
	<path fill="#41B6E6" d="M186.232,50.093c-0.551-4.684-4.728-7.808-9.176-7.362c-11.123,1.341-15.709,0-17.381-0.892l1.1-10.772
		c0.069-0.68,0.151-1.673,0.151-2.388c0-3.792-2.778-7.358-6.676-8.031l-52.56-10.482C101.131,10.053,100.564,10,100,10
		c-0.565,0-1.131,0.053-1.695,0.167L45.746,20.648c-3.895,0.672-6.675,4.238-6.675,8.031c0,0.715,0.083,1.708,0.152,2.388
		l1.099,10.772c-1.67,0.892-6.256,2.232-17.38,0.892c-4.449-0.446-8.624,2.678-9.175,7.362c-0.105,0.892-3.203,25.875,5.421,55.538
		c7.925,27.658,27.949,64.688,77.867,83.869c0.958,0.33,1.951,0.5,2.945,0.5s1.986-0.17,2.945-0.5
		c49.918-19.182,69.939-56.211,77.867-83.869C189.436,75.968,186.338,50.985,186.232,50.093z"/>
	<path d="M183.635,50.437L183.63,50.4c-0.342-2.902-2.804-5.09-5.728-5.09c-0.188,0-0.375,0.009-0.563,0.026
		c-3.215,0.387-6.146,0.583-8.717,0.583c-5.68,0-8.671-0.961-10.184-1.768l-1.551-0.828l0.18-1.75l1.1-10.772
		c0.086-0.852,0.139-1.646,0.139-2.122c0-2.619-1.978-5.012-4.5-5.448l-0.033-0.006l-0.032-0.007l-52.56-10.482
		c-0.385-0.078-0.782-0.116-1.184-0.116s-0.799,0.039-1.183,0.116L46.259,23.219l-0.033,0.007l-0.033,0.006
		c-2.523,0.436-4.5,2.829-4.5,5.448c0,0.476,0.052,1.27,0.138,2.122l1.1,10.772l0.178,1.75l-1.551,0.828
		c-1.511,0.807-4.503,1.768-10.182,1.768c-2.569,0-5.502-0.196-8.717-0.583c-0.186-0.018-0.374-0.026-0.56-0.026
		c-2.924,0-5.386,2.188-5.728,5.09l-0.004,0.037c-0.313,2.621-2.815,26.415,5.342,54.473c7.758,27.073,27.281,63.295,76.241,82.126
		c0.676,0.229,1.366,0.343,2.052,0.343c0.686,0,1.376-0.114,2.053-0.343c48.959-18.831,68.482-55.053,76.24-82.126
		C186.449,76.852,183.945,53.058,183.635,50.437z"/>
	<path fill="#41B6E6" d="M181.643,50.674l-0.006-0.04c-0.257-2.179-2.072-3.318-3.734-3.318c-0.113,0-0.229,0.005-0.346,0.015
		c-3.285,0.395-6.289,0.594-8.932,0.594c-4.893,0-8.637-0.674-11.127-2.004l-2.739-1.463l0.315-3.089l1.099-10.772
		c0.078-0.776,0.128-1.512,0.128-1.918c0-1.644-1.271-3.2-2.835-3.47l-0.059-0.01l-0.06-0.012L100.79,14.705
		c-0.261-0.052-0.517-0.077-0.79-0.077s-0.53,0.025-0.79,0.077L46.651,25.187l-0.059,0.012l-0.059,0.01
		c-1.563,0.27-2.835,1.827-2.835,3.47c0,0.407,0.05,1.143,0.128,1.918l1.099,10.772l0.315,3.089l-2.739,1.463
		c-2.491,1.33-6.234,2.004-11.127,2.004c-2.642,0-5.646-0.2-8.931-0.594c-0.115-0.01-0.232-0.015-0.346-0.015
		c-1.662,0-3.478,1.139-3.735,3.318l-0.004,0.04c-0.308,2.58-2.771,25.999,5.273,53.666l0.002,0.008l0.002,0.01
		c7.63,26.627,26.833,62.25,74.988,80.789c0.458,0.149,0.92,0.228,1.375,0.228s0.917-0.076,1.375-0.228
		c48.154-18.539,67.357-54.162,74.988-80.789l0.002-0.01l0.003-0.008C184.412,76.673,181.949,53.254,181.643,50.674z"/>
	<path d="M180.591,50.8l-0.005-0.042c-0.186-1.564-1.49-2.383-2.684-2.383c-0.079,0-0.158,0.003-0.237,0.01
		c-3.319,0.397-6.36,0.599-9.04,0.599c-5.068,0-8.979-0.716-11.625-2.129l-3.366-1.797l0.388-3.795l1.101-10.772
		c0.074-0.73,0.122-1.443,0.122-1.811c0-1.009-0.786-2.226-1.956-2.428l-0.072-0.012l-0.071-0.015l-52.56-10.482
		c-0.192-0.038-0.381-0.056-0.583-0.056s-0.391,0.018-0.583,0.056l-52.56,10.482l-0.072,0.015l-0.072,0.012
		c-1.17,0.202-1.956,1.418-1.956,2.428c0,0.368,0.048,1.081,0.122,1.811l1.099,10.772l0.388,3.795L43,46.855
		c-2.646,1.413-6.557,2.129-11.625,2.129c-2.679,0-5.72-0.202-9.04-0.599c-0.08-0.007-0.159-0.01-0.237-0.01
		c-1.194,0-2.5,0.819-2.684,2.383L19.409,50.8c-0.304,2.557-2.746,25.778,5.239,53.245l0.003,0.01l0.003,0.012
		c7.562,26.393,26.595,61.697,74.325,80.082c0.343,0.11,0.687,0.166,1.021,0.166s0.68-0.056,1.021-0.166
		c47.729-18.385,66.763-53.689,74.323-80.082l0.003-0.012l0.004-0.01C183.337,76.578,180.896,53.357,180.591,50.8z"/>
	<path fill="#41B6E6" d="M175.667,53.886c-24.89,2.229-27.112-8.254-27.253-9.591c-0.027-0.265-0.031-0.373,0-0.668
		c0,0,0.975-9.372,1.254-12.715c-4.174-0.891-48.693-9.813-49.668-10.036c-0.975,0.223-45.494,9.145-49.668,10.036
		c0.279,3.343,1.254,12.715,1.254,12.715c0.031,0.296,0.028,0.403,0,0.668c-0.14,1.337-2.364,11.819-27.253,9.591
		c-0.14,2.005-0.276,4.907-0.276,8.922c0,9.591,0.971,24.088,5.696,39.926C40.322,139.092,63.986,164.74,100,178.796
		c36.014-14.056,59.678-39.703,70.247-76.062c4.726-15.837,5.696-30.335,5.696-39.926C175.943,58.792,175.807,55.891,175.667,53.886
		z"/>
	<path fill="#00205B" d="M82.215,25.511c-11.942,2.403-26.562,5.345-30.783,6.217c0.346,3.828,1.165,11.706,1.174,11.792
		c0.039,0.375,0.033,0.556,0,0.88c-0.058,0.55-0.508,3.424-3.74,6.088c-3.809,3.14-9.866,4.731-18.004,4.731
		c-1.754,0-3.625-0.076-5.573-0.227c-0.138,2.347-0.207,4.97-0.207,7.814c0,9.437,0.981,23.972,5.653,39.633
		C41.19,138.41,64.493,163.725,100,177.693V21.922C98.688,22.195,92.219,23.497,82.215,25.511z"/>
	<path fill="#FFD100" d="M145.361,67.689c-3.26-2.41-6.922-3.631-10.883-3.631c-11.321,0-21.384,9.91-22.537,11.085l-2.752,2.1
		c-0.697,0.418-1.603,0.667-2.434,0.667c-0.646,0-1.748-0.139-1.882-1.068c-0.188-1.343,0.063-2.489,1.896-3.699
		c0.013-0.007,0.022-0.016,0.035-0.023c1.291-0.899,2.707-1.355,4.203-1.355c1.385,0,2.348,0.4,2.357,0.405
		c0.216,0.091,0.441,0.135,0.668,0.135c0.521,0,1.029-0.235,1.355-0.668l10.288-13.605c0.327-0.433,0.429-0.997,0.271-1.516
		c-0.158-0.519-0.556-0.931-1.069-1.107l-2.207-0.761l3.645-9.052c0.285-0.708,0.063-1.519-0.545-1.981
		c-0.303-0.23-0.664-0.345-1.024-0.345c-0.363,0-0.728,0.117-1.03,0.35l-12.058,9.24H88.34l-12.059-9.241
		c-0.304-0.233-0.667-0.35-1.03-0.35c-0.361,0-0.722,0.115-1.025,0.345c-0.607,0.462-0.831,1.273-0.546,1.98l3.645,9.052
		l-2.207,0.76c-0.514,0.177-0.911,0.588-1.069,1.107c-0.158,0.519-0.058,1.083,0.27,1.516l10.289,13.604
		c0.327,0.433,0.836,0.668,1.356,0.668c0.226,0,0.452-0.043,0.668-0.135c0.01-0.004,0.974-0.405,2.357-0.405
		c1.497,0,2.912,0.456,4.205,1.355c0.011,0.007,0.022,0.016,0.034,0.023c1.833,1.209,2.084,2.356,1.896,3.705
		c-0.132,0.923-1.235,1.062-1.882,1.062c-0.83,0-1.734-0.249-2.432-0.667l-2.752-2.101c-1.153-1.174-11.216-11.084-22.535-11.084
		c-3.962,0-7.624,1.221-10.885,3.631c-7.318,5.411-9.188,17.335-5.262,33.574c3.659,15.14,12.034,32.382,22.979,47.306
		c0.329,0.449,0.843,0.692,1.366,0.692c0.289,0,0.58-0.073,0.846-0.227c0.748-0.433,1.052-1.357,0.705-2.148
		c-0.048-0.106-4.724-10.792-8.601-22.448c-6.637-19.953-5.547-26.12-4.308-28.018c0.445-0.682,1.023-0.973,1.933-0.973
		c0.738,0,1.646,0.207,2.694,0.613c0.199,0.077,0.406,0.114,0.611,0.114c0.51,0,1.006-0.231,1.334-0.649
		c0.46-0.587,0.481-1.406,0.054-2.018c-1.729-2.467-5.913-9.789-4.535-13.987c0.442-1.349,1.467-2.277,3.133-2.84
		c0.595-0.202,1.168-0.304,1.706-0.304c4.958,0,7.793,8.956,8.467,12.406c0.125,0.645,0.614,1.157,1.251,1.317
		c0.136,0.034,0.274,0.051,0.412,0.051c0.501,0,0.986-0.224,1.313-0.623c0.677-0.828,2.905-2.978,5.06-2.978
		c1.438,0,2.783,1.013,3.995,3.011c5.116,8.424,8.787,13.65,8.823,13.702c0.317,0.451,0.834,0.719,1.385,0.719
		s1.067-0.268,1.385-0.719c0.036-0.052,3.707-5.278,8.822-13.702c1.213-1.998,2.558-3.011,3.997-3.011
		c2.58,0,5.031,2.944,5.056,2.974c0.326,0.403,0.813,0.628,1.317,0.628c0.136,0,0.271-0.017,0.408-0.05
		c0.64-0.159,1.127-0.674,1.255-1.32c0.674-3.451,3.509-12.406,8.466-12.406c0.539,0,1.111,0.102,1.702,0.303
		c1.67,0.563,2.694,1.492,3.138,2.841c1.377,4.198-2.809,11.52-4.536,13.987c-0.428,0.611-0.405,1.431,0.054,2.018
		c0.328,0.418,0.824,0.649,1.334,0.649c0.205,0,0.412-0.037,0.611-0.114c1.049-0.407,1.956-0.613,2.695-0.613
		c0.908,0,1.488,0.292,1.934,0.974c1.241,1.9,2.33,8.07-4.313,28.04c-3.88,11.653-8.548,22.319-8.597,22.426
		c-0.347,0.791-0.043,1.718,0.705,2.148c0.268,0.153,0.559,0.227,0.846,0.227c0.523,0,1.037-0.243,1.367-0.692
		c10.944-14.924,19.32-32.166,22.979-47.305C154.55,85.024,152.682,73.101,145.361,67.689z"/>
	<path d="M55.645,69.052c14.184-10.482,31.286,7.362,31.286,7.362l2.92,2.229c2.502,1.564,6.534,1.341,6.95-1.56
		c0.279-2.006-0.276-3.792-2.641-5.353c-4.17-2.901-8.202-1.114-8.202-1.114L75.668,57.01l3.893-1.341l-4.31-10.705l12.515,9.591
		h24.47l12.514-9.591l-4.311,10.705l3.894,1.341l-10.289,13.606c0,0-4.033-1.787-8.203,1.114c-2.364,1.56-2.92,3.347-2.641,5.353
		c0.416,2.901,4.448,3.124,6.95,1.56l2.92-2.229c0,0,17.103-17.844,31.285-7.362c14.184,10.486,4.17,48.181-18.076,78.517
		c0,0,26.837-61.116,6.117-53.085c0,0,11.125-15.839,0.559-19.404c-9.178-3.124-12.377,13.383-12.377,13.383
		s-6.674-8.254-11.817,0.223c-5.145,8.473-8.76,13.606-8.76,13.606s-3.615-5.134-8.76-13.606
		c-5.145-8.477-11.817-0.223-11.817-0.223s-3.199-16.507-12.377-13.383c-10.566,3.565,0.558,19.404,0.558,19.404
		c-20.719-8.031,6.117,53.085,6.117,53.085C51.475,117.232,41.462,79.538,55.645,69.052z"/>
	<polyline fill="#41B6E6" points="98.885,63.477 87.069,63.477 84.566,57.901 98.885,63.477 	"/>
	<polyline fill="#41B6E6" points="101.115,63.477 112.932,63.477 115.434,57.901 101.115,63.477 	"/>
	<path fill="#FFD100" d="M83.872,125.805v-7.58c0-0.529-0.602-0.959-1.345-0.959h-8.405c-0.508,0-0.818,0-1.022,0.164
		c-0.129,0.104-0.284,0.291-0.284,0.557c0,0,0,8.51,0,8.537c0,0.689,0.579,1.261,1.27,1.261c0.71,0,1.271-0.569,1.271-1.261
		c0-0.06,0-4.104,0-4.104c0-0.582-0.333-0.873-0.626-1.082c-0.231-0.165-0.438-0.309-0.514-0.688v-1.137
		c0-0.182,0.112-0.842,0.896-0.842h2.055c0.878,0,0.878,0.932,0.878,0.932v6.172c-0.262,0.209-0.411,0.539-0.411,0.869
		c0,0.629,0.485,1.138,1.102,1.138c0.617,0,1.121-0.509,1.121-1.138c0-0.33-0.168-0.66-0.411-0.869v-6.293
		c0-0.119,0.112-0.811,0.935-0.811h1.195c0.495,0,0.896,0.376,0.896,0.842v6.291c-0.243,0.209-0.411,0.51-0.411,0.867
		c0,0.629,0.504,1.107,1.12,1.107c0.617,0,1.103-0.479,1.103-1.107C84.283,126.314,84.134,126.016,83.872,125.805"/>
	<path fill="#FFD100" d="M93.753,125.176c0,0,0-0.148,0,1.229l0,0c-0.02,1.379-0.841,1.349-0.841,1.349h-5.641
		c-0.759,0-1.308-0.604-1.308-1.406v-8.391c0-0.391,0.317-0.721,0.71-0.721c0.393,0,0.71,0.33,0.71,0.721v2.666
		c0.078,0.457,0.305,0.555,0.56,0.738c0.296,0.215,0.561,0.564,0.561,1.09v2.779c0,0.83,0.437,1.175,1.14,1.175c0,0,1.046,0,1.942,0
		c0.541,0,0.766-0.563,0.766-0.839v-7.551c0-0.391,0.299-0.688,0.691-0.688s0.71,0.299,0.71,0.688V125.176"/>
	<path fill="#FFD100" d="M103.707,117.326h-8.031c-0.354,0-0.635,0.27-0.635,0.629s0.28,0.629,0.635,0.629h2.056
		c0.578,0,0.802,0.416,0.802,0.6v3.506c0,1.039,1.14,1.117,1.14,1.828v1.307c-0.261,0.203-0.43,0.521-0.43,0.881
		c0,0.619,0.502,1.121,1.121,1.121s1.119-0.502,1.119-1.121c0-0.352-0.159-0.66-0.41-0.866v-6.685c0-0.215,0.306-0.568,0.691-0.568
		h1.94c0.336,0,0.617-0.271,0.617-0.629S104.043,117.326,103.707,117.326z"/>
	<path fill="#FFD100" d="M107.889,121.451c-0.262-0.193-0.524-0.355-0.576-0.709v-2.727c0-0.361-0.315-0.689-0.711-0.689
		c-0.392,0-0.688,0.328-0.688,0.689v8.539c0,0.719,0.562,1.258,1.271,1.258c0.689,0,1.271-0.539,1.271-1.258v-4.076
		C108.451,121.959,108.171,121.66,107.889,121.451z"/>
	<path fill="#FFD100" d="M110.02,119.979c0,0,0,0.148,0-1.229l0,0c0.021-1.379,0.842-1.35,0.842-1.35h5.642
		c0.761,0,1.31,0.604,1.31,1.408v8.39c0,0.39-0.317,0.719-0.711,0.719c-0.393,0-0.709-0.329-0.709-0.719v-2.667
		c-0.078-0.455-0.307-0.553-0.562-0.738c-0.296-0.214-0.562-0.564-0.562-1.088v-2.781c0-0.831-0.438-1.174-1.141-1.174
		c0,0-1.046,0-1.941,0c-0.541,0-0.767,0.561-0.767,0.838v7.551c0,0.392-0.299,0.689-0.69,0.689c-0.393,0-0.711-0.301-0.711-0.689
		V119.979"/>
	<path fill="#FFD100" d="M125.934,117.596c-0.689,0-1.271,0.631-1.271,1.318v2.756c0,0.326-0.149,0.584-0.304,0.732
		c-0.26,0.25-0.642,0.257-0.836,0.257c0,0-1.047,0-1.941,0c-0.6,0-0.747-0.558-0.747-0.929v-3.416c0-0.391-0.317-0.689-0.71-0.689
		s-0.691,0.301-0.691,0.689c0,0,0,2.996,0,4.045c0,1.095,0.248,1.678,0.84,1.678h2.263v3.206c0,0.39,0.315,0.688,0.71,0.688
		c0.393,0,0.689-0.301,0.689-0.688v-3.206h2.019c0.69,0,1.231-0.6,1.231-1.288v-3.896
		C127.186,118.164,126.624,117.596,125.934,117.596z"/>
	<circle fill="#172D5C" cx="116.548" cy="118.66" r="0.14"/>
	<circle fill="#172D5C" cx="125.934" cy="118.854" r="0.14"/>
	<circle fill="#172D5C" cx="107.182" cy="126.533" r="0.14"/>
	<circle fill="#172D5C" cx="100.364" cy="126.703" r="0.14"/>
	<circle fill="#172D5C" cx="83.181" cy="126.703" r="0.14"/>
	<circle fill="#172D5C" cx="87.244" cy="126.494" r="0.14"/>
	<circle fill="#172D5C" cx="78.736" cy="126.703" r="0.14"/>
	<circle fill="#172D5C" cx="74.085" cy="126.539" r="0.141"/>
</g>
</svg>
