<?xml version="1.0" encoding="utf-8"?>
<!-- Generator: Adobe Illustrator 14.0.0, SVG Export Plug-In . SVG Version: 6.00 Build 43363)  -->
<!DOCTYPE svg PUBLIC "-//W3C//DTD SVG 1.1//EN" "http://www.w3.org/Graphics/SVG/1.1/DTD/svg11.dtd">
<svg version="1.1" id="Layer_1" xmlns="http://www.w3.org/2000/svg" xmlns:xlink="http://www.w3.org/1999/xlink" x="0px" y="0px"
	 width="200px" height="200px" viewBox="0 0 200 200" enable-background="new 0 0 200 200" xml:space="preserve">
<g>
	<path fill="#FFFFFF" d="M177.736,112.229v-5.642c0,0-3.439-0.747-9.17-1.819l2.34-8.523c0,0-5.786-1.886-16.665-3.873V50.512
		c0,0-10.722-1.896-26.177-3.22l2.806-8.952l-9.89-7.179l-2.106-6.497l-3.444,2.501l1.317-4.051h-6.838l-9.91-7.196l-9.909,7.196
		h-6.838l1.318,4.051l-3.444-2.501l-2.107,6.497l-9.89,7.179l2.806,8.952c-15.455,1.324-26.175,3.22-26.175,3.22V92.37
		c-10.878,1.985-16.666,3.873-16.666,3.873l2.338,8.524c-5.729,1.071-9.17,1.818-9.17,1.818v5.643L10,125.287l12.263,8.699v6.92
		c0,0,9.692-1.822,23.591-3.737C48.22,169.802,100,184.081,100,184.081s51.782-14.279,54.148-46.911
		c13.896,1.914,23.588,3.736,23.588,3.736v-6.92L190,125.287L177.736,112.229z"/>
	<path fill="#A2AAAD" d="M71.254,82.019c-2.066,0.187-4.14,0.393-6.221,0.618l-5.944,7.682c3.731-0.475,7.791-0.916,12.165-1.29
		V82.019z"/>
	<path fill="#A2AAAD" d="M57.195,128.119c1.24,9.136,14.059,18.152,14.059,18.152V121.25c-5.108,0.456-9.804,1.005-14.059,1.598
		V128.119z"/>
	<path fill="#A2AAAD" d="M73.685,159.504c3.083,2.16,6.326,4.078,9.478,5.744l5.68-4.707c-6.038-2.57-11.034-5.336-15.157-8.085
		L73.685,159.504L73.685,159.504z"/>
	<path fill="#A2AAAD" d="M134.965,82.637c-2.08-0.226-4.152-0.432-6.219-0.618v7.01c4.375,0.374,8.434,0.815,12.163,1.29
		L134.965,82.637z"/>
	<path fill="#A2AAAD" d="M128.746,146.271c0,0,12.818-9.019,14.059-18.152v-5.271c-4.255-0.593-8.951-1.142-14.059-1.598V146.271z"
		/>
	<path fill="#A2AAAD" d="M116.836,165.248c3.152-1.666,6.396-3.584,9.479-5.744v-7.048c-4.121,2.749-9.119,5.515-15.155,8.085
		L116.836,165.248z"/>
	<g>
		<path fill="#A2AAAD" d="M96.472,101.402c0-0.389,0.317-0.707,0.705-0.707h5.457v-0.729h-6.188c-0.387,0-0.704,0.317-0.704,0.705
			v5.804h0.729L96.472,101.402L96.472,101.402z"/>
		<path fill="#A2AAAD" d="M107.227,99.81v6.823c0,2.363-1.925,4.287-4.287,4.287h-7.501c-0.172,0-0.342-0.011-0.509-0.029
			c0.584,0.475,1.326,0.76,2.134,0.76h6.606c2.363,0,4.287-1.924,4.287-4.285v-5.932c0-0.805-0.284-1.549-0.761-2.133
			C107.215,99.467,107.227,99.638,107.227,99.81z"/>
		<path fill="#A2AAAD" d="M148.68,105.135c0-0.388,0.319-0.65,0.706-0.584l5.457,0.932v-0.729l-6.188-1.059
			c-0.385-0.064-0.703,0.197-0.703,0.587v5.743l0.729,0.125V105.135L148.68,105.135z"/>
		<path fill="#A2AAAD" d="M159.404,104.864c0.021,0.171,0.029,0.343,0.029,0.515v6.766c0,2.365-1.925,3.961-4.287,3.558l-7.502-1.28
			c-0.172-0.029-0.34-0.068-0.511-0.117c0.584,0.574,1.327,0.986,2.136,1.123l6.606,1.131c2.36,0.4,4.286-1.191,4.286-3.557v-5.873
			C160.164,106.32,159.879,105.529,159.404,104.864z"/>
		<path fill="#A2AAAD" d="M60.19,103.145v5.744l0.73-0.082v-5.019c0-0.386,0.317-0.741,0.704-0.784l5.457-0.617v-0.729l-6.187,0.699
			C60.508,102.4,60.19,102.753,60.19,103.145z"/>
		<path fill="#A2AAAD" d="M71.675,100.98v6.768c0,2.361-1.924,4.502-4.287,4.77l-7.502,0.852c-0.173,0.02-0.342,0.027-0.51,0.025
			c0.584,0.41,1.328,0.609,2.135,0.52l6.606-0.746c2.363-0.27,4.287-2.408,4.287-4.773v-5.869c0-0.809-0.285-1.52-0.761-2.047
			C71.663,100.639,71.675,100.809,71.675,100.98z"/>
		<polygon fill="#A2AAAD" points="41.459,107.359 42.571,106.043 44.682,105.67 44.682,104.939 41.459,105.512 		"/>
		<polygon fill="#A2AAAD" points="49.274,104.121 49.274,112.538 50.004,113.135 50.004,104.723 53.363,104.124 52.637,103.521 		
			"/>
		<polygon fill="#A2AAAD" points="55.016,104.213 55.745,104.816 55.745,101.045 55.016,101.174 		"/>
		<polygon fill="#A2AAAD" points="46.816,115.355 46.083,116.217 51.121,115.32 50.388,114.719 		"/>
		<polygon fill="#A2AAAD" points="130.334,102.186 132.443,102.414 132.443,101.684 129.219,101.335 129.219,103.184 		"/>
		<polygon fill="#A2AAAD" points="140.398,102.539 137.036,102.177 137.036,110.617 137.766,111.423 137.766,102.984 
			141.125,103.348 		"/>
		<polygon fill="#A2AAAD" points="142.777,103.908 143.507,104.721 143.507,100.947 142.777,100.871 		"/>
		<polygon fill="#A2AAAD" points="133.846,113.383 138.883,113.925 138.148,113.114 134.577,112.73 		"/>
		<polygon fill="#A2AAAD" points="121.536,111.594 122.119,112.354 126.85,112.678 126.113,111.91 		"/>
		<polygon fill="#A2AAAD" points="125.002,109.475 125.73,110.24 125.73,100.183 126.85,99.127 125.002,99.035 		"/>
		<polygon fill="#A2AAAD" points="114.632,111.243 111.061,111.15 110.327,111.842 115.363,112.01 		"/>
		<polygon fill="#A2AAAD" points="114.248,104.004 113.518,103.053 113.518,108.809 114.248,109.57 		"/>
		<path fill="#A2AAAD" d="M90.179,109.396v-0.906c0-0.693-0.28-1.309-0.733-1.744c0.003,0.054,0.004,0.105,0.004,0.158v1.805
			L90.179,109.396z"/>
		<polygon fill="#A2AAAD" points="78.696,108.242 84.857,107.9 84.857,107.17 77.966,107.555 77.966,109.261 78.696,109.947 		"/>
		<polygon fill="#A2AAAD" points="79.081,111.576 75.509,111.866 74.775,112.635 79.813,112.266 		"/>
		<path fill="#A2AAAD" d="M88.491,104.594c0.137,0.135,0.261,0.282,0.371,0.441c0.783-0.479,1.316-1.344,1.316-2.301v-1.196
			c0-0.808-0.285-1.535-0.76-2.092c0.021,0.167,0.03,0.335,0.03,0.508v2.219C89.449,103.064,89.09,103.93,88.491,104.594z"/>
		<polygon fill="#A2AAAD" points="78.696,101.439 84.857,101.096 84.857,100.368 77.966,100.75 77.966,103.109 78.696,103.068 		"/>
		<polygon fill="#A2AAAD" points="86.992,111.137 86.259,111.908 91.296,111.717 90.564,111.027 		"/>
	</g>
	<path fill="#C8102E" d="M175.066,113.285v-4.531c0,0-2.674-0.566-7.207-1.408l-0.777,2.834l4.145,18.535l-15.117,6.016
		c11.349,1.586,18.957,2.975,18.957,2.975v-5.1l10.891-7.725L175.066,113.285z"/>
	<path fill="#C8102E" d="M32.917,110.18l-0.777-2.834c-4.533,0.842-7.206,1.408-7.206,1.408v4.531l-10.889,11.596l10.889,7.725v5.1
		c0,0,7.61-1.389,18.957-2.975l-15.117-6.016L32.917,110.18z"/>
	<path fill="#C8102E" d="M54.029,65.312c7.707-1.073,24.104-3.036,42.427-3.268l-7.455-5.417c-22.643,0.827-40.57,3.861-40.57,3.861
		V91.9c1.754-0.298,3.621-0.595,5.599-0.888L54.029,65.312L54.029,65.312z"/>
	<path fill="#C8102E" d="M151.566,91.9V60.488c0,0-17.926-3.034-40.568-3.861l-7.456,5.417c18.321,0.232,34.722,2.195,42.426,3.268
		v25.7C147.947,91.305,149.814,91.602,151.566,91.9z"/>
	<path fill="#C8102E" d="M145.968,134.854c0,24.264-37.829,37.927-45.969,40.58c-8.138-2.653-45.97-16.316-45.97-40.58v-11.543
		c-1.974,0.299-3.842,0.604-5.599,0.912v10.633c0,31.649,51.568,46.447,51.568,46.447s51.568-14.798,51.568-46.447v-10.633
		c-1.758-0.309-3.623-0.613-5.602-0.912v11.543H145.968z"/>
	<path fill="#C8102E" d="M99.999,61.317l10.056-7.303c23.086,0.774,41.514,3.893,41.514,3.893v-5.139c0,0-11.188-1.892-27.049-3.095
		l3.229-10.299l-9.038-6.563l-1.243-3.827l-7.118,5.169l2.723-8.369h-4.027L100,19.219l-9.042,6.565H86.93l2.724,8.369l-7.121-5.169
		l-1.242,3.827l-9.038,6.563l3.229,10.299c-15.86,1.203-27.05,3.095-27.05,3.095v5.139c0,0,18.43-3.119,41.516-3.893L99.999,61.317z
		 M115.454,36.732l6.313,4.586l-2.576,7.947l-7.603-0.411l-2.446-7.536L115.454,36.732z M99.999,25.508l6.317,4.585l-2.412,7.419
		h-7.812l-2.412-7.419L99.999,25.508z M96.095,43.021h7.812l2.412,7.417L100,55.024l-6.316-4.586L96.095,43.021z M80.807,49.265
		l-2.575-7.947l6.314-4.586l6.311,4.586l-2.448,7.536L80.807,49.265z"/>
	<path fill="#D8002A" d="M147.762,110.889l7.271,1.243c0.388,0.065,0.705-0.198,0.705-0.587v-6.829c0-0.388-0.317-0.761-0.705-0.825
		l-7.271-1.242c-0.387-0.066-0.705,0.197-0.705,0.584v6.832C147.057,110.451,147.375,110.823,147.762,110.889z M147.95,104.279
		c0-0.387,0.319-0.65,0.704-0.584l6.188,1.057v0.73l-5.456-0.934c-0.388-0.064-0.706,0.196-0.706,0.584v5.018l-0.729-0.125V104.279
		L147.95,104.279z"/>
	<path fill="#C8102E" d="M32.365,124.889c0,0,25.972-7.568,67.634-7.568c41.664,0,67.638,7.568,67.638,7.568l-3.307-14.772
		l3.307-12.043c0,0-25.974-7.57-67.638-7.57c-41.662,0-67.634,7.57-67.634,7.57l3.303,12.043L32.365,124.889z M41.459,107.359v-1.85
		l3.223-0.57v0.729l-2.11,0.373L41.459,107.359z M46.083,116.217l0.733-0.861l3.571-0.637l0.733,0.602L46.083,116.217z
		 M50.004,104.723v8.412l-0.729-0.597v-8.417l3.362-0.6l0.727,0.603L50.004,104.723z M74.775,112.635l0.733-0.769l3.572-0.29
		l0.731,0.688L74.775,112.635z M78.696,109.947l-0.73-0.688v-1.704l6.892-0.387v0.729l-6.161,0.344L78.696,109.947L78.696,109.947z
		 M110.327,111.842l0.731-0.691l3.571,0.095l0.729,0.767L110.327,111.842z M114.248,109.57l-0.73-0.762v-5.758l0.73,0.951V109.57z
		 M122.119,112.354l-0.583-0.76l4.578,0.316l0.733,0.768L122.119,112.354z M129.219,103.184v-1.849l3.225,0.349v0.73l-2.107-0.229
		L129.219,103.184z M133.846,113.383l0.731-0.65l3.571,0.384l0.732,0.811L133.846,113.383z M137.766,102.984v8.438l-0.729-0.806
		v-8.44l3.361,0.362l0.728,0.81L137.766,102.984z M160.164,107.127V113c0,2.363-1.924,3.957-4.286,3.555l-6.606-1.129
		c-0.809-0.137-1.551-0.549-2.135-1.124c0.168,0.048,0.338,0.087,0.51,0.118l7.502,1.28c2.363,0.403,4.287-1.19,4.287-3.556v-6.768
		c0-0.172-0.011-0.344-0.028-0.516C159.879,105.529,160.164,106.32,160.164,107.127z M144.253,102.787
		c0-1.867,1.528-3.132,3.394-2.813l7.502,1.28c1.865,0.318,3.394,2.105,3.394,3.973v6.768c0,1.863-1.524,3.131-3.394,2.813
		l-7.502-1.279c-1.863-0.319-3.394-2.106-3.394-3.973V102.787z M142.777,100.871l0.729,0.076v3.772l-0.729-0.813V100.871z
		 M127.596,97.611l14.286,1.539v3.772l-1.114-1.236l-4.625-0.498v9.705l1.116,1.232l-5.038-0.543l1.117-0.99v-9.708l-4.63-0.498
		l-1.112,0.999V97.611z M125.73,100.183v10.058l-0.729-0.767V99.035l1.847,0.092L125.73,100.183z M108.702,96.585l4.729,0.154
		l7.87,10.249V98.25l-1.116-1.169l5.039,0.34l-1.119,1.056v11.326l1.119,1.168l-4.729-0.324l-7.874-10.189v8.678l1.115,1.17
		l-5.035-0.164l1.115-1.059V97.754L108.702,96.585z M107.955,101.434v5.932c0,2.361-1.924,4.285-4.287,4.285h-6.606
		c-0.808,0-1.55-0.285-2.134-0.76c0.167,0.021,0.337,0.029,0.509,0.029h7.502c2.361,0,4.287-1.924,4.287-4.287V99.81
		c0-0.172-0.013-0.343-0.029-0.509C107.671,99.884,107.955,100.629,107.955,101.434z M92.044,99.81c0-1.865,1.527-3.393,3.393-3.393
		h7.502c1.865,0,3.393,1.528,3.393,3.393v6.823c0,1.865-1.527,3.393-3.393,3.393h-7.502c-1.865,0-3.393-1.525-3.393-3.393V99.81z
		 M91.296,111.717l-5.037,0.191l0.733-0.771l3.572-0.109L91.296,111.717z M89.445,106.746c0.453,0.436,0.733,1.051,0.733,1.744
		v0.906l-0.729-0.688v-1.806C89.449,106.852,89.448,106.8,89.445,106.746z M90.179,101.538v1.196c0,0.957-0.533,1.822-1.316,2.301
		c-0.11-0.159-0.234-0.307-0.371-0.441c0.599-0.664,0.958-1.529,0.958-2.42v-2.219c0-0.173-0.01-0.341-0.03-0.508
		C89.894,100.003,90.179,100.73,90.179,101.538z M73.151,97.551l12.011-0.752c1.866-0.103,3.393,1.339,3.393,3.204v2.22
		c0,1.072-0.67,2.029-1.611,2.457c0.941,0.32,1.611,1.203,1.611,2.275v2.178l1.118,1.049l-5.038,0.191l1.117-1.174v-2.268
		c0-0.391-0.317-0.688-0.705-0.666l-7.976,0.442v2.974l1.117,1.051l-5.037,0.369l1.116-1.177V98.602L73.151,97.551z M72.404,102.521
		v5.869c0,2.365-1.924,4.508-4.287,4.773l-6.606,0.746c-0.807,0.092-1.551-0.108-2.135-0.52c0.168,0.002,0.337-0.009,0.51-0.025
		l7.502-0.852c2.363-0.268,4.287-2.408,4.287-4.77v-6.768c0-0.172-0.012-0.343-0.031-0.506
		C72.119,101.004,72.404,101.715,72.404,102.521z M56.493,102.699c0-1.866,1.527-3.565,3.393-3.777l7.502-0.85
		c1.865-0.211,3.393,1.143,3.393,3.007v6.769c0,1.864-1.527,3.563-3.393,3.774l-7.502,0.851c-1.865,0.211-3.393-1.144-3.393-3.009
		V102.699z M55.016,101.174l0.729-0.129v3.771l-0.729-0.604V101.174z M39.835,102.25l14.286-2.541v3.771l-1.112-0.918l-4.63,0.822
		v9.686l1.117,0.912l-5.037,0.896l1.117-1.312v-9.683l-4.629,0.822l-1.112,1.313V102.25z"/>
	<path fill="#D8002A" d="M85.752,102.867v-2.739c0-0.388-0.317-0.688-0.705-0.666l-7.976,0.443v4.147l7.976-0.443
		C85.435,103.588,85.752,103.254,85.752,102.867z M84.857,101.096l-6.161,0.344v1.629l-0.73,0.041v-2.357l6.892-0.382
		L84.857,101.096L84.857,101.096z"/>
	<path fill="#D8002A" d="M60.002,109.805l7.269-0.822c0.389-0.047,0.706-0.396,0.706-0.787v-6.827c0-0.39-0.317-0.67-0.706-0.624
		l-7.269,0.82c-0.388,0.045-0.705,0.396-0.705,0.785v6.828C59.297,109.566,59.614,109.848,60.002,109.805z M60.19,103.145
		c0-0.392,0.317-0.742,0.705-0.787l6.187-0.699v0.729l-5.457,0.617c-0.387,0.043-0.704,0.398-0.704,0.784v5.019l-0.73,0.082
		L60.19,103.145L60.19,103.145z"/>
	<path fill="#D8002A" d="M95.553,107.369h7.271c0.388,0,0.704-0.318,0.704-0.703v-6.887c0-0.389-0.316-0.707-0.704-0.707h-7.271
		c-0.389,0-0.705,0.318-0.705,0.707v6.887C94.848,107.051,95.164,107.369,95.553,107.369z M95.742,100.673
		c0-0.388,0.317-0.705,0.704-0.705h6.188v0.729h-5.457c-0.388,0-0.705,0.316-0.705,0.705v5.072h-0.729L95.742,100.673
		L95.742,100.673z"/>
	<polygon fill="#C8102E" points="85.86,129.227 86.629,129.709 86.629,127.445 76.024,127.445 76.732,128.059 76.732,134.545 
		76.024,135.154 79.622,135.154 78.914,134.545 78.914,132.191 84.812,132.191 84.812,130.41 78.914,130.41 78.914,129.227 	"/>
	<path fill="#C8102E" d="M116.619,129.227h6.384l0.771,0.482v-2.264H116.6c-1.672,0-3.025,1.086-3.025,2.428v2.854
		c0,1.342,1.354,2.429,3.025,2.429h7.174v-1.78h-7.152c-0.479,0-0.865-0.288-0.865-0.643v-2.862
		C115.754,129.514,116.143,129.227,116.619,129.227z"/>
	<path fill="#333F48" d="M154.241,124.704v7.894l12.764-5.078C164.137,126.77,159.848,125.752,154.241,124.704z"/>
	<path fill="#333F48" d="M45.76,132.6v-7.896c-5.606,1.048-9.896,2.063-12.765,2.813L45.76,132.6z"/>
	<path fill="#333F48" d="M57.275,136.598c0.729,8.403,6.655,15.489,13.979,21.123v-6.953
		C63.516,145.161,59.329,139.82,57.275,136.598z"/>
	<path fill="#333F48" d="M128.746,150.768v6.953c7.322-5.634,13.248-12.72,13.979-21.123
		C140.668,139.82,136.482,145.161,128.746,150.768z"/>
	<path fill="#333F48" d="M57.195,67.912v19.584l4.994-7.129c7.638-0.882,17.896-1.814,29.211-2.152v9.722
		c2.784-0.068,5.647-0.105,8.599-0.105s5.815,0.038,8.601,0.105v-9.722c11.313,0.338,21.575,1.27,29.211,2.152l4.994,7.129V67.912
		c-9.363-1.222-25.353-2.897-42.806-2.897C82.547,65.015,66.559,66.69,57.195,67.912z"/>
	<path fill="#333F48" d="M108.6,120.104c-2.789-0.073-5.65-0.11-8.601-0.11c-2.947,0-5.811,0.037-8.599,0.11v41.641l-5.761,4.773
		c6.048,3.004,11.477,5.029,14.359,6.002c2.884-0.973,8.313-3.002,14.359-6.002l-5.76-4.773v-41.641H108.6z"/>
	<polygon fill="#333F48" points="121.838,178.066 122.91,178.066 122.91,181.303 123.298,181.303 123.298,178.066 124.424,178.066 
		124.424,177.682 121.838,177.682 	"/>
	<polygon fill="#333F48" points="126.497,180.628 125.564,177.682 124.941,177.682 124.941,181.303 125.333,181.303 
		125.333,178.225 126.301,181.303 126.691,181.303 127.66,178.225 127.66,181.303 128.05,181.303 128.05,177.682 127.424,177.682 	
		"/>
</g>
</svg>
