<?xml version="1.0" encoding="utf-8"?>
<!-- Generator: Adobe Illustrator 14.0.0, SVG Export Plug-In . SVG Version: 6.00 Build 43363)  -->
<!DOCTYPE svg PUBLIC "-//W3C//DTD SVG 1.1//EN" "http://www.w3.org/Graphics/SVG/1.1/DTD/svg11.dtd">
<svg version="1.1" id="Layer_1" xmlns="http://www.w3.org/2000/svg" xmlns:xlink="http://www.w3.org/1999/xlink" x="0px" y="0px"
	 width="200px" height="200px" viewBox="0 0 200 200" enable-background="new 0 0 200 200" xml:space="preserve">
<path fill="#00184B" d="M132.297,175.852v-3.065h-1.195v-0.534h3.016v0.534h-1.204v3.065H132.297z M134.527,175.852v-3.601h0.904
	l0.934,2.876l0.9-2.876h0.887v3.601h-0.562v-3.021l-0.95,3.021h-0.558l-0.991-3.065v3.065H134.527z"/>
<polygon fill="#6F6E6F" points="169.814,98.912 125.286,26.176 123.424,23.134 121.563,26.176 115.729,35.697 101.861,13.042 
	100,10 98.139,13.042 84.271,35.697 78.438,26.176 76.577,23.134 74.714,26.176 30.185,98.912 29.52,100 30.185,101.088 
	74.714,173.824 76.577,176.866 78.438,173.824 84.271,164.305 98.139,186.957 100,190 101.861,186.957 115.729,164.305 
	121.563,173.824 123.424,176.866 125.286,173.824 169.814,101.088 170.48,100 "/>
<polygon fill="#00184B" points="123.424,27.262 115.729,39.824 100,14.129 84.271,39.824 76.577,27.262 32.048,100 76.577,172.738 
	84.271,160.176 100,185.871 115.729,160.176 123.424,172.738 167.952,100 "/>
<polygon fill="#84B1E0" points="123.425,163.73 116.741,152.816 121.549,144.963 123.425,148.027 145.27,112.341 154.884,112.341 
	"/>
<polygon fill="#84B1E0" points="60.499,112.341 70.113,112.341 100,161.157 129.887,112.341 139.501,112.341 100,176.863 "/>
<polygon fill="#84B1E0" points="78.451,144.963 83.259,152.816 76.575,163.73 45.117,112.341 54.731,112.341 76.575,148.027 "/>
<polygon fill="#FFFFFF" points="123.425,36.27 116.741,47.183 121.549,55.037 123.425,51.972 145.27,87.659 154.884,87.659 "/>
<polygon fill="#FFFFFF" points="100,38.842 122.827,76.128 132.441,76.128 100,23.136 67.559,76.128 77.173,76.128 "/>
<polygon fill="#FFFFFF" points="78.451,55.037 83.259,47.183 76.575,36.27 45.117,87.659 54.731,87.659 76.575,51.972 "/>
<polygon fill="#FFFFFF" points="53.415,106.803 50.335,97.358 50.295,97.358 47.215,106.803 44.569,106.803 40.425,93.16 
	43.78,93.16 46.013,101.908 46.05,101.908 48.973,93.16 51.837,93.16 54.737,102.139 54.777,102.139 57.125,93.16 60.245,93.16 
	56.159,106.803 "/>
<polygon fill="#FFFFFF" points="70.794,106.805 70.794,100.906 64.812,100.906 64.812,106.805 61.73,106.805 61.73,93.159 
	64.812,93.159 64.812,98.246 70.794,98.246 70.794,93.159 73.874,93.159 73.874,106.805 "/>
<rect x="77.229" y="93.159" fill="#FFFFFF" width="3.078" height="13.646"/>
<polygon fill="#FFFFFF" points="86.59,106.805 86.59,95.818 82.603,95.818 82.603,93.159 93.658,93.159 93.658,95.818 
	89.671,95.818 89.671,106.805 "/>
<polygon fill="#FFFFFF" points="96.063,106.805 96.063,93.159 105.563,93.159 105.563,95.935 99.145,95.935 99.145,98.479 
	103.886,98.479 103.886,101.255 99.145,101.255 99.145,104.027 105.915,104.027 105.915,106.805 "/>
<path fill="#FFFFFF" d="M117.109,96.703c-0.612-0.711-1.5-1.116-2.646-1.116c-2.328,0-4.046,1.85-4.046,4.394
	c0,2.546,1.718,4.394,3.948,4.394c1.244,0,2.251-0.539,2.883-1.465l2.566,1.871c-1.166,1.619-3.14,2.369-5.054,2.369
	c-4.366,0-7.543-2.793-7.543-7.169c0-4.375,3.177-7.169,7.543-7.169c1.56,0,3.533,0.521,4.718,2.005L117.109,96.703z"/>
<path fill="#FFFFFF" d="M126.15,93.159h2.548l6.081,13.646h-3.477l-1.203-2.891h-5.43l-1.167,2.891h-3.396L126.15,93.159z
	 M127.335,97.128l-1.694,4.24h3.412L127.335,97.128z"/>
<path fill="#FFFFFF" d="M136.167,93.159h5.19c2.902,0,5.311,0.905,5.311,4.143c0,3.2-2.229,4.185-5.173,4.185h-2.252v5.318h-3.076
	V93.159z M139.243,98.94h2.057c1.083,0,2.171-0.365,2.171-1.638c0-1.408-1.461-1.6-2.646-1.6h-1.581L139.243,98.94L139.243,98.94z"
	/>
<path fill="#FFFFFF" d="M155.905,96.492c-0.493-0.615-1.481-0.904-2.232-0.904c-0.866,0-2.071,0.385-2.071,1.407
	c0,2.486,6.436,0.886,6.436,5.666c0,3.045-2.507,4.489-5.389,4.489c-1.799,0-3.379-0.518-4.699-1.715l2.191-2.351
	c0.631,0.808,1.657,1.29,2.685,1.29c1.007,0,2.134-0.461,2.134-1.425c0-2.507-6.557-1.157-6.557-5.705
	c0-2.912,2.588-4.434,5.332-4.434c1.578,0,3.1,0.405,4.283,1.426L155.905,96.492z"/>
<polygon fill="#FFFFFF" points="88.691,112.262 98.066,112.262 98.066,115.035 91.771,115.035 91.771,117.813 96.276,117.813 
	96.276,120.588 91.771,120.588 91.771,125.908 88.691,125.908 "/>
<path fill="#FFFFFF" d="M108.434,115.807c-0.61-0.711-1.5-1.117-2.646-1.117c-2.328,0-4.048,1.853-4.048,4.396
	c0,2.545,1.72,4.396,3.948,4.396c1.246,0,2.252-0.541,2.886-1.465l2.565,1.87c-1.166,1.617-3.142,2.37-5.056,2.37
	c-4.362,0-7.541-2.796-7.541-7.171c0-4.374,3.179-7.17,7.541-7.17c1.56,0,3.534,0.522,4.719,2.006L108.434,115.807z"/>
<polygon fill="#FFFFFF" points="64.175,79.908 66.182,79.908 68.156,85.019 68.18,85.019 70.188,79.908 72.071,79.908 
	68.778,87.706 67.367,87.706 "/>
<path fill="#FFFFFF" d="M74.308,79.908h1.458l3.473,7.798h-1.984l-0.689-1.653h-3.103l-0.664,1.653H70.86L74.308,79.908z
	 M74.984,82.176L74.016,84.6h1.951L74.984,82.176z"/>
<polygon fill="#FFFFFF" points="80.198,79.908 82.591,79.908 85.985,85.327 86.01,85.327 86.01,79.908 87.769,79.908 87.769,87.706 
	85.469,87.706 81.98,82.155 81.959,82.155 81.959,87.706 80.198,87.706 "/>
<path fill="#FFFFFF" d="M94.709,81.935c-0.35-0.407-0.857-0.639-1.512-0.639c-1.331,0-2.312,1.058-2.312,2.512
	s0.979,2.512,2.255,2.512c0.71,0,1.287-0.31,1.646-0.837l1.467,1.067c-0.664,0.925-1.795,1.354-2.889,1.354
	c-2.492,0-4.31-1.596-4.31-4.096s1.817-4.097,4.31-4.097c0.891,0,2.02,0.297,2.695,1.146L94.709,81.935z"/>
<path fill="#FFFFFF" d="M101.127,79.71c2.494,0,4.311,1.597,4.311,4.097s-1.815,4.096-4.311,4.096s-4.311-1.596-4.311-4.096
	S98.632,79.71,101.127,79.71 M101.127,86.319c1.499,0,2.48-1.058,2.48-2.512c0-1.454-0.981-2.512-2.48-2.512
	c-1.5,0-2.482,1.058-2.482,2.512C98.645,85.261,99.627,86.319,101.127,86.319"/>
<path fill="#FFFFFF" d="M113.658,84.7c0,1.84-1.151,3.204-3.363,3.204c-2.221,0-3.373-1.364-3.373-3.204v-4.792h1.762v4.725
	c0,0.959,0.678,1.686,1.611,1.686c0.926,0,1.604-0.727,1.604-1.686v-4.725h1.761L113.658,84.7L113.658,84.7z"/>
<polygon fill="#FFFFFF" points="114.632,79.908 116.645,79.908 118.615,85.019 118.641,85.019 120.646,79.908 122.529,79.908 
	119.236,87.706 117.826,87.706 "/>
<polygon fill="#FFFFFF" points="123.593,79.908 129.02,79.908 129.02,81.495 125.352,81.495 125.352,82.949 128.814,82.949 
	128.814,84.535 125.352,84.535 125.352,86.121 129.221,86.121 129.221,87.706 123.593,87.706 "/>
<path fill="#FFFFFF" d="M130.788,79.908h3.088c1.638,0,3.013,0.551,3.013,2.369c0,1.09-0.599,1.937-1.726,2.138l2.03,3.292h-2.11
	l-1.668-3.117h-0.869v3.117h-1.758V79.908L130.788,79.908z M132.546,83.135h1.038c0.643,0,1.477-0.022,1.477-0.87
	c0-0.783-0.722-0.903-1.363-0.903h-1.15L132.546,83.135L132.546,83.135z"/>
</svg>
